<svg width="767" height="349" viewBox="0 0 767 349" fill="none" xmlns="http://www.w3.org/2000/svg">
<g clip-path="url(#clip0)">
<path d="M730.483 101.819L679.46 324.097L355.455 329.757L406.478 107.48L730.483 101.819Z" fill="white" stroke="#030C21" stroke-width="2" stroke-miterlimit="10"/>
<path d="M731.241 101.01L735.302 109.253L683.521 332.34L679.46 324.097L731.241 101.01Z" fill="#12223A"/>
<path d="M679.46 324.097L683.521 332.34L358.658 338.277L354.598 330.034L679.46 324.097Z" fill="#030C21"/>
<path d="M445.471 0.354004L411.786 147.1L94.3833 150.85L128.069 4.10403L445.471 0.354004Z" fill="white" stroke="#030C21" stroke-width="2" stroke-miterlimit="10"/>
<path d="M445.471 0.354004L448.508 6.54508L414.822 153.291L411.786 147.1L445.471 0.354004Z" fill="#12223A"/>
<path d="M411.786 147.1L414.822 153.291L96.9225 157.171L93.5327 150.98L411.786 147.1Z" fill="#030C21"/>
<path d="M295.103 184.189L262.227 327.399L53.46 331.025L86.3369 187.816L295.103 184.189Z" fill="white" stroke="#030C21" stroke-width="2" stroke-miterlimit="10"/>
<path d="M295.723 183.518L299 190.159L265.501 334.079L262.225 327.399L295.723 183.518Z" fill="#12223A"/>
<path d="M262.227 327.399L265.503 334.079L56.7362 337.705L53.46 331.025L262.227 327.399Z" fill="#030C21"/>
<path d="M130.223 195.908L124.47 220.908L88.0503 221.557L93.7647 196.557L130.223 195.908Z" fill="#F7F8FA" stroke="#030C21" stroke-width="2" stroke-miterlimit="10"/>
<path d="M283.217 193.35L277.502 218.351L132.089 220.87L137.842 195.907L283.217 193.35Z" fill="#F7F8FA" stroke="#030C21" stroke-width="2" stroke-miterlimit="10"/>
<path d="M275.292 227.206L259.444 291.444L72.2402 295.146L85.9929 230.984L275.292 227.206Z" fill="#F7F8FA" stroke="#030C21" stroke-width="2" stroke-miterlimit="10"/>
<path d="M258.302 300.147L255.254 314.002L68.0879 317.705L71.288 303.888L258.302 300.147Z" fill="#0F8CFF"/>
<path d="M181.67 150.85L174.502 179.364" stroke="#030C21" stroke-width="2" stroke-miterlimit="10"/>
<path d="M172.913 183.645L171.889 174.412L175.244 176.393L178.881 176.181L172.913 183.645Z" fill="#030C21"/>
<path d="M160.413 150.85L153.281 179.364" stroke="#030C21" stroke-width="2" stroke-miterlimit="10"/>
<path d="M151.692 183.645L150.632 174.412L153.987 176.393L157.624 176.181L151.692 183.645Z" fill="#030C21"/>
<path d="M139.651 150.85L132.483 179.364" stroke="#030C21" stroke-width="2" stroke-miterlimit="10"/>
<path d="M130.894 183.645L129.87 174.412L133.225 176.393L136.862 176.181L130.894 183.645Z" fill="#030C21"/>
<path d="M140.011 154.546C142.039 154.546 143.683 152.898 143.683 150.866C143.683 148.834 142.039 147.187 140.011 147.187C137.983 147.187 136.338 148.834 136.338 150.866C136.338 152.898 137.983 154.546 140.011 154.546Z" fill="#030C21"/>
<path d="M160.466 154.546C162.494 154.546 164.138 152.898 164.138 150.866C164.138 148.834 162.494 147.187 160.466 147.187C158.438 147.187 156.794 148.834 156.794 150.866C156.794 152.898 158.438 154.546 160.466 154.546Z" fill="#030C21"/>
<path d="M181.68 154.546C183.708 154.546 185.352 152.898 185.352 150.866C185.352 148.834 183.708 147.187 181.68 147.187C179.651 147.187 178.007 148.834 178.007 150.866C178.007 152.898 179.651 154.546 181.68 154.546Z" fill="#030C21"/>
<path d="M438.147 44.7031L470.844 45.0569L452.518 132.263" stroke="#030C21" stroke-width="2" stroke-miterlimit="10"/>
<path d="M435.754 60.29L448.451 60.6438L430.125 147.85" stroke="#030C21" stroke-width="2" stroke-miterlimit="10"/>
<path d="M451.847 136.968L449.94 127.841L453.471 129.504L457.073 128.973L451.847 136.968Z" fill="#030C21"/>
<path d="M429.455 152.555L427.548 143.428L431.079 145.09L434.681 144.56L429.455 152.555Z" fill="#030C21"/>
<path d="M439.065 48.7716C441.093 48.7716 442.737 47.1244 442.737 45.0924C442.737 43.0604 441.093 41.4131 439.065 41.4131C437.037 41.4131 435.393 43.0604 435.393 45.0924C435.393 47.1244 437.037 48.7716 439.065 48.7716Z" fill="#12223A"/>
<path d="M434.672 64.3585C436.7 64.3585 438.345 62.7113 438.345 60.6793C438.345 58.6473 436.7 57 434.672 57C432.644 57 431 58.6473 431 60.6793C431 62.7113 432.644 64.3585 434.672 64.3585Z" fill="#12223A"/>
<g clip-path="url(#clip1)">
<path d="M519 122.194H523.958L520.438 136.751H522.818L526.338 122.144H531.296L531.891 120H519.545L519 122.194Z" fill="black"/>
<path d="M533.725 137C536.353 137 538.485 135.654 539.526 133.61L537.444 133.211C536.75 134.408 535.56 135.006 534.271 135.006C532.288 135.006 531.246 133.66 531.792 131.217H540.32L540.518 130.369C541.609 125.833 539.477 124.038 536.75 124.038C533.428 124.038 530.552 126.73 529.66 130.569C528.619 134.457 530.205 137 533.725 137ZM532.188 129.372C532.734 127.578 534.32 126.032 536.205 126.032C537.989 126.032 538.832 127.428 538.386 129.372H532.188Z" fill="black"/>
<path d="M552.765 127.279C552.765 125.334 551.624 124.038 549.046 124.038C546.319 124.038 544.088 125.534 543.543 127.777C543.096 129.572 543.84 130.768 545.972 131.267L547.906 131.716C548.997 131.965 549.393 132.513 549.195 133.311C548.947 134.308 547.807 135.056 546.27 135.056C544.881 135.056 544.138 134.408 544.138 133.211L541.807 133.56C541.659 135.803 543.096 137.05 545.823 137.05C548.699 137.05 551.129 135.455 551.674 133.161C552.12 131.367 551.277 130.27 549.245 129.771L547.46 129.323C546.22 128.974 545.774 128.525 545.972 127.677C546.22 126.73 547.36 126.032 548.699 126.032C550.137 126.032 550.633 126.88 550.682 127.727L552.765 127.279Z" fill="black"/>
<path d="M561.888 124.187H559.459L560.202 121.196H557.872L557.128 124.187H555.393L554.897 126.132H556.632L554.847 133.56C554.302 135.853 555.69 136.95 557.525 136.9C558.269 136.9 558.814 136.751 559.111 136.651L559.161 134.607C559.012 134.657 558.715 134.707 558.318 134.707C557.574 134.707 556.93 134.457 557.277 133.012L558.963 126.082H561.392L561.888 124.187Z" fill="black"/>
<path d="M565.557 129.273C566.053 127.279 567.491 126.132 569.127 126.132C570.714 126.132 571.408 127.229 570.962 129.023L569.077 136.751H571.408L573.341 128.774C574.085 125.683 572.846 124.038 570.416 124.038C568.631 124.038 567.243 124.935 566.35 126.232H566.202L566.698 124.188H564.466L561.442 136.751H563.772L565.557 129.273Z" fill="black"/>
<path d="M579.638 137C582.266 137 584.398 135.654 585.439 133.61L583.357 133.211C582.663 134.408 581.473 135.006 580.184 135.006C578.2 135.006 577.159 133.66 577.704 131.217H586.232L586.431 130.369C587.522 125.833 585.39 124.038 582.663 124.038C579.341 124.038 576.465 126.73 575.572 130.569C574.531 134.457 576.068 137 579.638 137ZM578.101 129.372C578.646 127.578 580.233 126.032 582.117 126.032C583.902 126.032 584.745 127.428 584.299 129.372H578.101Z" fill="black"/>
<path d="M596 124.187H593.571L594.315 121.196H591.984L591.241 124.187H589.505L589.009 126.132H590.745L588.96 133.56C588.414 135.853 589.803 136.95 591.637 136.9C592.381 136.9 592.926 136.751 593.224 136.651L593.273 134.607C593.125 134.657 592.827 134.707 592.43 134.707C591.687 134.707 591.042 134.457 591.389 133.012L593.075 126.082H595.505L596 124.187Z" fill="black"/>
</g>
</g>
<defs>
<clipPath id="clip0">
<rect width="767" height="349" fill="white"/>
</clipPath>
<clipPath id="clip1">
<rect width="77" height="17" fill="white" transform="translate(519 120)"/>
</clipPath>
</defs>
</svg>
