<svg width="17" height="16" viewBox="0 0 17 16" fill="none" xmlns="http://www.w3.org/2000/svg">
<path d="M16.5326 8.21745C16.5326 3.67904 12.8314 0 8.26612 0C3.70083 0 0 3.67904 0 8.21745C0 11.8196 2.33164 14.88 5.57655 15.9896C5.77432 15.8476 6.00209 15.6726 6.00209 15.3778C6.00209 14.926 5.99233 13.7633 5.99233 13.7633C5.99233 13.7633 5.63367 13.8241 5.12136 13.8241C3.83098 13.8241 3.42316 13.01 3.229 12.5546C2.97628 11.9612 2.64872 11.6826 2.30054 11.4598C2.08687 11.3229 2.0377 11.1618 2.285 11.1155C3.42713 10.9027 3.7189 12.3961 4.48177 12.634C5.02627 12.8037 5.72623 12.7303 6.0744 12.5075C6.12032 12.0514 6.45295 11.6571 6.72989 11.4494C4.78981 11.265 3.63972 10.599 3.04317 9.52826L2.97917 9.40821L2.82913 9.0682L2.78502 8.94636C2.5981 8.40291 2.51567 7.78039 2.51567 7.08527C2.51567 5.85102 2.90469 5.38521 3.42713 4.72711C3.02762 3.31997 3.57067 2.35816 3.57067 2.35816C3.57067 2.35816 4.41055 2.186 5.99775 3.30991C6.85788 2.94546 9.15192 2.91491 10.2373 3.22904C10.9029 2.79378 12.1217 2.17594 12.613 2.34918C12.7461 2.56088 13.0328 3.17872 12.7873 4.53518C12.954 4.83278 13.8217 5.46644 13.825 7.25851C13.8109 7.91949 13.7414 8.47731 13.6124 8.94923L13.5408 9.19076C13.5408 9.19076 13.4999 9.3047 13.4551 9.41324L13.4027 9.53329C12.8271 10.783 11.6466 11.2495 9.73907 11.4436C10.3573 11.8282 10.5345 12.3109 10.5345 13.617C10.5345 14.9232 10.5168 15.0986 10.5211 15.399C10.5247 15.6647 10.7384 15.8555 10.9304 16C14.1879 14.8973 16.5326 11.8296 16.5326 8.21745Z" fill="white"/>
</svg>
