<svg width="170" height="28" viewBox="0 0 170 28" fill="none" xmlns="http://www.w3.org/2000/svg">
<g clip-path="url(#clip0)">
<path d="M47.0985 20.8336C46.5399 21.3922 45.8625 21.6774 45.0662 21.6774C44.27 21.6774 43.6044 21.3922 43.034 20.8336C42.4754 20.275 42.1902 19.5976 42.1902 18.8014C42.1902 18.0051 42.4754 17.3396 43.034 16.7691C43.5926 16.2105 44.27 15.9253 45.0662 15.9253C45.8625 15.9253 46.528 16.2105 47.0985 16.7691C47.6571 17.3277 47.9423 18.0051 47.9423 18.8014C47.9423 19.5976 47.669 20.275 47.0985 20.8336Z" fill="white"/>
<path d="M60.9797 3.86245C62.8336 3.86245 64.343 4.48045 65.5433 5.71644C66.7555 6.95244 67.3735 8.66381 67.3735 10.8506V20.8692C67.3735 21.0713 67.219 21.2258 67.017 21.2258H63.3684C63.1664 21.2258 63.0119 21.0713 63.0119 20.8692V11.4091C63.0119 10.2801 62.7029 9.42442 62.0968 8.84208C61.4907 8.23597 60.6825 7.92697 59.6605 7.92697C58.5314 7.92697 55.9406 7.92697 55.9406 7.92697C55.9406 7.92697 55.9406 10.7317 55.9406 12.1222V20.893C55.9406 21.095 55.7861 21.2495 55.5841 21.2495H51.9355C51.7335 21.2495 51.579 21.095 51.579 20.893V4.11203C51.579 3.90999 51.7335 3.75549 51.9355 3.75549H55.9406C57.8421 3.75549 58.6859 3.86245 60.9797 3.86245Z" fill="white"/>
<path d="M73.5892 14.5823C74.1715 16.6978 75.764 17.7555 78.3549 17.7555C79.8999 17.7555 81.1002 17.2682 81.9559 16.2937C82.0628 16.163 82.253 16.1273 82.3956 16.2105L85.3073 17.8862C85.4975 17.9932 85.545 18.2547 85.4143 18.421C83.7504 20.6078 81.3735 21.7012 78.2836 21.7012C75.4907 21.7012 73.2445 20.8574 71.5569 19.1698C69.8693 17.4822 69.0255 15.3548 69.0255 12.7759C69.0255 10.2326 69.8574 8.10525 71.5213 6.41765C73.1851 4.70627 75.3243 3.85059 77.9389 3.85059C80.4228 3.85059 82.455 4.70627 84.0594 6.41765C85.6876 8.12902 86.4958 10.2445 86.4958 12.7759C86.4958 13.2513 86.4601 13.7385 86.3769 14.2614C86.3532 14.4397 86.1987 14.5704 86.0204 14.5704H73.5892V14.5823ZM73.5297 11.1952H82.146C81.8965 10.0424 81.3854 9.18675 80.5892 8.62817C79.8285 8.0696 78.9491 7.78437 77.9508 7.78437C76.7742 7.78437 75.8116 8.09337 75.0391 8.69948C74.2785 9.28182 73.7674 10.1137 73.5297 11.1952Z" fill="white"/>
<path d="M95.9916 8.53311H92.5332V15.5688C92.5332 16.1511 92.6758 16.5789 92.9729 16.8523C93.27 17.1256 93.6979 17.2801 94.2564 17.3277C94.7318 17.3514 95.3023 17.3396 95.9678 17.3158C96.1698 17.3039 96.3481 17.4703 96.3481 17.6723V20.9287C96.3481 21.107 96.2055 21.2733 96.0153 21.2852C93.1868 21.5705 91.1783 21.2733 89.9899 20.4058C88.7777 19.5025 88.1597 17.8981 88.1597 15.5688V8.53311V4.33786V0.356537C88.1597 0.154499 88.3142 0 88.5162 0H92.1648C92.3668 0 92.5213 0.154499 92.5213 0.356537V4.33786H95.9797C96.1817 4.33786 96.3362 4.49236 96.3362 4.6944V8.17657C96.3481 8.36672 96.1817 8.53311 95.9916 8.53311Z" fill="white"/>
<path d="M117.8 4.33789H121.674C121.912 4.33789 122.09 4.57558 122.019 4.80139L116.873 20.9881C116.825 21.1308 116.683 21.2377 116.528 21.2377H112.891C112.737 21.2377 112.594 21.1308 112.547 20.9881L109.516 10.9932L106.486 20.9881C106.438 21.1426 106.307 21.2377 106.141 21.2377H102.504C102.35 21.2377 102.207 21.1426 102.16 20.9881L97.0255 4.80139C96.9542 4.57558 97.1206 4.33789 97.3702 4.33789H101.245C101.399 4.33789 101.542 4.44485 101.589 4.59935L104.394 14.7131L107.389 4.58747C107.436 4.43297 107.567 4.33789 107.734 4.33789H111.323C111.477 4.33789 111.62 4.44485 111.667 4.58747L114.674 14.7488L117.479 4.59935C117.503 4.44485 117.645 4.33789 117.8 4.33789Z" fill="white"/>
<path d="M137.065 19.1461C135.329 20.8575 133.214 21.7131 130.706 21.7131C128.211 21.7131 126.083 20.8575 124.348 19.1461C122.637 17.4109 121.781 15.2955 121.781 12.7878C121.781 10.2921 122.637 8.17664 124.348 6.46527C126.083 4.73012 128.199 3.86255 130.706 3.86255C133.214 3.86255 135.329 4.73012 137.065 6.46527C138.8 8.17664 139.667 10.2802 139.667 12.7878C139.667 15.2955 138.8 17.4109 137.065 19.1461ZM127.426 16.1393C128.306 17.0187 129.399 17.4585 130.706 17.4585C132.014 17.4585 133.107 17.0187 133.986 16.1393C134.866 15.2598 135.306 14.1427 135.306 12.7878C135.306 11.433 134.866 10.3159 133.986 9.4364C133.107 8.55695 132.014 8.11722 130.706 8.11722C129.399 8.11722 128.306 8.55695 127.426 9.4364C126.57 10.3159 126.143 11.433 126.143 12.7878C126.143 14.1427 126.57 15.2598 127.426 16.1393Z" fill="white"/>
<path d="M150.482 4.21909V7.86764C150.482 8.06968 150.328 8.22418 150.126 8.22418H146.917C146.049 8.22418 145.348 8.92537 145.348 9.79294V13.1563V20.8812C145.348 21.0833 145.194 21.2378 144.992 21.2378H141.343C141.141 21.2378 140.986 21.0833 140.986 20.8812V7.92706C140.986 5.68089 142.805 3.86255 145.051 3.86255H150.126C150.316 3.86255 150.482 4.02893 150.482 4.21909Z" fill="white"/>
<path d="M156.567 13.5722V20.893C156.567 21.0951 156.413 21.2496 156.211 21.2496H152.562C152.36 21.2496 152.206 21.0951 152.206 20.893V0.356536C152.206 0.154499 152.36 0 152.562 0H156.211C156.413 0 156.567 0.154499 156.567 0.356536V13.5722Z" fill="white"/>
<path d="M162.973 12.348C162.759 12.6095 162.759 12.9779 162.973 13.2393L168.998 20.6434C169.188 20.8811 169.022 21.2258 168.701 21.2258H164.042C163.817 21.2258 163.603 21.1188 163.46 20.9524L157.185 13.2393C156.971 12.9779 156.971 12.6095 157.185 12.348L163.46 4.63492C163.603 4.45665 163.817 4.36157 164.042 4.36157H168.701C169.01 4.36157 169.188 4.70622 168.998 4.94392L162.973 12.348Z" fill="white"/>
<path d="M38.5178 10.8625C38.4346 8.67578 37.9117 6.96441 36.6876 5.72841C35.4872 4.49242 33.966 4.00515 32.1239 3.87442C31.2682 3.815 29.4618 3.73181 27.6315 3.71992C25.3616 3.70804 23.0916 3.75558 23.0916 3.75558C22.8896 3.75558 22.7351 3.91008 22.7351 4.11212V6.82179V18.5043V21.214V28.0001H27.0967V24.6962V17.4109C27.0967 17.4109 27.0967 16.7454 27.0967 15.9016C27.0967 15.0102 27.0967 13.9288 27.0967 13.2157V12.1104V7.91517C27.0967 7.91517 29.6876 7.91517 30.8166 7.91517C31.8268 7.91517 32.6468 8.22417 33.2529 8.83028C33.859 9.41262 34.168 10.2683 34.168 11.3973V11.5756V13.9288C34.168 15.0578 33.859 15.9135 33.2529 16.4958C32.6468 17.1019 31.8387 17.4109 30.8166 17.4109C30.056 17.4109 27.786 17.4109 27.786 17.4109V21.4636C29.1884 21.4754 30.1392 21.5467 32.1358 21.4636C33.9898 21.3923 35.511 20.8456 36.6995 19.6096C37.8047 18.4805 38.3752 16.9474 38.4821 15.0459C38.494 15.0102 38.5297 14.9865 38.5297 14.9389C38.5178 14.9389 38.6129 13.2038 38.5178 10.8625Z" fill="white"/>
<path fill-rule="evenodd" clip-rule="evenodd" d="M17.4705 3.75537H19.0749L20.3346 5.35978L19.5265 6.38185L17.4705 3.75537ZM20.6791 4.91989L21.107 4.3732C21.2971 4.12362 21.1307 3.76708 20.8098 3.76708H19.7759L20.6791 4.91989ZM12.8591 7.43945L12.0747 8.43775L14.9983 12.1814C15.0042 12.1754 15.0072 12.1695 15.0102 12.1636C15.0132 12.1576 15.0161 12.1517 15.0221 12.1457L15.7827 11.1831L12.8591 7.43945ZM17.91 21.4512H19.3837L10.5891 10.3511L9.85229 11.2781L17.91 21.4512ZM20.0849 21.4516L10.9338 9.89984L11.7301 8.88965L21.1308 20.8931C21.2615 21.1426 21.107 21.4516 20.8099 21.4516H20.0849ZM14.3447 5.53785L15.1291 4.53954L18.0527 8.2713L17.2683 9.2696L14.3447 5.53785ZM14.0001 5.97754L13.2039 6.99961L16.1275 10.7314L16.9237 9.70929L14.0001 5.97754ZM9.50769 11.73L9.18681 12.1459C8.97289 12.4193 8.97289 12.8115 9.18681 13.0848L15.5213 21.1782C15.6639 21.3565 15.8778 21.4634 16.1155 21.4634H17.2208L9.50769 11.73ZM16.1155 3.75537H16.781L19.1817 6.82158L18.4092 7.81989L15.4856 4.08814L15.5213 4.0406C15.6639 3.86233 15.8897 3.75537 16.1155 3.75537Z" fill="url(#paint0_radial)"/>
<path d="M6.1675 12.1345C6.38142 12.4078 6.38142 12.8 6.1675 13.0733L0.0826039 20.8458C-0.107549 21.0954 0.0588348 21.452 0.379718 21.452H5.086C5.31181 21.452 5.53761 21.345 5.68023 21.1667L12.0028 13.0733C12.2167 12.8 12.2167 12.4078 12.0028 12.1345L5.66834 4.04109C5.52573 3.86282 5.31181 3.75586 5.07412 3.75586H0.379718C0.0707193 3.75586 -0.107549 4.12428 0.0826039 4.36197L6.1675 12.1345Z" fill="white"/>
</g>
<defs>
<radialGradient id="paint0_radial" cx="0" cy="0" r="1" gradientUnits="userSpaceOnUse" gradientTransform="translate(32 17) rotate(-166.608) scale(21.587 53.8276)">
<stop stop-color="white"/>
<stop offset="1" stop-color="white" stop-opacity="0.71"/>
</radialGradient>
<clipPath id="clip0">
<rect width="169.082" height="28" fill="white"/>
</clipPath>
</defs>
</svg>
