<svg width="180" height="34" viewBox="0 0 180 34" fill="none" xmlns="http://www.w3.org/2000/svg">
<path d="M78.4401 22.3256C78.0128 22.7528 77.4946 22.971 76.8855 22.971C76.2764 22.971 75.7674 22.7528 75.331 22.3256C74.9037 21.8983 74.6855 21.3801 74.6855 20.771C74.6855 20.1619 74.9037 19.6529 75.331 19.2165C75.7583 18.7892 76.2764 18.571 76.8855 18.571C77.4946 18.571 78.0037 18.7892 78.4401 19.2165C78.8673 19.6438 79.0855 20.1619 79.0855 20.771C79.0855 21.3801 78.8764 21.8983 78.4401 22.3256Z" fill="white"/>
<path d="M89.3364 9.22762C90.7383 9.22762 91.8796 9.71612 92.7872 10.6931C93.7038 11.6702 94.1711 13.0229 94.1711 14.7515V22.671C94.1711 22.8307 94.0543 22.9528 93.9015 22.9528H91.1427C90.9899 22.9528 90.8731 22.8307 90.8731 22.671V15.193C90.8731 14.3006 90.6395 13.6242 90.1812 13.1639C89.7229 12.6847 89.1118 12.4405 88.339 12.4405C87.4853 12.4405 85.5262 12.4405 85.5262 12.4405C85.5262 12.4405 85.5262 14.6576 85.5262 15.7567V22.6897C85.5262 22.8495 85.4094 22.9716 85.2567 22.9716H82.4979C82.3451 22.9716 82.2283 22.8495 82.2283 22.6897V9.4249C82.2283 9.26519 82.3451 9.14307 82.4979 9.14307H85.5262C86.9641 9.14307 87.6021 9.22762 89.3364 9.22762Z" fill="white"/>
<path d="M100.041 17.4567C100.502 19.0955 101.762 19.9149 103.813 19.9149C105.036 19.9149 105.986 19.5375 106.663 18.7825C106.748 18.6812 106.898 18.6536 107.011 18.7181L109.316 20.0162C109.467 20.0991 109.504 20.3016 109.401 20.4305C108.084 22.1246 106.202 22.9716 103.756 22.9716C101.546 22.9716 99.7678 22.3179 98.4319 21.0105C97.0961 19.7032 96.4282 18.0552 96.4282 16.0573C96.4282 14.0871 97.0867 12.4391 98.4037 11.1317C99.7207 9.80595 101.414 9.14307 103.484 9.14307C105.45 9.14307 107.058 9.80595 108.328 11.1317C109.617 12.4575 110.257 14.0963 110.257 16.0573C110.257 16.4256 110.229 16.8031 110.163 17.2082C110.144 17.3463 110.022 17.4475 109.88 17.4475H100.041V17.4567ZM99.9935 14.8328H106.814C106.616 13.9398 106.212 13.2769 105.581 12.8442C104.979 12.4115 104.283 12.1905 103.493 12.1905C102.562 12.1905 101.8 12.4299 101.188 12.8994C100.586 13.3505 100.182 13.995 99.9935 14.8328Z" fill="white"/>
<path d="M118.526 12.7703H115.871V18.3525C115.871 18.8146 115.981 19.154 116.209 19.3709C116.437 19.5878 116.765 19.7104 117.194 19.7481C117.559 19.7669 117.997 19.7575 118.508 19.7387C118.663 19.7292 118.8 19.8612 118.8 20.0215V22.6052C118.8 22.7466 118.69 22.8787 118.544 22.8881C116.373 23.1144 114.831 22.8787 113.919 22.1903C112.988 21.4737 112.514 20.2007 112.514 18.3525V12.7703V9.44174V6.28288C112.514 6.12258 112.633 6 112.788 6H115.588C115.744 6 115.862 6.12258 115.862 6.28288V9.44174H118.517C118.672 9.44174 118.791 9.56432 118.791 9.72462V12.4874C118.8 12.6383 118.672 12.7703 118.526 12.7703Z" fill="white"/>
<path d="M136.616 9.14307H139.633C139.818 9.14307 139.957 9.33756 139.901 9.52233L135.895 22.7674C135.858 22.8841 135.747 22.9716 135.626 22.9716H132.795C132.674 22.9716 132.563 22.8841 132.526 22.7674L130.167 14.5889L127.807 22.7674C127.77 22.8938 127.668 22.9716 127.539 22.9716H124.707C124.587 22.9716 124.476 22.8938 124.439 22.7674L120.441 9.52233C120.386 9.33756 120.515 9.14307 120.709 9.14307H123.726C123.846 9.14307 123.957 9.23059 123.994 9.35701L126.178 17.6327L128.51 9.34728C128.547 9.22086 128.649 9.14307 128.779 9.14307H131.573C131.693 9.14307 131.804 9.23059 131.841 9.34728L134.183 17.6619L136.366 9.35701C136.385 9.23059 136.496 9.14307 136.616 9.14307Z" fill="white"/>
<path d="M152.73 20.9829C151.389 22.3087 149.753 22.9716 147.814 22.9716C145.885 22.9716 144.24 22.3087 142.899 20.9829C141.575 19.6387 140.914 17.9999 140.914 16.0573C140.914 14.1239 141.575 12.4851 142.899 11.1593C144.24 9.81516 145.876 9.14307 147.814 9.14307C149.753 9.14307 151.389 9.81516 152.73 11.1593C154.072 12.4851 154.742 14.1147 154.742 16.0573C154.742 17.9999 154.072 19.6387 152.73 20.9829ZM145.278 18.6536C145.958 19.3349 146.804 19.6756 147.814 19.6756C148.825 19.6756 149.67 19.3349 150.35 18.6536C151.03 17.9723 151.37 17.1069 151.37 16.0573C151.37 15.0078 151.03 14.1423 150.35 13.461C149.67 12.7797 148.825 12.4391 147.814 12.4391C146.804 12.4391 145.958 12.7797 145.278 13.461C144.617 14.1423 144.286 15.0078 144.286 16.0573C144.286 17.1069 144.617 17.9723 145.278 18.6536Z" fill="white"/>
<path d="M163.914 9.42683V12.3306C163.914 12.4914 163.801 12.6144 163.654 12.6144H161.318C160.686 12.6144 160.175 13.1724 160.175 13.8629V16.5397V22.6878C160.175 22.8486 160.063 22.9716 159.916 22.9716H157.259C157.112 22.9716 157 22.8486 157 22.6878V12.3779C157 10.5902 158.324 9.14307 159.959 9.14307H163.654C163.793 9.14307 163.914 9.27549 163.914 9.42683Z" fill="white"/>
<path d="M169.942 16.8396V22.6866C169.942 22.848 169.831 22.9714 169.685 22.9714H167.056C166.911 22.9714 166.799 22.848 166.799 22.6866V6.28475C166.799 6.12339 166.911 6 167.056 6H169.685C169.831 6 169.942 6.12339 169.942 6.28475V16.8396Z" fill="white"/>
<path d="M174.913 15.6919C174.757 15.9063 174.757 16.2084 174.913 16.4228L179.312 22.4941C179.451 22.689 179.33 22.9716 179.095 22.9716H175.694C175.529 22.9716 175.373 22.8839 175.269 22.7474L170.688 16.4228C170.532 16.2084 170.532 15.9063 170.688 15.6919L175.269 9.36721C175.373 9.22103 175.529 9.14307 175.694 9.14307H179.095C179.321 9.14307 179.451 9.42568 179.312 9.62058L174.913 15.6919Z" fill="white"/>
<path d="M72.1373 14.6914C72.0712 12.9932 71.6558 11.6642 70.6834 10.7043C69.7299 9.74446 68.5215 9.36605 67.0581 9.26453C66.3784 9.21838 64.9434 9.15378 63.4895 9.14455C61.6863 9.13532 59.8831 9.17224 59.8831 9.17224C59.7226 9.17224 59.5999 9.29222 59.5999 9.44912V11.5534V20.6259V22.7302V28.0001H63.0646V25.4344V19.7768C63.0646 19.7768 63.0646 19.2599 63.0646 18.6046C63.0646 17.9124 63.0646 17.0726 63.0646 16.5188V15.6605V12.4025C63.0646 12.4025 65.1228 12.4025 66.0196 12.4025C66.8221 12.4025 67.4735 12.6425 67.955 13.1132C68.4365 13.5654 68.682 14.2299 68.682 15.1067V15.2452V17.0726C68.682 17.9494 68.4365 18.6139 67.955 19.0661C67.4735 19.5368 66.8315 19.7768 66.0196 19.7768C65.4154 19.7768 63.6122 19.7768 63.6122 19.7768V22.924C64.7262 22.9332 65.4815 22.9886 67.0676 22.924C68.5403 22.8686 69.7488 22.4441 70.6929 21.4842C71.5708 20.6074 72.024 19.4168 72.109 17.9401C72.1184 17.9124 72.1467 17.894 72.1467 17.8571C72.1373 17.8571 72.2128 16.5096 72.1373 14.6914Z" fill="white"/>
<path d="M45.78 15.6905C45.9458 15.9041 45.9458 16.2106 45.78 16.4242L41.0623 22.4979C40.9149 22.693 41.0439 22.9716 41.2927 22.9716H44.9415C45.1166 22.9716 45.2916 22.888 45.4022 22.7487L50.3041 16.4242C50.47 16.2106 50.47 15.9041 50.3041 15.6905L45.393 9.36596C45.2824 9.22665 45.1166 9.14307 44.9323 9.14307H41.2927C41.0531 9.14307 40.9149 9.43097 41.0623 9.61671L45.78 15.6905Z" fill="white"/>
<path d="M51.9344 15.6905C51.7685 15.9041 51.7685 16.2106 51.9344 16.4242L56.652 22.4979C56.7994 22.693 56.6704 22.9716 56.4217 22.9716H52.7729C52.5978 22.9716 52.4227 22.888 52.3121 22.7487L47.4102 16.4242C47.2444 16.2106 47.2444 15.9041 47.4102 15.6905L52.3214 9.36596C52.4319 9.22665 52.5978 9.14307 52.7821 9.14307H56.4217C56.6612 9.14307 56.7994 9.43097 56.652 9.61671L51.9344 15.6905Z" fill="white"/>
<path fill-rule="evenodd" clip-rule="evenodd" d="M17.0741 23.0997L9.05483 29.2951L14.7993 33.721C15.2821 34.093 15.9748 34.093 16.4576 33.721L30.5379 22.893L23.9299 17.8162L17.0741 23.0997ZM14.6153 23.433L12.0549 21.4598L12.0513 21.4669L3.05055e-05 12.3201C2.09686e-05 12.3223 1.52464e-05 12.3244 1.52462e-05 12.3265L1.51432e-05 13.5046L-1.72823e-05 13.5111L-1.79959e-05 21.6736C-1.8032e-05 22.0869 0.188909 22.4589 0.503787 22.7068L8.01316 28.4926L14.6153 23.433ZM0.630257 11.1959L7.22504 16.2626L14.7993 10.4254C14.8664 10.3737 14.9375 10.3292 15.0116 10.2919L22.2572 4.7391L16.4577 0.279112C15.9749 -0.0928511 15.2821 -0.0928511 14.7993 0.279112L0.630257 11.1959ZM23.312 5.55027L16.7035 10.6148L24.9888 17.0001L24.9832 17.0044L31.2506 21.8196C31.2548 21.7779 31.2569 21.7361 31.2569 21.6943L31.2569 20.4959L31.257 20.489L31.257 12.3059C31.257 11.9132 31.068 11.5206 30.7532 11.2726L23.312 5.55027Z" fill="white"/>
</svg>
