<svg width="155" height="26" viewBox="0 0 155 26" fill="none" xmlns="http://www.w3.org/2000/svg">
<g clip-path="url(#clip0)">
<path d="M43.0521 19.3453C42.5415 19.864 41.9223 20.1289 41.1944 20.1289C40.4665 20.1289 39.8582 19.864 39.3367 19.3453C38.8262 18.8267 38.5654 18.1976 38.5654 17.4582C38.5654 16.7188 38.8262 16.1008 39.3367 15.5711C39.8473 15.0525 40.4665 14.7876 41.1944 14.7876C41.9223 14.7876 42.5306 15.0525 43.0521 15.5711C43.5627 16.0898 43.8234 16.7188 43.8234 17.4582C43.8234 18.1976 43.5735 18.8267 43.0521 19.3453Z" fill="white"/>
<path d="M55.7408 3.58663C57.4355 3.58663 58.8151 4.16048 59.9123 5.30819C61.0204 6.45589 61.5853 8.04503 61.5853 10.0756V19.3786C61.5853 19.5662 61.4441 19.7097 61.2594 19.7097H57.9243C57.7396 19.7097 57.5984 19.5662 57.5984 19.3786V10.5943C57.5984 9.54588 57.316 8.75131 56.7619 8.21056C56.2079 7.64774 55.4692 7.36082 54.5349 7.36082C53.5029 7.36082 51.1346 7.36082 51.1346 7.36082C51.1346 7.36082 51.1346 9.96523 51.1346 11.2564V19.4007C51.1346 19.5883 50.9934 19.7318 50.8087 19.7318H47.4736C47.2889 19.7318 47.1477 19.5883 47.1477 19.4007V3.81837C47.1477 3.63077 47.2889 3.4873 47.4736 3.4873H51.1346C52.8728 3.4873 53.6441 3.58663 55.7408 3.58663Z" fill="white"/>
<path d="M67.2668 13.5409C67.7991 15.5052 69.2548 16.4874 71.6231 16.4874C73.0353 16.4874 74.1325 16.0349 74.9147 15.13C75.0125 15.0086 75.1863 14.9755 75.3167 15.0528L77.9782 16.6088C78.152 16.7081 78.1955 16.9509 78.076 17.1054C76.5551 19.136 74.3824 20.1512 71.5579 20.1512C69.005 20.1512 66.9518 19.3677 65.4091 17.8006C63.8665 16.2336 63.0952 14.2582 63.0952 11.8635C63.0952 9.50183 63.8557 7.52645 65.3766 5.95939C66.8974 4.37025 68.8529 3.57568 71.2428 3.57568C73.5133 3.57568 75.371 4.37025 76.8376 5.95939C78.3259 7.54852 79.0646 9.51287 79.0646 11.8635C79.0646 12.3049 79.032 12.7573 78.9559 13.2429C78.9342 13.4085 78.793 13.5298 78.63 13.5298H67.2668V13.5409ZM67.2125 10.3957H75.0885C74.8604 9.32526 74.3933 8.53069 73.6654 8.01202C72.9701 7.49334 72.1662 7.22849 71.2537 7.22849C70.1782 7.22849 69.2983 7.51541 68.5921 8.07823C67.8969 8.61898 67.4298 9.39147 67.2125 10.3957Z" fill="white"/>
<path d="M87.7448 7.9236H84.5835V14.4567C84.5835 14.9975 84.7138 15.3947 84.9854 15.6486C85.257 15.9024 85.6481 16.0458 86.1587 16.09C86.5932 16.1121 87.1147 16.101 87.723 16.0789C87.9077 16.0679 88.0707 16.2224 88.0707 16.41V19.4338C88.0707 19.5993 87.9403 19.7538 87.7665 19.7649C85.181 20.0297 83.345 19.7538 82.2587 18.9482C81.1506 18.1095 80.5857 16.6197 80.5857 14.4567V7.9236V4.02801V0.33107C80.5857 0.143464 80.7269 0 80.9116 0H84.2467C84.4314 0 84.5726 0.143464 84.5726 0.33107V4.02801H87.7339C87.9186 4.02801 88.0598 4.17148 88.0598 4.35908V7.59253C88.0707 7.7691 87.9186 7.9236 87.7448 7.9236Z" fill="white"/>
<path d="M107.679 4.02832H111.22C111.438 4.02832 111.601 4.24903 111.536 4.45871L106.832 19.4893C106.788 19.6217 106.658 19.721 106.517 19.721H103.192C103.051 19.721 102.921 19.6217 102.877 19.4893L100.107 10.2083L97.3369 19.4893C97.2934 19.6327 97.1739 19.721 97.0218 19.721H93.6976C93.5564 19.721 93.426 19.6327 93.3825 19.4893L88.6895 4.45871C88.6243 4.24903 88.7764 4.02832 89.0045 4.02832H92.5461C92.6873 4.02832 92.8176 4.12764 92.8611 4.2711L95.4249 13.6624L98.1625 4.26007C98.206 4.11661 98.3255 4.02832 98.4775 4.02832H101.758C101.9 4.02832 102.03 4.12764 102.073 4.26007L104.822 13.6956L107.386 4.2711C107.407 4.12764 107.538 4.02832 107.679 4.02832Z" fill="white"/>
<path d="M125.29 17.7783C123.704 19.3674 121.77 20.162 119.478 20.162C117.196 20.162 115.252 19.3674 113.666 17.7783C112.101 16.1671 111.319 14.2027 111.319 11.8742C111.319 9.55672 112.101 7.59237 113.666 6.00323C115.252 4.39203 117.185 3.58643 119.478 3.58643C121.77 3.58643 123.704 4.39203 125.29 6.00323C126.876 7.59237 127.669 9.54568 127.669 11.8742C127.669 14.2027 126.876 16.1671 125.29 17.7783ZM116.479 14.9863C117.283 15.8029 118.283 16.2112 119.478 16.2112C120.673 16.2112 121.672 15.8029 122.476 14.9863C123.28 14.1696 123.682 13.1323 123.682 11.8742C123.682 10.6161 123.28 9.57879 122.476 8.76215C121.672 7.94551 120.673 7.53719 119.478 7.53719C118.283 7.53719 117.283 7.94551 116.479 8.76215C115.697 9.57879 115.306 10.6161 115.306 11.8742C115.306 13.1323 115.697 14.1696 116.479 14.9863Z" fill="white"/>
<path d="M137.554 3.9175V7.30544C137.554 7.49305 137.413 7.63651 137.228 7.63651H134.295C133.502 7.63651 132.861 8.28761 132.861 9.09322V12.2163V19.3895C132.861 19.5771 132.72 19.7205 132.535 19.7205H129.2C129.015 19.7205 128.874 19.5771 128.874 19.3895V7.36062C128.874 5.27488 130.536 3.58643 132.589 3.58643H137.228C137.402 3.58643 137.554 3.74092 137.554 3.9175Z" fill="white"/>
<path d="M143.116 12.6027V19.4007C143.116 19.5883 142.975 19.7317 142.79 19.7317H139.455C139.271 19.7317 139.129 19.5883 139.129 19.4007V0.33107C139.129 0.143464 139.271 0 139.455 0H142.79C142.975 0 143.116 0.143464 143.116 0.33107V12.6027Z" fill="white"/>
<path d="M148.971 11.4658C148.776 11.7085 148.776 12.0507 148.971 12.2934L154.479 19.1687C154.653 19.3894 154.501 19.7094 154.208 19.7094H149.949C149.743 19.7094 149.547 19.6101 149.417 19.4556L143.681 12.2934C143.485 12.0507 143.485 11.7085 143.681 11.4658L149.417 4.30362C149.547 4.13809 149.743 4.0498 149.949 4.0498H154.208C154.49 4.0498 154.653 4.36984 154.479 4.59055L148.971 11.4658Z" fill="white"/>
<path d="M35.2085 10.0868C35.1325 8.05628 34.6545 6.46714 33.5355 5.31943C32.4383 4.17173 31.0478 3.71926 29.3639 3.59787C28.5818 3.54269 26.9305 3.46544 25.2575 3.45441C23.1826 3.44337 21.1076 3.48751 21.1076 3.48751C20.923 3.48751 20.7817 3.63098 20.7817 3.81858V6.33471V17.1828V19.6989V26.0002H24.7687V22.9323V16.1675C24.7687 16.1675 24.7687 15.5495 24.7687 14.766C24.7687 13.9383 24.7687 12.934 24.7687 12.2719V11.2456V7.34999C24.7687 7.34999 27.1369 7.34999 28.169 7.34999C29.0924 7.34999 29.8419 7.63692 30.396 8.19974C30.95 8.74049 31.2325 9.53505 31.2325 10.5834V10.749V12.934C31.2325 13.9824 30.95 14.777 30.396 15.3177C29.8419 15.8806 29.1032 16.1675 28.169 16.1675C27.4737 16.1675 25.3987 16.1675 25.3987 16.1675V19.9306C26.6806 19.9417 27.5497 20.0079 29.3748 19.9306C31.0695 19.8644 32.46 19.3568 33.5464 18.2091C34.5567 17.1607 35.0782 15.7371 35.1759 13.9714C35.1868 13.9383 35.2194 13.9162 35.2194 13.8721C35.2085 13.8721 35.2954 12.2609 35.2085 10.0868Z" fill="white"/>
<path fill-rule="evenodd" clip-rule="evenodd" d="M15.9695 3.4873H17.4361L18.5876 4.97712L17.8489 5.92618L15.9695 3.4873ZM18.9025 4.56857L19.2936 4.06093C19.4674 3.82918 19.3153 3.49811 19.022 3.49811H18.0769L18.9025 4.56857ZM11.7547 6.90814L11.0377 7.83513L13.7101 11.3114C13.7155 11.3058 13.7183 11.3003 13.721 11.2948C13.7237 11.2893 13.7264 11.2838 13.7318 11.2783L14.4271 10.3844L11.7547 6.90814ZM16.3713 19.919H17.7184L9.67935 9.61167L9.00581 10.4725L16.3713 19.919ZM18.3594 19.9196L9.99446 9.19298L10.7223 8.25495L19.3154 19.401C19.4349 19.6327 19.2936 19.9196 19.0221 19.9196H18.3594ZM13.1128 5.14235L13.8298 4.21536L16.5022 7.68056L15.7852 8.60755L13.1128 5.14235ZM12.7973 5.55085L12.0695 6.49992L14.7419 9.96511L15.4698 9.01604L12.7973 5.55085ZM8.69095 10.8923L8.39763 11.2786C8.20209 11.5324 8.20209 11.8966 8.39763 12.1504L14.1879 19.6656C14.3183 19.8312 14.5138 19.9305 14.7311 19.9305H15.7414L8.69095 10.8923ZM14.7307 3.4873H15.3391L17.5335 6.3345L16.8274 7.2615L14.155 3.7963L14.1876 3.75216C14.3179 3.58663 14.5243 3.4873 14.7307 3.4873Z" fill="url(#paint0_linear)"/>
<path d="M5.63783 11.2679C5.83337 11.5217 5.83337 11.8859 5.63783 12.1397L0.075696 19.3571C-0.0981205 19.5888 0.053969 19.9199 0.347284 19.9199H4.64925C4.85565 19.9199 5.06206 19.8206 5.19242 19.655L10.9718 12.1397C11.1674 11.8859 11.1674 11.5217 10.9718 11.2679L5.18156 3.75265C5.0512 3.58711 4.85565 3.48779 4.63838 3.48779H0.347284C0.0648325 3.48779 -0.0981205 3.8299 0.075696 4.05061L5.63783 11.2679Z" fill="white"/>
</g>
<defs>
<linearGradient id="paint0_linear" x1="48.4463" y1="20.4288" x2="9.99113" y2="11.4157" gradientUnits="userSpaceOnUse">
<stop stop-color="white"/>
<stop offset="1" stop-color="white" stop-opacity="0.72"/>
</linearGradient>
<clipPath id="clip0">
<rect width="154.556" height="26" fill="white"/>
</clipPath>
</defs>
</svg>
