<svg width="16" height="16" viewBox="0 0 16 16" fill="none" xmlns="http://www.w3.org/2000/svg">
<circle cx="8" cy="8" r="8" fill="url(#paint0_linear)"/>
<path fill-rule="evenodd" clip-rule="evenodd" d="M10.6711 4.44434H11.3054L11.8034 5.08863L11.4839 5.49907L10.6711 4.44434ZM11.9397 4.91208L12.1088 4.69254C12.184 4.59232 12.1182 4.44914 11.9914 4.44914H11.5827L11.9397 4.91208ZM8.8481 5.9236L8.53803 6.3245L9.69376 7.82784C9.69611 7.82546 9.69728 7.82307 9.69846 7.82068C9.69963 7.8183 9.70081 7.81591 9.70316 7.81352L10.0038 7.42695L8.8481 5.9236ZM10.8447 11.5506H11.4273L7.95071 7.09307L7.65942 7.46533L10.8447 11.5506ZM11.7047 11.5508L8.08716 6.9119L8.40193 6.50623L12.1181 11.3265C12.1698 11.4267 12.1087 11.5508 11.9913 11.5508H11.7047ZM9.43617 5.16013L9.74624 4.75924L10.902 6.25782L10.5919 6.65871L9.43617 5.16013ZM9.29947 5.33676L8.98469 5.7472L10.1404 7.24578L10.4552 6.83534L9.29947 5.33676ZM7.52352 7.64686L7.39668 7.8139C7.31211 7.92367 7.31211 8.08116 7.39668 8.19093L9.90076 11.441C9.95714 11.5126 10.0417 11.5556 10.1357 11.5556H10.5726L7.52352 7.64686ZM10.1357 4.44434H10.3988L11.3478 5.67565L11.0425 6.07654L9.88674 4.57797L9.90083 4.55888C9.95721 4.48729 10.0465 4.44434 10.1357 4.44434Z" fill="url(#paint1_linear)"/>
<path d="M6.21504 7.80946C6.29961 7.91923 6.29961 8.07672 6.21504 8.18649L3.80962 11.3077C3.73445 11.4079 3.80022 11.5511 3.92707 11.5511H5.78752C5.87678 11.5511 5.96604 11.5082 6.02242 11.4366L8.52181 8.18649C8.60637 8.07672 8.60637 7.91923 8.52181 7.80946L6.01772 4.55936C5.96135 4.48778 5.87678 4.44482 5.78282 4.44482H3.92707C3.80492 4.44482 3.73445 4.59277 3.80962 4.68822L6.21504 7.80946Z" fill="white"/>
<defs>
<linearGradient id="paint0_linear" x1="5.18919" y1="2.16216" x2="27.4595" y2="-9.94595" gradientUnits="userSpaceOnUse">
<stop stop-color="#2853EB"/>
</linearGradient>
<linearGradient id="paint1_linear" x1="10.3459" y1="7.52074" x2="8.11523" y2="7.77098" gradientUnits="userSpaceOnUse">
<stop stop-color="white"/>
<stop offset="1" stop-color="white" stop-opacity="0.4"/>
</linearGradient>
</defs>
</svg>
