<svg width="46" height="46" viewBox="0 0 46 46" fill="none" xmlns="http://www.w3.org/2000/svg">
<g clip-path="url(#clip0)">
<path d="M37.1934 11.2237L34.3759 8.47021L8.66663 34.7767L11.4841 37.5302C16.2692 42.2066 25.9047 40.1126 33.0055 32.8469C40.1062 25.5813 41.9861 15.9077 37.1934 11.2237Z" fill="url(#paint0_radial)"/>
<g style="mix-blend-mode:multiply">
<path d="M37.1934 11.2237L34.3759 8.47021L8.66662 34.7767L11.4841 37.5302C16.2692 42.2066 25.9047 40.1126 33.0055 32.8469C40.1062 25.5813 41.9861 15.9076 37.1934 11.2237Z" fill="url(#paint1_radial)"/>
</g>
<path opacity="0.1" d="M30.7049 21.3735L36.9659 27.3426C38.3409 25.1239 39.2835 22.8269 39.7579 20.6261L35.4105 16.4821L30.7049 21.3735Z" fill="#8AFCF5"/>
<path opacity="0.1" d="M36.0339 16.3771L39.7385 19.9077C39.7942 19.4831 39.8196 19.0589 39.8375 18.6423L36.7147 15.6652L36.0339 16.3771Z" fill="#8AFCF5"/>
<path d="M8.66674 34.7764C13.4532 39.4543 23.0887 37.3575 30.1881 30.0932C37.2875 22.8289 39.1625 13.1478 34.376 8.46999C29.5895 3.79214 19.9541 5.8889 12.8546 13.1532C5.75523 20.4176 3.88024 30.0986 8.66674 34.7764Z" fill="url(#paint2_linear)"/>
<path d="M9.08581 34.3477C13.7159 38.8726 23.0369 36.8439 29.9049 29.8163C36.7729 22.7888 38.5871 13.4237 33.9571 8.89871C29.327 4.37376 20.006 6.40251 13.138 13.43C6.26997 20.4576 4.45575 29.8227 9.08581 34.3477Z" fill="url(#paint3_linear)"/>
<path opacity="0.1" d="M6.57478 28.6152L33.5084 25.2098C34.8533 23.0066 35.7735 20.7325 36.2179 18.5623L7.53816 22.1922C6.73858 24.4195 6.40811 26.6262 6.57478 28.6152Z" fill="#8AFCF5"/>
<path opacity="0.1" d="M17.187 10.0378L32.9177 8.04796C31.9334 7.37037 30.7926 6.91411 29.556 6.6785L21.6038 7.69336C20.1266 8.27051 18.6291 9.0523 17.187 10.0378Z" fill="white"/>
<path opacity="0.1" d="M8.17841 20.6031L36.4501 17.0385C36.4841 16.6974 36.5029 16.3566 36.5067 16.031L8.69609 19.5373C8.51094 19.8953 8.33328 20.2455 8.17841 20.6031Z" fill="#8AFCF5"/>
<g style="mix-blend-mode:multiply">
<path d="M12.6774 30.6729C15.9713 33.8921 22.6012 32.45 27.4856 27.4521C32.3701 22.4542 33.6595 15.793 30.3656 12.5739C27.0717 9.35473 20.4418 10.7967 15.5574 15.7947C10.6729 20.7926 9.3835 27.4538 12.6774 30.6729Z" fill="url(#paint4_radial)"/>
</g>
<g style="mix-blend-mode:multiply" opacity="0.4">
<path d="M16.0761 16.7955C20.962 11.7961 27.5922 10.3573 30.8843 13.5747C31.1829 13.8665 31.4441 14.1966 31.6751 14.5422C31.3713 13.7962 30.9398 13.135 30.3656 12.5738C27.0735 9.35645 20.4433 10.7952 15.5574 15.7947C11.1204 20.3347 9.65151 26.2488 11.8866 29.7054C10.4683 26.1789 12.0431 20.9222 16.0761 16.7955Z" fill="url(#paint5_radial)"/>
</g>
<g opacity="0.11">
<path d="M29.5088 20.0747C29.5025 20.0786 29.4965 20.082 29.4906 20.0853L29.0925 20.2974L29.3102 19.3362L29.6659 19.631C29.6705 19.6345 29.6747 19.6385 29.6779 19.6427C29.679 19.6441 29.6804 19.6449 29.6807 19.6459C29.6836 19.649 29.6861 19.6527 29.6886 19.6564C29.689 19.6574 29.6897 19.6578 29.6907 19.6592C29.6936 19.6638 29.6962 19.669 29.6981 19.6737C29.6984 19.6746 29.6992 19.6765 29.6996 19.6775C29.7011 19.6812 29.703 19.6859 29.7041 19.6902C29.7042 19.6917 29.7053 19.6931 29.7053 19.6945C29.7066 19.7002 29.7078 19.706 29.709 19.7117C29.7094 19.7127 29.7091 19.7132 29.7092 19.7146C29.7097 19.7199 29.7102 19.7252 29.7108 19.7305C29.7109 19.732 29.7106 19.734 29.7113 19.7358C29.7116 19.7417 29.7118 19.7475 29.711 19.7534C29.7107 19.7617 29.7096 19.7681 29.7088 19.7754C29.7086 19.7774 29.7083 19.7793 29.7084 19.7808C29.7079 19.7862 29.7064 19.7916 29.705 19.7971C29.7047 19.7991 29.7041 19.8001 29.7038 19.802C29.7024 19.809 29.6999 19.8159 29.6985 19.8229C29.6979 19.8239 29.6976 19.8258 29.697 19.8269C29.6952 19.8328 29.6934 19.8388 29.6909 19.8443C29.6899 19.8459 29.6897 19.8478 29.6887 19.8494C29.6836 19.8639 29.6767 19.878 29.6698 19.8922C29.6688 19.8937 29.6679 19.8952 29.6676 19.8972C29.6645 19.9037 29.6607 19.9099 29.6568 19.916C29.6511 19.9252 29.6467 19.9323 29.6422 19.9395C29.6412 19.941 29.6403 19.9425 29.6393 19.9441C29.6358 19.9497 29.6313 19.9554 29.6278 19.961C29.6269 19.9625 29.6259 19.9641 29.6239 19.9657C29.6204 19.9698 29.6172 19.9749 29.6136 19.9791C29.613 19.9801 29.612 19.9817 29.6107 19.9823C29.6017 19.9936 29.5916 20.0037 29.5812 20.0142C29.5795 20.0153 29.5783 20.0173 29.5766 20.0184C29.5734 20.0221 29.5694 20.0253 29.5655 20.0285C29.5635 20.0301 29.5616 20.0317 29.5596 20.0333C29.556 20.0361 29.5527 20.0397 29.5491 20.0424C29.5472 20.044 29.5452 20.0456 29.5432 20.0472C29.5396 20.05 29.536 20.0527 29.5321 20.0559C29.5301 20.0575 29.5281 20.0591 29.5262 20.0607C29.5222 20.0639 29.5179 20.0662 29.5143 20.0689C29.5121 20.0725 29.5104 20.0736 29.5088 20.0747Z" fill="url(#paint6_radial)"/>
<path d="M28.5221 18.6707L29.0748 19.1287L28.7731 20.4672L28.0259 20.8607L28.5221 18.6707Z" fill="url(#paint7_radial)"/>
<path d="M28.0554 18.2847L28.2849 18.4745L27.9957 19.7527L27.7066 21.0309L26.9832 21.4202L27.6862 18.3083L27.7203 18.2891C27.7362 18.2806 27.7532 18.2735 27.7688 18.2669C27.7768 18.2634 27.7852 18.2608 27.7928 18.2578C27.8329 18.2445 27.8712 18.2372 27.9077 18.2373C27.9581 18.2368 28.0036 18.2488 28.0404 18.2732C28.0457 18.2772 28.0505 18.2802 28.0554 18.2847Z" fill="url(#paint8_radial)"/>
<path d="M27.3564 18.4822L26.6517 21.5937L25.9248 21.9794L26.6288 18.8674L27.3564 18.4822Z" fill="url(#paint9_radial)"/>
<path d="M26.308 19.0374L25.604 22.1494L24.8613 22.5465L25.5653 19.4345L26.308 19.0374Z" fill="url(#paint10_radial)"/>
<path d="M23.8318 23.0947L23.8196 23.102L23.8071 23.1097L24.5172 19.991L25.2444 19.6048L24.5357 22.7244L23.8318 23.0947Z" fill="url(#paint11_radial)"/>
<path d="M22.3673 22.914C22.4677 22.8611 22.5631 22.7745 22.6393 22.6724C22.674 22.626 22.7046 22.5769 22.7306 22.5258L21.068 30.0191L20.5601 29.599L22.002 23.1075L22.3673 22.914Z" fill="url(#paint12_radial)"/>
<path d="M21.5585 30.4253L21.3087 30.2186L23.4533 20.5569L24.1905 20.1671L21.9242 30.1755C21.92 30.187 21.915 30.1981 21.9103 30.2086C21.905 30.2202 21.8997 30.2303 21.894 30.241C21.8877 30.2527 21.8816 30.2624 21.8756 30.2721C21.8683 30.2838 21.8618 30.2926 21.8551 30.3018C21.5672 30.4315 21.5623 30.4284 21.5585 30.4253Z" fill="url(#paint13_radial)"/>
<path d="M21.0244 23.6247L21.6774 23.2788L20.3172 29.4092L19.9366 29.094C19.8548 29.0259 19.8302 28.9 19.8629 28.7502L21.0244 23.6247Z" fill="url(#paint14_radial)"/>
<path d="M22.6397 22.672C22.5628 22.7737 22.4681 22.8607 22.3677 22.9137L22.0024 23.1071L21.6785 23.2789L21.0255 23.6248L16.4356 26.0565C16.3036 26.1245 16.1758 26.1256 16.0971 26.0603L14.4577 24.703C14.3784 24.6372 14.4085 24.4837 14.4979 24.365C14.5342 24.316 14.581 24.2735 14.6333 24.2452L20.3359 21.2309C20.4364 21.1779 20.5318 21.0914 20.608 20.9892C20.6848 20.8876 20.7428 20.7698 20.7681 20.6551L22.2295 14.1291C22.2418 14.0722 22.2695 14.0171 22.3048 13.9697C22.3945 13.8505 22.5352 13.7794 22.6121 13.8429L24.2476 15.1971C24.3302 15.2656 24.3555 15.3934 24.3235 15.5436L22.7998 22.3379C22.7857 22.4007 22.7615 22.4643 22.7307 22.526C22.705 22.5766 22.6741 22.6261 22.6397 22.672Z" fill="url(#paint15_radial)"/>
</g>
<path d="M28.7508 19.9936C28.7446 19.9975 28.7386 20.0009 28.7326 20.0043L28.3346 20.2163L28.5523 19.2551L28.908 19.5499C28.9125 19.5534 28.9168 19.5575 28.92 19.5616C28.921 19.563 28.9224 19.5639 28.9228 19.5648C28.9256 19.568 28.9281 19.5717 28.9307 19.5754C28.931 19.5763 28.9317 19.5768 28.9328 19.5781C28.9357 19.5828 28.9383 19.5879 28.9401 19.5926C28.9405 19.5936 28.9413 19.5955 28.9416 19.5964C28.9431 19.6002 28.945 19.6049 28.9462 19.6092C28.9463 19.6106 28.9473 19.612 28.9474 19.6135C28.9486 19.6192 28.9499 19.6249 28.9511 19.6307C28.9515 19.6316 28.9512 19.6321 28.9512 19.6336C28.9518 19.6389 28.9523 19.6442 28.9529 19.6495C28.9529 19.6509 28.9527 19.6529 28.9534 19.6548C28.9536 19.6606 28.9539 19.6664 28.9531 19.6723C28.9527 19.6806 28.9516 19.687 28.9509 19.6943C28.9506 19.6963 28.9504 19.6983 28.9504 19.6997C28.95 19.7051 28.9485 19.7106 28.947 19.716C28.9468 19.718 28.9461 19.719 28.9459 19.721C28.9444 19.7279 28.942 19.7349 28.9406 19.7418C28.9399 19.7428 28.9397 19.7448 28.9391 19.7458C28.9373 19.7518 28.9355 19.7578 28.933 19.7633C28.932 19.7648 28.9318 19.7668 28.9308 19.7683C28.9256 19.7828 28.9187 19.797 28.9118 19.8111C28.9109 19.8126 28.9099 19.8142 28.9097 19.8161C28.9065 19.8227 28.9027 19.8288 28.8989 19.8349C28.8932 19.8441 28.8887 19.8513 28.8843 19.8584C28.8833 19.86 28.8824 19.8615 28.8814 19.863C28.8779 19.8686 28.8734 19.8743 28.8699 19.8799C28.8689 19.8815 28.868 19.883 28.866 19.8846C28.8624 19.8888 28.8593 19.8939 28.8557 19.8981C28.8551 19.8991 28.8541 19.9006 28.8528 19.9012C28.8438 19.9126 28.8337 19.9226 28.8232 19.9331C28.8216 19.9342 28.8203 19.9363 28.8187 19.9374C28.8154 19.941 28.8115 19.9442 28.8076 19.9475C28.8056 19.9491 28.8036 19.9507 28.8017 19.9523C28.798 19.955 28.7948 19.9586 28.7912 19.9614C28.7892 19.963 28.7873 19.9646 28.7853 19.9662C28.7817 19.9689 28.7781 19.9716 28.7741 19.9748C28.7722 19.9764 28.7702 19.978 28.7682 19.9797C28.7643 19.9829 28.76 19.9852 28.7564 19.9879C28.7541 19.9914 28.7525 19.9925 28.7508 19.9936Z" fill="url(#paint16_radial)" fill-opacity="0.2"/>
<path d="M27.7636 18.5904L28.3162 19.0483L28.0145 20.3868L27.2673 20.7804L27.7636 18.5904Z" fill="url(#paint17_radial)" fill-opacity="0.2"/>
<path d="M27.2971 18.2048L27.5265 18.3946L27.2374 19.6729L26.9482 20.9511L26.2248 21.3404L26.9278 18.2285L26.9619 18.2093C26.9778 18.2008 26.9948 18.1937 27.0105 18.1871C27.0184 18.1836 27.0268 18.181 27.0345 18.178C27.0745 18.1647 27.1128 18.1573 27.1494 18.1574C27.1998 18.1569 27.2453 18.169 27.2821 18.1933C27.2873 18.1973 27.2922 18.2003 27.2971 18.2048Z" fill="url(#paint18_radial)" fill-opacity="0.2"/>
<path d="M26.5979 18.4019L25.8932 21.5134L25.1663 21.8991L25.8703 18.7871L26.5979 18.4019Z" fill="url(#paint19_radial)" fill-opacity="0.2"/>
<path d="M25.5495 18.9571L24.8455 22.0691L24.1028 22.4662L24.8068 19.3542L25.5495 18.9571Z" fill="url(#paint20_radial)" fill-opacity="0.2"/>
<path d="M23.0733 23.0144L23.0611 23.0216L23.0485 23.0294L23.7587 19.9106L24.4859 19.5245L23.7771 22.6441L23.0733 23.0144Z" fill="url(#paint21_radial)" fill-opacity="0.2"/>
<path d="M21.6088 22.8337C21.7092 22.7808 21.8046 22.6942 21.8808 22.5921C21.9155 22.5456 21.9461 22.4966 21.9722 22.4455L20.3095 29.9387L19.8017 29.5186L21.2435 23.0272L21.6088 22.8337Z" fill="url(#paint22_radial)" fill-opacity="0.2"/>
<path d="M20.8001 30.3453L20.5504 30.1385L22.6949 20.4769L23.4322 20.087L21.1659 30.0954C21.1616 30.1069 21.1566 30.118 21.1519 30.1285C21.1467 30.1401 21.1413 30.1503 21.1356 30.1609C21.1293 30.1726 21.1233 30.1823 21.1172 30.192C21.1099 30.2037 21.1035 30.2125 21.0967 30.2218C20.8088 30.3514 20.8039 30.3484 20.8001 30.3453Z" fill="url(#paint23_radial)" fill-opacity="0.2"/>
<path d="M20.266 23.5444L20.919 23.1985L19.5587 29.3289L19.1782 29.0136C19.0963 28.9456 19.0718 28.8197 19.1045 28.6699L20.266 23.5444Z" fill="url(#paint24_radial)" fill-opacity="0.2"/>
<path d="M28.7064 19.844C28.7001 19.8479 28.6942 19.8512 28.6882 19.8546L28.2902 20.0666L28.5079 19.1055L28.8636 19.4002C28.8681 19.4038 28.8723 19.4078 28.8755 19.412C28.8766 19.4133 28.878 19.4142 28.8784 19.4151C28.8812 19.4183 28.8837 19.422 28.8862 19.4257C28.8866 19.4267 28.8873 19.4271 28.8884 19.4285C28.8913 19.4331 28.8938 19.4383 28.8957 19.443C28.8961 19.4439 28.8968 19.4458 28.8972 19.4467C28.8987 19.4505 28.9006 19.4552 28.9018 19.4595C28.9018 19.461 28.9029 19.4623 28.903 19.4638C28.9042 19.4695 28.9054 19.4753 28.9067 19.481C28.907 19.4819 28.9067 19.4825 28.9068 19.4839C28.9073 19.4892 28.9079 19.4945 28.9084 19.4998C28.9085 19.5013 28.9082 19.5032 28.909 19.5051C28.9092 19.5109 28.9094 19.5168 28.9086 19.5227C28.9083 19.5309 28.9072 19.5373 28.9065 19.5447C28.9062 19.5467 28.9059 19.5486 28.906 19.5501C28.9055 19.5555 28.9041 19.5609 28.9026 19.5664C28.9023 19.5683 28.9017 19.5694 28.9014 19.5713C28.9 19.5782 28.8976 19.5852 28.8962 19.5921C28.8955 19.5932 28.8953 19.5951 28.8946 19.5962C28.8928 19.6021 28.891 19.6081 28.8885 19.6136C28.8876 19.6152 28.8873 19.6171 28.8864 19.6187C28.8812 19.6332 28.8743 19.6473 28.8674 19.6614C28.8665 19.663 28.8655 19.6645 28.8652 19.6665C28.8621 19.673 28.8583 19.6792 28.8545 19.6853C28.8487 19.6945 28.8443 19.7016 28.8398 19.7088C28.8389 19.7103 28.8379 19.7118 28.837 19.7134C28.8335 19.719 28.8289 19.7247 28.8254 19.7303C28.8245 19.7318 28.8235 19.7334 28.8216 19.735C28.818 19.7391 28.8148 19.7442 28.8113 19.7484C28.8106 19.7494 28.8097 19.751 28.8083 19.7515C28.7993 19.7629 28.7892 19.7729 28.7788 19.7835C28.7772 19.7846 28.7759 19.7866 28.7742 19.7877C28.771 19.7914 28.7671 19.7946 28.7631 19.7978C28.7612 19.7994 28.7592 19.801 28.7572 19.8026C28.7536 19.8053 28.7504 19.809 28.7468 19.8117C28.7448 19.8133 28.7428 19.8149 28.7409 19.8165C28.7372 19.8192 28.7336 19.822 28.7297 19.8252C28.7277 19.8268 28.7258 19.8284 28.7238 19.83C28.7199 19.8332 28.7155 19.8355 28.7119 19.8382C28.7097 19.8418 28.7081 19.8429 28.7064 19.844Z" fill="url(#paint25_radial)"/>
<path d="M27.7192 18.4403L28.2718 18.8982L27.9701 20.2367L27.2229 20.6302L27.7192 18.4403Z" fill="url(#paint26_radial)"/>
<path d="M27.2524 18.0542L27.4818 18.244L27.1927 19.5222L26.9035 20.8005L26.1801 21.1897L26.8831 18.0778L26.9172 18.0587C26.9332 18.0502 26.9501 18.043 26.9658 18.0365C26.9738 18.0329 26.9821 18.0303 26.9898 18.0273C27.0299 18.014 27.0682 18.0067 27.1047 18.0068C27.1551 18.0063 27.2006 18.0183 27.2374 18.0427C27.2426 18.0467 27.2475 18.0497 27.2524 18.0542Z" fill="url(#paint27_radial)"/>
<path d="M26.5534 18.2517L25.8487 21.3633L25.1218 21.7489L25.8258 18.6369L26.5534 18.2517Z" fill="url(#paint28_radial)"/>
<path d="M25.5049 18.8067L24.8009 21.9187L24.0582 22.3158L24.7622 19.2038L25.5049 18.8067Z" fill="url(#paint29_radial)"/>
<path d="M23.0288 22.8642L23.0166 22.8715L23.004 22.8793L23.7142 19.7605L24.4414 19.3743L23.7326 22.494L23.0288 22.8642Z" fill="url(#paint30_radial)"/>
<path d="M21.5643 22.6838C21.6647 22.6309 21.7601 22.5443 21.8363 22.4422C21.871 22.3957 21.9016 22.3467 21.9277 22.2956L20.265 29.7888L19.7572 29.3687L21.199 22.8773L21.5643 22.6838Z" fill="url(#paint31_radial)"/>
<path d="M20.756 30.1956L20.5063 29.9889L22.6509 20.3272L23.3881 19.9373L21.1218 29.9457C21.1175 29.9572 21.1125 29.9683 21.1079 29.9789C21.1026 29.9905 21.0972 30.0006 21.0916 30.0113C21.0852 30.0229 21.0792 30.0326 21.0732 30.0423C21.0658 30.0541 21.0594 30.0628 21.0527 30.0721C20.7647 30.2017 20.7599 30.1987 20.756 30.1956Z" fill="url(#paint32_radial)"/>
<g style="mix-blend-mode:multiply">
<path d="M20.2215 23.3943L20.8745 23.0483L19.5142 29.1787L19.1337 28.8635C19.0518 28.7954 19.0273 28.6695 19.06 28.5197L20.2215 23.3943Z" fill="url(#paint33_radial)"/>
</g>
<path opacity="0.1" d="M21.8811 22.591C21.8042 22.6927 21.7095 22.7797 21.6091 22.8326L21.2438 23.0261L20.9199 23.1979L20.2669 23.5438L15.677 25.9754C15.545 26.0435 15.4172 26.0446 15.3385 25.9792L13.6991 24.6219C13.6198 24.5561 13.6499 24.4026 13.7393 24.2839C13.7756 24.2349 13.8224 24.1925 13.8747 24.1641L19.5773 21.1498C19.6778 21.0969 19.7732 21.0103 19.8493 20.9082C19.9262 20.8065 19.9842 20.6888 20.0095 20.5741L21.4709 14.048C21.4832 13.9912 21.5108 13.9361 21.5462 13.8886C21.6359 13.7694 21.7766 13.6983 21.8535 13.7619L23.489 15.1161C23.5716 15.1846 23.5969 15.3124 23.5649 15.4626L22.0412 22.2569C22.0271 22.3197 22.0029 22.3833 21.9721 22.4449C21.9464 22.4955 21.9155 22.5451 21.8811 22.591Z" fill="url(#paint34_radial)"/>
<path d="M21.9977 22.6637C21.9208 22.7654 21.8261 22.8524 21.7256 22.9054L21.3604 23.0988L21.0365 23.2706L20.3835 23.6165L15.7936 26.0482C15.6616 26.1162 15.5337 26.1173 15.455 26.052L13.8157 24.6947C13.7363 24.6288 13.7665 24.4754 13.8559 24.3567C13.8922 24.3077 13.9389 24.2652 13.9913 24.2369L19.6939 21.2226C19.7943 21.1696 19.8897 21.0831 19.9659 20.9809C20.0428 20.8793 20.1008 20.7615 20.126 20.6468L21.5875 14.1208C21.5998 14.0639 21.6274 14.0088 21.6628 13.9614C21.7525 13.8422 21.8932 13.7711 21.9701 13.8346L23.6056 15.1888C23.6881 15.2573 23.7135 15.3851 23.6815 15.5353L22.1578 22.3296C22.1437 22.3924 22.1195 22.456 22.0887 22.5177C22.063 22.5683 22.0321 22.6178 21.9977 22.6637Z" fill="url(#paint35_radial)"/>
<path d="M21.8367 22.4411C21.7598 22.5428 21.6651 22.6298 21.5646 22.6827L21.1994 22.8762L20.8755 23.048L20.2225 23.3939L15.6326 25.8255C15.5006 25.8936 15.3727 25.8947 15.294 25.8293L13.6547 24.472C13.5753 24.4062 13.6055 24.2527 13.6949 24.134C13.7312 24.085 13.7779 24.0426 13.8303 24.0142L19.5329 20.9999C19.6333 20.947 19.7287 20.8604 19.8049 20.7583C19.8818 20.6566 19.9398 20.5389 19.965 20.4242L21.4265 13.8981C21.4388 13.8413 21.4664 13.7862 21.5018 13.7387C21.5915 13.6195 21.7322 13.5484 21.8091 13.612L23.4446 14.9662C23.5271 15.0347 23.5524 15.1625 23.5205 15.3127L21.9968 22.107C21.9827 22.1698 21.9584 22.2334 21.9277 22.295C21.9019 22.3456 21.8711 22.3952 21.8367 22.4411Z" fill="url(#paint36_radial)"/>
</g>
<defs>
<radialGradient id="paint0_radial" cx="0" cy="0" r="1" gradientUnits="userSpaceOnUse" gradientTransform="translate(32.5518 14.1805) rotate(140.782) scale(56.9322 74.9606)">
<stop stop-color="#B2D2EC"/>
<stop offset="1" stop-color="#EE8ACC"/>
</radialGradient>
<radialGradient id="paint1_radial" cx="0" cy="0" r="1" gradientUnits="userSpaceOnUse" gradientTransform="translate(32.5518 14.1805) rotate(140.782) scale(56.9322 74.9606)">
<stop stop-color="#2696FE"/>
<stop offset="1" stop-color="#2853EB"/>
</radialGradient>
<linearGradient id="paint2_linear" x1="-6.07779" y1="60.0587" x2="31.7513" y2="6.88953" gradientUnits="userSpaceOnUse">
<stop stop-color="#F2F7FF"/>
<stop offset="1" stop-color="#4098FF"/>
</linearGradient>
<linearGradient id="paint3_linear" x1="11" y1="25.5" x2="25.5" y2="7" gradientUnits="userSpaceOnUse">
<stop stop-color="#2853EB"/>
<stop offset="1" stop-color="#0583F7"/>
</linearGradient>
<radialGradient id="paint4_radial" cx="0" cy="0" r="1" gradientUnits="userSpaceOnUse" gradientTransform="translate(23.8202 11.3323) rotate(144.013) scale(39.4838 77.2401)">
<stop stop-color="#28BCEB"/>
<stop offset="1" stop-color="#2853EB"/>
</radialGradient>
<radialGradient id="paint5_radial" cx="0" cy="0" r="1" gradientUnits="userSpaceOnUse" gradientTransform="translate(23.1132 10.613) rotate(140.587) scale(38.9397 49.7427)">
<stop stop-color="#334880"/>
<stop offset="1" stop-color="#1F5DFD"/>
</radialGradient>
<radialGradient id="paint6_radial" cx="0" cy="0" r="1" gradientUnits="userSpaceOnUse" gradientTransform="translate(29.2247 20.3269) rotate(-84.421) scale(1.03441 6.05132)">
<stop offset="0.00786164" stop-color="#C1DAFC"/>
<stop offset="1" stop-color="#ECF4FF" stop-opacity="0.99"/>
</radialGradient>
<radialGradient id="paint7_radial" cx="0" cy="0" r="1" gradientUnits="userSpaceOnUse" gradientTransform="translate(27.7715 24.2544) rotate(-82.0973) scale(5.725 29.8798)">
<stop offset="0.00786164" stop-color="#C1DAFC"/>
<stop offset="0.896321" stop-color="#ECF4FF" stop-opacity="0.99"/>
</radialGradient>
<radialGradient id="paint8_radial" cx="0" cy="0" r="1" gradientUnits="userSpaceOnUse" gradientTransform="translate(27.1042 21.3123) rotate(-77.1681) scale(3.40371 15.4805)">
<stop offset="0.00786164" stop-color="#C1DAFC"/>
<stop offset="1" stop-color="#ECF4FF" stop-opacity="0.99"/>
</radialGradient>
<radialGradient id="paint9_radial" cx="0" cy="0" r="1" gradientUnits="userSpaceOnUse" gradientTransform="translate(26.0617 21.8533) rotate(-74.8242) scale(3.87383 15.7308)">
<stop offset="0.00786164" stop-color="#C1DAFC"/>
<stop offset="1" stop-color="#ECF4FF" stop-opacity="0.99"/>
</radialGradient>
<radialGradient id="paint10_radial" cx="0" cy="0" r="1" gradientUnits="userSpaceOnUse" gradientTransform="translate(25.0033 22.4226) rotate(-74.8272) scale(3.89266 15.8098)">
<stop offset="0.00786164" stop-color="#C1DAFC"/>
<stop offset="1" stop-color="#ECF4FF" stop-opacity="0.67"/>
</radialGradient>
<radialGradient id="paint11_radial" cx="0" cy="0" r="1" gradientUnits="userSpaceOnUse" gradientTransform="translate(23.9456 22.9841) rotate(-74.7835) scale(3.883 15.7342)">
<stop offset="0.00786164" stop-color="#C1DAFC"/>
<stop offset="1" stop-color="#ECF4FF" stop-opacity="0.45"/>
</radialGradient>
<radialGradient id="paint12_radial" cx="0" cy="0" r="1" gradientUnits="userSpaceOnUse" gradientTransform="translate(20.6483 29.3466) rotate(-74.9547) scale(7.5326 30.7982)">
<stop offset="0.0104167" stop-color="#F2F8FF"/>
<stop offset="0.348958" stop-color="#C1DAFC"/>
<stop offset="1" stop-color="#C1DAFC" stop-opacity="0"/>
</radialGradient>
<radialGradient id="paint13_radial" cx="0" cy="0" r="1" gradientUnits="userSpaceOnUse" gradientTransform="translate(21.9568 28.7124) rotate(-69.0818) scale(17.961 71.7831)">
<stop stop-color="#EAF3FF"/>
<stop offset="0.264141" stop-color="#C1DAFC" stop-opacity="0.89081"/>
<stop offset="0.654019" stop-color="#C1DAFC" stop-opacity="0"/>
</radialGradient>
<radialGradient id="paint14_radial" cx="0" cy="0" r="1" gradientUnits="userSpaceOnUse" gradientTransform="translate(19.9491 28.8436) rotate(-75.7469) scale(6.18915 26.3413)">
<stop stop-color="#C1DAFC"/>
<stop offset="0.0001" stop-color="#F5F9FF"/>
<stop offset="0.338542" stop-color="#C1DAFC"/>
<stop offset="1" stop-color="#C1DAFC" stop-opacity="0"/>
</radialGradient>
<radialGradient id="paint15_radial" cx="0" cy="0" r="1" gradientUnits="userSpaceOnUse" gradientTransform="translate(15.215 15.576) rotate(41.6172) scale(10.2005 22.7434)">
<stop stop-color="white"/>
<stop offset="1" stop-color="#EBEBEB"/>
</radialGradient>
<radialGradient id="paint16_radial" cx="0" cy="0" r="1" gradientUnits="userSpaceOnUse" gradientTransform="translate(28.4667 20.2458) rotate(-84.4211) scale(1.03441 6.05132)">
<stop offset="0.00786164" stop-color="#0D2443"/>
<stop offset="1" stop-color="#13386A" stop-opacity="0.99"/>
</radialGradient>
<radialGradient id="paint17_radial" cx="0" cy="0" r="1" gradientUnits="userSpaceOnUse" gradientTransform="translate(27.0129 24.174) rotate(-82.0973) scale(5.725 29.8799)">
<stop offset="0.00786164" stop-color="#081A32"/>
<stop offset="0.896321" stop-color="#193B6A" stop-opacity="0.99"/>
</radialGradient>
<radialGradient id="paint18_radial" cx="0" cy="0" r="1" gradientUnits="userSpaceOnUse" gradientTransform="translate(26.3458 21.2325) rotate(-77.1681) scale(3.40372 15.4805)">
<stop offset="0.00786164" stop-color="#0D2443"/>
<stop offset="1" stop-color="#13386A" stop-opacity="0.99"/>
</radialGradient>
<radialGradient id="paint19_radial" cx="0" cy="0" r="1" gradientUnits="userSpaceOnUse" gradientTransform="translate(25.3032 21.773) rotate(-74.8243) scale(3.87382 15.7308)">
<stop offset="0.00786164" stop-color="#0D2443"/>
<stop offset="1" stop-color="#13386A" stop-opacity="0.99"/>
</radialGradient>
<radialGradient id="paint20_radial" cx="0" cy="0" r="1" gradientUnits="userSpaceOnUse" gradientTransform="translate(24.2448 22.3423) rotate(-74.8272) scale(3.89267 15.8098)">
<stop offset="0.00786164" stop-color="#0D274A"/>
<stop offset="1" stop-color="#0D2B55" stop-opacity="0.67"/>
</radialGradient>
<radialGradient id="paint21_radial" cx="0" cy="0" r="1" gradientUnits="userSpaceOnUse" gradientTransform="translate(23.187 22.9038) rotate(-74.7834) scale(3.88301 15.7342)">
<stop offset="0.00786164" stop-color="#122847"/>
<stop offset="1" stop-color="#16345C" stop-opacity="0.45"/>
</radialGradient>
<radialGradient id="paint22_radial" cx="0" cy="0" r="1" gradientUnits="userSpaceOnUse" gradientTransform="translate(19.8898 29.2663) rotate(-74.9547) scale(7.53259 30.7982)">
<stop offset="0.0104167" stop-color="#071426"/>
<stop offset="0.348958" stop-color="#07182F"/>
<stop offset="1" stop-color="#010F23" stop-opacity="0"/>
</radialGradient>
<radialGradient id="paint23_radial" cx="0" cy="0" r="1" gradientUnits="userSpaceOnUse" gradientTransform="translate(21.1984 28.6323) rotate(-69.0817) scale(17.961 71.7832)">
<stop stop-color="#102949"/>
<stop offset="0.264141" stop-color="#072348" stop-opacity="0.89081"/>
<stop offset="0.654019" stop-color="#031833" stop-opacity="0"/>
</radialGradient>
<radialGradient id="paint24_radial" cx="0" cy="0" r="1" gradientUnits="userSpaceOnUse" gradientTransform="translate(19.1907 28.7633) rotate(-75.7469) scale(6.18915 26.3414)">
<stop stop-color="#193E70"/>
<stop offset="0.0001" stop-color="#092243"/>
<stop offset="0.338542" stop-color="#0F2D56"/>
<stop offset="1" stop-color="#15325A" stop-opacity="0"/>
</radialGradient>
<radialGradient id="paint25_radial" cx="0" cy="0" r="1" gradientUnits="userSpaceOnUse" gradientTransform="translate(28.4223 20.0962) rotate(-84.4208) scale(1.03441 6.0513)">
<stop offset="0.00786164" stop-color="white"/>
<stop offset="1" stop-color="#BBD2FF" stop-opacity="0.99"/>
</radialGradient>
<radialGradient id="paint26_radial" cx="0" cy="0" r="1" gradientUnits="userSpaceOnUse" gradientTransform="translate(27.393 20.6159) rotate(-80.8938) scale(2.2915 12.0506)">
<stop offset="0.00786164" stop-color="white"/>
<stop offset="1" stop-color="#BBD2FF" stop-opacity="0.99"/>
</radialGradient>
<radialGradient id="paint27_radial" cx="0" cy="0" r="1" gradientUnits="userSpaceOnUse" gradientTransform="translate(26.3011 21.0818) rotate(-77.1681) scale(3.40372 15.4805)">
<stop offset="0.00786164" stop-color="white"/>
<stop offset="1" stop-color="#BBD2FF" stop-opacity="0.99"/>
</radialGradient>
<radialGradient id="paint28_radial" cx="0" cy="0" r="1" gradientUnits="userSpaceOnUse" gradientTransform="translate(25.2587 21.6228) rotate(-74.8243) scale(3.87383 15.7308)">
<stop offset="0.00786164" stop-color="white"/>
<stop offset="1" stop-color="#BBD2FF" stop-opacity="0.99"/>
</radialGradient>
<radialGradient id="paint29_radial" cx="0" cy="0" r="1" gradientUnits="userSpaceOnUse" gradientTransform="translate(24.2002 22.1919) rotate(-74.8272) scale(3.89267 15.8098)">
<stop offset="0.00786164" stop-color="white"/>
<stop offset="1" stop-color="#BBD2FF" stop-opacity="0.99"/>
</radialGradient>
<radialGradient id="paint30_radial" cx="0" cy="0" r="1" gradientUnits="userSpaceOnUse" gradientTransform="translate(23.1426 22.7537) rotate(-74.7835) scale(3.88301 15.7342)">
<stop offset="0.00786164" stop-color="white"/>
<stop offset="1" stop-color="#BBD2FF" stop-opacity="0.99"/>
</radialGradient>
<radialGradient id="paint31_radial" cx="0" cy="0" r="1" gradientUnits="userSpaceOnUse" gradientTransform="translate(19.8453 29.1164) rotate(-74.9547) scale(7.53259 30.7982)">
<stop offset="0.00786164" stop-color="white"/>
<stop offset="1" stop-color="#BBD2FF" stop-opacity="0.99"/>
</radialGradient>
<radialGradient id="paint32_radial" cx="0" cy="0" r="1" gradientUnits="userSpaceOnUse" gradientTransform="translate(20.3711 29.3826) rotate(-74.1764) scale(10.4659 41.0387)">
<stop offset="0.00786164" stop-color="white"/>
<stop offset="1" stop-color="#BBD2FF" stop-opacity="0.99"/>
</radialGradient>
<radialGradient id="paint33_radial" cx="0" cy="0" r="1" gradientUnits="userSpaceOnUse" gradientTransform="translate(19.1462 28.6132) rotate(-75.7469) scale(6.18915 26.3414)">
<stop offset="0.00786164" stop-color="white"/>
<stop offset="1" stop-color="#BBD2FF" stop-opacity="0.99"/>
</radialGradient>
<radialGradient id="paint34_radial" cx="0" cy="0" r="1" gradientUnits="userSpaceOnUse" gradientTransform="translate(14.4564 15.495) rotate(41.6172) scale(10.2005 22.7434)">
<stop stop-color="#181749"/>
<stop offset="1" stop-color="#090832"/>
</radialGradient>
<radialGradient id="paint35_radial" cx="0" cy="0" r="1" gradientUnits="userSpaceOnUse" gradientTransform="translate(17.7301 26.688) rotate(-76.5516) scale(14.507 64.1604)">
<stop offset="0.00786164" stop-color="white"/>
<stop offset="1" stop-color="white" stop-opacity="0.99"/>
</radialGradient>
<radialGradient id="paint36_radial" cx="0" cy="0" r="1" gradientUnits="userSpaceOnUse" gradientTransform="translate(17.5691 26.4654) rotate(-76.5515) scale(14.507 64.1604)">
<stop offset="0.00786164" stop-color="white"/>
<stop offset="1" stop-color="#E0E9FB" stop-opacity="0.99"/>
</radialGradient>
<clipPath id="clip0">
<rect width="28.1761" height="36.7831" fill="white" transform="translate(25.7093) rotate(44.3422)"/>
</clipPath>
</defs>
</svg>
