<svg width="36" height="36" viewBox="0 0 36 36" fill="none" xmlns="http://www.w3.org/2000/svg">
<circle cx="18" cy="18" r="18" fill="#262531"/>
<path fill-rule="evenodd" clip-rule="evenodd" d="M19.6544 21.5818L13.5646 26.2866L17.4404 29.2728C17.7662 29.5238 18.2337 29.5238 18.5595 29.2728L28.0617 21.9654L23.6023 18.5393L19.6544 21.5818ZM17.317 22.3306L15.5887 20.9986L15.5862 21.0034L7.45315 14.8305C7.45314 14.8318 7.45314 14.8332 7.45314 14.8346L7.45314 15.6305L7.45312 15.6342L7.45312 21.1426C7.45312 21.4215 7.58062 21.6725 7.79311 21.8399L12.8616 25.745L17.317 22.3306ZM7.87831 14.0717L12.3288 17.4909L17.4404 13.5516C17.4871 13.5156 17.5367 13.4848 17.5884 13.4591L22.4741 9.71487L18.5595 6.70442C18.2337 6.45341 17.7662 6.45341 17.4404 6.70442L7.87831 14.0717ZM23.186 10.2623L18.7262 13.6801L24.3169 17.9886L24.3132 17.9914L28.5425 21.2408C28.5453 21.2128 28.5467 21.1847 28.5467 21.1566L28.5467 20.3461L28.5467 20.343L28.5467 14.8206C28.5467 14.5557 28.4192 14.2907 28.2067 14.1233L23.186 10.2623Z" fill="white"/>
</svg>
