<svg width="203" height="199" viewBox="0 0 203 199" fill="none" xmlns="http://www.w3.org/2000/svg">
<path d="M100.812 192.5C123.403 192.5 144.177 187.939 159.543 180.261C174.519 172.779 186.262 161.238 186.262 146.555C186.262 131.871 174.519 120.331 159.543 112.848C144.177 105.171 123.403 100.61 100.812 100.61C78.2205 100.61 57.4468 105.171 42.0802 112.848C27.1039 120.331 15.3613 131.871 15.3613 146.555C15.3613 161.238 27.1039 172.779 42.0802 180.261C57.4468 187.939 78.2205 192.5 100.812 192.5Z" fill="#AB45D7" stroke="white" stroke-width="13"/>
<path d="M110.781 157.023C133.373 157.023 154.146 152.461 169.513 144.784C184.489 137.301 196.232 125.761 196.232 111.077C196.232 96.3938 184.489 84.8531 169.513 77.3707C154.146 69.6932 133.373 65.1321 110.781 65.1321C88.1903 65.1321 67.4165 69.6932 52.0499 77.3707C37.0736 84.8531 25.3311 96.3938 25.3311 111.077C25.3311 125.761 37.0736 137.301 52.0499 144.784C67.4165 152.461 88.1903 157.023 110.781 157.023Z" fill="#021BFF" fill-opacity="0.75" stroke="white" stroke-width="13"/>
<path d="M91.9503 131.653C114.541 131.653 135.315 127.092 150.682 119.414C165.658 111.932 177.401 100.391 177.401 85.7074C177.401 71.0239 165.658 59.4833 150.682 52.0008C135.315 44.3233 114.541 39.7622 91.9503 39.7622C69.3592 39.7622 48.5854 44.3233 33.2189 52.0008C18.2426 59.4833 6.5 71.0239 6.5 85.7074C6.5 100.391 18.2426 111.932 33.2189 119.414C48.5854 127.092 69.3592 131.653 91.9503 131.653Z" fill="#05BFDA" fill-opacity="0.74" stroke="white" stroke-width="13"/>
<path d="M96.381 98.3904C118.972 98.3904 139.746 93.8293 155.112 86.1519C170.089 78.6694 181.831 67.1287 181.831 52.4452C181.831 37.7617 170.089 26.2211 155.112 18.7386C139.746 11.0611 118.972 6.5 96.381 6.5C73.7899 6.5 53.0161 11.0611 37.6496 18.7386C22.6732 26.2211 10.9307 37.7617 10.9307 52.4452C10.9307 67.1287 22.6732 78.6694 37.6496 86.1519C53.0161 93.8293 73.7899 98.3904 96.381 98.3904Z" fill="#452FD0" fill-opacity="0.75" stroke="white" stroke-width="13"/>
</svg>
