<svg width="154" height="176" viewBox="0 0 154 176" fill="none" xmlns="http://www.w3.org/2000/svg">
<path opacity="0.6" d="M113.554 25.3276C114.529 23.9251 116.456 23.5786 117.859 24.5538C119 25.347 120.119 26.1698 121.214 27.0211C122.563 28.0693 122.806 30.0125 121.758 31.3613C120.71 32.7101 118.767 32.9538 117.418 31.9056C116.409 31.1214 115.378 30.3635 114.328 29.6328C112.925 28.6576 112.579 26.7301 113.554 25.3276Z" fill="#05BFDA"/>
<path opacity="0.5" d="M99.2379 17.9062C99.8938 16.3289 101.704 15.582 103.281 16.2379C104.566 16.7723 105.834 17.3399 107.083 17.9396C108.623 18.679 109.272 20.5268 108.533 22.0667C107.793 23.6066 105.945 24.2556 104.406 23.5162C103.256 22.9641 102.089 22.4416 100.906 21.9498C99.3289 21.2939 98.582 19.4835 99.2379 17.9062Z" fill="#05BFDA"/>
<path opacity="0.8" d="M26.6504 146.196C27.6983 144.847 29.6414 144.603 30.9905 145.65C32.2649 146.64 33.5734 147.588 34.9139 148.492C36.3302 149.447 36.7041 151.37 35.7489 152.786C34.7938 154.202 32.8714 154.576 31.4552 153.621C29.9998 152.64 28.5793 151.61 27.1959 150.536C25.8468 149.488 25.6026 147.545 26.6504 146.196Z" fill="#2853EB"/>
<g clip-path="url(#clip0)">
<path d="M99.7963 101.726C99.8451 95.084 97.2195 89.8311 91.9825 86.1216C87.9376 83.2655 83.029 81.7756 78.2813 80.3439C68.3912 77.3457 65.5222 75.7664 65.5222 71.0368C65.5222 65.7686 72.3687 63.8941 78.2298 63.8941C82.4983 63.8941 87.4092 65.2213 90.459 67.1881L96.5053 57.824C92.5194 55.2401 87.0642 53.4776 81.6773 52.9305V45.1863C81.6773 44.634 81.2296 44.1863 80.6773 44.1863H71.5237C70.9715 44.1863 70.5237 44.634 70.5237 45.1863V53.5437C60.6091 55.7247 54.3634 62.2047 54.3634 71.0368C54.3634 77.2223 56.9338 82.1278 61.9885 85.5877C65.833 88.2291 70.5218 89.6474 75.051 91.0206C84.7519 93.9527 88.6912 95.7395 88.6464 101.657L88.6462 101.7C88.6462 106.667 82.0644 108.432 76.4257 108.432C71.0993 108.432 65.307 106.098 62.0237 102.627L53.9209 110.292C58.0789 114.69 64.1201 117.799 70.5235 119.017V127.14C70.5235 127.693 70.9712 128.14 71.5235 128.14H80.6773C81.2296 128.14 81.6773 127.693 81.6773 127.14V119.214C92.6945 117.637 99.7854 111.004 99.7963 101.726Z" fill="#2853EB"/>
</g>
<path d="M81.6929 163.007L99.558 171.11L95.0121 148.605L81.6929 163.007Z" fill="#05BFDA"/>
<path fill-rule="evenodd" clip-rule="evenodd" d="M88.3945 158.637C120.232 152.448 144.531 125.152 146.148 91.9073C146.242 89.9573 147.816 88.3723 149.768 88.3723C151.72 88.3723 153.311 89.9562 153.225 91.9065C151.603 128.6 124.841 158.754 89.7436 165.577L88.3945 158.637Z" fill="#05BFDA"/>
<path d="M63.9104 18.3095C40.5829 23.1916 21.4169 39.4412 12.4872 61.0039C11.6349 63.062 10.8759 65.1683 10.2155 67.3176C9.58064 69.3836 9.03682 71.4895 8.58867 73.6307C7.59359 78.3851 7.0698 83.3157 7.0698 88.3725C7.0698 94.4676 7.8308 100.38 9.26156 106.023C9.74139 107.916 8.70242 109.891 6.83625 110.465C4.97009 111.038 2.98423 109.992 2.49588 108.102C0.866189 101.794 0 95.182 0 88.3725C0 82.8262 0.574629 77.4103 1.66881 72.1824C2.1615 69.8284 2.75944 67.5129 3.4575 65.2411C4.18374 62.8776 5.01829 60.5616 5.95533 58.2989C15.7647 34.6122 36.8112 16.758 62.4622 11.3896L63.9104 18.3095Z" fill="#2853EB"/>
<path fill-rule="evenodd" clip-rule="evenodd" d="M137.574 47.2171C139.04 46.3403 140.94 46.8179 141.816 48.284C142.528 49.4738 143.209 50.6841 143.858 51.914C144.655 53.4247 144.077 55.2958 142.567 56.0932C141.056 56.8906 139.185 56.3123 138.387 54.8016C137.79 53.6694 137.163 52.5549 136.507 51.4592C135.631 49.9932 136.108 48.0939 137.574 47.2171ZM144.863 61.4439C146.482 60.8984 148.237 61.7686 148.782 63.3875C149.003 64.0449 149.216 64.7062 149.421 65.3712C149.923 67.0041 149.006 68.7346 147.373 69.2363C145.74 69.7381 144.009 68.8211 143.508 67.1882C143.32 66.5761 143.124 65.9675 142.92 65.3625C142.374 63.7437 143.244 61.9893 144.863 61.4439Z" fill="#05BFDA"/>
<path opacity="0.8" d="M125.982 34.8326C127.23 33.6666 129.187 33.7334 130.353 34.9818C131.301 35.996 132.221 37.0354 133.114 38.099C134.213 39.4074 134.042 41.3584 132.734 42.4567C131.426 43.555 129.475 43.3847 128.376 42.0764C127.554 41.0965 126.705 40.1388 125.833 39.2043C124.667 37.9559 124.733 35.9987 125.982 34.8326Z" fill="#05BFDA"/>
<path opacity="0.3" d="M85.0662 13.4601C85.4161 11.788 87.0552 10.7163 88.7273 11.0662C89.4086 11.2088 90.0867 11.3603 90.7614 11.5205C92.4234 11.9151 93.4509 13.5823 93.0562 15.2444C92.6616 16.9064 90.9944 17.9338 89.3323 17.5392C88.7113 17.3918 88.0872 17.2524 87.4601 17.1211C85.788 16.7712 84.7163 15.1321 85.0662 13.4601Z" fill="#05BFDA"/>
<path fill-rule="evenodd" clip-rule="evenodd" d="M9.19679 125.373C10.7247 124.609 12.5826 125.229 13.3465 126.757C13.6198 127.303 13.9591 127.886 14.3544 128.496C15.2839 129.929 14.8756 131.844 13.4424 132.774C12.0091 133.703 10.0938 133.295 9.16429 131.862C8.67316 131.104 8.21153 130.319 7.81355 129.523C7.0496 127.995 7.6689 126.137 9.19679 125.373ZM15.5985 135.218C16.8448 134.05 18.8022 134.113 19.9705 135.359C20.242 135.649 20.5138 135.936 20.7649 136.201C21.0977 136.553 21.3942 136.866 21.6058 137.096C22.1524 137.691 22.7088 138.276 23.2749 138.852C24.4722 140.071 24.455 142.029 23.2366 143.226C22.0182 144.424 20.0598 144.406 18.8625 143.188C18.2482 142.563 17.6442 141.927 17.051 141.282C16.8572 141.071 16.6215 140.822 16.3301 140.515C16.0823 140.253 15.7942 139.949 15.4573 139.59C14.289 138.344 14.3523 136.386 15.5985 135.218Z" fill="#2853EB"/>
<path opacity="0.6" d="M39.3204 154.724C40.0767 153.193 41.9315 152.564 43.4632 153.32C44.1862 153.677 44.9161 154.023 45.6525 154.356C46.1216 154.568 46.8175 154.847 47.7211 155.175C49.3267 155.758 50.1554 157.533 49.5722 159.138C48.9889 160.744 47.2145 161.573 45.6089 160.989C44.6316 160.634 43.7727 160.295 43.1026 159.992C42.3026 159.63 41.5097 159.255 40.7243 158.867C39.1926 158.111 38.564 156.256 39.3204 154.724Z" fill="#2853EB"/>
<path opacity="0.4" d="M53.1031 160.305C53.5388 158.653 55.2309 157.667 56.8827 158.103C58.4065 158.505 59.9825 158.891 61.5586 159.241C63.2263 159.61 64.2786 161.262 63.9089 162.93C63.5392 164.597 61.8875 165.65 60.2197 165.28C58.5554 164.911 56.8994 164.505 55.3049 164.085C53.6532 163.649 52.6674 161.957 53.1031 160.305Z" fill="#2853EB"/>
<path d="M71.4466 13.0244L57.9531 27.2633L53.6815 4.70435L71.4466 13.0244Z" fill="#2853EB"/>
<defs>
<clipPath id="clip0">
<rect width="83.9538" height="83.9538" fill="white" transform="translate(34.8828 44.1863)"/>
</clipPath>
</defs>
</svg>
