<svg width="204" height="46" viewBox="0 0 204 46" fill="none" xmlns="http://www.w3.org/2000/svg">
<path d="M48.1909 30.3383C47.7528 30.3383 47.5338 30.2288 47.3148 30.1193C47.2052 29.9002 47.0957 29.6812 47.0957 29.3526V17.086C47.0957 16.7574 47.2052 16.4288 47.3148 16.3193C47.5338 16.1002 47.7528 15.9907 48.1909 15.9907H53.3386C55.31 15.9907 56.7338 16.4288 57.7195 17.1955C58.5957 18.0717 59.1433 19.2764 59.1433 20.9193C59.1433 22.5622 58.7052 23.7669 57.7195 24.6431C56.8433 25.4098 55.31 25.8479 53.3386 25.8479H51.3671V29.2431C51.3671 29.5717 51.2576 29.9002 51.1481 30.0098C50.929 30.2288 50.71 30.2288 50.2719 30.2288H48.1909V30.3383ZM53.01 22.7812C53.5576 22.7812 53.9957 22.6717 54.3243 22.3431C54.6528 22.0145 54.7624 21.5764 54.7624 20.9193C54.7624 20.2622 54.6528 19.8241 54.3243 19.4955C53.9957 19.1669 53.5576 19.0574 53.01 19.0574H51.3671V22.7812H53.01Z" fill="black"/>
<path d="M64.0714 30.6666C62.7571 30.6666 61.6619 30.2285 60.8952 29.3523C60.1285 28.4761 59.6904 27.2714 59.6904 25.738C59.6904 24.5333 59.9095 23.5475 60.4571 22.6714C61.0047 21.7952 61.7714 21.138 62.7571 20.5904C63.7428 20.1523 64.9476 19.8237 66.1523 19.8237C67.2476 19.8237 68.1238 19.9333 69 20.1523C69.8762 20.3714 70.5333 20.6999 71.3 21.138V29.5714C71.3 29.7904 71.3 30.0094 71.1904 30.119C71.0809 30.2285 70.8619 30.2285 70.6428 30.2285H68.4523C68.3428 30.2285 68.1238 30.2285 68.1238 30.119C68.0142 30.0094 68.0142 30.0094 67.9047 29.8999L67.5762 29.2428C67.1381 29.6809 66.7 30.0094 66.1523 30.2285C65.6047 30.5571 64.8381 30.6666 64.0714 30.6666ZM65.6047 27.819C66.1523 27.819 66.5904 27.7094 66.919 27.3809C67.2476 27.1618 67.3571 26.7237 67.3571 26.2856V22.9999C67.1381 22.8904 66.7 22.7809 66.3714 22.7809C65.6047 22.7809 65.0571 22.9999 64.619 23.5475C64.1809 24.0952 63.9619 24.7523 63.9619 25.738C63.9619 27.0523 64.5095 27.819 65.6047 27.819Z" fill="black"/>
<path d="M74.2573 30.3384C73.8193 30.3384 73.6002 30.2288 73.3812 30.1193C73.1621 29.9003 73.1621 29.6812 73.1621 29.3526V20.8098C73.1621 20.5907 73.1621 20.3717 73.2716 20.2622C73.3812 20.1526 73.6002 20.1526 73.8193 20.1526H76.0097C76.2288 20.1526 76.3383 20.1526 76.3383 20.2622C76.4478 20.2622 76.4478 20.3717 76.5573 20.4812L76.6669 21.1384C77.105 20.7003 77.5431 20.4812 78.2002 20.2622C78.8573 20.0431 79.5145 19.9336 80.3907 19.9336C81.4859 19.9336 82.4716 20.2622 83.1288 20.9193C83.7859 21.5764 84.224 22.4526 84.224 23.7669V29.3526C84.224 29.6812 84.1145 30.0098 84.005 30.1193C83.8954 30.3384 83.5669 30.3384 83.1288 30.3384H81.0478C80.6097 30.3384 80.3907 30.2288 80.1716 30.1193C79.9526 29.9003 79.9526 29.6812 79.9526 29.3526V23.986C79.9526 23.5479 79.8431 23.2193 79.624 23.1098C79.405 22.8907 79.1859 22.7812 78.7478 22.7812C78.3097 22.7812 77.9812 22.8907 77.7621 23.1098C77.5431 23.3288 77.4335 23.6574 77.4335 23.986V29.2431C77.4335 29.5717 77.324 29.9003 77.2145 30.0098C77.105 30.2288 76.7764 30.2288 76.3383 30.2288H74.2573V30.3384Z" fill="black"/>
<path d="M91.6716 30.6669C89.7001 30.6669 88.1668 30.2288 87.0716 29.2431C85.9763 28.3669 85.4287 27.0526 85.4287 25.3003C85.4287 24.205 85.6478 23.3288 86.1954 22.4526C86.6335 21.686 87.4001 21.0288 88.2763 20.5907C89.262 20.1526 90.3573 19.9336 91.5621 19.9336C92.5478 19.9336 93.3144 20.0431 93.9716 20.2622C94.6287 20.4812 95.2859 20.7003 95.724 21.1384C95.8335 21.2479 95.943 21.3574 95.943 21.4669C95.943 21.5764 95.8335 21.686 95.724 21.905L94.8478 23.4384C94.7382 23.6574 94.6287 23.7669 94.5192 23.7669C94.4097 23.7669 94.3002 23.6574 94.0811 23.5479C93.7525 23.3288 93.3144 23.1098 92.9859 23.0003C92.6573 22.8907 92.2192 22.7812 91.7811 22.7812C91.124 22.7812 90.4668 23.0003 90.0287 23.4384C89.5906 23.8765 89.3716 24.5336 89.3716 25.3003C89.3716 26.0669 89.5906 26.7241 90.0287 27.1622C90.4668 27.6003 91.0144 27.8193 91.7811 27.8193C92.2192 27.8193 92.6573 27.7098 92.9859 27.6003C93.3144 27.4907 93.7525 27.2717 94.0811 27.0526C94.3002 26.9431 94.4097 26.8336 94.5192 26.8336C94.6287 26.8336 94.7382 26.9431 94.8478 27.1622L95.8335 28.805C95.943 28.9145 95.943 29.0241 95.943 29.1336C95.943 29.2431 95.8335 29.3526 95.724 29.4622C95.1763 29.7907 94.5192 30.1193 93.7525 30.3383C93.424 30.5574 92.6573 30.6669 91.6716 30.6669Z" fill="black"/>
<path d="M101.638 30.6666C100.324 30.6666 99.2283 30.2285 98.4616 29.3523C97.6949 28.4761 97.2568 27.2714 97.2568 25.738C97.2568 24.5333 97.4759 23.5475 98.0235 22.6714C98.5711 21.7952 99.3378 21.138 100.323 20.5904C101.309 20.1523 102.514 19.8237 103.719 19.8237C104.814 19.8237 105.69 19.9333 106.566 20.1523C107.443 20.3714 108.1 20.6999 108.866 21.138V29.5714C108.866 29.7904 108.866 30.0094 108.757 30.119C108.647 30.2285 108.428 30.2285 108.209 30.2285H106.019C105.909 30.2285 105.69 30.2285 105.69 30.119C105.581 30.0094 105.581 30.0094 105.471 29.8999L105.143 29.2428C104.704 29.6809 104.266 30.0094 103.719 30.2285C103.171 30.5571 102.514 30.6666 101.638 30.6666ZM103.281 27.819C103.828 27.819 104.266 27.7094 104.595 27.3809C104.924 27.1618 105.033 26.7237 105.033 26.2856V22.9999C104.814 22.8904 104.376 22.7809 104.047 22.7809C103.281 22.7809 102.733 22.9999 102.295 23.5475C101.857 24.0952 101.638 24.7523 101.638 25.738C101.528 27.0523 102.076 27.819 103.281 27.819Z" fill="black"/>
<path d="M122.229 29.5717C122.338 29.6812 122.338 29.7907 122.338 29.9003C122.338 30.0098 122.338 30.1193 122.229 30.2288C122.119 30.3383 122.009 30.3383 121.9 30.3383H118.614C118.395 30.3383 118.286 30.3383 118.176 30.3383C118.067 30.3383 117.957 30.2288 117.848 30.1193L115 26.1764V29.2431C115 29.5717 114.89 29.9002 114.781 30.0098C114.562 30.2288 114.343 30.2288 113.905 30.2288H111.824C111.386 30.2288 111.167 30.1193 110.948 30.0098C110.838 29.7907 110.729 29.5717 110.729 29.2431V17.086C110.729 16.7574 110.838 16.4288 110.948 16.3193C111.167 16.1002 111.386 15.9907 111.824 15.9907H113.905C114.343 15.9907 114.562 16.1002 114.781 16.3193C115 16.5383 115 16.7574 115 17.086V24.0955L117.738 20.4812C117.848 20.3717 117.957 20.2622 118.067 20.2622C118.176 20.2622 118.286 20.1526 118.505 20.1526H121.79C121.9 20.1526 122.009 20.1526 122.119 20.2622C122.229 20.3717 122.229 20.4812 122.229 20.5907C122.229 20.7002 122.229 20.8098 122.119 20.9193L118.505 25.0812L122.229 29.5717Z" fill="black"/>
<path d="M129.019 30.6663C127.814 30.6663 126.829 30.4472 125.843 30.1187C124.967 29.6806 124.2 29.133 123.652 28.3663C123.105 27.5996 122.886 26.6139 122.886 25.5187C122.886 23.7663 123.433 22.3425 124.419 21.4663C125.405 20.4806 126.938 20.0425 128.8 20.0425C130.662 20.0425 132.086 20.4806 132.962 21.4663C133.948 22.3425 134.386 23.6568 134.386 25.2996C134.386 25.9568 134.057 26.3949 133.51 26.3949H126.938C126.938 27.052 127.157 27.4901 127.595 27.8187C128.033 28.1472 128.8 28.2568 129.676 28.2568C130.224 28.2568 130.771 28.2568 131.1 28.1472C131.538 28.0377 131.867 27.8187 132.305 27.7091C132.524 27.5996 132.633 27.5996 132.633 27.5996C132.743 27.5996 132.852 27.7092 132.962 27.8187L133.729 29.133C133.838 29.2425 133.838 29.352 133.838 29.4615C133.838 29.5711 133.729 29.6806 133.619 29.7901C133.071 30.1187 132.414 30.4472 131.648 30.6663C130.771 30.5568 130.005 30.6663 129.019 30.6663ZM130.662 24.0949C130.662 23.5472 130.552 23.1092 130.224 22.8901C129.895 22.5615 129.457 22.452 128.8 22.452C128.143 22.452 127.705 22.5615 127.376 22.8901C127.048 23.2187 126.938 23.5472 126.938 24.0949H130.662Z" fill="black"/>
<path d="M141.724 30.6666C140.52 30.6666 139.424 30.557 138.329 30.338C137.234 30.119 136.467 29.6809 135.81 29.2428C135.591 29.1332 135.481 28.9142 135.481 28.8047C135.481 28.6951 135.481 28.5856 135.591 28.4761L136.577 26.8332C136.686 26.6142 136.796 26.6142 136.905 26.6142C137.015 26.6142 137.124 26.6142 137.234 26.7237C137.781 27.0523 138.329 27.2713 138.986 27.4904C139.643 27.7094 140.3 27.819 140.958 27.819C141.615 27.819 142.053 27.7094 142.381 27.4904C142.71 27.2713 142.82 26.9428 142.82 26.5047C142.82 26.0666 142.6 25.738 142.272 25.519C141.943 25.2999 141.286 24.9713 140.301 24.6428C138.877 24.0951 137.781 23.5475 137.015 22.8904C136.248 22.2332 135.81 21.2475 135.81 20.1523C135.81 18.7285 136.358 17.7428 137.343 16.9761C138.329 16.2094 139.643 15.8809 141.286 15.8809C142.491 15.8809 143.477 15.9904 144.243 16.2094C145.12 16.4285 145.777 16.757 146.324 17.0856C146.543 17.3047 146.653 17.4142 146.653 17.6332C146.653 17.7428 146.653 17.8523 146.543 17.9618L145.558 19.6047C145.448 19.8237 145.339 19.8237 145.229 19.8237C145.12 19.8237 145.01 19.8237 144.901 19.7142C144.134 19.1666 143.148 18.9475 141.943 18.9475C141.286 18.9475 140.848 19.057 140.52 19.2761C140.191 19.4951 140.081 19.8237 140.081 20.2618C140.081 20.5904 140.191 20.8094 140.301 21.0285C140.52 21.2475 140.739 21.3571 140.958 21.5761C141.286 21.6856 141.724 21.9047 142.272 22.1237L142.71 22.2332C143.696 22.6713 144.572 22.9999 145.12 23.438C145.777 23.7666 146.215 24.3142 146.543 24.8618C146.872 25.4094 146.981 26.0666 146.981 26.8332C146.981 28.038 146.543 29.1332 145.558 29.7904C144.901 30.2285 143.477 30.6666 141.724 30.6666Z" fill="black"/>
<path d="M151.691 30.3381C151.472 30.3381 151.363 30.3381 151.253 30.2285C151.144 30.119 151.034 30.0095 151.034 29.7904L148.296 20.7C148.296 20.5904 148.296 20.5904 148.296 20.4809C148.296 20.2619 148.405 20.1523 148.734 20.1523H151.472C151.691 20.1523 151.801 20.1523 151.91 20.2619C152.02 20.3714 152.02 20.3714 152.129 20.5904L153.224 25.4095L154.648 21.5762C154.758 21.3571 154.758 21.2476 154.867 21.2476C154.977 21.1381 155.086 21.1381 155.305 21.1381H156.62C156.839 21.1381 156.948 21.1381 157.058 21.2476C157.167 21.3571 157.167 21.4666 157.277 21.5762L158.701 25.4095L159.905 20.5904C159.905 20.4809 160.015 20.3714 160.124 20.2619C160.234 20.1523 160.344 20.1523 160.453 20.1523H163.301C163.629 20.1523 163.739 20.2619 163.739 20.4809C163.739 20.4809 163.739 20.5904 163.739 20.7L161.001 29.7904C160.891 30.0095 160.891 30.119 160.782 30.2285C160.672 30.3381 160.563 30.3381 160.344 30.3381H158.263C158.044 30.3381 157.934 30.3381 157.824 30.2285C157.715 30.119 157.605 30.0095 157.605 29.7904L156.182 25.9571L154.758 29.7904C154.648 30.0095 154.648 30.119 154.539 30.2285C154.429 30.3381 154.32 30.3381 154.101 30.3381H151.691Z" fill="black"/>
<path d="M168.775 30.6666C167.461 30.6666 166.366 30.2285 165.599 29.3523C164.833 28.4761 164.395 27.2714 164.395 25.738C164.395 24.5333 164.614 23.5475 165.161 22.6714C165.709 21.7952 166.475 21.138 167.461 20.5904C168.447 20.1523 169.652 19.8237 170.856 19.8237C171.952 19.8237 172.828 19.9333 173.704 20.1523C174.58 20.3714 175.237 20.6999 176.004 21.138V29.5714C176.004 29.7904 176.004 30.0094 175.895 30.119C175.785 30.2285 175.566 30.2285 175.347 30.2285H173.156C173.047 30.2285 172.937 30.2285 172.828 30.119C172.718 30.0094 172.718 30.0094 172.609 29.8999L172.28 29.2428C171.842 29.6809 171.404 30.0094 170.856 30.2285C170.309 30.5571 169.652 30.6666 168.775 30.6666ZM170.418 27.819C170.966 27.819 171.404 27.7094 171.733 27.3809C172.061 27.1618 172.171 26.7237 172.171 26.2856V22.9999C171.952 22.8904 171.514 22.7809 171.185 22.7809C170.418 22.7809 169.871 22.9999 169.433 23.5475C168.995 24.0952 168.775 24.7523 168.775 25.738C168.666 27.0523 169.214 27.819 170.418 27.819Z" fill="black"/>
<path d="M178.962 34.6091C178.524 34.6091 178.305 34.4996 178.086 34.3901C177.977 34.1711 177.867 33.952 177.867 33.6234V21.5758C178.524 21.1377 179.291 20.6996 180.277 20.4806C181.262 20.152 182.248 20.0425 183.234 20.0425C187.505 20.0425 189.586 21.7949 189.586 25.4092C189.586 27.052 189.148 28.3663 188.272 29.352C187.396 30.3377 186.081 30.7758 184.439 30.7758C184.001 30.7758 183.562 30.6663 183.124 30.5568C182.686 30.4472 182.358 30.3377 182.029 30.1187V33.6234C182.029 33.952 181.92 34.2806 181.81 34.3901C181.591 34.6092 181.372 34.6091 180.934 34.6091H178.962ZM183.562 27.8187C184.22 27.8187 184.658 27.5996 184.877 27.1615C185.205 26.7234 185.315 26.0663 185.315 25.2996C185.315 24.4234 185.096 23.7663 184.767 23.3282C184.439 22.9996 183.891 22.7806 183.124 22.7806C182.686 22.7806 182.248 22.8901 182.029 22.9996V26.2853C182.029 26.7234 182.139 27.1615 182.467 27.3806C182.686 27.7091 183.124 27.8187 183.562 27.8187Z" fill="black"/>
<path fill-rule="evenodd" clip-rule="evenodd" d="M19.1669 13.581C18.7288 11.3905 20.4811 9.30957 22.6716 9.30957C24.643 9.30957 26.2859 10.9524 26.2859 12.9239V17.3048C26.8335 17.3048 27.2716 17.3048 27.8192 17.3048C28.2573 17.3048 28.8049 17.3048 29.243 17.3048V12.9239C29.243 10.9524 30.8859 9.30957 32.8573 9.30957C35.0478 9.30957 36.8002 11.3905 36.3621 13.581L35.3764 18.7286C38.6621 20.1524 41.1811 22.6715 41.1811 25.8477V27.7096C41.1811 30.3381 39.4288 32.5286 37.0192 33.9524C34.6097 35.4858 31.324 36.3619 27.7097 36.3619C24.0954 36.3619 20.8097 35.4858 18.4002 33.9524C15.9907 32.5286 14.2383 30.3381 14.2383 27.7096V25.8477C14.2383 22.6715 16.7573 20.1524 20.043 18.7286L19.1669 13.581ZM34.1716 19.4953L35.2669 13.4715C35.5954 11.9381 34.3907 10.5143 32.8573 10.5143C31.4335 10.5143 30.3383 11.6096 30.3383 13.0334V18.6191C30.0097 18.6191 29.5716 18.5096 29.243 18.5096C28.8049 18.5096 28.2573 18.5096 27.8192 18.5096C27.2716 18.5096 26.8335 18.5096 26.2859 18.6191C25.9573 18.6191 25.5192 18.7286 25.1907 18.7286V13.1429C25.1907 11.7191 24.0954 10.6239 22.6716 10.6239C21.1383 10.6239 19.9335 12.0477 20.2621 13.581L21.3573 19.7143C17.8526 21.0286 15.443 23.4381 15.443 26.1762V28.0381C15.443 32.2 20.9192 35.5953 27.7097 35.5953C34.5002 35.5953 39.9764 32.2 39.9764 28.0381V26.1762C40.0859 23.2191 37.6764 20.8096 34.1716 19.4953Z" fill="#633001"/>
<path d="M40.0861 27.8194C40.0861 31.9813 34.6099 35.3766 27.8194 35.3766C21.0289 35.3766 15.5527 31.9813 15.5527 27.8194V25.9575H40.1956V27.8194H40.0861Z" fill="#FEDC90"/>
<path fill-rule="evenodd" clip-rule="evenodd" d="M20.2621 13.3619C19.9335 11.8286 21.1383 10.4048 22.6716 10.4048C24.0954 10.4048 25.1907 11.5 25.1907 12.9238V18.6191C26.0669 18.5095 26.9431 18.4 27.8193 18.4C28.6954 18.4 29.5716 18.5095 30.3383 18.5095V12.9238C30.3383 11.5 31.4335 10.4048 32.8573 10.4048C34.3907 10.4048 35.5954 11.8286 35.2669 13.3619L34.1716 19.3857C37.7859 20.7 40.1954 23.1095 40.1954 25.8476C40.1954 30.0095 34.7193 33.4048 27.9288 33.4048C21.1383 33.4048 15.6621 30.0095 15.6621 25.8476C15.6621 23.1095 18.0716 20.7 21.5764 19.3857L20.2621 13.3619Z" fill="#D1884F"/>
<path d="M24.4245 25.4091C24.4245 26.5043 23.7673 27.49 23.1102 27.49C22.453 27.49 21.7959 26.6138 21.7959 25.4091C21.7959 24.3138 22.453 23.3281 23.1102 23.3281C23.7673 23.3281 24.4245 24.2043 24.4245 25.4091Z" fill="#633001"/>
<path d="M33.8424 25.4091C33.8424 26.5043 33.1853 27.49 32.5282 27.49C31.7615 27.49 31.2139 26.6138 31.2139 25.4091C31.2139 24.3138 31.871 23.3281 32.5282 23.3281C33.1853 23.3281 33.8424 24.2043 33.8424 25.4091Z" fill="#633001"/>
</svg>
