<svg width="143" height="40" viewBox="0 0 143 40" fill="none" xmlns="http://www.w3.org/2000/svg">
<path d="M14.9245 18.814L14.5946 18.4807C14.3448 18.2304 13.9157 18.4077 13.9157 18.7626V23.5221C13.9157 23.7419 14.0954 23.9207 14.315 23.9207H19.0589C19.4126 23.9207 19.5906 23.4908 19.3391 23.2408C19.1841 23.0852 19.1841 22.8332 19.3391 22.6779L24.3848 17.5989C24.5402 17.4441 24.5402 17.1922 24.3848 17.0359L23.9251 16.5763C23.6753 16.3259 23.8533 15.8959 24.206 15.8959H28.9471C29.1663 15.8959 29.3457 16.0745 29.3457 16.2945V21.0536C29.3457 21.4085 28.9158 21.5862 28.6655 21.3355L28.3459 21.0149C28.1898 20.8549 27.9387 20.8549 27.7859 21.0149L19.279 29.5477C19.1246 29.703 18.8739 29.703 18.7174 29.5477L8.30982 19.1034C8.15337 18.9464 8.15337 18.694 8.30982 18.538L22.7175 4.08021C22.8722 3.92458 22.8722 3.67064 22.7175 3.51568L19.3296 0.116217C19.1745 -0.0387389 18.9234 -0.0387389 18.7676 0.116217L0.115809 18.8344C-0.0386029 18.9901 -0.0386029 19.244 0.115809 19.399L18.7657 38.1145C18.9208 38.2691 19.174 38.2691 19.3284 38.1145L37.9774 19.399C38.1315 19.2433 38.1315 18.9908 37.9774 18.8357L27.0054 7.82495C26.852 7.67 26.5995 7.67 26.4441 7.82495L15.4891 18.8141C15.3326 18.9711 15.0809 18.9711 14.9245 18.8141V18.814Z" fill="#DE5959"/>
<path d="M114.197 27.9209C113.62 27.9209 113.122 28.1278 112.704 28.5439C112.292 28.9603 112.081 29.4519 112.081 30.0213C112.081 30.889 112.521 31.5642 113.396 32.0465C114.354 32.3084 115.125 32.1378 115.705 31.5443C116.126 31.1253 116.331 30.6229 116.331 30.0375C116.331 29.4466 116.126 28.9525 115.705 28.544C115.289 28.1319 114.79 27.9266 114.196 27.9266V27.9211H114.197V27.9209ZM80.1571 11.8188H78.5783C77.8962 11.8188 77.3407 12.368 77.3407 13.0516V13.9326C75.6629 12.1854 73.7597 11.311 71.6339 11.311C69.1816 11.311 67.1342 12.2242 65.5005 14.0453C63.8635 15.8664 63.0496 18.1441 63.0496 20.8757C63.0496 23.6542 63.8648 25.979 65.4972 27.8376C67.1477 29.6597 69.2287 30.569 71.7494 30.569C73.743 30.569 75.6078 29.7552 77.3423 28.1315V29.8733C77.3423 30.7193 78.0299 31.4069 78.8739 31.4069H81.5693V13.2304C81.569 12.4527 80.9364 11.8188 80.1569 11.8188H80.1571ZM76.1662 25.1961C75.2036 26.2693 73.9464 26.8051 72.3845 26.8051C70.924 26.8051 69.7127 26.2531 68.7539 25.1411C67.8185 24.0464 67.3512 22.6204 67.3512 20.8732C67.3512 19.2401 67.8326 17.8649 68.7911 16.7558C69.7633 15.6571 70.9739 15.1119 72.4216 15.1119C73.9566 15.1119 75.2022 15.6546 76.1624 16.7451C77.1246 17.8544 77.6061 19.2617 77.6061 20.9701C77.6061 22.6795 77.1248 24.0884 76.1624 25.1989H76.1665V25.1961H76.1662ZM63.0469 14.8956V13.0947C63.0469 12.3882 62.4775 11.8215 61.7737 11.8215H60.1092C59.4081 11.8215 58.8374 12.3856 58.8374 13.0919V13.8762C57.315 12.1679 55.4063 11.3112 53.1111 11.3112C50.4913 11.3112 48.3804 12.3009 46.7849 14.2684C45.2997 16.1244 44.5576 18.3833 44.5576 21.0423C44.5576 23.7726 45.3573 26.053 46.9555 27.8727C48.5401 29.6736 50.5727 30.5667 53.0559 30.5667C55.2367 30.5667 57.1653 29.7154 58.8373 28.0056V30.5506C58.8373 34.3324 57.297 36.2233 54.2166 36.2233C52.5441 36.2233 51.2737 35.6539 50.4007 34.5177C50.1779 34.2303 49.9931 33.8731 49.8461 33.4421C49.6398 32.839 49.0663 32.4389 48.4324 32.4389H46.8371C46.0327 32.4389 45.4344 33.2043 45.6377 33.9832C46.0742 35.6431 46.9169 36.9914 48.1712 38.0336C49.7433 39.3441 51.747 39.9997 54.1778 39.9997C57.0591 39.9997 59.3241 39.0515 60.9718 37.158C61.8448 36.1722 62.429 34.9932 62.7291 33.6206C62.8292 33.1263 62.9078 32.5449 62.9628 31.8881C63.0179 31.2354 63.0454 30.478 63.0454 29.6159V26.9672C61.8668 25.2698 61.2741 23.2404 61.2741 20.8757C61.2741 18.551 61.8654 16.5647 63.0454 14.8955H63.0467L63.0469 14.8956ZM57.7139 25.0524C56.7787 26.2221 55.508 26.805 53.8966 26.805C52.2871 26.805 51.0274 26.2274 50.1148 25.0631C49.2809 24.0049 48.8631 22.6431 48.8631 20.986C48.8631 19.2991 49.2807 17.9267 50.1148 16.8686C51.0403 15.6853 52.2986 15.0932 53.8966 15.0932C55.3928 15.0932 56.6222 15.6356 57.5817 16.7194C58.5303 17.7791 59.0064 19.1948 59.0064 20.9688C59.0064 22.6272 58.5746 23.9862 57.7137 25.0499V25.0527L57.7139 25.0524ZM98.048 11.8322V11.8188H89.3159V6.47103C89.3159 5.78343 88.76 5.22744 88.071 5.22744H86.3661C85.6719 5.22744 85.1078 5.79154 85.1078 6.48712V11.8188H83.309V15.7442H85.1053V31.4046H87.5064C88.5075 31.4046 89.3134 30.5987 89.3134 29.5969V15.747H93.631C93.972 15.0957 94.385 14.4953 94.8759 13.946C95.7705 12.9683 96.8287 12.2646 98.0455 11.8324H98.0482L98.048 11.8322ZM119.533 5.22744C118.786 5.22744 118.144 5.49739 117.607 6.03605C117.072 6.57169 116.801 7.20964 116.801 7.94427C116.801 8.71933 117.07 9.36925 117.607 9.91053C118.144 10.4463 118.794 10.7136 119.554 10.7136C120.316 10.7136 120.958 10.4464 121.477 9.90778C122.014 9.36664 122.286 8.7247 122.286 7.96188C122.286 7.20194 122.017 6.55725 121.479 6.03619C120.939 5.49491 120.29 5.2251 119.53 5.2251L119.533 5.22757V5.22744ZM120.386 13.8843H118.858C118.076 13.8843 117.438 14.5155 117.438 15.3051V28.6704C117.76 29.0491 117.914 29.4964 117.914 30.0121C117.914 30.5277 117.763 30.9791 117.438 31.3592V32.1114H120.148C120.978 32.1114 121.649 31.4372 121.649 30.607V15.1415C121.649 14.4457 121.083 13.8818 120.384 13.8818L120.385 13.8846L120.386 13.8843ZM140.174 16.4628C138.278 14.6068 135.969 13.6775 133.25 13.6775C130.542 13.6775 128.246 14.5989 126.363 16.4495C124.48 18.2919 123.537 20.5321 123.537 23.1643C123.537 25.9563 124.459 28.281 126.306 30.1276C128.154 31.9984 130.446 32.933 133.174 32.933C135.93 32.933 138.256 32.0171 140.154 30.1826C142.033 28.332 142.978 26.0476 142.978 23.3148C142.978 20.606 142.043 18.3229 140.174 16.4629V16.4628ZM137.195 27.5799C136.212 28.6422 134.896 29.1673 133.247 29.1673C131.611 29.1673 130.298 28.6341 129.299 27.5583C128.326 26.5002 127.837 25.0552 127.837 23.2367C127.837 21.5419 128.34 20.156 129.336 19.0843C130.335 18.0099 131.638 17.474 133.25 17.474C134.881 17.474 136.199 18.0099 137.195 19.0843C138.181 20.1425 138.675 21.558 138.675 23.3282C138.675 25.1036 138.178 26.5175 137.195 27.5771V27.5826V27.5799H137.195Z" fill="#DE5959"/>
<path d="M99.6129 26.8447C98.7452 25.9664 98.2605 24.7684 98.149 23.2697H110.217C110.768 23.2697 111.222 22.8293 111.229 22.28C111.229 19.2678 110.456 16.9229 108.91 15.2253C107.348 13.5159 105.224 12.6616 102.546 12.6616C99.8922 12.6616 97.757 13.5412 96.1481 15.3006C94.5507 17.0866 93.7529 19.4166 93.7529 22.3C93.7529 25.2048 94.5783 27.5389 96.2207 29.297C97.3704 30.5202 98.7791 31.3112 100.451 31.6792C101.152 31.8442 101.879 31.9317 102.613 31.921C105.611 31.9829 108.219 32.0445 111.217 32.1063L111.222 31.6659C110.855 31.2671 110.671 30.7851 110.671 30.2263C110.671 29.6811 110.863 29.2124 111.238 28.8068L111.24 28.2737C108.877 28.2145 103.145 28.1582 102.917 28.1582C101.574 28.1582 100.47 27.7244 99.6133 26.8476V26.8449L99.6129 26.8447ZM99.0274 18.4271C99.2919 18.0132 99.6049 17.6642 99.9742 17.3714C100.346 17.0733 100.749 16.8529 101.2 16.6973C101.649 16.5415 102.13 16.4635 102.645 16.4635C104.886 16.4635 106.304 17.5837 106.894 19.8291H98.4298C98.5682 19.3052 98.7668 18.838 99.0275 18.4244V18.4271H99.0274Z" fill="#DE5959"/>
</svg>
