<svg width="343" height="680" viewBox="0 0 343 680" fill="none" xmlns="http://www.w3.org/2000/svg">
<path d="M116.403 680L116.403 536.634L0.00101335 536.634L0.00100708 680L116.403 680Z" fill="#2853EB"/>
<path d="M97.332 537L97.332 410.733L0.00128726 410.733L0.00128174 537L97.332 537Z" fill="#4F74F9"/>
<path d="M72.3418 343L72.3418 274.606L0.00137628 274.606L0.00137329 343L72.3418 343Z" fill="#3856C2"/>
<path d="M72.3418 274.972L72.3418 206.578L0.00137628 206.578L0.00137329 274.972L72.3418 274.972Z" fill="#6B55EE"/>
<path d="M73 207L73 138.605L0.00194086 138.605L0.00193787 207L73 207Z" fill="#7F96E7"/>
<path d="M78.2607 411L78.2607 342.606L0.00155939 342.606L0.0015564 411L78.2607 411Z" fill="#29C4DA"/>
<path d="M54.585 139L54.585 90.9923L0.000829888 90.9923L0.000827789 139L54.585 139Z" fill="#07AEC5"/>
<path d="M40.7744 91L40.7744 56.1451L0.000722501 56.1451L0.000720978 91L40.7744 91Z" fill="#0380A8"/>
<path d="M40.7744 57L40.7744 22.8027L0.000722473 22.8027L0.000720978 57L40.7744 57Z" fill="#2443AE"/>
<path d="M26.9648 23L26.9648 2.61315L0.00159734 2.61315L0.00159645 23L26.9648 23Z" fill="#16308C"/>
<path d="M0 679L1.19902e-07 680L343 680L343 679L0 679Z" fill="#2853EB"/>
<path d="M0 536L1.19902e-07 537L343 537L343 536L0 536Z" fill="#4F74F9"/>
<path d="M0 342L1.19902e-07 343L343 343L343 342L0 342Z" fill="#3856C2"/>
<path d="M0 206L1.19902e-07 207L343 207L343 206L0 206Z" fill="#7F96E7"/>
<path d="M0 274L1.19902e-07 275L343 275L343 274L0 274Z" fill="#6B55EE"/>
<path d="M0 410L1.19901e-07 411L343 411L343 410L0 410Z" fill="#29C4DA"/>
<path d="M0 138L1.19901e-07 139L343 139L343 138L0 138Z" fill="#07AEC5"/>
<path d="M0 90L8.93609e-08 91L343 91L343 90L0 90Z" fill="#0380A8"/>
<path d="M0 22L1.19901e-07 23L343 23L343 22L0 22Z" fill="#16308C"/>
<path d="M0 56L1.19901e-07 57L343 57L343 56L0 56Z" fill="#2443AE"/>
<path d="M135.497 659.593H138.614V668H140.742V659.593H143.859V657.818H135.497V659.593Z" fill="#030C21"/>
<path d="M147.569 668.149C149.459 668.149 150.731 667.229 151.03 665.813L149.071 665.683C148.857 666.265 148.31 666.568 147.604 666.568C146.545 666.568 145.874 665.867 145.874 664.729V664.724H151.074V664.142C151.074 661.547 149.503 660.264 147.485 660.264C145.238 660.264 143.781 661.86 143.781 664.217C143.781 666.638 145.218 668.149 147.569 668.149ZM145.874 663.411C145.919 662.541 146.58 661.845 147.52 661.845C148.439 661.845 149.076 662.501 149.081 663.411H145.874Z" fill="#030C21"/>
<path d="M154.634 668.144C155.763 668.144 156.493 667.652 156.866 666.941H156.926V668H158.934V662.849C158.934 661.03 157.393 660.264 155.693 660.264C153.863 660.264 152.66 661.139 152.367 662.531L154.326 662.69C154.47 662.183 154.922 661.81 155.683 661.81C156.404 661.81 156.816 662.173 156.816 662.8V662.83C156.816 663.322 156.294 663.386 154.967 663.516C153.456 663.655 152.098 664.162 152.098 665.867C152.098 667.379 153.177 668.144 154.634 668.144ZM155.24 666.683C154.589 666.683 154.122 666.379 154.122 665.798C154.122 665.201 154.614 664.908 155.36 664.803C155.822 664.739 156.578 664.629 156.831 664.46V665.271C156.831 666.071 156.17 666.683 155.24 666.683Z" fill="#030C21"/>
<path d="M160.578 668H162.695V663.416C162.695 662.571 163.232 662.009 163.938 662.009C164.634 662.009 165.102 662.487 165.102 663.237V668H167.155V663.337C167.155 662.546 167.607 662.009 168.378 662.009C169.054 662.009 169.561 662.432 169.561 663.282V668H171.674V662.864C171.674 661.209 170.69 660.264 169.268 660.264C168.149 660.264 167.279 660.836 166.966 661.711H166.886C166.643 660.826 165.862 660.264 164.813 660.264C163.784 660.264 163.004 660.811 162.685 661.711H162.596V660.364H160.578V668Z" fill="#030C21"/>
<path d="M304.465 670H312.723V668.594H306.638V668.492L309.578 665.347C311.828 662.937 312.493 661.812 312.493 660.361C312.493 658.341 310.857 656.73 308.556 656.73C306.261 656.73 304.516 658.29 304.516 660.591H306.025C306.025 659.102 306.99 658.111 308.505 658.111C309.924 658.111 311.01 658.98 311.01 660.361C311.01 661.569 310.301 662.464 308.786 664.119L304.465 668.85V670Z" fill="#030C21"/>
<path d="M319.966 656.909H318.38L315.108 659.082V660.693L318.304 658.571H318.38V670H319.966V656.909Z" fill="#030C21"/>
<path d="M330.404 667.546C330.404 668.977 331.299 670.179 332.961 670.179C334.597 670.179 335.492 668.977 335.492 667.546V666.855C335.492 665.423 334.623 664.222 332.961 664.222C331.324 664.222 330.404 665.423 330.404 666.855V667.546ZM323.884 660.054C323.884 661.486 324.779 662.688 326.441 662.688C328.077 662.688 328.972 661.486 328.972 660.054V659.364C328.972 657.932 328.103 656.73 326.441 656.73C324.804 656.73 323.884 657.932 323.884 659.364V660.054ZM324.37 670H325.827L334.827 656.909H333.37L324.37 670ZM331.708 666.855C331.708 666.063 332.066 665.321 332.961 665.321C333.881 665.321 334.188 666.063 334.188 666.855V667.546C334.188 668.338 333.855 669.08 332.961 669.08C332.04 669.08 331.708 668.338 331.708 667.546V666.855ZM325.188 659.364C325.188 658.571 325.546 657.83 326.441 657.83C327.361 657.83 327.668 658.571 327.668 659.364V660.054C327.668 660.847 327.336 661.588 326.441 661.588C325.52 661.588 325.188 660.847 325.188 660.054V659.364Z" fill="#030C21"/>
<path d="M135.885 525H138.037V521.699H139.847C142.189 521.699 143.551 520.302 143.551 518.269C143.551 516.245 142.214 514.818 139.902 514.818H135.885V525ZM138.037 519.974V516.578H139.489C140.732 516.578 141.334 517.254 141.334 518.269C141.334 519.278 140.732 519.974 139.499 519.974H138.037Z" fill="#030C21"/>
<path d="M144.909 525H147.027V520.68C147.027 519.74 147.713 519.094 148.648 519.094C148.941 519.094 149.344 519.144 149.543 519.208V517.329C149.354 517.284 149.091 517.254 148.877 517.254C148.022 517.254 147.321 517.751 147.042 518.696H146.963V517.364H144.909V525Z" fill="#030C21"/>
<path d="M150.638 525H152.756V517.364H150.638V525ZM151.702 516.379C152.333 516.379 152.85 515.897 152.85 515.305C152.85 514.719 152.333 514.237 151.702 514.237C151.075 514.237 150.558 514.719 150.558 515.305C150.558 515.897 151.075 516.379 151.702 516.379Z" fill="#030C21"/>
<path d="M161.572 517.364H159.33L157.749 522.827H157.669L156.083 517.364H153.846L156.516 525H158.902L161.572 517.364Z" fill="#030C21"/>
<path d="M164.614 525.144C165.743 525.144 166.474 524.652 166.847 523.941H166.906V525H168.915V519.849C168.915 518.03 167.374 517.264 165.673 517.264C163.844 517.264 162.641 518.139 162.347 519.531L164.306 519.69C164.45 519.183 164.903 518.81 165.663 518.81C166.384 518.81 166.797 519.173 166.797 519.8V519.83C166.797 520.322 166.275 520.386 164.947 520.516C163.436 520.655 162.079 521.162 162.079 522.867C162.079 524.379 163.158 525.144 164.614 525.144ZM165.221 523.683C164.57 523.683 164.102 523.379 164.102 522.798C164.102 522.201 164.594 521.908 165.34 521.803C165.803 521.739 166.558 521.629 166.812 521.46V522.271C166.812 523.071 166.151 523.683 165.221 523.683Z" fill="#030C21"/>
<path d="M174.62 517.364H173.183V515.534H171.065V517.364H170.021V518.955H171.065V522.932C171.055 524.428 172.074 525.169 173.61 525.104C174.157 525.085 174.545 524.975 174.759 524.906L174.426 523.33C174.321 523.349 174.098 523.399 173.899 523.399C173.476 523.399 173.183 523.24 173.183 522.653V518.955H174.62V517.364Z" fill="#030C21"/>
<path d="M179.397 525.149C181.287 525.149 182.559 524.229 182.858 522.813L180.899 522.683C180.685 523.265 180.138 523.568 179.432 523.568C178.373 523.568 177.702 522.867 177.702 521.729V521.724H182.902V521.142C182.902 518.547 181.331 517.264 179.313 517.264C177.066 517.264 175.609 518.86 175.609 521.217C175.609 523.638 177.046 525.149 179.397 525.149ZM177.702 520.411C177.747 519.541 178.408 518.845 179.348 518.845C180.267 518.845 180.904 519.501 180.909 520.411H177.702Z" fill="#030C21"/>
<path d="M293.633 513.909H292.048L288.775 516.082V517.693L291.971 515.571H292.048V527H293.633V513.909Z" fill="#030C21"/>
<path d="M301.591 527.179C304.206 527.179 306.028 525.651 306.04 523.523C306.028 521.867 304.922 520.461 303.509 520.199V520.122C304.736 519.803 305.542 518.601 305.555 517.207C305.542 515.213 303.867 513.73 301.591 513.73C299.29 513.73 297.616 515.213 297.628 517.207C297.616 518.601 298.421 519.803 299.674 520.122V520.199C298.236 520.461 297.13 521.867 297.143 523.523C297.13 525.651 298.952 527.179 301.591 527.179ZM301.591 525.773C299.795 525.773 298.689 524.852 298.702 523.446C298.689 521.97 299.91 520.915 301.591 520.915C303.247 520.915 304.468 521.97 304.481 523.446C304.468 524.852 303.362 525.773 301.591 525.773ZM301.591 519.56C300.16 519.56 299.15 518.665 299.162 517.31C299.15 515.98 300.121 515.111 301.591 515.111C303.036 515.111 304.008 515.98 304.02 517.31C304.008 518.665 302.998 519.56 301.591 519.56Z" fill="#030C21"/>
<path d="M309.211 527.102C309.844 527.102 310.361 526.585 310.361 525.952C310.361 525.319 309.844 524.801 309.211 524.801C308.578 524.801 308.06 525.319 308.06 525.952C308.06 526.585 308.578 527.102 309.211 527.102Z" fill="#030C21"/>
<path d="M316.87 527.179C319.363 527.179 321.191 525.338 321.191 522.832C321.191 520.295 319.427 518.435 317.023 518.435C316.141 518.435 315.285 518.748 314.748 519.176H314.671L315.131 515.315H320.603V513.909H313.802L313.009 520.352L314.492 520.531C315.036 520.141 315.962 519.86 316.768 519.867C318.436 519.879 319.657 521.145 319.657 522.858C319.657 524.539 318.481 525.773 316.87 525.773C315.528 525.773 314.46 524.91 314.339 523.727H312.805C312.901 525.722 314.62 527.179 316.87 527.179Z" fill="#030C21"/>
<path d="M330.404 524.546C330.404 525.977 331.298 527.179 332.96 527.179C334.597 527.179 335.492 525.977 335.492 524.546V523.855C335.492 522.423 334.622 521.222 332.96 521.222C331.324 521.222 330.404 522.423 330.404 523.855V524.546ZM323.884 517.054C323.884 518.486 324.779 519.688 326.441 519.688C328.077 519.688 328.972 518.486 328.972 517.054V516.364C328.972 514.932 328.102 513.73 326.441 513.73C324.804 513.73 323.884 514.932 323.884 516.364V517.054ZM324.369 527H325.827L334.827 513.909H333.369L324.369 527ZM331.708 523.855C331.708 523.063 332.066 522.321 332.96 522.321C333.881 522.321 334.188 523.063 334.188 523.855V524.546C334.188 525.338 333.855 526.08 332.96 526.08C332.04 526.08 331.708 525.338 331.708 524.546V523.855ZM325.188 516.364C325.188 515.571 325.546 514.83 326.441 514.83C327.361 514.83 327.668 515.571 327.668 516.364V517.054C327.668 517.847 327.335 518.588 326.441 518.588C325.52 518.588 325.188 517.847 325.188 517.054V516.364Z" fill="#030C21"/>
<path d="M135.885 398H142.765V396.225H138.037V393.794H142.393V392.019H138.037V389.593H142.746V387.818H135.885V398Z" fill="#030C21"/>
<path d="M147.868 398.149C149.901 398.149 151.179 396.956 151.278 395.201H149.279C149.155 396.017 148.618 396.474 147.892 396.474C146.903 396.474 146.262 395.644 146.262 394.182C146.262 392.74 146.908 391.915 147.892 391.915C148.668 391.915 149.165 392.427 149.279 393.188H151.278C151.189 391.423 149.851 390.264 147.858 390.264C145.541 390.264 144.109 391.87 144.109 394.212C144.109 396.534 145.516 398.149 147.868 398.149Z" fill="#030C21"/>
<path d="M156.084 398.149C158.401 398.149 159.843 396.563 159.843 394.212C159.843 391.845 158.401 390.264 156.084 390.264C153.768 390.264 152.326 391.845 152.326 394.212C152.326 396.563 153.768 398.149 156.084 398.149ZM156.094 396.509C155.025 396.509 154.479 395.529 154.479 394.197C154.479 392.865 155.025 391.88 156.094 391.88C157.143 391.88 157.69 392.865 157.69 394.197C157.69 395.529 157.143 396.509 156.094 396.509Z" fill="#030C21"/>
<path d="M167.574 392.541C167.385 391.134 166.251 390.264 164.322 390.264C162.368 390.264 161.081 391.169 161.086 392.641C161.081 393.784 161.802 394.525 163.293 394.823L164.616 395.087C165.282 395.221 165.585 395.465 165.595 395.847C165.585 396.3 165.093 396.623 164.352 396.623C163.596 396.623 163.094 396.3 162.965 395.678L160.882 395.788C161.081 397.249 162.324 398.149 164.347 398.149C166.326 398.149 167.743 397.14 167.748 395.634C167.743 394.53 167.022 393.869 165.54 393.566L164.158 393.287C163.447 393.133 163.184 392.889 163.189 392.521C163.184 392.064 163.701 391.766 164.357 391.766C165.093 391.766 165.53 392.169 165.635 392.661L167.574 392.541Z" fill="#030C21"/>
<path d="M170.389 400.864C171.965 400.864 172.8 400.058 173.233 398.825L176.201 390.374L173.958 390.364L172.363 395.972H172.283L170.702 390.364H168.475L171.214 398.219L171.09 398.542C170.811 399.258 170.279 399.293 169.534 399.064L169.056 400.645C169.36 400.774 169.852 400.864 170.389 400.864Z" fill="#030C21"/>
<path d="M183.638 392.541C183.449 391.134 182.316 390.264 180.387 390.264C178.433 390.264 177.145 391.169 177.15 392.641C177.145 393.784 177.866 394.525 179.358 394.823L180.68 395.087C181.346 395.221 181.649 395.465 181.659 395.847C181.649 396.3 181.157 396.623 180.417 396.623C179.661 396.623 179.159 396.3 179.029 395.678L176.946 395.788C177.145 397.249 178.388 398.149 180.412 398.149C182.39 398.149 183.807 397.14 183.812 395.634C183.807 394.53 183.086 393.869 181.605 393.566L180.223 393.287C179.512 393.133 179.248 392.889 179.253 392.521C179.248 392.064 179.765 391.766 180.422 391.766C181.157 391.766 181.595 392.169 181.699 392.661L183.638 392.541Z" fill="#030C21"/>
<path d="M189.208 390.364H187.771V388.534H185.653V390.364H184.609V391.955H185.653V395.932C185.643 397.428 186.662 398.169 188.198 398.105C188.745 398.085 189.133 397.975 189.347 397.906L189.014 396.33C188.909 396.35 188.686 396.399 188.487 396.399C188.064 396.399 187.771 396.24 187.771 395.654V391.955H189.208V390.364Z" fill="#030C21"/>
<path d="M193.985 398.149C195.874 398.149 197.147 397.23 197.445 395.813L195.487 395.683C195.273 396.265 194.726 396.568 194.02 396.568C192.961 396.568 192.29 395.867 192.29 394.729V394.724H197.49V394.142C197.49 391.547 195.919 390.264 193.901 390.264C191.654 390.264 190.197 391.86 190.197 394.217C190.197 396.638 191.634 398.149 193.985 398.149ZM192.29 393.411C192.335 392.541 192.996 391.845 193.936 391.845C194.855 391.845 195.492 392.502 195.497 393.411H192.29Z" fill="#030C21"/>
<path d="M198.872 398H200.99V393.416C200.99 392.571 201.527 392.009 202.233 392.009C202.929 392.009 203.396 392.487 203.396 393.237V398H205.45V393.337C205.45 392.546 205.902 392.009 206.673 392.009C207.349 392.009 207.856 392.432 207.856 393.282V398H209.969V392.865C209.969 391.209 208.985 390.264 207.563 390.264C206.444 390.264 205.574 390.836 205.261 391.711H205.181C204.938 390.826 204.157 390.264 203.108 390.264C202.079 390.264 201.298 390.811 200.98 391.711H200.891V390.364H198.872V398Z" fill="#030C21"/>
<path d="M141.408 323.747H143.471C143.442 321.932 141.95 320.679 139.683 320.679C137.451 320.679 135.815 321.912 135.825 323.761C135.82 325.263 136.879 326.123 138.599 326.536L139.708 326.814C140.817 327.082 141.433 327.401 141.438 328.087C141.433 328.832 140.727 329.34 139.633 329.34C138.515 329.34 137.709 328.823 137.64 327.803H135.557C135.611 330.006 137.187 331.144 139.658 331.144C142.144 331.144 143.606 329.956 143.611 328.092C143.606 326.396 142.328 325.497 140.558 325.099L139.643 324.88C138.758 324.676 138.018 324.348 138.032 323.617C138.032 322.961 138.614 322.479 139.668 322.479C140.697 322.479 141.329 322.946 141.408 323.747Z" fill="#030C21"/>
<path d="M148.499 331.149C150.388 331.149 151.661 330.23 151.959 328.813L150 328.683C149.787 329.265 149.24 329.568 148.534 329.568C147.475 329.568 146.804 328.867 146.804 327.729V327.724H152.004V327.142C152.004 324.547 150.433 323.264 148.414 323.264C146.167 323.264 144.711 324.86 144.711 327.217C144.711 329.638 146.147 331.149 148.499 331.149ZM146.804 326.411C146.848 325.541 147.51 324.845 148.449 324.845C149.369 324.845 150.005 325.502 150.01 326.411H146.804Z" fill="#030C21"/>
<path d="M156.866 331.149C158.755 331.149 160.028 330.23 160.326 328.813L158.368 328.683C158.154 329.265 157.607 329.568 156.901 329.568C155.842 329.568 155.171 328.867 155.171 327.729V327.724H160.371V327.142C160.371 324.547 158.8 323.264 156.782 323.264C154.534 323.264 153.078 324.86 153.078 327.217C153.078 329.638 154.515 331.149 156.866 331.149ZM155.171 326.411C155.216 325.541 155.877 324.845 156.816 324.845C157.736 324.845 158.373 325.502 158.377 326.411H155.171Z" fill="#030C21"/>
<path d="M164.567 331.124C165.8 331.124 166.441 330.413 166.735 329.777H166.824V331H168.912V320.818H166.799V324.646H166.735C166.451 324.025 165.84 323.264 164.562 323.264C162.887 323.264 161.47 324.567 161.47 327.192C161.47 329.747 162.827 331.124 164.567 331.124ZM165.238 329.439C164.199 329.439 163.632 328.514 163.632 327.182C163.632 325.859 164.189 324.95 165.238 324.95C166.267 324.95 166.844 325.82 166.844 327.182C166.844 328.544 166.257 329.439 165.238 329.439Z" fill="#030C21"/>
<path d="M141.408 256.747H143.471C143.442 254.932 141.95 253.679 139.683 253.679C137.451 253.679 135.815 254.912 135.825 256.761C135.82 258.263 136.879 259.123 138.599 259.536L139.708 259.814C140.817 260.082 141.433 260.401 141.438 261.087C141.433 261.832 140.727 262.34 139.633 262.34C138.515 262.34 137.709 261.823 137.64 260.803H135.557C135.611 263.006 137.187 264.144 139.658 264.144C142.144 264.144 143.606 262.956 143.611 261.092C143.606 259.396 142.328 258.497 140.558 258.099L139.643 257.88C138.758 257.676 138.018 257.348 138.032 256.617C138.032 255.961 138.614 255.479 139.668 255.479C140.697 255.479 141.329 255.946 141.408 256.747Z" fill="#030C21"/>
<path d="M149.081 256.364H147.644V254.534H145.526V256.364H144.482V257.955H145.526V261.932C145.516 263.428 146.535 264.169 148.071 264.104C148.618 264.085 149.006 263.975 149.22 263.906L148.887 262.33C148.782 262.349 148.559 262.399 148.36 262.399C147.937 262.399 147.644 262.24 147.644 261.653V257.955H149.081V256.364Z" fill="#030C21"/>
<path d="M150.46 264H152.578V259.68C152.578 258.74 153.264 258.094 154.199 258.094C154.492 258.094 154.895 258.144 155.094 258.208V256.329C154.905 256.284 154.641 256.254 154.428 256.254C153.572 256.254 152.871 256.751 152.593 257.696H152.513V256.364H150.46V264Z" fill="#030C21"/>
<path d="M158.148 264.144C159.276 264.144 160.007 263.652 160.38 262.941H160.439V264H162.448V258.849C162.448 257.03 160.907 256.264 159.206 256.264C157.377 256.264 156.174 257.139 155.881 258.531L157.839 258.69C157.983 258.183 158.436 257.81 159.197 257.81C159.917 257.81 160.33 258.173 160.33 258.8V258.83C160.33 259.322 159.808 259.386 158.481 259.516C156.969 259.655 155.612 260.162 155.612 261.867C155.612 263.379 156.691 264.144 158.148 264.144ZM158.754 262.683C158.103 262.683 157.635 262.379 157.635 261.798C157.635 261.201 158.128 260.908 158.873 260.803C159.336 260.739 160.091 260.629 160.345 260.46V261.271C160.345 262.071 159.684 262.683 158.754 262.683Z" fill="#030C21"/>
<path d="M168.153 256.364H166.716V254.534H164.598V256.364H163.554V257.955H164.598V261.932C164.588 263.428 165.607 264.169 167.144 264.104C167.691 264.085 168.078 263.975 168.292 263.906L167.959 262.33C167.855 262.349 167.631 262.399 167.432 262.399C167.009 262.399 166.716 262.24 166.716 261.653V257.955H168.153V256.364Z" fill="#030C21"/>
<path d="M172.931 264.149C174.82 264.149 176.093 263.229 176.391 261.813L174.432 261.683C174.218 262.265 173.671 262.568 172.965 262.568C171.906 262.568 171.235 261.867 171.235 260.729V260.724H176.436V260.142C176.436 257.547 174.865 256.264 172.846 256.264C170.599 256.264 169.142 257.86 169.142 260.217C169.142 262.638 170.579 264.149 172.931 264.149ZM171.235 259.411C171.28 258.541 171.941 257.845 172.881 257.845C173.801 257.845 174.437 258.501 174.442 259.411H171.235Z" fill="#030C21"/>
<path d="M181.258 267.023C183.441 267.023 184.992 266.028 184.992 264.075V256.364H182.889V257.646H182.809C182.526 257.025 181.904 256.264 180.627 256.264C178.951 256.264 177.534 257.567 177.534 260.167C177.534 262.707 178.911 263.891 180.632 263.891C181.85 263.891 182.531 263.279 182.809 262.648H182.899V264.045C182.899 265.094 182.227 265.501 181.308 265.501C180.373 265.501 179.901 265.094 179.727 264.631L177.768 264.895C178.021 266.098 179.2 267.023 181.258 267.023ZM181.303 262.3C180.264 262.3 179.697 261.474 179.697 260.157C179.697 258.859 180.254 257.95 181.303 257.95C182.332 257.95 182.909 258.82 182.909 260.157C182.909 261.504 182.322 262.3 181.303 262.3Z" fill="#030C21"/>
<path d="M186.677 264H188.795V256.364H186.677V264ZM187.741 255.379C188.372 255.379 188.889 254.897 188.889 254.305C188.889 253.719 188.372 253.237 187.741 253.237C187.115 253.237 186.597 253.719 186.597 254.305C186.597 254.897 187.115 255.379 187.741 255.379Z" fill="#030C21"/>
<path d="M193.942 264.149C195.975 264.149 197.253 262.956 197.352 261.201H195.354C195.229 262.016 194.692 262.474 193.967 262.474C192.977 262.474 192.336 261.644 192.336 260.182C192.336 258.74 192.982 257.915 193.967 257.915C194.742 257.915 195.239 258.427 195.354 259.188H197.352C197.263 257.423 195.925 256.264 193.932 256.264C191.615 256.264 190.183 257.87 190.183 260.212C190.183 262.533 191.59 264.149 193.942 264.149Z" fill="#030C21"/>
<path d="M141.408 187.747H143.471C143.442 185.932 141.95 184.679 139.683 184.679C137.451 184.679 135.815 185.912 135.825 187.761C135.82 189.263 136.879 190.123 138.599 190.536L139.708 190.814C140.817 191.082 141.433 191.401 141.438 192.087C141.433 192.832 140.727 193.34 139.633 193.34C138.515 193.34 137.709 192.823 137.64 191.803H135.557C135.611 194.006 137.187 195.144 139.658 195.144C142.144 195.144 143.606 193.956 143.611 192.092C143.606 190.396 142.328 189.497 140.558 189.099L139.643 188.88C138.758 188.676 138.018 188.348 138.032 187.617C138.032 186.961 138.614 186.479 139.668 186.479C140.697 186.479 141.329 186.946 141.408 187.747Z" fill="#030C21"/>
<path d="M149.081 187.364H147.644V185.534H145.526V187.364H144.482V188.955H145.526V192.932C145.516 194.428 146.535 195.169 148.071 195.104C148.618 195.085 149.006 194.975 149.22 194.906L148.887 193.33C148.782 193.349 148.559 193.399 148.36 193.399C147.937 193.399 147.644 193.24 147.644 192.653V188.955H149.081V187.364Z" fill="#030C21"/>
<path d="M152.638 195.144C153.766 195.144 154.497 194.652 154.87 193.941H154.93V195H156.938V189.849C156.938 188.03 155.397 187.264 153.697 187.264C151.867 187.264 150.664 188.139 150.371 189.531L152.33 189.69C152.474 189.183 152.926 188.81 153.687 188.81C154.408 188.81 154.82 189.173 154.82 189.8V189.83C154.82 190.322 154.298 190.386 152.971 190.516C151.46 190.655 150.102 191.162 150.102 192.867C150.102 194.379 151.181 195.144 152.638 195.144ZM153.244 193.683C152.593 193.683 152.126 193.379 152.126 192.798C152.126 192.201 152.618 191.908 153.364 191.803C153.826 191.739 154.582 191.629 154.835 191.46V192.271C154.835 193.071 154.174 193.683 153.244 193.683Z" fill="#030C21"/>
<path d="M158.581 195H160.699V192.574L161.271 191.923L163.354 195H165.835L162.857 190.67L165.691 187.364H163.26L160.814 190.262H160.699V184.818H158.581V195Z" fill="#030C21"/>
<path d="M166.73 195H168.848V187.364H166.73V195ZM167.794 186.379C168.425 186.379 168.942 185.897 168.942 185.305C168.942 184.719 168.425 184.237 167.794 184.237C167.167 184.237 166.65 184.719 166.65 185.305C166.65 185.897 167.167 186.379 167.794 186.379Z" fill="#030C21"/>
<path d="M172.662 190.585C172.667 189.601 173.254 189.024 174.109 189.024C174.959 189.024 175.471 189.581 175.466 190.516V195H177.584V190.138C177.584 188.358 176.54 187.264 174.949 187.264C173.816 187.264 172.995 187.821 172.652 188.711H172.563V187.364H170.544V195H172.662V190.585Z" fill="#030C21"/>
<path d="M182.694 198.023C184.876 198.023 186.427 197.028 186.427 195.075V187.364H184.324V188.646H184.245C183.961 188.025 183.34 187.264 182.062 187.264C180.387 187.264 178.97 188.567 178.97 191.167C178.97 193.707 180.347 194.891 182.067 194.891C183.285 194.891 183.966 194.279 184.245 193.648H184.334V195.045C184.334 196.094 183.663 196.501 182.743 196.501C181.809 196.501 181.336 196.094 181.162 195.631L179.203 195.895C179.457 197.098 180.635 198.023 182.694 198.023ZM182.738 193.3C181.699 193.3 181.132 192.474 181.132 191.157C181.132 189.859 181.689 188.95 182.738 188.95C183.767 188.95 184.344 189.82 184.344 191.157C184.344 192.504 183.757 193.3 182.738 193.3Z" fill="#030C21"/>
<path d="M191.393 195H193.545V191.391H195.116L197.045 195H199.422L197.259 191.043C198.417 190.546 199.059 189.536 199.059 188.144C199.059 186.121 197.721 184.818 195.41 184.818H191.393V195ZM193.545 189.661V186.578H194.997C196.24 186.578 196.841 187.13 196.841 188.144C196.841 189.153 196.24 189.661 195.007 189.661H193.545Z" fill="#030C21"/>
<path d="M203.897 195.149C205.787 195.149 207.059 194.229 207.358 192.813L205.399 192.683C205.185 193.265 204.638 193.568 203.932 193.568C202.873 193.568 202.202 192.867 202.202 191.729V191.724H207.402V191.142C207.402 188.547 205.831 187.264 203.813 187.264C201.566 187.264 200.109 188.86 200.109 191.217C200.109 193.638 201.546 195.149 203.897 195.149ZM202.202 190.411C202.247 189.541 202.908 188.845 203.848 188.845C204.767 188.845 205.404 189.501 205.409 190.411H202.202Z" fill="#030C21"/>
<path d="M210.236 195H212.473L213.786 190.198H213.88L215.193 195H217.435L219.508 187.364H217.37L216.207 192.465H216.142L214.89 187.364H212.787L211.554 192.494H211.484L210.301 187.364H208.158L210.236 195Z" fill="#030C21"/>
<path d="M222.816 195.144C223.944 195.144 224.675 194.652 225.048 193.941H225.107V195H227.116V189.849C227.116 188.03 225.575 187.264 223.874 187.264C222.045 187.264 220.842 188.139 220.548 189.531L222.507 189.69C222.651 189.183 223.104 188.81 223.865 188.81C224.585 188.81 224.998 189.173 224.998 189.8V189.83C224.998 190.322 224.476 190.386 223.149 190.516C221.637 190.655 220.28 191.162 220.28 192.867C220.28 194.379 221.359 195.144 222.816 195.144ZM223.422 193.683C222.771 193.683 222.303 193.379 222.303 192.798C222.303 192.201 222.796 191.908 223.541 191.803C224.004 191.739 224.759 191.629 225.013 191.46V192.271C225.013 193.071 224.352 193.683 223.422 193.683Z" fill="#030C21"/>
<path d="M228.759 195H230.877V190.68C230.877 189.74 231.563 189.094 232.498 189.094C232.791 189.094 233.194 189.144 233.393 189.208V187.329C233.204 187.284 232.94 187.254 232.726 187.254C231.871 187.254 231.17 187.751 230.892 188.696H230.812V187.364H228.759V195Z" fill="#030C21"/>
<path d="M236.946 195.124C238.179 195.124 238.82 194.413 239.114 193.777H239.203V195H241.291V184.818H239.178V188.646H239.114C238.83 188.025 238.219 187.264 236.941 187.264C235.266 187.264 233.849 188.567 233.849 191.192C233.849 193.747 235.206 195.124 236.946 195.124ZM237.617 193.439C236.578 193.439 236.011 192.514 236.011 191.182C236.011 189.859 236.568 188.95 237.617 188.95C238.646 188.95 239.223 189.82 239.223 191.182C239.223 192.544 238.636 193.439 237.617 193.439Z" fill="#030C21"/>
<path d="M249.386 189.541C249.197 188.134 248.064 187.264 246.135 187.264C244.181 187.264 242.893 188.169 242.898 189.641C242.893 190.784 243.614 191.525 245.106 191.823L246.428 192.087C247.094 192.221 247.398 192.465 247.407 192.847C247.398 193.3 246.905 193.623 246.165 193.623C245.409 193.623 244.907 193.3 244.778 192.678L242.694 192.788C242.893 194.249 244.136 195.149 246.16 195.149C248.138 195.149 249.555 194.14 249.56 192.634C249.555 191.53 248.834 190.869 247.353 190.565L245.971 190.287C245.26 190.133 244.996 189.889 245.001 189.521C244.996 189.064 245.513 188.766 246.17 188.766C246.905 188.766 247.343 189.168 247.447 189.661L249.386 189.541Z" fill="#030C21"/>
<path d="M135.885 128H138.037V124.391H139.608L141.537 128H143.914L141.751 124.043C142.91 123.546 143.551 122.536 143.551 121.144C143.551 119.121 142.214 117.818 139.902 117.818H135.885V128ZM138.037 122.661V119.578H139.489C140.732 119.578 141.334 120.13 141.334 121.144C141.334 122.154 140.732 122.661 139.499 122.661H138.037Z" fill="#030C21"/>
<path d="M148.39 128.149C150.279 128.149 151.551 127.23 151.85 125.813L149.891 125.683C149.677 126.265 149.13 126.568 148.424 126.568C147.365 126.568 146.694 125.867 146.694 124.729V124.724H151.895V124.142C151.895 121.547 150.324 120.264 148.305 120.264C146.058 120.264 144.601 121.86 144.601 124.217C144.601 126.638 146.038 128.149 148.39 128.149ZM146.694 123.411C146.739 122.541 147.4 121.845 148.34 121.845C149.26 121.845 149.896 122.502 149.901 123.411H146.694Z" fill="#030C21"/>
<path d="M159.63 122.541C159.441 121.134 158.308 120.264 156.379 120.264C154.425 120.264 153.137 121.169 153.142 122.641C153.137 123.784 153.858 124.525 155.35 124.823L156.672 125.087C157.338 125.221 157.642 125.465 157.652 125.847C157.642 126.3 157.15 126.623 156.409 126.623C155.653 126.623 155.151 126.3 155.022 125.678L152.939 125.788C153.137 127.249 154.38 128.149 156.404 128.149C158.382 128.149 159.799 127.14 159.804 125.634C159.799 124.53 159.078 123.869 157.597 123.566L156.215 123.287C155.504 123.133 155.24 122.889 155.245 122.521C155.24 122.064 155.757 121.766 156.414 121.766C157.15 121.766 157.587 122.169 157.691 122.661L159.63 122.541Z" fill="#030C21"/>
<path d="M164.618 128.149C166.507 128.149 167.78 127.23 168.078 125.813L166.119 125.683C165.906 126.265 165.359 126.568 164.653 126.568C163.594 126.568 162.923 125.867 162.923 124.729V124.724H168.123V124.142C168.123 121.547 166.552 120.264 164.534 120.264C162.286 120.264 160.83 121.86 160.83 124.217C160.83 126.638 162.267 128.149 164.618 128.149ZM162.923 123.411C162.968 122.541 163.629 121.845 164.568 121.845C165.488 121.845 166.124 122.502 166.129 123.411H162.923Z" fill="#030C21"/>
<path d="M169.505 128H171.623V123.68C171.623 122.74 172.309 122.094 173.244 122.094C173.537 122.094 173.94 122.144 174.139 122.208V120.329C173.95 120.284 173.686 120.254 173.472 120.254C172.617 120.254 171.916 120.752 171.638 121.696H171.558V120.364H169.505V128Z" fill="#030C21"/>
<path d="M182.585 120.364H180.343L178.762 125.828H178.683L177.097 120.364H174.86L177.529 128H179.916L182.585 120.364Z" fill="#030C21"/>
<path d="M186.89 128.149C188.779 128.149 190.051 127.23 190.35 125.813L188.391 125.683C188.177 126.265 187.63 126.568 186.924 126.568C185.865 126.568 185.194 125.867 185.194 124.729V124.724H190.395V124.142C190.395 121.547 188.824 120.264 186.805 120.264C184.558 120.264 183.101 121.86 183.101 124.217C183.101 126.638 184.538 128.149 186.89 128.149ZM185.194 123.411C185.239 122.541 185.9 121.845 186.84 121.845C187.76 121.845 188.396 122.502 188.401 123.411H185.194Z" fill="#030C21"/>
<path d="M135.885 80.0002H142.403V78.2253H138.037V69.8184H135.885V80.0002Z" fill="#030C21"/>
<path d="M143.788 80.0002H145.906V72.3638H143.788V80.0002ZM144.852 71.3794C145.484 71.3794 146.001 70.8972 146.001 70.3056C146.001 69.7189 145.484 69.2367 144.852 69.2367C144.226 69.2367 143.709 69.7189 143.709 70.3056C143.709 70.8972 144.226 71.3794 144.852 71.3794Z" fill="#030C21"/>
<path d="M154.767 82.8638V72.3638H152.679V73.6465H152.584C152.301 73.025 151.689 72.2644 150.412 72.2644C148.736 72.2644 147.319 73.5669 147.319 76.1919C147.319 78.7473 148.677 80.1245 150.417 80.1245C151.65 80.1245 152.291 79.4135 152.584 78.7772H152.649V82.8638H154.767ZM152.694 76.182C152.694 77.5442 152.107 78.4391 151.088 78.4391C150.049 78.4391 149.482 77.5144 149.482 76.182C149.482 74.8596 150.039 73.9498 151.088 73.9498C152.117 73.9498 152.694 74.8198 152.694 76.182Z" fill="#030C21"/>
<path d="M161.359 76.7488C161.364 77.7729 160.663 78.3098 159.903 78.3098C159.102 78.3098 158.585 77.748 158.58 76.8482V72.3638H156.462V77.226C156.467 79.0108 157.511 80.0996 159.047 80.0996C160.196 80.0996 161.021 79.508 161.364 78.6131H161.444V80.0002H163.477V72.3638H161.359V76.7488Z" fill="#030C21"/>
<path d="M165.171 80.0002H167.289V72.3638H165.171V80.0002ZM166.235 71.3794C166.866 71.3794 167.384 70.8972 167.384 70.3056C167.384 69.7189 166.866 69.2367 166.235 69.2367C165.609 69.2367 165.092 69.7189 165.092 70.3056C165.092 70.8972 165.609 71.3794 166.235 71.3794Z" fill="#030C21"/>
<path d="M171.8 80.1245C173.032 80.1245 173.674 79.4135 173.967 78.7772H174.057V80.0002H176.145V69.8184H174.032V73.6465H173.967C173.684 73.025 173.072 72.2644 171.795 72.2644C170.119 72.2644 168.702 73.5669 168.702 76.1919C168.702 78.7473 170.059 80.1245 171.8 80.1245ZM172.471 78.4391C171.432 78.4391 170.865 77.5144 170.865 76.182C170.865 74.8596 171.422 73.9498 172.471 73.9498C173.5 73.9498 174.077 74.8198 174.077 76.182C174.077 77.5442 173.49 78.4391 172.471 78.4391Z" fill="#030C21"/>
<path d="M177.886 80.0002H180.004V72.3638H177.886V80.0002ZM178.95 71.3794C179.581 71.3794 180.098 70.8972 180.098 70.3056C180.098 69.7189 179.581 69.2367 178.95 69.2367C178.324 69.2367 177.806 69.7189 177.806 70.3056C177.806 70.8972 178.324 71.3794 178.95 71.3794Z" fill="#030C21"/>
<path d="M185.762 72.3638H184.325V70.5343H182.208V72.3638H181.164V73.9547H182.208V77.932C182.198 79.4284 183.217 80.1692 184.753 80.1046C185.3 80.0847 185.688 79.9753 185.901 79.9057L185.568 78.3297C185.464 78.3496 185.24 78.3993 185.041 78.3993C184.619 78.3993 184.325 78.2402 184.325 77.6536V73.9547H185.762V72.3638Z" fill="#030C21"/>
<path d="M188.449 82.8638C190.025 82.8638 190.861 82.0584 191.293 80.8255L194.261 72.3738L192.019 72.3638L190.423 77.9718H190.344L188.763 72.3638H186.535L189.275 80.2189L189.15 80.5421C188.872 81.258 188.34 81.2928 187.594 81.0641L187.117 82.6451C187.42 82.7743 187.912 82.8638 188.449 82.8638Z" fill="#030C21"/>
<path d="M199.053 75.9185C199.053 78.3894 199.704 80.4426 201.061 82.2125H203.085C202.045 80.9 201.255 78.275 201.255 75.9185C201.255 73.5669 202.045 70.9419 203.085 69.6294H201.061C199.704 71.3993 199.053 73.4476 199.053 75.9185Z" fill="#030C21"/>
<path d="M204.354 69.8184V80.0002H206.442V73.3482H206.526L209.161 79.9505H210.583L213.218 73.373H213.302V80.0002H215.39V69.8184H212.736L209.932 76.6593H209.812L207.008 69.8184H204.354Z" fill="#030C21"/>
<path d="M217.164 69.8184V80.0002H219.252V73.3482H219.337L221.972 79.9505H223.393L226.028 73.373H226.113V80.0002H228.201V69.8184H225.546L222.742 76.6593H222.623L219.819 69.8184H217.164Z" fill="#030C21"/>
<path d="M233.504 74.9093C233.504 72.4384 232.853 70.3851 231.496 68.6152H229.472C230.512 69.9277 231.302 72.5527 231.302 74.9093C231.302 77.2608 230.512 79.8858 229.472 81.1983H231.496C232.853 79.4284 233.504 77.3801 233.504 74.9093Z" fill="#030C21"/>
<path d="M135.885 45.0001H138.037V41.6989H139.847C142.189 41.6989 143.551 40.3019 143.551 38.2685C143.551 36.2451 142.214 34.8182 139.902 34.8182H135.885V45.0001ZM138.037 39.9738V36.5782H139.489C140.732 36.5782 141.334 37.2543 141.334 38.2685C141.334 39.2778 140.732 39.9738 139.499 39.9738H138.037Z" fill="#030C21"/>
<path d="M149.806 41.7486C149.811 42.7728 149.11 43.3097 148.35 43.3097C147.549 43.3097 147.032 42.7479 147.027 41.8481V37.3637H144.909V42.2259C144.914 44.0107 145.958 45.0995 147.495 45.0995C148.643 45.0995 149.468 44.5079 149.811 43.613H149.891V45.0001H151.924V37.3637H149.806V41.7486Z" fill="#030C21"/>
<path d="M153.658 45.0001H155.746V43.7771H155.841C156.134 44.4134 156.775 45.1244 158.008 45.1244C159.748 45.1244 161.106 43.7472 161.106 41.1918C161.106 38.5668 159.689 37.2643 158.013 37.2643C156.736 37.2643 156.124 38.0249 155.841 38.6464H155.776V34.8182H153.658V45.0001ZM155.731 41.1819C155.731 39.8197 156.308 38.9496 157.337 38.9496C158.386 38.9496 158.943 39.8594 158.943 41.1819C158.943 42.5143 158.376 43.439 157.337 43.439C156.318 43.439 155.731 42.5441 155.731 41.1819Z" fill="#030C21"/>
<path d="M164.637 34.8182H162.519V45.0001H164.637V34.8182Z" fill="#030C21"/>
<path d="M166.333 45.0001H168.451V37.3637H166.333V45.0001ZM167.397 36.3793C168.029 36.3793 168.546 35.8971 168.546 35.3055C168.546 34.7188 168.029 34.2366 167.397 34.2366C166.771 34.2366 166.254 34.7188 166.254 35.3055C166.254 35.8971 166.771 36.3793 167.397 36.3793Z" fill="#030C21"/>
<path d="M173.598 45.1492C175.631 45.1492 176.909 43.956 177.009 42.2011H175.01C174.886 43.0164 174.349 43.4738 173.623 43.4738C172.634 43.4738 171.992 42.6435 171.992 41.1819C171.992 39.7401 172.638 38.9148 173.623 38.9148C174.398 38.9148 174.896 39.4269 175.01 40.1876H177.009C176.919 38.4227 175.582 37.2643 173.588 37.2643C171.271 37.2643 169.839 38.8701 169.839 41.2117C169.839 43.5334 171.246 45.1492 173.598 45.1492Z" fill="#030C21"/>
<path d="M137.64 12.0001L138.396 9.67833H142.07L142.825 12.0001H145.132L141.622 1.81825H138.848L135.333 12.0001H137.64ZM138.942 7.99794L140.195 4.14495H140.275L141.528 7.99794H138.942Z" fill="#030C21"/>
<path d="M148.776 12.1244C150.009 12.1244 150.65 11.4134 150.944 10.7771H151.033V12.0001H153.121V1.81825H151.008V5.64637H150.944C150.66 5.02493 150.049 4.26427 148.771 4.26427C147.096 4.26427 145.679 5.56683 145.679 8.19183C145.679 10.7472 147.036 12.1244 148.776 12.1244ZM149.447 10.439C148.408 10.439 147.842 9.51427 147.842 8.18188C147.842 6.85944 148.398 5.94964 149.447 5.94964C150.476 5.94964 151.053 6.81967 151.053 8.18188C151.053 9.5441 150.467 10.439 149.447 10.439Z" fill="#030C21"/>
<path d="M161.982 4.3637H159.74L158.159 9.82748H158.079L156.493 4.3637H154.256L156.926 12.0001H159.312L161.982 4.3637Z" fill="#030C21"/>
<path d="M163.066 12.0001H165.184V4.3637H163.066V12.0001ZM164.13 3.37933C164.761 3.37933 165.278 2.89708 165.278 2.30546C165.278 1.71882 164.761 1.23657 164.13 1.23657C163.503 1.23657 162.986 1.71882 162.986 2.30546C162.986 2.89708 163.503 3.37933 164.13 3.37933Z" fill="#030C21"/>
<path d="M173.234 6.54126C173.045 5.1343 171.911 4.26427 169.983 4.26427C168.029 4.26427 166.741 5.1691 166.746 6.64069C166.741 7.78416 167.462 8.52492 168.953 8.82322L170.276 9.08671C170.942 9.22095 171.245 9.46456 171.255 9.84737C171.245 10.2998 170.753 10.6229 170.012 10.6229C169.257 10.6229 168.755 10.2998 168.625 9.67833L166.542 9.78771C166.741 11.2494 167.984 12.1492 170.007 12.1492C171.986 12.1492 173.403 11.14 173.408 9.63359C173.403 8.5299 172.682 7.86867 171.201 7.56541L169.818 7.287C169.108 7.13288 168.844 6.88927 168.849 6.52137C168.844 6.06399 169.361 5.76569 170.017 5.76569C170.753 5.76569 171.191 6.16839 171.295 6.66058L173.234 6.54126Z" fill="#030C21"/>
<path d="M178.192 12.1492C180.509 12.1492 181.95 10.5633 181.95 8.21171C181.95 5.84524 180.509 4.26427 178.192 4.26427C175.875 4.26427 174.433 5.84524 174.433 8.21171C174.433 10.5633 175.875 12.1492 178.192 12.1492ZM178.202 10.5086C177.133 10.5086 176.586 9.52919 176.586 8.1968C176.586 6.86441 177.133 5.88004 178.202 5.88004C179.251 5.88004 179.798 6.86441 179.798 8.1968C179.798 9.52919 179.251 10.5086 178.202 10.5086Z" fill="#030C21"/>
<path d="M183.328 12.0001H185.445V7.67975C185.445 6.74012 186.131 6.09382 187.066 6.09382C187.359 6.09382 187.762 6.14353 187.961 6.20816V4.3289C187.772 4.28416 187.509 4.25433 187.295 4.25433C186.44 4.25433 185.739 4.75149 185.46 5.69609H185.381V4.3637H183.328V12.0001Z" fill="#030C21"/>
<path d="M195.41 6.54126C195.221 5.1343 194.087 4.26427 192.158 4.26427C190.204 4.26427 188.917 5.1691 188.922 6.64069C188.917 7.78416 189.638 8.52492 191.129 8.82322L192.452 9.08671C193.118 9.22095 193.421 9.46456 193.431 9.84737C193.421 10.2998 192.929 10.6229 192.188 10.6229C191.432 10.6229 190.93 10.2998 190.801 9.67833L188.718 9.78771C188.917 11.2494 190.16 12.1492 192.183 12.1492C194.162 12.1492 195.579 11.14 195.584 9.63359C195.579 8.5299 194.858 7.86867 193.376 7.56541L191.994 7.287C191.283 7.13288 191.02 6.88927 191.025 6.52137C191.02 6.06399 191.537 5.76569 192.193 5.76569C192.929 5.76569 193.366 6.16839 193.471 6.66058L195.41 6.54126Z" fill="#030C21"/>
<path d="M293.528 386.909H291.943L288.67 389.082V390.693L291.866 388.571H291.943V400H293.528V386.909Z" fill="#030C21"/>
<path d="M301.563 400.179C304.452 400.179 306.114 397.731 306.114 393.455C306.114 389.21 304.426 386.73 301.563 386.73C298.699 386.73 297.012 389.21 297.012 393.455C297.012 397.731 298.673 400.179 301.563 400.179ZM301.563 398.773C299.658 398.773 298.546 396.862 298.546 393.455C298.546 390.054 299.671 388.111 301.563 388.111C303.455 388.111 304.58 390.054 304.58 393.455C304.58 396.862 303.468 398.773 301.563 398.773Z" fill="#030C21"/>
<path d="M309.211 400.102C309.844 400.102 310.361 399.585 310.361 398.952C310.361 398.319 309.844 397.801 309.211 397.801C308.578 397.801 308.06 398.319 308.06 398.952C308.06 399.585 308.578 400.102 309.211 400.102Z" fill="#030C21"/>
<path d="M316.87 400.179C319.363 400.179 321.191 398.338 321.191 395.832C321.191 393.295 319.427 391.435 317.023 391.435C316.141 391.435 315.285 391.748 314.748 392.176H314.671L315.131 388.315H320.603V386.909H313.802L313.009 393.352L314.492 393.531C315.036 393.141 315.962 392.86 316.768 392.867C318.436 392.879 319.657 394.145 319.657 395.858C319.657 397.539 318.481 398.773 316.87 398.773C315.528 398.773 314.46 397.91 314.339 396.727H312.805C312.901 398.722 314.62 400.179 316.87 400.179Z" fill="#030C21"/>
<path d="M330.404 397.546C330.404 398.977 331.298 400.179 332.96 400.179C334.597 400.179 335.492 398.977 335.492 397.546V396.855C335.492 395.423 334.622 394.222 332.96 394.222C331.324 394.222 330.404 395.423 330.404 396.855V397.546ZM323.884 390.054C323.884 391.486 324.779 392.688 326.441 392.688C328.077 392.688 328.972 391.486 328.972 390.054V389.364C328.972 387.932 328.102 386.73 326.441 386.73C324.804 386.73 323.884 387.932 323.884 389.364V390.054ZM324.369 400H325.827L334.827 386.909H333.369L324.369 400ZM331.708 396.855C331.708 396.063 332.066 395.321 332.96 395.321C333.881 395.321 334.188 396.063 334.188 396.855V397.546C334.188 398.338 333.855 399.08 332.96 399.08C332.04 399.08 331.708 398.338 331.708 397.546V396.855ZM325.188 389.364C325.188 388.571 325.546 387.83 326.441 387.83C327.361 387.83 327.668 388.571 327.668 389.364V390.054C327.668 390.847 327.335 391.588 326.441 391.588C325.52 391.588 325.188 390.847 325.188 390.054V389.364Z" fill="#030C21"/>
<path d="M308.715 319.909H307.13L303.857 322.082V323.693L307.053 321.571H307.13V333H308.715V319.909Z" fill="#030C21"/>
<path d="M316.75 333.179C319.639 333.179 321.301 330.731 321.301 326.455C321.301 322.21 319.614 319.73 316.75 319.73C313.887 319.73 312.199 322.21 312.199 326.455C312.199 330.731 313.861 333.179 316.75 333.179ZM316.75 331.773C314.845 331.773 313.733 329.862 313.733 326.455C313.733 323.054 314.858 321.111 316.75 321.111C318.642 321.111 319.767 323.054 319.767 326.455C319.767 329.862 318.655 331.773 316.75 331.773Z" fill="#030C21"/>
<path d="M330.404 330.546C330.404 331.977 331.298 333.179 332.96 333.179C334.597 333.179 335.492 331.977 335.492 330.546V329.855C335.492 328.423 334.622 327.222 332.96 327.222C331.324 327.222 330.404 328.423 330.404 329.855V330.546ZM323.884 323.054C323.884 324.486 324.779 325.688 326.441 325.688C328.077 325.688 328.972 324.486 328.972 323.054V322.364C328.972 320.932 328.102 319.73 326.441 319.73C324.804 319.73 323.884 320.932 323.884 322.364V323.054ZM324.369 333H325.827L334.827 319.909H333.369L324.369 333ZM331.708 329.855C331.708 329.063 332.066 328.321 332.96 328.321C333.881 328.321 334.188 329.063 334.188 329.855V330.546C334.188 331.338 333.855 332.08 332.96 332.08C332.04 332.08 331.708 331.338 331.708 330.546V329.855ZM325.188 322.364C325.188 321.571 325.546 320.83 326.441 320.83C327.361 320.83 327.668 321.571 327.668 322.364V323.054C327.668 323.847 327.335 324.588 326.441 324.588C325.52 324.588 325.188 323.847 325.188 323.054V322.364Z" fill="#030C21"/>
<path d="M308.715 252.909H307.13L303.857 255.082V256.693L307.053 254.571H307.13V266H308.715V252.909Z" fill="#030C21"/>
<path d="M316.75 266.179C319.639 266.179 321.301 263.731 321.301 259.455C321.301 255.21 319.614 252.73 316.75 252.73C313.887 252.73 312.199 255.21 312.199 259.455C312.199 263.731 313.861 266.179 316.75 266.179ZM316.75 264.773C314.845 264.773 313.733 262.862 313.733 259.455C313.733 256.054 314.858 254.111 316.75 254.111C318.642 254.111 319.767 256.054 319.767 259.455C319.767 262.862 318.655 264.773 316.75 264.773Z" fill="#030C21"/>
<path d="M330.404 263.546C330.404 264.977 331.298 266.179 332.96 266.179C334.597 266.179 335.492 264.977 335.492 263.546V262.855C335.492 261.423 334.622 260.222 332.96 260.222C331.324 260.222 330.404 261.423 330.404 262.855V263.546ZM323.884 256.054C323.884 257.486 324.779 258.688 326.441 258.688C328.077 258.688 328.972 257.486 328.972 256.054V255.364C328.972 253.932 328.102 252.73 326.441 252.73C324.804 252.73 323.884 253.932 323.884 255.364V256.054ZM324.369 266H325.827L334.827 252.909H333.369L324.369 266ZM331.708 262.855C331.708 262.063 332.066 261.321 332.96 261.321C333.881 261.321 334.188 262.063 334.188 262.855V263.546C334.188 264.338 333.855 265.08 332.96 265.08C332.04 265.08 331.708 264.338 331.708 263.546V262.855ZM325.188 255.364C325.188 254.571 325.546 253.83 326.441 253.83C327.361 253.83 327.668 254.571 327.668 255.364V256.054C327.668 256.847 327.335 257.588 326.441 257.588C325.52 257.588 325.188 256.847 325.188 256.054V255.364Z" fill="#030C21"/>
<path d="M308.715 183.909H307.13L303.857 186.082V187.693L307.053 185.571H307.13V197H308.715V183.909Z" fill="#030C21"/>
<path d="M316.75 197.179C319.639 197.179 321.301 194.731 321.301 190.455C321.301 186.21 319.614 183.73 316.75 183.73C313.887 183.73 312.199 186.21 312.199 190.455C312.199 194.731 313.861 197.179 316.75 197.179ZM316.75 195.773C314.845 195.773 313.733 193.862 313.733 190.455C313.733 187.054 314.858 185.111 316.75 185.111C318.642 185.111 319.767 187.054 319.767 190.455C319.767 193.862 318.655 195.773 316.75 195.773Z" fill="#030C21"/>
<path d="M330.404 194.546C330.404 195.977 331.298 197.179 332.96 197.179C334.597 197.179 335.492 195.977 335.492 194.546V193.855C335.492 192.423 334.622 191.222 332.96 191.222C331.324 191.222 330.404 192.423 330.404 193.855V194.546ZM323.884 187.054C323.884 188.486 324.779 189.688 326.441 189.688C328.077 189.688 328.972 188.486 328.972 187.054V186.364C328.972 184.932 328.102 183.73 326.441 183.73C324.804 183.73 323.884 184.932 323.884 186.364V187.054ZM324.369 197H325.827L334.827 183.909H333.369L324.369 197ZM331.708 193.855C331.708 193.063 332.066 192.321 332.96 192.321C333.881 192.321 334.188 193.063 334.188 193.855V194.546C334.188 195.338 333.855 196.08 332.96 196.08C332.04 196.08 331.708 195.338 331.708 194.546V193.855ZM325.188 186.364C325.188 185.571 325.546 184.83 326.441 184.83C327.361 184.83 327.668 185.571 327.668 186.364V187.054C327.668 187.847 327.335 188.588 326.441 188.588C325.52 188.588 325.188 187.847 325.188 187.054V186.364Z" fill="#030C21"/>
<path d="M313.856 130H315.518L321.347 118.392V116.909H312.961V118.315H319.711V118.418L313.856 130Z" fill="#030C21"/>
<path d="M330.403 127.546C330.403 128.977 331.298 130.179 332.96 130.179C334.596 130.179 335.491 128.977 335.491 127.546V126.855C335.491 125.423 334.622 124.222 332.96 124.222C331.324 124.222 330.403 125.423 330.403 126.855V127.546ZM323.883 120.054C323.883 121.486 324.778 122.688 326.44 122.688C328.077 122.688 328.971 121.486 328.971 120.054V119.364C328.971 117.932 328.102 116.73 326.44 116.73C324.804 116.73 323.883 117.932 323.883 119.364V120.054ZM324.369 130H325.827L334.827 116.909H333.369L324.369 130ZM331.707 126.855C331.707 126.063 332.065 125.321 332.96 125.321C333.881 125.321 334.187 126.063 334.187 126.855V127.546C334.187 128.338 333.855 129.08 332.96 129.08C332.04 129.08 331.707 128.338 331.707 127.546V126.855ZM325.187 119.364C325.187 118.571 325.545 117.83 326.44 117.83C327.361 117.83 327.667 118.571 327.667 119.364V120.054C327.667 120.847 327.335 121.588 326.44 121.588C325.52 121.588 325.187 120.847 325.187 120.054V119.364Z" fill="#030C21"/>
<path d="M316.87 82.1791C319.363 82.1791 321.191 80.3382 321.191 77.8325C321.191 75.2949 319.427 73.4348 317.023 73.4348C316.141 73.4348 315.285 73.748 314.748 74.1762H314.671L315.131 70.3155H320.603V68.9092H313.802L313.009 75.3524L314.492 75.5314C315.036 75.1414 315.962 74.8602 316.768 74.8666C318.436 74.8794 319.657 76.145 319.657 77.8581C319.657 79.5392 318.481 80.7728 316.87 80.7728C315.528 80.7728 314.46 79.9099 314.339 78.7274H312.805C312.901 80.7217 314.62 82.1791 316.87 82.1791Z" fill="#030C21"/>
<path d="M330.404 79.5456C330.404 80.9774 331.298 82.1791 332.96 82.1791C334.597 82.1791 335.492 80.9774 335.492 79.5456V78.8552C335.492 77.4234 334.622 76.2217 332.96 76.2217C331.324 76.2217 330.404 77.4234 330.404 78.8552V79.5456ZM323.884 72.0541C323.884 73.4859 324.779 74.6876 326.441 74.6876C328.077 74.6876 328.972 73.4859 328.972 72.0541V71.3637C328.972 69.9319 328.102 68.7302 326.441 68.7302C324.804 68.7302 323.884 69.9319 323.884 71.3637V72.0541ZM324.369 82.0001H325.827L334.827 68.9092H333.369L324.369 82.0001ZM331.708 78.8552C331.708 78.0626 332.066 77.3211 332.96 77.3211C333.881 77.3211 334.188 78.0626 334.188 78.8552V79.5456C334.188 80.3382 333.855 81.0797 332.96 81.0797C332.04 81.0797 331.708 80.3382 331.708 79.5456V78.8552ZM325.188 71.3637C325.188 70.5711 325.546 69.8297 326.441 69.8297C327.361 69.8297 327.668 70.5711 327.668 71.3637V72.0541C327.668 72.8467 327.335 73.5882 326.441 73.5882C325.52 73.5882 325.188 72.8467 325.188 72.0541V71.3637Z" fill="#030C21"/>
<path d="M316.87 47.1791C319.363 47.1791 321.191 45.3382 321.191 42.8325C321.191 40.2949 319.427 38.4348 317.023 38.4348C316.141 38.4348 315.285 38.748 314.748 39.1762H314.671L315.131 35.3155H320.603V33.9092H313.802L313.009 40.3524L314.492 40.5314C315.036 40.1414 315.962 39.8602 316.768 39.8666C318.436 39.8794 319.657 41.145 319.657 42.8581C319.657 44.5392 318.481 45.7728 316.87 45.7728C315.528 45.7728 314.46 44.9099 314.339 43.7274H312.805C312.901 45.7217 314.62 47.1791 316.87 47.1791Z" fill="#030C21"/>
<path d="M330.404 44.5456C330.404 45.9774 331.298 47.1791 332.96 47.1791C334.597 47.1791 335.492 45.9774 335.492 44.5456V43.8552C335.492 42.4234 334.622 41.2217 332.96 41.2217C331.324 41.2217 330.404 42.4234 330.404 43.8552V44.5456ZM323.884 37.0541C323.884 38.4859 324.779 39.6876 326.441 39.6876C328.077 39.6876 328.972 38.4859 328.972 37.0541V36.3637C328.972 34.9319 328.102 33.7302 326.441 33.7302C324.804 33.7302 323.884 34.9319 323.884 36.3637V37.0541ZM324.369 47.0001H325.827L334.827 33.9092H333.369L324.369 47.0001ZM331.708 43.8552C331.708 43.0626 332.066 42.3211 332.96 42.3211C333.881 42.3211 334.188 43.0626 334.188 43.8552V44.5456C334.188 45.3382 333.855 46.0797 332.96 46.0797C332.04 46.0797 331.708 45.3382 331.708 44.5456V43.8552ZM325.188 36.3637C325.188 35.5711 325.546 34.8297 326.441 34.8297C327.361 34.8297 327.668 35.5711 327.668 36.3637V37.0541C327.668 37.8467 327.335 38.5882 326.441 38.5882C325.52 38.5882 325.188 37.8467 325.188 37.0541V36.3637Z" fill="#030C21"/>
<path d="M316.693 14.1791C319.231 14.1791 321.116 12.5875 321.116 10.4461C321.116 8.7842 320.132 7.57611 318.483 7.30125V7.19898C319.806 6.79628 320.631 5.70963 320.631 4.23307C320.631 2.37937 319.167 0.730225 316.744 0.730225C314.481 0.730225 312.602 2.12369 312.525 4.18193H314.059C314.117 2.87795 315.357 2.11091 316.719 2.11091C318.163 2.11091 319.096 2.98662 319.096 4.30977C319.096 5.69045 318.016 6.58534 316.463 6.58534H315.415V7.99159H316.463C318.451 7.99159 319.557 9.00153 319.557 10.4461C319.557 11.8332 318.349 12.7728 316.667 12.7728C315.153 12.7728 313.951 11.993 313.855 10.7274H312.244C312.34 12.7856 314.155 14.1791 316.693 14.1791Z" fill="#030C21"/>
<path d="M330.404 11.5456C330.404 12.9774 331.299 14.1791 332.961 14.1791C334.597 14.1791 335.492 12.9774 335.492 11.5456V10.8552C335.492 9.42341 334.623 8.2217 332.961 8.2217C331.324 8.2217 330.404 9.42341 330.404 10.8552V11.5456ZM323.884 4.05409C323.884 5.48591 324.779 6.68761 326.441 6.68761C328.077 6.68761 328.972 5.48591 328.972 4.05409V3.36375C328.972 1.93193 328.103 0.730225 326.441 0.730225C324.805 0.730225 323.884 1.93193 323.884 3.36375V4.05409ZM324.37 14.0001H325.827L334.827 0.909202H333.37L324.37 14.0001ZM331.708 10.8552C331.708 10.0626 332.066 9.32113 332.961 9.32113C333.881 9.32113 334.188 10.0626 334.188 10.8552V11.5456C334.188 12.3382 333.856 13.0797 332.961 13.0797C332.04 13.0797 331.708 12.3382 331.708 11.5456V10.8552ZM325.188 3.36375C325.188 2.57113 325.546 1.82966 326.441 1.82966C327.361 1.82966 327.668 2.57113 327.668 3.36375V4.05409C327.668 4.8467 327.336 5.58818 326.441 5.58818C325.52 5.58818 325.188 4.8467 325.188 4.05409V3.36375Z" fill="#030C21"/>
</svg>
