<svg width="289" height="822" viewBox="0 0 289 822" fill="none" xmlns="http://www.w3.org/2000/svg">
<g clip-path="url(#clip0)">
<path d="M56.751 114.009C56.6441 114.009 56.5586 113.924 56.5586 113.817C56.5586 113.71 56.6441 113.624 56.751 113.624C56.8578 113.624 56.9433 113.71 56.9433 113.817C56.9219 113.945 56.8365 114.009 56.751 114.009C56.8578 114.009 56.9433 113.924 56.9433 113.817C56.9433 113.71 56.8578 113.624 56.751 113.624C56.6441 113.624 56.5586 113.71 56.5586 113.817C56.5586 113.945 56.6441 114.009 56.751 114.009Z" fill="black"/>
<path d="M56.751 114.009C56.6441 114.009 56.5586 113.924 56.5586 113.817C56.5586 113.71 56.6441 113.624 56.751 113.624C56.8578 113.624 56.9433 113.71 56.9433 113.817C56.9219 113.945 56.8365 114.009 56.751 114.009ZM56.751 114.009C56.8578 114.009 56.9433 113.924 56.9433 113.817C56.9433 113.71 56.8578 113.624 56.751 113.624C56.6441 113.624 56.5586 113.71 56.5586 113.817C56.5586 113.945 56.6441 114.009 56.751 114.009Z" stroke="black" stroke-width="0.5" stroke-miterlimit="10"/>
<path d="M143.914 139.743L100.738 6.88218C115.422 2.11576 128.482 0.0424805 143.914 0.0424805V139.743Z" fill="#7F96E7"/>
<path fill-rule="evenodd" clip-rule="evenodd" d="M101.352 7.19606L143.429 136.676V0.530286C128.421 0.573018 115.646 2.60099 101.352 7.19606ZM100.589 6.42082C115.322 1.63872 128.432 -0.442627 143.915 -0.442627H144.401V139.744L143.453 139.895L100.127 6.57095L100.589 6.42082Z" fill="#E9ECF9"/>
<path d="M143.979 140.085L100.675 6.86107L100.718 6.83969C115.466 2.05191 128.397 0 143.893 0H143.936V140.085H143.979ZM100.803 6.92519L143.85 139.423V0.10687C128.397 0.10687 115.508 2.15878 100.803 6.92519Z" fill="#7F96E7"/>
<path fill-rule="evenodd" clip-rule="evenodd" d="M101.416 7.2383L143.364 136.354V0.59369C128.339 0.635933 115.727 2.64342 101.416 7.2383ZM144.422 139.877V-0.486084H143.893C128.346 -0.486084 115.364 1.57388 100.567 6.37737L100.533 6.38862L100.083 6.61342L143.45 140.031V140.572H144.648L144.422 139.877Z" fill="#E9ECF9"/>
<path d="M143.914 139.743L61.7949 26.7384C74.2774 17.6545 86.0758 11.6484 100.738 6.88196L143.914 139.743Z" fill="#29C4DA"/>
<path fill-rule="evenodd" clip-rule="evenodd" d="M101.052 6.27051L144.378 139.594L143.522 140.03L61.1177 26.6324L61.5105 26.3465C74.0344 17.2324 85.8787 11.203 100.59 6.4208L101.052 6.27051ZM62.4757 26.8474L142.505 136.976L100.428 7.49635C86.1812 12.1725 74.6403 18.0478 62.4757 26.8474Z" fill="#E9ECF9"/>
<path d="M144.064 140.064L143.871 139.786L61.731 26.7176L61.7737 26.6962C74.3203 17.5695 85.9691 11.6275 100.739 6.83973L100.781 6.81836L100.803 6.86111L144.064 140.064ZM61.8806 26.739L143.765 139.444L100.717 6.96798C86.0119 11.7344 74.3844 17.655 61.8806 26.739Z" fill="#29C4DA"/>
<path fill-rule="evenodd" clip-rule="evenodd" d="M100.999 6.16614L101.254 6.67627L144.527 139.914L143.665 140.341L143.479 140.072L143.472 140.063L61.001 26.5393L61.5207 26.2794C74.0863 17.1432 85.7652 11.1861 100.554 6.38858L100.999 6.16614ZM142.354 136.675L100.406 7.5808C86.1206 12.2552 74.7426 18.0487 62.5604 26.8471L142.354 136.675Z" fill="#E9ECF9"/>
<path d="M143.914 139.743L20.5645 74.1674C30.7171 55.1018 44.311 39.4346 61.795 26.7384L143.914 139.743Z" fill="#07AEC5"/>
<path fill-rule="evenodd" clip-rule="evenodd" d="M61.904 26.0596L144.309 139.457L143.687 140.172L19.9082 74.3684L20.1368 73.939C30.324 54.8086 43.9668 39.085 61.5108 26.3452L61.904 26.0596ZM21.2243 73.967L142.284 138.325L61.6893 27.418C44.5853 39.9239 31.241 55.3026 21.2243 73.967Z" fill="#E9ECF9"/>
<path d="M144.086 139.914L20.501 74.1892L20.5224 74.1465C25.5666 64.6564 31.5941 55.8717 38.3911 48.0274C45.2094 40.1831 53.075 33.0228 61.7743 26.6961L61.817 26.6747L144.086 139.914ZM20.6292 74.1465L143.722 139.594L61.7957 26.803C53.1178 33.1083 45.2735 40.2686 38.4766 48.0915C31.6796 55.9144 25.6735 64.6778 20.6292 74.1465Z" fill="#07AEC5"/>
<path fill-rule="evenodd" clip-rule="evenodd" d="M61.968 26.0557L144.479 139.629L143.857 140.344L19.854 74.3959L20.0928 73.9183C25.1539 64.3965 31.2022 55.5815 38.0235 47.7091C44.8671 39.8358 52.7607 32.6503 61.4882 26.303L61.5207 26.2793L61.968 26.0557ZM142.092 138.176L61.6884 27.4827C53.1953 33.6973 45.5126 40.7344 38.8433 48.4104C32.1739 56.0865 26.2674 64.6729 21.2875 73.9461L142.092 138.176Z" fill="#E9ECF9"/>
<path d="M143.914 139.743L5.58096 159.193C1.28477 128.629 6.09393 101.419 20.5642 74.1675L143.914 139.743Z" fill="#0380A8"/>
<path fill-rule="evenodd" clip-rule="evenodd" d="M20.3646 73.5115L145.465 140.018L5.16896 159.744L5.1013 159.263C0.79081 128.596 5.61831 101.283 20.1365 73.941L20.3646 73.5115ZM20.7678 74.8269C6.59819 101.701 1.85504 128.539 5.99709 158.646L142.366 139.471L20.7678 74.8269Z" fill="#E9ECF9"/>
<path d="M5.53914 159.258V159.215C3.35899 143.783 3.50861 129.463 5.96662 115.441C8.44601 101.42 13.191 87.9115 20.5223 74.1466L20.5437 74.1039L20.5865 74.1253L144.086 139.786L143.915 139.808L5.53914 159.258ZM20.5865 74.2321C13.2979 87.9756 8.55288 101.441 6.07349 115.441C3.5941 129.441 3.46586 143.741 5.62464 159.13L143.744 139.722L20.5865 74.2321Z" fill="#0380A8"/>
<path fill-rule="evenodd" clip-rule="evenodd" d="M20.3261 73.4517L20.8145 73.6959L145.67 140.078L143.982 140.289L143.975 140.29L5.05281 159.817V159.249C2.87115 143.784 3.02184 129.423 5.48759 115.357C7.97626 101.283 12.7385 87.7279 20.0901 73.9236L20.3261 73.4517ZM142.194 139.449L20.7883 74.8901C13.6499 88.4438 8.99582 101.727 6.55194 115.526C4.10821 129.325 3.95634 143.42 6.03896 158.581L142.194 139.449Z" fill="#E9ECF9"/>
<path d="M143.914 139.743L78.3383 263.093C37.4498 241.377 12.0146 205.041 5.58105 159.194L143.914 139.743Z" fill="#2443AE"/>
<path fill-rule="evenodd" clip-rule="evenodd" d="M144.791 139.13L78.5396 263.751L78.1104 263.523C37.0842 241.734 11.555 205.264 5.09976 159.262L5.03223 158.781L144.791 139.13ZM6.13082 159.608C12.6297 204.914 37.7805 240.844 78.1376 262.436L143.037 140.358L6.13082 159.608Z" fill="#E9ECF9"/>
<path d="M78.3603 263.179L78.3176 263.157C57.9695 252.342 41.3832 237.893 29.0077 220.238C16.6321 202.562 8.72368 182.021 5.51758 159.194V159.151H5.56033L144 139.701L143.957 139.786L78.3603 263.179ZM5.62445 159.237C8.83055 182.021 16.7176 202.519 29.0718 220.153C41.426 237.786 57.9909 252.214 78.2962 263.029L143.808 139.829L5.62445 159.237Z" fill="#2443AE"/>
<path fill-rule="evenodd" clip-rule="evenodd" d="M144.848 139.091L144.386 140.014L78.5667 263.826L78.0892 263.587C57.678 252.738 41.0318 238.239 28.6094 220.517C16.1869 202.774 8.25202 182.16 5.03597 159.261L5.03125 159.228V158.665H5.52613L144.848 139.091ZM6.17409 159.65C9.41314 182.172 17.2496 202.431 29.4697 219.874C41.6899 237.316 58.0487 251.615 78.0955 262.371L142.93 140.443L6.17409 159.65Z" fill="#E9ECF9"/>
<path d="M143.914 139.744L93.8559 270.168C88.0849 267.966 83.7888 266 78.3384 263.093L143.914 139.744Z" fill="#16308C"/>
<path fill-rule="evenodd" clip-rule="evenodd" d="M78.9961 262.892C84.0857 265.59 88.2013 267.473 93.5765 269.54L140.612 146.991L78.9961 262.892ZM143.485 139.515L144.368 139.918L94.1363 270.795L93.6831 270.622C87.8925 268.413 83.5778 266.438 78.11 263.522L77.6816 263.294L143.485 139.515Z" fill="#E9ECF9"/>
<path d="M93.878 270.253L93.8352 270.232C88.0856 268.03 83.7467 266.043 78.3177 263.157L78.2749 263.136L78.2963 263.093L143.872 139.744L143.979 139.786L93.878 270.253ZM78.4031 263.072C83.7894 265.936 88.1283 267.902 93.8138 270.104L143.551 140.556L78.4031 263.072Z" fill="#16308C"/>
<path fill-rule="evenodd" clip-rule="evenodd" d="M143.647 139.13L144.604 139.513L94.1397 270.928L93.6391 270.678C87.8832 268.473 83.5313 266.479 78.0948 263.589L77.6226 263.353L77.8668 262.865L143.647 139.13ZM140.248 147.803L79.0608 262.87C84.0894 265.527 88.2378 267.408 93.5349 269.474L140.248 147.803Z" fill="#E9ECF9"/>
<path d="M143.914 139.743L220.006 256.915C181.19 282.137 137.074 286.754 93.856 270.167L143.914 139.743Z" fill="#4F74F9"/>
<path fill-rule="evenodd" clip-rule="evenodd" d="M143.804 138.678L220.68 257.059L220.273 257.323C181.327 282.63 137.047 287.264 93.6838 270.622L93.23 270.447L143.804 138.678ZM144.028 140.808L94.4863 269.887C137.263 286.154 180.885 281.589 219.335 256.772L144.028 140.808Z" fill="#E9ECF9"/>
<path d="M144.833 280C127.862 280 110.763 276.73 93.8347 270.232L93.792 270.211L93.8134 270.168L143.914 139.658L143.978 139.743L220.091 256.959L220.048 256.98C200.726 269.527 180.036 277.029 158.598 279.295C154.003 279.765 149.429 280 144.833 280ZM93.9202 270.147C115.401 278.376 137.16 281.411 158.577 279.166C179.994 276.922 200.641 269.42 219.942 256.895L143.935 139.872L93.9202 270.147Z" fill="#4F74F9"/>
<path fill-rule="evenodd" clip-rule="evenodd" d="M143.776 138.663L144.377 139.465L220.795 257.15L220.291 257.403C200.915 269.979 180.16 277.505 158.649 279.778L158.648 279.778C154.036 280.25 149.446 280.486 144.834 280.486C127.799 280.486 110.641 277.204 93.6608 270.686L93.6387 270.677L93.1401 270.428L93.3683 269.972L143.776 138.663ZM219.269 256.751L144.048 140.937L94.549 269.866C115.816 277.939 137.342 280.903 158.526 278.683C179.711 276.463 200.145 269.079 219.269 256.751Z" fill="#E9ECF9"/>
<path d="M143.914 139.743L277.502 98.8972C296.14 159.835 273.441 222.204 219.984 256.894L143.914 139.743Z" fill="#304FFE"/>
<path fill-rule="evenodd" clip-rule="evenodd" d="M277.825 98.2902L277.967 98.755C296.668 159.9 273.888 222.494 220.249 257.302L219.841 257.567L143.155 139.467L277.825 98.2902ZM144.673 140.019L220.127 256.221C272.974 221.686 295.449 159.931 277.179 99.5044L144.673 140.019Z" fill="#E9ECF9"/>
<path d="M219.985 256.98L219.963 256.937L143.829 139.722L143.893 139.701L277.545 98.8336L277.567 98.8763C282.162 113.881 284.299 129.206 283.957 144.403C283.615 159.301 280.88 173.878 275.835 187.75C270.791 201.621 263.502 214.531 254.205 226.159C244.693 238.021 233.215 248.388 220.028 256.937L219.985 256.98ZM144 139.786L220.028 256.852C233.173 248.302 244.629 237.979 254.119 226.137C263.417 214.51 270.705 201.6 275.75 187.75C280.794 173.899 283.53 159.322 283.872 144.446C284.214 129.27 282.076 113.988 277.502 99.0046L144 139.786Z" fill="#304FFE"/>
<path d="M143.915 139.744L226.034 26.7178C251.256 45.0353 268.397 69.0811 277.524 98.8979L143.915 139.744Z" fill="#3856C2" stroke="#E9ECF9"/>
<path d="M143.786 139.85L143.872 139.722L226.012 26.6534L226.055 26.6748C238.601 35.8015 249.31 46.4886 257.838 58.458C266.388 70.4275 273.014 84.0214 277.545 98.8763L277.566 98.9191L143.786 139.85ZM226.033 26.8031L144.043 139.658L277.438 98.8763C272.907 84.0641 266.281 70.4916 257.753 58.5435C249.246 46.5954 238.559 35.9084 226.033 26.8031Z" fill="#3856C2" stroke="#E9ECF9"/>
<path d="M143.916 139.744V0.0435791C175.549 0.0435791 200.428 8.12297 226.035 26.7184L143.916 139.744Z" fill="#6B55EE"/>
<path fill-rule="evenodd" clip-rule="evenodd" d="M143.43 -0.441406H143.916C175.652 -0.441406 200.632 7.67047 226.321 26.3262L226.714 26.6119L143.43 141.242V-0.441406ZM144.402 0.531455V138.249L225.356 26.8277C200.103 8.58996 175.54 0.613464 144.402 0.531455Z" fill="#E9ECF9"/>
<path d="M143.872 139.914V0H143.915C159.881 0 174.052 2.07328 187.261 6.36946C200.449 10.6656 213.145 17.313 226.077 26.6962L226.119 26.7176L143.872 139.914ZM143.979 0.10687V139.594L225.97 26.7603C213.081 17.3985 200.406 10.7725 187.24 6.47634C174.074 2.18015 159.903 0.10687 143.979 0.10687Z" fill="#6B55EE"/>
<path fill-rule="evenodd" clip-rule="evenodd" d="M143.386 -0.486084H143.915C159.924 -0.486084 174.147 1.593 187.412 5.90722C200.643 10.2177 213.374 16.883 226.33 26.2793L226.85 26.5393L143.386 141.411V-0.486084ZM225.29 26.8684C212.573 17.6829 200.067 11.1732 187.089 6.93849C174.112 2.7042 160.148 0.635478 144.465 0.593656V138.098L225.29 26.8684Z" fill="#E9ECF9"/>
</g>
<g style="mix-blend-mode:multiply" opacity="0.19">
<circle cx="144" cy="140" r="59.6721" fill="#19234D"/>
</g>
<circle cx="144" cy="140" r="55.082" fill="#E9ECF9"/>
<path d="M62.522 341.264C61.519 343.763 59.853 346.194 58 347.724C58.357 347.911 58.935 348.387 59.207 348.625C61.009 346.959 62.76 344.375 63.899 341.655L62.522 341.264ZM67.469 350.58C68.268 351.532 69.135 352.688 69.9 353.793C67.333 353.912 64.715 354.031 62.42 354.116C63.542 352.11 64.766 349.458 65.684 347.265L64.222 346.908C63.491 349.101 62.148 352.11 61.009 354.184C60.159 354.201 59.377 354.235 58.68 354.252L58.85 355.578C61.876 355.425 66.398 355.221 70.682 354.966C71.005 355.476 71.294 355.969 71.515 356.377L72.756 355.68C71.923 354.167 70.189 351.804 68.642 350.036L67.469 350.58ZM67.299 341.774C68.591 344.154 70.716 346.993 72.28 348.625C72.535 348.285 72.994 347.792 73.334 347.554C71.787 346.126 69.662 343.474 68.523 341.264L67.299 341.774Z" fill="black"/>
<path d="M80.236 351.804C79.284 353.079 77.38 354.558 75.714 355.425C76.02 355.663 76.479 356.071 76.717 356.326C78.417 355.34 80.338 353.776 81.545 352.314L80.236 351.804ZM84.588 352.433C86.186 353.623 88.226 355.306 89.229 356.309L90.419 355.527C89.348 354.524 87.24 352.892 85.676 351.787L84.588 352.433ZM80.695 345.582H85.523V349.594H80.695V345.582ZM86.815 349.594V345.582H90.181V344.358H86.815V340.924H85.523V344.358H80.695V340.924H79.42V344.358H76.19V345.582H79.42V349.594H75.51V350.818H90.793V349.594H86.815Z" fill="black"/>
<path d="M259.714 356.179C262.482 356.179 264.413 354.3 264.413 351.698C264.413 349.18 262.661 347.364 260.283 347.364C259.222 347.364 258.283 347.786 257.797 348.362H257.72L258.097 344.891H263.729V342.909H256.135L255.451 349.659L257.592 350.011C258.033 349.525 258.864 349.199 259.651 349.205C261.089 349.212 262.124 350.273 262.118 351.756C262.124 353.219 261.114 354.261 259.714 354.261C258.532 354.261 257.58 353.513 257.496 352.44H255.195C255.259 354.613 257.158 356.179 259.714 356.179Z" fill="black"/>
<path d="M273.553 353.545C273.56 355.067 274.525 356.364 276.321 356.364C278.111 356.364 279.095 355.067 279.089 353.545V352.855C279.095 351.321 278.136 350.036 276.321 350.036C274.55 350.036 273.56 351.334 273.553 352.855V353.545ZM266.899 346.054C266.906 347.575 267.871 348.86 269.673 348.86C271.457 348.86 272.441 347.588 272.435 346.054V345.364C272.441 343.83 271.482 342.545 269.673 342.545C267.909 342.545 266.906 343.83 266.899 345.364V346.054ZM267.474 356H269.079L278.079 342.909H276.474L267.474 356ZM275.222 352.855C275.228 352.178 275.516 351.494 276.321 351.494C277.165 351.494 277.414 352.178 277.408 352.855V353.545C277.414 354.223 277.139 354.894 276.321 354.894C275.503 354.894 275.228 354.217 275.222 353.545V352.855ZM268.58 345.364C268.587 344.692 268.862 344.002 269.673 344.002C270.517 344.002 270.76 344.686 270.754 345.364V346.054C270.76 346.732 270.491 347.403 269.673 347.403C268.855 347.403 268.587 346.732 268.58 346.054V345.364Z" fill="black"/>
<path d="M66.602 594.324V602.331H67.69V595.327H71.77V602.331H72.909V594.324H69.696C69.934 593.814 70.206 593.202 70.444 592.624H73.453V591.536H66.211V592.624H69.203C69.033 593.168 68.812 593.814 68.625 594.324H66.602ZM65.548 592.556V591.451H59.105V598.081C59.105 600.41 59.02 603.504 58 605.68C58.272 605.799 58.748 606.139 58.952 606.36C60.074 604.048 60.244 600.546 60.244 598.064V592.556H65.548ZM65.293 594.46H61.23V603.844C61.23 604.439 60.941 604.626 60.686 604.728C60.873 605 61.043 605.544 61.111 605.816C61.4 605.561 61.893 605.289 65.208 603.776C65.14 603.538 65.038 603.096 65.021 602.773L62.318 603.946V595.531H64.256V599.849C64.256 600.002 64.222 600.053 64.069 600.053C63.916 600.07 63.474 600.07 62.913 600.053C63.049 600.342 63.185 600.733 63.219 601.039C63.984 601.039 64.528 601.022 64.851 600.852C65.208 600.665 65.293 600.376 65.293 599.866V594.46ZM70.223 596.636H69.135V600.019C69.135 601.753 68.778 604.099 65.514 605.493C65.752 605.68 66.075 606.071 66.228 606.326C69.764 604.711 70.223 602.144 70.223 600.036V596.636ZM69.934 603.572C70.988 604.337 72.28 605.476 72.892 606.224L73.606 605.425C72.994 604.694 71.651 603.606 70.614 602.875L69.934 603.572Z" fill="black"/>
<path d="M76.496 606.309H77.737V594.596H76.496V606.309ZM76.683 591.604C77.533 592.488 78.655 593.712 79.199 594.443L80.134 593.746C79.59 593.032 78.451 591.859 77.601 591.009L76.683 591.604ZM85.064 597.061V600.971H81.511V597.061H85.064ZM86.288 602.127V595.905H80.355V603.215H81.511V602.127H86.288ZM90.232 591.74H80.916V592.913H88.991V604.524C88.991 604.813 88.889 604.915 88.583 604.932C88.311 604.932 87.291 604.949 86.271 604.898C86.441 605.255 86.645 605.816 86.696 606.173C88.073 606.19 88.974 606.156 89.518 605.952C90.045 605.731 90.232 605.357 90.232 604.541V591.74Z" fill="black"/>
<path d="M264.077 606H273.051V604.018H267.349V603.929L269.606 601.634C272.15 599.192 272.853 598.003 272.853 596.527C272.853 594.334 271.07 592.73 268.436 592.73C265.841 592.73 264 594.341 264 596.827H266.256C266.256 595.491 267.1 594.654 268.404 594.654C269.651 594.654 270.577 595.415 270.577 596.648C270.577 597.741 269.913 598.521 268.621 599.832L264.077 604.287V606Z" fill="black"/>
<path d="M282.256 603.545C282.262 605.067 283.227 606.364 285.023 606.364C286.813 606.364 287.798 605.067 287.791 603.545V602.855C287.798 601.321 286.839 600.036 285.023 600.036C283.253 600.036 282.262 601.334 282.256 602.855V603.545ZM275.602 596.054C275.608 597.575 276.573 598.86 278.376 598.86C280.159 598.86 281.143 597.588 281.137 596.054V595.364C281.143 593.829 280.185 592.545 278.376 592.545C276.612 592.545 275.608 593.829 275.602 595.364V596.054ZM276.177 606H277.781L286.781 592.909H285.177L276.177 606ZM283.924 602.855C283.93 602.177 284.218 601.494 285.023 601.494C285.867 601.494 286.116 602.177 286.11 602.855V603.545C286.116 604.223 285.842 604.894 285.023 604.894C284.205 604.894 283.93 604.217 283.924 603.545V602.855ZM277.283 595.364C277.289 594.692 277.564 594.002 278.376 594.002C279.219 594.002 279.462 594.686 279.456 595.364V596.054C279.462 596.731 279.194 597.403 278.376 597.403C277.558 597.403 277.289 596.731 277.283 596.054V595.364Z" fill="black"/>
<path d="M63.015 398.098C65.293 397.996 68.54 397.826 71.651 397.673C71.991 398.098 72.263 398.506 72.467 398.846L73.504 398.234C72.892 397.197 71.532 395.735 70.342 394.698L69.356 395.259C69.815 395.667 70.308 396.143 70.75 396.636C69.169 396.687 67.571 396.755 66.126 396.806C66.636 395.99 67.18 395.004 67.639 394.12H73.419V392.981H68.438V390.788H67.163V392.981H62.675V394.12H66.194C65.837 395.004 65.327 396.058 64.834 396.857C64.12 396.874 63.457 396.891 62.879 396.908L63.015 398.098ZM62.641 392.743C61.995 392.131 60.652 391.383 59.581 390.924L58.901 391.842C59.972 392.335 61.281 393.151 61.91 393.746L62.641 392.743ZM61.808 397.163C61.128 396.602 59.768 395.888 58.697 395.463L58 396.415C59.105 396.874 60.431 397.639 61.094 398.217L61.808 397.163ZM61.519 399.764C60.601 401.702 59.36 403.929 58.51 405.255L59.581 406.054C60.516 404.473 61.638 402.348 62.471 400.546L61.519 399.764ZM64.205 400.512C64.205 402.076 63.984 403.997 61.91 405.425C62.182 405.629 62.624 406.02 62.811 406.258C65.072 404.626 65.361 402.416 65.361 400.546V398.761H64.205V400.512ZM67.163 405.561H68.285V398.863H67.163V405.561ZM71.702 405.017C71.583 405.017 71.481 405 71.413 404.949C71.328 404.864 71.328 404.694 71.328 404.354V398.761H70.155V404.235C70.155 405.255 70.24 405.51 70.478 405.748C70.716 405.952 71.09 406.037 71.413 406.037H72.246C72.535 406.037 72.875 405.969 73.045 405.85C73.283 405.714 73.419 405.51 73.504 405.187C73.606 404.881 73.657 403.997 73.674 403.249C73.368 403.147 72.994 402.96 72.79 402.79C72.773 403.589 72.756 404.201 72.722 404.473C72.688 404.745 72.62 404.881 72.552 404.932C72.467 405 72.331 405.017 72.178 405.017H71.702Z" fill="black"/>
<path d="M82.922 392.165H76.394V393.304H82.922V392.165ZM83.517 403.504C83.194 402.314 82.446 400.325 81.8 398.812L80.746 399.101C81.086 399.9 81.426 400.818 81.732 401.685L77.703 402.535C78.366 401.005 78.995 399.135 79.437 397.35H83.211V396.194H75.782V397.35H78.128C77.703 399.322 76.989 401.311 76.751 401.872C76.479 402.501 76.258 402.96 75.986 403.028C76.122 403.351 76.326 403.946 76.377 404.201C76.377 404.184 76.377 404.167 76.394 404.15V404.218C76.785 403.98 77.397 403.793 82.089 402.739C82.208 403.164 82.31 403.555 82.395 403.861L83.517 403.504ZM87.087 394.681C87.121 393.491 87.138 392.267 87.138 391.06H85.897C85.897 392.267 85.897 393.491 85.846 394.681H83.432V395.888H85.795C85.591 399.747 84.911 403.266 82.616 405.374C82.939 405.561 83.381 405.986 83.602 406.292C86.084 403.912 86.798 400.07 87.036 395.888H89.569C89.382 401.906 89.144 404.133 88.702 404.626C88.532 404.847 88.345 404.898 88.056 404.881C87.682 404.881 86.798 404.881 85.846 404.796C86.067 405.153 86.203 405.663 86.237 406.037C87.138 406.088 88.056 406.105 88.583 406.054C89.127 405.986 89.45 405.85 89.807 405.408C90.385 404.66 90.589 402.263 90.81 395.31C90.81 395.14 90.827 394.681 90.827 394.681H87.087Z" fill="black"/>
<path d="M98.018 393.117C97.236 392.539 95.672 391.808 94.448 391.383L93.819 392.267C95.043 392.726 96.59 393.508 97.355 394.103L98.018 393.117ZM98.12 395.089C96.284 395.667 94.448 396.245 93.224 396.585L93.581 397.758C94.941 397.316 96.675 396.738 98.307 396.194L98.12 395.089ZM106.365 403.283V398.693H95.468V403.402H96.709V399.849H105.09V403.283H106.365ZM100.381 400.342C99.871 403.147 98.596 404.643 93.224 405.306C93.428 405.561 93.7 406.054 93.785 406.343C99.48 405.544 101.044 403.725 101.605 400.342H100.381ZM101.095 403.691C103.203 404.388 106.008 405.493 107.419 406.241L108.167 405.204C106.688 404.456 103.866 403.419 101.792 402.773L101.095 403.691ZM106.331 393.338C106.059 393.882 105.804 394.443 105.549 394.834L106.654 395.157C107.062 394.494 107.589 393.474 108.014 392.539L107.096 392.284L106.892 392.335H101.146C101.384 391.893 101.588 391.451 101.758 391.009L100.551 390.839C100.126 392.012 99.242 393.44 97.882 394.494C98.154 394.647 98.562 394.987 98.766 395.276C99.48 394.681 100.058 394.018 100.534 393.338H102.54C102.047 395.089 100.891 396.636 97.882 397.452C98.12 397.673 98.443 398.098 98.562 398.37C100.908 397.673 102.234 396.568 103.033 395.191C104.104 396.636 105.753 397.724 107.64 398.251C107.81 397.945 108.133 397.486 108.405 397.265C106.28 396.806 104.461 395.667 103.526 394.205C103.628 393.916 103.73 393.644 103.815 393.338H106.331Z" fill="black"/>
<path d="M114.287 395.922C115.953 394.664 117.381 393.253 118.265 391.978C119.251 393.304 120.781 394.715 122.447 395.922H114.287ZM118.911 400.427H124.742V399.322H118.911V397.044H122.549V395.99C123.484 396.67 124.453 397.282 125.388 397.758C125.592 397.384 125.898 396.959 126.204 396.636C123.569 395.463 120.628 393.185 118.826 390.754H117.568C116.242 392.879 113.454 395.378 110.53 396.857C110.802 397.112 111.159 397.554 111.295 397.843C112.264 397.333 113.216 396.721 114.1 396.075V397.044H117.602V399.322H111.907V400.427H117.602V404.626H111.142V405.748H125.558V404.626H118.911V400.427ZM113.318 401.277C113.981 402.246 114.644 403.555 114.865 404.405L115.953 403.929C115.715 403.079 115.035 401.821 114.338 400.886L113.318 401.277ZM121.257 404.405C121.903 403.606 122.702 402.382 123.331 401.311L122.141 400.852C121.716 401.804 120.934 403.147 120.322 403.98L121.257 404.405Z" fill="black"/>
<path d="M134.091 398.818C134.091 401.849 134.9 404.372 136.433 406.521H138.087C136.898 404.928 135.962 401.692 135.962 398.818C135.962 395.951 136.898 392.715 138.087 391.121H136.433C134.9 393.27 134.091 395.794 134.091 398.818Z" fill="black"/>
<path d="M140.645 392.636V405H142.42V396.047H142.535L146.181 404.982H147.654L151.3 396.053H151.415V405H153.19V392.636H150.926L146.99 402.247H146.845L142.909 392.636H140.645Z" fill="black"/>
<path d="M156.412 392.636V405H158.187V396.047H158.302L161.948 404.982H163.421L167.067 396.053H167.182V405H168.957V392.636H166.693L162.757 402.247H162.612L158.676 392.636H156.412Z" fill="black"/>
<path d="M175.505 398.824C175.505 395.794 174.696 393.27 173.163 391.121H171.509C172.698 392.715 173.634 395.951 173.634 398.824C173.634 401.692 172.698 404.928 171.509 406.521H173.163C174.696 404.372 175.505 401.849 175.505 398.824Z" fill="black"/>
<path d="M259.714 406.179C262.482 406.179 264.413 404.3 264.413 401.698C264.413 399.18 262.661 397.364 260.283 397.364C259.222 397.364 258.283 397.786 257.797 398.362H257.72L258.097 394.891H263.729V392.909H256.135L255.451 399.659L257.592 400.011C258.033 399.525 258.864 399.199 259.651 399.205C261.089 399.212 262.124 400.273 262.118 401.756C262.124 403.219 261.114 404.261 259.714 404.261C258.532 404.261 257.58 403.513 257.496 402.44H255.195C255.259 404.613 257.158 406.179 259.714 406.179Z" fill="black"/>
<path d="M273.553 403.545C273.56 405.067 274.525 406.364 276.321 406.364C278.111 406.364 279.095 405.067 279.089 403.545V402.855C279.095 401.321 278.136 400.036 276.321 400.036C274.55 400.036 273.56 401.334 273.553 402.855V403.545ZM266.899 396.054C266.906 397.575 267.871 398.86 269.673 398.86C271.457 398.86 272.441 397.588 272.435 396.054V395.364C272.441 393.83 271.482 392.545 269.673 392.545C267.909 392.545 266.906 393.83 266.899 395.364V396.054ZM267.474 406H269.079L278.079 392.909H276.474L267.474 406ZM275.222 402.855C275.228 402.178 275.516 401.494 276.321 401.494C277.165 401.494 277.414 402.178 277.408 402.855V403.545C277.414 404.223 277.139 404.894 276.321 404.894C275.503 404.894 275.228 404.217 275.222 403.545V402.855ZM268.58 395.364C268.587 394.692 268.862 394.002 269.673 394.002C270.517 394.002 270.76 394.686 270.754 395.364V396.054C270.76 396.732 270.491 397.403 269.673 397.403C268.855 397.403 268.587 396.732 268.58 396.054V395.364Z" fill="black"/>
<path d="M69.696 645.548H67.078V643.406H65.854V645.548H60.397V646.687H65.446C64.069 648.54 62.029 650.223 60.142 651.243C60.431 651.464 60.788 651.855 60.958 652.093C62.641 651.141 64.443 649.73 65.854 648.115V652.059C65.854 652.263 65.786 652.331 65.565 652.331C65.361 652.348 64.63 652.348 63.865 652.331C64.035 652.654 64.222 653.13 64.273 653.47C65.378 653.47 66.058 653.436 66.483 653.232C66.942 653.045 67.078 652.722 67.078 652.059V646.687H69.696V645.548ZM59.275 654.456V642.692H70.682V654.456H59.275ZM58 641.519V656.309H59.275V655.612H70.682V656.309H72.008V641.519H58Z" fill="black"/>
<path d="M80.406 641.417L80.202 641.468H75.782V656.275H76.989V642.624H79.675C79.301 643.763 78.757 645.242 78.23 646.466C79.539 647.792 79.896 648.948 79.896 649.866C79.896 650.376 79.794 650.818 79.522 651.005C79.352 651.107 79.165 651.158 78.944 651.158C78.672 651.175 78.315 651.175 77.907 651.141C78.111 651.481 78.23 651.991 78.247 652.331C78.655 652.348 79.097 652.348 79.471 652.314C79.811 652.263 80.134 652.161 80.389 651.974C80.899 651.634 81.103 650.886 81.103 649.968C81.103 648.931 80.797 647.69 79.488 646.296C80.083 644.97 80.746 643.338 81.29 641.961L80.406 641.417ZM84.571 640.788C84.554 646.568 84.639 652.501 79.845 655.408C80.202 655.646 80.61 656.037 80.814 656.343C83.381 654.694 84.639 652.229 85.251 649.356C85.88 651.753 87.104 654.677 89.569 656.309C89.756 655.986 90.147 655.612 90.487 655.357C86.713 652.977 85.948 647.554 85.693 645.973C85.829 644.29 85.829 642.522 85.846 640.788H84.571Z" fill="black"/>
<path d="M260.51 642.909H258.254L255 644.999V647.173L258.062 645.217H258.138V656H260.51V642.909Z" fill="black"/>
<path d="M268.385 656.179C271.153 656.179 273.083 654.3 273.083 651.698C273.083 649.18 271.332 647.364 268.954 647.364C267.893 647.364 266.953 647.786 266.467 648.361H266.391L266.768 644.891H272.399V642.909H264.805L264.121 649.659L266.263 650.011C266.704 649.525 267.535 649.199 268.321 649.205C269.759 649.212 270.795 650.273 270.788 651.756C270.795 653.219 269.785 654.261 268.385 654.261C267.202 654.261 266.25 653.513 266.167 652.44H263.866C263.93 654.613 265.828 656.179 268.385 656.179Z" fill="black"/>
<path d="M282.224 653.545C282.23 655.067 283.195 656.364 284.991 656.364C286.781 656.364 287.766 655.067 287.759 653.545V652.855C287.766 651.321 286.807 650.036 284.991 650.036C283.221 650.036 282.23 651.334 282.224 652.855V653.545ZM275.57 646.054C275.576 647.575 276.541 648.86 278.344 648.86C280.127 648.86 281.112 647.588 281.105 646.054V645.364C281.112 643.829 280.153 642.545 278.344 642.545C276.58 642.545 275.576 643.829 275.57 645.364V646.054ZM276.145 656H277.749L286.749 642.909H285.145L276.145 656ZM283.892 652.855C283.898 652.177 284.186 651.494 284.991 651.494C285.835 651.494 286.085 652.177 286.078 652.855V653.545C286.085 654.223 285.81 654.894 284.991 654.894C284.173 654.894 283.898 654.217 283.892 653.545V652.855ZM277.251 645.364C277.257 644.692 277.532 644.002 278.344 644.002C279.188 644.002 279.43 644.686 279.424 645.364V646.054C279.43 646.731 279.162 647.403 278.344 647.403C277.526 647.403 277.257 646.731 277.251 646.054V645.364Z" fill="black"/>
<path d="M65.293 444.086C64.936 443.406 64.069 442.42 63.338 441.723L62.471 442.301C63.202 443.049 64.018 444.086 64.375 444.749L65.293 444.086ZM61.247 440.754C60.499 443.338 59.343 445.939 58 447.656C58.204 447.945 58.527 448.557 58.646 448.829C59.088 448.234 59.513 447.571 59.938 446.823V456.258H61.043V444.579C61.536 443.44 61.961 442.25 62.301 441.043L61.247 440.754ZM64.528 453.572V446.177H61.757V447.384H63.423V453.351C63.423 454.065 63.049 454.49 62.811 454.66C63.015 454.881 63.321 455.408 63.423 455.697C63.678 455.408 64.069 455.119 66.466 453.64C66.381 453.402 66.228 452.96 66.16 452.62L64.528 453.572ZM71.889 451.6H68.217V449.9H71.889V451.6ZM68.217 454.32V452.569H71.889V454.32H68.217ZM69.407 443.78H71.26C70.801 444.528 70.308 445.242 69.781 445.905H69.407V443.78ZM73.759 447.061V445.905H71.209C72.144 444.63 72.96 443.202 73.623 441.655L72.501 441.349C72.178 442.131 71.804 442.862 71.379 443.576V442.692H69.407V440.771H68.251V442.692H66.041V443.78H68.251V445.905H65.548V447.061H68.761C67.639 448.217 66.381 449.203 65.038 449.968C65.293 450.206 65.718 450.699 65.871 450.937C66.296 450.665 66.721 450.359 67.129 450.07V456.241H68.217V455.374H71.889V456.173H73.028V448.846H68.591C69.186 448.302 69.764 447.707 70.291 447.061H73.759Z" fill="black"/>
<path d="M82.871 450.036V451.736H79.267V450.036H82.871ZM87.699 451.736H84.146V450.036H87.699V451.736ZM84.146 454.643V452.773H87.699V454.643H84.146ZM79.267 454.643V452.773H82.871V454.643H79.267ZM77.992 456.292H79.267V455.748H87.699V456.258H89.025V448.914H77.992V456.292ZM80.814 443.355H86.662C85.846 444.205 84.741 444.953 83.517 445.582C82.361 445.004 81.375 444.324 80.644 443.525L80.814 443.355ZM87.903 442.165L87.682 442.233H81.8C82.14 441.825 82.429 441.417 82.667 440.992L81.324 440.737C80.491 442.199 78.842 443.882 76.411 445.038C76.7 445.242 77.074 445.65 77.261 445.956C78.213 445.446 79.029 444.902 79.76 444.307C80.457 445.021 81.273 445.65 82.208 446.194C80.134 447.061 77.805 447.656 75.629 447.945C75.833 448.234 76.071 448.795 76.19 449.152C78.621 448.744 81.239 448.013 83.517 446.908C85.625 447.894 88.124 448.557 90.725 448.914C90.895 448.557 91.218 448.03 91.49 447.741C89.093 447.486 86.798 446.959 84.843 446.177C86.441 445.259 87.818 444.086 88.719 442.692L87.903 442.165Z" fill="black"/>
<path d="M255.643 456H258.104L263.665 444.935V442.909H254.748V444.891H261.21V444.98L255.643 456Z" fill="black"/>
<path d="M272.727 453.545C272.734 455.067 273.699 456.364 275.495 456.364C277.285 456.364 278.269 455.067 278.263 453.545V452.855C278.269 451.321 277.31 450.036 275.495 450.036C273.724 450.036 272.734 451.334 272.727 452.855V453.545ZM266.073 446.054C266.08 447.575 267.045 448.86 268.847 448.86C270.631 448.86 271.615 447.588 271.609 446.054V445.364C271.615 443.83 270.656 442.545 268.847 442.545C267.083 442.545 266.08 443.83 266.073 445.364V446.054ZM266.648 456H268.253L277.253 442.909H275.648L266.648 456ZM274.396 452.855C274.402 452.178 274.69 451.494 275.495 451.494C276.339 451.494 276.588 452.178 276.582 452.855V453.545C276.588 454.223 276.313 454.894 275.495 454.894C274.677 454.894 274.402 454.217 274.396 453.545V452.855ZM267.754 445.364C267.761 444.692 268.036 444.002 268.847 444.002C269.691 444.002 269.934 444.686 269.928 445.364V446.054C269.934 446.732 269.665 447.403 268.847 447.403C268.029 447.403 267.761 446.732 267.754 446.054V445.364Z" fill="black"/>
<path d="M65.786 700.631C65.361 700.206 63.508 698.472 62.879 697.945V696.925H65.854V695.718H62.879V692.692C63.899 692.437 64.868 692.148 65.633 691.825L64.698 690.89C63.253 691.553 60.601 692.131 58.323 692.488C58.476 692.76 58.646 693.185 58.714 693.474C59.649 693.338 60.652 693.168 61.638 692.964V695.718H58.357V696.925H61.4C60.601 698.931 59.224 701.209 58 702.433C58.204 702.756 58.527 703.266 58.663 703.623C59.7 702.467 60.805 700.614 61.638 698.761V706.241H62.879V699.237C63.644 700.019 64.613 701.056 65.004 701.6L65.786 700.631ZM73.776 705.867C73.402 704.048 72.246 701.209 71.056 699.033L69.866 699.407C70.529 700.648 71.175 702.11 71.651 703.47C70.019 703.64 68.387 703.81 66.942 703.963C67.928 700.444 69.033 695.361 69.696 691.366L68.285 691.128C67.741 695.14 66.619 700.563 65.633 704.099C65.038 704.15 64.511 704.201 64.035 704.252L64.341 705.561C66.381 705.323 69.254 704.966 72.042 704.592C72.229 705.221 72.382 705.799 72.467 706.292L73.776 705.867Z" fill="black"/>
<path d="M82.582 691.298C82.463 693.542 82.463 701.651 75.578 705.17C75.969 705.425 76.377 705.833 76.598 706.139C80.899 703.81 82.65 699.713 83.398 696.313C84.214 699.713 86.084 704.065 90.47 706.139C90.657 705.799 91.048 705.374 91.405 705.102C85.013 702.178 84.095 694.324 83.942 692.08C83.959 691.791 83.959 691.519 83.976 691.298H82.582Z" fill="black"/>
<path d="M225.077 706H234.051V704.018H228.349V703.929L230.606 701.634C233.15 699.192 233.853 698.003 233.853 696.527C233.853 694.334 232.07 692.73 229.436 692.73C226.841 692.73 225 694.341 225 696.827H227.256C227.256 695.491 228.1 694.654 229.404 694.654C230.651 694.654 231.577 695.415 231.577 696.648C231.577 697.741 230.913 698.521 229.621 699.832L225.077 704.287V706Z" fill="black"/>
<path d="M241.095 706.249C244.253 706.256 246.138 703.763 246.138 699.467C246.138 695.197 244.24 692.73 241.095 692.73C237.95 692.73 236.058 695.191 236.052 699.467C236.052 703.756 237.938 706.249 241.095 706.249ZM241.095 704.249C239.465 704.249 238.442 702.612 238.449 699.467C238.455 696.348 239.472 694.705 241.095 694.705C242.725 694.705 243.741 696.348 243.748 699.467C243.748 702.612 242.732 704.249 241.095 704.249Z" fill="black"/>
<path d="M249.203 706.141C249.958 706.141 250.603 705.514 250.61 704.734C250.603 703.967 249.958 703.341 249.203 703.341C248.424 703.341 247.791 703.967 247.797 704.734C247.791 705.514 248.424 706.141 249.203 706.141Z" fill="black"/>
<path d="M257.257 706.179C260.083 706.198 261.981 704.255 261.975 701.666C261.981 699.192 260.217 697.403 257.922 697.403C256.516 697.403 255.276 698.087 254.65 699.212H254.56C254.566 696.457 255.576 694.782 257.392 694.782C258.517 694.782 259.277 695.434 259.52 696.437H261.853C261.572 694.322 259.865 692.73 257.392 692.73C254.247 692.73 252.259 695.351 252.259 699.825C252.252 704.626 254.745 706.166 257.257 706.179ZM257.245 704.261C255.845 704.261 254.822 703.104 254.816 701.736C254.828 700.362 255.89 699.212 257.277 699.212C258.664 699.212 259.68 700.311 259.674 701.717C259.68 703.149 258.632 704.261 257.245 704.261Z" fill="black"/>
<path d="M268.686 706.179C271.454 706.179 273.385 704.3 273.385 701.698C273.385 699.18 271.633 697.364 269.255 697.364C268.194 697.364 267.255 697.786 266.769 698.361H266.692L267.069 694.891H272.701V692.909H265.107L264.423 699.659L266.564 700.011C267.005 699.525 267.836 699.199 268.623 699.205C270.061 699.212 271.096 700.273 271.09 701.756C271.096 703.219 270.086 704.261 268.686 704.261C267.504 704.261 266.551 703.513 266.468 702.44H264.167C264.231 704.613 266.13 706.179 268.686 706.179Z" fill="black"/>
<path d="M282.525 703.545C282.532 705.067 283.497 706.364 285.293 706.364C287.083 706.364 288.067 705.067 288.061 703.545V702.855C288.067 701.321 287.108 700.036 285.293 700.036C283.522 700.036 282.532 701.334 282.525 702.855V703.545ZM275.871 696.054C275.877 697.575 276.843 698.86 278.645 698.86C280.429 698.86 281.413 697.588 281.407 696.054V695.364C281.413 693.829 280.454 692.545 278.645 692.545C276.881 692.545 275.877 693.829 275.871 695.364V696.054ZM276.446 706H278.051L287.051 692.909H285.446L276.446 706ZM284.194 702.855C284.2 702.177 284.488 701.494 285.293 701.494C286.137 701.494 286.386 702.177 286.38 702.855V703.545C286.386 704.223 286.111 704.894 285.293 704.894C284.475 704.894 284.2 704.217 284.194 703.545V702.855ZM277.552 695.364C277.559 694.692 277.833 694.002 278.645 694.002C279.489 694.002 279.732 694.686 279.725 695.364V696.054C279.732 696.731 279.463 697.403 278.645 697.403C277.827 697.403 277.559 696.731 277.552 696.054V695.364Z" fill="black"/>
<path d="M67.826 499.067H66.534V500.58C66.534 501.957 66.177 503.946 60.958 505.323C61.264 505.544 61.621 506.003 61.808 506.275C67.231 504.677 67.826 502.331 67.826 500.614V499.067ZM67.401 503.776C69.101 504.422 71.226 505.459 72.399 506.19L73.283 505.34C72.093 504.66 69.968 503.657 68.285 503.011L67.401 503.776ZM60.992 494.409V493.083C62.76 493.015 64.664 492.879 66.5 492.709C66.466 493.253 66.432 493.831 66.364 494.409H60.992ZM67.639 494.409C67.707 493.797 67.775 493.168 67.826 492.573C69.543 492.403 71.124 492.165 72.399 491.876L71.396 490.873C68.761 491.485 63.814 491.876 59.751 492.029V496.755C59.751 499.339 59.598 502.926 58 505.442C58.306 505.561 58.85 505.901 59.088 506.105C60.754 503.436 60.992 499.492 60.992 496.755V495.548H66.262C66.194 496.143 66.126 496.721 66.058 497.197H62.284V503.011H63.525V498.37H70.818V503.079H72.11V497.197H67.265C67.35 496.721 67.418 496.143 67.503 495.548H73.402V494.409H67.639Z" fill="black"/>
<path d="M80.848 498.251C80.253 498.438 79.641 498.608 79.046 498.778V495.378H80.899V494.188H79.046V490.788H77.839V494.188H75.748V495.378H77.839V499.101C76.972 499.339 76.19 499.56 75.544 499.713L75.901 500.937L77.839 500.359V504.762C77.839 504.983 77.754 505.051 77.516 505.068C77.329 505.068 76.666 505.085 75.952 505.068C76.105 505.374 76.275 505.884 76.326 506.207C77.397 506.207 78.043 506.173 78.468 505.969C78.893 505.765 79.046 505.442 79.046 504.762V500.002C79.692 499.815 80.355 499.611 81.018 499.407L80.848 498.251ZM86.713 499.288V496.687H89.314V499.288H86.713ZM82.939 499.288V496.687H85.506V499.288H82.939ZM85.506 492.981V495.514H82.939V492.981H85.506ZM89.314 495.514H86.713V492.981H89.314V495.514ZM81.715 491.808V501.413H82.939V500.461H85.506V506.292H86.713V500.461H89.314V501.362H90.572V491.808H81.715Z" fill="black"/>
<path d="M107.606 492.165L107.368 492.199H102.999C103.271 491.842 103.509 491.485 103.696 491.111L102.472 490.72C101.894 491.995 100.483 493.372 99.004 494.171C99.242 494.392 99.582 494.834 99.752 495.089C100.568 494.63 101.367 494.001 102.081 493.304H106.756C106.178 494.562 105.277 495.497 104.155 496.228C103.611 495.565 102.744 494.749 102.013 494.171L101.095 494.715C101.809 495.327 102.625 496.126 103.135 496.772C101.877 497.35 100.398 497.741 98.766 497.979C99.004 498.217 99.327 498.727 99.446 499.033C103.628 498.285 106.994 496.619 108.354 492.539L107.606 492.165ZM96.233 494.273C95.961 493.559 95.264 492.454 94.618 491.672L93.649 492.165C94.278 492.981 94.958 494.12 95.213 494.834L96.233 494.273ZM97.117 499.067H98.341V490.771H97.117V495.072C95.655 495.803 94.193 496.517 93.19 496.976L93.734 498.064C94.72 497.554 95.927 496.908 97.117 496.262V499.067ZM108.218 501.481V500.342H101.316C101.418 499.917 101.486 499.509 101.554 499.05H100.245C100.177 499.509 100.109 499.934 100.007 500.342H93.411V501.481H99.633C98.851 503.334 97.185 504.609 93.139 505.255C93.36 505.51 93.632 506.02 93.734 506.326C98.018 505.578 99.905 504.099 100.823 501.957C102.081 504.405 104.393 505.68 107.861 506.19C107.997 505.867 108.337 505.34 108.626 505.085C105.243 504.711 102.948 503.589 101.86 501.481H108.218Z" fill="black"/>
<path d="M115.698 497.911C115.732 497.248 115.749 496.568 115.766 495.871H118.979V494.732H112.791V492.913H119.523V491.74H111.618V497.928C111.618 500.274 111.533 503.419 110.428 505.646C110.717 505.731 111.244 506.037 111.465 506.241C112.621 503.946 112.791 500.41 112.791 497.911V495.871H114.61C114.542 499.951 114.304 503.555 112.349 505.578C112.655 505.748 113.046 506.139 113.216 506.411C114.848 504.711 115.409 502.093 115.647 498.999H117.534C117.381 502.926 117.194 504.371 116.905 504.711C116.786 504.898 116.65 504.932 116.412 504.932C116.174 504.932 115.613 504.915 115.001 504.847C115.154 505.153 115.256 505.578 115.273 505.918C115.919 505.952 116.548 505.952 116.905 505.901C117.33 505.884 117.619 505.765 117.874 505.425C118.299 504.881 118.469 503.232 118.673 498.438C118.673 498.285 118.69 497.911 118.69 497.911H115.698ZM122.464 494.987C122.498 493.729 122.515 492.386 122.515 491.06H121.342C121.342 492.386 121.342 493.729 121.308 494.987H119.404V496.16H121.257C121.07 500.087 120.458 503.436 118.35 505.51C118.656 505.68 119.081 506.071 119.285 506.343C121.546 504.031 122.209 500.393 122.413 496.16H124.47C124.3 502.263 124.13 504.439 123.756 504.915C123.586 505.136 123.45 505.187 123.178 505.17C122.872 505.17 122.158 505.17 121.376 505.102C121.58 505.442 121.699 505.918 121.716 506.275C122.481 506.309 123.246 506.326 123.688 506.275C124.164 506.224 124.487 506.071 124.793 505.663C125.303 504.949 125.473 502.637 125.643 495.599C125.643 495.446 125.66 494.987 125.66 494.987H122.464Z" fill="black"/>
<path d="M66.211 555.541V551.223H71.668V549.999H66.211V546.293H72.297V545.052H66.211V541.788H64.919V545.052H61.468C61.842 544.185 62.148 543.267 62.42 542.332L61.145 542.06C60.482 544.474 59.394 546.82 58 548.316C58.34 548.486 58.901 548.86 59.156 549.064C59.785 548.299 60.38 547.364 60.924 546.293H64.919V549.999H59.87V551.223H64.919V555.541H58.034V556.765H73.096V555.541H66.211Z" fill="black"/>
<path d="M76.649 556.629C77.397 555.456 77.941 553.654 78.315 552.26L77.193 551.886C76.87 553.246 76.275 554.946 75.51 556.034L76.649 556.629ZM81.698 555.779C80.593 555.779 80.389 555.677 80.389 555.184V551.886H79.148V555.201C79.148 556.561 79.675 556.918 81.63 556.918H85.574C87.206 556.918 87.597 556.391 87.767 554.266C87.41 554.181 86.9 553.994 86.628 553.79C86.526 555.524 86.39 555.779 85.489 555.779H81.698ZM81.035 549.03C82.021 549.625 83.228 550.509 83.755 551.138L84.894 550.407C84.265 549.761 83.075 548.928 82.089 548.367L81.035 549.03ZM81.511 551.478C82.497 552.362 83.67 553.62 84.214 554.436L85.234 553.756C84.656 552.957 83.449 551.75 82.497 550.9L81.511 551.478ZM87.257 551.988C88.124 553.416 88.974 555.354 89.263 556.527L90.47 556.102C90.147 554.895 89.246 553.025 88.379 551.631L87.257 551.988ZM90.606 545.341V544.151H83.415C83.568 543.369 83.687 542.553 83.772 541.72H82.48C82.395 542.553 82.293 543.369 82.106 544.151H75.544V545.341H81.766C80.967 547.534 79.301 549.37 75.374 550.356C75.612 550.611 75.935 551.104 76.071 551.41C80.457 550.237 82.259 548.01 83.092 545.341C84.35 548.367 86.577 550.424 89.926 551.342C90.113 550.968 90.487 550.458 90.776 550.169C87.733 549.489 85.574 547.772 84.401 545.341H90.606Z" fill="black"/>
<path d="M96.658 552.719C95.723 553.977 94.193 555.252 92.765 556.085C93.105 556.272 93.632 556.697 93.887 556.952C95.247 556.034 96.845 554.589 97.933 553.195L96.658 552.719ZM108.303 552.192C107.436 551.036 105.617 549.336 104.138 548.146L103.118 548.792C103.73 549.302 104.376 549.88 104.988 550.492C102.829 550.526 100.636 550.577 98.613 550.611C100.602 549.047 102.88 546.99 104.58 545.205L103.39 544.559C102.285 545.834 100.738 547.33 99.191 548.673C98.681 548.197 97.984 547.67 97.253 547.177C98.222 546.293 99.344 545.086 100.211 544.015L100.024 543.913C102.591 543.726 105.056 543.454 106.96 543.08L106.042 542.026C103.135 542.604 97.933 542.961 93.581 543.08C93.7 543.386 93.87 543.879 93.887 544.202C95.383 544.168 96.981 544.1 98.562 544.015C97.916 544.865 97.066 545.834 96.318 546.548C95.927 546.31 95.536 546.072 95.162 545.868L94.312 546.65C95.672 547.432 97.236 548.571 98.222 549.506C97.712 549.914 97.236 550.288 96.76 550.628C95.383 550.645 94.108 550.662 93.054 550.679L93.19 551.954C94.992 551.903 97.338 551.852 99.871 551.784V557.292H101.18V551.75C102.795 551.699 104.444 551.648 106.059 551.597C106.518 552.09 106.909 552.549 107.181 552.94L108.303 552.192ZM102.948 553.348C104.41 554.419 106.229 555.966 107.079 556.918L108.184 556.136C107.249 555.167 105.396 553.671 103.968 552.651L102.948 553.348Z" fill="black"/>
<path d="M125.626 549.846C125.133 548.894 124.028 547.313 123.127 546.123L122.141 546.616C122.515 547.109 122.906 547.67 123.263 548.214L118.605 548.605C119.353 547.687 120.322 546.378 121.036 545.375H125.609V544.236H120.764L121.852 543.879C121.648 543.352 121.206 542.417 120.832 541.737L119.676 542.06C119.999 542.74 120.424 543.658 120.594 544.236H116.497V545.375H119.557C118.792 546.429 117.619 547.976 117.228 548.333C116.922 548.656 116.463 548.775 116.157 548.86C116.276 549.115 116.531 549.778 116.582 550.084C117.041 549.88 117.755 549.795 123.875 549.217C124.164 549.693 124.385 550.101 124.555 550.458L125.626 549.846ZM112.655 551.087C113.93 549.608 115.205 547.806 116.259 545.97L115.137 545.307C114.814 545.919 114.457 546.565 114.066 547.16L112.009 547.381C113.046 545.919 114.083 544.083 114.865 542.315L113.573 541.72C112.842 543.76 111.584 545.936 111.176 546.497C110.819 547.058 110.496 547.449 110.19 547.517C110.343 547.891 110.564 548.537 110.632 548.826C110.887 548.69 111.278 548.605 113.301 548.316C112.587 549.37 111.924 550.22 111.618 550.543C111.091 551.172 110.683 551.58 110.343 551.665C110.479 552.005 110.683 552.617 110.751 552.872C111.108 552.651 111.669 552.481 115.868 551.563C115.817 551.308 115.8 550.798 115.834 550.458L112.655 551.087ZM115.817 553.467C113.777 554.079 111.703 554.691 110.343 555.048L110.632 556.306C112.145 555.813 114.134 555.184 116.021 554.572L115.817 553.467ZM118.248 550.033C118.129 553.382 117.755 555.201 114.984 556.238C115.273 556.442 115.613 556.935 115.766 557.241C118.826 556 119.353 553.841 119.489 550.033H118.248ZM123.076 555.864C122.702 555.864 122.651 555.796 122.651 555.354V550.016H121.41V555.354C121.41 556.578 121.699 556.952 122.889 556.952H124.368C125.405 556.952 125.694 556.34 125.796 554.028C125.456 553.943 124.963 553.756 124.708 553.518C124.657 555.541 124.589 555.864 124.232 555.864H123.076Z" fill="black"/>
<path d="M260.488 492.909H258.232L254.978 494.999V497.173L258.04 495.217H258.117V506H260.488V492.909Z" fill="black"/>
<path d="M268.651 506.249C271.808 506.256 273.694 503.763 273.694 499.467C273.694 495.197 271.795 492.73 268.651 492.73C265.506 492.73 263.614 495.191 263.607 499.467C263.607 503.756 265.493 506.249 268.651 506.249ZM268.651 504.249C267.021 504.249 265.998 502.612 266.004 499.467C266.011 496.348 267.027 494.705 268.651 494.705C270.281 494.705 271.297 496.348 271.303 499.467C271.303 502.612 270.287 504.249 268.651 504.249Z" fill="black"/>
<path d="M282.817 503.545C282.823 505.067 283.789 506.364 285.585 506.364C287.375 506.364 288.359 505.067 288.352 503.545V502.855C288.359 501.321 287.4 500.036 285.585 500.036C283.814 500.036 282.823 501.334 282.817 502.855V503.545ZM276.163 496.054C276.169 497.575 277.134 498.86 278.937 498.86C280.72 498.86 281.705 497.588 281.698 496.054V495.364C281.705 493.83 280.746 492.545 278.937 492.545C277.173 492.545 276.169 493.83 276.163 495.364V496.054ZM276.738 506H278.343L287.343 492.909H285.738L276.738 506ZM284.485 502.855C284.492 502.178 284.779 501.494 285.585 501.494C286.428 501.494 286.678 502.178 286.671 502.855V503.545C286.678 504.223 286.403 504.894 285.585 504.894C284.767 504.894 284.492 504.217 284.485 503.545V502.855ZM277.844 495.364C277.85 494.692 278.125 494.002 278.937 494.002C279.781 494.002 280.024 494.686 280.017 495.364V496.054C280.024 496.732 279.755 497.403 278.937 497.403C278.119 497.403 277.85 496.732 277.844 496.054V495.364Z" fill="black"/>
<path d="M72.178 743.899C71.838 743.236 71.073 742.199 70.393 741.451L69.526 741.944C70.172 742.709 70.92 743.78 71.26 744.477L72.178 743.899ZM63.78 753.878H59.139V749.56H63.78V753.878ZM61.791 745.191H65.31V744.069H61.791V740.873H60.584V748.404H58V755.986H59.139V755.034H63.78V755.901H64.953V748.404H61.791V745.191ZM71.498 747.044C71.039 748.455 70.342 749.849 69.475 751.09C69.22 749.883 69.016 748.421 68.846 746.789L72.756 746.228L72.586 745.14L68.744 745.701C68.625 744.188 68.54 742.556 68.506 740.873H67.316C67.384 742.624 67.469 744.307 67.588 745.871L65.191 746.228L65.361 747.299L67.69 746.976C67.894 749.016 68.166 750.835 68.54 752.297C67.52 753.47 66.347 754.439 65.089 755.051C65.412 755.272 65.803 755.663 66.007 755.952C67.044 755.357 68.03 754.541 68.931 753.589C69.509 755.272 70.325 756.258 71.396 756.309C72.059 756.326 72.671 755.595 73.028 752.977C72.807 752.858 72.331 752.569 72.11 752.314C71.974 753.98 71.736 754.898 71.379 754.881C70.784 754.847 70.24 753.98 69.832 752.518C70.954 751.022 71.872 749.305 72.467 747.571L71.498 747.044Z" fill="black"/>
<path d="M82.939 750.121C83.976 749.56 84.979 748.863 85.897 748.03C86.747 748.829 87.716 749.543 88.787 750.121H82.939ZM83.449 754.507V751.243H88.158V754.507H83.449ZM81.018 745.905C81.256 746.109 81.511 746.364 81.647 746.517C82.225 746.041 82.786 745.48 83.313 744.834C83.772 745.616 84.367 746.432 85.081 747.214C83.84 748.302 82.412 749.169 81.018 749.747V745.905ZM78.621 751.668V747.622H79.998V751.668H78.621ZM76.394 747.622H77.754V751.668H76.394V747.622ZM77.754 742.862V746.551H76.394V742.862H77.754ZM79.998 746.551H78.621V742.862H79.998V746.551ZM87.937 743.644C87.427 744.647 86.713 745.582 85.897 746.432C85.098 745.616 84.469 744.732 84.01 743.916L84.197 743.644H87.937ZM88.77 742.522L88.549 742.59H84.843C85.132 742.097 85.387 741.57 85.608 741.043L84.418 740.72C83.687 742.539 82.446 744.222 81.018 745.378V741.774H75.425V754.286H76.394V752.79H81.018V750.206C81.188 750.41 81.358 750.665 81.443 750.852C81.715 750.733 81.987 750.614 82.259 750.478V756.207H83.449V755.629H88.158V756.173H89.382V750.427C89.569 750.512 89.739 750.597 89.926 750.665C90.113 750.325 90.47 749.849 90.742 749.594C89.212 749.05 87.869 748.2 86.747 747.231C87.937 746.007 88.94 744.562 89.586 742.93L88.77 742.522Z" fill="black"/>
<path d="M236.51 742.909H234.254L231 744.999V747.173L234.062 745.217H234.138V756H236.51V742.909Z" fill="black"/>
<path d="M244.673 756.249C247.83 756.256 249.716 753.763 249.716 749.467C249.716 745.197 247.817 742.73 244.673 742.73C241.528 742.73 239.636 745.191 239.629 749.467C239.629 753.756 241.515 756.249 244.673 756.249ZM244.673 754.249C243.043 754.249 242.02 752.612 242.026 749.467C242.033 746.348 243.049 744.705 244.673 744.705C246.303 744.705 247.319 746.348 247.325 749.467C247.325 752.612 246.309 754.249 244.673 754.249Z" fill="black"/>
<path d="M252.781 756.141C253.535 756.141 254.181 755.514 254.187 754.734C254.181 753.967 253.535 753.341 252.781 753.341C252.001 753.341 251.368 753.967 251.375 754.734C251.368 755.514 252.001 756.141 252.781 756.141Z" fill="black"/>
<path d="M260.258 742.909H258.002L254.748 744.999V747.173L257.81 745.217H257.887V756H260.258V742.909Z" fill="black"/>
<path d="M268.421 756.249C271.578 756.256 273.464 753.763 273.464 749.467C273.464 745.197 271.566 742.73 268.421 742.73C265.276 742.73 263.384 745.191 263.377 749.467C263.377 753.756 265.263 756.249 268.421 756.249ZM268.421 754.249C266.791 754.249 265.768 752.612 265.774 749.467C265.781 746.348 266.797 744.705 268.421 744.705C270.051 744.705 271.067 746.348 271.073 749.467C271.073 752.612 270.057 754.249 268.421 754.249Z" fill="black"/>
<path d="M282.587 753.545C282.593 755.067 283.559 756.364 285.355 756.364C287.145 756.364 288.129 755.067 288.123 753.545V752.855C288.129 751.321 287.17 750.036 285.355 750.036C283.584 750.036 282.593 751.334 282.587 752.855V753.545ZM275.933 746.054C275.939 747.575 276.904 748.86 278.707 748.86C280.49 748.86 281.475 747.588 281.468 746.054V745.364C281.475 743.829 280.516 742.545 278.707 742.545C276.943 742.545 275.939 743.829 275.933 745.364V746.054ZM276.508 756H278.113L287.113 742.909H285.508L276.508 756ZM284.255 752.855C284.262 752.177 284.549 751.494 285.355 751.494C286.199 751.494 286.448 752.177 286.441 752.855V753.545C286.448 754.223 286.173 754.894 285.355 754.894C284.537 754.894 284.262 754.217 284.255 753.545V752.855ZM277.614 745.364C277.62 744.692 277.895 744.002 278.707 744.002C279.551 744.002 279.794 744.686 279.787 745.364V746.054C279.794 746.731 279.525 747.403 278.707 747.403C277.889 747.403 277.62 746.731 277.614 746.054V745.364Z" fill="black"/>
<path d="M260.51 542.909H258.254L255 544.999V547.173L258.062 545.217H258.138V556H260.51V542.909Z" fill="black"/>
<path d="M268.385 556.179C271.153 556.179 273.083 554.3 273.083 551.698C273.083 549.18 271.332 547.364 268.954 547.364C267.893 547.364 266.953 547.786 266.467 548.362H266.391L266.768 544.891H272.399V542.909H264.805L264.121 549.659L266.263 550.011C266.704 549.525 267.535 549.199 268.321 549.205C269.759 549.212 270.795 550.273 270.788 551.756C270.795 553.22 269.785 554.261 268.385 554.261C267.202 554.261 266.25 553.514 266.167 552.44H263.866C263.93 554.613 265.828 556.179 268.385 556.179Z" fill="black"/>
<path d="M282.224 553.546C282.23 555.067 283.195 556.364 284.991 556.364C286.781 556.364 287.766 555.067 287.759 553.546V552.855C287.766 551.321 286.807 550.036 284.991 550.036C283.221 550.036 282.23 551.334 282.224 552.855V553.546ZM275.57 546.054C275.576 547.575 276.541 548.86 278.344 548.86C280.127 548.86 281.112 547.588 281.105 546.054V545.364C281.112 543.83 280.153 542.545 278.344 542.545C276.58 542.545 275.576 543.83 275.57 545.364V546.054ZM276.145 556H277.749L286.749 542.909H285.145L276.145 556ZM283.892 552.855C283.898 552.178 284.186 551.494 284.991 551.494C285.835 551.494 286.085 552.178 286.078 552.855V553.546C286.085 554.223 285.81 554.894 284.991 554.894C284.173 554.894 283.898 554.217 283.892 553.546V552.855ZM277.251 545.364C277.257 544.693 277.532 544.002 278.344 544.002C279.188 544.002 279.43 544.686 279.424 545.364V546.054C279.43 546.732 279.162 547.403 278.344 547.403C277.526 547.403 277.257 546.732 277.251 546.054V545.364Z" fill="black"/>
<path d="M62.335 796.721H64.511V795.531H62.335V792.692C63.168 792.505 63.933 792.267 64.579 792.012L63.814 791.009C62.539 791.57 60.312 792.063 58.408 792.369C58.544 792.641 58.714 793.083 58.765 793.355C59.513 793.253 60.312 793.117 61.111 792.964V795.531H58.391V796.721H60.941C60.261 798.659 59.071 800.852 58 802.059C58.204 802.348 58.51 802.858 58.646 803.198C59.53 802.144 60.414 800.461 61.111 798.744V806.258H62.335V798.438C62.896 799.254 63.576 800.342 63.865 800.886L64.63 799.9C64.29 799.424 62.828 797.605 62.335 797.078V796.721ZM69.9 799.594V795.565H72.229V799.594H69.9ZM66.262 799.594V795.565H68.659V799.594H66.262ZM69.9 794.341V790.822H68.659V794.341H65.055V801.838H66.262V800.801H68.659V806.258H69.9V800.801H72.229V801.753H73.47V794.341H69.9Z" fill="black"/>
<path d="M91.252 798.319H84.248V796.653C86.135 795.633 88.362 794.052 89.807 792.59L88.889 791.893L88.583 791.961H77.686V793.185H87.257C86.271 794.035 84.962 794.936 83.755 795.599H82.956V798.319H75.935V799.577H82.956V804.66C82.956 804.966 82.854 805.051 82.48 805.068C82.123 805.085 80.865 805.085 79.505 805.034C79.726 805.391 79.947 805.969 80.049 806.326C81.664 806.343 82.769 806.309 83.398 806.105C84.027 805.901 84.248 805.51 84.248 804.66V799.577H91.252V798.319Z" fill="black"/>
<path d="M232.51 792.909H230.254L227 794.999V797.173L230.062 795.217H230.138V806H232.51V792.909Z" fill="black"/>
<path d="M240.673 806.249C243.83 806.256 245.716 803.763 245.716 799.467C245.716 795.197 243.817 792.73 240.673 792.73C237.528 792.73 235.636 795.191 235.629 799.467C235.629 803.756 237.515 806.249 240.673 806.249ZM240.673 804.249C239.043 804.249 238.02 802.612 238.026 799.467C238.033 796.348 239.049 794.705 240.673 794.705C242.303 794.705 243.319 796.348 243.325 799.467C243.325 802.612 242.309 804.249 240.673 804.249Z" fill="black"/>
<path d="M248.781 806.141C249.535 806.141 250.181 805.514 250.187 804.734C250.181 803.967 249.535 803.341 248.781 803.341C248.001 803.341 247.368 803.967 247.375 804.734C247.368 805.514 248.001 806.141 248.781 806.141Z" fill="black"/>
<path d="M252.551 806H261.525V804.018H255.823V803.929L258.08 801.634C260.624 799.192 261.327 798.003 261.327 796.527C261.327 794.334 259.544 792.73 256.91 792.73C254.315 792.73 252.474 794.341 252.474 796.827H254.73C254.73 795.491 255.574 794.654 256.878 794.654C258.124 794.654 259.051 795.415 259.051 796.648C259.051 797.741 258.387 798.521 257.095 799.832L252.551 804.287V806Z" fill="black"/>
<path d="M268.281 806.179C271.049 806.179 272.98 804.3 272.98 801.698C272.98 799.18 271.228 797.364 268.85 797.364C267.789 797.364 266.85 797.786 266.364 798.361H266.287L266.664 794.891H272.296V792.909H264.702L264.018 799.659L266.159 800.011C266.6 799.525 267.431 799.199 268.218 799.205C269.656 799.212 270.691 800.273 270.685 801.756C270.691 803.219 269.681 804.261 268.281 804.261C267.099 804.261 266.146 803.513 266.063 802.44H263.762C263.826 804.613 265.725 806.179 268.281 806.179Z" fill="black"/>
<path d="M282.12 803.545C282.127 805.067 283.092 806.364 284.888 806.364C286.678 806.364 287.662 805.067 287.656 803.545V802.855C287.662 801.321 286.703 800.036 284.888 800.036C283.117 800.036 282.127 801.334 282.12 802.855V803.545ZM275.466 796.054C275.472 797.575 276.438 798.86 278.24 798.86C280.024 798.86 281.008 797.588 281.002 796.054V795.364C281.008 793.829 280.049 792.545 278.24 792.545C276.476 792.545 275.472 793.829 275.466 795.364V796.054ZM276.041 806H277.646L286.646 792.909H285.041L276.041 806ZM283.789 802.855C283.795 802.177 284.083 801.494 284.888 801.494C285.732 801.494 285.981 802.177 285.975 802.855V803.545C285.981 804.223 285.706 804.894 284.888 804.894C284.07 804.894 283.795 804.217 283.789 803.545V802.855ZM277.147 795.364C277.154 794.692 277.428 794.002 278.24 794.002C279.084 794.002 279.327 794.686 279.32 795.364V796.054C279.327 796.731 279.058 797.403 278.24 797.403C277.422 797.403 277.154 796.731 277.147 796.054V795.364Z" fill="black"/>
<path d="M38 326H8C3.58172 326 0 329.582 0 334V364C0 368.418 3.58172 372 8 372H38C42.4183 372 46 368.418 46 364V334C46 329.582 42.4183 326 38 326Z" fill="#7F96E7"/>
<path d="M38 576H8C3.58172 576 0 579.582 0 584V614C0 618.418 3.58172 622 8 622H38C42.4183 622 46 618.418 46 614V584C46 579.582 42.4183 576 38 576Z" fill="#16308C"/>
<path d="M38 376H8C3.58172 376 0 379.582 0 384V414C0 418.418 3.58172 422 8 422H38C42.4183 422 46 418.418 46 414V384C46 379.582 42.4183 376 38 376Z" fill="#6B55EE"/>
<path d="M38 626H8C3.58172 626 0 629.582 0 634V664C0 668.418 3.58172 672 8 672H38C42.4183 672 46 668.418 46 664V634C46 629.582 42.4183 626 38 626Z" fill="#4F74F9"/>
<path d="M38 426H8C3.58172 426 0 429.582 0 434V464C0 468.418 3.58172 472 8 472H38C42.4183 472 46 468.418 46 464V434C46 429.582 42.4183 426 38 426Z" fill="#07AEC5"/>
<path d="M38 676H8C3.58172 676 0 679.582 0 684V714C0 718.418 3.58172 722 8 722H38C42.4183 722 46 718.418 46 714V684C46 679.582 42.4183 676 38 676Z" fill="#304FFE"/>
<path d="M38 476H8C3.58172 476 0 479.582 0 484V514C0 518.418 3.58172 522 8 522H38C42.4183 522 46 518.418 46 514V484C46 479.582 42.4183 476 38 476Z" fill="#0380A8"/>
<path d="M38 726H8C3.58172 726 0 729.582 0 734V764C0 768.418 3.58172 772 8 772H38C42.4183 772 46 768.418 46 764V734C46 729.582 42.4183 726 38 726Z" fill="#3856C2"/>
<path d="M38 526H8C3.58172 526 0 529.582 0 534V564C0 568.418 3.58172 572 8 572H38C42.4183 572 46 568.418 46 564V534C46 529.582 42.4183 526 38 526Z" fill="#2443AE"/>
<path d="M38 776H8C3.58172 776 0 779.582 0 784V814C0 818.418 3.58172 822 8 822H38C42.4183 822 46 818.418 46 814V784C46 779.582 42.4183 776 38 776Z" fill="#29C4DA"/>
<defs>
<clipPath id="clip0">
<rect width="280" height="280" fill="white" transform="translate(4)"/>
</clipPath>
</defs>
</svg>
