<svg width="991" height="288" viewBox="0 0 991 288" fill="none" xmlns="http://www.w3.org/2000/svg">
<g clip-path="url(#clip0)">
<path d="M54.2584 117.267C54.1485 117.267 54.0605 117.179 54.0605 117.069C54.0605 116.959 54.1485 116.871 54.2584 116.871C54.3683 116.871 54.4563 116.959 54.4563 117.069C54.4343 117.201 54.3463 117.267 54.2584 117.267C54.3683 117.267 54.4563 117.179 54.4563 117.069C54.4563 116.959 54.3683 116.871 54.2584 116.871C54.1485 116.871 54.0605 116.959 54.0605 117.069C54.0605 117.201 54.1485 117.267 54.2584 117.267Z" fill="black"/>
<path fill-rule="evenodd" clip-rule="evenodd" d="M54.2584 117.121C54.286 117.121 54.3096 117.098 54.3105 117.07C54.3104 117.07 54.3103 117.069 54.3102 117.069H54.2063C54.2063 117.097 54.2302 117.121 54.2584 117.121ZM54.224 117.03L54.2959 117.042C54.2935 117.039 54.2908 117.036 54.2878 117.033C54.2741 117.021 54.2624 117.018 54.2584 117.017C54.2579 117.017 54.2576 117.017 54.2573 117.017C54.2447 117.017 54.233 117.022 54.224 117.03ZM53.8105 117.069C53.8105 116.821 54.0104 116.621 54.2584 116.621C54.5064 116.621 54.7063 116.821 54.7063 117.069V117.089L54.7056 117.093C54.6929 117.33 54.4981 117.517 54.2584 117.517C54.1548 117.517 54.0401 117.485 53.9487 117.401C53.854 117.313 53.8105 117.193 53.8105 117.069Z" fill="black"/>
<path d="M143.912 143.736L99.5029 7.07882C114.606 2.17622 128.039 0.0437012 143.912 0.0437012V143.736Z" fill="#7F96E7"/>
<path fill-rule="evenodd" clip-rule="evenodd" d="M100.133 7.40064L143.412 140.579V0.544411C127.975 0.588365 114.835 2.67428 100.133 7.40064ZM99.3483 6.60324C114.501 1.68452 127.986 -0.456299 143.912 -0.456299H144.412V143.736L143.436 143.89L98.8726 6.75767L99.3483 6.60324Z" fill="#E9ECF9"/>
<path d="M143.978 144.088L99.437 7.0571L99.481 7.03511C114.65 2.11053 127.951 0 143.89 0H143.934V144.088H143.978ZM99.5689 7.12305L143.846 143.406V0.109924C127.951 0.109924 114.694 2.22046 99.5689 7.12305Z" fill="#7F96E7"/>
<path fill-rule="evenodd" clip-rule="evenodd" d="M100.199 7.44508L143.346 140.249V0.610625C127.892 0.654074 114.92 2.71891 100.199 7.44508ZM144.434 143.873V-0.5H143.89C127.899 -0.5 114.546 1.61882 99.3268 6.55955L99.2911 6.57113L98.8286 6.80235L143.434 144.032V144.588H144.666L144.434 143.873Z" fill="#E9ECF9"/>
<path d="M143.912 143.736L59.4463 27.5024C72.2854 18.1589 84.421 11.9812 99.5025 7.07861L143.912 143.736Z" fill="#29C4DA"/>
<path fill-rule="evenodd" clip-rule="evenodd" d="M99.8234 6.44849L144.387 143.581L143.507 144.03L58.748 27.3921L59.152 27.0981C72.0338 17.7235 84.2166 11.5219 99.3479 6.60308L99.8234 6.44849ZM60.1449 27.6132L142.461 140.888L99.1817 7.70935C84.5276 12.5191 72.657 18.5623 60.1449 27.6132Z" fill="#E9ECF9"/>
<path d="M144.066 144.066L143.868 143.78L59.3809 27.481L59.4248 27.459C72.3299 18.0715 84.3115 11.9597 99.503 7.03517L99.547 7.01318L99.569 7.05715L144.066 144.066ZM59.5347 27.503L143.758 143.428L99.481 7.16708C84.3555 12.0697 72.3958 18.1594 59.5347 27.503Z" fill="#29C4DA"/>
<path fill-rule="evenodd" clip-rule="evenodd" d="M99.7703 6.34229L100.033 6.86699L144.541 143.911L143.655 144.351L143.463 144.074L143.457 144.065L58.6294 27.2975L59.164 27.0302C72.0886 17.633 84.1012 11.5057 99.3128 6.57108L99.7703 6.34229ZM142.307 140.58L99.1599 7.79737C84.4667 12.6053 72.7636 18.5644 60.2333 27.6141L142.307 140.58Z" fill="#E9ECF9"/>
<path d="M143.912 143.736L17.0381 76.2866C27.4808 56.6762 41.4631 40.5614 59.4466 27.5024L143.912 143.736Z" fill="#07AEC5"/>
<path fill-rule="evenodd" clip-rule="evenodd" d="M59.557 26.8042L144.316 143.442L143.677 144.177L16.3613 76.4932L16.5965 76.0516C27.0747 56.3746 41.1073 40.2017 59.1526 27.0979L59.557 26.8042ZM17.715 76.0804L142.234 142.278L59.3362 28.2014C41.7435 41.0646 28.0179 56.8827 17.715 76.0804Z" fill="#E9ECF9"/>
<path d="M144.088 143.912L16.9722 76.3091L16.9942 76.2651C22.1826 66.5039 28.3822 57.4681 35.3734 49.3998C42.3865 41.3314 50.4769 33.9665 59.4247 27.459L59.4687 27.437L144.088 143.912ZM17.1041 76.2651L143.714 143.582L59.4467 27.5689C50.5209 34.0544 42.4525 41.4193 35.4613 49.4657C28.4702 57.5121 22.2925 66.5259 17.1041 76.2651Z" fill="#07AEC5"/>
<path fill-rule="evenodd" clip-rule="evenodd" d="M59.6243 26.8003L144.493 143.618L143.853 144.354L16.3071 76.5216L16.5527 76.0303C21.7585 66.2365 27.9796 57.1696 34.9957 49.0723C42.0349 40.974 50.154 33.5832 59.1308 27.0546L59.1643 27.0303L59.6243 26.8003ZM142.037 142.124L59.3368 28.2681C50.601 34.6602 42.6988 41.8984 35.839 49.7936C28.979 57.6891 22.9038 66.5209 17.7816 76.0589L142.037 142.124Z" fill="#E9ECF9"/>
<path d="M143.912 143.736L1.62663 163.742C-2.7923 132.304 2.15426 104.317 17.0379 76.2866L143.912 143.736Z" fill="#0380A8"/>
<path fill-rule="evenodd" clip-rule="evenodd" d="M16.8309 75.6104L145.505 144.017L1.20108 164.307L1.13148 163.811C-3.30217 132.269 1.66327 104.176 16.5963 76.0522L16.8309 75.6104ZM17.2456 76.9633C2.67114 104.606 -2.20752 132.21 2.05287 163.177L142.318 143.455L17.2456 76.9633Z" fill="#E9ECF9"/>
<path d="M1.58292 163.808V163.764C-0.659523 147.891 -0.50563 133.161 2.02261 118.739C4.57284 104.317 9.45345 90.4231 16.9942 76.2649L17.0162 76.2209L17.0602 76.2429L144.088 143.78L143.912 143.802L1.58292 163.808ZM17.0602 76.3529C9.56338 90.489 4.68277 104.339 2.13254 118.739C-0.417691 133.139 -0.5496 147.847 1.67086 163.676L143.736 143.714L17.0602 76.3529Z" fill="#0380A8"/>
<path fill-rule="evenodd" clip-rule="evenodd" d="M16.7926 75.5503L17.295 75.8014L145.718 144.08L143.982 144.297L143.974 144.298L1.08292 164.383V163.799C-1.16107 147.892 -1.00608 133.121 1.53012 118.653C4.08989 104.177 8.98823 90.2343 16.5499 76.0357L16.7926 75.5503ZM142.143 143.433L17.268 77.0298C9.92567 90.9707 5.13859 104.633 2.62488 118.827C0.111326 133.02 -0.0448754 147.518 2.09724 163.112L142.143 143.433Z" fill="#E9ECF9"/>
<path d="M143.912 143.736L76.4625 270.61C34.4057 248.273 8.24387 210.899 1.62646 163.742L143.912 143.736Z" fill="#2443AE"/>
<path fill-rule="evenodd" clip-rule="evenodd" d="M144.814 143.104L76.6695 271.286L76.2281 271.051C34.0298 248.64 7.77112 211.127 1.13148 163.812L1.06201 163.317L144.814 143.104ZM2.19199 164.168C8.8766 210.768 34.7459 247.724 76.2561 269.933L143.01 144.368L2.19199 164.168Z" fill="#E9ECF9"/>
<path d="M76.485 270.698L76.441 270.676C55.5116 259.552 38.4514 244.69 25.7223 226.531C12.9931 208.349 4.85874 187.222 1.56104 163.742V163.698H1.605L144 143.692L143.956 143.78L76.485 270.698ZM1.67096 163.786C4.96867 187.222 13.081 208.305 25.7882 226.443C38.4954 244.58 55.5336 259.42 76.419 270.544L143.802 143.824L1.67096 163.786Z" fill="#2443AE"/>
<path fill-rule="evenodd" clip-rule="evenodd" d="M144.873 143.065L144.398 144.015L76.6975 271.364L76.2063 271.118C55.2119 259.959 38.0902 245.046 25.3128 226.818C12.5354 208.567 4.37383 187.364 1.06589 163.812L1.06104 163.777V163.198H1.57006L144.873 143.065ZM2.23652 164.212C5.56812 187.377 13.6284 208.215 26.1977 226.156C38.7671 244.097 55.5932 258.804 76.2128 269.867L142.9 144.456L2.23652 164.212Z" fill="#E9ECF9"/>
<path d="M143.912 143.736L92.4233 277.887C86.4874 275.622 82.0685 273.6 76.4624 270.61L143.912 143.736Z" fill="#16308C"/>
<path fill-rule="evenodd" clip-rule="evenodd" d="M77.1387 270.403C82.3736 273.178 86.6068 275.115 92.1357 277.241L140.515 151.19L77.1387 270.403ZM143.47 143.501L144.378 143.915L92.7114 278.532L92.2452 278.354C86.2892 276.082 81.8513 274.051 76.2272 271.051L75.7866 270.816L143.47 143.501Z" fill="#E9ECF9"/>
<path d="M92.4458 277.975L92.4019 277.953C86.488 275.688 82.0251 273.644 76.4409 270.676L76.397 270.654L76.419 270.61L143.868 143.736L143.978 143.78L92.4458 277.975ZM76.5289 270.588C82.069 273.534 86.5319 275.557 92.3799 277.821L143.538 144.572L76.5289 270.588Z" fill="#16308C"/>
<path fill-rule="evenodd" clip-rule="evenodd" d="M143.637 143.105L144.622 143.499L92.7151 278.668L92.2002 278.411C86.2798 276.143 81.8036 274.092 76.2119 271.12L75.7261 270.878L75.9773 270.375L143.637 143.105ZM140.141 152.026L77.2054 270.381C82.3776 273.113 86.6446 275.048 92.093 277.173L140.141 152.026Z" fill="#E9ECF9"/>
<path d="M143.912 143.736L222.177 264.256C182.253 290.198 136.876 294.947 92.4233 277.886L143.912 143.736Z" fill="#4F74F9"/>
<path fill-rule="evenodd" clip-rule="evenodd" d="M143.796 142.64L222.869 264.403L222.45 264.675C182.391 290.704 136.847 295.471 92.2442 278.353L91.7773 278.174L143.796 142.64ZM144.027 144.831L93.0695 277.598C137.068 294.33 181.937 289.634 221.485 264.108L144.027 144.831Z" fill="#E9ECF9"/>
<path d="M144.857 288C127.402 288 109.814 284.636 92.4019 277.953L92.3579 277.931L92.3799 277.887L143.912 143.648L143.978 143.736L222.266 264.3L222.222 264.322C202.348 277.227 181.066 284.944 159.016 287.274C154.289 287.758 149.584 288 144.857 288ZM92.4898 277.865C114.584 286.329 136.965 289.451 158.994 287.143C181.022 284.834 202.26 277.118 222.112 264.234L143.934 143.868L92.4898 277.865Z" fill="#4F74F9"/>
<path fill-rule="evenodd" clip-rule="evenodd" d="M143.769 142.625L144.388 143.45L222.99 264.497L222.47 264.757C202.541 277.693 181.193 285.433 159.068 287.772L159.066 287.772C154.323 288.257 149.601 288.5 144.857 288.5C127.336 288.5 109.688 285.124 92.2226 278.42L92.1998 278.411L91.687 278.154L91.9217 277.685L143.769 142.625ZM221.419 264.087L144.049 144.963L93.1361 277.576C115.01 285.88 137.152 288.929 158.941 286.645C180.731 284.362 201.749 276.767 221.419 264.087Z" fill="#E9ECF9"/>
<path d="M143.912 143.736L281.316 101.723C300.487 164.401 277.139 228.553 222.155 264.234L143.912 143.736Z" fill="#304FFE"/>
<path fill-rule="evenodd" clip-rule="evenodd" d="M281.648 101.099L281.794 101.577C301.03 164.469 277.598 228.851 222.427 264.654L222.008 264.926L143.131 143.452L281.648 101.099ZM144.692 144.02L222.302 263.542C276.659 228.02 299.776 164.501 280.983 102.348L144.692 144.02Z" fill="#E9ECF9"/>
<path d="M222.156 264.322L222.134 264.278L143.824 143.714L143.89 143.692L281.361 101.657L281.383 101.701C286.109 117.135 288.308 132.898 287.956 148.529C287.604 163.852 284.79 178.846 279.602 193.114C274.414 207.382 266.917 220.661 257.353 232.62C247.57 244.822 235.764 255.485 222.2 264.278L222.156 264.322ZM144 143.78L222.2 264.191C235.72 255.397 247.504 244.778 257.265 232.599C266.829 220.639 274.326 207.36 279.514 193.114C284.702 178.868 287.516 163.874 287.868 148.573C288.22 132.964 286.021 117.245 281.317 101.833L144 143.78Z" fill="#304FFE"/>
<path d="M143.911 143.736L228.376 27.4805C254.318 46.3214 271.95 71.0542 281.337 101.723L143.911 143.736Z" fill="#3856C2"/>
<path fill-rule="evenodd" clip-rule="evenodd" d="M228.265 26.7822L228.67 27.076C254.7 45.9808 272.396 70.8043 281.815 101.577L281.962 102.055L142.628 144.651L228.265 26.7822ZM228.486 28.1795L145.194 142.821L280.712 101.391C271.369 71.2063 253.985 46.8211 228.486 28.1795Z" fill="#E9ECF9"/>
<path d="M143.78 143.846L143.868 143.714L228.355 27.415L228.399 27.437C241.304 36.8245 252.318 47.8169 261.09 60.1283C269.884 72.4398 276.699 86.4221 281.36 101.701L281.382 101.745L143.78 143.846ZM228.377 27.5689L144.044 143.648L281.25 101.701C276.59 86.466 269.774 72.5057 261.002 60.2163C252.252 47.9268 241.26 36.9344 228.377 27.5689Z" fill="#3856C2"/>
<path fill-rule="evenodd" clip-rule="evenodd" d="M228.2 26.7783L228.66 27.0083L228.693 27.0327C241.639 36.4498 252.692 47.48 261.498 59.8382C270.317 72.1852 277.151 86.203 281.826 101.515L282.094 102.051L142.587 144.734L143.457 143.429L228.2 26.7783ZM280.625 101.37C275.984 86.3691 269.243 72.6214 260.595 60.5067C251.97 48.3924 241.155 37.5392 228.487 28.2681L145.326 142.733L280.625 101.37Z" fill="#E9ECF9"/>
<path d="M143.913 143.737V0.0446777C176.45 0.0446777 202.041 8.35491 228.378 27.4816L143.913 143.737Z" fill="#6B55EE"/>
<path fill-rule="evenodd" clip-rule="evenodd" d="M143.413 -0.455322H143.913C176.556 -0.455322 202.249 7.88832 228.672 27.0771L229.077 27.3709L143.413 145.276V-0.455322ZM144.413 0.545335V142.198L227.68 27.5929C201.705 8.83408 176.441 0.629687 144.413 0.545335Z" fill="#E9ECF9"/>
<path d="M143.868 143.912V0H143.912C160.335 0 174.911 2.13252 188.497 6.55145C202.062 10.9704 215.121 17.8076 228.421 27.4589L228.465 27.4809L143.868 143.912ZM143.978 0.109924V143.582L228.312 27.5249C215.055 17.8956 202.018 11.0803 188.475 6.66137C174.933 2.24244 160.357 0.109924 143.978 0.109924Z" fill="#6B55EE"/>
<path fill-rule="evenodd" clip-rule="evenodd" d="M143.368 -0.5H143.912C160.379 -0.5 175.008 1.63848 188.652 6.07597C202.262 10.5096 215.357 17.3654 228.682 27.0301L229.217 27.2976L143.368 145.451V-0.5ZM227.613 27.6361C214.532 18.1881 201.669 11.4924 188.32 7.13671C174.973 2.78144 160.609 0.653607 144.478 0.61059V142.044L227.613 27.6361Z" fill="#E9ECF9"/>
</g>
<g style="mix-blend-mode:multiply" opacity="0.19">
<path d="M205.377 144C205.377 177.898 177.898 205.377 144 205.377C110.102 205.377 82.623 177.898 82.623 144C82.623 110.102 110.102 82.623 144 82.623C177.898 82.623 205.377 110.102 205.377 144Z" fill="#19234D"/>
</g>
<path d="M200.656 144C200.656 175.29 175.291 200.656 144 200.656C112.71 200.656 87.3447 175.29 87.3447 144C87.3447 112.71 112.71 87.3442 144 87.3442C175.291 87.3442 200.656 112.71 200.656 144Z" fill="#E9ECF9"/>
<path d="M472.423 15.2641C471.42 17.7631 469.754 20.1941 467.901 21.7241C468.258 21.9111 468.836 22.3871 469.108 22.6251C470.91 20.9591 472.661 18.3751 473.8 15.6551L472.423 15.2641ZM477.37 24.5801C478.169 25.5321 479.036 26.6881 479.801 27.7931C477.234 27.9121 474.616 28.0311 472.321 28.1161C473.443 26.1101 474.667 23.4581 475.585 21.2651L474.123 20.9081C473.392 23.1011 472.049 26.1101 470.91 28.1841C470.06 28.2011 469.278 28.2351 468.581 28.2521L468.751 29.5781C471.777 29.4251 476.299 29.2211 480.583 28.9661C480.906 29.4761 481.195 29.9691 481.416 30.3771L482.657 29.6801C481.824 28.1671 480.09 25.8041 478.543 24.0361L477.37 24.5801ZM477.2 15.7741C478.492 18.1541 480.617 20.9931 482.181 22.6251C482.436 22.2851 482.895 21.7921 483.235 21.5541C481.688 20.1261 479.563 17.4741 478.424 15.2641L477.2 15.7741Z" fill="black"/>
<path d="M490.137 25.8041C489.185 27.0791 487.281 28.5581 485.615 29.4251C485.921 29.6631 486.38 30.0711 486.618 30.3261C488.318 29.3401 490.239 27.7761 491.446 26.3141L490.137 25.8041ZM494.489 26.4331C496.087 27.6231 498.127 29.3061 499.13 30.3091L500.32 29.5271C499.249 28.5241 497.141 26.8921 495.577 25.7871L494.489 26.4331ZM490.596 19.5821H495.424V23.5941H490.596V19.5821ZM496.716 23.5941V19.5821H500.082V18.3581H496.716V14.9241H495.424V18.3581H490.596V14.9241H489.321V18.3581H486.091V19.5821H489.321V23.5941H485.411V24.8181H500.694V23.5941H496.716Z" fill="black"/>
<path d="M612.714 30.1789C615.482 30.1789 617.413 28.2997 617.413 25.6981C617.413 23.1796 615.661 21.3643 613.283 21.3643C612.222 21.3643 611.283 21.7862 610.797 22.3614H610.72L611.097 18.8906H616.729V16.909H609.135L608.451 23.659L610.592 24.0106C611.033 23.5248 611.864 23.1988 612.651 23.2052C614.089 23.2116 615.124 24.2727 615.118 25.7556C615.124 27.2194 614.114 28.2613 612.714 28.2613C611.532 28.2613 610.58 27.5134 610.496 26.4396H608.195C608.259 28.6129 610.158 30.1789 612.714 30.1789Z" fill="black"/>
<path d="M626.553 27.5454C626.56 29.0667 627.525 30.3643 629.321 30.3643C631.111 30.3643 632.095 29.0667 632.089 27.5454V26.855C632.095 25.321 631.136 24.0362 629.321 24.0362C627.55 24.0362 626.56 25.3337 626.553 26.855V27.5454ZM619.899 20.0539C619.906 21.5752 620.871 22.86 622.673 22.86C624.457 22.86 625.441 21.588 625.435 20.0539V19.3636C625.441 17.8295 624.482 16.5447 622.673 16.5447C620.909 16.5447 619.906 17.8295 619.899 19.3636V20.0539ZM620.474 29.9999H622.079L631.079 16.909H629.474L620.474 29.9999ZM628.222 26.855C628.228 26.1775 628.516 25.4935 629.321 25.4935C630.165 25.4935 630.414 26.1775 630.408 26.855V27.5454C630.414 28.2229 630.139 28.8941 629.321 28.8941C628.503 28.8941 628.228 28.2166 628.222 27.5454V26.855ZM621.58 19.3636C621.587 18.6924 621.862 18.0021 622.673 18.0021C623.517 18.0021 623.76 18.686 623.754 19.3636V20.0539C623.76 20.7315 623.491 21.4026 622.673 21.4026C621.855 21.4026 621.587 20.7315 621.58 20.0539V19.3636Z" fill="black"/>
<path d="M826.248 18.324V26.331H827.336V19.327H831.416V26.331H832.555V18.324H829.342C829.58 17.814 829.852 17.202 830.09 16.624H833.099V15.536H825.857V16.624H828.849C828.679 17.168 828.458 17.814 828.271 18.324H826.248ZM825.194 16.556V15.451H818.751V22.081C818.751 24.41 818.666 27.504 817.646 29.68C817.918 29.799 818.394 30.139 818.598 30.36C819.72 28.048 819.89 24.546 819.89 22.064V16.556H825.194ZM824.939 18.46H820.876V27.844C820.876 28.439 820.587 28.626 820.332 28.728C820.519 29 820.689 29.544 820.757 29.816C821.046 29.561 821.539 29.289 824.854 27.776C824.786 27.538 824.684 27.096 824.667 26.773L821.964 27.946V19.531H823.902V23.849C823.902 24.002 823.868 24.053 823.715 24.053C823.562 24.07 823.12 24.07 822.559 24.053C822.695 24.342 822.831 24.733 822.865 25.039C823.63 25.039 824.174 25.022 824.497 24.852C824.854 24.665 824.939 24.376 824.939 23.866V18.46ZM829.869 20.636H828.781V24.019C828.781 25.753 828.424 28.099 825.16 29.493C825.398 29.68 825.721 30.071 825.874 30.326C829.41 28.711 829.869 26.144 829.869 24.036V20.636ZM829.58 27.572C830.634 28.337 831.926 29.476 832.538 30.224L833.252 29.425C832.64 28.694 831.297 27.606 830.26 26.875L829.58 27.572Z" fill="black"/>
<path d="M836.142 30.309H837.383V18.596H836.142V30.309ZM836.329 15.604C837.179 16.488 838.301 17.712 838.845 18.443L839.78 17.746C839.236 17.032 838.097 15.859 837.247 15.009L836.329 15.604ZM844.71 21.061V24.971H841.157V21.061H844.71ZM845.934 26.127V19.905H840.001V27.215H841.157V26.127H845.934ZM849.878 15.74H840.562V16.913H848.637V28.524C848.637 28.813 848.535 28.915 848.229 28.932C847.957 28.932 846.937 28.949 845.917 28.898C846.087 29.255 846.291 29.816 846.342 30.173C847.719 30.19 848.62 30.156 849.164 29.952C849.691 29.731 849.878 29.357 849.878 28.541V15.74Z" fill="black"/>
<path d="M927.164 29.9999H936.138V28.0184H930.436V27.9289L932.693 25.6342C935.237 23.1924 935.94 22.0035 935.94 20.5269C935.94 18.3345 934.157 16.73 931.523 16.73C928.928 16.73 927.087 18.3408 927.087 20.8274H929.343C929.343 19.4914 930.187 18.6541 931.491 18.6541C932.737 18.6541 933.664 19.4147 933.664 20.6484C933.664 21.7414 933 22.5212 931.708 23.8316L927.164 28.2869V29.9999Z" fill="black"/>
<path d="M945.343 27.5454C945.349 29.0667 946.314 30.3643 948.11 30.3643C949.9 30.3643 950.885 29.0667 950.878 27.5454V26.855C950.885 25.321 949.926 24.0362 948.11 24.0362C946.34 24.0362 945.349 25.3337 945.343 26.855V27.5454ZM938.688 20.0539C938.695 21.5752 939.66 22.86 941.463 22.86C943.246 22.86 944.23 21.588 944.224 20.0539V19.3636C944.23 17.8295 943.272 16.5447 941.463 16.5447C939.698 16.5447 938.695 17.8295 938.688 19.3636V20.0539ZM939.264 29.9999H940.868L949.868 16.909H948.264L939.264 29.9999ZM947.011 26.855C947.017 26.1775 947.305 25.4935 948.11 25.4935C948.954 25.4935 949.203 26.1775 949.197 26.855V27.5454C949.203 28.2229 948.929 28.8941 948.11 28.8941C947.292 28.8941 947.017 28.2166 947.011 27.5454V26.855ZM940.37 19.3636C940.376 18.6924 940.651 18.0021 941.463 18.0021C942.306 18.0021 942.549 18.686 942.543 19.3636V20.0539C942.549 20.7315 942.281 21.4026 941.463 21.4026C940.644 21.4026 940.376 20.7315 940.37 20.0539V19.3636Z" fill="black"/>
<path d="M472.712 82.0979C474.99 81.9959 478.237 81.8259 481.348 81.6729C481.688 82.0979 481.96 82.5059 482.164 82.8459L483.201 82.2339C482.589 81.1969 481.229 79.7349 480.039 78.6979L479.053 79.2589C479.512 79.6669 480.005 80.1429 480.447 80.6359C478.866 80.6869 477.268 80.7549 475.823 80.8059C476.333 79.9899 476.877 79.0039 477.336 78.1199H483.116V76.9809H478.135V74.7879H476.86V76.9809H472.372V78.1199H475.891C475.534 79.0039 475.024 80.0579 474.531 80.8569C473.817 80.8739 473.154 80.8909 472.576 80.9079L472.712 82.0979ZM472.338 76.7429C471.692 76.1309 470.349 75.3829 469.278 74.9239L468.598 75.8419C469.669 76.3349 470.978 77.1509 471.607 77.7459L472.338 76.7429ZM471.505 81.1629C470.825 80.6019 469.465 79.8879 468.394 79.4629L467.697 80.4149C468.802 80.8739 470.128 81.6389 470.791 82.2169L471.505 81.1629ZM471.216 83.7639C470.298 85.7019 469.057 87.9289 468.207 89.2549L469.278 90.0539C470.213 88.4729 471.335 86.3479 472.168 84.5459L471.216 83.7639ZM473.902 84.5119C473.902 86.0759 473.681 87.9969 471.607 89.4249C471.879 89.6289 472.321 90.0199 472.508 90.2579C474.769 88.6259 475.058 86.4159 475.058 84.5459V82.7609H473.902V84.5119ZM476.86 89.5609H477.982V82.8629H476.86V89.5609ZM481.399 89.0169C481.28 89.0169 481.178 88.9999 481.11 88.9489C481.025 88.8639 481.025 88.6939 481.025 88.3539V82.7609H479.852V88.2349C479.852 89.2549 479.937 89.5099 480.175 89.7479C480.413 89.9519 480.787 90.0369 481.11 90.0369H481.943C482.232 90.0369 482.572 89.9689 482.742 89.8499C482.98 89.7139 483.116 89.5099 483.201 89.1869C483.303 88.8809 483.354 87.9969 483.371 87.2489C483.065 87.1469 482.691 86.9599 482.487 86.7899C482.47 87.5889 482.453 88.2009 482.419 88.4729C482.385 88.7449 482.317 88.8809 482.249 88.9319C482.164 88.9999 482.028 89.0169 481.875 89.0169H481.399Z" fill="black"/>
<path d="M492.619 76.1649H486.091V77.3039H492.619V76.1649ZM493.214 87.5039C492.891 86.3139 492.143 84.3249 491.497 82.8119L490.443 83.1009C490.783 83.8999 491.123 84.8179 491.429 85.6849L487.4 86.5349C488.063 85.0049 488.692 83.1349 489.134 81.3499H492.908V80.1939H485.479V81.3499H487.825C487.4 83.3219 486.686 85.3109 486.448 85.8719C486.176 86.5009 485.955 86.9599 485.683 87.0279C485.819 87.3509 486.023 87.9459 486.074 88.2009C486.074 88.1839 486.074 88.1669 486.091 88.1499V88.2179C486.482 87.9799 487.094 87.7929 491.786 86.7389C491.905 87.1639 492.007 87.5549 492.092 87.8609L493.214 87.5039ZM496.784 78.6809C496.818 77.4909 496.835 76.2669 496.835 75.0599H495.594C495.594 76.2669 495.594 77.4909 495.543 78.6809H493.129V79.8879H495.492C495.288 83.7469 494.608 87.2659 492.313 89.3739C492.636 89.5609 493.078 89.9859 493.299 90.2919C495.781 87.9119 496.495 84.0699 496.733 79.8879H499.266C499.079 85.9059 498.841 88.1329 498.399 88.6259C498.229 88.8469 498.042 88.8979 497.753 88.8809C497.379 88.8809 496.495 88.8809 495.543 88.7959C495.764 89.1529 495.9 89.6629 495.934 90.0369C496.835 90.0879 497.753 90.1049 498.28 90.0539C498.824 89.9859 499.147 89.8499 499.504 89.4079C500.082 88.6599 500.286 86.2629 500.507 79.3099C500.507 79.1399 500.524 78.6809 500.524 78.6809H496.784Z" fill="black"/>
<path d="M507.715 77.1169C506.933 76.5389 505.369 75.8079 504.145 75.3829L503.516 76.2669C504.74 76.7259 506.287 77.5079 507.052 78.1029L507.715 77.1169ZM507.817 79.0889C505.981 79.6669 504.145 80.2449 502.921 80.5849L503.278 81.7579C504.638 81.3159 506.372 80.7379 508.004 80.1939L507.817 79.0889ZM516.062 87.2829V82.6929H505.165V87.4019H506.406V83.8489H514.787V87.2829H516.062ZM510.078 84.3419C509.568 87.1469 508.293 88.6429 502.921 89.3059C503.125 89.5609 503.397 90.0539 503.482 90.3429C509.177 89.5439 510.741 87.7249 511.302 84.3419H510.078ZM510.792 87.6909C512.9 88.3879 515.705 89.4929 517.116 90.2409L517.864 89.2039C516.385 88.4559 513.563 87.4189 511.489 86.7729L510.792 87.6909ZM516.028 77.3379C515.756 77.8819 515.501 78.4429 515.246 78.8339L516.351 79.1569C516.759 78.4939 517.286 77.4739 517.711 76.5389L516.793 76.2839L516.589 76.3349H510.843C511.081 75.8929 511.285 75.4509 511.455 75.0089L510.248 74.8389C509.823 76.0119 508.939 77.4399 507.579 78.4939C507.851 78.6469 508.259 78.9869 508.463 79.2759C509.177 78.6809 509.755 78.0179 510.231 77.3379H512.237C511.744 79.0889 510.588 80.6359 507.579 81.4519C507.817 81.6729 508.14 82.0979 508.259 82.3699C510.605 81.6729 511.931 80.5679 512.73 79.1909C513.801 80.6359 515.45 81.7239 517.337 82.2509C517.507 81.9449 517.83 81.4859 518.102 81.2649C515.977 80.8059 514.158 79.6669 513.223 78.2049C513.325 77.9159 513.427 77.6439 513.512 77.3379H516.028Z" fill="black"/>
<path d="M523.984 79.9219C525.65 78.6639 527.078 77.2529 527.962 75.9779C528.948 77.3039 530.478 78.7149 532.144 79.9219H523.984ZM528.608 84.4269H534.439V83.3219H528.608V81.0439H532.246V79.9899C533.181 80.6699 534.15 81.2819 535.085 81.7579C535.289 81.3839 535.595 80.9589 535.901 80.6359C533.266 79.4629 530.325 77.1849 528.523 74.7539H527.265C525.939 76.8789 523.151 79.3779 520.227 80.8569C520.499 81.1119 520.856 81.5539 520.992 81.8429C521.961 81.3329 522.913 80.7209 523.797 80.0749V81.0439H527.299V83.3219H521.604V84.4269H527.299V88.6259H520.839V89.7479H535.255V88.6259H528.608V84.4269ZM523.015 85.2769C523.678 86.2459 524.341 87.5549 524.562 88.4049L525.65 87.9289C525.412 87.0789 524.732 85.8209 524.035 84.8859L523.015 85.2769ZM530.954 88.4049C531.6 87.6059 532.399 86.3819 533.028 85.3109L531.838 84.8519C531.413 85.8039 530.631 87.1469 530.019 87.9799L530.954 88.4049Z" fill="black"/>
<path d="M543.787 82.8181C543.787 85.8486 544.596 88.3721 546.13 90.5212H547.784C546.595 88.9275 545.659 85.6917 545.659 82.8181C545.659 79.9505 546.595 76.7148 547.784 75.121H546.13C544.596 77.2701 543.787 79.7936 543.787 82.8181Z" fill="black"/>
<path d="M550.342 76.6363V88.9999H552.117V80.0471H552.231L555.878 88.9818H557.351L560.997 80.0532H561.112V88.9999H562.887V76.6363H560.623L556.687 86.2471H556.542L552.606 76.6363H550.342Z" fill="black"/>
<path d="M566.109 76.6363V88.9999H567.884V80.0471H567.998L571.645 88.9818H573.118L576.764 80.0532H576.879V88.9999H578.653V76.6363H576.39L572.454 86.2471H572.309L568.373 76.6363H566.109Z" fill="black"/>
<path d="M585.202 82.8241C585.202 79.7936 584.393 77.2701 582.86 75.121H581.205C582.395 76.7148 583.33 79.9505 583.33 82.8241C583.33 85.6917 582.395 88.9275 581.205 90.5212H582.86C584.393 88.3721 585.202 85.8486 585.202 82.8241Z" fill="black"/>
<path d="M612.714 90.1789C615.482 90.1789 617.413 88.2997 617.413 85.6981C617.413 83.1796 615.661 81.3643 613.283 81.3643C612.222 81.3643 611.283 81.7862 610.797 82.3614H610.72L611.097 78.8906H616.729V76.909H609.135L608.451 83.659L610.592 84.0106C611.033 83.5248 611.864 83.1988 612.651 83.2052C614.089 83.2116 615.124 84.2727 615.118 85.7556C615.124 87.2194 614.114 88.2613 612.714 88.2613C611.532 88.2613 610.58 87.5134 610.496 86.4396H608.195C608.259 88.6129 610.158 90.1789 612.714 90.1789Z" fill="black"/>
<path d="M626.553 87.5454C626.56 89.0667 627.525 90.3643 629.321 90.3643C631.111 90.3643 632.095 89.0667 632.089 87.5454V86.855C632.095 85.321 631.136 84.0362 629.321 84.0362C627.55 84.0362 626.56 85.3337 626.553 86.855V87.5454ZM619.899 80.0539C619.906 81.5752 620.871 82.86 622.673 82.86C624.457 82.86 625.441 81.588 625.435 80.0539V79.3636C625.441 77.8295 624.482 76.5447 622.673 76.5447C620.909 76.5447 619.906 77.8295 619.899 79.3636V80.0539ZM620.474 89.9999H622.079L631.079 76.909H629.474L620.474 89.9999ZM628.222 86.855C628.228 86.1775 628.516 85.4935 629.321 85.4935C630.165 85.4935 630.414 86.1775 630.408 86.855V87.5454C630.414 88.2229 630.139 88.8941 629.321 88.8941C628.503 88.8941 628.228 88.2166 628.222 87.5454V86.855ZM621.58 79.3636C621.587 78.6924 621.862 78.0021 622.673 78.0021C623.517 78.0021 623.76 78.686 623.754 79.3636V80.0539C623.76 80.7315 623.491 81.4026 622.673 81.4026C621.855 81.4026 621.587 80.7315 621.58 80.0539V79.3636Z" fill="black"/>
<path d="M830.192 79.5481H827.574V77.4061H826.35V79.5481H820.893V80.6871H825.942C824.565 82.5401 822.525 84.2231 820.638 85.2431C820.927 85.4641 821.284 85.8551 821.454 86.0931C823.137 85.1411 824.939 83.7301 826.35 82.1151V86.0591C826.35 86.2631 826.282 86.3311 826.061 86.3311C825.857 86.3481 825.126 86.3481 824.361 86.3311C824.531 86.6541 824.718 87.1301 824.769 87.4701C825.874 87.4701 826.554 87.4361 826.979 87.2321C827.438 87.0451 827.574 86.7221 827.574 86.0591V80.6871H830.192V79.5481ZM819.771 88.4561V76.6921H831.178V88.4561H819.771ZM818.496 75.5191V90.3091H819.771V89.6121H831.178V90.3091H832.504V75.5191H818.496Z" fill="black"/>
<path d="M840.902 75.4171L840.698 75.4681H836.278V90.2751H837.485V76.6241H840.171C839.797 77.7631 839.253 79.2421 838.726 80.4661C840.035 81.7921 840.392 82.9481 840.392 83.8661C840.392 84.3761 840.29 84.8181 840.018 85.0051C839.848 85.1071 839.661 85.1581 839.44 85.1581C839.168 85.1751 838.811 85.1751 838.403 85.1411C838.607 85.4811 838.726 85.9911 838.743 86.3311C839.151 86.3481 839.593 86.3481 839.967 86.3141C840.307 86.2631 840.63 86.1611 840.885 85.9741C841.395 85.6341 841.599 84.8861 841.599 83.9681C841.599 82.9311 841.293 81.6901 839.984 80.2961C840.579 78.9701 841.242 77.3381 841.786 75.9611L840.902 75.4171ZM845.067 74.7881C845.05 80.5681 845.135 86.5011 840.341 89.4081C840.698 89.6461 841.106 90.0371 841.31 90.3431C843.877 88.6941 845.135 86.2291 845.747 83.3561C846.376 85.7531 847.6 88.6771 850.065 90.3091C850.252 89.9861 850.643 89.6121 850.983 89.3571C847.209 86.9771 846.444 81.5541 846.189 79.9731C846.325 78.2901 846.325 76.5221 846.342 74.7881H845.067Z" fill="black"/>
<path d="M932.488 76.909H930.232L926.978 78.9992V81.1725L930.04 79.2166H930.117V89.9999H932.488V76.909Z" fill="black"/>
<path d="M940.363 90.1789C943.131 90.1789 945.061 88.2997 945.061 85.6981C945.061 83.1796 943.31 81.3643 940.932 81.3643C939.871 81.3643 938.931 81.7862 938.445 82.3614H938.369L938.746 78.8906H944.377V76.909H936.783L936.099 83.659L938.241 84.0106C938.682 83.5248 939.513 83.1988 940.299 83.2052C941.737 83.2116 942.773 84.2727 942.766 85.7556C942.773 87.2194 941.763 88.2613 940.363 88.2613C939.18 88.2613 938.228 87.5134 938.145 86.4396H935.844C935.908 88.6129 937.806 90.1789 940.363 90.1789Z" fill="black"/>
<path d="M954.202 87.5454C954.208 89.0667 955.173 90.3643 956.97 90.3643C958.759 90.3643 959.744 89.0667 959.737 87.5454V86.855C959.744 85.321 958.785 84.0362 956.97 84.0362C955.199 84.0362 954.208 85.3337 954.202 86.855V87.5454ZM947.548 80.0539C947.554 81.5752 948.519 82.86 950.322 82.86C952.105 82.86 953.09 81.588 953.083 80.0539V79.3636C953.09 77.8295 952.131 76.5447 950.322 76.5447C948.558 76.5447 947.554 77.8295 947.548 79.3636V80.0539ZM948.123 89.9999H949.727L958.727 76.909H957.123L948.123 89.9999ZM955.87 86.855C955.876 86.1775 956.164 85.4935 956.97 85.4935C957.813 85.4935 958.063 86.1775 958.056 86.855V87.5454C958.063 88.2229 957.788 88.8941 956.97 88.8941C956.151 88.8941 955.876 88.2166 955.87 87.5454V86.855ZM949.229 79.3636C949.235 78.6924 949.51 78.0021 950.322 78.0021C951.166 78.0021 951.408 78.686 951.402 79.3636V80.0539C951.408 80.7315 951.14 81.4026 950.322 81.4026C949.504 81.4026 949.235 80.7315 949.229 80.0539V79.3636Z" fill="black"/>
<path d="M474.769 138.086C474.412 137.406 473.545 136.42 472.814 135.723L471.947 136.301C472.678 137.049 473.494 138.086 473.851 138.749L474.769 138.086ZM470.723 134.754C469.975 137.338 468.819 139.939 467.476 141.656C467.68 141.945 468.003 142.557 468.122 142.829C468.564 142.234 468.989 141.571 469.414 140.823V150.258H470.519V138.579C471.012 137.44 471.437 136.25 471.777 135.043L470.723 134.754ZM474.004 147.572V140.177H471.233V141.384H472.899V147.351C472.899 148.065 472.525 148.49 472.287 148.66C472.491 148.881 472.797 149.408 472.899 149.697C473.154 149.408 473.545 149.119 475.942 147.64C475.857 147.402 475.704 146.96 475.636 146.62L474.004 147.572ZM481.365 145.6H477.693V143.9H481.365V145.6ZM477.693 148.32V146.569H481.365V148.32H477.693ZM478.883 137.78H480.736C480.277 138.528 479.784 139.242 479.257 139.905H478.883V137.78ZM483.235 141.061V139.905H480.685C481.62 138.63 482.436 137.202 483.099 135.655L481.977 135.349C481.654 136.131 481.28 136.862 480.855 137.576V136.692H478.883V134.771H477.727V136.692H475.517V137.78H477.727V139.905H475.024V141.061H478.237C477.115 142.217 475.857 143.203 474.514 143.968C474.769 144.206 475.194 144.699 475.347 144.937C475.772 144.665 476.197 144.359 476.605 144.07V150.241H477.693V149.374H481.365V150.173H482.504V142.846H478.067C478.662 142.302 479.24 141.707 479.767 141.061H483.235Z" fill="black"/>
<path d="M492.347 144.036V145.736H488.743V144.036H492.347ZM497.175 145.736H493.622V144.036H497.175V145.736ZM493.622 148.643V146.773H497.175V148.643H493.622ZM488.743 148.643V146.773H492.347V148.643H488.743ZM487.468 150.292H488.743V149.748H497.175V150.258H498.501V142.914H487.468V150.292ZM490.29 137.355H496.138C495.322 138.205 494.217 138.953 492.993 139.582C491.837 139.004 490.851 138.324 490.12 137.525L490.29 137.355ZM497.379 136.165L497.158 136.233H491.276C491.616 135.825 491.905 135.417 492.143 134.992L490.8 134.737C489.967 136.199 488.318 137.882 485.887 139.038C486.176 139.242 486.55 139.65 486.737 139.956C487.689 139.446 488.505 138.902 489.236 138.307C489.933 139.021 490.749 139.65 491.684 140.194C489.61 141.061 487.281 141.656 485.105 141.945C485.309 142.234 485.547 142.795 485.666 143.152C488.097 142.744 490.715 142.013 492.993 140.908C495.101 141.894 497.6 142.557 500.201 142.914C500.371 142.557 500.694 142.03 500.966 141.741C498.569 141.486 496.274 140.959 494.319 140.177C495.917 139.259 497.294 138.086 498.195 136.692L497.379 136.165Z" fill="black"/>
<path d="M608.643 150H611.104L616.665 138.935V136.909H607.748V138.891H614.21V138.98L608.643 150Z" fill="black"/>
<path d="M625.727 147.545C625.734 149.067 626.699 150.364 628.495 150.364C630.285 150.364 631.269 149.067 631.263 147.545V146.855C631.269 145.321 630.31 144.036 628.495 144.036C626.724 144.036 625.734 145.334 625.727 146.855V147.545ZM619.073 140.054C619.08 141.575 620.045 142.86 621.847 142.86C623.631 142.86 624.615 141.588 624.609 140.054V139.364C624.615 137.829 623.656 136.545 621.847 136.545C620.083 136.545 619.08 137.829 619.073 139.364V140.054ZM619.648 150H621.253L630.253 136.909H628.648L619.648 150ZM627.396 146.855C627.402 146.177 627.69 145.494 628.495 145.494C629.339 145.494 629.588 146.177 629.582 146.855V147.545C629.588 148.223 629.313 148.894 628.495 148.894C627.677 148.894 627.402 148.217 627.396 147.545V146.855ZM620.754 139.364C620.761 138.692 621.036 138.002 621.847 138.002C622.691 138.002 622.934 138.686 622.928 139.364V140.054C622.934 140.731 622.665 141.403 621.847 141.403C621.029 141.403 620.761 140.731 620.754 140.054V139.364Z" fill="black"/>
<path d="M825.347 144.631C824.922 144.206 823.069 142.472 822.44 141.945V140.925H825.415V139.718H822.44V136.692C823.46 136.437 824.429 136.148 825.194 135.825L824.259 134.89C822.814 135.553 820.162 136.131 817.884 136.488C818.037 136.76 818.207 137.185 818.275 137.474C819.21 137.338 820.213 137.168 821.199 136.964V139.718H817.918V140.925H820.961C820.162 142.931 818.785 145.209 817.561 146.433C817.765 146.756 818.088 147.266 818.224 147.623C819.261 146.467 820.366 144.614 821.199 142.761V150.241H822.44V143.237C823.205 144.019 824.174 145.056 824.565 145.6L825.347 144.631ZM833.337 149.867C832.963 148.048 831.807 145.209 830.617 143.033L829.427 143.407C830.09 144.648 830.736 146.11 831.212 147.47C829.58 147.64 827.948 147.81 826.503 147.963C827.489 144.444 828.594 139.361 829.257 135.366L827.846 135.128C827.302 139.14 826.18 144.563 825.194 148.099C824.599 148.15 824.072 148.201 823.596 148.252L823.902 149.561C825.942 149.323 828.815 148.966 831.603 148.592C831.79 149.221 831.943 149.799 832.028 150.292L833.337 149.867Z" fill="black"/>
<path d="M842.143 135.298C842.024 137.542 842.024 145.651 835.139 149.17C835.53 149.425 835.938 149.833 836.159 150.139C840.46 147.81 842.211 143.713 842.959 140.313C843.775 143.713 845.645 148.065 850.031 150.139C850.218 149.799 850.609 149.374 850.966 149.102C844.574 146.178 843.656 138.324 843.503 136.08C843.52 135.791 843.52 135.519 843.537 135.298H842.143Z" fill="black"/>
<path d="M927.164 150H936.138V148.018H930.436V147.929L932.693 145.634C935.237 143.192 935.94 142.003 935.94 140.527C935.94 138.334 934.157 136.73 931.523 136.73C928.928 136.73 927.087 138.341 927.087 140.827H929.343C929.343 139.491 930.187 138.654 931.491 138.654C932.737 138.654 933.664 139.415 933.664 140.648C933.664 141.741 933 142.521 931.708 143.832L927.164 148.287V150Z" fill="black"/>
<path d="M943.182 150.249C946.34 150.256 948.225 147.763 948.225 143.467C948.225 139.197 946.327 136.73 943.182 136.73C940.037 136.73 938.145 139.191 938.139 143.467C938.139 147.756 940.024 150.249 943.182 150.249ZM943.182 148.249C941.552 148.249 940.529 146.612 940.536 143.467C940.542 140.348 941.559 138.705 943.182 138.705C944.812 138.705 945.828 140.348 945.835 143.467C945.835 146.612 944.818 148.249 943.182 148.249Z" fill="black"/>
<path d="M951.29 150.141C952.045 150.141 952.69 149.514 952.697 148.734C952.69 147.967 952.045 147.341 951.29 147.341C950.511 147.341 949.878 147.967 949.884 148.734C949.878 149.514 950.511 150.141 951.29 150.141Z" fill="black"/>
<path d="M959.344 150.179C962.17 150.198 964.068 148.255 964.062 145.666C964.068 143.192 962.304 141.403 960.009 141.403C958.603 141.403 957.363 142.087 956.736 143.212H956.647C956.653 140.457 957.663 138.782 959.479 138.782C960.604 138.782 961.364 139.434 961.607 140.437H963.94C963.659 138.322 961.952 136.73 959.479 136.73C956.334 136.73 954.346 139.351 954.346 143.825C954.339 148.626 956.832 150.166 959.344 150.179ZM959.332 148.261C957.932 148.261 956.909 147.104 956.903 145.736C956.915 144.362 957.976 143.212 959.364 143.212C960.751 143.212 961.767 144.311 961.761 145.717C961.767 147.149 960.719 148.261 959.332 148.261Z" fill="black"/>
<path d="M970.773 150.179C973.541 150.179 975.472 148.3 975.472 145.698C975.472 143.18 973.72 141.364 971.342 141.364C970.281 141.364 969.342 141.786 968.856 142.361H968.779L969.156 138.891H974.788V136.909H967.194L966.51 143.659L968.651 144.011C969.092 143.525 969.923 143.199 970.709 143.205C972.148 143.212 973.183 144.273 973.177 145.756C973.183 147.219 972.173 148.261 970.773 148.261C969.591 148.261 968.638 147.513 968.555 146.44H966.254C966.318 148.613 968.217 150.179 970.773 150.179Z" fill="black"/>
<path d="M984.612 147.545C984.619 149.067 985.584 150.364 987.38 150.364C989.17 150.364 990.154 149.067 990.148 147.545V146.855C990.154 145.321 989.195 144.036 987.38 144.036C985.609 144.036 984.619 145.334 984.612 146.855V147.545ZM977.958 140.054C977.964 141.575 978.93 142.86 980.732 142.86C982.516 142.86 983.5 141.588 983.494 140.054V139.364C983.5 137.829 982.541 136.545 980.732 136.545C978.968 136.545 977.964 137.829 977.958 139.364V140.054ZM978.533 150H980.138L989.138 136.909H987.533L978.533 150ZM986.28 146.855C986.287 146.177 986.574 145.494 987.38 145.494C988.224 145.494 988.473 146.177 988.467 146.855V147.545C988.473 148.223 988.198 148.894 987.38 148.894C986.562 148.894 986.287 148.217 986.28 147.545V146.855ZM979.639 139.364C979.646 138.692 979.92 138.002 980.732 138.002C981.576 138.002 981.819 138.686 981.812 139.364V140.054C981.819 140.731 981.55 141.403 980.732 141.403C979.914 141.403 979.646 140.731 979.639 140.054V139.364Z" fill="black"/>
<path d="M477.506 203.067H476.214V204.58C476.214 205.957 475.857 207.946 470.638 209.323C470.944 209.544 471.301 210.003 471.488 210.275C476.911 208.677 477.506 206.331 477.506 204.614V203.067ZM477.081 207.776C478.781 208.422 480.906 209.459 482.079 210.19L482.963 209.34C481.773 208.66 479.648 207.657 477.965 207.011L477.081 207.776ZM470.672 198.409V197.083C472.44 197.015 474.344 196.879 476.18 196.709C476.146 197.253 476.112 197.831 476.044 198.409H470.672ZM477.319 198.409C477.387 197.797 477.455 197.168 477.506 196.573C479.223 196.403 480.804 196.165 482.079 195.876L481.076 194.873C478.441 195.485 473.494 195.876 469.431 196.029V200.755C469.431 203.339 469.278 206.926 467.68 209.442C467.986 209.561 468.53 209.901 468.768 210.105C470.434 207.436 470.672 203.492 470.672 200.755V199.548H475.942C475.874 200.143 475.806 200.721 475.738 201.197H471.964V207.011H473.205V202.37H480.498V207.079H481.79V201.197H476.945C477.03 200.721 477.098 200.143 477.183 199.548H483.082V198.409H477.319Z" fill="black"/>
<path d="M490.528 202.251C489.933 202.438 489.321 202.608 488.726 202.778V199.378H490.579V198.188H488.726V194.788H487.519V198.188H485.428V199.378H487.519V203.101C486.652 203.339 485.87 203.56 485.224 203.713L485.581 204.937L487.519 204.359V208.762C487.519 208.983 487.434 209.051 487.196 209.068C487.009 209.068 486.346 209.085 485.632 209.068C485.785 209.374 485.955 209.884 486.006 210.207C487.077 210.207 487.723 210.173 488.148 209.969C488.573 209.765 488.726 209.442 488.726 208.762V204.002C489.372 203.815 490.035 203.611 490.698 203.407L490.528 202.251ZM496.393 203.288V200.687H498.994V203.288H496.393ZM492.619 203.288V200.687H495.186V203.288H492.619ZM495.186 196.981V199.514H492.619V196.981H495.186ZM498.994 199.514H496.393V196.981H498.994V199.514ZM491.395 195.808V205.413H492.619V204.461H495.186V210.292H496.393V204.461H498.994V205.362H500.252V195.808H491.395Z" fill="black"/>
<path d="M517.286 196.165L517.048 196.199H512.679C512.951 195.842 513.189 195.485 513.376 195.111L512.152 194.72C511.574 195.995 510.163 197.372 508.684 198.171C508.922 198.392 509.262 198.834 509.432 199.089C510.248 198.63 511.047 198.001 511.761 197.304H516.436C515.858 198.562 514.957 199.497 513.835 200.228C513.291 199.565 512.424 198.749 511.693 198.171L510.775 198.715C511.489 199.327 512.305 200.126 512.815 200.772C511.557 201.35 510.078 201.741 508.446 201.979C508.684 202.217 509.007 202.727 509.126 203.033C513.308 202.285 516.674 200.619 518.034 196.539L517.286 196.165ZM505.913 198.273C505.641 197.559 504.944 196.454 504.298 195.672L503.329 196.165C503.958 196.981 504.638 198.12 504.893 198.834L505.913 198.273ZM506.797 203.067H508.021V194.771H506.797V199.072C505.335 199.803 503.873 200.517 502.87 200.976L503.414 202.064C504.4 201.554 505.607 200.908 506.797 200.262V203.067ZM517.898 205.481V204.342H510.996C511.098 203.917 511.166 203.509 511.234 203.05H509.925C509.857 203.509 509.789 203.934 509.687 204.342H503.091V205.481H509.313C508.531 207.334 506.865 208.609 502.819 209.255C503.04 209.51 503.312 210.02 503.414 210.326C507.698 209.578 509.585 208.099 510.503 205.957C511.761 208.405 514.073 209.68 517.541 210.19C517.677 209.867 518.017 209.34 518.306 209.085C514.923 208.711 512.628 207.589 511.54 205.481H517.898Z" fill="black"/>
<path d="M525.378 201.911C525.412 201.248 525.429 200.568 525.446 199.871H528.659V198.732H522.471V196.913H529.203V195.74H521.298V201.928C521.298 204.274 521.213 207.419 520.108 209.646C520.397 209.731 520.924 210.037 521.145 210.241C522.301 207.946 522.471 204.41 522.471 201.911V199.871H524.29C524.222 203.951 523.984 207.555 522.029 209.578C522.335 209.748 522.726 210.139 522.896 210.411C524.528 208.711 525.089 206.093 525.327 202.999H527.214C527.061 206.926 526.874 208.371 526.585 208.711C526.466 208.898 526.33 208.932 526.092 208.932C525.854 208.932 525.293 208.915 524.681 208.847C524.834 209.153 524.936 209.578 524.953 209.918C525.599 209.952 526.228 209.952 526.585 209.901C527.01 209.884 527.299 209.765 527.554 209.425C527.979 208.881 528.149 207.232 528.353 202.438C528.353 202.285 528.37 201.911 528.37 201.911H525.378ZM532.144 198.987C532.178 197.729 532.195 196.386 532.195 195.06H531.022C531.022 196.386 531.022 197.729 530.988 198.987H529.084V200.16H530.937C530.75 204.087 530.138 207.436 528.03 209.51C528.336 209.68 528.761 210.071 528.965 210.343C531.226 208.031 531.889 204.393 532.093 200.16H534.15C533.98 206.263 533.81 208.439 533.436 208.915C533.266 209.136 533.13 209.187 532.858 209.17C532.552 209.17 531.838 209.17 531.056 209.102C531.26 209.442 531.379 209.918 531.396 210.275C532.161 210.309 532.926 210.326 533.368 210.275C533.844 210.224 534.167 210.071 534.473 209.663C534.983 208.949 535.153 206.637 535.323 199.599C535.323 199.446 535.34 198.987 535.34 198.987H532.144Z" fill="black"/>
<path d="M476.18 269.541V265.223H481.637V263.999H476.18V260.293H482.266V259.052H476.18V255.788H474.888V259.052H471.437C471.811 258.185 472.117 257.267 472.389 256.332L471.114 256.06C470.451 258.474 469.363 260.82 467.969 262.316C468.309 262.486 468.87 262.86 469.125 263.064C469.754 262.299 470.349 261.364 470.893 260.293H474.888V263.999H469.839V265.223H474.888V269.541H468.003V270.765H483.065V269.541H476.18Z" fill="black"/>
<path d="M486.618 270.629C487.366 269.456 487.91 267.654 488.284 266.26L487.162 265.886C486.839 267.246 486.244 268.946 485.479 270.034L486.618 270.629ZM491.667 269.779C490.562 269.779 490.358 269.677 490.358 269.184V265.886H489.117V269.201C489.117 270.561 489.644 270.918 491.599 270.918H495.543C497.175 270.918 497.566 270.391 497.736 268.266C497.379 268.181 496.869 267.994 496.597 267.79C496.495 269.524 496.359 269.779 495.458 269.779H491.667ZM491.004 263.03C491.99 263.625 493.197 264.509 493.724 265.138L494.863 264.407C494.234 263.761 493.044 262.928 492.058 262.367L491.004 263.03ZM491.48 265.478C492.466 266.362 493.639 267.62 494.183 268.436L495.203 267.756C494.625 266.957 493.418 265.75 492.466 264.9L491.48 265.478ZM497.226 265.988C498.093 267.416 498.943 269.354 499.232 270.527L500.439 270.102C500.116 268.895 499.215 267.025 498.348 265.631L497.226 265.988ZM500.575 259.341V258.151H493.384C493.537 257.369 493.656 256.553 493.741 255.72H492.449C492.364 256.553 492.262 257.369 492.075 258.151H485.513V259.341H491.735C490.936 261.534 489.27 263.37 485.343 264.356C485.581 264.611 485.904 265.104 486.04 265.41C490.426 264.237 492.228 262.01 493.061 259.341C494.319 262.367 496.546 264.424 499.895 265.342C500.082 264.968 500.456 264.458 500.745 264.169C497.702 263.489 495.543 261.772 494.37 259.341H500.575Z" fill="black"/>
<path d="M506.627 266.719C505.692 267.977 504.162 269.252 502.734 270.085C503.074 270.272 503.601 270.697 503.856 270.952C505.216 270.034 506.814 268.589 507.902 267.195L506.627 266.719ZM518.272 266.192C517.405 265.036 515.586 263.336 514.107 262.146L513.087 262.792C513.699 263.302 514.345 263.88 514.957 264.492C512.798 264.526 510.605 264.577 508.582 264.611C510.571 263.047 512.849 260.99 514.549 259.205L513.359 258.559C512.254 259.834 510.707 261.33 509.16 262.673C508.65 262.197 507.953 261.67 507.222 261.177C508.191 260.293 509.313 259.086 510.18 258.015L509.993 257.913C512.56 257.726 515.025 257.454 516.929 257.08L516.011 256.026C513.104 256.604 507.902 256.961 503.55 257.08C503.669 257.386 503.839 257.879 503.856 258.202C505.352 258.168 506.95 258.1 508.531 258.015C507.885 258.865 507.035 259.834 506.287 260.548C505.896 260.31 505.505 260.072 505.131 259.868L504.281 260.65C505.641 261.432 507.205 262.571 508.191 263.506C507.681 263.914 507.205 264.288 506.729 264.628C505.352 264.645 504.077 264.662 503.023 264.679L503.159 265.954C504.961 265.903 507.307 265.852 509.84 265.784V271.292H511.149V265.75C512.764 265.699 514.413 265.648 516.028 265.597C516.487 266.09 516.878 266.549 517.15 266.94L518.272 266.192ZM512.917 267.348C514.379 268.419 516.198 269.966 517.048 270.918L518.153 270.136C517.218 269.167 515.365 267.671 513.937 266.651L512.917 267.348Z" fill="black"/>
<path d="M535.595 263.846C535.102 262.894 533.997 261.313 533.096 260.123L532.11 260.616C532.484 261.109 532.875 261.67 533.232 262.214L528.574 262.605C529.322 261.687 530.291 260.378 531.005 259.375H535.578V258.236H530.733L531.821 257.879C531.617 257.352 531.175 256.417 530.801 255.737L529.645 256.06C529.968 256.74 530.393 257.658 530.563 258.236H526.466V259.375H529.526C528.761 260.429 527.588 261.976 527.197 262.333C526.891 262.656 526.432 262.775 526.126 262.86C526.245 263.115 526.5 263.778 526.551 264.084C527.01 263.88 527.724 263.795 533.844 263.217C534.133 263.693 534.354 264.101 534.524 264.458L535.595 263.846ZM522.624 265.087C523.899 263.608 525.174 261.806 526.228 259.97L525.106 259.307C524.783 259.919 524.426 260.565 524.035 261.16L521.978 261.381C523.015 259.919 524.052 258.083 524.834 256.315L523.542 255.72C522.811 257.76 521.553 259.936 521.145 260.497C520.788 261.058 520.465 261.449 520.159 261.517C520.312 261.891 520.533 262.537 520.601 262.826C520.856 262.69 521.247 262.605 523.27 262.316C522.556 263.37 521.893 264.22 521.587 264.543C521.06 265.172 520.652 265.58 520.312 265.665C520.448 266.005 520.652 266.617 520.72 266.872C521.077 266.651 521.638 266.481 525.837 265.563C525.786 265.308 525.769 264.798 525.803 264.458L522.624 265.087ZM525.786 267.467C523.746 268.079 521.672 268.691 520.312 269.048L520.601 270.306C522.114 269.813 524.103 269.184 525.99 268.572L525.786 267.467ZM528.217 264.033C528.098 267.382 527.724 269.201 524.953 270.238C525.242 270.442 525.582 270.935 525.735 271.241C528.795 270 529.322 267.841 529.458 264.033H528.217ZM533.045 269.864C532.671 269.864 532.62 269.796 532.62 269.354V264.016H531.379V269.354C531.379 270.578 531.668 270.952 532.858 270.952H534.337C535.374 270.952 535.663 270.34 535.765 268.028C535.425 267.943 534.932 267.756 534.677 267.518C534.626 269.541 534.558 269.864 534.201 269.864H533.045Z" fill="black"/>
<path d="M613.488 196.909H611.232L607.978 198.999V201.173L611.04 199.217H611.117V210H613.488V196.909Z" fill="black"/>
<path d="M621.651 210.249C624.808 210.256 626.694 207.763 626.694 203.467C626.694 199.197 624.795 196.73 621.651 196.73C618.506 196.73 616.614 199.191 616.607 203.467C616.607 207.756 618.493 210.249 621.651 210.249ZM621.651 208.249C620.021 208.249 618.998 206.612 619.004 203.467C619.011 200.348 620.027 198.705 621.651 198.705C623.281 198.705 624.297 200.348 624.303 203.467C624.303 206.612 623.287 208.249 621.651 208.249Z" fill="black"/>
<path d="M635.817 207.545C635.823 209.067 636.789 210.364 638.585 210.364C640.375 210.364 641.359 209.067 641.352 207.545V206.855C641.359 205.321 640.4 204.036 638.585 204.036C636.814 204.036 635.823 205.334 635.817 206.855V207.545ZM629.163 200.054C629.169 201.575 630.134 202.86 631.937 202.86C633.72 202.86 634.705 201.588 634.698 200.054V199.364C634.705 197.829 633.746 196.545 631.937 196.545C630.173 196.545 629.169 197.829 629.163 199.364V200.054ZM629.738 210H631.343L640.343 196.909H638.738L629.738 210ZM637.485 206.855C637.492 206.177 637.779 205.494 638.585 205.494C639.428 205.494 639.678 206.177 639.671 206.855V207.545C639.678 208.223 639.403 208.894 638.585 208.894C637.767 208.894 637.492 208.217 637.485 207.545V206.855ZM630.844 199.364C630.85 198.692 631.125 198.002 631.937 198.002C632.781 198.002 633.024 198.686 633.017 199.364V200.054C633.024 200.731 632.755 201.403 631.937 201.403C631.119 201.403 630.85 200.731 630.844 200.054V199.364Z" fill="black"/>
<path d="M832.623 197.899C832.283 197.236 831.518 196.199 830.838 195.451L829.971 195.944C830.617 196.709 831.365 197.78 831.705 198.477L832.623 197.899ZM824.225 207.878H819.584V203.56H824.225V207.878ZM822.236 199.191H825.755V198.069H822.236V194.873H821.029V202.404H818.445V209.986H819.584V209.034H824.225V209.901H825.398V202.404H822.236V199.191ZM831.943 201.044C831.484 202.455 830.787 203.849 829.92 205.09C829.665 203.883 829.461 202.421 829.291 200.789L833.201 200.228L833.031 199.14L829.189 199.701C829.07 198.188 828.985 196.556 828.951 194.873H827.761C827.829 196.624 827.914 198.307 828.033 199.871L825.636 200.228L825.806 201.299L828.135 200.976C828.339 203.016 828.611 204.835 828.985 206.297C827.965 207.47 826.792 208.439 825.534 209.051C825.857 209.272 826.248 209.663 826.452 209.952C827.489 209.357 828.475 208.541 829.376 207.589C829.954 209.272 830.77 210.258 831.841 210.309C832.504 210.326 833.116 209.595 833.473 206.977C833.252 206.858 832.776 206.569 832.555 206.314C832.419 207.98 832.181 208.898 831.824 208.881C831.229 208.847 830.685 207.98 830.277 206.518C831.399 205.022 832.317 203.305 832.912 201.571L831.943 201.044Z" fill="black"/>
<path d="M843.384 204.121C844.421 203.56 845.424 202.863 846.342 202.03C847.192 202.829 848.161 203.543 849.232 204.121H843.384ZM843.894 208.507V205.243H848.603V208.507H843.894ZM841.463 199.905C841.701 200.109 841.956 200.364 842.092 200.517C842.67 200.041 843.231 199.48 843.758 198.834C844.217 199.616 844.812 200.432 845.526 201.214C844.285 202.302 842.857 203.169 841.463 203.747V199.905ZM839.066 205.668V201.622H840.443V205.668H839.066ZM836.839 201.622H838.199V205.668H836.839V201.622ZM838.199 196.862V200.551H836.839V196.862H838.199ZM840.443 200.551H839.066V196.862H840.443V200.551ZM848.382 197.644C847.872 198.647 847.158 199.582 846.342 200.432C845.543 199.616 844.914 198.732 844.455 197.916L844.642 197.644H848.382ZM849.215 196.522L848.994 196.59H845.288C845.577 196.097 845.832 195.57 846.053 195.043L844.863 194.72C844.132 196.539 842.891 198.222 841.463 199.378V195.774H835.87V208.286H836.839V206.79H841.463V204.206C841.633 204.41 841.803 204.665 841.888 204.852C842.16 204.733 842.432 204.614 842.704 204.478V210.207H843.894V209.629H848.603V210.173H849.827V204.427C850.014 204.512 850.184 204.597 850.371 204.665C850.558 204.325 850.915 203.849 851.187 203.594C849.657 203.05 848.314 202.2 847.192 201.231C848.382 200.007 849.385 198.562 850.031 196.93L849.215 196.522Z" fill="black"/>
<path d="M932.488 196.909H930.232L926.978 198.999V201.173L930.04 199.217H930.117V210H932.488V196.909Z" fill="black"/>
<path d="M940.651 210.249C943.808 210.256 945.694 207.763 945.694 203.467C945.694 199.197 943.795 196.73 940.651 196.73C937.506 196.73 935.614 199.191 935.607 203.467C935.607 207.756 937.493 210.249 940.651 210.249ZM940.651 208.249C939.021 208.249 937.998 206.612 938.004 203.467C938.011 200.348 939.027 198.705 940.651 198.705C942.281 198.705 943.297 200.348 943.303 203.467C943.303 206.612 942.287 208.249 940.651 208.249Z" fill="black"/>
<path d="M948.759 210.141C949.513 210.141 950.159 209.514 950.165 208.734C950.159 207.967 949.513 207.341 948.759 207.341C947.979 207.341 947.346 207.967 947.353 208.734C947.346 209.514 947.979 210.141 948.759 210.141Z" fill="black"/>
<path d="M956.236 196.909H953.98L950.726 198.999V201.173L953.788 199.217H953.865V210H956.236V196.909Z" fill="black"/>
<path d="M964.399 210.249C967.556 210.256 969.442 207.763 969.442 203.467C969.442 199.197 967.544 196.73 964.399 196.73C961.254 196.73 959.362 199.191 959.355 203.467C959.355 207.756 961.241 210.249 964.399 210.249ZM964.399 208.249C962.769 208.249 961.746 206.612 961.752 203.467C961.759 200.348 962.775 198.705 964.399 198.705C966.029 198.705 967.045 200.348 967.051 203.467C967.051 206.612 966.035 208.249 964.399 208.249Z" fill="black"/>
<path d="M978.565 207.545C978.571 209.067 979.537 210.364 981.333 210.364C983.123 210.364 984.107 209.067 984.101 207.545V206.855C984.107 205.321 983.148 204.036 981.333 204.036C979.562 204.036 978.571 205.334 978.565 206.855V207.545ZM971.911 200.054C971.917 201.575 972.883 202.86 974.685 202.86C976.468 202.86 977.453 201.588 977.446 200.054V199.364C977.453 197.829 976.494 196.545 974.685 196.545C972.921 196.545 971.917 197.829 971.911 199.364V200.054ZM972.486 210H974.091L983.091 196.909H981.486L972.486 210ZM980.233 206.855C980.24 206.177 980.527 205.494 981.333 205.494C982.177 205.494 982.426 206.177 982.419 206.855V207.545C982.426 208.223 982.151 208.894 981.333 208.894C980.515 208.894 980.24 208.217 980.233 207.545V206.855ZM973.592 199.364C973.598 198.692 973.873 198.002 974.685 198.002C975.529 198.002 975.772 198.686 975.765 199.364V200.054C975.772 200.731 975.503 201.403 974.685 201.403C973.867 201.403 973.598 200.731 973.592 200.054V199.364Z" fill="black"/>
<path d="M613.488 256.909H611.232L607.978 258.999V261.173L611.04 259.217H611.117V270H613.488V256.909Z" fill="black"/>
<path d="M621.363 270.179C624.131 270.179 626.061 268.3 626.061 265.698C626.061 263.18 624.31 261.364 621.932 261.364C620.871 261.364 619.931 261.786 619.445 262.362H619.369L619.746 258.891H625.377V256.909H617.783L617.099 263.659L619.241 264.011C619.682 263.525 620.513 263.199 621.299 263.205C622.737 263.212 623.773 264.273 623.766 265.756C623.773 267.22 622.763 268.261 621.363 268.261C620.18 268.261 619.228 267.514 619.145 266.44H616.844C616.908 268.613 618.806 270.179 621.363 270.179Z" fill="black"/>
<path d="M635.202 267.546C635.208 269.067 636.173 270.364 637.97 270.364C639.759 270.364 640.744 269.067 640.737 267.546V266.855C640.744 265.321 639.785 264.036 637.97 264.036C636.199 264.036 635.208 265.334 635.202 266.855V267.546ZM628.548 260.054C628.554 261.575 629.519 262.86 631.322 262.86C633.105 262.86 634.09 261.588 634.083 260.054V259.364C634.09 257.83 633.131 256.545 631.322 256.545C629.558 256.545 628.554 257.83 628.548 259.364V260.054ZM629.123 270H630.727L639.727 256.909H638.123L629.123 270ZM636.87 266.855C636.876 266.178 637.164 265.494 637.97 265.494C638.813 265.494 639.063 266.178 639.056 266.855V267.546C639.063 268.223 638.788 268.894 637.97 268.894C637.151 268.894 636.876 268.217 636.87 267.546V266.855ZM630.229 259.364C630.235 258.693 630.51 258.002 631.322 258.002C632.166 258.002 632.408 258.686 632.402 259.364V260.054C632.408 260.732 632.14 261.403 631.322 261.403C630.504 261.403 630.235 260.732 630.229 260.054V259.364Z" fill="black"/>
<path d="M821.777 260.721H823.953V259.531H821.777V256.692C822.61 256.505 823.375 256.267 824.021 256.012L823.256 255.009C821.981 255.57 819.754 256.063 817.85 256.369C817.986 256.641 818.156 257.083 818.207 257.355C818.955 257.253 819.754 257.117 820.553 256.964V259.531H817.833V260.721H820.383C819.703 262.659 818.513 264.852 817.442 266.059C817.646 266.348 817.952 266.858 818.088 267.198C818.972 266.144 819.856 264.461 820.553 262.744V270.258H821.777V262.438C822.338 263.254 823.018 264.342 823.307 264.886L824.072 263.9C823.732 263.424 822.27 261.605 821.777 261.078V260.721ZM829.342 263.594V259.565H831.671V263.594H829.342ZM825.704 263.594V259.565H828.101V263.594H825.704ZM829.342 258.341V254.822H828.101V258.341H824.497V265.838H825.704V264.801H828.101V270.258H829.342V264.801H831.671V265.753H832.912V258.341H829.342Z" fill="black"/>
<path d="M850.694 262.319H843.69V260.653C845.577 259.633 847.804 258.052 849.249 256.59L848.331 255.893L848.025 255.961H837.128V257.185H846.699C845.713 258.035 844.404 258.936 843.197 259.599H842.398V262.319H835.377V263.577H842.398V268.66C842.398 268.966 842.296 269.051 841.922 269.068C841.565 269.085 840.307 269.085 838.947 269.034C839.168 269.391 839.389 269.969 839.491 270.326C841.106 270.343 842.211 270.309 842.84 270.105C843.469 269.901 843.69 269.51 843.69 268.66V263.577H850.694V262.319Z" fill="black"/>
<path d="M932.488 256.909H930.232L926.978 258.999V261.173L930.04 259.217H930.117V270H932.488V256.909Z" fill="black"/>
<path d="M940.651 270.249C943.808 270.256 945.694 267.763 945.694 263.467C945.694 259.197 943.795 256.73 940.651 256.73C937.506 256.73 935.614 259.191 935.607 263.467C935.607 267.756 937.493 270.249 940.651 270.249ZM940.651 268.249C939.021 268.249 937.998 266.612 938.004 263.467C938.011 260.348 939.027 258.705 940.651 258.705C942.281 258.705 943.297 260.348 943.303 263.467C943.303 266.612 942.287 268.249 940.651 268.249Z" fill="black"/>
<path d="M948.759 270.141C949.513 270.141 950.159 269.514 950.165 268.734C950.159 267.967 949.513 267.341 948.759 267.341C947.979 267.341 947.346 267.967 947.353 268.734C947.346 269.514 947.979 270.141 948.759 270.141Z" fill="black"/>
<path d="M952.529 270H961.503V268.018H955.801V267.929L958.058 265.634C960.602 263.192 961.305 262.003 961.305 260.527C961.305 258.334 959.522 256.73 956.888 256.73C954.293 256.73 952.452 258.341 952.452 260.827H954.708C954.708 259.491 955.552 258.654 956.856 258.654C958.102 258.654 959.029 259.415 959.029 260.648C959.029 261.741 958.365 262.521 957.073 263.832L952.529 268.287V270Z" fill="black"/>
<path d="M968.259 270.179C971.027 270.179 972.958 268.3 972.958 265.698C972.958 263.18 971.206 261.364 968.828 261.364C967.767 261.364 966.828 261.786 966.342 262.361H966.265L966.642 258.891H972.274V256.909H964.68L963.996 263.659L966.137 264.011C966.578 263.525 967.409 263.199 968.196 263.205C969.634 263.212 970.669 264.273 970.663 265.756C970.669 267.219 969.659 268.261 968.259 268.261C967.077 268.261 966.125 267.513 966.041 266.44H963.74C963.804 268.613 965.703 270.179 968.259 270.179Z" fill="black"/>
<path d="M982.098 267.545C982.105 269.067 983.07 270.364 984.866 270.364C986.656 270.364 987.64 269.067 987.634 267.545V266.855C987.64 265.321 986.681 264.036 984.866 264.036C983.095 264.036 982.105 265.334 982.098 266.855V267.545ZM975.444 260.054C975.451 261.575 976.416 262.86 978.218 262.86C980.002 262.86 980.986 261.588 980.98 260.054V259.364C980.986 257.829 980.027 256.545 978.218 256.545C976.454 256.545 975.451 257.829 975.444 259.364V260.054ZM976.019 270H977.624L986.624 256.909H985.019L976.019 270ZM983.767 266.855C983.773 266.177 984.061 265.494 984.866 265.494C985.71 265.494 985.959 266.177 985.953 266.855V267.545C985.959 268.223 985.684 268.894 984.866 268.894C984.048 268.894 983.773 268.217 983.767 267.545V266.855ZM977.125 259.364C977.132 258.692 977.406 258.002 978.218 258.002C979.062 258.002 979.305 258.686 979.299 259.364V260.054C979.305 260.731 979.036 261.403 978.218 261.403C977.4 261.403 977.132 260.731 977.125 260.054V259.364Z" fill="black"/>
<path d="M431 0H401C396.582 0 393 3.58172 393 8V38C393 42.4183 396.582 46 401 46H431C435.418 46 439 42.4183 439 38V8C439 3.58172 435.418 0 431 0Z" fill="#7F96E7"/>
<path d="M781 0H751C746.582 0 743 3.58172 743 8V38C743 42.4183 746.582 46 751 46H781C785.418 46 789 42.4183 789 38V8C789 3.58172 785.418 0 781 0Z" fill="#16308C"/>
<path d="M431 60H401C396.582 60 393 63.5817 393 68V98C393 102.418 396.582 106 401 106H431C435.418 106 439 102.418 439 98V68C439 63.5817 435.418 60 431 60Z" fill="#6B55EE"/>
<path d="M781 60H751C746.582 60 743 63.5817 743 68V98C743 102.418 746.582 106 751 106H781C785.418 106 789 102.418 789 98V68C789 63.5817 785.418 60 781 60Z" fill="#4F74F9"/>
<path d="M431 120H401C396.582 120 393 123.582 393 128V158C393 162.418 396.582 166 401 166H431C435.418 166 439 162.418 439 158V128C439 123.582 435.418 120 431 120Z" fill="#07AEC5"/>
<path d="M781 120H751C746.582 120 743 123.582 743 128V158C743 162.418 746.582 166 751 166H781C785.418 166 789 162.418 789 158V128C789 123.582 785.418 120 781 120Z" fill="#304FFE"/>
<path d="M431 180H401C396.582 180 393 183.582 393 188V218C393 222.418 396.582 226 401 226H431C435.418 226 439 222.418 439 218V188C439 183.582 435.418 180 431 180Z" fill="#0380A8"/>
<path d="M781 180H751C746.582 180 743 183.582 743 188V218C743 222.418 746.582 226 751 226H781C785.418 226 789 222.418 789 218V188C789 183.582 785.418 180 781 180Z" fill="#3856C2"/>
<path d="M431 240H401C396.582 240 393 243.582 393 248V278C393 282.418 396.582 286 401 286H431C435.418 286 439 282.418 439 278V248C439 243.582 435.418 240 431 240Z" fill="#2443AE"/>
<path d="M781 240H751C746.582 240 743 243.582 743 248V278C743 282.418 746.582 286 751 286H781C785.418 286 789 282.418 789 278V248C789 243.582 785.418 240 781 240Z" fill="#29C4DA"/>
<defs>
<clipPath id="clip0">
<rect width="288" height="288" fill="white"/>
</clipPath>
</defs>
</svg>
