<?xml version="1.0" encoding="utf-8"?>
<!-- Generator: Adobe Illustrator 25.0.1, SVG Export Plug-In . SVG Version: 6.00 Build 0)  -->
<svg version="1.1" id="Layer_1" xmlns="http://www.w3.org/2000/svg" xmlns:xlink="http://www.w3.org/1999/xlink" x="0px" y="0px"
	 viewBox="0 0 201 174.7" style="enable-background:new 0 0 201 174.7;" xml:space="preserve">
<style type="text/css">
	.st0{opacity:0.83;}
	.st1{fill:#021BFF;}
	.st2{fill:#FFFFFF;}
	.st3{opacity:0.76;}
	.st4{fill:#05BFDA;}
	.st5{fill:#452FD0;}
</style>
<g>
	<g>
		<g class="st0">
			<path class="st1" d="M103.5,80.1l88.5,37.9c2.8,1.2,4.6,3.9,4.6,6.9c0,3-1.8,5.7-4.6,6.9l-88.5,37.7c-0.9,0.4-1.9,0.6-3,0.6
				c-1,0-2-0.2-3-0.6L9.1,131.9c-2.8-1.2-4.6-3.9-4.6-6.9c0-3,1.8-5.7,4.6-6.9l88.5-37.9C99.4,79.3,101.6,79.3,103.5,80.1z"/>
		</g>
		<g>
			<path class="st2" d="M100.5,174.7c-1.6,0-3.2-0.3-4.7-1L7.3,136.1C2.9,134.2,0,129.8,0,125c0-4.8,2.9-9.2,7.3-11.1L95.8,76
				c3-1.3,6.5-1.3,9.5,0h0l88.5,37.9c4.4,1.9,7.3,6.2,7.3,11.1c0,4.8-2.9,9.2-7.3,11.1l-88.5,37.7
				C103.7,174.4,102.1,174.7,100.5,174.7z M100.5,84c-0.4,0-0.8,0.1-1.2,0.2l-88.5,37.9C9.7,122.7,9,123.8,9,125
				c0,1.2,0.7,2.3,1.8,2.8l88.5,37.7c0.7,0.3,1.6,0.3,2.4,0l88.5-37.7c1.1-0.5,1.8-1.6,1.8-2.8c0-1.2-0.7-2.3-1.8-2.8l-88.5-37.9
				C101.3,84.1,100.9,84,100.5,84z"/>
		</g>
	</g>
	<g>
		<g class="st3">
			<path class="st4" d="M103.5,44.1l88.5,37.9c2.8,1.2,4.6,3.9,4.6,6.9c0,3-1.8,5.7-4.6,6.9l-88.5,37.7c-0.9,0.4-1.9,0.6-3,0.6
				c-1,0-2-0.2-3-0.6L9.1,95.9C6.3,94.7,4.5,92,4.5,89c0-3,1.8-5.7,4.6-6.9l88.5-37.9C99.4,43.3,101.6,43.3,103.5,44.1z"/>
		</g>
		<g>
			<path class="st2" d="M100.5,138.7c-1.6,0-3.2-0.3-4.7-1L7.3,100.1C2.9,98.2,0,93.8,0,89c0-4.8,2.9-9.2,7.3-11.1L95.8,40
				c3-1.3,6.5-1.3,9.5,0h0l88.5,37.9c4.4,1.9,7.3,6.2,7.3,11.1c0,4.8-2.9,9.2-7.3,11.1l-88.5,37.7
				C103.7,138.4,102.1,138.7,100.5,138.7z M100.5,48c-0.4,0-0.8,0.1-1.2,0.2L10.8,86.2C9.7,86.7,9,87.8,9,89c0,1.2,0.7,2.3,1.8,2.8
				l88.5,37.7c0.7,0.3,1.6,0.3,2.4,0l88.5-37.7c1.1-0.5,1.8-1.6,1.8-2.8c0-1.2-0.7-2.3-1.8-2.8l-88.5-37.9
				C101.3,48.1,100.9,48,100.5,48z"/>
		</g>
	</g>
	<g>
		<g class="st3">
			<path class="st5" d="M103.5,5.1l88.5,37.9c2.8,1.2,4.6,3.9,4.6,6.9c0,3-1.8,5.7-4.6,6.9l-88.5,37.7c-0.9,0.4-1.9,0.6-3,0.6
				c-1,0-2-0.2-3-0.6L9.1,56.9C6.3,55.7,4.5,53,4.5,50c0-3,1.8-5.7,4.6-6.9L97.5,5.1C99.4,4.3,101.6,4.3,103.5,5.1z"/>
		</g>
		<g>
			<path class="st2" d="M100.5,99.7c-1.6,0-3.2-0.3-4.7-1L7.3,61.1C2.9,59.2,0,54.8,0,50c0-4.8,2.9-9.2,7.3-11.1L95.8,1
				c3-1.3,6.5-1.3,9.5,0l0,0l88.5,37.9c4.4,1.9,7.3,6.2,7.3,11.1c0,4.8-2.9,9.2-7.3,11.1l-88.5,37.7
				C103.7,99.4,102.1,99.7,100.5,99.7z M100.5,9c-0.4,0-0.8,0.1-1.2,0.2L10.8,47.2C9.7,47.7,9,48.8,9,50c0,1.2,0.7,2.3,1.8,2.8
				l88.5,37.7c0.8,0.3,1.6,0.3,2.4,0l88.5-37.7c1.1-0.5,1.8-1.6,1.8-2.8c0-1.2-0.7-2.3-1.8-2.8L101.7,9.2C101.3,9.1,100.9,9,100.5,9
				z"/>
		</g>
	</g>
</g>
</svg>
