<svg width="863" height="531" viewBox="0 0 863 531" fill="none" xmlns="http://www.w3.org/2000/svg">
<path d="M437.991 251.754L606.149 137.559C579.238 98.1031 539.258 69.3681 493.23 56.4005C447.203 43.4329 398.071 47.0619 354.465 66.6501L437.991 251.754Z" fill="#5337DF"/>
<path d="M437.991 251.754L230.128 277.078C235.55 321.332 255.013 362.699 285.673 395.132L437.991 251.754Z" fill="#3856C2"/>
<path d="M437.991 251.753L290.031 391.03C319.814 422.536 358.912 443.713 401.611 451.465L437.991 251.753Z" fill="#6B55EE"/>
<path d="M437.991 251.754L401.611 451.466C444.31 459.219 488.373 453.141 527.36 434.121L437.991 251.754Z" fill="#7F96E7"/>
<path d="M437.99 251.754L527.359 434.121C566.346 415.101 598.212 384.137 618.302 345.752L437.99 251.754Z" fill="#29C4DA"/>
<path d="M437.991 251.753L618.304 345.751C628.285 326.68 635.164 306.146 638.683 284.918L437.991 251.753Z" fill="#07AEC5"/>
<path d="M437.991 251.753L637.927 289.472C641.446 268.244 642.317 242.038 639.022 220.774L437.991 251.753Z" fill="#0380A8"/>
<path d="M437.991 251.753L639.022 220.773C635.727 199.508 629.066 178.901 619.287 159.722L437.991 251.753Z" fill="#2443AE"/>
<path d="M437.99 251.754L629.934 154.317C625.8 146.21 621.154 138.372 616.025 130.852L437.99 251.754Z" fill="#16308C"/>
<path d="M432.881 261.189L625.485 130.393C594.661 85.2014 548.869 52.2891 496.151 37.4364C443.432 22.5837 400.602 25.9196 350.237 46.105L432.881 261.189Z" fill="#4F74F9"/>
<path d="M446.79 249.372L350.113 42.5157C305.891 63.0905 269.424 97.2407 246.042 139.975C222.66 182.71 213.589 231.79 220.154 280.041L446.79 249.372Z" fill="#2853EB"/>
<ellipse cx="438.843" cy="252.26" rx="97.3452" ry="97.1677" fill="url(#paint0_radial)" fill-opacity="0.4"/>
<g opacity="0.3" filter="url(#filter0_f)">
<path d="M438.843 350.428C493.156 350.428 537.189 306.479 537.189 252.26C537.189 198.042 493.156 154.093 438.843 154.093C384.53 154.093 340.498 198.042 340.498 252.26C340.498 306.479 384.53 350.428 438.843 350.428Z" stroke="url(#paint1_linear)" stroke-width="2"/>
</g>
<ellipse cx="438.843" cy="252.26" rx="87.0207" ry="86.8621" fill="#F2E7F1"/>
<path d="M231.385 285.006C269.835 280.65 340.5 265.848 341.842 264.774L230.323 278.333L231.385 285.006Z" fill="url(#paint2_linear)"/>
<g style="mix-blend-mode:multiply">
<path d="M351.333 45.955C368.975 82.2649 409.488 169.481 409.801 170.243L357.508 43.1857L351.333 45.955Z" fill="url(#paint3_linear)"/>
</g>
<rect x="645" y="4" width="191" height="48" rx="6" fill="url(#paint4_linear)"/>
<rect x="646" y="104" width="191" height="48" rx="6" fill="url(#paint5_linear)"/>
<rect x="672" y="175" width="191" height="48" rx="6" fill="url(#paint6_linear)"/>
<rect x="671" y="314" width="191" height="48" rx="6" fill="url(#paint7_linear)"/>
<rect x="646" y="391" width="191" height="48" rx="6" fill="url(#paint8_linear)"/>
<rect x="672" y="241" width="191" height="48" rx="6" fill="url(#paint9_linear)"/>
<rect y="73" width="191" height="48" rx="6" fill="url(#paint10_linear)"/>
<rect x="61" y="404" width="191" height="48" rx="6" fill="url(#paint11_linear)"/>
<path fill-rule="evenodd" clip-rule="evenodd" d="M465.106 483L465.106 482.019L466.106 482.019L466.106 483L465.106 483ZM465.106 480.058L465.106 478.096L466.106 478.096L466.106 480.058L465.106 480.058ZM465.106 476.135L465.106 474.174L466.106 474.174L466.106 476.135L465.106 476.135ZM465.106 472.212L465.106 470.251L466.106 470.251L466.106 472.212L465.106 472.212ZM465.106 468.289L465.106 466.328L466.106 466.328L466.106 468.289L465.106 468.289ZM465.106 464.367L465.106 462.405L466.106 462.405L466.106 464.367L465.106 464.367ZM465.106 460.444L465.106 458.483L466.106 458.483L466.106 460.444L465.106 460.444ZM465.106 456.521L465.106 454.56L466.106 454.56L466.106 456.521L465.106 456.521ZM465.106 452.598L465.106 450.637L466.106 450.637L466.106 452.598L465.106 452.598ZM465.106 448.676L465.106 446.714L466.106 446.714L466.106 448.676L465.106 448.676ZM465.106 444.753L465.106 443.772L466.106 443.772L466.106 444.753L465.106 444.753Z" fill="white"/>
<path d="M462.431 443.317C462.406 442.488 463.729 441.777 465.385 441.728C467.041 441.679 468.403 442.31 468.428 443.138C468.453 443.966 467.13 444.677 465.474 444.727C463.818 444.776 462.455 444.145 462.431 443.317Z" fill="white"/>
<rect x="373" y="483" width="191" height="48" rx="6" fill="url(#paint12_linear)"/>
<path d="M394.852 504.51H396.915C396.885 502.695 395.393 501.442 393.126 501.442C390.894 501.442 389.259 502.675 389.268 504.525C389.263 506.026 390.322 506.886 392.043 507.299L393.151 507.577C394.26 507.846 394.876 508.164 394.881 508.85C394.876 509.596 394.17 510.103 393.077 510.103C391.958 510.103 391.153 509.586 391.083 508.567H389C389.055 510.769 390.631 511.908 393.102 511.908C395.587 511.908 397.049 510.719 397.054 508.855C397.049 507.16 395.771 506.26 394.001 505.862L393.087 505.643C392.202 505.44 391.461 505.112 391.476 504.381C391.476 503.724 392.058 503.242 393.112 503.242C394.141 503.242 394.772 503.71 394.852 504.51Z" fill="#030C21"/>
<path d="M402.524 504.127H401.087V502.298H398.969V504.127H397.925V505.718H398.969V509.695C398.959 511.192 399.979 511.933 401.515 511.868C402.062 511.848 402.449 511.739 402.663 511.669L402.33 510.093C402.226 510.113 402.002 510.163 401.803 510.163C401.381 510.163 401.087 510.004 401.087 509.417V505.718H402.524V504.127Z" fill="#030C21"/>
<path d="M406.081 511.908C407.21 511.908 407.941 511.415 408.313 510.705H408.373V511.763H410.382V506.613C410.382 504.793 408.84 504.028 407.14 504.028C405.311 504.028 404.107 504.903 403.814 506.295L405.773 506.454C405.917 505.947 406.369 505.574 407.13 505.574C407.851 505.574 408.264 505.937 408.264 506.563V506.593C408.264 507.085 407.742 507.15 406.414 507.279C404.903 507.418 403.546 507.925 403.546 509.631C403.546 511.142 404.624 511.908 406.081 511.908ZM406.688 510.446C406.036 510.446 405.569 510.143 405.569 509.561C405.569 508.964 406.061 508.671 406.807 508.567C407.269 508.502 408.025 508.393 408.279 508.224V509.034C408.279 509.835 407.617 510.446 406.688 510.446Z" fill="#030C21"/>
<path d="M412.025 511.763H414.143V509.337L414.714 508.686L416.797 511.763H419.278L416.3 507.433L419.134 504.127H416.703L414.257 507.026H414.143V501.582H412.025V511.763Z" fill="#030C21"/>
<path d="M420.173 511.763H422.291V504.127H420.173V511.763ZM421.237 503.143C421.868 503.143 422.385 502.661 422.385 502.069C422.385 501.482 421.868 501 421.237 501C420.611 501 420.094 501.482 420.094 502.069C420.094 502.661 420.611 503.143 421.237 503.143Z" fill="#030C21"/>
<path d="M426.105 507.349C426.11 506.364 426.697 505.788 427.552 505.788C428.402 505.788 428.914 506.344 428.909 507.279V511.763H431.027V506.901C431.027 505.121 429.983 504.028 428.392 504.028C427.259 504.028 426.439 504.585 426.096 505.474H426.006V504.127H423.988V511.763H426.105V507.349Z" fill="#030C21"/>
<path d="M436.137 514.786C438.319 514.786 439.871 513.792 439.871 511.838V504.127H437.768V505.41H437.688C437.405 504.788 436.783 504.028 435.506 504.028C433.83 504.028 432.413 505.33 432.413 507.93C432.413 510.471 433.79 511.654 435.51 511.654C436.729 511.654 437.41 511.043 437.688 510.411H437.778V511.808C437.778 512.857 437.106 513.265 436.187 513.265C435.252 513.265 434.78 512.857 434.606 512.395L432.647 512.658C432.9 513.862 434.079 514.786 436.137 514.786ZM436.182 510.063C435.143 510.063 434.576 509.238 434.576 507.92C434.576 506.623 435.133 505.713 436.182 505.713C437.211 505.713 437.787 506.583 437.787 507.92C437.787 509.268 437.201 510.063 436.182 510.063Z" fill="#030C21"/>
<path d="M445.328 511.763H447.481V508.154H449.052L450.981 511.763H453.357L451.195 507.806C452.353 507.309 452.994 506.3 452.994 504.908C452.994 502.884 451.657 501.582 449.345 501.582H445.328V511.763ZM447.481 506.424V503.342H448.933C450.175 503.342 450.777 503.893 450.777 504.908C450.777 505.917 450.175 506.424 448.942 506.424H447.481Z" fill="#030C21"/>
<path d="M457.833 511.913C459.722 511.913 460.995 510.993 461.293 509.576L459.334 509.447C459.121 510.028 458.574 510.332 457.868 510.332C456.809 510.332 456.138 509.631 456.138 508.492V508.487H461.338V507.906C461.338 505.31 459.767 504.028 457.748 504.028C455.501 504.028 454.045 505.624 454.045 507.98C454.045 510.401 455.481 511.913 457.833 511.913ZM456.138 507.175C456.182 506.305 456.844 505.609 457.783 505.609C458.703 505.609 459.339 506.265 459.344 507.175H456.138Z" fill="#030C21"/>
<path d="M464.172 511.763H466.409L467.721 506.961H467.816L469.128 511.763H471.371L473.444 504.127H471.306L470.143 509.228H470.078L468.825 504.127H466.722L465.489 509.258H465.42L464.236 504.127H462.094L464.172 511.763Z" fill="#030C21"/>
<path d="M476.751 511.908C477.88 511.908 478.61 511.415 478.983 510.705H479.043V511.763H481.051V506.613C481.051 504.793 479.51 504.028 477.81 504.028C475.98 504.028 474.777 504.903 474.484 506.295L476.443 506.454C476.587 505.947 477.039 505.574 477.8 505.574C478.521 505.574 478.934 505.937 478.934 506.563V506.593C478.934 507.085 478.412 507.15 477.084 507.279C475.573 507.418 474.216 507.925 474.216 509.631C474.216 511.142 475.294 511.908 476.751 511.908ZM477.358 510.446C476.706 510.446 476.239 510.143 476.239 509.561C476.239 508.964 476.731 508.671 477.477 508.567C477.939 508.502 478.695 508.393 478.949 508.224V509.034C478.949 509.835 478.287 510.446 477.358 510.446Z" fill="#030C21"/>
<path d="M482.695 511.763H484.812V507.443C484.812 506.504 485.499 505.857 486.433 505.857C486.727 505.857 487.129 505.907 487.328 505.972V504.092C487.139 504.048 486.876 504.018 486.662 504.018C485.807 504.018 485.106 504.515 484.827 505.46H484.748V504.127H482.695V511.763Z" fill="#030C21"/>
<path d="M490.882 511.888C492.115 511.888 492.756 511.177 493.049 510.54H493.139V511.763H495.227V501.582H493.114V505.41H493.049C492.766 504.788 492.154 504.028 490.877 504.028C489.201 504.028 487.784 505.33 487.784 507.955C487.784 510.511 489.142 511.888 490.882 511.888ZM491.553 510.202C490.514 510.202 489.947 509.278 489.947 507.945C489.947 506.623 490.504 505.713 491.553 505.713C492.582 505.713 493.159 506.583 493.159 507.945C493.159 509.308 492.572 510.202 491.553 510.202Z" fill="#030C21"/>
<path d="M503.322 506.305C503.133 504.898 501.999 504.028 500.07 504.028C498.116 504.028 496.829 504.933 496.834 506.404C496.829 507.548 497.55 508.288 499.041 508.587L500.364 508.85C501.03 508.984 501.333 509.228 501.343 509.611C501.333 510.063 500.841 510.386 500.1 510.386C499.344 510.386 498.842 510.063 498.713 509.442L496.63 509.551C496.829 511.013 498.072 511.913 500.095 511.913C502.074 511.913 503.491 510.903 503.496 509.397C503.491 508.293 502.77 507.632 501.288 507.329L499.906 507.05C499.195 506.896 498.932 506.653 498.937 506.285C498.932 505.827 499.449 505.529 500.105 505.529C500.841 505.529 501.278 505.932 501.383 506.424L503.322 506.305Z" fill="#030C21"/>
<path d="M520.858 500.179H519.273L516 502.352V503.963L519.196 501.841H519.273V513.27H520.858V500.179Z" fill="#030C21"/>
<path d="M528.893 513.449C531.782 513.449 533.444 511.001 533.444 506.724C533.444 502.48 531.756 500 528.893 500C526.029 500 524.342 502.48 524.342 506.724C524.342 511.001 526.004 513.449 528.893 513.449ZM528.893 512.043C526.988 512.043 525.876 510.131 525.876 506.724C525.876 503.324 527.001 501.381 528.893 501.381C530.785 501.381 531.91 503.324 531.91 506.724C531.91 510.131 530.798 512.043 528.893 512.043Z" fill="#030C21"/>
<path d="M542.546 510.815C542.546 512.247 543.441 513.449 545.103 513.449C546.739 513.449 547.634 512.247 547.634 510.815V510.125C547.634 508.693 546.765 507.491 545.103 507.491C543.467 507.491 542.546 508.693 542.546 510.125V510.815ZM536.026 503.324C536.026 504.756 536.921 505.957 538.583 505.957C540.219 505.957 541.114 504.756 541.114 503.324V502.634C541.114 501.202 540.245 500 538.583 500C536.947 500 536.026 501.202 536.026 502.634V503.324ZM536.512 513.27H537.969L546.969 500.179H545.512L536.512 513.27ZM543.85 510.125C543.85 509.332 544.208 508.591 545.103 508.591C546.023 508.591 546.33 509.332 546.33 510.125V510.815C546.33 511.608 545.998 512.349 545.103 512.349C544.183 512.349 543.85 511.608 543.85 510.815V510.125ZM537.33 502.634C537.33 501.841 537.688 501.099 538.583 501.099C539.504 501.099 539.81 501.841 539.81 502.634V503.324C539.81 504.116 539.478 504.858 538.583 504.858C537.663 504.858 537.33 504.116 537.33 503.324V502.634Z" fill="#030C21"/>
<path d="M661 31.7635H663.153V28.4624H664.962C667.304 28.4624 668.666 27.0653 668.666 25.032C668.666 23.0085 667.329 21.5817 665.017 21.5817H661V31.7635ZM663.153 26.7372V23.3416H664.604C665.847 23.3416 666.449 24.0178 666.449 25.032C666.449 26.0412 665.847 26.7372 664.614 26.7372H663.153Z" fill="#030C21"/>
<path d="M670.025 31.7635H672.143V27.4432C672.143 26.5036 672.829 25.8572 673.763 25.8572C674.057 25.8572 674.459 25.907 674.658 25.9716V24.0923C674.469 24.0476 674.206 24.0178 673.992 24.0178C673.137 24.0178 672.436 24.5149 672.157 25.4595H672.078V24.1271H670.025V31.7635Z" fill="#030C21"/>
<path d="M675.753 31.7635H677.871V24.1271H675.753V31.7635ZM676.817 23.1428C677.449 23.1428 677.966 22.6605 677.966 22.0689C677.966 21.4822 677.449 21 676.817 21C676.191 21 675.674 21.4822 675.674 22.0689C675.674 22.6605 676.191 23.1428 676.817 23.1428Z" fill="#030C21"/>
<path d="M686.687 24.1271H684.445L682.864 29.5909H682.784L681.198 24.1271H678.961L681.631 31.7635H684.017L686.687 24.1271Z" fill="#030C21"/>
<path d="M689.73 31.9077C690.858 31.9077 691.589 31.4155 691.962 30.7045H692.021V31.7635H694.03V26.6129C694.03 24.7933 692.489 24.0277 690.789 24.0277C688.959 24.0277 687.756 24.9027 687.463 26.2947L689.421 26.4538C689.566 25.9467 690.018 25.5739 690.779 25.5739C691.499 25.5739 691.912 25.9368 691.912 26.5632V26.593C691.912 27.0852 691.39 27.1499 690.063 27.2791C688.551 27.4183 687.194 27.9254 687.194 29.6307C687.194 31.142 688.273 31.9077 689.73 31.9077ZM690.336 30.446C689.685 30.446 689.218 30.1428 689.218 29.5611C689.218 28.9645 689.71 28.6712 690.455 28.5668C690.918 28.5021 691.673 28.3928 691.927 28.2237V29.0341C691.927 29.8345 691.266 30.446 690.336 30.446Z" fill="#030C21"/>
<path d="M699.735 24.1271H698.298V22.2976H696.18V24.1271H695.136V25.718H696.18V29.6953C696.17 31.1918 697.189 31.9325 698.726 31.8679C699.273 31.848 699.66 31.7386 699.874 31.669L699.541 30.093C699.437 30.1129 699.213 30.1626 699.014 30.1626C698.591 30.1626 698.298 30.0036 698.298 29.4169V25.718H699.735V24.1271Z" fill="#030C21"/>
<path d="M704.513 31.9126C706.402 31.9126 707.675 30.9929 707.973 29.576L706.014 29.4467C705.8 30.0284 705.253 30.3317 704.547 30.3317C703.488 30.3317 702.817 29.6307 702.817 28.4922V28.4872H708.018V27.9055C708.018 25.3104 706.447 24.0277 704.428 24.0277C702.181 24.0277 700.724 25.6236 700.724 27.9801C700.724 30.4013 702.161 31.9126 704.513 31.9126ZM702.817 27.1747C702.862 26.3047 703.523 25.6087 704.463 25.6087C705.383 25.6087 706.019 26.2649 706.024 27.1747H702.817Z" fill="#030C21"/>
<path d="M777.858 21.179H776.273L773 23.3523V24.9631L776.196 22.8409H776.273V34.2699H777.858V21.179Z" fill="#030C21"/>
<path d="M785.816 34.4489C788.43 34.4489 790.252 32.9212 790.265 30.7926C790.252 29.1371 789.146 27.7308 787.734 27.4688V27.392C788.961 27.0724 789.766 25.8707 789.779 24.4773C789.766 22.483 788.092 21 785.816 21C783.515 21 781.84 22.483 781.853 24.4773C781.84 25.8707 782.646 27.0724 783.898 27.392V27.4688C782.46 27.7308 781.354 29.1371 781.367 30.7926C781.354 32.9212 783.176 34.4489 785.816 34.4489ZM785.816 33.0426C784.02 33.0426 782.914 32.1222 782.927 30.7159C782.914 29.2393 784.135 28.1847 785.816 28.1847C787.472 28.1847 788.692 29.2393 788.705 30.7159C788.692 32.1222 787.587 33.0426 785.816 33.0426ZM785.816 26.8295C784.384 26.8295 783.374 25.9347 783.387 24.5795C783.374 23.25 784.346 22.3807 785.816 22.3807C787.261 22.3807 788.232 23.25 788.245 24.5795C788.232 25.9347 787.222 26.8295 785.816 26.8295Z" fill="#030C21"/>
<path d="M793.435 34.3722C794.068 34.3722 794.586 33.8544 794.586 33.2216C794.586 32.5888 794.068 32.071 793.435 32.071C792.803 32.071 792.285 32.5888 792.285 33.2216C792.285 33.8544 792.803 34.3722 793.435 34.3722Z" fill="#030C21"/>
<path d="M801.095 34.4489C803.588 34.4489 805.416 32.608 805.416 30.1023C805.416 27.5646 803.651 25.7045 801.248 25.7045C800.366 25.7045 799.509 26.0178 798.972 26.446H798.896L799.356 22.5852H804.828V21.179H798.026L797.234 27.6222L798.717 27.8011C799.26 27.4112 800.187 27.13 800.992 27.1364C802.661 27.1491 803.882 28.4148 803.882 30.1278C803.882 31.8089 802.705 33.0426 801.095 33.0426C799.752 33.0426 798.685 32.1797 798.563 30.9972H797.029C797.125 32.9915 798.845 34.4489 801.095 34.4489Z" fill="#030C21"/>
<path d="M814.628 31.8153C814.628 33.2472 815.523 34.4489 817.185 34.4489C818.821 34.4489 819.716 33.2472 819.716 31.8153V31.125C819.716 29.6932 818.847 28.4915 817.185 28.4915C815.549 28.4915 814.628 29.6932 814.628 31.125V31.8153ZM808.108 24.3239C808.108 25.7557 809.003 26.9574 810.665 26.9574C812.301 26.9574 813.196 25.7557 813.196 24.3239V23.6335C813.196 22.2017 812.327 21 810.665 21C809.029 21 808.108 22.2017 808.108 23.6335V24.3239ZM808.594 34.2699H810.051L819.051 21.179H817.594L808.594 34.2699ZM815.932 31.125C815.932 30.3324 816.29 29.5909 817.185 29.5909C818.105 29.5909 818.412 30.3324 818.412 31.125V31.8153C818.412 32.608 818.08 33.3494 817.185 33.3494C816.265 33.3494 815.932 32.608 815.932 31.8153V31.125ZM809.412 23.6335C809.412 22.8409 809.77 22.0994 810.665 22.0994C811.586 22.0994 811.892 22.8409 811.892 23.6335V24.3239C811.892 25.1165 811.56 25.858 810.665 25.858C809.745 25.858 809.412 25.1165 809.412 24.3239V23.6335Z" fill="#030C21"/>
<path fill-rule="evenodd" clip-rule="evenodd" d="M616.73 28H618.047V29H617.271L616.865 29.6192L616.028 29.0713L616.73 28ZM622.235 29H620.141V28H622.235V29ZM626.422 29H624.328V28H626.422V29ZM630.61 29H628.516V28H630.61V29ZM634.797 29H632.703V28H634.797V29ZM638.985 29H636.891V28H638.985V29ZM643.172 29H641.078V28H643.172V29ZM647.36 29H645.266V28H647.36V29ZM650.5 29H649.453V28H650.5V29ZM615.758 31.3097L614.651 33.0002L613.814 32.4523L614.921 30.7618L615.758 31.3097ZM613.544 34.6906L612.436 36.3811L611.6 35.8332L612.707 34.1427L613.544 34.6906ZM611.329 38.0716L610.222 39.7621L609.386 39.2142L610.493 37.5237L611.329 38.0716ZM609.115 41.4525L608.008 43.143L607.171 42.5951L608.278 40.9046L609.115 41.4525ZM606.901 44.8335L605.794 46.524L604.957 45.9761L606.064 44.2856L606.901 44.8335ZM604.686 48.2144L603.579 49.9049L602.743 49.357L603.85 47.6665L604.686 48.2144ZM602.472 51.5954L601.365 53.2859L600.528 52.738L601.636 51.0475L602.472 51.5954ZM600.258 54.9763L599.151 56.6668L598.314 56.1189L599.421 54.4284L600.258 54.9763ZM598.044 58.3573L596.936 60.0478L596.1 59.4999L597.207 57.8094L598.044 58.3573ZM595.829 61.7382L594.722 63.4287L593.886 62.8808L594.993 61.1903L595.829 61.7382ZM593.615 65.1192L592.508 66.8097L591.671 66.2618L592.778 64.5713L593.615 65.1192ZM591.401 68.5001L590.294 70.1906L589.457 69.6427L590.564 67.9522L591.401 68.5001ZM589.186 71.8811L588.079 73.5716L587.243 73.0237L588.35 71.3332L589.186 71.8811ZM586.972 75.262L585.865 76.9525L585.028 76.4046L586.136 74.7141L586.972 75.262ZM584.758 78.643L583.651 80.3335L582.814 79.7856L583.921 78.0951L584.758 78.643ZM582.544 82.0239L581.436 83.7144L580.6 83.1665L581.707 81.4761L582.544 82.0239ZM580.329 85.4049L579.222 87.0954L578.386 86.5475L579.493 84.857L580.329 85.4049ZM578.115 88.7858L577.008 90.4763L576.171 89.9284L577.278 88.238L578.115 88.7858ZM575.901 92.1668L574.794 93.8573L573.957 93.3094L575.064 91.6189L575.901 92.1668ZM573.686 95.5478L572.579 97.2382L571.743 96.6903L572.85 94.9999L573.686 95.5478ZM571.472 98.9287L570.919 99.7739L570.082 99.2261L570.636 98.3808L571.472 98.9287Z" fill="white"/>
<path d="M572.647 101.882C572.136 102.534 570.665 102.234 569.361 101.212C568.057 100.19 567.414 98.8326 567.925 98.1806C568.436 97.5286 569.908 97.8286 571.212 98.8507C572.516 99.8729 573.158 101.23 572.647 101.882Z" fill="white"/>
<path fill-rule="evenodd" clip-rule="evenodd" d="M648.277 128.416L647.377 129.016L646.822 128.184L647.722 127.584L648.277 128.416ZM645.577 130.216L643.777 131.416L643.222 130.584L645.022 129.384L645.577 130.216ZM641.977 132.616L640.177 133.816L639.622 132.984L641.422 131.784L641.977 132.616ZM638.377 135.016L636.577 136.216L636.022 135.384L637.822 134.184L638.377 135.016ZM634.777 137.416L632.977 138.616L632.422 137.784L634.222 136.584L634.777 137.416ZM631.177 139.816L629.377 141.016L628.822 140.184L630.622 138.984L631.177 139.816ZM627.577 142.216L625.777 143.416L625.222 142.584L627.022 141.384L627.577 142.216ZM623.977 144.616L622.177 145.816L621.623 144.984L623.422 143.784L623.977 144.616ZM620.377 147.016L618.577 148.216L618.023 147.384L619.823 146.184L620.377 147.016ZM616.777 149.416L614.977 150.616L614.423 149.784L616.223 148.584L616.777 149.416ZM613.177 151.816L612.277 152.416L611.723 151.584L612.623 150.984L613.177 151.816Z" fill="white"/>
<path d="M613.647 154.382C613.136 155.034 611.665 154.734 610.361 153.712C609.057 152.69 608.414 151.333 608.925 150.681C609.436 150.029 610.908 150.329 612.212 151.351C613.516 152.373 614.158 153.73 613.647 154.382Z" fill="white"/>
<path fill-rule="evenodd" clip-rule="evenodd" d="M642.87 196H643.982V197H643.129L642.399 197.406L641.913 196.532L642.87 196ZM647.91 197H645.946V196H647.91V197ZM651.839 197H649.875V196H651.839V197ZM655.768 197H653.803V196H655.768V197ZM659.696 197H657.732V196H659.696V197ZM663.625 197H661.661V196H663.625V197ZM667.554 197H665.589V196H667.554V197ZM670.5 197H669.518V196H670.5V197ZM640.711 198.343L639.024 199.281L638.538 198.407L640.226 197.469L640.711 198.343ZM637.336 200.219L635.649 201.156L635.163 200.282L636.851 199.345L637.336 200.219ZM633.961 202.094L632.274 203.031L631.788 202.157L633.476 201.22L633.961 202.094ZM630.587 203.969L628.899 204.907L628.413 204.032L630.101 203.095L630.587 203.969ZM627.212 205.844L625.524 206.782L625.038 205.908L626.726 204.97L627.212 205.844ZM623.837 207.719L622.149 208.657L621.663 207.783L623.351 206.845L623.837 207.719ZM620.462 209.595L618.774 210.532L618.289 209.658L619.976 208.72L620.462 209.595ZM617.087 211.47L616.243 211.939L615.757 211.064L616.601 210.596L617.087 211.47Z" fill="white"/>
<path d="M617.647 213.883C617.136 214.535 615.665 214.235 614.361 213.213C613.057 212.191 612.414 210.834 612.925 210.182C613.436 209.53 614.908 209.83 616.212 210.852C617.516 211.874 618.158 213.231 617.647 213.883Z" fill="white"/>
<path fill-rule="evenodd" clip-rule="evenodd" d="M641.87 337.564H643.053V336.564H642.129L641.399 336.158L640.913 337.032L641.87 337.564ZM647.268 336.564H645.16V337.564H647.268V336.564ZM651.482 336.564H649.375V337.564H651.482V336.564ZM655.696 336.564H653.589V337.564H655.696V336.564ZM659.911 336.564H657.804V337.564H659.911V336.564ZM664.125 336.564H662.018V337.564H664.125V336.564ZM668.339 336.564H666.232V337.564H668.339V336.564ZM671.5 336.564H670.447V337.564H671.5V336.564ZM639.711 335.221L638.024 334.283L637.538 335.157L639.226 336.095L639.711 335.221ZM636.336 333.345L634.649 332.408L634.163 333.282L635.851 334.219L636.336 333.345ZM632.961 331.47L631.274 330.533L630.788 331.407L632.476 332.344L632.961 331.47ZM629.587 329.595L627.899 328.657L627.413 329.532L629.101 330.469L629.587 329.595ZM626.212 327.72L624.524 326.782L624.038 327.656L625.726 328.594L626.212 327.72ZM622.837 325.845L621.149 324.907L620.663 325.781L622.351 326.719L622.837 325.845ZM619.462 323.969L617.774 323.032L617.289 323.906L618.976 324.844L619.462 323.969ZM616.087 322.094L615.243 321.625L614.757 322.5L615.601 322.968L616.087 322.094Z" fill="white"/>
<path d="M616.647 319.68C616.136 319.028 614.665 319.329 613.361 320.351C612.057 321.373 611.414 322.73 611.925 323.382C612.436 324.034 613.908 323.734 615.212 322.712C616.516 321.69 617.158 320.332 616.647 319.68Z" fill="white"/>
<path fill-rule="evenodd" clip-rule="evenodd" d="M593.87 415.564H594.971V414.564H594.129L593.399 414.158L592.913 415.032L593.87 415.564ZM598.855 414.564H596.913V415.564H598.855V414.564ZM602.74 414.564H600.798V415.564H602.74V414.564ZM606.625 414.564H604.682V415.564H606.625V414.564ZM610.509 414.564H608.567V415.564H610.509V414.564ZM614.394 414.564H612.452V415.564H614.394V414.564ZM618.279 414.564H616.336V415.564H618.279V414.564ZM622.163 414.564H620.221V415.564H622.163V414.564ZM626.048 414.564H624.106V415.564H626.048V414.564ZM629.933 414.564H627.99V415.564H629.933V414.564ZM633.817 414.564H631.875V415.564H633.817V414.564ZM637.702 414.564H635.76V415.564H637.702V414.564ZM641.587 414.564H639.644V415.564H641.587V414.564ZM644.5 414.564H643.529V415.564H644.5V414.564ZM591.711 413.221L590.024 412.283L589.538 413.157L591.226 414.095L591.711 413.221ZM588.336 411.345L586.649 410.408L586.163 411.282L587.851 412.219L588.336 411.345ZM584.961 409.47L583.274 408.533L582.788 409.407L584.476 410.344L584.961 409.47ZM581.587 407.595L579.899 406.657L579.413 407.532L581.101 408.469L581.587 407.595ZM578.212 405.72L576.524 404.782L576.038 405.656L577.726 406.594L578.212 405.72ZM574.837 403.845L573.149 402.907L572.663 403.781L574.351 404.719L574.837 403.845ZM571.462 401.969L569.774 401.032L569.289 401.906L570.976 402.844L571.462 401.969ZM568.087 400.094L567.243 399.625L566.757 400.5L567.601 400.968L568.087 400.094Z" fill="white"/>
<path d="M568.647 397.68C568.136 397.028 566.665 397.329 565.361 398.351C564.057 399.373 563.414 400.73 563.925 401.382C564.436 402.034 565.908 401.734 567.212 400.712C568.516 399.69 569.158 398.332 568.647 397.68Z" fill="white"/>
<path fill-rule="evenodd" clip-rule="evenodd" d="M319.63 429.064H318.508V428.064H319.371L320.101 427.658L320.587 428.532L319.63 429.064ZM314.537 428.064H316.522V429.064H314.537V428.064ZM310.566 428.064H312.552V429.064H310.566V428.064ZM306.596 428.064H308.581V429.064H306.596V428.064ZM302.625 428.064H304.611V429.064H302.625V428.064ZM298.655 428.064H300.64V429.064H298.655V428.064ZM294.684 428.064H296.669V429.064H294.684V428.064ZM290.713 428.064H292.699V429.064H290.713V428.064ZM286.743 428.064H288.728V429.064H286.743V428.064ZM282.772 428.064H284.757V429.064H282.772V428.064ZM278.801 428.064H280.787V429.064H278.801V428.064ZM274.831 428.064H276.816V429.064H274.831V428.064ZM270.86 428.064H272.846V429.064H270.86V428.064ZM266.89 428.064H268.875V429.064H266.89V428.064ZM262.919 428.064H264.904V429.064H262.919V428.064ZM258.948 428.064H260.934V429.064H258.948V428.064ZM254.978 428.064H256.963V429.064H254.978V428.064ZM252 428.064H252.992V429.064H252V428.064ZM321.789 426.721L323.476 425.783L323.962 426.657L322.274 427.595L321.789 426.721ZM325.164 424.845L326.851 423.908L327.337 424.782L325.649 425.719L325.164 424.845ZM328.539 422.97L330.226 422.033L330.712 422.907L329.024 423.844L328.539 422.97ZM331.913 421.095L333.601 420.157L334.087 421.032L332.399 421.969L331.913 421.095ZM335.288 419.22L336.976 418.282L337.462 419.156L335.774 420.094L335.288 419.22ZM338.663 417.345L340.351 416.407L340.837 417.281L339.149 418.219L338.663 417.345ZM342.038 415.469L343.726 414.532L344.211 415.406L342.524 416.344L342.038 415.469ZM345.413 413.594L346.257 413.125L346.743 414L345.899 414.468L345.413 413.594Z" fill="white"/>
<path d="M344.853 411.18C345.364 410.528 346.835 410.829 348.139 411.851C349.443 412.873 350.086 414.23 349.575 414.882C349.064 415.534 347.592 415.234 346.288 414.212C344.984 413.19 344.342 411.832 344.853 411.18Z" fill="white"/>
<path fill-rule="evenodd" clip-rule="evenodd" d="M233.63 315.064H232.463V314.064H233.371L234.101 313.658L234.587 314.532L233.63 315.064ZM228.313 314.064H230.388V315.064H228.313V314.064ZM224.163 314.064H226.238V315.064H224.163V314.064ZM220.013 314.064H222.088V315.064H220.013V314.064ZM215.863 314.064H217.938V315.064H215.863V314.064ZM211.713 314.064H213.788V315.064H211.713V314.064ZM207.563 314.064H209.638V315.064H207.563V314.064ZM203.412 314.064H205.487V315.064H203.412V314.064ZM199.262 314.064H201.337V315.064H199.262V314.064ZM195.112 314.064H197.187V315.064H195.112V314.064ZM192 314.064H193.037V315.064H192V314.064ZM235.789 312.721L237.476 311.783L237.962 312.657L236.274 313.595L235.789 312.721ZM239.164 310.845L240.851 309.908L241.337 310.782L239.649 311.719L239.164 310.845ZM242.539 308.97L244.226 308.033L244.712 308.907L243.024 309.844L242.539 308.97ZM245.913 307.095L247.601 306.157L248.087 307.032L246.399 307.969L245.913 307.095ZM249.288 305.22L250.976 304.282L251.462 305.156L249.774 306.094L249.288 305.22ZM252.663 303.345L254.351 302.407L254.837 303.281L253.149 304.219L252.663 303.345ZM256.038 301.469L257.726 300.532L258.211 301.406L256.524 302.344L256.038 301.469ZM259.413 299.594L260.257 299.125L260.743 300L259.899 300.468L259.413 299.594Z" fill="white"/>
<path d="M258.853 297.18C259.364 296.528 260.835 296.829 262.139 297.851C263.443 298.873 264.086 300.23 263.575 300.882C263.064 301.534 261.592 301.234 260.288 300.212C258.984 299.19 258.342 297.832 258.853 297.18Z" fill="white"/>
<path fill-rule="evenodd" clip-rule="evenodd" d="M624.031 266H623V265H624.031V266ZM628.156 266H626.093V265H628.156V266ZM632.281 266H630.218V265H632.281V266ZM636.406 266H634.343V265H636.406V266ZM640.531 266H638.468V265H640.531V266ZM644.656 266H642.593V265H644.656V266ZM648.781 266H646.718V265H648.781V266ZM652.906 266H650.844V265H652.906V266ZM657.031 266H654.969V265H657.031V266ZM661.156 266H659.094V265H661.156V266ZM665.281 266H663.219V265H665.281V266ZM669.406 266H667.344V265H669.406V266ZM672.5 266H671.469V265H672.5V266Z" fill="white"/>
<path d="M623.5 269C622.672 269 622 267.657 622 266C622 264.343 622.672 263 623.5 263C624.328 263 625 264.343 625 266C625 267.657 624.328 269 623.5 269Z" fill="white"/>
<path fill-rule="evenodd" clip-rule="evenodd" d="M217.237 96.5H215.982V97.5H216.763L217.238 98.0805L218.012 97.4472L217.237 96.5ZM211.91 97.5H213.946V96.5H211.91V97.5ZM207.839 97.5H209.875V96.5H207.839V97.5ZM203.768 97.5H205.803V96.5H203.768V97.5ZM199.696 97.5H201.732V96.5H199.696V97.5ZM195.625 97.5H197.66V96.5H195.625V97.5ZM191.553 97.5H193.589V96.5H191.553V97.5ZM188.5 97.5H189.518V96.5H188.5V97.5ZM218.488 99.6083L219.738 101.136L220.512 100.503L219.262 98.975L218.488 99.6083ZM220.988 102.664L222.238 104.192L223.012 103.558L221.762 102.031L220.988 102.664ZM223.488 105.719L224.738 107.247L225.512 106.614L224.262 105.086L223.488 105.719ZM225.988 108.775L227.238 110.303L228.012 109.669L226.762 108.142L225.988 108.775ZM228.488 111.83L229.738 113.358L230.512 112.725L229.262 111.197L228.488 111.83ZM230.988 114.886L232.238 116.414L233.012 115.781L231.762 114.253L230.988 114.886ZM233.488 117.942L234.738 119.469L235.512 118.836L234.262 117.308L233.488 117.942ZM235.988 120.997L237.238 122.525L238.012 121.892L236.762 120.364L235.988 120.997ZM238.488 124.053L239.738 125.581L240.512 124.947L239.262 123.419L238.488 124.053ZM240.988 127.108L242.238 128.636L243.012 128.003L241.762 126.475L240.988 127.108ZM243.488 130.164L244.738 131.692L245.512 131.058L244.262 129.531L243.488 130.164ZM245.988 133.219L247.238 134.747L248.012 134.114L246.762 132.586L245.988 133.219ZM248.488 136.275L249.738 137.803L250.512 137.169L249.262 135.642L248.488 136.275ZM250.988 139.331L252.238 140.858L253.012 140.225L251.762 138.697L250.988 139.331ZM253.488 142.386L254.738 143.914L255.512 143.281L254.262 141.753L253.488 142.386ZM255.988 145.442L257.238 146.969L258.012 146.336L256.762 144.808L255.988 145.442ZM258.488 148.497L259.738 150.025L260.512 149.392L259.262 147.864L258.488 148.497ZM260.988 151.553L261.613 152.317L262.387 151.683L261.762 150.919L260.988 151.553Z" fill="white"/>
<path d="M259.853 154.382C260.364 155.034 261.835 154.734 263.139 153.712C264.443 152.69 265.086 151.333 264.575 150.681C264.064 150.029 262.592 150.329 261.288 151.351C259.984 152.373 259.342 153.73 259.853 154.382Z" fill="white"/>
<path d="M16 93.375H19.1172V101.782H21.245V93.375H24.3622V91.6001H16V93.375Z" fill="#030C21"/>
<path d="M28.0723 101.931C29.9615 101.931 31.2342 101.011 31.5325 99.5944L29.5737 99.4652C29.3599 100.047 28.813 100.35 28.1071 100.35C27.0481 100.35 26.377 99.6491 26.377 98.5106V98.5056H31.5772V97.924C31.5772 95.3288 30.0062 94.0461 27.9877 94.0461C25.7406 94.0461 24.2839 95.642 24.2839 97.9985C24.2839 100.42 25.7207 101.931 28.0723 101.931ZM26.377 97.1931C26.4217 96.3231 27.0829 95.6271 28.0225 95.6271C28.9423 95.6271 29.5787 96.2833 29.5836 97.1931H26.377Z" fill="#030C21"/>
<path d="M35.1369 101.926C36.2654 101.926 36.9963 101.434 37.3691 100.723H37.4288V101.782H39.4373V96.6313C39.4373 94.8117 37.8961 94.0461 36.1958 94.0461C34.3663 94.0461 33.1632 94.9211 32.8699 96.3132L34.8287 96.4723C34.9728 95.9652 35.4252 95.5923 36.1859 95.5923C36.9068 95.5923 37.3194 95.9552 37.3194 96.5816V96.6115C37.3194 97.1036 36.7974 97.1683 35.47 97.2975C33.9586 97.4367 32.6014 97.9438 32.6014 99.6491C32.6014 101.16 33.6802 101.926 35.1369 101.926ZM35.7434 100.464C35.0922 100.464 34.6248 100.161 34.6248 99.5795C34.6248 98.9829 35.117 98.6896 35.8627 98.5852C36.3251 98.5206 37.0808 98.4112 37.3343 98.2421V99.0525C37.3343 99.8529 36.6731 100.464 35.7434 100.464Z" fill="#030C21"/>
<path d="M41.0804 101.782H43.1983V97.1981C43.1983 96.3529 43.7353 95.7911 44.4412 95.7911C45.1373 95.7911 45.6046 96.2684 45.6046 97.0191V101.782H47.6578V97.1186C47.6578 96.3281 48.1103 95.7911 48.8809 95.7911C49.557 95.7911 50.0641 96.2137 50.0641 97.0639V101.782H52.177V96.6463C52.177 94.9907 51.1926 94.0461 49.7708 94.0461C48.6522 94.0461 47.7821 94.6179 47.4689 95.4929H47.3894C47.1458 94.6079 46.3652 94.0461 45.3162 94.0461C44.2871 94.0461 43.5066 94.593 43.1884 95.4929H43.0989V94.1456H41.0804V101.782Z" fill="#030C21"/>
<path d="M140 103.744H149.176V102.182H142.415V102.068L145.682 98.5739C148.182 95.8963 148.92 94.6463 148.92 93.0341C148.92 90.7898 147.102 89 144.545 89C141.996 89 140.057 90.733 140.057 93.2898H141.733C141.733 91.6349 142.805 90.5341 144.489 90.5341C146.065 90.5341 147.273 91.5 147.273 93.0341C147.273 94.3764 146.484 95.3707 144.801 97.2102L140 102.466V103.744Z" fill="#030C21"/>
<path d="M157.223 89.1989H155.462L151.825 91.6136V93.4034L155.376 91.0455H155.462V103.744H157.223V89.1989Z" fill="#030C21"/>
<path d="M168.821 101.017C168.821 102.608 169.815 103.943 171.662 103.943C173.48 103.943 174.474 102.608 174.474 101.017V100.25C174.474 98.6591 173.509 97.3239 171.662 97.3239C169.844 97.3239 168.821 98.6591 168.821 100.25V101.017ZM161.577 92.6932C161.577 94.2841 162.571 95.6193 164.418 95.6193C166.236 95.6193 167.23 94.2841 167.23 92.6932V91.9261C167.23 90.3352 166.264 89 164.418 89C162.599 89 161.577 90.3352 161.577 91.9261V92.6932ZM162.116 103.744H163.736L173.736 89.1989H172.116L162.116 103.744ZM170.27 100.25C170.27 99.3693 170.668 98.5455 171.662 98.5455C172.685 98.5455 173.026 99.3693 173.026 100.25V101.017C173.026 101.898 172.656 102.722 171.662 102.722C170.639 102.722 170.27 101.898 170.27 101.017V100.25ZM163.026 91.9261C163.026 91.0455 163.423 90.2216 164.418 90.2216C165.44 90.2216 165.781 91.0455 165.781 91.9261V92.6932C165.781 93.5739 165.412 94.3977 164.418 94.3977C163.395 94.3977 163.026 93.5739 163.026 92.6932V91.9261Z" fill="#030C21"/>
<rect x="1" y="289" width="191" height="48" rx="6" fill="url(#paint13_linear)"/>
<path d="M23.8516 310.068H25.9148C25.8849 308.253 24.3935 307 22.1264 307C19.8942 307 18.2585 308.233 18.2685 310.083C18.2635 311.584 19.3224 312.444 21.0426 312.857L22.1513 313.135C23.2599 313.404 23.8764 313.722 23.8814 314.408C23.8764 315.154 23.1705 315.661 22.0767 315.661C20.9581 315.661 20.1527 315.144 20.0831 314.124H18C18.0547 316.327 19.6307 317.465 22.1016 317.465C24.5874 317.465 26.049 316.277 26.054 314.413C26.049 312.717 24.7713 311.818 23.0014 311.42L22.0866 311.201C21.2017 310.997 20.4609 310.669 20.4759 309.938C20.4759 309.282 21.0575 308.8 22.1115 308.8C23.1406 308.8 23.772 309.267 23.8516 310.068Z" fill="#030C21"/>
<path d="M30.9423 317.47C32.8315 317.47 34.1042 316.551 34.4025 315.134L32.4437 315.004C32.2299 315.586 31.6831 315.889 30.9771 315.889C29.9181 315.889 29.247 315.188 29.247 314.05V314.045H34.4473V313.463C34.4473 310.868 32.8762 309.585 30.8578 309.585C28.6106 309.585 27.1539 311.181 27.1539 313.538C27.1539 315.959 28.5907 317.47 30.9423 317.47ZM29.247 312.732C29.2917 311.862 29.9529 311.166 30.8926 311.166C31.8123 311.166 32.4487 311.823 32.4537 312.732H29.247Z" fill="#030C21"/>
<path d="M39.3095 317.47C41.1987 317.47 42.4714 316.551 42.7697 315.134L40.8109 315.004C40.5971 315.586 40.0502 315.889 39.3443 315.889C38.2853 315.889 37.6142 315.188 37.6142 314.05V314.045H42.8145V313.463C42.8145 310.868 41.2434 309.585 39.225 309.585C36.9778 309.585 35.5211 311.181 35.5211 313.538C35.5211 315.959 36.9579 317.47 39.3095 317.47ZM37.6142 312.732C37.6589 311.862 38.3201 311.166 39.2598 311.166C40.1795 311.166 40.8159 311.823 40.8208 312.732H37.6142Z" fill="#030C21"/>
<path d="M47.0105 317.445C48.2434 317.445 48.8848 316.734 49.1781 316.098H49.2676V317.321H51.3556V307.139H49.2427V310.967H49.1781C48.8947 310.346 48.2832 309.585 47.0055 309.585C45.3301 309.585 43.9132 310.888 43.9132 313.513C43.9132 316.068 45.2704 317.445 47.0105 317.445ZM47.6816 315.76C46.6426 315.76 46.0758 314.835 46.0758 313.503C46.0758 312.181 46.6326 311.271 47.6816 311.271C48.7108 311.271 49.2875 312.141 49.2875 313.503C49.2875 314.865 48.7008 315.76 47.6816 315.76Z" fill="#030C21"/>
<path d="M148.4 306.23H146.815L143.542 308.404V310.014L146.739 307.892H146.815V319.321H148.4V306.23Z" fill="#030C21"/>
<path d="M156.435 319.5C159.324 319.5 160.986 317.052 160.986 312.776C160.986 308.531 159.299 306.051 156.435 306.051C153.572 306.051 151.884 308.531 151.884 312.776C151.884 317.052 153.546 319.5 156.435 319.5ZM156.435 318.094C154.53 318.094 153.418 316.183 153.418 312.776C153.418 309.375 154.543 307.432 156.435 307.432C158.327 307.432 159.452 309.375 159.452 312.776C159.452 316.183 158.34 318.094 156.435 318.094Z" fill="#030C21"/>
<path d="M170.089 316.867C170.089 318.298 170.984 319.5 172.645 319.5C174.282 319.5 175.177 318.298 175.177 316.867V316.176C175.177 314.744 174.307 313.543 172.645 313.543C171.009 313.543 170.089 314.744 170.089 316.176V316.867ZM163.569 309.375C163.569 310.807 164.464 312.009 166.126 312.009C167.762 312.009 168.657 310.807 168.657 309.375V308.685C168.657 307.253 167.788 306.051 166.126 306.051C164.489 306.051 163.569 307.253 163.569 308.685V309.375ZM164.055 319.321H165.512L174.512 306.23H173.055L164.055 319.321ZM171.393 316.176C171.393 315.384 171.751 314.642 172.645 314.642C173.566 314.642 173.873 315.384 173.873 316.176V316.867C173.873 317.659 173.54 318.401 172.645 318.401C171.725 318.401 171.393 317.659 171.393 316.867V316.176ZM164.873 308.685C164.873 307.892 165.231 307.151 166.126 307.151C167.046 307.151 167.353 307.892 167.353 308.685V309.375C167.353 310.168 167.02 310.909 166.126 310.909C165.205 310.909 164.873 310.168 164.873 309.375V308.685Z" fill="#030C21"/>
<path d="M664.307 132.763L665.062 130.442H668.737L669.492 132.763H671.799L668.289 122.582H665.515L662 132.763H664.307ZM665.609 128.761L666.862 124.908H666.942L668.195 128.761H665.609Z" fill="#030C21"/>
<path d="M675.443 132.888C676.676 132.888 677.317 132.177 677.611 131.54H677.7V132.763H679.788V122.582H677.675V126.41H677.611C677.327 125.788 676.716 125.028 675.438 125.028C673.763 125.028 672.346 126.33 672.346 128.955C672.346 131.511 673.703 132.888 675.443 132.888ZM676.114 131.202C675.075 131.202 674.509 130.278 674.509 128.945C674.509 127.623 675.065 126.713 676.114 126.713C677.143 126.713 677.72 127.583 677.72 128.945C677.72 130.308 677.134 131.202 676.114 131.202Z" fill="#030C21"/>
<path d="M688.649 125.127H686.407L684.826 130.591H684.746L683.16 125.127H680.923L683.593 132.763H685.979L688.649 125.127Z" fill="#030C21"/>
<path d="M689.733 132.763H691.851V125.127H689.733V132.763ZM690.797 124.143C691.428 124.143 691.945 123.661 691.945 123.069C691.945 122.482 691.428 122 690.797 122C690.17 122 689.653 122.482 689.653 123.069C689.653 123.661 690.17 124.143 690.797 124.143Z" fill="#030C21"/>
<path d="M699.901 127.305C699.712 125.898 698.578 125.028 696.65 125.028C694.696 125.028 693.408 125.933 693.413 127.404C693.408 128.548 694.129 129.288 695.62 129.587L696.943 129.85C697.609 129.984 697.912 130.228 697.922 130.611C697.912 131.063 697.42 131.386 696.679 131.386C695.924 131.386 695.422 131.063 695.292 130.442L693.209 130.551C693.408 132.013 694.651 132.913 696.674 132.913C698.653 132.913 700.07 131.903 700.075 130.397C700.07 129.293 699.349 128.632 697.868 128.329L696.485 128.05C695.775 127.896 695.511 127.653 695.516 127.285C695.511 126.827 696.028 126.529 696.684 126.529C697.42 126.529 697.858 126.932 697.962 127.424L699.901 127.305Z" fill="#030C21"/>
<path d="M704.859 132.913C707.176 132.913 708.617 131.327 708.617 128.975C708.617 126.609 707.176 125.028 704.859 125.028C702.542 125.028 701.1 126.609 701.1 128.975C701.1 131.327 702.542 132.913 704.859 132.913ZM704.869 131.272C703.8 131.272 703.253 130.293 703.253 128.96C703.253 127.628 703.8 126.643 704.869 126.643C705.918 126.643 706.465 127.628 706.465 128.96C706.465 130.293 705.918 131.272 704.869 131.272Z" fill="#030C21"/>
<path d="M709.994 132.763H712.112V128.443C712.112 127.504 712.798 126.857 713.733 126.857C714.026 126.857 714.429 126.907 714.628 126.972V125.092C714.439 125.048 714.176 125.018 713.962 125.018C713.107 125.018 712.406 125.515 712.127 126.46H712.048V125.127H709.994V132.763Z" fill="#030C21"/>
<path d="M722.077 127.305C721.888 125.898 720.754 125.028 718.825 125.028C716.871 125.028 715.584 125.933 715.589 127.404C715.584 128.548 716.305 129.288 717.796 129.587L719.119 129.85C719.785 129.984 720.088 130.228 720.098 130.611C720.088 131.063 719.596 131.386 718.855 131.386C718.099 131.386 717.597 131.063 717.468 130.442L715.385 130.551C715.584 132.013 716.827 132.913 718.85 132.913C720.829 132.913 722.246 131.903 722.251 130.397C722.246 129.293 721.525 128.632 720.043 128.329L718.661 128.05C717.95 127.896 717.687 127.653 717.692 127.285C717.687 126.827 718.204 126.529 718.86 126.529C719.596 126.529 720.033 126.932 720.138 127.424L722.077 127.305Z" fill="#030C21"/>
<path d="M802.449 134.449C804.987 134.449 806.872 132.857 806.872 130.716C806.872 129.054 805.888 127.846 804.239 127.571V127.469C805.562 127.066 806.386 125.979 806.386 124.503C806.386 122.649 804.923 121 802.5 121C800.237 121 798.358 122.393 798.281 124.452H799.815C799.873 123.148 801.113 122.381 802.474 122.381C803.919 122.381 804.852 123.256 804.852 124.58C804.852 125.96 803.772 126.855 802.219 126.855H801.17V128.261H802.219C804.207 128.261 805.313 129.271 805.313 130.716C805.313 132.103 804.104 133.043 802.423 133.043C800.908 133.043 799.707 132.263 799.611 130.997H798C798.096 133.055 799.911 134.449 802.449 134.449Z" fill="#030C21"/>
<path d="M816.16 131.815C816.16 133.247 817.055 134.449 818.717 134.449C820.353 134.449 821.248 133.247 821.248 131.815V131.125C821.248 129.693 820.379 128.491 818.717 128.491C817.08 128.491 816.16 129.693 816.16 131.125V131.815ZM809.64 124.324C809.64 125.756 810.535 126.957 812.197 126.957C813.833 126.957 814.728 125.756 814.728 124.324V123.634C814.728 122.202 813.859 121 812.197 121C810.56 121 809.64 122.202 809.64 123.634V124.324ZM810.126 134.27H811.583L820.583 121.179H819.126L810.126 134.27ZM817.464 131.125C817.464 130.332 817.822 129.591 818.717 129.591C819.637 129.591 819.944 130.332 819.944 131.125V131.815C819.944 132.608 819.612 133.349 818.717 133.349C817.796 133.349 817.464 132.608 817.464 131.815V131.125ZM810.944 123.634C810.944 122.841 811.302 122.099 812.197 122.099C813.117 122.099 813.424 122.841 813.424 123.634V124.324C813.424 125.116 813.092 125.858 812.197 125.858C811.276 125.858 810.944 125.116 810.944 124.324V123.634Z" fill="#030C21"/>
<path d="M688 205.763H690.153V202.462H691.962C694.304 202.462 695.666 201.065 695.666 199.032C695.666 197.009 694.329 195.582 692.017 195.582H688V205.763ZM690.153 200.737V197.342H691.604C692.847 197.342 693.449 198.018 693.449 199.032C693.449 200.041 692.847 200.737 691.614 200.737H690.153Z" fill="#030C21"/>
<path d="M701.922 202.512C701.927 203.536 701.226 204.073 700.465 204.073C699.665 204.073 699.148 203.511 699.143 202.612V198.127H697.025V202.989C697.03 204.774 698.074 205.863 699.61 205.863C700.758 205.863 701.584 205.271 701.927 204.376H702.006V205.763H704.04V198.127H701.922V202.512Z" fill="#030C21"/>
<path d="M705.773 205.763H707.862V204.54H707.956C708.249 205.177 708.891 205.888 710.124 205.888C711.864 205.888 713.221 204.511 713.221 201.955C713.221 199.33 711.804 198.028 710.129 198.028C708.851 198.028 708.239 198.788 707.956 199.41H707.891V195.582H705.773V205.763ZM707.847 201.945C707.847 200.583 708.423 199.713 709.452 199.713C710.501 199.713 711.058 200.623 711.058 201.945C711.058 203.278 710.491 204.202 709.452 204.202C708.433 204.202 707.847 203.308 707.847 201.945Z" fill="#030C21"/>
<path d="M716.752 195.582H714.634V205.763H716.752V195.582Z" fill="#030C21"/>
<path d="M718.449 205.763H720.566V198.127H718.449V205.763ZM719.512 197.143C720.144 197.143 720.661 196.661 720.661 196.069C720.661 195.482 720.144 195 719.512 195C718.886 195 718.369 195.482 718.369 196.069C718.369 196.661 718.886 197.143 719.512 197.143Z" fill="#030C21"/>
<path d="M725.713 205.913C727.747 205.913 729.024 204.719 729.124 202.964H727.125C727.001 203.78 726.464 204.237 725.738 204.237C724.749 204.237 724.107 203.407 724.107 201.945C724.107 200.504 724.754 199.678 725.738 199.678C726.514 199.678 727.011 200.19 727.125 200.951H729.124C729.034 199.186 727.697 198.028 725.703 198.028C723.387 198.028 721.955 199.634 721.955 201.975C721.955 204.297 723.362 205.913 725.713 205.913Z" fill="#030C21"/>
<path d="M828.065 206.449C830.558 206.449 832.386 204.608 832.386 202.102C832.386 199.565 830.622 197.705 828.219 197.705C827.337 197.705 826.48 198.018 825.943 198.446H825.866L826.327 194.585H831.798V193.179H824.997L824.205 199.622L825.687 199.801C826.231 199.411 827.158 199.13 827.963 199.136C829.631 199.149 830.852 200.415 830.852 202.128C830.852 203.809 829.676 205.043 828.065 205.043C826.723 205.043 825.656 204.18 825.534 202.997H824C824.096 204.991 825.815 206.449 828.065 206.449Z" fill="#030C21"/>
<path d="M841.599 203.815C841.599 205.247 842.494 206.449 844.156 206.449C845.792 206.449 846.687 205.247 846.687 203.815V203.125C846.687 201.693 845.818 200.491 844.156 200.491C842.519 200.491 841.599 201.693 841.599 203.125V203.815ZM835.079 196.324C835.079 197.756 835.974 198.957 837.636 198.957C839.272 198.957 840.167 197.756 840.167 196.324V195.634C840.167 194.202 839.298 193 837.636 193C835.999 193 835.079 194.202 835.079 195.634V196.324ZM835.565 206.27H837.022L846.022 193.179H844.565L835.565 206.27ZM842.903 203.125C842.903 202.332 843.261 201.591 844.156 201.591C845.076 201.591 845.383 202.332 845.383 203.125V203.815C845.383 204.608 845.051 205.349 844.156 205.349C843.235 205.349 842.903 204.608 842.903 203.815V203.125ZM836.383 195.634C836.383 194.841 836.741 194.099 837.636 194.099C838.556 194.099 838.863 194.841 838.863 195.634V196.324C838.863 197.116 838.531 197.858 837.636 197.858C836.715 197.858 836.383 197.116 836.383 196.324V195.634Z" fill="#030C21"/>
<path d="M688.016 270.182H690.168V266.572H691.739L693.668 270.182H696.045L693.882 266.224C695.04 265.727 695.682 264.718 695.682 263.326C695.682 261.302 694.344 260 692.033 260H688.016V270.182ZM690.168 264.842V261.76H691.62C692.863 261.76 693.464 262.312 693.464 263.326C693.464 264.335 692.863 264.842 691.63 264.842H690.168Z" fill="#030C21"/>
<path d="M700.52 270.331C702.41 270.331 703.682 269.411 703.981 267.994L702.022 267.865C701.808 268.447 701.261 268.75 700.555 268.75C699.496 268.75 698.825 268.049 698.825 266.91V266.905H704.025V266.324C704.025 263.729 702.454 262.446 700.436 262.446C698.189 262.446 696.732 264.042 696.732 266.398C696.732 268.82 698.169 270.331 700.52 270.331ZM698.825 265.593C698.87 264.723 699.531 264.027 700.471 264.027C701.39 264.027 702.027 264.683 702.032 265.593H698.825Z" fill="#030C21"/>
<path d="M711.761 264.723C711.572 263.316 710.439 262.446 708.51 262.446C706.556 262.446 705.268 263.351 705.273 264.822C705.268 265.966 705.989 266.707 707.481 267.005L708.803 267.268C709.469 267.403 709.773 267.646 709.782 268.029C709.773 268.481 709.28 268.805 708.54 268.805C707.784 268.805 707.282 268.481 707.153 267.86L705.069 267.969C705.268 269.431 706.511 270.331 708.535 270.331C710.513 270.331 711.93 269.322 711.935 267.815C711.93 266.712 711.209 266.05 709.728 265.747L708.346 265.469C707.635 265.315 707.371 265.071 707.376 264.703C707.371 264.246 707.888 263.947 708.545 263.947C709.28 263.947 709.718 264.35 709.822 264.842L711.761 264.723Z" fill="#030C21"/>
<path d="M716.749 270.331C718.638 270.331 719.911 269.411 720.209 267.994L718.25 267.865C718.037 268.447 717.49 268.75 716.784 268.75C715.725 268.75 715.054 268.049 715.054 266.91V266.905H720.254V266.324C720.254 263.729 718.683 262.446 716.664 262.446C714.417 262.446 712.961 264.042 712.961 266.398C712.961 268.82 714.397 270.331 716.749 270.331ZM715.054 265.593C715.098 264.723 715.76 264.027 716.699 264.027C717.619 264.027 718.255 264.683 718.26 265.593H715.054Z" fill="#030C21"/>
<path d="M721.636 270.182H723.754V265.861C723.754 264.922 724.44 264.276 725.375 264.276C725.668 264.276 726.071 264.325 726.27 264.39V262.511C726.081 262.466 725.817 262.436 725.603 262.436C724.748 262.436 724.047 262.933 723.769 263.878H723.689V262.545H721.636V270.182Z" fill="#030C21"/>
<path d="M734.716 262.545H732.474L730.893 268.009H730.814L729.228 262.545H726.99L729.66 270.182H732.047L734.716 262.545Z" fill="#030C21"/>
<path d="M739.02 270.331C740.91 270.331 742.182 269.411 742.481 267.994L740.522 267.865C740.308 268.447 739.761 268.75 739.055 268.75C737.996 268.75 737.325 268.049 737.325 266.91V266.905H742.525V266.324C742.525 263.729 740.954 262.446 738.936 262.446C736.689 262.446 735.232 264.042 735.232 266.398C735.232 268.82 736.669 270.331 739.02 270.331ZM737.325 265.593C737.37 264.723 738.031 264.027 738.971 264.027C739.89 264.027 740.527 264.683 740.532 265.593H737.325Z" fill="#030C21"/>
<path d="M824.895 272.182H826.557L832.386 260.574V259.091H824V260.497H830.75V260.599L824.895 272.182Z" fill="#030C21"/>
<path d="M841.442 269.727C841.442 271.159 842.337 272.361 843.999 272.361C845.635 272.361 846.53 271.159 846.53 269.727V269.037C846.53 267.605 845.661 266.403 843.999 266.403C842.363 266.403 841.442 267.605 841.442 269.037V269.727ZM834.922 262.236C834.922 263.668 835.817 264.869 837.479 264.869C839.116 264.869 840.01 263.668 840.01 262.236V261.545C840.01 260.114 839.141 258.912 837.479 258.912C835.843 258.912 834.922 260.114 834.922 261.545V262.236ZM835.408 272.182H836.866L845.866 259.091H844.408L835.408 272.182ZM842.746 269.037C842.746 268.244 843.104 267.503 843.999 267.503C844.92 267.503 845.226 268.244 845.226 269.037V269.727C845.226 270.52 844.894 271.261 843.999 271.261C843.079 271.261 842.746 270.52 842.746 269.727V269.037ZM836.226 261.545C836.226 260.753 836.584 260.011 837.479 260.011C838.4 260.011 838.706 260.753 838.706 261.545V262.236C838.706 263.028 838.374 263.77 837.479 263.77C836.559 263.77 836.226 263.028 836.226 262.236V261.545Z" fill="#030C21"/>
<path d="M687 342.764H693.518V340.989H689.153V332.582H687V342.764Z" fill="#030C21"/>
<path d="M694.904 342.764H697.021V335.127H694.904V342.764ZM695.968 334.143C696.599 334.143 697.116 333.661 697.116 333.069C697.116 332.482 696.599 332 695.968 332C695.341 332 694.824 332.482 694.824 333.069C694.824 333.661 695.341 334.143 695.968 334.143Z" fill="#030C21"/>
<path d="M705.882 345.627V335.127H703.794V336.41H703.7C703.416 335.788 702.805 335.028 701.527 335.028C699.852 335.028 698.435 336.33 698.435 338.955C698.435 341.511 699.792 342.888 701.532 342.888C702.765 342.888 703.406 342.177 703.7 341.541H703.764V345.627H705.882ZM703.809 338.945C703.809 340.308 703.222 341.203 702.203 341.203C701.164 341.203 700.597 340.278 700.597 338.945C700.597 337.623 701.154 336.713 702.203 336.713C703.232 336.713 703.809 337.583 703.809 338.945Z" fill="#030C21"/>
<path d="M712.474 339.512C712.479 340.536 711.778 341.073 711.018 341.073C710.217 341.073 709.7 340.511 709.695 339.612V335.127H707.577V339.989C707.582 341.774 708.626 342.863 710.163 342.863C711.311 342.863 712.136 342.271 712.479 341.377H712.559V342.764H714.592V335.127H712.474V339.512Z" fill="#030C21"/>
<path d="M716.286 342.764H718.404V335.127H716.286V342.764ZM717.35 334.143C717.982 334.143 718.499 333.661 718.499 333.069C718.499 332.482 717.982 332 717.35 332C716.724 332 716.207 332.482 716.207 333.069C716.207 333.661 716.724 334.143 717.35 334.143Z" fill="#030C21"/>
<path d="M722.915 342.888C724.148 342.888 724.789 342.177 725.082 341.541H725.172V342.764H727.26V332.582H725.147V336.41H725.082C724.799 335.788 724.187 335.028 722.91 335.028C721.234 335.028 719.817 336.33 719.817 338.955C719.817 341.511 721.175 342.888 722.915 342.888ZM723.586 341.203C722.547 341.203 721.98 340.278 721.98 338.945C721.98 337.623 722.537 336.713 723.586 336.713C724.615 336.713 725.192 337.583 725.192 338.945C725.192 340.308 724.605 341.203 723.586 341.203Z" fill="#030C21"/>
<path d="M729.001 342.764H731.119V335.127H729.001V342.764ZM730.065 334.143C730.697 334.143 731.214 333.661 731.214 333.069C731.214 332.482 730.697 332 730.065 332C729.439 332 728.922 332.482 728.922 333.069C728.922 333.661 729.439 334.143 730.065 334.143Z" fill="#030C21"/>
<path d="M736.877 335.127H735.441V333.298H733.323V335.127H732.279V336.718H733.323V340.695C733.313 342.192 734.332 342.933 735.868 342.868C736.415 342.848 736.803 342.739 737.017 342.669L736.684 341.093C736.579 341.113 736.355 341.163 736.157 341.163C735.734 341.163 735.441 341.004 735.441 340.417V336.718H736.877V335.127Z" fill="#030C21"/>
<path d="M739.565 345.627C741.141 345.627 741.976 344.822 742.408 343.589L745.376 335.137L743.134 335.127L741.538 340.735H741.459L739.878 335.127H737.651L740.39 342.982L740.266 343.306C739.987 344.021 739.455 344.056 738.71 343.828L738.232 345.408C738.536 345.538 739.028 345.627 739.565 345.627Z" fill="#030C21"/>
<path d="M750.428 337.673C750.428 340.144 751.079 342.197 752.436 343.967H754.46C753.42 342.654 752.63 340.029 752.63 337.673C752.63 335.321 753.42 332.696 754.46 331.384H752.436C751.079 333.154 750.428 335.202 750.428 337.673Z" fill="#030C21"/>
<path d="M755.729 332.582V342.764H757.817V336.112H757.901L760.536 342.714H761.958L764.593 336.136H764.677V342.764H766.765V332.582H764.111L761.307 339.423H761.187L758.383 332.582H755.729Z" fill="#030C21"/>
<path d="M768.539 332.582V342.764H770.627V336.112H770.712L773.347 342.714H774.768L777.403 336.136H777.488V342.764H779.576V332.582H776.921L774.117 339.423H773.998L771.194 332.582H768.539Z" fill="#030C21"/>
<path d="M784.879 337.673C784.879 335.202 784.228 333.149 782.871 331.379H780.847C781.887 332.691 782.677 335.316 782.677 337.673C782.677 340.024 781.887 342.649 780.847 343.962H782.871C784.228 342.192 784.879 340.144 784.879 337.673Z" fill="#030C21"/>
<path d="M827.561 344.943C830.054 344.943 831.882 343.102 831.882 340.596C831.882 338.058 830.118 336.198 827.714 336.198C826.832 336.198 825.976 336.511 825.439 336.94H825.362L825.822 333.079H831.294V331.673H824.493L823.7 338.116L825.183 338.295C825.726 337.905 826.653 337.624 827.459 337.63C829.127 337.643 830.348 338.908 830.348 340.622C830.348 342.303 829.172 343.536 827.561 343.536C826.219 343.536 825.151 342.673 825.03 341.491H823.496C823.591 343.485 825.311 344.943 827.561 344.943Z" fill="#030C21"/>
<path d="M841.095 342.309C841.095 343.741 841.989 344.943 843.651 344.943C845.288 344.943 846.183 343.741 846.183 342.309V341.619C846.183 340.187 845.313 338.985 843.651 338.985C842.015 338.985 841.095 340.187 841.095 341.619V342.309ZM834.575 334.818C834.575 336.249 835.47 337.451 837.131 337.451C838.768 337.451 839.663 336.249 839.663 334.818V334.127C839.663 332.695 838.793 331.494 837.131 331.494C835.495 331.494 834.575 332.695 834.575 334.127V334.818ZM835.06 344.764H836.518L845.518 331.673H844.06L835.06 344.764ZM842.398 341.619C842.398 340.826 842.756 340.085 843.651 340.085C844.572 340.085 844.879 340.826 844.879 341.619V342.309C844.879 343.102 844.546 343.843 843.651 343.843C842.731 343.843 842.398 343.102 842.398 342.309V341.619ZM835.879 334.127C835.879 333.335 836.237 332.593 837.131 332.593C838.052 332.593 838.359 333.335 838.359 334.127V334.818C838.359 335.61 838.026 336.352 837.131 336.352C836.211 336.352 835.879 335.61 835.879 334.818V334.127Z" fill="#030C21"/>
<path d="M662 419.182H668.881V417.407H664.153V414.976H668.508V413.201H664.153V410.775H668.861V409H662V419.182Z" fill="#030C21"/>
<path d="M673.983 419.331C676.016 419.331 677.294 418.138 677.393 416.383H675.395C675.27 417.198 674.733 417.656 674.008 417.656C673.018 417.656 672.377 416.825 672.377 415.364C672.377 413.922 673.023 413.097 674.008 413.097C674.783 413.097 675.28 413.609 675.395 414.369H677.393C677.304 412.604 675.966 411.446 673.973 411.446C671.656 411.446 670.224 413.052 670.224 415.393C670.224 417.715 671.631 419.331 673.983 419.331Z" fill="#030C21"/>
<path d="M682.2 419.331C684.516 419.331 685.958 417.745 685.958 415.393C685.958 413.027 684.516 411.446 682.2 411.446C679.883 411.446 678.441 413.027 678.441 415.393C678.441 417.745 679.883 419.331 682.2 419.331ZM682.21 417.69C681.141 417.69 680.594 416.711 680.594 415.379C680.594 414.046 681.141 413.062 682.21 413.062C683.259 413.062 683.805 414.046 683.805 415.379C683.805 416.711 683.259 417.69 682.21 417.69Z" fill="#030C21"/>
<path d="M693.689 413.723C693.5 412.316 692.366 411.446 690.438 411.446C688.484 411.446 687.196 412.351 687.201 413.822C687.196 414.966 687.917 415.707 689.408 416.005L690.731 416.268C691.397 416.403 691.7 416.646 691.71 417.029C691.7 417.482 691.208 417.805 690.467 417.805C689.712 417.805 689.21 417.482 689.08 416.86L686.997 416.969C687.196 418.431 688.439 419.331 690.462 419.331C692.441 419.331 693.858 418.322 693.863 416.815C693.858 415.712 693.137 415.05 691.656 414.747L690.273 414.469C689.562 414.315 689.299 414.071 689.304 413.703C689.299 413.246 689.816 412.947 690.472 412.947C691.208 412.947 691.646 413.35 691.75 413.842L693.689 413.723Z" fill="#030C21"/>
<path d="M696.504 422.045C698.08 422.045 698.915 421.24 699.348 420.007L702.316 411.555L700.074 411.545L698.478 417.153H698.398L696.817 411.545H694.59L697.329 419.401L697.205 419.724C696.927 420.44 696.395 420.474 695.649 420.246L695.172 421.827C695.475 421.956 695.967 422.045 696.504 422.045Z" fill="#030C21"/>
<path d="M709.753 413.723C709.564 412.316 708.431 411.446 706.502 411.446C704.548 411.446 703.26 412.351 703.265 413.822C703.26 414.966 703.981 415.707 705.473 416.005L706.795 416.268C707.461 416.403 707.765 416.646 707.775 417.029C707.765 417.482 707.273 417.805 706.532 417.805C705.776 417.805 705.274 417.482 705.145 416.86L703.062 416.969C703.26 418.431 704.503 419.331 706.527 419.331C708.506 419.331 709.922 418.322 709.927 416.815C709.922 415.712 709.202 415.05 707.72 414.747L706.338 414.469C705.627 414.315 705.363 414.071 705.368 413.703C705.363 413.246 705.881 412.947 706.537 412.947C707.273 412.947 707.71 413.35 707.814 413.842L709.753 413.723Z" fill="#030C21"/>
<path d="M715.323 411.545H713.886V409.716H711.768V411.545H710.724V413.136H711.768V417.114C711.758 418.61 712.777 419.351 714.314 419.286C714.86 419.266 715.248 419.157 715.462 419.087L715.129 417.511C715.025 417.531 714.801 417.581 714.602 417.581C714.179 417.581 713.886 417.422 713.886 416.835V413.136H715.323V411.545Z" fill="#030C21"/>
<path d="M720.1 419.331C721.99 419.331 723.262 418.411 723.561 416.994L721.602 416.865C721.388 417.447 720.841 417.75 720.135 417.75C719.076 417.75 718.405 417.049 718.405 415.911V415.906H723.605V415.324C723.605 412.729 722.034 411.446 720.016 411.446C717.769 411.446 716.312 413.042 716.312 415.398C716.312 417.82 717.749 419.331 720.1 419.331ZM718.405 414.593C718.45 413.723 719.111 413.027 720.051 413.027C720.971 413.027 721.607 413.683 721.612 414.593H718.405Z" fill="#030C21"/>
<path d="M724.988 419.182H727.105V414.598C727.105 413.753 727.642 413.191 728.348 413.191C729.044 413.191 729.512 413.668 729.512 414.419V419.182H731.565V414.518C731.565 413.728 732.017 413.191 732.788 413.191C733.464 413.191 733.971 413.614 733.971 414.464V419.182H736.084V414.046C736.084 412.391 735.1 411.446 733.678 411.446C732.559 411.446 731.689 412.018 731.376 412.893H731.297C731.053 412.008 730.272 411.446 729.223 411.446C728.194 411.446 727.414 411.993 727.096 412.893H727.006V411.545H724.988V419.182Z" fill="#030C21"/>
<path d="M779.858 408.179H778.273L775 410.352V411.963L778.196 409.841H778.273V421.27H779.858V408.179Z" fill="#030C21"/>
<path d="M787.893 421.449C790.782 421.449 792.444 419.001 792.444 414.724C792.444 410.48 790.756 408 787.893 408C785.029 408 783.342 410.48 783.342 414.724C783.342 419.001 785.004 421.449 787.893 421.449ZM787.893 420.043C785.988 420.043 784.876 418.131 784.876 414.724C784.876 411.324 786.001 409.381 787.893 409.381C789.785 409.381 790.91 411.324 790.91 414.724C790.91 418.131 789.798 420.043 787.893 420.043Z" fill="#030C21"/>
<path d="M795.541 421.372C796.174 421.372 796.691 420.854 796.691 420.222C796.691 419.589 796.174 419.071 795.541 419.071C794.908 419.071 794.39 419.589 794.39 420.222C794.39 420.854 794.908 421.372 795.541 421.372Z" fill="#030C21"/>
<path d="M803.2 421.449C805.693 421.449 807.521 419.608 807.521 417.102C807.521 414.565 805.757 412.705 803.354 412.705C802.471 412.705 801.615 413.018 801.078 413.446H801.001L801.461 409.585H806.933V408.179H800.132L799.339 414.622L800.822 414.801C801.366 414.411 802.292 414.13 803.098 414.136C804.766 414.149 805.987 415.415 805.987 417.128C805.987 418.809 804.811 420.043 803.2 420.043C801.858 420.043 800.79 419.18 800.669 417.997H799.135C799.231 419.991 800.95 421.449 803.2 421.449Z" fill="#030C21"/>
<path d="M816.734 418.815C816.734 420.247 817.629 421.449 819.29 421.449C820.927 421.449 821.822 420.247 821.822 418.815V418.125C821.822 416.693 820.952 415.491 819.29 415.491C817.654 415.491 816.734 416.693 816.734 418.125V418.815ZM810.214 411.324C810.214 412.756 811.109 413.957 812.771 413.957C814.407 413.957 815.302 412.756 815.302 411.324V410.634C815.302 409.202 814.433 408 812.771 408C811.134 408 810.214 409.202 810.214 410.634V411.324ZM810.7 421.27H812.157L821.157 408.179H819.7L810.7 421.27ZM818.038 418.125C818.038 417.332 818.396 416.591 819.29 416.591C820.211 416.591 820.518 417.332 820.518 418.125V418.815C820.518 419.608 820.185 420.349 819.29 420.349C818.37 420.349 818.038 419.608 818.038 418.815V418.125ZM811.518 410.634C811.518 409.841 811.876 409.099 812.771 409.099C813.691 409.099 813.998 409.841 813.998 410.634V411.324C813.998 412.116 813.665 412.858 812.771 412.858C811.85 412.858 811.518 412.116 811.518 411.324V410.634Z" fill="#030C21"/>
<path d="M82.8516 424.51H84.9148C84.8849 422.695 83.3935 421.442 81.1264 421.442C78.8942 421.442 77.2585 422.675 77.2685 424.525C77.2635 426.026 78.3224 426.886 80.0426 427.299L81.1513 427.577C82.2599 427.846 82.8764 428.164 82.8814 428.85C82.8764 429.596 82.1705 430.103 81.0767 430.103C79.9581 430.103 79.1527 429.586 79.0831 428.567H77C77.0547 430.769 78.6307 431.908 81.1016 431.908C83.5874 431.908 85.049 430.719 85.054 428.855C85.049 427.16 83.7713 426.26 82.0014 425.862L81.0866 425.643C80.2017 425.44 79.4609 425.112 79.4759 424.381C79.4759 423.724 80.0575 423.242 81.1115 423.242C82.1406 423.242 82.772 423.71 82.8516 424.51Z" fill="#030C21"/>
<path d="M90.524 424.127H89.0872V422.298H86.9693V424.127H85.9252V425.718H86.9693V429.695C86.9593 431.192 87.9785 431.933 89.5147 431.868C90.0616 431.848 90.4494 431.739 90.6632 431.669L90.3301 430.093C90.2257 430.113 90.002 430.163 89.8031 430.163C89.3805 430.163 89.0872 430.004 89.0872 429.417V425.718H90.524V424.127Z" fill="#030C21"/>
<path d="M91.9036 431.763H94.0215V427.443C94.0215 426.504 94.7076 425.857 95.6422 425.857C95.9355 425.857 96.3382 425.907 96.5371 425.972V424.092C96.3482 424.048 96.0847 424.018 95.8709 424.018C95.0158 424.018 94.3148 424.515 94.0364 425.46H93.9569V424.127H91.9036V431.763Z" fill="#030C21"/>
<path d="M99.5909 431.908C100.719 431.908 101.45 431.415 101.823 430.705H101.883V431.763H103.891V426.613C103.891 424.793 102.35 424.028 100.65 424.028C98.8203 424.028 97.6172 424.903 97.3239 426.295L99.2827 426.454C99.4268 425.947 99.8793 425.574 100.64 425.574C101.361 425.574 101.773 425.937 101.773 426.563V426.593C101.773 427.085 101.251 427.15 99.924 427.279C98.4126 427.418 97.0554 427.925 97.0554 429.631C97.0554 431.142 98.1342 431.908 99.5909 431.908ZM100.197 430.446C99.5462 430.446 99.0788 430.143 99.0788 429.561C99.0788 428.964 99.571 428.671 100.317 428.567C100.779 428.502 101.535 428.393 101.788 428.224V429.034C101.788 429.835 101.127 430.446 100.197 430.446Z" fill="#030C21"/>
<path d="M109.596 424.127H108.159V422.298H106.042V424.127H104.998V425.718H106.042V429.695C106.032 431.192 107.051 431.933 108.587 431.868C109.134 431.848 109.522 431.739 109.735 431.669L109.402 430.093C109.298 430.113 109.074 430.163 108.875 430.163C108.453 430.163 108.159 430.004 108.159 429.417V425.718H109.596V424.127Z" fill="#030C21"/>
<path d="M114.374 431.913C116.263 431.913 117.536 430.993 117.834 429.576L115.875 429.447C115.662 430.028 115.115 430.332 114.409 430.332C113.35 430.332 112.679 429.631 112.679 428.492V428.487H117.879V427.906C117.879 425.31 116.308 424.028 114.289 424.028C112.042 424.028 110.586 425.624 110.586 427.98C110.586 430.401 112.022 431.913 114.374 431.913ZM112.679 427.175C112.723 426.305 113.385 425.609 114.324 425.609C115.244 425.609 115.88 426.265 115.885 427.175H112.679Z" fill="#030C21"/>
<path d="M122.701 434.786C124.884 434.786 126.435 433.792 126.435 431.838V424.127H124.332V425.41H124.252C123.969 424.788 123.348 424.028 122.07 424.028C120.395 424.028 118.978 425.33 118.978 427.93C118.978 430.471 120.355 431.654 122.075 431.654C123.293 431.654 123.974 431.043 124.252 430.411H124.342V431.808C124.342 432.857 123.671 433.265 122.751 433.265C121.816 433.265 121.344 432.857 121.17 432.395L119.211 432.658C119.465 433.862 120.643 434.786 122.701 434.786ZM122.746 430.063C121.707 430.063 121.14 429.238 121.14 427.92C121.14 426.623 121.697 425.713 122.746 425.713C123.775 425.713 124.352 426.583 124.352 427.92C124.352 429.268 123.765 430.063 122.746 430.063Z" fill="#030C21"/>
<path d="M128.12 431.763H130.238V424.127H128.12V431.763ZM129.184 423.143C129.816 423.143 130.333 422.661 130.333 422.069C130.333 421.482 129.816 421 129.184 421C128.558 421 128.041 421.482 128.041 422.069C128.041 422.661 128.558 423.143 129.184 423.143Z" fill="#030C21"/>
<path d="M135.385 431.913C137.419 431.913 138.696 430.719 138.796 428.964H136.797C136.673 429.78 136.136 430.237 135.41 430.237C134.421 430.237 133.779 429.407 133.779 427.945C133.779 426.504 134.426 425.678 135.41 425.678C136.186 425.678 136.683 426.19 136.797 426.951H138.796C138.706 425.186 137.369 424.028 135.375 424.028C133.058 424.028 131.627 425.634 131.627 427.975C131.627 430.297 133.034 431.913 135.385 431.913Z" fill="#030C21"/>
<path d="M208.858 421.179H207.273L204 423.352V424.963L207.196 422.841H207.273V434.27H208.858V421.179Z" fill="#030C21"/>
<path d="M216.893 434.449C219.782 434.449 221.444 432.001 221.444 427.724C221.444 423.48 219.756 421 216.893 421C214.029 421 212.342 423.48 212.342 427.724C212.342 432.001 214.004 434.449 216.893 434.449ZM216.893 433.043C214.988 433.043 213.876 431.131 213.876 427.724C213.876 424.324 215.001 422.381 216.893 422.381C218.785 422.381 219.91 424.324 219.91 427.724C219.91 431.131 218.798 433.043 216.893 433.043Z" fill="#030C21"/>
<path d="M230.546 431.815C230.546 433.247 231.441 434.449 233.103 434.449C234.739 434.449 235.634 433.247 235.634 431.815V431.125C235.634 429.693 234.765 428.491 233.103 428.491C231.467 428.491 230.546 429.693 230.546 431.125V431.815ZM224.026 424.324C224.026 425.756 224.921 426.957 226.583 426.957C228.219 426.957 229.114 425.756 229.114 424.324V423.634C229.114 422.202 228.245 421 226.583 421C224.947 421 224.026 422.202 224.026 423.634V424.324ZM224.512 434.27H225.969L234.969 421.179H233.512L224.512 434.27ZM231.85 431.125C231.85 430.332 232.208 429.591 233.103 429.591C234.023 429.591 234.33 430.332 234.33 431.125V431.815C234.33 432.608 233.998 433.349 233.103 433.349C232.183 433.349 231.85 432.608 231.85 431.815V431.125ZM225.33 423.634C225.33 422.841 225.688 422.099 226.583 422.099C227.504 422.099 227.81 422.841 227.81 423.634V424.324C227.81 425.116 227.478 425.858 226.583 425.858C225.663 425.858 225.33 425.116 225.33 424.324V423.634Z" fill="#030C21"/>
<defs>
<filter id="filter0_f" x="338.498" y="152.093" width="200.69" height="200.335" filterUnits="userSpaceOnUse" color-interpolation-filters="sRGB">
<feFlood flood-opacity="0" result="BackgroundImageFix"/>
<feBlend mode="normal" in="SourceGraphic" in2="BackgroundImageFix" result="shape"/>
<feGaussianBlur stdDeviation="0.5" result="effect1_foregroundBlur"/>
</filter>
<radialGradient id="paint0_radial" cx="0" cy="0" r="1" gradientUnits="userSpaceOnUse" gradientTransform="translate(438.843 250.788) rotate(91.8777) scale(119.108 119.325)">
<stop stop-color="#13177E"/>
<stop offset="0.885417" stop-color="#17238B" stop-opacity="0.69"/>
<stop offset="1" stop-color="#847AC7" stop-opacity="0.33"/>
</radialGradient>
<linearGradient id="paint1_linear" x1="461.336" y1="160.982" x2="431.573" y2="304.178" gradientUnits="userSpaceOnUse">
<stop stop-color="white" stop-opacity="0.18"/>
<stop offset="1" stop-color="white" stop-opacity="0.08"/>
</linearGradient>
<linearGradient id="paint2_linear" x1="262.812" y1="287.21" x2="338.478" y2="263.318" gradientUnits="userSpaceOnUse">
<stop stop-color="#141414" stop-opacity="0.15"/>
<stop offset="1" stop-color="#141414" stop-opacity="0"/>
</linearGradient>
<linearGradient id="paint3_linear" x1="357.427" y1="76.8082" x2="445.826" y2="208.859" gradientUnits="userSpaceOnUse">
<stop stop-color="#1A2BC1" stop-opacity="0.15"/>
<stop offset="1" stop-color="#0E1DA7" stop-opacity="0"/>
</linearGradient>
<linearGradient id="paint4_linear" x1="566" y1="-29.5" x2="934.5" y2="70.5" gradientUnits="userSpaceOnUse">
<stop stop-color="white"/>
<stop offset="1" stop-color="white" stop-opacity="0"/>
</linearGradient>
<linearGradient id="paint5_linear" x1="567" y1="70.5" x2="935.5" y2="170.5" gradientUnits="userSpaceOnUse">
<stop stop-color="white"/>
<stop offset="1" stop-color="white" stop-opacity="0"/>
</linearGradient>
<linearGradient id="paint6_linear" x1="593" y1="141.5" x2="961.5" y2="241.5" gradientUnits="userSpaceOnUse">
<stop stop-color="white"/>
<stop offset="1" stop-color="white" stop-opacity="0"/>
</linearGradient>
<linearGradient id="paint7_linear" x1="592" y1="280.5" x2="960.5" y2="380.5" gradientUnits="userSpaceOnUse">
<stop stop-color="white"/>
<stop offset="1" stop-color="white" stop-opacity="0"/>
</linearGradient>
<linearGradient id="paint8_linear" x1="567" y1="357.5" x2="935.5" y2="457.5" gradientUnits="userSpaceOnUse">
<stop stop-color="white"/>
<stop offset="1" stop-color="white" stop-opacity="0"/>
</linearGradient>
<linearGradient id="paint9_linear" x1="593" y1="207.5" x2="961.5" y2="307.5" gradientUnits="userSpaceOnUse">
<stop stop-color="white"/>
<stop offset="1" stop-color="white" stop-opacity="0"/>
</linearGradient>
<linearGradient id="paint10_linear" x1="-79" y1="39.5" x2="410" y2="257.5" gradientUnits="userSpaceOnUse">
<stop stop-color="white"/>
<stop offset="1" stop-color="white" stop-opacity="0"/>
</linearGradient>
<linearGradient id="paint11_linear" x1="-18" y1="370.5" x2="350.5" y2="470.5" gradientUnits="userSpaceOnUse">
<stop stop-color="white"/>
<stop offset="1" stop-color="white" stop-opacity="0"/>
</linearGradient>
<linearGradient id="paint12_linear" x1="294" y1="449.5" x2="662.5" y2="549.5" gradientUnits="userSpaceOnUse">
<stop stop-color="white"/>
<stop offset="1" stop-color="white" stop-opacity="0"/>
</linearGradient>
<linearGradient id="paint13_linear" x1="-78" y1="255.5" x2="290.5" y2="355.5" gradientUnits="userSpaceOnUse">
<stop stop-color="white"/>
<stop offset="1" stop-color="white" stop-opacity="0"/>
</linearGradient>
</defs>
</svg>
