<svg width="319" height="812" viewBox="0 0 319 812" fill="none" xmlns="http://www.w3.org/2000/svg">
<g clip-path="url(#clip0)">
<path d="M65.751 114.009C65.6441 114.009 65.5586 113.924 65.5586 113.817C65.5586 113.71 65.6441 113.624 65.751 113.624C65.8578 113.624 65.9433 113.71 65.9433 113.817C65.9219 113.945 65.8365 114.009 65.751 114.009C65.8578 114.009 65.9433 113.924 65.9433 113.817C65.9433 113.71 65.8578 113.624 65.751 113.624C65.6441 113.624 65.5586 113.71 65.5586 113.817C65.5586 113.945 65.6441 114.009 65.751 114.009Z" fill="black"/>
<path d="M65.751 114.009C65.6441 114.009 65.5586 113.924 65.5586 113.817C65.5586 113.71 65.6441 113.624 65.751 113.624C65.8578 113.624 65.9433 113.71 65.9433 113.817C65.9219 113.945 65.8365 114.009 65.751 114.009ZM65.751 114.009C65.8578 114.009 65.9433 113.924 65.9433 113.817C65.9433 113.71 65.8578 113.624 65.751 113.624C65.6441 113.624 65.5586 113.71 65.5586 113.817C65.5586 113.945 65.6441 114.009 65.751 114.009Z" stroke="black" stroke-width="0.5" stroke-miterlimit="10"/>
<path d="M152.914 139.743L109.738 6.88218C124.422 2.11576 137.482 0.0424805 152.914 0.0424805V139.743Z" fill="#7F96E7"/>
<path fill-rule="evenodd" clip-rule="evenodd" d="M110.352 7.19606L152.429 136.676V0.530286C137.421 0.573018 124.646 2.60099 110.352 7.19606ZM109.589 6.42082C124.322 1.63872 137.432 -0.442627 152.915 -0.442627H153.401V139.744L152.453 139.895L109.127 6.57095L109.589 6.42082Z" fill="#E9ECF9"/>
<path d="M152.979 140.085L109.675 6.86107L109.718 6.83969C124.466 2.05191 137.397 0 152.893 0H152.936V140.085H152.979ZM109.803 6.92519L152.85 139.423V0.10687C137.397 0.10687 124.508 2.15878 109.803 6.92519Z" fill="#7F96E7"/>
<path fill-rule="evenodd" clip-rule="evenodd" d="M110.416 7.2383L152.364 136.354V0.59369C137.339 0.635933 124.727 2.64342 110.416 7.2383ZM153.422 139.877V-0.486084H152.893C137.346 -0.486084 124.364 1.57388 109.567 6.37737L109.533 6.38862L109.083 6.61342L152.45 140.031V140.572H153.648L153.422 139.877Z" fill="#E9ECF9"/>
<path d="M152.914 139.743L70.7949 26.7384C83.2774 17.6545 95.0758 11.6484 109.738 6.88196L152.914 139.743Z" fill="#29C4DA"/>
<path fill-rule="evenodd" clip-rule="evenodd" d="M110.052 6.27051L153.378 139.594L152.522 140.03L70.1177 26.6324L70.5105 26.3465C83.0344 17.2324 94.8787 11.203 109.59 6.4208L110.052 6.27051ZM71.4757 26.8474L151.505 136.976L109.428 7.49635C95.1812 12.1725 83.6403 18.0478 71.4757 26.8474Z" fill="#E9ECF9"/>
<path d="M153.064 140.064L152.871 139.786L70.731 26.7176L70.7737 26.6962C83.3203 17.5695 94.9691 11.6275 109.739 6.83973L109.781 6.81836L109.803 6.86111L153.064 140.064ZM70.8806 26.739L152.765 139.444L109.717 6.96798C95.0119 11.7344 83.3844 17.655 70.8806 26.739Z" fill="#29C4DA"/>
<path fill-rule="evenodd" clip-rule="evenodd" d="M109.999 6.16614L110.254 6.67627L153.527 139.914L152.665 140.341L152.479 140.072L152.472 140.063L70.001 26.5393L70.5207 26.2794C83.0863 17.1432 94.7652 11.1861 109.554 6.38858L109.999 6.16614ZM151.354 136.675L109.406 7.5808C95.1206 12.2552 83.7426 18.0487 71.5604 26.8471L151.354 136.675Z" fill="#E9ECF9"/>
<path d="M152.914 139.743L29.5645 74.1674C39.7171 55.1018 53.311 39.4346 70.795 26.7384L152.914 139.743Z" fill="#07AEC5"/>
<path fill-rule="evenodd" clip-rule="evenodd" d="M70.904 26.0596L153.309 139.457L152.687 140.172L28.9082 74.3684L29.1368 73.939C39.324 54.8086 52.9668 39.085 70.5108 26.3452L70.904 26.0596ZM30.2243 73.967L151.284 138.325L70.6893 27.418C53.5853 39.9239 40.241 55.3026 30.2243 73.967Z" fill="#E9ECF9"/>
<path d="M153.086 139.914L29.501 74.1892L29.5224 74.1465C34.5666 64.6564 40.5941 55.8717 47.3911 48.0274C54.2094 40.1831 62.075 33.0228 70.7743 26.6961L70.817 26.6747L153.086 139.914ZM29.6292 74.1465L152.722 139.594L70.7957 26.803C62.1178 33.1083 54.2735 40.2686 47.4766 48.0915C40.6796 55.9144 34.6735 64.6778 29.6292 74.1465Z" fill="#07AEC5"/>
<path fill-rule="evenodd" clip-rule="evenodd" d="M70.968 26.0557L153.479 139.629L152.857 140.344L28.854 74.3959L29.0928 73.9183C34.1539 64.3965 40.2022 55.5815 47.0235 47.7091C53.8671 39.8358 61.7607 32.6503 70.4882 26.303L70.5207 26.2793L70.968 26.0557ZM151.092 138.176L70.6884 27.4827C62.1953 33.6973 54.5126 40.7344 47.8433 48.4104C41.1739 56.0865 35.2674 64.6729 30.2875 73.9461L151.092 138.176Z" fill="#E9ECF9"/>
<path d="M152.914 139.743L14.581 159.193C10.2848 128.629 15.0939 101.419 29.5642 74.1675L152.914 139.743Z" fill="#0380A8"/>
<path fill-rule="evenodd" clip-rule="evenodd" d="M29.3646 73.5115L154.465 140.018L14.169 159.744L14.1013 159.263C9.79081 128.596 14.6183 101.283 29.1365 73.941L29.3646 73.5115ZM29.7678 74.8269C15.5982 101.701 10.855 128.539 14.9971 158.646L151.366 139.471L29.7678 74.8269Z" fill="#E9ECF9"/>
<path d="M14.5391 159.258V159.215C12.359 143.783 12.5086 129.463 14.9666 115.441C17.446 101.42 22.191 87.9115 29.5223 74.1466L29.5437 74.1039L29.5865 74.1253L153.086 139.786L152.915 139.808L14.5391 159.258ZM29.5865 74.2321C22.2979 87.9756 17.5529 101.441 15.0735 115.441C12.5941 129.441 12.4659 143.741 14.6246 159.13L152.744 139.722L29.5865 74.2321Z" fill="#0380A8"/>
<path fill-rule="evenodd" clip-rule="evenodd" d="M29.3261 73.4517L29.8145 73.6959L154.67 140.078L152.982 140.289L152.975 140.29L14.0528 159.817V159.249C11.8712 143.784 12.0218 129.423 14.4876 115.357C16.9763 101.283 21.7385 87.7279 29.0901 73.9236L29.3261 73.4517ZM151.194 139.449L29.7883 74.8901C22.6499 88.4438 17.9958 101.727 15.5519 115.526C13.1082 129.325 12.9563 143.42 15.039 158.581L151.194 139.449Z" fill="#E9ECF9"/>
<path d="M152.914 139.743L87.3383 263.093C46.4498 241.377 21.0146 205.041 14.5811 159.194L152.914 139.743Z" fill="#2443AE"/>
<path fill-rule="evenodd" clip-rule="evenodd" d="M153.791 139.13L87.5396 263.751L87.1104 263.523C46.0842 241.734 20.555 205.264 14.0998 159.262L14.0322 158.781L153.791 139.13ZM15.1308 159.608C21.6297 204.914 46.7805 240.844 87.1376 262.436L152.037 140.358L15.1308 159.608Z" fill="#E9ECF9"/>
<path d="M87.3603 263.179L87.3176 263.157C66.9695 252.342 50.3832 237.893 38.0077 220.238C25.6321 202.562 17.7237 182.021 14.5176 159.194V159.151H14.5603L153 139.701L152.957 139.786L87.3603 263.179ZM14.6244 159.237C17.8306 182.021 25.7176 202.519 38.0718 220.153C50.426 237.786 66.9909 252.214 87.2962 263.029L152.808 139.829L14.6244 159.237Z" fill="#2443AE"/>
<path fill-rule="evenodd" clip-rule="evenodd" d="M153.848 139.091L153.386 140.014L87.5667 263.826L87.0892 263.587C66.678 252.738 50.0318 238.239 37.6094 220.517C25.1869 202.774 17.252 182.16 14.036 159.261L14.0312 159.228V158.665H14.5261L153.848 139.091ZM15.1741 159.65C18.4131 182.172 26.2496 202.431 38.4697 219.874C50.6899 237.316 67.0487 251.615 87.0955 262.371L151.93 140.443L15.1741 159.65Z" fill="#E9ECF9"/>
<path d="M152.914 139.744L102.856 270.168C97.0849 267.966 92.7888 266 87.3384 263.093L152.914 139.744Z" fill="#16308C"/>
<path fill-rule="evenodd" clip-rule="evenodd" d="M87.9961 262.892C93.0857 265.59 97.2013 267.473 102.577 269.54L149.612 146.991L87.9961 262.892ZM152.485 139.515L153.368 139.918L103.136 270.795L102.683 270.622C96.8925 268.413 92.5778 266.438 87.11 263.522L86.6816 263.294L152.485 139.515Z" fill="#E9ECF9"/>
<path d="M102.878 270.253L102.835 270.232C97.0856 268.03 92.7467 266.043 87.3177 263.157L87.2749 263.136L87.2963 263.093L152.872 139.744L152.979 139.786L102.878 270.253ZM87.4031 263.072C92.7894 265.936 97.1283 267.902 102.814 270.104L152.551 140.556L87.4031 263.072Z" fill="#16308C"/>
<path fill-rule="evenodd" clip-rule="evenodd" d="M152.647 139.13L153.604 139.513L103.14 270.928L102.639 270.678C96.8832 268.473 92.5313 266.479 87.0948 263.589L86.6226 263.353L86.8668 262.865L152.647 139.13ZM149.248 147.803L88.0608 262.87C93.0894 265.527 97.2378 267.408 102.535 269.474L149.248 147.803Z" fill="#E9ECF9"/>
<path d="M152.914 139.743L229.006 256.915C190.19 282.137 146.074 286.754 102.856 270.167L152.914 139.743Z" fill="#4F74F9"/>
<path fill-rule="evenodd" clip-rule="evenodd" d="M152.804 138.678L229.68 257.059L229.273 257.323C190.327 282.63 146.047 287.264 102.684 270.622L102.23 270.447L152.804 138.678ZM153.028 140.808L103.486 269.887C146.263 286.154 189.885 281.589 228.335 256.772L153.028 140.808Z" fill="#E9ECF9"/>
<path d="M153.833 280C136.862 280 119.763 276.73 102.835 270.232L102.792 270.211L102.813 270.168L152.914 139.658L152.978 139.743L229.091 256.959L229.048 256.98C209.726 269.527 189.036 277.029 167.598 279.295C163.003 279.765 158.429 280 153.833 280ZM102.92 270.147C124.401 278.376 146.16 281.411 167.577 279.166C188.994 276.922 209.641 269.42 228.942 256.895L152.935 139.872L102.92 270.147Z" fill="#4F74F9"/>
<path fill-rule="evenodd" clip-rule="evenodd" d="M152.776 138.663L153.377 139.465L229.795 257.15L229.291 257.403C209.915 269.979 189.16 277.505 167.649 279.778L167.648 279.778C163.036 280.25 158.446 280.486 153.834 280.486C136.799 280.486 119.641 277.204 102.661 270.686L102.639 270.677L102.14 270.428L102.368 269.972L152.776 138.663ZM228.269 256.751L153.048 140.937L103.549 269.866C124.816 277.939 146.342 280.903 167.526 278.683C188.711 276.463 209.145 269.079 228.269 256.751Z" fill="#E9ECF9"/>
<path d="M152.914 139.743L286.502 98.8972C305.14 159.835 282.441 222.204 228.984 256.894L152.914 139.743Z" fill="#304FFE"/>
<path fill-rule="evenodd" clip-rule="evenodd" d="M286.825 98.2902L286.967 98.755C305.668 159.9 282.888 222.494 229.249 257.302L228.841 257.567L152.155 139.467L286.825 98.2902ZM153.673 140.019L229.127 256.221C281.974 221.686 304.449 159.931 286.179 99.5044L153.673 140.019Z" fill="#E9ECF9"/>
<path d="M228.985 256.98L228.963 256.937L152.829 139.722L152.893 139.701L286.545 98.8336L286.567 98.8763C291.162 113.881 293.299 129.206 292.957 144.403C292.615 159.301 289.88 173.878 284.835 187.75C279.791 201.621 272.502 214.531 263.205 226.159C253.693 238.021 242.215 248.388 229.028 256.937L228.985 256.98ZM153 139.786L229.028 256.852C242.173 248.302 253.629 237.979 263.119 226.137C272.417 214.51 279.705 201.6 284.75 187.75C289.794 173.899 292.53 159.322 292.872 144.446C293.214 129.27 291.076 113.988 286.502 99.0046L153 139.786Z" fill="#304FFE"/>
<path d="M152.915 139.744L235.034 26.7178C260.256 45.0353 277.397 69.0811 286.524 98.8979L152.915 139.744Z" fill="#3856C2" stroke="#E9ECF9"/>
<path d="M152.786 139.85L152.872 139.722L235.012 26.6534L235.055 26.6748C247.601 35.8015 258.31 46.4886 266.838 58.458C275.388 70.4275 282.014 84.0214 286.545 98.8763L286.566 98.9191L152.786 139.85ZM235.033 26.8031L153.043 139.658L286.438 98.8763C281.907 84.0641 275.281 70.4916 266.753 58.5435C258.246 46.5954 247.559 35.9084 235.033 26.8031Z" fill="#3856C2" stroke="#E9ECF9"/>
<path d="M152.916 139.744V0.0435791C184.549 0.0435791 209.428 8.12297 235.035 26.7184L152.916 139.744Z" fill="#6B55EE"/>
<path fill-rule="evenodd" clip-rule="evenodd" d="M152.43 -0.441406H152.916C184.652 -0.441406 209.632 7.67047 235.321 26.3262L235.714 26.6119L152.43 141.242V-0.441406ZM153.402 0.531455V138.249L234.356 26.8277C209.103 8.58996 184.54 0.613464 153.402 0.531455Z" fill="#E9ECF9"/>
<path d="M152.872 139.914V0H152.915C168.881 0 183.052 2.07328 196.261 6.36946C209.449 10.6656 222.145 17.313 235.077 26.6962L235.119 26.7176L152.872 139.914ZM152.979 0.10687V139.594L234.97 26.7603C222.081 17.3985 209.406 10.7725 196.24 6.47634C183.074 2.18015 168.903 0.10687 152.979 0.10687Z" fill="#6B55EE"/>
<path fill-rule="evenodd" clip-rule="evenodd" d="M152.386 -0.486084H152.915C168.924 -0.486084 183.147 1.593 196.412 5.90722C209.643 10.2177 222.374 16.883 235.33 26.2793L235.85 26.5393L152.386 141.411V-0.486084ZM234.29 26.8684C221.573 17.6829 209.067 11.1732 196.089 6.93849C183.112 2.7042 169.148 0.635478 153.465 0.593656V138.098L234.29 26.8684Z" fill="#E9ECF9"/>
</g>
<g style="mix-blend-mode:multiply" opacity="0.19">
<circle cx="153" cy="140" r="59.6721" fill="#19234D"/>
</g>
<circle cx="153" cy="140" r="55.082" fill="#E9ECF9"/>
<path d="M75.4092 345H76.8183V340.75H79.3637C82.074 340.75 83.2955 339.102 83.2955 337.045C83.2955 334.989 82.074 333.364 79.341 333.364H75.4092V345ZM76.8183 339.5V334.614H79.2955C81.1876 334.614 81.9092 335.648 81.9092 337.045C81.9092 338.443 81.1876 339.5 79.3183 339.5H76.8183Z" fill="black"/>
<path d="M90.8836 341.432C90.8836 343.068 89.6336 343.818 88.6336 343.818C87.52 343.818 86.7245 343 86.7245 341.727V336.273H85.3836V341.818C85.3836 344.045 86.5654 345.114 88.2018 345.114C89.52 345.114 90.3836 344.409 90.7927 343.523H90.8836V345H92.2245V336.273H90.8836V341.432Z" fill="black"/>
<path d="M94.8623 345H96.1578V343.659H96.3168C96.6123 344.136 97.1805 345.182 98.8623 345.182C101.044 345.182 102.567 343.432 102.567 340.659C102.567 337.909 101.044 336.159 98.8396 336.159C97.135 336.159 96.6123 337.205 96.3168 337.659H96.2032V333.364H94.8623V345ZM96.1805 340.636C96.1805 338.682 97.0441 337.364 98.6805 337.364C100.385 337.364 101.226 338.795 101.226 340.636C101.226 342.5 100.362 343.977 98.6805 343.977C97.0668 343.977 96.1805 342.614 96.1805 340.636Z" fill="black"/>
<path d="M105.959 333.364H104.618V345H105.959V333.364Z" fill="black"/>
<path d="M108.415 345H109.756V336.273H108.415V345ZM109.097 334.818C109.619 334.818 110.051 334.409 110.051 333.909C110.051 333.409 109.619 333 109.097 333C108.574 333 108.142 333.409 108.142 333.909C108.142 334.409 108.574 334.818 109.097 334.818Z" fill="black"/>
<path d="M115.757 345.182C117.689 345.182 118.962 344 119.189 342.455H117.848C117.598 343.409 116.803 343.977 115.757 343.977C114.166 343.977 113.144 342.659 113.144 340.636C113.144 338.659 114.189 337.364 115.757 337.364C116.939 337.364 117.644 338.091 117.848 338.886H119.189C118.962 337.25 117.575 336.159 115.734 336.159C113.371 336.159 111.803 338.023 111.803 340.682C111.803 343.295 113.303 345.182 115.757 345.182Z" fill="black"/>
<path d="M259.519 346.179C262.287 346.179 264.217 344.3 264.217 341.698C264.217 339.18 262.466 337.364 260.088 337.364C259.027 337.364 258.087 337.786 257.602 338.361H257.525L257.902 334.891H263.533V332.909H255.94L255.256 339.659L257.397 340.011C257.838 339.525 258.669 339.199 259.455 339.205C260.893 339.212 261.929 340.273 261.923 341.756C261.929 343.219 260.919 344.261 259.519 344.261C258.337 344.261 257.384 343.513 257.301 342.44H255C255.064 344.613 256.962 346.179 259.519 346.179Z" fill="black"/>
<path d="M273.358 343.545C273.364 345.067 274.33 346.364 276.126 346.364C277.915 346.364 278.9 345.067 278.893 343.545V342.855C278.9 341.321 277.941 340.036 276.126 340.036C274.355 340.036 273.364 341.334 273.358 342.855V343.545ZM266.704 336.054C266.71 337.575 267.675 338.86 269.478 338.86C271.261 338.86 272.246 337.588 272.239 336.054V335.364C272.246 333.829 271.287 332.545 269.478 332.545C267.714 332.545 266.71 333.829 266.704 335.364V336.054ZM267.279 346H268.884L277.884 332.909H276.279L267.279 346ZM275.026 342.855C275.033 342.177 275.32 341.494 276.126 341.494C276.969 341.494 277.219 342.177 277.212 342.855V343.545C277.219 344.223 276.944 344.894 276.126 344.894C275.308 344.894 275.033 344.217 275.026 343.545V342.855ZM268.385 335.364C268.391 334.692 268.666 334.002 269.478 334.002C270.322 334.002 270.565 334.686 270.558 335.364V336.054C270.565 336.731 270.296 337.403 269.478 337.403C268.66 337.403 268.391 336.731 268.385 336.054V335.364Z" fill="black"/>
<path d="M75.4092 395H82.2274V393.75H76.8183V383.364H75.4092V395Z" fill="black"/>
<path d="M84.2274 395H85.5683V386.273H84.2274V395ZM84.9092 384.818C85.4319 384.818 85.8637 384.409 85.8637 383.909C85.8637 383.409 85.4319 383 84.9092 383C84.3865 383 83.9546 383.409 83.9546 383.909C83.9546 384.409 84.3865 384.818 84.9092 384.818Z" fill="black"/>
<path d="M95.3197 398.273V386.273H94.0242V387.659H93.8651C93.5697 387.205 93.047 386.159 91.3424 386.159C89.1379 386.159 87.6151 387.909 87.6151 390.659C87.6151 393.432 89.1379 395.182 91.3197 395.182C93.0015 395.182 93.5697 394.136 93.8651 393.659H93.9788V398.273H95.3197ZM94.0015 390.636C94.0015 392.614 93.1151 393.977 91.5015 393.977C89.8197 393.977 88.9561 392.5 88.9561 390.636C88.9561 388.796 89.797 387.364 91.5015 387.364C93.1379 387.364 94.0015 388.682 94.0015 390.636Z" fill="black"/>
<path d="M103.274 391.432C103.274 393.068 102.024 393.818 101.024 393.818C99.9106 393.818 99.1151 393 99.1151 391.727V386.273H97.7742V391.818C97.7742 394.046 98.9561 395.114 100.592 395.114C101.911 395.114 102.774 394.409 103.183 393.523H103.274V395H104.615V386.273H103.274V391.432Z" fill="black"/>
<path d="M107.071 395H108.412V386.273H107.071V395ZM107.753 384.818C108.276 384.818 108.707 384.409 108.707 383.909C108.707 383.409 108.276 383 107.753 383C107.23 383 106.798 383.409 106.798 383.909C106.798 384.409 107.23 384.818 107.753 384.818Z" fill="black"/>
<path d="M114.163 395.182C115.845 395.182 116.413 394.136 116.709 393.659H116.868V395H118.163V383.364H116.823V387.659H116.709C116.413 387.205 115.891 386.159 114.186 386.159C111.982 386.159 110.459 387.909 110.459 390.659C110.459 393.432 111.982 395.182 114.163 395.182ZM114.345 393.977C112.663 393.977 111.8 392.5 111.8 390.636C111.8 388.796 112.641 387.364 114.345 387.364C115.982 387.364 116.845 388.682 116.845 390.636C116.845 392.614 115.959 393.977 114.345 393.977Z" fill="black"/>
<path d="M120.805 395H122.146V386.273H120.805V395ZM121.487 384.818C122.01 384.818 122.442 384.409 122.442 383.909C122.442 383.409 122.01 383 121.487 383C120.965 383 120.533 383.409 120.533 383.909C120.533 384.409 120.965 384.818 121.487 384.818Z" fill="black"/>
<path d="M128.398 386.273H126.534V384.182H125.193V386.273H123.875V387.409H125.193V392.864C125.193 394.386 126.421 395.114 127.557 395.114C128.057 395.114 128.375 395.023 128.557 394.955L128.284 393.75C128.171 393.773 127.989 393.818 127.693 393.818C127.102 393.818 126.534 393.636 126.534 392.5V387.409H128.398V386.273Z" fill="black"/>
<path d="M131.278 398.273C132.489 398.273 133.341 397.631 133.847 396.273L137.563 386.296L136.097 386.273L133.688 393.227H133.597L131.188 386.273H129.733L132.96 395.046L132.71 395.727C132.222 397.057 131.619 397.182 130.642 396.932L130.301 398.114C130.438 398.182 130.824 398.273 131.278 398.273Z" fill="black"/>
<path d="M144.314 390.091C144.314 392.955 145.087 395.341 146.473 397.364H147.655C146.564 395.864 145.7 392.796 145.7 390.091C145.7 387.386 146.564 384.318 147.655 382.818H146.473C145.087 384.841 144.314 387.227 144.314 390.091Z" fill="black"/>
<path d="M149.815 383.364V395H151.134V386.159H151.247L154.884 395H156.156L159.793 386.159H159.906V395H161.225V383.364H159.543L155.588 393.023H155.452L151.497 383.364H149.815Z" fill="black"/>
<path d="M164.05 383.364V395H165.368V386.159H165.482L169.118 395H170.391L174.027 386.159H174.141V395H175.459V383.364H173.777L169.823 393.023H169.686L165.732 383.364H164.05Z" fill="black"/>
<path d="M180.966 389.182C180.966 386.318 180.193 383.932 178.807 381.909H177.625C178.716 383.409 179.58 386.477 179.58 389.182C179.58 391.886 178.716 394.955 177.625 396.455H178.807C180.193 394.432 180.966 392.046 180.966 389.182Z" fill="black"/>
<path d="M259.519 396.179C262.287 396.179 264.217 394.3 264.217 391.698C264.217 389.18 262.466 387.364 260.088 387.364C259.027 387.364 258.087 387.786 257.602 388.361H257.525L257.902 384.891H263.533V382.909H255.94L255.256 389.659L257.397 390.011C257.838 389.525 258.669 389.199 259.455 389.205C260.893 389.212 261.929 390.273 261.923 391.756C261.929 393.219 260.919 394.261 259.519 394.261C258.337 394.261 257.384 393.513 257.301 392.44H255C255.064 394.613 256.962 396.179 259.519 396.179Z" fill="black"/>
<path d="M273.358 393.545C273.364 395.067 274.33 396.364 276.126 396.364C277.915 396.364 278.9 395.067 278.893 393.545V392.855C278.9 391.321 277.941 390.036 276.126 390.036C274.355 390.036 273.364 391.334 273.358 392.855V393.545ZM266.704 386.054C266.71 387.575 267.675 388.86 269.478 388.86C271.261 388.86 272.246 387.588 272.239 386.054V385.364C272.246 383.829 271.287 382.545 269.478 382.545C267.714 382.545 266.71 383.829 266.704 385.364V386.054ZM267.279 396H268.884L277.884 382.909H276.279L267.279 396ZM275.026 392.855C275.033 392.177 275.32 391.494 276.126 391.494C276.969 391.494 277.219 392.177 277.212 392.855V393.545C277.219 394.223 276.944 394.894 276.126 394.894C275.308 394.894 275.033 394.217 275.026 393.545V392.855ZM268.385 385.364C268.391 384.692 268.666 384.002 269.478 384.002C270.322 384.002 270.565 384.686 270.558 385.364V386.054C270.565 386.731 270.296 387.403 269.478 387.403C268.66 387.403 268.391 386.731 268.385 386.054V385.364Z" fill="black"/>
<path d="M75.4092 445H76.8183V440.454H79.3637C79.466 440.454 79.5626 440.454 79.6592 440.449L82.1137 445H83.7501L81.1194 440.193C82.6024 439.687 83.2955 438.477 83.2955 436.932C83.2955 434.875 82.0683 433.364 79.341 433.364H75.4092V445ZM76.8183 439.182V434.614H79.2955C81.1819 434.614 81.9092 435.534 81.9092 436.932C81.9092 438.329 81.1819 439.182 79.3183 439.182H76.8183Z" fill="black"/>
<path d="M89.0271 445.182C90.7998 445.182 92.0953 444.295 92.5043 442.977L91.2089 442.614C90.868 443.523 90.0782 443.977 89.0271 443.977C87.4532 443.977 86.368 442.96 86.3055 441.091H92.6407V440.523C92.6407 437.273 90.7089 436.159 88.8907 436.159C86.5271 436.159 84.9589 438.023 84.9589 440.704C84.9589 443.386 86.5044 445.182 89.0271 445.182ZM86.3055 439.932C86.3964 438.574 87.3566 437.364 88.8907 437.364C90.3453 437.364 91.2771 438.454 91.2771 439.932H86.3055Z" fill="black"/>
<path d="M100.862 438.227C100.442 436.989 99.4987 436.159 97.7714 436.159C95.9305 436.159 94.5668 437.204 94.5668 438.682C94.5668 439.886 95.2828 440.693 96.885 441.068L98.3396 441.409C99.2203 441.614 99.635 442.034 99.635 442.636C99.635 443.386 98.8396 444 97.5896 444C96.493 444 95.8055 443.528 95.5668 442.591L94.2941 442.909C94.6066 444.392 95.8282 445.182 97.6123 445.182C99.6407 445.182 101.021 444.074 101.021 442.568C101.021 441.352 100.26 440.585 98.7032 440.204L97.4078 439.886C96.3737 439.631 95.9078 439.284 95.9078 438.614C95.9078 437.864 96.7032 437.318 97.7714 437.318C98.9419 437.318 99.4248 437.966 99.6578 438.568L100.862 438.227Z" fill="black"/>
<path d="M106.699 445.182C108.472 445.182 109.767 444.295 110.176 442.977L108.881 442.614C108.54 443.523 107.75 443.977 106.699 443.977C105.125 443.977 104.04 442.96 103.977 441.091H110.313V440.523C110.313 437.273 108.381 436.159 106.563 436.159C104.199 436.159 102.631 438.023 102.631 440.704C102.631 443.386 104.176 445.182 106.699 445.182ZM103.977 439.932C104.068 438.574 105.028 437.364 106.563 437.364C108.017 437.364 108.949 438.454 108.949 439.932H103.977Z" fill="black"/>
<path d="M112.352 445H113.693V439.477C113.693 438.295 114.625 437.432 115.898 437.432C116.256 437.432 116.625 437.5 116.716 437.523V436.159C116.563 436.148 116.21 436.136 116.011 436.136C114.966 436.136 114.057 436.727 113.739 437.591H113.648V436.273H112.352V445Z" fill="black"/>
<path d="M125.707 436.273H124.253L121.844 443.227H121.753L119.344 436.273H117.889L121.117 445H122.48L125.707 436.273Z" fill="black"/>
<path d="M130.824 445.182C132.597 445.182 133.892 444.295 134.301 442.977L133.006 442.614C132.665 443.523 131.875 443.977 130.824 443.977C129.25 443.977 128.165 442.96 128.102 441.091H134.438V440.523C134.438 437.273 132.506 436.159 130.688 436.159C128.324 436.159 126.756 438.023 126.756 440.704C126.756 443.386 128.301 445.182 130.824 445.182ZM128.102 439.932C128.193 438.574 129.153 437.364 130.688 437.364C132.142 437.364 133.074 438.454 133.074 439.932H128.102Z" fill="black"/>
<path d="M255.895 446H258.356L263.917 434.935V432.909H255V434.891H261.462V434.98L255.895 446Z" fill="black"/>
<path d="M272.979 443.545C272.986 445.067 273.951 446.364 275.747 446.364C277.537 446.364 278.521 445.067 278.515 443.545V442.855C278.521 441.321 277.562 440.036 275.747 440.036C273.976 440.036 272.986 441.334 272.979 442.855V443.545ZM266.325 436.054C266.331 437.575 267.297 438.86 269.099 438.86C270.883 438.86 271.867 437.588 271.861 436.054V435.364C271.867 433.829 270.908 432.545 269.099 432.545C267.335 432.545 266.331 433.829 266.325 435.364V436.054ZM266.9 446H268.505L277.505 432.909H275.9L266.9 446ZM274.648 442.855C274.654 442.177 274.942 441.494 275.747 441.494C276.591 441.494 276.84 442.177 276.834 442.855V443.545C276.84 444.223 276.565 444.894 275.747 444.894C274.929 444.894 274.654 444.217 274.648 443.545V442.855ZM268.006 435.364C268.013 434.692 268.287 434.002 269.099 434.002C269.943 434.002 270.186 434.686 270.18 435.364V436.054C270.186 436.731 269.917 437.403 269.099 437.403C268.281 437.403 268.013 436.731 268.006 436.054V435.364Z" fill="black"/>
<path d="M81.7728 486.273H83.1365C83.074 484.517 81.4546 483.205 79.2046 483.205C76.9774 483.205 75.2274 484.5 75.2274 486.455C75.2274 488.023 76.3637 488.955 78.1819 489.477L79.6137 489.886C80.841 490.227 81.9319 490.659 81.9319 491.818C81.9319 493.091 80.7046 493.932 79.091 493.932C77.7046 493.932 76.4774 493.318 76.3637 492H74.9092C75.0455 493.909 76.591 495.205 79.091 495.205C81.7728 495.205 83.2955 493.727 83.2955 491.841C83.2955 489.659 81.2274 488.955 80.0228 488.636L78.841 488.318C77.9774 488.091 76.591 487.636 76.591 486.386C76.591 485.273 77.6137 484.455 79.1592 484.455C80.5683 484.455 81.6365 485.125 81.7728 486.273Z" fill="black"/>
<path d="M89.2259 486.273H87.3623V484.182H86.0214V486.273H84.7032V487.409H86.0214V492.864C86.0214 494.386 87.2487 495.114 88.385 495.114C88.885 495.114 89.2032 495.023 89.385 494.955L89.1123 493.75C88.9987 493.773 88.8169 493.818 88.5214 493.818C87.9305 493.818 87.3623 493.636 87.3623 492.5V487.409H89.2259V486.273Z" fill="black"/>
<path d="M93.8112 495.205C95.3339 495.205 96.1294 494.386 96.4021 493.818H96.4703V495H97.8112V489.25C97.8112 486.477 95.6975 486.159 94.5839 486.159C93.2657 486.159 91.7657 486.614 91.0839 488.205L92.3566 488.659C92.6521 488.023 93.3509 487.341 94.6294 487.341C95.8623 487.341 96.4703 487.994 96.4703 489.114V489.159C96.4703 489.807 95.8112 489.75 94.2203 489.955C92.6009 490.165 90.8339 490.523 90.8339 492.523C90.8339 494.227 92.1521 495.205 93.8112 495.205ZM94.0157 494C92.9475 494 92.1748 493.523 92.1748 492.591C92.1748 491.568 93.1066 491.25 94.1521 491.114C94.7203 491.045 96.243 490.886 96.4703 490.614V491.841C96.4703 492.932 95.6066 494 94.0157 494Z" fill="black"/>
<path d="M100.259 495H101.6V491.733L102.537 490.864L105.804 495H107.509L103.548 490L107.236 486.273H105.577L101.759 490.159H101.6V483.364H100.259V495Z" fill="black"/>
<path d="M108.962 495H110.303V486.273H108.962V495ZM109.644 484.818C110.166 484.818 110.598 484.409 110.598 483.909C110.598 483.409 110.166 483 109.644 483C109.121 483 108.689 483.409 108.689 483.909C108.689 484.409 109.121 484.818 109.644 484.818Z" fill="black"/>
<path d="M114.1 489.75C114.1 488.227 115.043 487.364 116.327 487.364C117.571 487.364 118.327 488.176 118.327 489.545V495H119.668V489.455C119.668 487.227 118.48 486.159 116.713 486.159C115.395 486.159 114.577 486.75 114.168 487.636H114.054V486.273H112.759V495H114.1V489.75Z" fill="black"/>
<path d="M125.641 498.455C127.732 498.455 129.413 497.5 129.413 495.25V486.273H128.118V487.659H127.982C127.686 487.205 127.141 486.159 125.436 486.159C123.232 486.159 121.709 487.909 121.709 490.591C121.709 493.318 123.3 494.864 125.413 494.864C127.118 494.864 127.663 493.864 127.959 493.386H128.073V495.159C128.073 496.614 127.05 497.273 125.641 497.273C124.055 497.273 123.499 496.438 123.141 495.955L122.073 496.705C122.618 497.619 123.692 498.455 125.641 498.455ZM125.595 493.659C123.913 493.659 123.05 492.386 123.05 490.568C123.05 488.795 123.891 487.364 125.595 487.364C127.232 487.364 128.095 488.682 128.095 490.568C128.095 492.5 127.209 493.659 125.595 493.659Z" fill="black"/>
<path d="M136.368 495H137.709V489.477C137.709 488.295 138.641 487.432 139.913 487.432C140.271 487.432 140.641 487.5 140.732 487.523V486.159C140.578 486.148 140.226 486.136 140.027 486.136C138.982 486.136 138.073 486.727 137.754 487.591H137.663V486.273H136.368V495Z" fill="black"/>
<path d="M145.715 495.182C147.487 495.182 148.783 494.295 149.192 492.977L147.896 492.614C147.555 493.523 146.766 493.977 145.715 493.977C144.141 493.977 143.055 492.96 142.993 491.091H149.328V490.523C149.328 487.273 147.396 486.159 145.578 486.159C143.215 486.159 141.646 488.023 141.646 490.705C141.646 493.386 143.192 495.182 145.715 495.182ZM142.993 489.932C143.084 488.574 144.044 487.364 145.578 487.364C147.033 487.364 147.965 488.455 147.965 489.932H142.993Z" fill="black"/>
<path d="M153.345 495H154.663L156.573 488.295H156.709L158.618 495H159.936L162.595 486.273H161.186L159.3 492.932H159.209L157.368 486.273H155.936L154.073 492.955H153.982L152.095 486.273H150.686L153.345 495Z" fill="black"/>
<path d="M166.936 495.205C168.459 495.205 169.254 494.386 169.527 493.818H169.595V495H170.936V489.25C170.936 486.477 168.823 486.159 167.709 486.159C166.391 486.159 164.891 486.614 164.209 488.205L165.482 488.659C165.777 488.023 166.476 487.341 167.754 487.341C168.987 487.341 169.595 487.994 169.595 489.114V489.159C169.595 489.807 168.936 489.75 167.345 489.955C165.726 490.165 163.959 490.523 163.959 492.523C163.959 494.227 165.277 495.205 166.936 495.205ZM167.141 494C166.073 494 165.3 493.523 165.3 492.591C165.3 491.568 166.232 491.25 167.277 491.114C167.845 491.045 169.368 490.886 169.595 490.614V491.841C169.595 492.932 168.732 494 167.141 494Z" fill="black"/>
<path d="M173.384 495H174.725V489.477C174.725 488.295 175.656 487.432 176.929 487.432C177.287 487.432 177.656 487.5 177.747 487.523V486.159C177.594 486.148 177.242 486.136 177.043 486.136C175.997 486.136 175.088 486.727 174.77 487.591H174.679V486.273H173.384V495Z" fill="black"/>
<path d="M182.367 495.182C184.048 495.182 184.617 494.136 184.912 493.659H185.071V495H186.367V483.364H185.026V487.659H184.912C184.617 487.205 184.094 486.159 182.389 486.159C180.185 486.159 178.662 487.909 178.662 490.659C178.662 493.432 180.185 495.182 182.367 495.182ZM182.548 493.977C180.867 493.977 180.003 492.5 180.003 490.636C180.003 488.795 180.844 487.364 182.548 487.364C184.185 487.364 185.048 488.682 185.048 490.636C185.048 492.614 184.162 493.977 182.548 493.977Z" fill="black"/>
<path d="M195.19 488.227C194.77 486.989 193.827 486.159 192.1 486.159C190.259 486.159 188.895 487.205 188.895 488.682C188.895 489.886 189.611 490.693 191.213 491.068L192.668 491.409C193.548 491.614 193.963 492.034 193.963 492.636C193.963 493.386 193.168 494 191.918 494C190.821 494 190.134 493.528 189.895 492.591L188.622 492.909C188.935 494.392 190.156 495.182 191.94 495.182C193.969 495.182 195.35 494.074 195.35 492.568C195.35 491.352 194.588 490.585 193.031 490.205L191.736 489.886C190.702 489.631 190.236 489.284 190.236 488.614C190.236 487.864 191.031 487.318 192.1 487.318C193.27 487.318 193.753 487.966 193.986 488.568L195.19 488.227Z" fill="black"/>
<path d="M260.51 482.909H258.254L255 484.999V487.173L258.062 485.217H258.138V496H260.51V482.909Z" fill="black"/>
<path d="M268.673 496.249C271.83 496.256 273.716 493.763 273.716 489.467C273.716 485.197 271.817 482.73 268.673 482.73C265.528 482.73 263.636 485.191 263.629 489.467C263.629 493.756 265.515 496.249 268.673 496.249ZM268.673 494.249C267.043 494.249 266.02 492.612 266.026 489.467C266.033 486.348 267.049 484.705 268.673 484.705C270.303 484.705 271.319 486.348 271.325 489.467C271.325 492.612 270.309 494.249 268.673 494.249Z" fill="black"/>
<path d="M282.839 493.545C282.845 495.067 283.811 496.364 285.607 496.364C287.396 496.364 288.381 495.067 288.374 493.545V492.855C288.381 491.321 287.422 490.036 285.607 490.036C283.836 490.036 282.845 491.334 282.839 492.855V493.545ZM276.185 486.054C276.191 487.575 277.156 488.86 278.959 488.86C280.742 488.86 281.727 487.588 281.72 486.054V485.364C281.727 483.829 280.768 482.545 278.959 482.545C277.195 482.545 276.191 483.829 276.185 485.364V486.054ZM276.76 496H278.365L287.365 482.909H285.76L276.76 496ZM284.507 492.855C284.514 492.177 284.801 491.494 285.607 491.494C286.45 491.494 286.7 492.177 286.693 492.855V493.545C286.7 494.223 286.425 494.894 285.607 494.894C284.789 494.894 284.514 494.217 284.507 493.545V492.855ZM277.866 485.364C277.872 484.692 278.147 484.002 278.959 484.002C279.803 484.002 280.046 484.686 280.039 485.364V486.054C280.046 486.731 279.777 487.403 278.959 487.403C278.141 487.403 277.872 486.731 277.866 486.054V485.364Z" fill="black"/>
<path d="M75.4092 545H82.5228V543.75H76.8183V539.795H82.0683V538.545H76.8183V534.614H82.4319V533.364H75.4092V545Z" fill="black"/>
<path d="M88.3353 545.182C90.2671 545.182 91.5399 544 91.7671 542.454H90.4262C90.1762 543.409 89.3808 543.977 88.3353 543.977C86.7444 543.977 85.7217 542.659 85.7217 540.636C85.7217 538.659 86.7671 537.364 88.3353 537.364C89.5171 537.364 90.2217 538.091 90.4262 538.886H91.7671C91.5399 537.25 90.1535 536.159 88.3126 536.159C85.949 536.159 84.3808 538.023 84.3808 540.682C84.3808 543.295 85.8808 545.182 88.3353 545.182Z" fill="black"/>
<path d="M97.2728 545.182C99.6365 545.182 101.227 543.386 101.227 540.682C101.227 537.954 99.6365 536.159 97.2728 536.159C94.9092 536.159 93.3183 537.954 93.3183 540.682C93.3183 543.386 94.9092 545.182 97.2728 545.182ZM97.2728 543.977C95.4774 543.977 94.6592 542.432 94.6592 540.682C94.6592 538.932 95.4774 537.364 97.2728 537.364C99.0683 537.364 99.8865 538.932 99.8865 540.682C99.8865 542.432 99.0683 543.977 97.2728 543.977Z" fill="black"/>
<path d="M109.456 538.227C109.036 536.989 108.092 536.159 106.365 536.159C104.524 536.159 103.161 537.204 103.161 538.682C103.161 539.886 103.877 540.693 105.479 541.068L106.933 541.409C107.814 541.614 108.229 542.034 108.229 542.636C108.229 543.386 107.433 544 106.183 544C105.087 544 104.399 543.528 104.161 542.591L102.888 542.909C103.2 544.392 104.422 545.182 106.206 545.182C108.234 545.182 109.615 544.074 109.615 542.568C109.615 541.352 108.854 540.585 107.297 540.204L106.002 539.886C104.967 539.631 104.502 539.284 104.502 538.614C104.502 537.864 105.297 537.318 106.365 537.318C107.536 537.318 108.019 537.966 108.252 538.568L109.456 538.227Z" fill="black"/>
<path d="M112.497 548.273C113.707 548.273 114.56 547.631 115.065 546.273L118.781 536.295L117.315 536.273L114.906 543.227H114.815L112.406 536.273H110.952L114.179 545.045L113.929 545.727C113.44 547.057 112.838 547.182 111.861 546.932L111.52 548.114C111.656 548.182 112.043 548.273 112.497 548.273Z" fill="black"/>
<path d="M126.737 538.227C126.317 536.989 125.374 536.159 123.646 536.159C121.805 536.159 120.442 537.204 120.442 538.682C120.442 539.886 121.158 540.693 122.76 541.068L124.215 541.409C125.095 541.614 125.51 542.034 125.51 542.636C125.51 543.386 124.715 544 123.465 544C122.368 544 121.68 543.528 121.442 542.591L120.169 542.909C120.482 544.392 121.703 545.182 123.487 545.182C125.516 545.182 126.896 544.074 126.896 542.568C126.896 541.352 126.135 540.585 124.578 540.204L123.283 539.886C122.249 539.631 121.783 539.284 121.783 538.614C121.783 537.864 122.578 537.318 123.646 537.318C124.817 537.318 125.3 537.966 125.533 538.568L126.737 538.227Z" fill="black"/>
<path d="M132.71 536.273H130.847V534.182H129.506V536.273H128.188V537.409H129.506V542.864C129.506 544.386 130.733 545.114 131.869 545.114C132.369 545.114 132.688 545.023 132.869 544.954L132.597 543.75C132.483 543.773 132.301 543.818 132.006 543.818C131.415 543.818 130.847 543.636 130.847 542.5V537.409H132.71V536.273Z" fill="black"/>
<path d="M138.293 545.182C140.065 545.182 141.361 544.295 141.77 542.977L140.475 542.614C140.134 543.523 139.344 543.977 138.293 543.977C136.719 543.977 135.634 542.96 135.571 541.091H141.906V540.523C141.906 537.273 139.975 536.159 138.156 536.159C135.793 536.159 134.225 538.023 134.225 540.704C134.225 543.386 135.77 545.182 138.293 545.182ZM135.571 539.932C135.662 538.574 136.622 537.364 138.156 537.364C139.611 537.364 140.543 538.454 140.543 539.932H135.571Z" fill="black"/>
<path d="M143.946 545H145.287V539.545C145.287 538.267 146.219 537.364 147.264 537.364C148.281 537.364 148.992 538.028 148.992 539.023V545H150.355V539.318C150.355 538.193 151.06 537.364 152.287 537.364C153.242 537.364 154.06 537.869 154.06 539.159V545H155.401V539.159C155.401 537.108 154.298 536.159 152.742 536.159C151.492 536.159 150.577 536.733 150.128 537.636H150.037C149.605 536.704 148.844 536.159 147.696 536.159C146.56 536.159 145.719 536.704 145.355 537.636H145.242V536.273H143.946V545Z" fill="black"/>
<path d="M260.51 532.909H258.254L255 534.999V537.173L258.062 535.217H258.138V546H260.51V532.909Z" fill="black"/>
<path d="M268.385 546.179C271.153 546.179 273.083 544.3 273.083 541.698C273.083 539.18 271.332 537.364 268.954 537.364C267.893 537.364 266.953 537.786 266.467 538.361H266.391L266.768 534.891H272.399V532.909H264.805L264.121 539.659L266.263 540.011C266.704 539.525 267.535 539.199 268.321 539.205C269.759 539.212 270.795 540.273 270.788 541.756C270.795 543.219 269.785 544.261 268.385 544.261C267.202 544.261 266.25 543.513 266.167 542.44H263.866C263.93 544.613 265.828 546.179 268.385 546.179Z" fill="black"/>
<path d="M282.224 543.545C282.23 545.067 283.195 546.364 284.991 546.364C286.781 546.364 287.766 545.067 287.759 543.545V542.855C287.766 541.321 286.807 540.036 284.991 540.036C283.221 540.036 282.23 541.334 282.224 542.855V543.545ZM275.57 536.054C275.576 537.575 276.541 538.86 278.344 538.86C280.127 538.86 281.112 537.588 281.105 536.054V535.364C281.112 533.829 280.153 532.545 278.344 532.545C276.58 532.545 275.576 533.829 275.57 535.364V536.054ZM276.145 546H277.749L286.749 532.909H285.145L276.145 546ZM283.892 542.855C283.898 542.177 284.186 541.494 284.991 541.494C285.835 541.494 286.085 542.177 286.078 542.855V543.545C286.085 544.223 285.81 544.894 284.991 544.894C284.173 544.894 283.898 544.217 283.892 543.545V542.855ZM277.251 535.364C277.257 534.692 277.532 534.002 278.344 534.002C279.188 534.002 279.43 534.686 279.424 535.364V536.054C279.43 536.731 279.162 537.403 278.344 537.403C277.526 537.403 277.257 536.731 277.251 536.054V535.364Z" fill="black"/>
<path d="M38 316H8C3.58172 316 0 319.582 0 324V354C0 358.418 3.58172 362 8 362H38C42.4183 362 46 358.418 46 354V324C46 319.582 42.4183 316 38 316Z" fill="#7F96E7"/>
<path d="M38 366H8C3.58172 366 0 369.582 0 374V404C0 408.418 3.58172 412 8 412H38C42.4183 412 46 408.418 46 404V374C46 369.582 42.4183 366 38 366Z" fill="#6B55EE"/>
<path d="M38 416H8C3.58172 416 0 419.582 0 424V454C0 458.418 3.58172 462 8 462H38C42.4183 462 46 458.418 46 454V424C46 419.582 42.4183 416 38 416Z" fill="#07AEC5"/>
<path d="M38 466H8C3.58172 466 0 469.582 0 474V504C0 508.418 3.58172 512 8 512H38C42.4183 512 46 508.418 46 504V474C46 469.582 42.4183 466 38 466Z" fill="#0380A8"/>
<path d="M38 516H8C3.58172 516 0 519.582 0 524V554C0 558.418 3.58172 562 8 562H38C42.4183 562 46 558.418 46 554V524C46 519.582 42.4183 516 38 516Z" fill="#2443AE"/>
<path d="M75.8865 595L77.0569 591.705H81.7615L82.9319 595H84.4092L80.1365 583.364H78.6819L74.4092 595H75.8865ZM77.5001 590.455L79.3637 585.205H79.4546L81.3183 590.455H77.5001Z" fill="black"/>
<path d="M89.3353 595.182C91.0171 595.182 91.5853 594.136 91.8808 593.659H92.0399V595H93.3353V583.364H91.9944V587.659H91.8808C91.5853 587.205 91.0626 586.159 89.358 586.159C87.1535 586.159 85.6308 587.909 85.6308 590.659C85.6308 593.432 87.1535 595.182 89.3353 595.182ZM89.5171 593.977C87.8353 593.977 86.9717 592.5 86.9717 590.636C86.9717 588.795 87.8126 587.364 89.5171 587.364C91.1535 587.364 92.0171 588.682 92.0171 590.636C92.0171 592.614 91.1308 593.977 89.5171 593.977Z" fill="black"/>
<path d="M103.114 586.273H101.659L99.2501 593.227H99.1592L96.7501 586.273H95.2955L98.5228 595H99.8865L103.114 586.273Z" fill="black"/>
<path d="M104.884 595H106.225V586.273H104.884V595ZM105.565 584.818C106.088 584.818 106.52 584.409 106.52 583.909C106.52 583.409 106.088 583 105.565 583C105.043 583 104.611 583.409 104.611 583.909C104.611 584.409 105.043 584.818 105.565 584.818Z" fill="black"/>
<path d="M114.862 588.227C114.442 586.989 113.499 586.159 111.771 586.159C109.93 586.159 108.567 587.205 108.567 588.682C108.567 589.886 109.283 590.693 110.885 591.068L112.34 591.409C113.22 591.614 113.635 592.034 113.635 592.636C113.635 593.386 112.84 594 111.59 594C110.493 594 109.805 593.528 109.567 592.591L108.294 592.909C108.607 594.392 109.828 595.182 111.612 595.182C113.641 595.182 115.021 594.074 115.021 592.568C115.021 591.352 114.26 590.585 112.703 590.205L111.408 589.886C110.374 589.631 109.908 589.284 109.908 588.614C109.908 587.864 110.703 587.318 111.771 587.318C112.942 587.318 113.425 587.966 113.658 588.568L114.862 588.227Z" fill="black"/>
<path d="M120.585 595.182C122.949 595.182 124.54 593.386 124.54 590.682C124.54 587.955 122.949 586.159 120.585 586.159C118.222 586.159 116.631 587.955 116.631 590.682C116.631 593.386 118.222 595.182 120.585 595.182ZM120.585 593.977C118.79 593.977 117.972 592.432 117.972 590.682C117.972 588.932 118.79 587.364 120.585 587.364C122.381 587.364 123.199 588.932 123.199 590.682C123.199 592.432 122.381 593.977 120.585 593.977Z" fill="black"/>
<path d="M126.587 595H127.928V589.477C127.928 588.295 128.859 587.432 130.132 587.432C130.49 587.432 130.859 587.5 130.95 587.523V586.159C130.797 586.148 130.445 586.136 130.246 586.136C129.2 586.136 128.291 586.727 127.973 587.591H127.882V586.273H126.587V595Z" fill="black"/>
<path d="M138.722 588.227C138.301 586.989 137.358 586.159 135.631 586.159C133.79 586.159 132.426 587.205 132.426 588.682C132.426 589.886 133.142 590.693 134.744 591.068L136.199 591.409C137.08 591.614 137.494 592.034 137.494 592.636C137.494 593.386 136.699 594 135.449 594C134.352 594 133.665 593.528 133.426 592.591L132.153 592.909C132.466 594.392 133.688 595.182 135.472 595.182C137.5 595.182 138.881 594.074 138.881 592.568C138.881 591.352 138.119 590.585 136.563 590.205L135.267 589.886C134.233 589.631 133.767 589.284 133.767 588.614C133.767 587.864 134.563 587.318 135.631 587.318C136.801 587.318 137.284 587.966 137.517 588.568L138.722 588.227Z" fill="black"/>
<path d="M255.077 596H264.051V594.018H258.349V593.929L260.606 591.634C263.15 589.192 263.853 588.003 263.853 586.527C263.853 584.334 262.07 582.73 259.436 582.73C256.841 582.73 255 584.341 255 586.827H257.256C257.256 585.491 258.1 584.654 259.404 584.654C260.651 584.654 261.577 585.415 261.577 586.648C261.577 587.741 260.913 588.521 259.621 589.832L255.077 594.287V596Z" fill="black"/>
<path d="M273.256 593.545C273.262 595.067 274.227 596.364 276.023 596.364C277.813 596.364 278.798 595.067 278.791 593.545V592.855C278.798 591.321 277.839 590.036 276.023 590.036C274.253 590.036 273.262 591.334 273.256 592.855V593.545ZM266.602 586.054C266.608 587.575 267.573 588.86 269.376 588.86C271.159 588.86 272.143 587.588 272.137 586.054V585.364C272.143 583.829 271.185 582.545 269.376 582.545C267.612 582.545 266.608 583.829 266.602 585.364V586.054ZM267.177 596H268.781L277.781 582.909H276.177L267.177 596ZM274.924 592.855C274.93 592.177 275.218 591.494 276.023 591.494C276.867 591.494 277.116 592.177 277.11 592.855V593.545C277.116 594.223 276.842 594.894 276.023 594.894C275.205 594.894 274.93 594.217 274.924 593.545V592.855ZM268.283 585.364C268.289 584.692 268.564 584.002 269.376 584.002C270.219 584.002 270.462 584.686 270.456 585.364V586.054C270.462 586.731 270.194 587.403 269.376 587.403C268.558 587.403 268.289 586.731 268.283 586.054V585.364Z" fill="black"/>
<path d="M74.7725 634.614H78.4316V645H79.8406V634.614H83.4997V633.364H74.7725V634.614Z" fill="black"/>
<path d="M87.8861 645.182C89.6588 645.182 90.9543 644.295 91.3634 642.977L90.0679 642.614C89.727 643.523 88.9372 643.977 87.8861 643.977C86.3122 643.977 85.227 642.96 85.1645 641.091H91.4997V640.523C91.4997 637.273 89.5679 636.159 87.7497 636.159C85.3861 636.159 83.8179 638.023 83.8179 640.704C83.8179 643.386 85.3634 645.182 87.8861 645.182ZM85.1645 639.932C85.2554 638.574 86.2156 637.364 87.7497 637.364C89.2043 637.364 90.1361 638.454 90.1361 639.932H85.1645Z" fill="black"/>
<path d="M96.1077 645.204C97.6304 645.204 98.4259 644.386 98.6986 643.818H98.7668V645H100.108V639.25C100.108 636.477 97.9941 636.159 96.8804 636.159C95.5622 636.159 94.0622 636.614 93.3804 638.204L94.6531 638.659C94.9486 638.023 95.6475 637.341 96.9259 637.341C98.1588 637.341 98.7668 637.994 98.7668 639.114V639.159C98.7668 639.807 98.1077 639.75 96.5168 639.954C94.8975 640.165 93.1304 640.523 93.1304 642.523C93.1304 644.227 94.4486 645.204 96.1077 645.204ZM96.3122 644C95.2441 644 94.4713 643.523 94.4713 642.591C94.4713 641.568 95.4031 641.25 96.4486 641.114C97.0168 641.045 98.5395 640.886 98.7668 640.614V641.841C98.7668 642.932 97.9031 644 96.3122 644Z" fill="black"/>
<path d="M102.555 645H103.896V639.545C103.896 638.267 104.828 637.364 105.873 637.364C106.89 637.364 107.601 638.028 107.601 639.023V645H108.964V639.318C108.964 638.193 109.669 637.364 110.896 637.364C111.851 637.364 112.669 637.869 112.669 639.159V645H114.01V639.159C114.01 637.108 112.907 636.159 111.351 636.159C110.101 636.159 109.186 636.733 108.737 637.636H108.646C108.214 636.704 107.453 636.159 106.305 636.159C105.169 636.159 104.328 636.704 103.964 637.636H103.851V636.273H102.555V645Z" fill="black"/>
<path d="M260.51 632.909H258.254L255 634.999V637.173L258.062 635.217H258.138V646H260.51V632.909Z" fill="black"/>
<path d="M268.385 646.179C271.153 646.179 273.083 644.3 273.083 641.698C273.083 639.18 271.332 637.364 268.954 637.364C267.893 637.364 266.953 637.786 266.467 638.361H266.391L266.768 634.891H272.399V632.909H264.805L264.121 639.659L266.263 640.011C266.704 639.525 267.535 639.199 268.321 639.205C269.759 639.212 270.795 640.273 270.788 641.756C270.795 643.219 269.785 644.261 268.385 644.261C267.202 644.261 266.25 643.513 266.167 642.44H263.866C263.93 644.613 265.828 646.179 268.385 646.179Z" fill="black"/>
<path d="M282.224 643.545C282.23 645.067 283.195 646.364 284.991 646.364C286.781 646.364 287.766 645.067 287.759 643.545V642.855C287.766 641.321 286.807 640.036 284.991 640.036C283.221 640.036 282.23 641.334 282.224 642.855V643.545ZM275.57 636.054C275.576 637.575 276.541 638.86 278.344 638.86C280.127 638.86 281.112 637.588 281.105 636.054V635.364C281.112 633.829 280.153 632.545 278.344 632.545C276.58 632.545 275.576 633.829 275.57 635.364V636.054ZM276.145 646H277.749L286.749 632.909H285.145L276.145 646ZM283.892 642.855C283.898 642.177 284.186 641.494 284.991 641.494C285.835 641.494 286.085 642.177 286.078 642.855V643.545C286.085 644.223 285.81 644.894 284.991 644.894C284.173 644.894 283.898 644.217 283.892 643.545V642.855ZM277.251 635.364C277.257 634.692 277.532 634.002 278.344 634.002C279.188 634.002 279.43 634.686 279.424 635.364V636.054C279.43 636.731 279.162 637.403 278.344 637.403C277.526 637.403 277.257 636.731 277.251 636.054V635.364Z" fill="black"/>
<path d="M75.4092 695H76.8183V690.75H79.3637C82.074 690.75 83.2955 689.102 83.2955 687.045C83.2955 684.989 82.074 683.364 79.341 683.364H75.4092V695ZM76.8183 689.5V684.614H79.2955C81.1876 684.614 81.9092 685.648 81.9092 687.045C81.9092 688.443 81.1876 689.5 79.3183 689.5H76.8183Z" fill="black"/>
<path d="M85.3836 695H86.7245V689.477C86.7245 688.295 87.6563 687.432 88.9291 687.432C89.287 687.432 89.6563 687.5 89.7472 687.523V686.159C89.5938 686.148 89.2416 686.136 89.0427 686.136C87.9972 686.136 87.0882 686.727 86.77 687.591H86.6791V686.273H85.3836V695Z" fill="black"/>
<path d="M91.3367 695H92.6776V686.273H91.3367V695ZM92.0186 684.818C92.5413 684.818 92.9731 684.409 92.9731 683.909C92.9731 683.409 92.5413 683 92.0186 683C91.4958 683 91.064 683.409 91.064 683.909C91.064 684.409 91.4958 684.818 92.0186 684.818Z" fill="black"/>
<path d="M102.27 686.273H100.815L98.4063 693.227H98.3154L95.9063 686.273H94.4518L97.6791 695H99.0427L102.27 686.273Z" fill="black"/>
<path d="M106.342 695.205C107.865 695.205 108.661 694.386 108.933 693.818H109.002V695H110.342V689.25C110.342 686.477 108.229 686.159 107.115 686.159C105.797 686.159 104.297 686.614 103.615 688.205L104.888 688.659C105.183 688.023 105.882 687.341 107.161 687.341C108.394 687.341 109.002 687.994 109.002 689.114V689.159C109.002 689.807 108.342 689.75 106.752 689.955C105.132 690.165 103.365 690.523 103.365 692.523C103.365 694.227 104.683 695.205 106.342 695.205ZM106.547 694C105.479 694 104.706 693.523 104.706 692.591C104.706 691.568 105.638 691.25 106.683 691.114C107.252 691.045 108.774 690.886 109.002 690.614V691.841C109.002 692.932 108.138 694 106.547 694Z" fill="black"/>
<path d="M116.585 686.273H114.722V684.182H113.381V686.273H112.063V687.409H113.381V692.864C113.381 694.386 114.608 695.114 115.744 695.114C116.244 695.114 116.563 695.023 116.744 694.955L116.472 693.75C116.358 693.773 116.176 693.818 115.881 693.818C115.29 693.818 114.722 693.636 114.722 692.5V687.409H116.585V686.273Z" fill="black"/>
<path d="M122.168 695.182C123.94 695.182 125.236 694.295 125.645 692.977L124.35 692.614C124.009 693.523 123.219 693.977 122.168 693.977C120.594 693.977 119.509 692.96 119.446 691.091H125.781V690.523C125.781 687.273 123.85 686.159 122.031 686.159C119.668 686.159 118.1 688.023 118.1 690.705C118.1 693.386 119.645 695.182 122.168 695.182ZM119.446 689.932C119.537 688.574 120.497 687.364 122.031 687.364C123.486 687.364 124.418 688.455 124.418 689.932H119.446Z" fill="black"/>
<path d="M255.077 696H264.051V694.018H258.349V693.929L260.606 691.634C263.15 689.192 263.853 688.003 263.853 686.527C263.853 684.334 262.07 682.73 259.436 682.73C256.841 682.73 255 684.341 255 686.827H257.256C257.256 685.491 258.1 684.654 259.404 684.654C260.651 684.654 261.577 685.415 261.577 686.648C261.577 687.741 260.913 688.521 259.621 689.832L255.077 694.287V696Z" fill="black"/>
<path d="M271.095 696.249C274.253 696.256 276.138 693.763 276.138 689.467C276.138 685.197 274.24 682.73 271.095 682.73C267.95 682.73 266.058 685.191 266.052 689.467C266.052 693.756 267.938 696.249 271.095 696.249ZM271.095 694.249C269.465 694.249 268.442 692.612 268.449 689.467C268.455 686.348 269.472 684.705 271.095 684.705C272.725 684.705 273.741 686.348 273.748 689.467C273.748 692.612 272.732 694.249 271.095 694.249Z" fill="black"/>
<path d="M279.203 696.141C279.958 696.141 280.603 695.514 280.61 694.734C280.603 693.967 279.958 693.341 279.203 693.341C278.424 693.341 277.791 693.967 277.797 694.734C277.791 695.514 278.424 696.141 279.203 696.141Z" fill="black"/>
<path d="M287.257 696.179C290.083 696.198 291.981 694.255 291.975 691.666C291.981 689.192 290.217 687.403 287.922 687.403C286.516 687.403 285.276 688.087 284.65 689.212H284.56C284.566 686.457 285.576 684.782 287.392 684.782C288.517 684.782 289.277 685.434 289.52 686.437H291.853C291.572 684.322 289.865 682.73 287.392 682.73C284.247 682.73 282.259 685.351 282.259 689.825C282.252 694.626 284.745 696.166 287.257 696.179ZM287.245 694.261C285.845 694.261 284.822 693.104 284.816 691.736C284.828 690.362 285.89 689.212 287.277 689.212C288.664 689.212 289.68 690.311 289.674 691.717C289.68 693.149 288.632 694.261 287.245 694.261Z" fill="black"/>
<path d="M298.686 696.179C301.454 696.179 303.385 694.3 303.385 691.698C303.385 689.18 301.633 687.364 299.255 687.364C298.194 687.364 297.255 687.786 296.769 688.361H296.692L297.069 684.891H302.701V682.909H295.107L294.423 689.659L296.564 690.011C297.005 689.525 297.836 689.199 298.623 689.205C300.061 689.212 301.096 690.273 301.09 691.756C301.096 693.219 300.086 694.261 298.686 694.261C297.504 694.261 296.551 693.513 296.468 692.44H294.167C294.231 694.613 296.13 696.179 298.686 696.179Z" fill="black"/>
<path d="M312.525 693.545C312.532 695.067 313.497 696.364 315.293 696.364C317.083 696.364 318.067 695.067 318.061 693.545V692.855C318.067 691.321 317.108 690.036 315.293 690.036C313.522 690.036 312.532 691.334 312.525 692.855V693.545ZM305.871 686.054C305.877 687.575 306.843 688.86 308.645 688.86C310.429 688.86 311.413 687.588 311.407 686.054V685.364C311.413 683.829 310.454 682.545 308.645 682.545C306.881 682.545 305.877 683.829 305.871 685.364V686.054ZM306.446 696H308.051L317.051 682.909H315.446L306.446 696ZM314.194 692.855C314.2 692.177 314.488 691.494 315.293 691.494C316.137 691.494 316.386 692.177 316.38 692.855V693.545C316.386 694.223 316.111 694.894 315.293 694.894C314.475 694.894 314.2 694.217 314.194 693.545V692.855ZM307.552 685.364C307.559 684.692 307.833 684.002 308.645 684.002C309.489 684.002 309.732 684.686 309.725 685.364V686.054C309.732 686.731 309.463 687.403 308.645 687.403C307.827 687.403 307.559 686.731 307.552 686.054V685.364Z" fill="black"/>
<path d="M81.7728 736.273H83.1365C83.074 734.517 81.4546 733.205 79.2046 733.205C76.9774 733.205 75.2274 734.5 75.2274 736.455C75.2274 738.023 76.3637 738.955 78.1819 739.477L79.6137 739.886C80.841 740.227 81.9319 740.659 81.9319 741.818C81.9319 743.091 80.7046 743.932 79.091 743.932C77.7046 743.932 76.4774 743.318 76.3637 742H74.9092C75.0455 743.909 76.591 745.205 79.091 745.205C81.7728 745.205 83.2955 743.727 83.2955 741.841C83.2955 739.659 81.2274 738.955 80.0228 738.636L78.841 738.318C77.9774 738.091 76.591 737.636 76.591 736.386C76.591 735.273 77.6137 734.455 79.1592 734.455C80.5683 734.455 81.6365 735.125 81.7728 736.273Z" fill="black"/>
<path d="M89.2259 736.273H87.3623V734.182H86.0214V736.273H84.7032V737.409H86.0214V742.864C86.0214 744.386 87.2487 745.114 88.385 745.114C88.885 745.114 89.2032 745.023 89.385 744.955L89.1123 743.75C88.9987 743.773 88.8169 743.818 88.5214 743.818C87.9305 743.818 87.3623 743.636 87.3623 742.5V737.409H89.2259V736.273Z" fill="black"/>
<path d="M91.243 745H92.5839V739.477C92.5839 738.295 93.5157 737.432 94.7884 737.432C95.1464 737.432 95.5157 737.5 95.6066 737.523V736.159C95.4532 736.148 95.1009 736.136 94.9021 736.136C93.8566 736.136 92.9475 736.727 92.6294 737.591H92.5384V736.273H91.243V745Z" fill="black"/>
<path d="M99.7643 745.205C101.287 745.205 102.082 744.386 102.355 743.818H102.423V745H103.764V739.25C103.764 736.477 101.651 736.159 100.537 736.159C99.2188 736.159 97.7188 736.614 97.037 738.205L98.3097 738.659C98.6052 738.023 99.3041 737.341 100.582 737.341C101.815 737.341 102.423 737.994 102.423 739.114V739.159C102.423 739.807 101.764 739.75 100.173 739.955C98.5541 740.165 96.787 740.523 96.787 742.523C96.787 744.227 98.1052 745.205 99.7643 745.205ZM99.9688 744C98.9007 744 98.1279 743.523 98.1279 742.591C98.1279 741.568 99.0597 741.25 100.105 741.114C100.673 741.045 102.196 740.886 102.423 740.614V741.841C102.423 742.932 101.56 744 99.9688 744Z" fill="black"/>
<path d="M110.007 736.273H108.144V734.182H106.803V736.273H105.484V737.409H106.803V742.864C106.803 744.386 108.03 745.114 109.166 745.114C109.666 745.114 109.984 745.023 110.166 744.955L109.894 743.75C109.78 743.773 109.598 743.818 109.303 743.818C108.712 743.818 108.144 743.636 108.144 742.5V737.409H110.007V736.273Z" fill="black"/>
<path d="M115.59 745.182C117.362 745.182 118.658 744.295 119.067 742.977L117.771 742.614C117.43 743.523 116.641 743.977 115.59 743.977C114.016 743.977 112.93 742.96 112.868 741.091H119.203V740.523C119.203 737.273 117.271 736.159 115.453 736.159C113.09 736.159 111.521 738.023 111.521 740.705C111.521 743.386 113.067 745.182 115.59 745.182ZM112.868 739.932C112.959 738.574 113.919 737.364 115.453 737.364C116.908 737.364 117.84 738.455 117.84 739.932H112.868Z" fill="black"/>
<path d="M124.766 748.455C126.857 748.455 128.538 747.5 128.538 745.25V736.273H127.243V737.659H127.107C126.811 737.205 126.266 736.159 124.561 736.159C122.357 736.159 120.834 737.909 120.834 740.591C120.834 743.318 122.425 744.864 124.538 744.864C126.243 744.864 126.788 743.864 127.084 743.386H127.198V745.159C127.198 746.614 126.175 747.273 124.766 747.273C123.18 747.273 122.624 746.438 122.266 745.955L121.198 746.705C121.743 747.619 122.817 748.455 124.766 748.455ZM124.72 743.659C123.038 743.659 122.175 742.386 122.175 740.568C122.175 738.795 123.016 737.364 124.72 737.364C126.357 737.364 127.22 738.682 127.22 740.568C127.22 742.5 126.334 743.659 124.72 743.659Z" fill="black"/>
<path d="M130.993 745H132.334V736.273H130.993V745ZM131.675 734.818C132.198 734.818 132.629 734.409 132.629 733.909C132.629 733.409 132.198 733 131.675 733C131.152 733 130.72 733.409 130.72 733.909C130.72 734.409 131.152 734.818 131.675 734.818Z" fill="black"/>
<path d="M138.335 745.182C140.267 745.182 141.54 744 141.767 742.455H140.426C140.176 743.409 139.381 743.977 138.335 743.977C136.744 743.977 135.722 742.659 135.722 740.636C135.722 738.659 136.767 737.364 138.335 737.364C139.517 737.364 140.222 738.091 140.426 738.886H141.767C141.54 737.25 140.153 736.159 138.313 736.159C135.949 736.159 134.381 738.023 134.381 740.682C134.381 743.295 135.881 745.182 138.335 745.182Z" fill="black"/>
<path d="M260.51 732.909H258.254L255 734.999V737.173L258.062 735.217H258.138V746H260.51V732.909Z" fill="black"/>
<path d="M268.673 746.249C271.83 746.256 273.716 743.763 273.716 739.467C273.716 735.197 271.817 732.73 268.673 732.73C265.528 732.73 263.636 735.191 263.629 739.467C263.629 743.756 265.515 746.249 268.673 746.249ZM268.673 744.249C267.043 744.249 266.02 742.612 266.026 739.467C266.033 736.348 267.049 734.705 268.673 734.705C270.303 734.705 271.319 736.348 271.325 739.467C271.325 742.612 270.309 744.249 268.673 744.249Z" fill="black"/>
<path d="M276.781 746.141C277.535 746.141 278.181 745.514 278.187 744.734C278.181 743.967 277.535 743.341 276.781 743.341C276.001 743.341 275.368 743.967 275.375 744.734C275.368 745.514 276.001 746.141 276.781 746.141Z" fill="black"/>
<path d="M284.258 732.909H282.002L278.748 734.999V737.173L281.81 735.217H281.887V746H284.258V732.909Z" fill="black"/>
<path d="M292.421 746.249C295.578 746.256 297.464 743.763 297.464 739.467C297.464 735.197 295.566 732.73 292.421 732.73C289.276 732.73 287.384 735.191 287.377 739.467C287.377 743.756 289.263 746.249 292.421 746.249ZM292.421 744.249C290.791 744.249 289.768 742.612 289.774 739.467C289.781 736.348 290.797 734.705 292.421 734.705C294.051 734.705 295.067 736.348 295.073 739.467C295.073 742.612 294.057 744.249 292.421 744.249Z" fill="black"/>
<path d="M306.587 743.545C306.593 745.067 307.559 746.364 309.355 746.364C311.145 746.364 312.129 745.067 312.123 743.545V742.855C312.129 741.321 311.17 740.036 309.355 740.036C307.584 740.036 306.593 741.334 306.587 742.855V743.545ZM299.933 736.054C299.939 737.575 300.904 738.86 302.707 738.86C304.49 738.86 305.475 737.588 305.468 736.054V735.364C305.475 733.829 304.516 732.545 302.707 732.545C300.943 732.545 299.939 733.829 299.933 735.364V736.054ZM300.508 746H302.113L311.113 732.909H309.508L300.508 746ZM308.255 742.855C308.262 742.177 308.549 741.494 309.355 741.494C310.199 741.494 310.448 742.177 310.441 742.855V743.545C310.448 744.223 310.173 744.894 309.355 744.894C308.537 744.894 308.262 744.217 308.255 743.545V742.855ZM301.614 735.364C301.62 734.692 301.895 734.002 302.707 734.002C303.551 734.002 303.794 734.686 303.787 735.364V736.054C303.794 736.731 303.525 737.403 302.707 737.403C301.889 737.403 301.62 736.731 301.614 736.054V735.364Z" fill="black"/>
<path d="M81.7728 786.273H83.1365C83.074 784.517 81.4546 783.205 79.2046 783.205C76.9774 783.205 75.2274 784.5 75.2274 786.455C75.2274 788.023 76.3637 788.955 78.1819 789.477L79.6137 789.886C80.841 790.227 81.9319 790.659 81.9319 791.818C81.9319 793.091 80.7046 793.932 79.091 793.932C77.7046 793.932 76.4774 793.318 76.3637 792H74.9092C75.0455 793.909 76.591 795.205 79.091 795.205C81.7728 795.205 83.2955 793.727 83.2955 791.841C83.2955 789.659 81.2274 788.955 80.0228 788.636L78.841 788.318C77.9774 788.091 76.591 787.636 76.591 786.386C76.591 785.273 77.6137 784.455 79.1592 784.455C80.5683 784.455 81.6365 785.125 81.7728 786.273Z" fill="black"/>
<path d="M89.0896 795.182C90.8623 795.182 92.1578 794.295 92.5669 792.977L91.2714 792.614C90.9305 793.523 90.1407 793.977 89.0896 793.977C87.5157 793.977 86.4305 792.96 86.368 791.091H92.7032V790.523C92.7032 787.273 90.7714 786.159 88.9532 786.159C86.5896 786.159 85.0214 788.023 85.0214 790.705C85.0214 793.386 86.5669 795.182 89.0896 795.182ZM86.368 789.932C86.4589 788.574 87.4191 787.364 88.9532 787.364C90.4078 787.364 91.3396 788.455 91.3396 789.932H86.368Z" fill="black"/>
<path d="M98.4021 795.182C100.175 795.182 101.47 794.295 101.879 792.977L100.584 792.614C100.243 793.523 99.4532 793.977 98.4021 793.977C96.8282 793.977 95.743 792.96 95.6805 791.091H102.016V790.523C102.016 787.273 100.084 786.159 98.2657 786.159C95.9021 786.159 94.3339 788.023 94.3339 790.705C94.3339 793.386 95.8794 795.182 98.4021 795.182ZM95.6805 789.932C95.7714 788.574 96.7316 787.364 98.2657 787.364C99.7203 787.364 100.652 788.455 100.652 789.932H95.6805Z" fill="black"/>
<path d="M107.351 795.182C109.033 795.182 109.601 794.136 109.896 793.659H110.055V795H111.351V783.364H110.01V787.659H109.896C109.601 787.205 109.078 786.159 107.374 786.159C105.169 786.159 103.646 787.909 103.646 790.659C103.646 793.432 105.169 795.182 107.351 795.182ZM107.533 793.977C105.851 793.977 104.987 792.5 104.987 790.636C104.987 788.796 105.828 787.364 107.533 787.364C109.169 787.364 110.033 788.682 110.033 790.636C110.033 792.614 109.146 793.977 107.533 793.977Z" fill="black"/>
<path d="M260.51 782.909H258.254L255 784.999V787.173L258.062 785.217H258.138V796H260.51V782.909Z" fill="black"/>
<path d="M268.673 796.249C271.83 796.256 273.716 793.763 273.716 789.467C273.716 785.197 271.817 782.73 268.673 782.73C265.528 782.73 263.636 785.191 263.629 789.467C263.629 793.756 265.515 796.249 268.673 796.249ZM268.673 794.249C267.043 794.249 266.02 792.612 266.026 789.467C266.033 786.348 267.049 784.705 268.673 784.705C270.303 784.705 271.319 786.348 271.325 789.467C271.325 792.612 270.309 794.249 268.673 794.249Z" fill="black"/>
<path d="M276.781 796.141C277.535 796.141 278.181 795.514 278.187 794.734C278.181 793.967 277.535 793.341 276.781 793.341C276.001 793.341 275.368 793.967 275.375 794.734C275.368 795.514 276.001 796.141 276.781 796.141Z" fill="black"/>
<path d="M280.551 796H289.525V794.018H283.823V793.929L286.08 791.634C288.624 789.192 289.327 788.003 289.327 786.527C289.327 784.334 287.544 782.73 284.91 782.73C282.315 782.73 280.474 784.341 280.474 786.827H282.73C282.73 785.491 283.574 784.654 284.878 784.654C286.124 784.654 287.051 785.415 287.051 786.648C287.051 787.741 286.387 788.521 285.095 789.832L280.551 794.287V796Z" fill="black"/>
<path d="M296.281 796.179C299.049 796.179 300.98 794.3 300.98 791.698C300.98 789.18 299.228 787.364 296.85 787.364C295.789 787.364 294.85 787.786 294.364 788.361H294.287L294.664 784.891H300.296V782.909H292.702L292.018 789.659L294.159 790.011C294.6 789.525 295.431 789.199 296.218 789.205C297.656 789.212 298.691 790.273 298.685 791.756C298.691 793.219 297.681 794.261 296.281 794.261C295.099 794.261 294.146 793.513 294.063 792.44H291.762C291.826 794.613 293.725 796.179 296.281 796.179Z" fill="black"/>
<path d="M310.12 793.545C310.127 795.067 311.092 796.364 312.888 796.364C314.678 796.364 315.662 795.067 315.656 793.545V792.855C315.662 791.321 314.703 790.036 312.888 790.036C311.117 790.036 310.127 791.334 310.12 792.855V793.545ZM303.466 786.054C303.472 787.575 304.438 788.86 306.24 788.86C308.024 788.86 309.008 787.588 309.002 786.054V785.364C309.008 783.829 308.049 782.545 306.24 782.545C304.476 782.545 303.472 783.829 303.466 785.364V786.054ZM304.041 796H305.646L314.646 782.909H313.041L304.041 796ZM311.789 792.855C311.795 792.177 312.083 791.494 312.888 791.494C313.732 791.494 313.981 792.177 313.975 792.855V793.545C313.981 794.223 313.706 794.894 312.888 794.894C312.07 794.894 311.795 794.217 311.789 793.545V792.855ZM305.147 785.364C305.154 784.692 305.428 784.002 306.24 784.002C307.084 784.002 307.327 784.686 307.32 785.364V786.054C307.327 786.731 307.058 787.403 306.24 787.403C305.422 787.403 305.154 786.731 305.147 786.054V785.364Z" fill="black"/>
<path d="M38 566H8C3.58172 566 0 569.582 0 574V604C0 608.418 3.58172 612 8 612H38C42.4183 612 46 608.418 46 604V574C46 569.582 42.4183 566 38 566Z" fill="#16308C"/>
<path d="M38 616H8C3.58172 616 0 619.582 0 624V654C0 658.418 3.58172 662 8 662H38C42.4183 662 46 658.418 46 654V624C46 619.582 42.4183 616 38 616Z" fill="#4F74F9"/>
<path d="M38 666H8C3.58172 666 0 669.582 0 674V704C0 708.418 3.58172 712 8 712H38C42.4183 712 46 708.418 46 704V674C46 669.582 42.4183 666 38 666Z" fill="#304FFE"/>
<path d="M38 716H8C3.58172 716 0 719.582 0 724V754C0 758.418 3.58172 762 8 762H38C42.4183 762 46 758.418 46 754V724C46 719.582 42.4183 716 38 716Z" fill="#3856C2"/>
<path d="M38 766H8C3.58172 766 0 769.582 0 774V804C0 808.418 3.58172 812 8 812H38C42.4183 812 46 808.418 46 804V774C46 769.582 42.4183 766 38 766Z" fill="#29C4DA"/>
<defs>
<clipPath id="clip0">
<rect width="280" height="280" fill="white" transform="translate(13)"/>
</clipPath>
</defs>
</svg>
