<svg width="991" height="288" viewBox="0 0 991 288" fill="none" xmlns="http://www.w3.org/2000/svg">
<g clip-path="url(#clip0)">
<path d="M54.2584 117.267C54.1485 117.267 54.0605 117.179 54.0605 117.069C54.0605 116.959 54.1485 116.871 54.2584 116.871C54.3683 116.871 54.4563 116.959 54.4563 117.069C54.4343 117.201 54.3463 117.267 54.2584 117.267C54.3683 117.267 54.4563 117.179 54.4563 117.069C54.4563 116.959 54.3683 116.871 54.2584 116.871C54.1485 116.871 54.0605 116.959 54.0605 117.069C54.0605 117.201 54.1485 117.267 54.2584 117.267Z" fill="black"/>
<path d="M54.2584 117.267C54.1485 117.267 54.0605 117.179 54.0605 117.069C54.0605 116.959 54.1485 116.871 54.2584 116.871C54.3683 116.871 54.4563 116.959 54.4563 117.069C54.4343 117.201 54.3463 117.267 54.2584 117.267ZM54.2584 117.267C54.3683 117.267 54.4563 117.179 54.4563 117.069C54.4563 116.959 54.3683 116.871 54.2584 116.871C54.1485 116.871 54.0605 116.959 54.0605 117.069C54.0605 117.201 54.1485 117.267 54.2584 117.267Z" stroke="black" stroke-width="0.5" stroke-miterlimit="10"/>
<path d="M143.912 143.736L99.5029 7.07882C114.606 2.17622 128.039 0.0437012 143.912 0.0437012V143.736Z" fill="#7F96E7"/>
<path fill-rule="evenodd" clip-rule="evenodd" d="M100.133 7.40064L143.412 140.579V0.544411C127.975 0.588365 114.835 2.67428 100.133 7.40064ZM99.3483 6.60324C114.501 1.68452 127.986 -0.456299 143.912 -0.456299H144.412V143.736L143.436 143.89L98.8726 6.75767L99.3483 6.60324Z" fill="#E9ECF9"/>
<path d="M143.978 144.088L99.437 7.0571L99.481 7.03511C114.65 2.11053 127.951 0 143.89 0H143.934V144.088H143.978ZM99.5689 7.12305L143.846 143.406V0.109924C127.951 0.109924 114.694 2.22046 99.5689 7.12305Z" fill="#7F96E7"/>
<path fill-rule="evenodd" clip-rule="evenodd" d="M100.199 7.44508L143.346 140.249V0.610625C127.892 0.654074 114.92 2.71891 100.199 7.44508ZM144.434 143.873V-0.5H143.89C127.899 -0.5 114.546 1.61882 99.3268 6.55955L99.2911 6.57113L98.8286 6.80235L143.434 144.032V144.588H144.666L144.434 143.873Z" fill="#E9ECF9"/>
<path d="M143.912 143.736L59.4463 27.5024C72.2854 18.1589 84.421 11.9812 99.5025 7.07861L143.912 143.736Z" fill="#29C4DA"/>
<path fill-rule="evenodd" clip-rule="evenodd" d="M99.8234 6.44849L144.387 143.581L143.507 144.03L58.748 27.3921L59.152 27.0981C72.0338 17.7235 84.2166 11.5219 99.3479 6.60308L99.8234 6.44849ZM60.1449 27.6132L142.461 140.888L99.1817 7.70935C84.5276 12.5191 72.657 18.5623 60.1449 27.6132Z" fill="#E9ECF9"/>
<path d="M144.066 144.066L143.868 143.78L59.3809 27.4809L59.4248 27.4589C72.3299 18.0714 84.3115 11.9597 99.503 7.03511L99.547 7.01312L99.569 7.05709L144.066 144.066ZM59.5347 27.5029L143.758 143.428L99.481 7.16702C84.3555 12.0696 72.3958 18.1594 59.5347 27.5029Z" fill="#29C4DA"/>
<path fill-rule="evenodd" clip-rule="evenodd" d="M99.7703 6.34229L100.033 6.86699L144.541 143.911L143.655 144.351L143.463 144.074L143.457 144.065L58.6294 27.2975L59.164 27.0302C72.0886 17.633 84.1012 11.5057 99.3128 6.57108L99.7703 6.34229ZM142.307 140.58L99.1599 7.79737C84.4667 12.6053 72.7636 18.5644 60.2333 27.6141L142.307 140.58Z" fill="#E9ECF9"/>
<path d="M143.912 143.736L17.0381 76.2866C27.4808 56.6762 41.4631 40.5614 59.4466 27.5024L143.912 143.736Z" fill="#07AEC5"/>
<path fill-rule="evenodd" clip-rule="evenodd" d="M59.557 26.8041L144.316 143.442L143.677 144.177L16.3613 76.4932L16.5965 76.0515C27.0747 56.3745 41.1073 40.2016 59.1526 27.0978L59.557 26.8041ZM17.715 76.0803L142.234 142.278L59.3362 28.2013C41.7435 41.0645 28.0179 56.8826 17.715 76.0803Z" fill="#E9ECF9"/>
<path d="M144.088 143.912L16.9722 76.309L16.9942 76.265C22.1826 66.5038 28.3822 57.4681 35.3734 49.3997C42.3865 41.3313 50.4769 33.9664 59.4247 27.4589L59.4687 27.437L144.088 143.912ZM17.1041 76.265L143.714 143.582L59.4467 27.5689C50.5209 34.0544 42.4525 41.4192 35.4613 49.4656C28.4702 57.5121 22.2925 66.5258 17.1041 76.265Z" fill="#07AEC5"/>
<path fill-rule="evenodd" clip-rule="evenodd" d="M59.6243 26.8002L144.493 143.618L143.853 144.353L16.3071 76.5215L16.5527 76.0303C21.7585 66.2364 27.9796 57.1696 34.9957 49.0723C42.0349 40.974 50.154 33.5832 59.1308 27.0546L59.1643 27.0302L59.6243 26.8002ZM142.037 142.124L59.3368 28.268C50.601 34.6601 42.6988 41.8983 35.839 49.7936C28.979 57.689 22.9038 66.5208 17.7816 76.0589L142.037 142.124Z" fill="#E9ECF9"/>
<path d="M143.912 143.736L1.62663 163.742C-2.7923 132.304 2.15426 104.317 17.0379 76.2866L143.912 143.736Z" fill="#0380A8"/>
<path fill-rule="evenodd" clip-rule="evenodd" d="M16.8309 75.6102L145.505 144.017L1.20108 164.307L1.13148 163.811C-3.30217 132.269 1.66327 104.176 16.5963 76.0521L16.8309 75.6102ZM17.2456 76.9632C2.67114 104.606 -2.20752 132.21 2.05287 163.177L142.318 143.455L17.2456 76.9632Z" fill="#E9ECF9"/>
<path d="M1.58292 163.808V163.764C-0.659523 147.891 -0.50563 133.162 2.02261 118.74C4.57284 104.318 9.45345 90.4232 16.9942 76.265L17.0162 76.2211L17.0602 76.243L144.088 143.78L143.912 143.802L1.58292 163.808ZM17.0602 76.353C9.56338 90.4892 4.68277 104.34 2.13254 118.74C-0.417691 133.14 -0.5496 147.847 1.67086 163.676L143.736 143.714L17.0602 76.353Z" fill="#0380A8"/>
<path fill-rule="evenodd" clip-rule="evenodd" d="M16.7926 75.5503L17.295 75.8014L145.718 144.08L143.982 144.297L143.974 144.298L1.08292 164.383V163.799C-1.16107 147.892 -1.00608 133.121 1.53012 118.653C4.08989 104.177 8.98823 90.2343 16.5499 76.0357L16.7926 75.5503ZM142.143 143.433L17.268 77.0298C9.92567 90.9707 5.13859 104.633 2.62488 118.827C0.111326 133.02 -0.0448754 147.518 2.09724 163.112L142.143 143.433Z" fill="#E9ECF9"/>
<path d="M143.912 143.736L76.4625 270.61C34.4057 248.273 8.24387 210.899 1.62646 163.742L143.912 143.736Z" fill="#2443AE"/>
<path fill-rule="evenodd" clip-rule="evenodd" d="M144.814 143.104L76.6695 271.286L76.2281 271.051C34.0298 248.64 7.77112 211.127 1.13148 163.812L1.06201 163.317L144.814 143.104ZM2.19199 164.167C8.8766 210.768 34.7459 247.724 76.2561 269.933L143.01 144.368L2.19199 164.167Z" fill="#E9ECF9"/>
<path d="M76.485 270.698L76.441 270.676C55.5116 259.552 38.4514 244.69 25.7223 226.531C12.9931 208.349 4.85874 187.222 1.56104 163.742V163.698H1.605L144 143.692L143.956 143.78L76.485 270.698ZM1.67096 163.786C4.96867 187.222 13.081 208.305 25.7882 226.443C38.4954 244.58 55.5336 259.42 76.419 270.544L143.802 143.824L1.67096 163.786Z" fill="#2443AE"/>
<path fill-rule="evenodd" clip-rule="evenodd" d="M144.873 143.065L144.398 144.015L76.6975 271.364L76.2063 271.118C55.2119 259.959 38.0902 245.046 25.3128 226.818C12.5354 208.567 4.37383 187.364 1.06589 163.812L1.06104 163.777V163.198H1.57006L144.873 143.065ZM2.23652 164.212C5.56812 187.377 13.6284 208.215 26.1977 226.156C38.7671 244.097 55.5932 258.804 76.2128 269.867L142.9 144.456L2.23652 164.212Z" fill="#E9ECF9"/>
<path d="M143.912 143.736L92.4233 277.887C86.4874 275.623 82.0685 273.6 76.4624 270.61L143.912 143.736Z" fill="#16308C"/>
<path fill-rule="evenodd" clip-rule="evenodd" d="M77.1387 270.403C82.3736 273.179 86.6068 275.115 92.1357 277.241L140.515 151.19L77.1387 270.403ZM143.47 143.502L144.378 143.915L92.7114 278.532L92.2452 278.354C86.2892 276.082 81.8513 274.051 76.2272 271.051L75.7866 270.816L143.47 143.502Z" fill="#E9ECF9"/>
<path d="M92.4458 277.975L92.4019 277.953C86.488 275.689 82.0251 273.644 76.4409 270.676L76.397 270.654L76.419 270.61L143.868 143.736L143.978 143.78L92.4458 277.975ZM76.5289 270.588C82.069 273.534 86.5319 275.557 92.3799 277.821L143.538 144.572L76.5289 270.588Z" fill="#16308C"/>
<path fill-rule="evenodd" clip-rule="evenodd" d="M143.637 143.105L144.622 143.499L92.7151 278.669L92.2002 278.411C86.2798 276.143 81.8036 274.092 76.2119 271.121L75.7261 270.878L75.9773 270.375L143.637 143.105ZM140.141 152.026L77.2054 270.381C82.3776 273.113 86.6446 275.048 92.093 277.173L140.141 152.026Z" fill="#E9ECF9"/>
<path d="M143.912 143.736L222.177 264.256C182.253 290.198 136.876 294.947 92.4233 277.886L143.912 143.736Z" fill="#4F74F9"/>
<path fill-rule="evenodd" clip-rule="evenodd" d="M143.796 142.64L222.869 264.403L222.45 264.675C182.391 290.705 136.847 295.471 92.2442 278.353L91.7773 278.174L143.796 142.64ZM144.027 144.831L93.0695 277.598C137.068 294.33 181.937 289.634 221.485 264.108L144.027 144.831Z" fill="#E9ECF9"/>
<path d="M144.857 288C127.402 288 109.814 284.636 92.4019 277.953L92.3579 277.931L92.3799 277.887L143.912 143.648L143.978 143.736L222.266 264.3L222.222 264.322C202.348 277.228 181.066 284.944 159.016 287.275C154.289 287.758 149.584 288 144.857 288ZM92.4898 277.865C114.584 286.329 136.965 289.451 158.994 287.143C181.022 284.834 202.26 277.118 222.112 264.235L143.934 143.868L92.4898 277.865Z" fill="#4F74F9"/>
<path fill-rule="evenodd" clip-rule="evenodd" d="M143.769 142.625L144.388 143.45L222.99 264.497L222.47 264.757C202.541 277.693 181.193 285.433 159.068 287.772L159.066 287.772C154.323 288.257 149.601 288.5 144.857 288.5C127.336 288.5 109.688 285.124 92.2226 278.42L92.1998 278.411L91.687 278.154L91.9217 277.685L143.769 142.625ZM221.419 264.087L144.049 144.963L93.1361 277.576C115.01 285.88 137.152 288.929 158.941 286.645C180.731 284.362 201.749 276.767 221.419 264.087Z" fill="#E9ECF9"/>
<path d="M143.912 143.736L281.316 101.723C300.487 164.401 277.139 228.553 222.155 264.234L143.912 143.736Z" fill="#304FFE"/>
<path fill-rule="evenodd" clip-rule="evenodd" d="M281.648 101.099L281.794 101.577C301.03 164.468 277.598 228.851 222.427 264.653L222.008 264.926L143.131 143.452L281.648 101.099ZM144.692 144.02L222.302 263.542C276.659 228.02 299.776 164.501 280.983 102.347L144.692 144.02Z" fill="#E9ECF9"/>
<path d="M222.156 264.322L222.134 264.278L143.824 143.714L143.89 143.692L281.361 101.657L281.383 101.701C286.109 117.135 288.308 132.898 287.956 148.529C287.604 163.852 284.79 178.846 279.602 193.114C274.414 207.382 266.917 220.661 257.353 232.62C247.57 244.822 235.764 255.485 222.2 264.278L222.156 264.322ZM144 143.78L222.2 264.19C235.72 255.397 247.504 244.778 257.265 232.598C266.829 220.639 274.326 207.36 279.514 193.114C284.702 178.868 287.516 163.874 287.868 148.573C288.22 132.964 286.021 117.245 281.317 101.833L144 143.78Z" fill="#304FFE"/>
<path d="M143.911 143.736L228.376 27.4805C254.318 46.3214 271.95 71.0542 281.338 101.723L143.911 143.736Z" fill="#3856C2" stroke="#E9ECF9"/>
<path d="M143.78 143.846L143.868 143.714L228.356 27.415L228.4 27.437C241.305 36.8244 252.319 47.8168 261.091 60.1283C269.885 72.4397 276.7 86.422 281.361 101.701L281.383 101.745L143.78 143.846ZM228.378 27.5689L144.044 143.648L281.251 101.701C276.59 86.466 269.775 72.5057 261.003 60.2162C252.253 47.9267 241.261 36.9344 228.378 27.5689Z" fill="#3856C2" stroke="#E9ECF9"/>
<path d="M143.913 143.737V0.0447998C176.45 0.0447998 202.041 8.35503 228.378 27.4818L143.913 143.737Z" fill="#6B55EE"/>
<path fill-rule="evenodd" clip-rule="evenodd" d="M143.413 -0.4552H143.913C176.556 -0.4552 202.249 7.88844 228.672 27.0772L229.077 27.371L143.413 145.276V-0.4552ZM144.413 0.545457V142.198L227.68 27.593C201.705 8.8342 176.441 0.629809 144.413 0.545457Z" fill="#E9ECF9"/>
<path d="M143.868 143.912V0H143.912C160.335 0 174.911 2.13252 188.497 6.55145C202.062 10.9704 215.121 17.8076 228.421 27.4589L228.465 27.4809L143.868 143.912ZM143.978 0.109924V143.582L228.312 27.5249C215.055 17.8956 202.018 11.0803 188.475 6.66137C174.933 2.24244 160.357 0.109924 143.978 0.109924Z" fill="#6B55EE"/>
<path fill-rule="evenodd" clip-rule="evenodd" d="M143.368 -0.5H143.912C160.379 -0.5 175.008 1.63848 188.652 6.07597C202.262 10.5096 215.357 17.3654 228.682 27.0301L229.217 27.2976L143.368 145.451V-0.5ZM227.613 27.6361C214.532 18.1881 201.669 11.4924 188.32 7.13671C174.973 2.78144 160.609 0.653607 144.478 0.61059V142.044L227.613 27.6361Z" fill="#E9ECF9"/>
</g>
<g style="mix-blend-mode:multiply" opacity="0.19">
<circle cx="144" cy="144" r="61.377" fill="#19234D"/>
</g>
<circle cx="144" cy="144" r="56.6557" fill="#E9ECF9"/>
<path d="M467.409 29H468.818V24.75H471.364C474.074 24.75 475.296 23.1023 475.296 21.0455C475.296 18.9886 474.074 17.3636 471.341 17.3636H467.409V29ZM468.818 23.5V18.6136H471.296C473.188 18.6136 473.909 19.6477 473.909 21.0455C473.909 22.4432 473.188 23.5 471.318 23.5H468.818Z" fill="black"/>
<path d="M482.884 25.4318C482.884 27.0682 481.634 27.8182 480.634 27.8182C479.52 27.8182 478.725 27 478.725 25.7273V20.2727H477.384V25.8182C477.384 28.0455 478.565 29.1136 480.202 29.1136C481.52 29.1136 482.384 28.4091 482.793 27.5227H482.884V29H484.225V20.2727H482.884V25.4318Z" fill="black"/>
<path d="M486.862 29H488.158V27.6591H488.317C488.612 28.1364 489.18 29.1818 490.862 29.1818C493.044 29.1818 494.567 27.4318 494.567 24.6591C494.567 21.9091 493.044 20.1591 490.84 20.1591C489.135 20.1591 488.612 21.2045 488.317 21.6591H488.203V17.3636H486.862V29ZM488.18 24.6364C488.18 22.6818 489.044 21.3636 490.68 21.3636C492.385 21.3636 493.226 22.7955 493.226 24.6364C493.226 26.5 492.362 27.9773 490.68 27.9773C489.067 27.9773 488.18 26.6136 488.18 24.6364Z" fill="black"/>
<path d="M497.959 17.3636H496.618V29H497.959V17.3636Z" fill="black"/>
<path d="M500.415 29H501.756V20.2727H500.415V29ZM501.097 18.8182C501.619 18.8182 502.051 18.4091 502.051 17.9091C502.051 17.4091 501.619 17 501.097 17C500.574 17 500.142 17.4091 500.142 17.9091C500.142 18.4091 500.574 18.8182 501.097 18.8182Z" fill="black"/>
<path d="M507.757 29.1818C509.689 29.1818 510.962 28 511.189 26.4545H509.848C509.598 27.4091 508.803 27.9773 507.757 27.9773C506.166 27.9773 505.144 26.6591 505.144 24.6364C505.144 22.6591 506.189 21.3636 507.757 21.3636C508.939 21.3636 509.644 22.0909 509.848 22.8864H511.189C510.962 21.25 509.575 20.1591 507.734 20.1591C505.371 20.1591 503.803 22.0227 503.803 24.6818C503.803 27.2955 505.303 29.1818 507.757 29.1818Z" fill="black"/>
<path d="M611.714 30.1789C614.482 30.1789 616.413 28.2997 616.413 25.6981C616.413 23.1796 614.661 21.3643 612.283 21.3643C611.222 21.3643 610.283 21.7862 609.797 22.3614H609.72L610.097 18.8906H615.729V16.909H608.135L607.451 23.659L609.592 24.0106C610.033 23.5248 610.864 23.1988 611.651 23.2052C613.089 23.2116 614.124 24.2727 614.118 25.7556C614.124 27.2194 613.114 28.2613 611.714 28.2613C610.532 28.2613 609.58 27.5134 609.496 26.4396H607.195C607.259 28.6129 609.158 30.1789 611.714 30.1789Z" fill="black"/>
<path d="M625.553 27.5454C625.56 29.0667 626.525 30.3643 628.321 30.3643C630.111 30.3643 631.095 29.0667 631.089 27.5454V26.855C631.095 25.321 630.136 24.0362 628.321 24.0362C626.55 24.0362 625.56 25.3337 625.553 26.855V27.5454ZM618.899 20.0539C618.906 21.5752 619.871 22.86 621.673 22.86C623.457 22.86 624.441 21.588 624.435 20.0539V19.3636C624.441 17.8295 623.482 16.5447 621.673 16.5447C619.909 16.5447 618.906 17.8295 618.899 19.3636V20.0539ZM619.474 29.9999H621.079L630.079 16.909H628.474L619.474 29.9999ZM627.222 26.855C627.228 26.1775 627.516 25.4935 628.321 25.4935C629.165 25.4935 629.414 26.1775 629.408 26.855V27.5454C629.414 28.2229 629.139 28.8941 628.321 28.8941C627.503 28.8941 627.228 28.2166 627.222 27.5454V26.855ZM620.58 19.3636C620.587 18.6924 620.862 18.0021 621.673 18.0021C622.517 18.0021 622.76 18.686 622.754 19.3636V20.0539C622.76 20.7315 622.491 21.4026 621.673 21.4026C620.855 21.4026 620.587 20.7315 620.58 20.0539V19.3636Z" fill="black"/>
<path d="M817.886 29L819.057 25.7045H823.761L824.932 29H826.409L822.136 17.3636H820.682L816.409 29H817.886ZM819.5 24.4545L821.364 19.2045H821.455L823.318 24.4545H819.5Z" fill="black"/>
<path d="M831.335 29.1818C833.017 29.1818 833.585 28.1364 833.881 27.6591H834.04V29H835.335V17.3636H833.994V21.6591H833.881C833.585 21.2045 833.063 20.1591 831.358 20.1591C829.153 20.1591 827.631 21.9091 827.631 24.6591C827.631 27.4318 829.153 29.1818 831.335 29.1818ZM831.517 27.9773C829.835 27.9773 828.972 26.5 828.972 24.6364C828.972 22.7955 829.813 21.3636 831.517 21.3636C833.153 21.3636 834.017 22.6818 834.017 24.6364C834.017 26.6136 833.131 27.9773 831.517 27.9773Z" fill="black"/>
<path d="M845.114 20.2727H843.659L841.25 27.2273H841.159L838.75 20.2727H837.296L840.523 29H841.886L845.114 20.2727Z" fill="black"/>
<path d="M846.884 29H848.225V20.2727H846.884V29ZM847.565 18.8182C848.088 18.8182 848.52 18.4091 848.52 17.9091C848.52 17.4091 848.088 17 847.565 17C847.043 17 846.611 17.4091 846.611 17.9091C846.611 18.4091 847.043 18.8182 847.565 18.8182Z" fill="black"/>
<path d="M856.862 22.2273C856.442 20.9886 855.499 20.1591 853.771 20.1591C851.93 20.1591 850.567 21.2045 850.567 22.6818C850.567 23.8864 851.283 24.6932 852.885 25.0682L854.34 25.4091C855.22 25.6136 855.635 26.0341 855.635 26.6364C855.635 27.3864 854.84 28 853.59 28C852.493 28 851.805 27.5284 851.567 26.5909L850.294 26.9091C850.607 28.392 851.828 29.1818 853.612 29.1818C855.641 29.1818 857.021 28.0739 857.021 26.5682C857.021 25.3523 856.26 24.5852 854.703 24.2045L853.408 23.8864C852.374 23.6307 851.908 23.2841 851.908 22.6136C851.908 21.8636 852.703 21.3182 853.771 21.3182C854.942 21.3182 855.425 21.9659 855.658 22.5682L856.862 22.2273Z" fill="black"/>
<path d="M862.585 29.1818C864.949 29.1818 866.54 27.3864 866.54 24.6818C866.54 21.9545 864.949 20.1591 862.585 20.1591C860.222 20.1591 858.631 21.9545 858.631 24.6818C858.631 27.3864 860.222 29.1818 862.585 29.1818ZM862.585 27.9773C860.79 27.9773 859.972 26.4318 859.972 24.6818C859.972 22.9318 860.79 21.3636 862.585 21.3636C864.381 21.3636 865.199 22.9318 865.199 24.6818C865.199 26.4318 864.381 27.9773 862.585 27.9773Z" fill="black"/>
<path d="M868.587 29H869.928V23.4773C869.928 22.2955 870.859 21.4318 872.132 21.4318C872.49 21.4318 872.859 21.5 872.95 21.5227V20.1591C872.797 20.1477 872.445 20.1364 872.246 20.1364C871.2 20.1364 870.291 20.7273 869.973 21.5909H869.882V20.2727H868.587V29Z" fill="black"/>
<path d="M880.722 22.2273C880.301 20.9886 879.358 20.1591 877.631 20.1591C875.79 20.1591 874.426 21.2045 874.426 22.6818C874.426 23.8864 875.142 24.6932 876.744 25.0682L878.199 25.4091C879.08 25.6136 879.494 26.0341 879.494 26.6364C879.494 27.3864 878.699 28 877.449 28C876.352 28 875.665 27.5284 875.426 26.5909L874.153 26.9091C874.466 28.392 875.688 29.1818 877.472 29.1818C879.5 29.1818 880.881 28.0739 880.881 26.5682C880.881 25.3523 880.119 24.5852 878.563 24.2045L877.267 23.8864C876.233 23.6307 875.767 23.2841 875.767 22.6136C875.767 21.8636 876.563 21.3182 877.631 21.3182C878.801 21.3182 879.284 21.9659 879.517 22.5682L880.722 22.2273Z" fill="black"/>
<path d="M927.164 29.9999H936.138V28.0184H930.436V27.9289L932.693 25.6342C935.237 23.1924 935.94 22.0035 935.94 20.5269C935.94 18.3345 934.157 16.73 931.523 16.73C928.928 16.73 927.087 18.3408 927.087 20.8274H929.343C929.343 19.4914 930.187 18.6541 931.491 18.6541C932.737 18.6541 933.664 19.4147 933.664 20.6484C933.664 21.7414 933 22.5212 931.708 23.8316L927.164 28.2869V29.9999Z" fill="black"/>
<path d="M945.343 27.5454C945.349 29.0667 946.314 30.3643 948.11 30.3643C949.9 30.3643 950.885 29.0667 950.878 27.5454V26.855C950.885 25.321 949.926 24.0362 948.11 24.0362C946.34 24.0362 945.349 25.3337 945.343 26.855V27.5454ZM938.688 20.0539C938.695 21.5752 939.66 22.86 941.463 22.86C943.246 22.86 944.23 21.588 944.224 20.0539V19.3636C944.23 17.8295 943.272 16.5447 941.463 16.5447C939.698 16.5447 938.695 17.8295 938.688 19.3636V20.0539ZM939.264 29.9999H940.868L949.868 16.909H948.264L939.264 29.9999ZM947.011 26.855C947.017 26.1775 947.305 25.4935 948.11 25.4935C948.954 25.4935 949.203 26.1775 949.197 26.855V27.5454C949.203 28.2229 948.929 28.8941 948.11 28.8941C947.292 28.8941 947.017 28.2166 947.011 27.5454V26.855ZM940.37 19.3636C940.376 18.6924 940.651 18.0021 941.463 18.0021C942.306 18.0021 942.549 18.686 942.543 19.3636V20.0539C942.549 20.7315 942.281 21.4026 941.463 21.4026C940.644 21.4026 940.376 20.7315 940.37 20.0539V19.3636Z" fill="black"/>
<path d="M467.409 89.0001H474.227V87.7501H468.818V77.3637H467.409V89.0001Z" fill="black"/>
<path d="M476.227 89.0001H477.568V80.2728H476.227V89.0001ZM476.909 78.8183C477.432 78.8183 477.864 78.4092 477.864 77.9092C477.864 77.4092 477.432 77.0001 476.909 77.0001C476.386 77.0001 475.955 77.4092 475.955 77.9092C475.955 78.4092 476.386 78.8183 476.909 78.8183Z" fill="black"/>
<path d="M487.32 92.2728V80.2728H486.024V81.6592H485.865C485.57 81.2046 485.047 80.1592 483.342 80.1592C481.138 80.1592 479.615 81.9092 479.615 84.6592C479.615 87.4319 481.138 89.1819 483.32 89.1819C485.002 89.1819 485.57 88.1365 485.865 87.6592H485.979V92.2728H487.32ZM486.002 84.6365C486.002 86.6137 485.115 87.9774 483.502 87.9774C481.82 87.9774 480.956 86.5001 480.956 84.6365C480.956 82.7955 481.797 81.3637 483.502 81.3637C485.138 81.3637 486.002 82.6819 486.002 84.6365Z" fill="black"/>
<path d="M495.274 85.4319C495.274 87.0683 494.024 87.8183 493.024 87.8183C491.911 87.8183 491.115 87.0001 491.115 85.7274V80.2728H489.774V85.8183C489.774 88.0455 490.956 89.1137 492.592 89.1137C493.911 89.1137 494.774 88.4092 495.183 87.5228H495.274V89.0001H496.615V80.2728H495.274V85.4319Z" fill="black"/>
<path d="M499.071 89.0001H500.412V80.2728H499.071V89.0001ZM499.753 78.8183C500.276 78.8183 500.707 78.4092 500.707 77.9092C500.707 77.4092 500.276 77.0001 499.753 77.0001C499.23 77.0001 498.798 77.4092 498.798 77.9092C498.798 78.4092 499.23 78.8183 499.753 78.8183Z" fill="black"/>
<path d="M506.163 89.1819C507.845 89.1819 508.413 88.1365 508.709 87.6592H508.868V89.0001H510.163V77.3637H508.823V81.6592H508.709C508.413 81.2046 507.891 80.1592 506.186 80.1592C503.982 80.1592 502.459 81.9092 502.459 84.6592C502.459 87.4319 503.982 89.1819 506.163 89.1819ZM506.345 87.9774C504.663 87.9774 503.8 86.5001 503.8 84.6365C503.8 82.7955 504.641 81.3637 506.345 81.3637C507.982 81.3637 508.845 82.6819 508.845 84.6365C508.845 86.6137 507.959 87.9774 506.345 87.9774Z" fill="black"/>
<path d="M512.805 89.0001H514.146V80.2728H512.805V89.0001ZM513.487 78.8183C514.01 78.8183 514.442 78.4092 514.442 77.9092C514.442 77.4092 514.01 77.0001 513.487 77.0001C512.965 77.0001 512.533 77.4092 512.533 77.9092C512.533 78.4092 512.965 78.8183 513.487 78.8183Z" fill="black"/>
<path d="M520.398 80.2728H518.534V78.1819H517.193V80.2728H515.875V81.4092H517.193V86.8637C517.193 88.3865 518.421 89.1137 519.557 89.1137C520.057 89.1137 520.375 89.0228 520.557 88.9546L520.284 87.7501C520.171 87.7728 519.989 87.8183 519.693 87.8183C519.102 87.8183 518.534 87.6365 518.534 86.5001V81.4092H520.398V80.2728Z" fill="black"/>
<path d="M523.278 92.2728C524.489 92.2728 525.341 91.6308 525.847 90.2728L529.563 80.2955L528.097 80.2728L525.688 87.2274H525.597L523.188 80.2728H521.733L524.96 89.0455L524.71 89.7274C524.222 91.0569 523.619 91.1819 522.642 90.9319L522.301 92.1137C522.438 92.1819 522.824 92.2728 523.278 92.2728Z" fill="black"/>
<path d="M536.314 84.091C536.314 86.9546 537.087 89.341 538.473 91.3637H539.655C538.564 89.8637 537.7 86.7955 537.7 84.091C537.7 81.3865 538.564 78.3183 539.655 76.8183H538.473C537.087 78.841 536.314 81.2274 536.314 84.091Z" fill="black"/>
<path d="M541.815 77.3637V89.0001H543.134V80.1592H543.247L546.884 89.0001H548.156L551.793 80.1592H551.906V89.0001H553.225V77.3637H551.543L547.588 87.0228H547.452L543.497 77.3637H541.815Z" fill="black"/>
<path d="M556.05 77.3637V89.0001H557.368V80.1592H557.482L561.118 89.0001H562.391L566.027 80.1592H566.141V89.0001H567.459V77.3637H565.777L561.823 87.0228H561.686L557.732 77.3637H556.05Z" fill="black"/>
<path d="M572.966 83.1819C572.966 80.3183 572.193 77.9319 570.807 75.9092H569.625C570.716 77.4092 571.58 80.4774 571.58 83.1819C571.58 85.8865 570.716 88.9546 569.625 90.4546H570.807C572.193 88.4319 572.966 86.0455 572.966 83.1819Z" fill="black"/>
<path d="M611.714 90.1789C614.482 90.1789 616.413 88.2997 616.413 85.6981C616.413 83.1796 614.661 81.3643 612.283 81.3643C611.222 81.3643 610.283 81.7862 609.797 82.3614H609.72L610.097 78.8906H615.729V76.909H608.135L607.451 83.659L609.592 84.0106C610.033 83.5248 610.864 83.1988 611.651 83.2052C613.089 83.2116 614.124 84.2727 614.118 85.7556C614.124 87.2194 613.114 88.2613 611.714 88.2613C610.532 88.2613 609.58 87.5134 609.496 86.4396H607.195C607.259 88.6129 609.158 90.1789 611.714 90.1789Z" fill="black"/>
<path d="M625.553 87.5454C625.56 89.0667 626.525 90.3643 628.321 90.3643C630.111 90.3643 631.095 89.0667 631.089 87.5454V86.855C631.095 85.321 630.136 84.0362 628.321 84.0362C626.55 84.0362 625.56 85.3337 625.553 86.855V87.5454ZM618.899 80.0539C618.906 81.5752 619.871 82.86 621.673 82.86C623.457 82.86 624.441 81.588 624.435 80.0539V79.3636C624.441 77.8295 623.482 76.5447 621.673 76.5447C619.909 76.5447 618.906 77.8295 618.899 79.3636V80.0539ZM619.474 89.9999H621.079L630.079 76.909H628.474L619.474 89.9999ZM627.222 86.855C627.228 86.1775 627.516 85.4935 628.321 85.4935C629.165 85.4935 629.414 86.1775 629.408 86.855V87.5454C629.414 88.2229 629.139 88.8941 628.321 88.8941C627.503 88.8941 627.228 88.2166 627.222 87.5454V86.855ZM620.58 79.3636C620.587 78.6924 620.862 78.0021 621.673 78.0021C622.517 78.0021 622.76 78.686 622.754 79.3636V80.0539C622.76 80.7315 622.491 81.4026 621.673 81.4026C620.855 81.4026 620.587 80.7315 620.58 80.0539V79.3636Z" fill="black"/>
<path d="M816.772 78.6135H820.432V88.9999H821.841V78.6135H825.5V77.3635H816.772V78.6135Z" fill="black"/>
<path d="M829.886 89.1817C831.659 89.1817 832.954 88.2953 833.363 86.9772L832.068 86.6135C831.727 87.5226 830.937 87.9772 829.886 87.9772C828.312 87.9772 827.227 86.9601 827.165 85.0908H833.5V84.5226C833.5 81.2726 831.568 80.159 829.75 80.159C827.386 80.159 825.818 82.0226 825.818 84.7044C825.818 87.3863 827.363 89.1817 829.886 89.1817ZM827.165 83.9317C827.255 82.5738 828.216 81.3635 829.75 81.3635C831.204 81.3635 832.136 82.4544 832.136 83.9317H827.165Z" fill="black"/>
<path d="M838.108 89.2044C839.63 89.2044 840.426 88.3863 840.699 87.8181H840.767V88.9999H842.108V83.2499C842.108 80.4772 839.994 80.159 838.88 80.159C837.562 80.159 836.062 80.6135 835.38 82.2044L836.653 82.659C836.949 82.0226 837.647 81.3408 838.926 81.3408C840.159 81.3408 840.767 81.9942 840.767 83.1135V83.159C840.767 83.8067 840.108 83.7499 838.517 83.9544C836.897 84.1647 835.13 84.5226 835.13 86.5226C835.13 88.2272 836.449 89.2044 838.108 89.2044ZM838.312 87.9999C837.244 87.9999 836.471 87.5226 836.471 86.5908C836.471 85.5681 837.403 85.2499 838.449 85.1135C839.017 85.0453 840.54 84.8863 840.767 84.6135V85.8408C840.767 86.9317 839.903 87.9999 838.312 87.9999Z" fill="black"/>
<path d="M844.555 88.9999H845.896V83.5453C845.896 82.2669 846.828 81.3635 847.873 81.3635C848.89 81.3635 849.601 82.0283 849.601 83.0226V88.9999H850.964V83.3181C850.964 82.1931 851.669 81.3635 852.896 81.3635C853.851 81.3635 854.669 81.8692 854.669 83.159V88.9999H856.01V83.159C856.01 81.1078 854.907 80.159 853.351 80.159C852.101 80.159 851.186 80.7328 850.737 81.6363H850.646C850.214 80.7044 849.453 80.159 848.305 80.159C847.169 80.159 846.328 80.7044 845.964 81.6363H845.851V80.2726H844.555V88.9999Z" fill="black"/>
<path d="M932.488 76.909H930.232L926.978 78.9992V81.1725L930.04 79.2166H930.117V89.9999H932.488V76.909Z" fill="black"/>
<path d="M940.363 90.1789C943.131 90.1789 945.061 88.2997 945.061 85.6981C945.061 83.1796 943.31 81.3643 940.932 81.3643C939.871 81.3643 938.931 81.7862 938.445 82.3614H938.369L938.746 78.8906H944.377V76.909H936.783L936.099 83.659L938.241 84.0106C938.682 83.5248 939.513 83.1988 940.299 83.2052C941.737 83.2116 942.773 84.2727 942.766 85.7556C942.773 87.2194 941.763 88.2613 940.363 88.2613C939.18 88.2613 938.228 87.5134 938.145 86.4396H935.844C935.908 88.6129 937.806 90.1789 940.363 90.1789Z" fill="black"/>
<path d="M954.202 87.5454C954.208 89.0667 955.173 90.3643 956.97 90.3643C958.759 90.3643 959.744 89.0667 959.737 87.5454V86.855C959.744 85.321 958.785 84.0362 956.97 84.0362C955.199 84.0362 954.208 85.3337 954.202 86.855V87.5454ZM947.548 80.0539C947.554 81.5752 948.519 82.86 950.322 82.86C952.105 82.86 953.09 81.588 953.083 80.0539V79.3636C953.09 77.8295 952.131 76.5447 950.322 76.5447C948.558 76.5447 947.554 77.8295 947.548 79.3636V80.0539ZM948.123 89.9999H949.727L958.727 76.909H957.123L948.123 89.9999ZM955.87 86.855C955.876 86.1775 956.164 85.4935 956.97 85.4935C957.813 85.4935 958.063 86.1775 958.056 86.855V87.5454C958.063 88.2229 957.788 88.8941 956.97 88.8941C956.151 88.8941 955.876 88.2166 955.87 87.5454V86.855ZM949.229 79.3636C949.235 78.6924 949.51 78.0021 950.322 78.0021C951.166 78.0021 951.408 78.686 951.402 79.3636V80.0539C951.408 80.7315 951.14 81.4026 950.322 81.4026C949.504 81.4026 949.235 80.7315 949.229 80.0539V79.3636Z" fill="black"/>
<path d="M467.409 149H468.818V144.454H471.364C471.466 144.454 471.563 144.454 471.659 144.449L474.114 149H475.75L473.119 144.193C474.602 143.687 475.296 142.477 475.296 140.932C475.296 138.875 474.068 137.364 471.341 137.364H467.409V149ZM468.818 143.182V138.614H471.296C473.182 138.614 473.909 139.534 473.909 140.932C473.909 142.329 473.182 143.182 471.318 143.182H468.818Z" fill="black"/>
<path d="M481.027 149.182C482.8 149.182 484.095 148.295 484.504 146.977L483.209 146.614C482.868 147.523 482.078 147.977 481.027 147.977C479.453 147.977 478.368 146.96 478.305 145.091H484.641V144.523C484.641 141.273 482.709 140.159 480.891 140.159C478.527 140.159 476.959 142.023 476.959 144.704C476.959 147.386 478.504 149.182 481.027 149.182ZM478.305 143.932C478.396 142.574 479.357 141.364 480.891 141.364C482.345 141.364 483.277 142.454 483.277 143.932H478.305Z" fill="black"/>
<path d="M492.862 142.227C492.442 140.989 491.499 140.159 489.771 140.159C487.93 140.159 486.567 141.204 486.567 142.682C486.567 143.886 487.283 144.693 488.885 145.068L490.34 145.409C491.22 145.614 491.635 146.034 491.635 146.636C491.635 147.386 490.84 148 489.59 148C488.493 148 487.805 147.528 487.567 146.591L486.294 146.909C486.607 148.392 487.828 149.182 489.612 149.182C491.641 149.182 493.021 148.074 493.021 146.568C493.021 145.352 492.26 144.585 490.703 144.204L489.408 143.886C488.374 143.631 487.908 143.284 487.908 142.614C487.908 141.864 488.703 141.318 489.771 141.318C490.942 141.318 491.425 141.966 491.658 142.568L492.862 142.227Z" fill="black"/>
<path d="M498.699 149.182C500.472 149.182 501.767 148.295 502.176 146.977L500.881 146.614C500.54 147.523 499.75 147.977 498.699 147.977C497.125 147.977 496.04 146.96 495.977 145.091H502.313V144.523C502.313 141.273 500.381 140.159 498.563 140.159C496.199 140.159 494.631 142.023 494.631 144.704C494.631 147.386 496.176 149.182 498.699 149.182ZM495.977 143.932C496.068 142.574 497.028 141.364 498.563 141.364C500.017 141.364 500.949 142.454 500.949 143.932H495.977Z" fill="black"/>
<path d="M504.352 149H505.693V143.477C505.693 142.295 506.625 141.432 507.898 141.432C508.256 141.432 508.625 141.5 508.716 141.523V140.159C508.563 140.148 508.21 140.136 508.011 140.136C506.966 140.136 506.057 140.727 505.739 141.591H505.648V140.273H504.352V149Z" fill="black"/>
<path d="M517.707 140.273H516.253L513.844 147.227H513.753L511.344 140.273H509.889L513.117 149H514.48L517.707 140.273Z" fill="black"/>
<path d="M522.824 149.182C524.597 149.182 525.892 148.295 526.301 146.977L525.006 146.614C524.665 147.523 523.875 147.977 522.824 147.977C521.25 147.977 520.165 146.96 520.102 145.091H526.438V144.523C526.438 141.273 524.506 140.159 522.688 140.159C520.324 140.159 518.756 142.023 518.756 144.704C518.756 147.386 520.301 149.182 522.824 149.182ZM520.102 143.932C520.193 142.574 521.153 141.364 522.688 141.364C524.142 141.364 525.074 142.454 525.074 143.932H520.102Z" fill="black"/>
<path d="M607.643 150H610.104L615.665 138.935V136.909H606.748V138.891H613.21V138.98L607.643 150Z" fill="black"/>
<path d="M624.727 147.545C624.734 149.067 625.699 150.364 627.495 150.364C629.285 150.364 630.269 149.067 630.263 147.545V146.855C630.269 145.321 629.31 144.036 627.495 144.036C625.724 144.036 624.734 145.334 624.727 146.855V147.545ZM618.073 140.054C618.08 141.575 619.045 142.86 620.847 142.86C622.631 142.86 623.615 141.588 623.609 140.054V139.364C623.615 137.829 622.656 136.545 620.847 136.545C619.083 136.545 618.08 137.829 618.073 139.364V140.054ZM618.648 150H620.253L629.253 136.909H627.648L618.648 150ZM626.396 146.855C626.402 146.177 626.69 145.494 627.495 145.494C628.339 145.494 628.588 146.177 628.582 146.855V147.545C628.588 148.223 628.313 148.894 627.495 148.894C626.677 148.894 626.402 148.217 626.396 147.545V146.855ZM619.754 139.364C619.761 138.692 620.036 138.002 620.847 138.002C621.691 138.002 621.934 138.686 621.928 139.364V140.054C621.934 140.731 621.665 141.403 620.847 141.403C620.029 141.403 619.761 140.731 619.754 140.054V139.364Z" fill="black"/>
<path d="M817.409 149H818.818V144.75H821.364C824.074 144.75 825.296 143.102 825.296 141.045C825.296 138.989 824.074 137.364 821.341 137.364H817.409V149ZM818.818 143.5V138.614H821.296C823.188 138.614 823.909 139.648 823.909 141.045C823.909 142.443 823.188 143.5 821.318 143.5H818.818Z" fill="black"/>
<path d="M827.384 149H828.725V143.477C828.725 142.295 829.656 141.432 830.929 141.432C831.287 141.432 831.656 141.5 831.747 141.523V140.159C831.594 140.148 831.242 140.136 831.043 140.136C829.997 140.136 829.088 140.727 828.77 141.591H828.679V140.273H827.384V149Z" fill="black"/>
<path d="M833.337 149H834.678V140.273H833.337V149ZM834.019 138.818C834.541 138.818 834.973 138.409 834.973 137.909C834.973 137.409 834.541 137 834.019 137C833.496 137 833.064 137.409 833.064 137.909C833.064 138.409 833.496 138.818 834.019 138.818Z" fill="black"/>
<path d="M844.27 140.273H842.815L840.406 147.227H840.315L837.906 140.273H836.452L839.679 149H841.043L844.27 140.273Z" fill="black"/>
<path d="M848.342 149.205C849.865 149.205 850.661 148.386 850.933 147.818H851.002V149H852.342V143.25C852.342 140.477 850.229 140.159 849.115 140.159C847.797 140.159 846.297 140.614 845.615 142.205L846.888 142.659C847.183 142.023 847.882 141.341 849.161 141.341C850.394 141.341 851.002 141.994 851.002 143.114V143.159C851.002 143.807 850.342 143.75 848.752 143.955C847.132 144.165 845.365 144.523 845.365 146.523C845.365 148.227 846.683 149.205 848.342 149.205ZM848.547 148C847.479 148 846.706 147.523 846.706 146.591C846.706 145.568 847.638 145.25 848.683 145.114C849.252 145.045 850.774 144.886 851.002 144.614V145.841C851.002 146.932 850.138 148 848.547 148Z" fill="black"/>
<path d="M858.585 140.273H856.722V138.182H855.381V140.273H854.063V141.409H855.381V146.864C855.381 148.386 856.608 149.114 857.744 149.114C858.244 149.114 858.563 149.023 858.744 148.955L858.472 147.75C858.358 147.773 858.176 147.818 857.881 147.818C857.29 147.818 856.722 147.636 856.722 146.5V141.409H858.585V140.273Z" fill="black"/>
<path d="M864.168 149.182C865.94 149.182 867.236 148.295 867.645 146.977L866.35 146.614C866.009 147.523 865.219 147.977 864.168 147.977C862.594 147.977 861.509 146.96 861.446 145.091H867.781V144.523C867.781 141.273 865.85 140.159 864.031 140.159C861.668 140.159 860.1 142.023 860.1 144.705C860.1 147.386 861.645 149.182 864.168 149.182ZM861.446 143.932C861.537 142.574 862.497 141.364 864.031 141.364C865.486 141.364 866.418 142.455 866.418 143.932H861.446Z" fill="black"/>
<path d="M927.164 150H936.138V148.018H930.436V147.929L932.693 145.634C935.237 143.192 935.94 142.003 935.94 140.527C935.94 138.334 934.157 136.73 931.523 136.73C928.928 136.73 927.087 138.341 927.087 140.827H929.343C929.343 139.491 930.187 138.654 931.491 138.654C932.737 138.654 933.664 139.415 933.664 140.648C933.664 141.741 933 142.521 931.708 143.832L927.164 148.287V150Z" fill="black"/>
<path d="M943.182 150.249C946.34 150.256 948.225 147.763 948.225 143.467C948.225 139.197 946.327 136.73 943.182 136.73C940.037 136.73 938.145 139.191 938.139 143.467C938.139 147.756 940.024 150.249 943.182 150.249ZM943.182 148.249C941.552 148.249 940.529 146.612 940.536 143.467C940.542 140.348 941.559 138.705 943.182 138.705C944.812 138.705 945.828 140.348 945.835 143.467C945.835 146.612 944.818 148.249 943.182 148.249Z" fill="black"/>
<path d="M951.29 150.141C952.045 150.141 952.69 149.514 952.697 148.734C952.69 147.967 952.045 147.341 951.29 147.341C950.511 147.341 949.878 147.967 949.884 148.734C949.878 149.514 950.511 150.141 951.29 150.141Z" fill="black"/>
<path d="M959.344 150.179C962.17 150.198 964.068 148.255 964.062 145.666C964.068 143.192 962.304 141.403 960.009 141.403C958.603 141.403 957.363 142.087 956.736 143.212H956.647C956.653 140.457 957.663 138.782 959.479 138.782C960.604 138.782 961.364 139.434 961.607 140.437H963.94C963.659 138.322 961.952 136.73 959.479 136.73C956.334 136.73 954.346 139.351 954.346 143.825C954.339 148.626 956.832 150.166 959.344 150.179ZM959.332 148.261C957.932 148.261 956.909 147.104 956.903 145.736C956.915 144.362 957.976 143.212 959.364 143.212C960.751 143.212 961.767 144.311 961.761 145.717C961.767 147.149 960.719 148.261 959.332 148.261Z" fill="black"/>
<path d="M970.773 150.179C973.541 150.179 975.472 148.3 975.472 145.698C975.472 143.18 973.72 141.364 971.342 141.364C970.281 141.364 969.342 141.786 968.856 142.361H968.779L969.156 138.891H974.788V136.909H967.194L966.51 143.659L968.651 144.011C969.092 143.525 969.923 143.199 970.709 143.205C972.148 143.212 973.183 144.273 973.177 145.756C973.183 147.219 972.173 148.261 970.773 148.261C969.591 148.261 968.638 147.513 968.555 146.44H966.254C966.318 148.613 968.217 150.179 970.773 150.179Z" fill="black"/>
<path d="M984.612 147.545C984.619 149.067 985.584 150.364 987.38 150.364C989.17 150.364 990.154 149.067 990.148 147.545V146.855C990.154 145.321 989.195 144.036 987.38 144.036C985.609 144.036 984.619 145.334 984.612 146.855V147.545ZM977.958 140.054C977.964 141.575 978.93 142.86 980.732 142.86C982.516 142.86 983.5 141.588 983.494 140.054V139.364C983.5 137.829 982.541 136.545 980.732 136.545C978.968 136.545 977.964 137.829 977.958 139.364V140.054ZM978.533 150H980.138L989.138 136.909H987.533L978.533 150ZM986.28 146.855C986.287 146.177 986.574 145.494 987.38 145.494C988.224 145.494 988.473 146.177 988.467 146.855V147.545C988.473 148.223 988.198 148.894 987.38 148.894C986.562 148.894 986.287 148.217 986.28 147.545V146.855ZM979.639 139.364C979.646 138.692 979.92 138.002 980.732 138.002C981.576 138.002 981.819 138.686 981.812 139.364V140.054C981.819 140.731 981.55 141.403 980.732 141.403C979.914 141.403 979.646 140.731 979.639 140.054V139.364Z" fill="black"/>
<path d="M473.773 200.273H475.136C475.074 198.517 473.455 197.205 471.205 197.205C468.977 197.205 467.227 198.5 467.227 200.455C467.227 202.023 468.364 202.955 470.182 203.477L471.614 203.886C472.841 204.227 473.932 204.659 473.932 205.818C473.932 207.091 472.705 207.932 471.091 207.932C469.705 207.932 468.477 207.318 468.364 206H466.909C467.046 207.909 468.591 209.205 471.091 209.205C473.773 209.205 475.296 207.727 475.296 205.841C475.296 203.659 473.227 202.955 472.023 202.636L470.841 202.318C469.977 202.091 468.591 201.636 468.591 200.386C468.591 199.273 469.614 198.455 471.159 198.455C472.568 198.455 473.636 199.125 473.773 200.273Z" fill="black"/>
<path d="M481.226 200.273H479.362V198.182H478.021V200.273H476.703V201.409H478.021V206.864C478.021 208.386 479.249 209.114 480.385 209.114C480.885 209.114 481.203 209.023 481.385 208.955L481.112 207.75C480.999 207.773 480.817 207.818 480.521 207.818C479.93 207.818 479.362 207.636 479.362 206.5V201.409H481.226V200.273Z" fill="black"/>
<path d="M485.811 209.205C487.334 209.205 488.129 208.386 488.402 207.818H488.47V209H489.811V203.25C489.811 200.477 487.698 200.159 486.584 200.159C485.266 200.159 483.766 200.614 483.084 202.205L484.357 202.659C484.652 202.023 485.351 201.341 486.629 201.341C487.862 201.341 488.47 201.994 488.47 203.114V203.159C488.47 203.807 487.811 203.75 486.22 203.955C484.601 204.165 482.834 204.523 482.834 206.523C482.834 208.227 484.152 209.205 485.811 209.205ZM486.016 208C484.948 208 484.175 207.523 484.175 206.591C484.175 205.568 485.107 205.25 486.152 205.114C486.72 205.045 488.243 204.886 488.47 204.614V205.841C488.47 206.932 487.607 208 486.016 208Z" fill="black"/>
<path d="M492.259 209H493.6V205.733L494.537 204.864L497.804 209H499.509L495.548 204L499.236 200.273H497.577L493.759 204.159H493.6V197.364H492.259V209Z" fill="black"/>
<path d="M500.962 209H502.303V200.273H500.962V209ZM501.644 198.818C502.166 198.818 502.598 198.409 502.598 197.909C502.598 197.409 502.166 197 501.644 197C501.121 197 500.689 197.409 500.689 197.909C500.689 198.409 501.121 198.818 501.644 198.818Z" fill="black"/>
<path d="M506.1 203.75C506.1 202.227 507.043 201.364 508.327 201.364C509.571 201.364 510.327 202.176 510.327 203.545V209H511.668V203.455C511.668 201.227 510.48 200.159 508.713 200.159C507.395 200.159 506.577 200.75 506.168 201.636H506.054V200.273H504.759V209H506.1V203.75Z" fill="black"/>
<path d="M517.641 212.455C519.732 212.455 521.413 211.5 521.413 209.25V200.273H520.118V201.659H519.982C519.686 201.205 519.141 200.159 517.436 200.159C515.232 200.159 513.709 201.909 513.709 204.591C513.709 207.318 515.3 208.864 517.413 208.864C519.118 208.864 519.663 207.864 519.959 207.386H520.073V209.159C520.073 210.614 519.05 211.273 517.641 211.273C516.055 211.273 515.499 210.438 515.141 209.955L514.073 210.705C514.618 211.619 515.692 212.455 517.641 212.455ZM517.595 207.659C515.913 207.659 515.05 206.386 515.05 204.568C515.05 202.795 515.891 201.364 517.595 201.364C519.232 201.364 520.095 202.682 520.095 204.568C520.095 206.5 519.209 207.659 517.595 207.659Z" fill="black"/>
<path d="M528.368 209H529.709V203.477C529.709 202.295 530.641 201.432 531.913 201.432C532.271 201.432 532.641 201.5 532.732 201.523V200.159C532.578 200.148 532.226 200.136 532.027 200.136C530.982 200.136 530.073 200.727 529.754 201.591H529.663V200.273H528.368V209Z" fill="black"/>
<path d="M537.715 209.182C539.487 209.182 540.783 208.295 541.192 206.977L539.896 206.614C539.555 207.523 538.766 207.977 537.715 207.977C536.141 207.977 535.055 206.96 534.993 205.091H541.328V204.523C541.328 201.273 539.396 200.159 537.578 200.159C535.215 200.159 533.646 202.023 533.646 204.705C533.646 207.386 535.192 209.182 537.715 209.182ZM534.993 203.932C535.084 202.574 536.044 201.364 537.578 201.364C539.033 201.364 539.965 202.455 539.965 203.932H534.993Z" fill="black"/>
<path d="M545.345 209H546.663L548.573 202.295H548.709L550.618 209H551.936L554.595 200.273H553.186L551.3 206.932H551.209L549.368 200.273H547.936L546.073 206.955H545.982L544.095 200.273H542.686L545.345 209Z" fill="black"/>
<path d="M558.936 209.205C560.459 209.205 561.254 208.386 561.527 207.818H561.595V209H562.936V203.25C562.936 200.477 560.823 200.159 559.709 200.159C558.391 200.159 556.891 200.614 556.209 202.205L557.482 202.659C557.777 202.023 558.476 201.341 559.754 201.341C560.987 201.341 561.595 201.994 561.595 203.114V203.159C561.595 203.807 560.936 203.75 559.345 203.955C557.726 204.165 555.959 204.523 555.959 206.523C555.959 208.227 557.277 209.205 558.936 209.205ZM559.141 208C558.073 208 557.3 207.523 557.3 206.591C557.3 205.568 558.232 205.25 559.277 205.114C559.845 205.045 561.368 204.886 561.595 204.614V205.841C561.595 206.932 560.732 208 559.141 208Z" fill="black"/>
<path d="M565.384 209H566.725V203.477C566.725 202.295 567.656 201.432 568.929 201.432C569.287 201.432 569.656 201.5 569.747 201.523V200.159C569.594 200.148 569.242 200.136 569.043 200.136C567.997 200.136 567.088 200.727 566.77 201.591H566.679V200.273H565.384V209Z" fill="black"/>
<path d="M574.367 209.182C576.048 209.182 576.617 208.136 576.912 207.659H577.071V209H578.367V197.364H577.026V201.659H576.912C576.617 201.205 576.094 200.159 574.389 200.159C572.185 200.159 570.662 201.909 570.662 204.659C570.662 207.432 572.185 209.182 574.367 209.182ZM574.548 207.977C572.867 207.977 572.003 206.5 572.003 204.636C572.003 202.795 572.844 201.364 574.548 201.364C576.185 201.364 577.048 202.682 577.048 204.636C577.048 206.614 576.162 207.977 574.548 207.977Z" fill="black"/>
<path d="M587.19 202.227C586.77 200.989 585.827 200.159 584.1 200.159C582.259 200.159 580.895 201.205 580.895 202.682C580.895 203.886 581.611 204.693 583.213 205.068L584.668 205.409C585.548 205.614 585.963 206.034 585.963 206.636C585.963 207.386 585.168 208 583.918 208C582.821 208 582.134 207.528 581.895 206.591L580.622 206.909C580.935 208.392 582.156 209.182 583.94 209.182C585.969 209.182 587.35 208.074 587.35 206.568C587.35 205.352 586.588 204.585 585.031 204.205L583.736 203.886C582.702 203.631 582.236 203.284 582.236 202.614C582.236 201.864 583.031 201.318 584.1 201.318C585.27 201.318 585.753 201.966 585.986 202.568L587.19 202.227Z" fill="black"/>
<path d="M612.488 196.909H610.232L606.978 198.999V201.173L610.04 199.217H610.117V210H612.488V196.909Z" fill="black"/>
<path d="M620.651 210.249C623.808 210.256 625.694 207.763 625.694 203.467C625.694 199.197 623.795 196.73 620.651 196.73C617.506 196.73 615.614 199.191 615.607 203.467C615.607 207.756 617.493 210.249 620.651 210.249ZM620.651 208.249C619.021 208.249 617.998 206.612 618.004 203.467C618.011 200.348 619.027 198.705 620.651 198.705C622.281 198.705 623.297 200.348 623.303 203.467C623.303 206.612 622.287 208.249 620.651 208.249Z" fill="black"/>
<path d="M634.817 207.545C634.823 209.067 635.789 210.364 637.585 210.364C639.375 210.364 640.359 209.067 640.352 207.545V206.855C640.359 205.321 639.4 204.036 637.585 204.036C635.814 204.036 634.823 205.334 634.817 206.855V207.545ZM628.163 200.054C628.169 201.575 629.134 202.86 630.937 202.86C632.72 202.86 633.705 201.588 633.698 200.054V199.364C633.705 197.829 632.746 196.545 630.937 196.545C629.173 196.545 628.169 197.829 628.163 199.364V200.054ZM628.738 210H630.343L639.343 196.909H637.738L628.738 210ZM636.485 206.855C636.492 206.177 636.779 205.494 637.585 205.494C638.428 205.494 638.678 206.177 638.671 206.855V207.545C638.678 208.223 638.403 208.894 637.585 208.894C636.767 208.894 636.492 208.217 636.485 207.545V206.855ZM629.844 199.364C629.85 198.692 630.125 198.002 630.937 198.002C631.781 198.002 632.024 198.686 632.017 199.364V200.054C632.024 200.731 631.755 201.403 630.937 201.403C630.119 201.403 629.85 200.731 629.844 200.054V199.364Z" fill="black"/>
<path d="M823.773 200.273H825.136C825.074 198.517 823.455 197.205 821.205 197.205C818.977 197.205 817.227 198.5 817.227 200.455C817.227 202.023 818.364 202.955 820.182 203.477L821.614 203.886C822.841 204.227 823.932 204.659 823.932 205.818C823.932 207.091 822.705 207.932 821.091 207.932C819.705 207.932 818.477 207.318 818.364 206H816.909C817.046 207.909 818.591 209.205 821.091 209.205C823.773 209.205 825.296 207.727 825.296 205.841C825.296 203.659 823.227 202.955 822.023 202.636L820.841 202.318C819.977 202.091 818.591 201.636 818.591 200.386C818.591 199.273 819.614 198.455 821.159 198.455C822.568 198.455 823.636 199.125 823.773 200.273Z" fill="black"/>
<path d="M831.226 200.273H829.362V198.182H828.021V200.273H826.703V201.409H828.021V206.864C828.021 208.386 829.249 209.114 830.385 209.114C830.885 209.114 831.203 209.023 831.385 208.955L831.112 207.75C830.999 207.773 830.817 207.818 830.521 207.818C829.93 207.818 829.362 207.636 829.362 206.5V201.409H831.226V200.273Z" fill="black"/>
<path d="M833.243 209H834.584V203.477C834.584 202.295 835.516 201.432 836.788 201.432C837.146 201.432 837.516 201.5 837.607 201.523V200.159C837.453 200.148 837.101 200.136 836.902 200.136C835.857 200.136 834.948 200.727 834.629 201.591H834.538V200.273H833.243V209Z" fill="black"/>
<path d="M841.764 209.205C843.287 209.205 844.082 208.386 844.355 207.818H844.423V209H845.764V203.25C845.764 200.477 843.651 200.159 842.537 200.159C841.219 200.159 839.719 200.614 839.037 202.205L840.31 202.659C840.605 202.023 841.304 201.341 842.582 201.341C843.815 201.341 844.423 201.994 844.423 203.114V203.159C844.423 203.807 843.764 203.75 842.173 203.955C840.554 204.165 838.787 204.523 838.787 206.523C838.787 208.227 840.105 209.205 841.764 209.205ZM841.969 208C840.901 208 840.128 207.523 840.128 206.591C840.128 205.568 841.06 205.25 842.105 205.114C842.673 205.045 844.196 204.886 844.423 204.614V205.841C844.423 206.932 843.56 208 841.969 208Z" fill="black"/>
<path d="M852.007 200.273H850.144V198.182H848.803V200.273H847.484V201.409H848.803V206.864C848.803 208.386 850.03 209.114 851.166 209.114C851.666 209.114 851.984 209.023 852.166 208.955L851.894 207.75C851.78 207.773 851.598 207.818 851.303 207.818C850.712 207.818 850.144 207.636 850.144 206.5V201.409H852.007V200.273Z" fill="black"/>
<path d="M857.59 209.182C859.362 209.182 860.658 208.295 861.067 206.977L859.771 206.614C859.43 207.523 858.641 207.977 857.59 207.977C856.016 207.977 854.93 206.96 854.868 205.091H861.203V204.523C861.203 201.273 859.271 200.159 857.453 200.159C855.09 200.159 853.521 202.023 853.521 204.705C853.521 207.386 855.067 209.182 857.59 209.182ZM854.868 203.932C854.959 202.574 855.919 201.364 857.453 201.364C858.908 201.364 859.84 202.455 859.84 203.932H854.868Z" fill="black"/>
<path d="M866.766 212.455C868.857 212.455 870.538 211.5 870.538 209.25V200.273H869.243V201.659H869.107C868.811 201.205 868.266 200.159 866.561 200.159C864.357 200.159 862.834 201.909 862.834 204.591C862.834 207.318 864.425 208.864 866.538 208.864C868.243 208.864 868.788 207.864 869.084 207.386H869.198V209.159C869.198 210.614 868.175 211.273 866.766 211.273C865.18 211.273 864.624 210.438 864.266 209.955L863.198 210.705C863.743 211.619 864.817 212.455 866.766 212.455ZM866.72 207.659C865.038 207.659 864.175 206.386 864.175 204.568C864.175 202.795 865.016 201.364 866.72 201.364C868.357 201.364 869.22 202.682 869.22 204.568C869.22 206.5 868.334 207.659 866.72 207.659Z" fill="black"/>
<path d="M872.993 209H874.334V200.273H872.993V209ZM873.675 198.818C874.198 198.818 874.629 198.409 874.629 197.909C874.629 197.409 874.198 197 873.675 197C873.152 197 872.72 197.409 872.72 197.909C872.72 198.409 873.152 198.818 873.675 198.818Z" fill="black"/>
<path d="M880.335 209.182C882.267 209.182 883.54 208 883.767 206.455H882.426C882.176 207.409 881.381 207.977 880.335 207.977C878.744 207.977 877.722 206.659 877.722 204.636C877.722 202.659 878.767 201.364 880.335 201.364C881.517 201.364 882.222 202.091 882.426 202.886H883.767C883.54 201.25 882.153 200.159 880.313 200.159C877.949 200.159 876.381 202.023 876.381 204.682C876.381 207.295 877.881 209.182 880.335 209.182Z" fill="black"/>
<path d="M932.488 196.909H930.232L926.978 198.999V201.173L930.04 199.217H930.117V210H932.488V196.909Z" fill="black"/>
<path d="M940.651 210.249C943.808 210.256 945.694 207.763 945.694 203.467C945.694 199.197 943.795 196.73 940.651 196.73C937.506 196.73 935.614 199.191 935.607 203.467C935.607 207.756 937.493 210.249 940.651 210.249ZM940.651 208.249C939.021 208.249 937.998 206.612 938.004 203.467C938.011 200.348 939.027 198.705 940.651 198.705C942.281 198.705 943.297 200.348 943.303 203.467C943.303 206.612 942.287 208.249 940.651 208.249Z" fill="black"/>
<path d="M948.759 210.141C949.513 210.141 950.159 209.514 950.165 208.734C950.159 207.967 949.513 207.341 948.759 207.341C947.979 207.341 947.346 207.967 947.353 208.734C947.346 209.514 947.979 210.141 948.759 210.141Z" fill="black"/>
<path d="M956.236 196.909H953.98L950.726 198.999V201.173L953.788 199.217H953.865V210H956.236V196.909Z" fill="black"/>
<path d="M964.399 210.249C967.556 210.256 969.442 207.763 969.442 203.467C969.442 199.197 967.544 196.73 964.399 196.73C961.254 196.73 959.362 199.191 959.355 203.467C959.355 207.756 961.241 210.249 964.399 210.249ZM964.399 208.249C962.769 208.249 961.746 206.612 961.752 203.467C961.759 200.348 962.775 198.705 964.399 198.705C966.029 198.705 967.045 200.348 967.051 203.467C967.051 206.612 966.035 208.249 964.399 208.249Z" fill="black"/>
<path d="M978.565 207.545C978.571 209.067 979.537 210.364 981.333 210.364C983.123 210.364 984.107 209.067 984.101 207.545V206.855C984.107 205.321 983.148 204.036 981.333 204.036C979.562 204.036 978.571 205.334 978.565 206.855V207.545ZM971.911 200.054C971.917 201.575 972.883 202.86 974.685 202.86C976.468 202.86 977.453 201.588 977.446 200.054V199.364C977.453 197.829 976.494 196.545 974.685 196.545C972.921 196.545 971.917 197.829 971.911 199.364V200.054ZM972.486 210H974.091L983.091 196.909H981.486L972.486 210ZM980.233 206.855C980.24 206.177 980.527 205.494 981.333 205.494C982.177 205.494 982.426 206.177 982.419 206.855V207.545C982.426 208.223 982.151 208.894 981.333 208.894C980.515 208.894 980.24 208.217 980.233 207.545V206.855ZM973.592 199.364C973.598 198.692 973.873 198.002 974.685 198.002C975.529 198.002 975.772 198.686 975.765 199.364V200.054C975.772 200.731 975.503 201.403 974.685 201.403C973.867 201.403 973.598 200.731 973.592 200.054V199.364Z" fill="black"/>
<path d="M467.409 269H474.523V267.75H468.818V263.795H474.068V262.545H468.818V258.614H474.432V257.364H467.409V269Z" fill="black"/>
<path d="M480.335 269.182C482.267 269.182 483.54 268 483.767 266.454H482.426C482.176 267.409 481.381 267.977 480.335 267.977C478.744 267.977 477.722 266.659 477.722 264.636C477.722 262.659 478.767 261.364 480.335 261.364C481.517 261.364 482.222 262.091 482.426 262.886H483.767C483.54 261.25 482.153 260.159 480.313 260.159C477.949 260.159 476.381 262.023 476.381 264.682C476.381 267.295 477.881 269.182 480.335 269.182Z" fill="black"/>
<path d="M489.273 269.182C491.636 269.182 493.227 267.386 493.227 264.682C493.227 261.954 491.636 260.159 489.273 260.159C486.909 260.159 485.318 261.954 485.318 264.682C485.318 267.386 486.909 269.182 489.273 269.182ZM489.273 267.977C487.477 267.977 486.659 266.432 486.659 264.682C486.659 262.932 487.477 261.364 489.273 261.364C491.068 261.364 491.886 262.932 491.886 264.682C491.886 266.432 491.068 267.977 489.273 267.977Z" fill="black"/>
<path d="M501.456 262.227C501.036 260.989 500.092 260.159 498.365 260.159C496.524 260.159 495.161 261.204 495.161 262.682C495.161 263.886 495.877 264.693 497.479 265.068L498.933 265.409C499.814 265.614 500.229 266.034 500.229 266.636C500.229 267.386 499.433 268 498.183 268C497.087 268 496.399 267.528 496.161 266.591L494.888 266.909C495.2 268.392 496.422 269.182 498.206 269.182C500.234 269.182 501.615 268.074 501.615 266.568C501.615 265.352 500.854 264.585 499.297 264.204L498.002 263.886C496.967 263.631 496.502 263.284 496.502 262.614C496.502 261.864 497.297 261.318 498.365 261.318C499.536 261.318 500.019 261.966 500.252 262.568L501.456 262.227Z" fill="black"/>
<path d="M504.497 272.273C505.707 272.273 506.56 271.631 507.065 270.273L510.781 260.295L509.315 260.273L506.906 267.227H506.815L504.406 260.273H502.952L506.179 269.045L505.929 269.727C505.44 271.057 504.838 271.182 503.861 270.932L503.52 272.114C503.656 272.182 504.043 272.273 504.497 272.273Z" fill="black"/>
<path d="M518.737 262.227C518.317 260.989 517.374 260.159 515.646 260.159C513.805 260.159 512.442 261.204 512.442 262.682C512.442 263.886 513.158 264.693 514.76 265.068L516.215 265.409C517.095 265.614 517.51 266.034 517.51 266.636C517.51 267.386 516.715 268 515.465 268C514.368 268 513.68 267.528 513.442 266.591L512.169 266.909C512.482 268.392 513.703 269.182 515.487 269.182C517.516 269.182 518.896 268.074 518.896 266.568C518.896 265.352 518.135 264.585 516.578 264.204L515.283 263.886C514.249 263.631 513.783 263.284 513.783 262.614C513.783 261.864 514.578 261.318 515.646 261.318C516.817 261.318 517.3 261.966 517.533 262.568L518.737 262.227Z" fill="black"/>
<path d="M524.71 260.273H522.847V258.182H521.506V260.273H520.188V261.409H521.506V266.864C521.506 268.386 522.733 269.114 523.869 269.114C524.369 269.114 524.688 269.023 524.869 268.954L524.597 267.75C524.483 267.773 524.301 267.818 524.006 267.818C523.415 267.818 522.847 267.636 522.847 266.5V261.409H524.71V260.273Z" fill="black"/>
<path d="M530.293 269.182C532.065 269.182 533.361 268.295 533.77 266.977L532.475 266.614C532.134 267.523 531.344 267.977 530.293 267.977C528.719 267.977 527.634 266.96 527.571 265.091H533.906V264.523C533.906 261.273 531.975 260.159 530.156 260.159C527.793 260.159 526.225 262.023 526.225 264.704C526.225 267.386 527.77 269.182 530.293 269.182ZM527.571 263.932C527.662 262.574 528.622 261.364 530.156 261.364C531.611 261.364 532.543 262.454 532.543 263.932H527.571Z" fill="black"/>
<path d="M535.946 269H537.287V263.545C537.287 262.267 538.219 261.364 539.264 261.364C540.281 261.364 540.992 262.028 540.992 263.023V269H542.355V263.318C542.355 262.193 543.06 261.364 544.287 261.364C545.242 261.364 546.06 261.869 546.06 263.159V269H547.401V263.159C547.401 261.108 546.298 260.159 544.742 260.159C543.492 260.159 542.577 260.733 542.128 261.636H542.037C541.605 260.704 540.844 260.159 539.696 260.159C538.56 260.159 537.719 260.704 537.355 261.636H537.242V260.273H535.946V269Z" fill="black"/>
<path d="M612.488 256.909H610.232L606.978 258.999V261.173L610.04 259.217H610.117V270H612.488V256.909Z" fill="black"/>
<path d="M620.363 270.179C623.131 270.179 625.061 268.3 625.061 265.698C625.061 263.18 623.31 261.364 620.932 261.364C619.871 261.364 618.931 261.786 618.445 262.361H618.369L618.746 258.891H624.377V256.909H616.783L616.099 263.659L618.241 264.011C618.682 263.525 619.513 263.199 620.299 263.205C621.737 263.212 622.773 264.273 622.766 265.756C622.773 267.219 621.763 268.261 620.363 268.261C619.18 268.261 618.228 267.513 618.145 266.44H615.844C615.908 268.613 617.806 270.179 620.363 270.179Z" fill="black"/>
<path d="M634.202 267.545C634.208 269.067 635.173 270.364 636.97 270.364C638.759 270.364 639.744 269.067 639.737 267.545V266.855C639.744 265.321 638.785 264.036 636.97 264.036C635.199 264.036 634.208 265.334 634.202 266.855V267.545ZM627.548 260.054C627.554 261.575 628.519 262.86 630.322 262.86C632.105 262.86 633.09 261.588 633.083 260.054V259.364C633.09 257.829 632.131 256.545 630.322 256.545C628.558 256.545 627.554 257.829 627.548 259.364V260.054ZM628.123 270H629.727L638.727 256.909H637.123L628.123 270ZM635.87 266.855C635.876 266.177 636.164 265.494 636.97 265.494C637.813 265.494 638.063 266.177 638.056 266.855V267.545C638.063 268.223 637.788 268.894 636.97 268.894C636.151 268.894 635.876 268.217 635.87 267.545V266.855ZM629.229 259.364C629.235 258.692 629.51 258.002 630.322 258.002C631.166 258.002 631.408 258.686 631.402 259.364V260.054C631.408 260.731 631.14 261.403 630.322 261.403C629.504 261.403 629.235 260.731 629.229 260.054V259.364Z" fill="black"/>
<path d="M823.773 260.273H825.136C825.074 258.517 823.455 257.205 821.205 257.205C818.977 257.205 817.227 258.5 817.227 260.455C817.227 262.023 818.364 262.955 820.182 263.477L821.614 263.886C822.841 264.227 823.932 264.659 823.932 265.818C823.932 267.091 822.705 267.932 821.091 267.932C819.705 267.932 818.477 267.318 818.364 266H816.909C817.046 267.909 818.591 269.205 821.091 269.205C823.773 269.205 825.296 267.727 825.296 265.841C825.296 263.659 823.227 262.955 822.023 262.636L820.841 262.318C819.977 262.091 818.591 261.636 818.591 260.386C818.591 259.273 819.614 258.455 821.159 258.455C822.568 258.455 823.636 259.125 823.773 260.273Z" fill="black"/>
<path d="M831.09 269.182C832.862 269.182 834.158 268.295 834.567 266.977L833.271 266.614C832.93 267.523 832.141 267.977 831.09 267.977C829.516 267.977 828.43 266.96 828.368 265.091H834.703V264.523C834.703 261.273 832.771 260.159 830.953 260.159C828.59 260.159 827.021 262.023 827.021 264.705C827.021 267.386 828.567 269.182 831.09 269.182ZM828.368 263.932C828.459 262.574 829.419 261.364 830.953 261.364C832.408 261.364 833.34 262.455 833.34 263.932H828.368Z" fill="black"/>
<path d="M840.402 269.182C842.175 269.182 843.47 268.295 843.879 266.977L842.584 266.614C842.243 267.523 841.453 267.977 840.402 267.977C838.828 267.977 837.743 266.96 837.68 265.091H844.016V264.523C844.016 261.273 842.084 260.159 840.266 260.159C837.902 260.159 836.334 262.023 836.334 264.705C836.334 267.386 837.879 269.182 840.402 269.182ZM837.68 263.932C837.771 262.574 838.732 261.364 840.266 261.364C841.72 261.364 842.652 262.455 842.652 263.932H837.68Z" fill="black"/>
<path d="M849.351 269.182C851.033 269.182 851.601 268.136 851.896 267.659H852.055V269H853.351V257.364H852.01V261.659H851.896C851.601 261.205 851.078 260.159 849.374 260.159C847.169 260.159 845.646 261.909 845.646 264.659C845.646 267.432 847.169 269.182 849.351 269.182ZM849.533 267.977C847.851 267.977 846.987 266.5 846.987 264.636C846.987 262.796 847.828 261.364 849.533 261.364C851.169 261.364 852.033 262.682 852.033 264.636C852.033 266.614 851.146 267.977 849.533 267.977Z" fill="black"/>
<path d="M932.488 256.909H930.232L926.978 258.999V261.173L930.04 259.217H930.117V270H932.488V256.909Z" fill="black"/>
<path d="M940.651 270.249C943.808 270.256 945.694 267.763 945.694 263.467C945.694 259.197 943.795 256.73 940.651 256.73C937.506 256.73 935.614 259.191 935.607 263.467C935.607 267.756 937.493 270.249 940.651 270.249ZM940.651 268.249C939.021 268.249 937.998 266.612 938.004 263.467C938.011 260.348 939.027 258.705 940.651 258.705C942.281 258.705 943.297 260.348 943.303 263.467C943.303 266.612 942.287 268.249 940.651 268.249Z" fill="black"/>
<path d="M948.759 270.141C949.513 270.141 950.159 269.514 950.165 268.734C950.159 267.967 949.513 267.341 948.759 267.341C947.979 267.341 947.346 267.967 947.353 268.734C947.346 269.514 947.979 270.141 948.759 270.141Z" fill="black"/>
<path d="M952.529 270H961.503V268.018H955.801V267.929L958.058 265.634C960.602 263.192 961.305 262.003 961.305 260.527C961.305 258.334 959.522 256.73 956.888 256.73C954.293 256.73 952.452 258.341 952.452 260.827H954.708C954.708 259.491 955.552 258.654 956.856 258.654C958.102 258.654 959.029 259.415 959.029 260.648C959.029 261.741 958.365 262.521 957.073 263.832L952.529 268.287V270Z" fill="black"/>
<path d="M968.259 270.179C971.027 270.179 972.958 268.3 972.958 265.698C972.958 263.18 971.206 261.364 968.828 261.364C967.767 261.364 966.828 261.786 966.342 262.361H966.265L966.642 258.891H972.274V256.909H964.68L963.996 263.659L966.137 264.011C966.578 263.525 967.409 263.199 968.196 263.205C969.634 263.212 970.669 264.273 970.663 265.756C970.669 267.219 969.659 268.261 968.259 268.261C967.077 268.261 966.125 267.513 966.041 266.44H963.74C963.804 268.613 965.703 270.179 968.259 270.179Z" fill="black"/>
<path d="M982.098 267.545C982.105 269.067 983.07 270.364 984.866 270.364C986.656 270.364 987.64 269.067 987.634 267.545V266.855C987.64 265.321 986.681 264.036 984.866 264.036C983.095 264.036 982.105 265.334 982.098 266.855V267.545ZM975.444 260.054C975.451 261.575 976.416 262.86 978.218 262.86C980.002 262.86 980.986 261.588 980.98 260.054V259.364C980.986 257.829 980.027 256.545 978.218 256.545C976.454 256.545 975.451 257.829 975.444 259.364V260.054ZM976.019 270H977.624L986.624 256.909H985.019L976.019 270ZM983.767 266.855C983.773 266.177 984.061 265.494 984.866 265.494C985.71 265.494 985.959 266.177 985.953 266.855V267.545C985.959 268.223 985.684 268.894 984.866 268.894C984.048 268.894 983.773 268.217 983.767 267.545V266.855ZM977.125 259.364C977.132 258.692 977.406 258.002 978.218 258.002C979.062 258.002 979.305 258.686 979.299 259.364V260.054C979.305 260.731 979.036 261.403 978.218 261.403C977.4 261.403 977.132 260.731 977.125 260.054V259.364Z" fill="black"/>
<path d="M430 0H400C395.582 0 392 3.58172 392 8V38C392 42.4183 395.582 46 400 46H430C434.418 46 438 42.4183 438 38V8C438 3.58172 434.418 0 430 0Z" fill="#7F96E7"/>
<path d="M780 0H750C745.582 0 742 3.58172 742 8V38C742 42.4183 745.582 46 750 46H780C784.418 46 788 42.4183 788 38V8C788 3.58172 784.418 0 780 0Z" fill="#16308C"/>
<path d="M430 60H400C395.582 60 392 63.5817 392 68V98C392 102.418 395.582 106 400 106H430C434.418 106 438 102.418 438 98V68C438 63.5817 434.418 60 430 60Z" fill="#6B55EE"/>
<path d="M780 60H750C745.582 60 742 63.5817 742 68V98C742 102.418 745.582 106 750 106H780C784.418 106 788 102.418 788 98V68C788 63.5817 784.418 60 780 60Z" fill="#4F74F9"/>
<path d="M430 120H400C395.582 120 392 123.582 392 128V158C392 162.418 395.582 166 400 166H430C434.418 166 438 162.418 438 158V128C438 123.582 434.418 120 430 120Z" fill="#07AEC5"/>
<path d="M780 120H750C745.582 120 742 123.582 742 128V158C742 162.418 745.582 166 750 166H780C784.418 166 788 162.418 788 158V128C788 123.582 784.418 120 780 120Z" fill="#304FFE"/>
<path d="M430 180H400C395.582 180 392 183.582 392 188V218C392 222.418 395.582 226 400 226H430C434.418 226 438 222.418 438 218V188C438 183.582 434.418 180 430 180Z" fill="#0380A8"/>
<path d="M780 180H750C745.582 180 742 183.582 742 188V218C742 222.418 745.582 226 750 226H780C784.418 226 788 222.418 788 218V188C788 183.582 784.418 180 780 180Z" fill="#3856C2"/>
<path d="M430 240H400C395.582 240 392 243.582 392 248V278C392 282.418 395.582 286 400 286H430C434.418 286 438 282.418 438 278V248C438 243.582 434.418 240 430 240Z" fill="#2443AE"/>
<path d="M780 240H750C745.582 240 742 243.582 742 248V278C742 282.418 745.582 286 750 286H780C784.418 286 788 282.418 788 278V248C788 243.582 784.418 240 780 240Z" fill="#29C4DA"/>
<defs>
<clipPath id="clip0">
<rect width="288" height="288" fill="white"/>
</clipPath>
</defs>
</svg>
