<svg width="210" height="184" viewBox="0 0 210 184" fill="none" xmlns="http://www.w3.org/2000/svg">
<path d="M109.74 80.4744L109.742 80.4751L198.198 118.421C202.633 120.32 205.497 124.684 205.493 129.496L109.74 80.4744ZM109.74 80.4744C106.71 79.1755 103.282 79.1747 100.251 80.4751C100.25 80.4751 100.25 80.4751 100.25 80.4752L11.7936 118.421L109.74 80.4744ZM100.281 178.255L100.278 178.254L11.8195 140.559L11.8179 140.558C7.38877 138.669 4.50779 134.32 4.50001 129.501L4.5 129.497C4.49582 124.682 7.35917 120.322 11.792 118.422L100.281 178.255ZM100.281 178.255C101.787 178.896 103.392 179.217 104.998 179.217C106.599 179.217 108.208 178.898 109.716 178.254C109.717 178.253 109.719 178.252 109.72 178.252L198.17 140.56C198.171 140.56 198.171 140.559 198.171 140.559M100.281 178.255L198.171 140.559M198.171 140.559C198.172 140.559 198.172 140.559 198.173 140.559M198.171 140.559L198.173 140.559M198.173 140.559C202.608 138.671 205.488 134.317 205.493 129.497L198.173 140.559Z" fill="#021BFF" fill-opacity="0.83" stroke="white" stroke-width="9"/>
<path d="M109.74 44.4744L109.742 44.4751L198.198 82.4207C202.633 84.3203 205.497 88.6839 205.493 93.4963L109.74 44.4744ZM109.74 44.4744C106.71 43.1755 103.282 43.1747 100.251 44.4751C100.25 44.4751 100.25 44.4751 100.25 44.4752L11.7936 82.421L109.74 44.4744ZM100.281 142.255L100.278 142.254L11.8195 104.559L11.8179 104.558C7.38877 102.669 4.50779 98.3199 4.50001 93.5006L4.5 93.4972C4.49582 88.682 7.35917 84.322 11.792 82.4218L100.281 142.255ZM100.281 142.255C101.787 142.896 103.392 143.217 104.998 143.217C106.599 143.217 108.208 142.898 109.716 142.254C109.717 142.253 109.719 142.252 109.72 142.252L198.17 104.56C198.171 104.56 198.171 104.559 198.171 104.559M100.281 142.255L198.171 104.559M198.171 104.559C198.172 104.559 198.172 104.559 198.173 104.559M198.171 104.559L198.173 104.559M198.173 104.559C202.608 102.671 205.488 98.317 205.493 93.4974L198.173 104.559Z" fill="#05BFDA" fill-opacity="0.76" stroke="white" stroke-width="9"/>
<path d="M109.74 5.4744L109.742 5.47505L198.198 43.4207C202.633 45.3203 205.497 49.6839 205.493 54.4963L109.74 5.4744ZM109.74 5.4744C106.71 4.17552 103.282 4.17466 100.251 5.47505C100.25 5.47509 100.25 5.47512 100.25 5.47516L11.7936 43.421L109.74 5.4744ZM4.50001 54.5006L4.5 54.4972C4.49582 49.682 7.35917 45.322 11.792 43.4218L4.50001 54.5006ZM4.50001 54.5006C4.50779 59.3199 7.38877 63.6688 11.8179 65.5583L11.8195 65.559M4.50001 54.5006L11.8195 65.559M11.8195 65.559L100.278 103.254L100.281 103.255M11.8195 65.559L100.281 103.255M100.281 103.255C101.787 103.896 103.392 104.217 104.998 104.217M100.281 103.255L104.998 104.217M104.998 104.217C106.599 104.217 108.208 103.898 109.716 103.254M104.998 104.217L109.716 103.254M109.716 103.254C109.717 103.253 109.719 103.252 109.72 103.252M109.716 103.254L109.72 103.252M109.72 103.252L198.17 65.5597C198.171 65.5596 198.171 65.5595 198.171 65.5593C198.172 65.5591 198.172 65.5589 198.173 65.5586C202.608 63.6709 205.488 59.317 205.493 54.4974L109.72 103.252Z" fill="#452FD0" fill-opacity="0.76" stroke="white" stroke-width="9"/>
</svg>
