<svg width="22" height="22" viewBox="0 0 22 22" fill="none" xmlns="http://www.w3.org/2000/svg">
<circle cx="11" cy="11" r="11" fill="url(#paint0_linear)"/>
<path fill-rule="evenodd" clip-rule="evenodd" d="M14.6736 6.11133H15.5457L16.2304 6.99723L15.7911 7.56158L14.6736 6.11133ZM16.418 6.75458L16.6506 6.45272C16.7539 6.31491 16.6635 6.11804 16.4891 6.11804H15.9271L16.418 6.75458ZM12.1666 8.14563L11.7403 8.69686L13.3294 10.764C13.3327 10.7607 13.3343 10.7574 13.3359 10.7541C13.3375 10.7508 13.3391 10.7476 13.3423 10.7443L13.7558 10.2127L12.1666 8.14563ZM14.9123 15.8827H15.7133L10.933 9.7536L10.5325 10.2655L14.9123 15.8827ZM16.0947 15.8829L11.1206 9.50438L11.5534 8.94659L16.6632 15.5744C16.7342 15.7123 16.6503 15.8829 16.4888 15.8829H16.0947ZM12.9756 7.0956L13.402 6.54437L14.9911 8.60491L14.5648 9.15614L12.9756 7.0956ZM12.7874 7.33862L12.3546 7.90297L13.9437 9.96351L14.3766 9.39916L12.7874 7.33862ZM10.3456 10.515L10.1712 10.7446C10.0549 10.8956 10.0549 11.1121 10.1712 11.263L13.6143 15.7319C13.6918 15.8304 13.8081 15.8894 13.9373 15.8894H14.5381L10.3456 10.515ZM13.9377 6.11133H14.2995L15.6044 7.80438L15.1845 8.35561L13.5953 6.29507L13.6147 6.26882C13.6922 6.17039 13.815 6.11133 13.9377 6.11133Z" fill="url(#paint1_linear)"/>
<path d="M8.5455 10.7387C8.66178 10.8896 8.66178 11.1062 8.5455 11.2571L5.23804 15.5488C5.13468 15.6866 5.22512 15.8835 5.39954 15.8835H7.95765C8.08039 15.8835 8.20313 15.8244 8.28065 15.726L11.7173 11.2571C11.8336 11.1062 11.8336 10.8896 11.7173 10.7387L8.27419 6.2698C8.19667 6.17136 8.08039 6.1123 7.95119 6.1123H5.39954C5.23158 6.1123 5.13468 6.31573 5.23804 6.44698L8.5455 10.7387Z" fill="white"/>
<defs>
<linearGradient id="paint0_linear" x1="7.13514" y1="2.97297" x2="37.7568" y2="-13.6757" gradientUnits="userSpaceOnUse">
<stop stop-color="#2853EB"/>
</linearGradient>
<linearGradient id="paint1_linear" x1="14.2264" y1="10.3415" x2="11.1592" y2="10.6856" gradientUnits="userSpaceOnUse">
<stop stop-color="white"/>
<stop offset="1" stop-color="white" stop-opacity="0.4"/>
</linearGradient>
</defs>
</svg>
