<svg width="1217" height="305" viewBox="0 0 1217 305" fill="none" xmlns="http://www.w3.org/2000/svg">
<path fill-rule="evenodd" clip-rule="evenodd" d="M991 30C991.552 30 992 30.4477 992 31V56H994C995.105 56 996 56.8954 996 58V147C996 148.105 995.105 149 994 149H992V152.913C992 153.465 991.552 153.913 991 153.913C990.448 153.913 990 153.465 990 152.913V149H988C986.895 149 986 148.105 986 147V58C986 56.8954 986.895 56 988 56H990V31C990 30.4477 990.448 30 991 30Z" fill="#0AD397"/>
<path fill-rule="evenodd" clip-rule="evenodd" d="M1212 0C1212.55 0 1213 0.447715 1213 0.999999V6H1215C1216.1 6 1217 6.89543 1217 8V97C1217 98.1046 1216.1 99 1215 99H1213V122.913C1213 123.465 1212.55 123.913 1212 123.913C1211.45 123.913 1211 123.465 1211 122.913V99H1209C1207.9 99 1207 98.1046 1207 97V8C1207 6.89543 1207.9 6 1209 6H1211V1C1211 0.447715 1211.45 0 1212 0Z" fill="#AEE6D5"/>
<path fill-rule="evenodd" clip-rule="evenodd" d="M1059 37C1059.55 37 1060 37.4477 1060 38V49.565H1062C1063.1 49.565 1064 50.4604 1064 51.565V80.1737C1064 81.2782 1063.1 82.1737 1062 82.1737H1060V117C1060 117.552 1059.55 118 1059 118C1058.45 118 1058 117.552 1058 117V82.1737H1056C1054.9 82.1737 1054 81.2782 1054 80.1737V51.565C1054 50.4604 1054.9 49.565 1056 49.565H1058V38C1058 37.4477 1058.45 37 1059 37Z" fill="#0AD397"/>
<path fill-rule="evenodd" clip-rule="evenodd" d="M1008 81C1008.55 81 1009 81.4477 1009 82V99H1011C1012.1 99 1013 99.8954 1013 101V145C1013 146.105 1012.1 147 1011 147H1009V161C1009 161.552 1008.55 162 1008 162C1007.45 162 1007 161.552 1007 161V147H1005C1003.9 147 1003 146.105 1003 145V101C1003 99.8954 1003.9 99 1005 99H1007V82C1007 81.4477 1007.45 81 1008 81Z" fill="#0AD397"/>
<path fill-rule="evenodd" clip-rule="evenodd" d="M940 77.2827C940.552 77.2827 941 77.7304 941 78.2827V83.8045H943C944.105 83.8045 945 84.6999 945 85.8045V93.2175C945 94.3221 944.105 95.2175 943 95.2175H941V126.826C941 127.378 940.552 127.826 940 127.826C939.448 127.826 939 127.378 939 126.826V95.2175H937C935.895 95.2175 935 94.3221 935 93.2175V85.8045C935 84.6999 935.895 83.8045 937 83.8045H939V78.2827C939 77.7304 939.448 77.2827 940 77.2827Z" fill="#0AD397"/>
<path fill-rule="evenodd" clip-rule="evenodd" d="M1077 47C1077.55 47 1078 47.4477 1078 48V65.5217H1080C1081.1 65.5217 1082 66.4172 1082 67.5217V74.9348C1082 76.0394 1081.1 76.9348 1080 76.9348H1078V89C1078 89.5523 1077.55 90 1077 90C1076.45 90 1076 89.5523 1076 89V76.9348H1074C1072.9 76.9348 1072 76.0394 1072 74.9348V67.5217C1072 66.4172 1072.9 65.5217 1074 65.5217H1076V48C1076 47.4477 1076.45 47 1077 47Z" fill="#0AD397"/>
<path fill-rule="evenodd" clip-rule="evenodd" d="M1195 25C1195.55 25 1196 25.4477 1196 26V30.3225H1198C1199.1 30.3225 1200 31.218 1200 32.3225V51.5713C1200 52.6759 1199.1 53.5713 1198 53.5713H1196V79C1196 79.5523 1195.55 80 1195 80C1194.45 80 1194 79.5523 1194 79V53.5713H1192C1190.9 53.5713 1190 52.6759 1190 51.5713V32.3225C1190 31.218 1190.9 30.3225 1192 30.3225H1194V26C1194 25.4477 1194.45 25 1195 25Z" fill="#98DFCA"/>
<path fill-rule="evenodd" clip-rule="evenodd" d="M1128 53C1128.55 53 1129 53.4477 1129 54V57H1131C1132.1 57 1133 57.8954 1133 59V81C1133 82.1046 1132.1 83 1131 83H1129V95C1129 95.5523 1128.55 96 1128 96C1127.45 96 1127 95.5523 1127 95V83H1125C1123.9 83 1123 82.1046 1123 81V59C1123 57.8954 1123.9 57 1125 57H1127V54C1127 53.4477 1127.45 53 1128 53Z" fill="#0AD397"/>
<path fill-rule="evenodd" clip-rule="evenodd" d="M872 71C872.552 71 873 71.4477 873 72V75H875C876.105 75 877 75.8954 877 77V99C877 100.105 876.105 101 875 101H873V113C873 113.552 872.552 114 872 114C871.448 114 871 113.552 871 113V101H869C867.895 101 867 100.105 867 99V77C867 75.8954 867.895 75 869 75H871V72C871 71.4477 871.448 71 872 71Z" fill="#0AD397"/>
<path fill-rule="evenodd" clip-rule="evenodd" d="M822 69C822.552 69 823 69.4477 823 70V75H825C826.105 75 827 75.8954 827 77V135C827 136.105 826.105 137 825 137H823V146C823 146.552 822.552 147 822 147C821.448 147 821 146.552 821 146V137H819C817.895 137 817 136.105 817 135V77C817 75.8954 817.895 75 819 75H821V70C821 69.4477 821.448 69 822 69Z" fill="#0AD397"/>
<path fill-rule="evenodd" clip-rule="evenodd" d="M854 52C854.552 52 855 52.4477 855 53V83H857C858.105 83 859 83.8954 859 85V108C859 109.105 858.105 110 857 110H855V155C855 155.552 854.552 156 854 156C853.448 156 853 155.552 853 155V110H851C849.895 110 849 109.105 849 108V85C849 83.8954 849.895 83 851 83H853V53C853 52.4477 853.448 52 854 52Z" fill="#0AD397"/>
<path fill-rule="evenodd" clip-rule="evenodd" d="M1145 43C1145.55 43 1146 43.4477 1146 44V47H1148C1149.1 47 1150 47.8954 1150 49V51C1150 52.1046 1149.1 53 1148 53H1146V85C1146 85.5523 1145.55 86 1145 86C1144.45 86 1144 85.5523 1144 85V53H1142C1140.9 53 1140 52.1046 1140 51V49C1140 47.8954 1140.9 47 1142 47H1144V44C1144 43.4477 1144.45 43 1145 43Z" fill="#5CD7B2"/>
<path fill-rule="evenodd" clip-rule="evenodd" d="M957 64.2393C957.552 64.2393 958 64.687 958 65.2393V95.2175H960C961.105 95.2175 962 96.113 962 97.2175V156.804C962 157.909 961.105 158.804 960 158.804H958V167.587C958 168.139 957.552 168.587 957 168.587C956.448 168.587 956 168.139 956 167.587V158.804H954C952.895 158.804 952 157.909 952 156.804V97.2175C952 96.1129 952.895 95.2175 954 95.2175H956V65.2393C956 64.687 956.448 64.2393 957 64.2393Z" fill="#0AD397"/>
<path fill-rule="evenodd" clip-rule="evenodd" d="M974 93.5869C974.552 93.5869 975 94.0346 975 94.5869V108.261H977C978.105 108.261 979 109.156 979 110.261V148.652C979 149.757 978.105 150.652 977 150.652H975V161.065C975 161.617 974.552 162.065 974 162.065C973.448 162.065 973 161.617 973 161.065V150.652H971C969.895 150.652 969 149.757 969 148.652V110.261C969 109.156 969.895 108.261 971 108.261H973V94.5869C973 94.0346 973.448 93.5869 974 93.5869Z" fill="#657599"/>
<path fill-rule="evenodd" clip-rule="evenodd" d="M907 67C907.552 67 908 67.4477 908 68V102H910C911.105 102 912 102.895 912 104V122C912 123.105 911.105 124 910 124H908V134.478C908 135.031 907.552 135.478 907 135.478C906.448 135.478 906 135.031 906 134.478V124H904C902.895 124 902 123.105 902 122V104C902 102.895 902.895 102 904 102H906V68C906 67.4477 906.448 67 907 67Z" fill="#657599"/>
<path fill-rule="evenodd" clip-rule="evenodd" d="M923 66.2393C923.552 66.2393 924 66.687 924 67.2393V80.9132H926C927.105 80.9132 928 81.8086 928 82.9132V166.957C928 168.061 927.105 168.957 926 168.957H924V181C924 181.552 923.552 182 923 182C922.448 182 922 181.552 922 181V168.957H920C918.895 168.957 918 168.061 918 166.957V82.9132C918 81.8086 918.895 80.9132 920 80.9132H922V67.2393C922 66.687 922.448 66.2393 923 66.2393Z" fill="#657599"/>
<path fill-rule="evenodd" clip-rule="evenodd" d="M1026 70.7607C1026.55 70.7607 1027 71.2085 1027 71.7607V100H1029C1030.1 100 1031 100.895 1031 102V133C1031 134.105 1030.1 135 1029 135H1027V138.239C1027 138.791 1026.55 139.239 1026 139.239C1025.45 139.239 1025 138.791 1025 138.239V135H1023C1021.9 135 1021 134.105 1021 133V102C1021 100.895 1021.9 100 1023 100H1025V71.7607C1025 71.2085 1025.45 70.7607 1026 70.7607Z" fill="#657599"/>
<path fill-rule="evenodd" clip-rule="evenodd" d="M1042 103C1042.55 103 1043 103.448 1043 104V107H1045C1046.1 107 1047 107.895 1047 109V132C1047 133.105 1046.1 134 1045 134H1043V138.478C1043 139.031 1042.55 139.478 1042 139.478C1041.45 139.478 1041 139.031 1041 138.478V134H1039C1037.9 134 1037 133.105 1037 132V109C1037 107.895 1037.9 107 1039 107H1041V104C1041 103.448 1041.45 103 1042 103Z" fill="#657599"/>
<path fill-rule="evenodd" clip-rule="evenodd" d="M1094 53C1094.55 53 1095 53.4477 1095 54V59H1097C1098.1 59 1099 59.8954 1099 61V103C1099 104.105 1098.1 105 1097 105H1095V120.478C1095 121.031 1094.55 121.478 1094 121.478C1093.45 121.478 1093 121.031 1093 120.478V105H1091C1089.9 105 1089 104.105 1089 103V61C1089 59.8954 1089.9 59 1091 59H1093V54C1093 53.4477 1093.45 53 1094 53Z" fill="#657599"/>
<path fill-rule="evenodd" clip-rule="evenodd" d="M1161 38C1161.55 38 1162 38.4477 1162 39V44H1164C1165.1 44 1166 44.8954 1166 46V71C1166 72.1046 1165.1 73 1164 73H1162V80C1162 80.5523 1161.55 81 1161 81C1160.45 81 1160 80.5523 1160 80V73H1158C1156.9 73 1156 72.1046 1156 71V46C1156 44.8954 1156.9 44 1158 44H1160V39C1160 38.4477 1160.45 38 1161 38Z" fill="#C3CCDF"/>
<path fill-rule="evenodd" clip-rule="evenodd" d="M1178 50C1178.55 50 1179 50.4477 1179 51V57H1181C1182.1 57 1183 57.8954 1183 59V72C1183 73.1046 1182.1 74 1181 74H1179V81C1179 81.5523 1178.55 82 1178 82C1177.45 82 1177 81.5523 1177 81V74H1175C1173.9 74 1173 73.1046 1173 72V59C1173 57.8954 1173.9 57 1175 57H1177V51C1177 50.4477 1177.45 50 1178 50Z" fill="#C3CCDF"/>
<path fill-rule="evenodd" clip-rule="evenodd" d="M838 71C838.552 71 839 71.4477 839 72V78H841C842.105 78 843 78.8954 843 80V95C843 96.1046 842.105 97 841 97H839V102C839 102.552 838.552 103 838 103C837.448 103 837 102.552 837 102V97H835C833.895 97 833 96.1046 833 95V80C833 78.8954 833.895 78 835 78H837V72C837 71.4477 837.448 71 838 71Z" fill="#657599"/>
<path fill-rule="evenodd" clip-rule="evenodd" d="M889 82C889.552 82 890 82.4477 890 83V103H892C893.105 103 894 103.895 894 105V106C894 107.105 893.105 108 892 108H890V113C890 113.552 889.552 114 889 114C888.448 114 888 113.552 888 113V108H886C884.895 108 884 107.105 884 106V105C884 103.895 884.895 103 886 103H888V83C888 82.4477 888.448 82 889 82Z" fill="#657599"/>
<path fill-rule="evenodd" clip-rule="evenodd" d="M1110 89C1110.55 89 1111 89.4477 1111 90V94.6127H1113C1114.1 94.6127 1115 95.5081 1115 96.6127V97.3587C1115 98.4633 1114.1 99.3587 1113 99.3587H1111V114C1111 114.552 1110.55 115 1110 115C1109.45 115 1109 114.552 1109 114V99.3587H1107C1105.9 99.3587 1105 98.4633 1105 97.3587V96.6127C1105 95.5081 1105.9 94.6127 1107 94.6127H1109V90C1109 89.4477 1109.45 89 1110 89Z" fill="#657599"/>
<path fill-rule="evenodd" clip-rule="evenodd" d="M208 130C207.448 130 207 130.448 207 131V156H205C203.895 156 203 156.895 203 158V247C203 248.105 203.895 249 205 249H207V252.913C207 253.465 207.448 253.913 208 253.913C208.552 253.913 209 253.465 209 252.913V249H211C212.105 249 213 248.105 213 247V158C213 156.895 212.105 156 211 156H209V131C209 130.448 208.552 130 208 130Z" fill="#0AD397"/>
<path fill-rule="evenodd" clip-rule="evenodd" d="M140 197C139.448 197 139 197.448 139 198V209.565H137C135.895 209.565 135 210.46 135 211.565V240.174C135 241.278 135.895 242.174 137 242.174H139V277C139 277.552 139.448 278 140 278C140.552 278 141 277.552 141 277V242.174H143C144.105 242.174 145 241.278 145 240.174V211.565C145 210.46 144.105 209.565 143 209.565H141V198C141 197.448 140.552 197 140 197Z" fill="#0AD397"/>
<path fill-rule="evenodd" clip-rule="evenodd" d="M157 214C156.448 214 156 214.448 156 215V226.565H154C152.895 226.565 152 227.46 152 228.565V257.174C152 258.278 152.895 259.174 154 259.174H156V294C156 294.552 156.448 295 157 295C157.552 295 158 294.552 158 294V259.174H160C161.105 259.174 162 258.278 162 257.174V228.565C162 227.46 161.105 226.565 160 226.565H158V215C158 214.448 157.552 214 157 214Z" fill="#0AD397"/>
<path fill-rule="evenodd" clip-rule="evenodd" d="M192 181C191.448 181 191 181.448 191 182V199H189C187.895 199 187 199.895 187 201V245C187 246.105 187.895 247 189 247H191V261C191 261.552 191.448 262 192 262C192.552 262 193 261.552 193 261V247H195C196.105 247 197 246.105 197 245V201C197 199.895 196.105 199 195 199H193V182C193 181.448 192.552 181 192 181Z" fill="#0AD397"/>
<path fill-rule="evenodd" clip-rule="evenodd" d="M277 177.283C276.448 177.283 276 177.73 276 178.283V184H274C272.895 184 272 184.895 272 186V215C272 216.105 272.895 217 274 217H276V226.826C276 227.378 276.448 227.826 277 227.826C277.552 227.826 278 227.378 278 226.826V217H280C281.105 217 282 216.105 282 215V186C282 184.895 281.105 184 280 184H278V178.283C278 177.73 277.552 177.283 277 177.283Z" fill="#0AD397"/>
<path fill-rule="evenodd" clip-rule="evenodd" d="M124 207C123.448 207 123 207.448 123 208V225.522H121C119.895 225.522 119 226.417 119 227.522V234.935C119 236.039 119.895 236.935 121 236.935H123V249C123 249.552 123.448 250 124 250C124.552 250 125 249.552 125 249V236.935H127C128.105 236.935 129 236.039 129 234.935V227.522C129 226.417 128.105 225.522 127 225.522H125V208C125 207.448 124.552 207 124 207Z" fill="#0AD397"/>
<path fill-rule="evenodd" clip-rule="evenodd" d="M5 227C4.44772 227 4 227.448 4 228V234.522H2C0.895431 234.522 0 235.417 0 236.522V243.935C0 245.039 0.89543 245.935 2 245.935H4V253C4 253.552 4.44772 254 5 254C5.55228 254 6 253.552 6 253V245.935H8C9.10457 245.935 10 245.039 10 243.935V236.522C10 235.417 9.10457 234.522 8 234.522H6V228C6 227.448 5.55228 227 5 227Z" fill="#98DFCA"/>
<path fill-rule="evenodd" clip-rule="evenodd" d="M73 255C72.4477 255 72 255.448 72 256V259H70C68.8954 259 68 259.895 68 261V283C68 284.105 68.8954 285 70 285H72V297C72 297.552 72.4477 298 73 298C73.5523 298 74 297.552 74 297V285H76C77.1046 285 78 284.105 78 283V261C78 259.895 77.1046 259 76 259H74V256C74 255.448 73.5523 255 73 255Z" fill="#3CD9AA"/>
<path fill-rule="evenodd" clip-rule="evenodd" d="M327 171C326.448 171 326 171.448 326 172V175H324C322.895 175 322 175.895 322 177V199C322 200.105 322.895 201 324 201H326V213C326 213.552 326.448 214 327 214C327.552 214 328 213.552 328 213V201H330C331.105 201 332 200.105 332 199V177C332 175.895 331.105 175 330 175H328V172C328 171.448 327.552 171 327 171Z" fill="#0AD397"/>
<path fill-rule="evenodd" clip-rule="evenodd" d="M345 177C344.448 177 344 177.448 344 178V181H342C340.895 181 340 181.895 340 183V205C340 206.105 340.895 207 342 207H344V219C344 219.552 344.448 220 345 220C345.552 220 346 219.552 346 219V207H348C349.105 207 350 206.105 350 205V183C350 181.895 349.105 181 348 181H346V178C346 177.448 345.552 177 345 177Z" fill="#0AD397"/>
<path fill-rule="evenodd" clip-rule="evenodd" d="M396 169C395.448 169 395 169.448 395 170V181H393C391.895 181 391 181.895 391 183V205C391 206.105 391.895 207 393 207H395V211C395 211.552 395.448 212 396 212C396.552 212 397 211.552 397 211V207H399C400.105 207 401 206.105 401 205V183C401 181.895 400.105 181 399 181H397V170C397 169.448 396.552 169 396 169Z" fill="#0AD397"/>
<path fill-rule="evenodd" clip-rule="evenodd" d="M363 152C362.448 152 362 152.448 362 153V183H360C358.895 183 358 183.895 358 185V237C358 238.105 358.895 239 360 239H362V255C362 255.552 362.448 256 363 256C363.552 256 364 255.552 364 255V239H366C367.105 239 368 238.105 368 237V185C368 183.895 367.105 183 366 183H364V153C364 152.448 363.552 152 363 152Z" fill="#0AD397"/>
<path fill-rule="evenodd" clip-rule="evenodd" d="M56 253C55.4477 253 55 253.448 55 254V257H53C51.8954 257 51 257.895 51 259V261C51 262.105 51.8954 263 53 263H55V295C55 295.552 55.4477 296 56 296C56.5523 296 57 295.552 57 295V263H59C60.1046 263 61 262.105 61 261V259C61 257.895 60.1046 257 59 257H57V254C57 253.448 56.5523 253 56 253Z" fill="#55DDB5"/>
<path fill-rule="evenodd" clip-rule="evenodd" d="M260 164.239C259.448 164.239 259 164.687 259 165.239V195.218H257C255.895 195.218 255 196.113 255 197.218V256.804C255 257.909 255.895 258.804 257 258.804H259V267.587C259 268.139 259.448 268.587 260 268.587C260.552 268.587 261 268.139 261 267.587V258.804H263C264.105 258.804 265 257.909 265 256.804V197.218C265 196.113 264.105 195.218 263 195.218H261V165.239C261 164.687 260.552 164.239 260 164.239Z" fill="#0AD397"/>
<path fill-rule="evenodd" clip-rule="evenodd" d="M226 193.587C225.448 193.587 225 194.035 225 194.587V208.261H223C221.895 208.261 221 209.156 221 210.261V248.652C221 249.757 221.895 250.652 223 250.652H225V261.065C225 261.617 225.448 262.065 226 262.065C226.552 262.065 227 261.617 227 261.065V250.652H229C230.105 250.652 231 249.757 231 248.652V210.261C231 209.156 230.105 208.261 229 208.261H227V194.587C227 194.035 226.552 193.587 226 193.587Z" fill="#657599"/>
<path fill-rule="evenodd" clip-rule="evenodd" d="M311 167C310.448 167 310 167.448 310 168V202H308C306.895 202 306 202.895 306 204V222C306 223.105 306.895 224 308 224H310V234.478C310 235.031 310.448 235.478 311 235.478C311.552 235.478 312 235.031 312 234.478V224H314C315.105 224 316 223.105 316 222V204C316 202.895 315.105 202 314 202H312V168C312 167.448 311.552 167 311 167Z" fill="#657599"/>
<path fill-rule="evenodd" clip-rule="evenodd" d="M293 164.239C292.448 164.239 292 164.687 292 165.239V178.913H290C288.895 178.913 288 179.809 288 180.913V264.957C288 266.061 288.895 266.957 290 266.957H292V279C292 279.552 292.448 280 293 280C293.552 280 294 279.552 294 279V266.957H296C297.105 266.957 298 266.061 298 264.957V180.913C298 179.809 297.105 178.913 296 178.913H294V165.239C294 164.687 293.552 164.239 293 164.239Z" fill="#657599"/>
<path fill-rule="evenodd" clip-rule="evenodd" d="M175 231C174.448 231 174 231.448 174 232V245H172C170.895 245 170 245.895 170 247V248C170 249.105 170.895 250 172 250H174V261C174 261.552 174.448 262 175 262C175.552 262 176 261.552 176 261V250H178C179.105 250 180 249.105 180 248V247C180 245.895 179.105 245 178 245H176V232C176 231.448 175.552 231 175 231Z" fill="#657599"/>
<path fill-rule="evenodd" clip-rule="evenodd" d="M243 191C242.448 191 242 191.448 242 192V205H240C238.895 205 238 205.895 238 207V215C238 216.105 238.895 217 240 217H242V221C242 221.552 242.448 222 243 222C243.552 222 244 221.552 244 221V217H246C247.105 217 248 216.105 248 215V207C248 205.895 247.105 205 246 205H244V192C244 191.448 243.552 191 243 191Z" fill="#657599"/>
<path fill-rule="evenodd" clip-rule="evenodd" d="M107 213C106.448 213 106 213.448 106 214V219H104C102.895 219 102 219.895 102 221V263C102 264.105 102.895 265 104 265H106V280.478C106 281.031 106.448 281.478 107 281.478C107.552 281.478 108 281.031 108 280.478V265H110C111.105 265 112 264.105 112 263V221C112 219.895 111.105 219 110 219H108V214C108 213.448 107.552 213 107 213Z" fill="#657599"/>
<path fill-rule="evenodd" clip-rule="evenodd" d="M38 256C37.4477 256 37 256.448 37 257V262H35C33.8954 262 33 262.895 33 264V289C33 290.105 33.8954 291 35 291H37V298C37 298.552 37.4477 299 38 299C38.5523 299 39 298.552 39 298V291H41C42.1046 291 43 290.105 43 289V264C43 262.895 42.1046 262 41 262H39V257C39 256.448 38.5523 256 38 256Z" fill="#C3CCDF"/>
<path fill-rule="evenodd" clip-rule="evenodd" d="M21 245C20.4477 245 20 245.448 20 246V252H18C16.8954 252 16 252.895 16 254V267C16 268.105 16.8954 269 18 269H20V276C20 276.552 20.4477 277 21 277C21.5523 277 22 276.552 22 276V269H24C25.1046 269 26 268.105 26 267V254C26 252.895 25.1046 252 24 252H22V246C22 245.448 21.5523 245 21 245Z" fill="#CCD5EA"/>
<path fill-rule="evenodd" clip-rule="evenodd" d="M380 171C379.448 171 379 171.448 379 172V178H377C375.895 178 375 178.895 375 180V193C375 194.105 375.895 195 377 195H379V202C379 202.552 379.448 203 380 203C380.552 203 381 202.552 381 202V195H383C384.105 195 385 194.105 385 193V180C385 178.895 384.105 178 383 178H381V172C381 171.448 380.552 171 380 171Z" fill="#657599"/>
<path fill-rule="evenodd" clip-rule="evenodd" d="M90 240C89.4477 240 89 240.448 89 241V284.613H87C85.8954 284.613 85 285.508 85 286.613V287.359C85 288.463 85.8954 289.359 87 289.359H89V304C89 304.552 89.4477 305 90 305C90.5523 305 91 304.552 91 304V289.359H93C94.1046 289.359 95 288.463 95 287.359V286.613C95 285.508 94.1046 284.613 93 284.613H91V241C91 240.448 90.5523 240 90 240Z" fill="#657599"/>
<path fill-rule="evenodd" clip-rule="evenodd" d="M617 90C616.448 90 616 90.4477 616 91V116H614C612.895 116 612 116.895 612 118V207C612 208.105 612.895 209 614 209H616V212.913C616 213.465 616.448 213.913 617 213.913C617.552 213.913 618 213.465 618 212.913V209H620C621.105 209 622 208.105 622 207V118C622 116.895 621.105 116 620 116H618V91C618 90.4477 617.552 90 617 90Z" fill="#0AD397"/>
<path fill-rule="evenodd" clip-rule="evenodd" d="M549 97C548.448 97 548 97.4477 548 98V109.565H546C544.895 109.565 544 110.46 544 111.565V140.174C544 141.278 544.895 142.174 546 142.174H548V177C548 177.552 548.448 178 549 178C549.552 178 550 177.552 550 177V142.174H552C553.105 142.174 554 141.278 554 140.174V111.565C554 110.46 553.105 109.565 552 109.565H550V98C550 97.4477 549.552 97 549 97Z" fill="#0AD397"/>
<path fill-rule="evenodd" clip-rule="evenodd" d="M582 141C581.448 141 581 141.448 581 142V159H579C577.895 159 577 159.895 577 161V205C577 206.105 577.895 207 579 207H581V221C581 221.552 581.448 222 582 222C582.552 222 583 221.552 583 221V207H585C586.105 207 587 206.105 587 205V161C587 159.895 586.105 159 585 159H583V142C583 141.448 582.552 141 582 141Z" fill="#657599"/>
<path fill-rule="evenodd" clip-rule="evenodd" d="M600 114C599.448 114 599 114.448 599 115V132H597C595.895 132 595 132.895 595 134V178C595 179.105 595.895 180 597 180H599V194C599 194.552 599.448 195 600 195C600.552 195 601 194.552 601 194V180H603C604.105 180 605 179.105 605 178V134C605 132.895 604.105 132 603 132H601V115C601 114.448 600.552 114 600 114Z" fill="#0AD397"/>
<path fill-rule="evenodd" clip-rule="evenodd" d="M685 139C684.448 139 684 139.448 684 140V145.522H682C680.895 145.522 680 146.417 680 147.522V154.935C680 156.039 680.895 156.935 682 156.935H684V188.543C684 189.096 684.448 189.543 685 189.543C685.552 189.543 686 189.096 686 188.543V156.935H688C689.105 156.935 690 156.039 690 154.935V147.522C690 146.417 689.105 145.522 688 145.522H686V140C686 139.448 685.552 139 685 139Z" fill="#0AD397"/>
<path fill-rule="evenodd" clip-rule="evenodd" d="M702 124C701.448 124 701 124.448 701 125V146H699C697.895 146 697 146.895 697 148V182C697 183.105 697.895 184 699 184H701V189C701 189.552 701.448 190 702 190C702.552 190 703 189.552 703 189V184H705C706.105 184 707 183.105 707 182V148C707 146.895 706.105 146 705 146H703V125C703 124.448 702.552 124 702 124Z" fill="#0AD397"/>
<path fill-rule="evenodd" clip-rule="evenodd" d="M532 107C531.448 107 531 107.448 531 108V125.522H529C527.895 125.522 527 126.417 527 127.522V134.935C527 136.039 527.895 136.935 529 136.935H531V149C531 149.552 531.448 150 532 150C532.552 150 533 149.552 533 149V136.935H535C536.105 136.935 537 136.039 537 134.935V127.522C537 126.417 536.105 125.522 535 125.522H533V108C533 107.448 532.552 107 532 107Z" fill="#0AD397"/>
<path fill-rule="evenodd" clip-rule="evenodd" d="M413 127C412.448 127 412 127.448 412 128V132H410C408.895 132 408 132.895 408 134V185C408 186.105 408.895 187 410 187H412V211C412 211.552 412.448 212 413 212C413.552 212 414 211.552 414 211V187H416C417.105 187 418 186.105 418 185V134C418 132.895 417.105 132 416 132H414V128C414 127.448 413.552 127 413 127Z" fill="#0AD397"/>
<path fill-rule="evenodd" clip-rule="evenodd" d="M482 103C481.448 103 481 103.448 481 104V107H479C477.895 107 477 107.895 477 109V131C477 132.105 477.895 133 479 133H481V145C481 145.552 481.448 146 482 146C482.552 146 483 145.552 483 145V133H485C486.105 133 487 132.105 487 131V109C487 107.895 486.105 107 485 107H483V104C483 103.448 482.552 103 482 103Z" fill="#0AD397"/>
<path fill-rule="evenodd" clip-rule="evenodd" d="M753 131C752.448 131 752 131.448 752 132V135H750C748.895 135 748 135.895 748 137V159C748 160.105 748.895 161 750 161H752V173C752 173.552 752.448 174 753 174C753.552 174 754 173.552 754 173V161H756C757.105 161 758 160.105 758 159V137C758 135.895 757.105 135 756 135H754V132C754 131.448 753.552 131 753 131Z" fill="#0AD397"/>
<path fill-rule="evenodd" clip-rule="evenodd" d="M804 119C803.448 119 803 119.448 803 120V125H801C799.895 125 799 125.895 799 127V147C799 148.105 799.895 149 801 149H803V161C803 161.552 803.448 162 804 162C804.552 162 805 161.552 805 161V149H807C808.105 149 809 148.105 809 147V127C809 125.895 808.105 125 807 125H805V120C805 119.448 804.552 119 804 119Z" fill="#0AD397"/>
<path fill-rule="evenodd" clip-rule="evenodd" d="M770 112C769.448 112 769 112.448 769 113V143H767C765.895 143 765 143.895 765 145V197C765 198.105 765.895 199 767 199H769V215C769 215.552 769.448 216 770 216C770.552 216 771 215.552 771 215V199H773C774.105 199 775 198.105 775 197V145C775 143.895 774.105 143 773 143H771V113C771 112.448 770.552 112 770 112Z" fill="#0AD397"/>
<path fill-rule="evenodd" clip-rule="evenodd" d="M464 103C463.448 103 463 103.448 463 104V107H461C459.895 107 459 107.895 459 109V122C459 123.105 459.895 124 461 124H463V145C463 145.552 463.448 146 464 146C464.552 146 465 145.552 465 145V124H467C468.105 124 469 123.105 469 122V109C469 107.895 468.105 107 467 107H465V104C465 103.448 464.552 103 464 103Z" fill="#0AD397"/>
<path fill-rule="evenodd" clip-rule="evenodd" d="M668 124.239C667.448 124.239 667 124.687 667 125.239V155.218H665C663.895 155.218 663 156.113 663 157.218V216.804C663 217.909 663.895 218.804 665 218.804H667V227.587C667 228.139 667.448 228.587 668 228.587C668.552 228.587 669 228.139 669 227.587V218.804H671C672.105 218.804 673 217.909 673 216.804V157.218C673 156.113 672.105 155.218 671 155.218H669V125.239C669 124.687 668.552 124.239 668 124.239Z" fill="#0AD397"/>
<path fill-rule="evenodd" clip-rule="evenodd" d="M634 153.587C633.448 153.587 633 154.035 633 154.587V168.261H631C629.895 168.261 629 169.156 629 170.261V208.652C629 209.757 629.895 210.652 631 210.652H633V221.065C633 221.617 633.448 222.065 634 222.065C634.552 222.065 635 221.617 635 221.065V210.652H637C638.105 210.652 639 209.757 639 208.652V170.261C639 169.156 638.105 168.261 637 168.261H635V154.587C635 154.035 634.552 153.587 634 153.587Z" fill="#657599"/>
<path fill-rule="evenodd" clip-rule="evenodd" d="M735 127C734.448 127 734 127.448 734 128V162H732C730.895 162 730 162.895 730 164V182C730 183.105 730.895 184 732 184H734V194.478C734 195.031 734.448 195.478 735 195.478C735.552 195.478 736 195.031 736 194.478V184H738C739.105 184 740 183.105 740 182V164C740 162.895 739.105 162 738 162H736V128C736 127.448 735.552 127 735 127Z" fill="#657599"/>
<path fill-rule="evenodd" clip-rule="evenodd" d="M720 124.239C719.448 124.239 719 124.687 719 125.239V138.913H717C715.895 138.913 715 139.809 715 140.913V224.957C715 226.061 715.895 226.957 717 226.957H719V239C719 239.552 719.448 240 720 240C720.552 240 721 239.552 721 239V226.957H723C724.105 226.957 725 226.061 725 224.957V140.913C725 139.809 724.105 138.913 723 138.913H721V125.239C721 124.687 720.552 124.239 720 124.239Z" fill="#657599"/>
<path fill-rule="evenodd" clip-rule="evenodd" d="M565 131C564.448 131 564 131.448 564 132V137H562C560.895 137 560 137.895 560 139V148C560 149.105 560.895 150 562 150H564V153C564 153.552 564.448 154 565 154C565.552 154 566 153.552 566 153V150H568C569.105 150 570 149.105 570 148V139C570 137.895 569.105 137 568 137H566V132C566 131.448 565.552 131 565 131Z" fill="#657599"/>
<path fill-rule="evenodd" clip-rule="evenodd" d="M651 158C650.448 158 650 158.448 650 159V172H648C646.895 172 646 172.895 646 174V175C646 176.105 646.895 177 648 177H650V180C650 180.552 650.448 181 651 181C651.552 181 652 180.552 652 180V177H654C655.105 177 656 176.105 656 175V174C656 172.895 655.105 172 654 172H652V159C652 158.448 651.552 158 651 158Z" fill="#657599"/>
<path fill-rule="evenodd" clip-rule="evenodd" d="M515 113C514.448 113 514 113.448 514 114V119H512C510.895 119 510 119.895 510 121V163C510 164.105 510.895 165 512 165H514V180.478C514 181.031 514.448 181.478 515 181.478C515.552 181.478 516 181.031 516 180.478V165H518C519.105 165 520 164.105 520 163V121C520 119.895 519.105 119 518 119H516V114C516 113.448 515.552 113 515 113Z" fill="#657599"/>
<path fill-rule="evenodd" clip-rule="evenodd" d="M447 103C446.448 103 446 103.448 446 104V109H444C442.895 109 442 109.895 442 111V136C442 137.105 442.895 138 444 138H446V145C446 145.552 446.448 146 447 146C447.552 146 448 145.552 448 145V138H450C451.105 138 452 137.105 452 136V111C452 109.895 451.105 109 450 109H448V104C448 103.448 447.552 103 447 103Z" fill="#657599"/>
<path fill-rule="evenodd" clip-rule="evenodd" d="M431 124C430.448 124 430 124.448 430 125V131H428C426.895 131 426 131.895 426 133V146C426 147.105 426.895 148 428 148H430V155C430 155.552 430.448 156 431 156C431.552 156 432 155.552 432 155V148H434C435.105 148 436 147.105 436 146V133C436 131.895 435.105 131 434 131H432V125C432 124.448 431.552 124 431 124Z" fill="#657599"/>
<path fill-rule="evenodd" clip-rule="evenodd" d="M787 131C786.448 131 786 131.448 786 132V138H784C782.895 138 782 138.895 782 140V159C782 160.105 782.895 161 784 161H786V187C786 187.552 786.448 188 787 188C787.552 188 788 187.552 788 187V161H790C791.105 161 792 160.105 792 159V140C792 138.895 791.105 138 790 138H788V132C788 131.448 787.552 131 787 131Z" fill="#657599"/>
<path fill-rule="evenodd" clip-rule="evenodd" d="M499 110C498.448 110 498 110.448 498 111V154.613H496C494.895 154.613 494 155.508 494 156.613V157.359C494 158.463 494.895 159.359 496 159.359H498V174C498 174.552 498.448 175 499 175C499.552 175 500 174.552 500 174V159.359H502C503.105 159.359 504 158.463 504 157.359V156.613C504 155.508 503.105 154.613 502 154.613H500V111C500 110.448 499.552 110 499 110Z" fill="#657599"/>
</svg>
