<svg width="31" height="20" viewBox="0 0 31 20" fill="none" xmlns="http://www.w3.org/2000/svg">
<path d="M0 0H30.09V20H0V0Z" fill="#D60A2E"/>
<path d="M3.84768 3.55005L4.86726 5.61606L7.14698 5.94725L5.49719 7.55536L5.88684 9.82613L3.84768 8.75396L1.80824 9.82613L2.19789 7.55536L0.548096 5.94725L2.82782 5.61606L3.84768 3.55005Z" fill="#FED953"/>
<path d="M9.88692 7.51538L10.2945 8.34084L11.2055 8.47314L10.5462 9.11594L10.7018 10.0231L9.88692 9.59482L9.0721 10.0231L9.22762 9.11594L8.5686 8.47314L9.47965 8.34084L9.88692 7.51538Z" fill="#FED953"/>
<path d="M9.40457 3.90601L10.1492 4.44754L11.0172 4.14125L10.7321 5.01678L11.2918 5.74768L10.3713 5.74713L9.84877 6.50517L9.56485 5.62936L8.68262 5.36698L9.42751 4.82628L9.40457 3.90601Z" fill="#FED953"/>
<path d="M8.21058 1.41509L8.0366 2.31914L8.68275 2.97509L7.76918 3.08893L7.34513 3.906L6.95464 3.07243L6.04639 2.92138L6.71855 2.29229L6.58121 1.38208L7.38737 1.82684L8.21058 1.41509Z" fill="#FED953"/>
<path d="M8.21058 10.6773L8.0366 11.5814L8.68275 12.237L7.76918 12.3509L7.34513 13.1679L6.95464 12.3344L6.04639 12.1836L6.71855 11.5545L6.58121 10.6443L7.38737 11.089L8.21058 10.6773Z" fill="#FED953"/>
</svg>
