<svg width="260" height="116" viewBox="0 0 260 116" fill="none" xmlns="http://www.w3.org/2000/svg">
<path d="M168.2 61.1181C167.808 61.1181 167.471 61.2582 167.188 61.54C166.909 61.8221 166.766 62.1551 166.766 62.5408C166.766 63.1286 167.064 63.5859 167.656 63.9126C168.306 64.09 168.828 63.9745 169.221 63.5724C169.506 63.2886 169.645 62.9483 169.645 62.5518C169.645 62.1515 169.506 61.8168 169.221 61.5401C168.939 61.261 168.601 61.1219 168.199 61.1219V61.1182H168.2V61.1181ZM145.142 50.211H144.072C143.61 50.211 143.234 50.583 143.234 51.0461V51.6428C142.098 50.4593 140.808 49.867 139.368 49.867C137.707 49.867 136.321 50.4856 135.214 51.7192C134.105 52.9527 133.554 54.4956 133.554 56.3458C133.554 58.228 134.106 59.8027 135.212 61.0616C136.33 62.2959 137.739 62.9118 139.447 62.9118C140.797 62.9118 142.06 62.3605 143.235 61.2607V62.4405C143.235 63.0136 143.701 63.4794 144.273 63.4794H146.098V51.1672C146.098 50.6404 145.67 50.211 145.142 50.211H145.142ZM142.439 59.2724C141.786 59.9993 140.935 60.3622 139.877 60.3622C138.888 60.3622 138.067 59.9883 137.418 59.2351C136.784 58.4936 136.468 57.5276 136.468 56.3441C136.468 55.238 136.794 54.3065 137.443 53.5552C138.101 52.8109 138.921 52.4417 139.902 52.4417C140.942 52.4417 141.786 52.8092 142.436 53.5479C143.088 54.2993 143.414 55.2526 143.414 56.4098C143.414 57.5677 143.088 58.522 142.436 59.2742H142.439V59.2724H142.439ZM133.552 52.2951V51.0752C133.552 50.5967 133.166 50.2128 132.689 50.2128H131.562C131.087 50.2128 130.7 50.5949 130.7 51.0734V51.6046C129.669 50.4475 128.376 49.8671 126.822 49.8671C125.047 49.8671 123.617 50.5376 122.537 51.8703C121.53 53.1274 121.028 54.6575 121.028 56.4587C121.028 58.3082 121.57 59.8528 122.652 61.0854C123.725 62.3053 125.102 62.9102 126.784 62.9102C128.262 62.9102 129.568 62.3336 130.7 61.1754V62.8993C130.7 65.461 129.657 66.7418 127.571 66.7418C126.438 66.7418 125.577 66.3562 124.986 65.5865C124.835 65.3919 124.71 65.1499 124.61 64.8579C124.47 64.4494 124.082 64.1784 123.652 64.1784H122.572C122.027 64.1784 121.622 64.6969 121.759 65.2245C122.055 66.3488 122.626 67.2622 123.476 67.9681C124.54 68.8558 125.898 69.2998 127.544 69.2998C129.496 69.2998 131.03 68.6576 132.146 67.375C132.738 66.7073 133.133 65.9086 133.337 64.9788C133.404 64.644 133.458 64.2502 133.495 63.8053C133.532 63.3632 133.551 62.8501 133.551 62.2662V60.4721C132.753 59.3223 132.351 57.9477 132.351 56.3458C132.351 54.7712 132.752 53.4257 133.551 52.295H133.552L133.552 52.2951ZM129.939 59.175C129.306 59.9674 128.445 60.3621 127.354 60.3621C126.264 60.3621 125.41 59.9709 124.792 59.1823C124.227 58.4655 123.944 57.543 123.944 56.4205C123.944 55.2779 124.227 54.3483 124.792 53.6316C125.419 52.83 126.271 52.429 127.354 52.429C128.367 52.429 129.2 52.7964 129.85 53.5305C130.492 54.2483 130.815 55.2072 130.815 56.4089C130.815 57.5323 130.522 58.4528 129.939 59.1733V59.1752L129.939 59.175ZM157.261 50.2201V50.211H151.346V46.5886C151.346 46.1228 150.969 45.7462 150.502 45.7462H149.348C148.877 45.7462 148.495 46.1283 148.495 46.5995V50.211H147.277V52.87H148.494V63.4778H150.12C150.798 63.4778 151.344 62.9319 151.344 62.2533V52.8718H154.269C154.5 52.4307 154.779 52.024 155.112 51.6519C155.718 50.9896 156.435 50.513 157.259 50.2202H157.261L157.261 50.2201ZM171.814 45.7462C171.308 45.7462 170.873 45.9291 170.509 46.2939C170.147 46.6568 169.963 47.0889 169.963 47.5865C169.963 48.1115 170.145 48.5517 170.509 48.9184C170.873 49.2813 171.313 49.4624 171.828 49.4624C172.344 49.4624 172.779 49.2814 173.131 48.9165C173.495 48.55 173.678 48.1151 173.678 47.5984C173.678 47.0837 173.496 46.647 173.132 46.294C172.766 45.9274 172.327 45.7446 171.812 45.7446L171.814 45.7463V45.7462ZM172.391 51.6101H171.357C170.827 51.6101 170.394 52.0377 170.394 52.5725V61.6257C170.613 61.8823 170.717 62.1852 170.717 62.5345C170.717 62.8838 170.615 63.1896 170.394 63.447V63.9566H172.23C172.792 63.9566 173.247 63.4999 173.247 62.9375V52.4617C173.247 51.9903 172.863 51.6084 172.39 51.6084L172.391 51.6103L172.391 51.6101ZM185.795 53.3567C184.511 52.0995 182.947 51.47 181.105 51.47C179.271 51.47 177.715 52.0941 176.44 53.3477C175.165 54.5957 174.526 56.1131 174.526 57.8961C174.526 59.7873 175.15 61.3619 176.402 62.6128C177.654 63.88 179.206 64.5131 181.054 64.5131C182.921 64.5131 184.496 63.8927 185.782 62.65C187.054 61.3965 187.695 59.8492 187.695 57.9981C187.695 56.1632 187.062 54.6167 185.795 53.3568V53.3567ZM183.778 60.8871C183.112 61.6066 182.22 61.9623 181.103 61.9623C179.995 61.9623 179.106 61.6012 178.429 60.8724C177.77 60.1557 177.439 59.1769 177.439 57.9451C177.439 56.7971 177.779 55.8584 178.454 55.1324C179.131 54.4046 180.013 54.0416 181.105 54.0416C182.21 54.0416 183.103 54.4046 183.777 55.1324C184.445 55.8492 184.78 56.808 184.78 58.0071C184.78 59.2097 184.444 60.1675 183.778 60.8852V60.8889V60.8871H183.778Z" fill="#DE5959"/>
<path d="M158.323 60.3884C157.735 59.7935 157.407 58.982 157.331 57.9669H165.506C165.879 57.9669 166.186 57.6685 166.192 57.2965C166.192 55.2561 165.668 53.6677 164.621 52.5178C163.563 51.3599 162.123 50.7812 160.31 50.7812C158.512 50.7812 157.066 51.377 155.976 52.5688C154.894 53.7786 154.354 55.3569 154.354 57.31C154.354 59.2776 154.913 60.8587 156.025 62.0495C156.804 62.8781 157.758 63.4139 158.891 63.6632C159.366 63.775 159.858 63.8342 160.355 63.8269C162.386 63.8688 164.152 63.9106 166.183 63.9525L166.186 63.6541C165.938 63.384 165.813 63.0575 165.813 62.679C165.813 62.3097 165.943 61.9922 166.197 61.7175L166.199 61.3564C164.598 61.3163 160.716 61.2781 160.561 61.2781C159.651 61.2781 158.904 60.9843 158.323 60.3904V60.3885L158.323 60.3884ZM157.926 54.6866C158.105 54.4062 158.317 54.1698 158.568 53.9715C158.82 53.7695 159.093 53.6203 159.398 53.5149C159.702 53.4093 160.028 53.3565 160.377 53.3565C161.894 53.3565 162.855 54.1153 163.255 55.6363H157.522C157.615 55.2814 157.75 54.965 157.926 54.6848V54.6866H157.926Z" fill="#DE5959"/>
<path d="M81.0555 56.6273L80.6037 56.1726C80.2617 55.831 79.6741 56.0729 79.6741 56.5573V63.0521C79.6741 63.352 79.9202 63.5961 80.2209 63.5961H86.7173C87.2017 63.5961 87.4454 63.0094 87.1011 62.6683C86.8887 62.4559 86.8887 62.112 87.1011 61.9001L94.0107 54.9692C94.2235 54.7581 94.2235 54.4142 94.0107 54.2009L93.3812 53.5737C93.0391 53.2321 93.2829 52.6453 93.7659 52.6453H100.258C100.559 52.6453 100.804 52.8891 100.804 53.1893V59.6835C100.804 60.1679 100.215 60.4104 99.8727 60.0683L99.4351 59.6308C99.2213 59.4125 98.8775 59.4125 98.6682 59.6308L87.0187 71.2748C86.8073 71.4867 86.4639 71.4867 86.2497 71.2748L71.9973 57.0223C71.783 56.808 71.783 56.4637 71.9973 56.2508L91.7274 36.5215C91.9394 36.3091 91.9394 35.9626 91.7274 35.7511L87.088 31.1122C86.8756 30.9007 86.5317 30.9007 86.3184 31.1122L60.7763 56.6553C60.5648 56.8677 60.5648 57.2142 60.7763 57.4256L86.3158 82.965C86.5282 83.1761 86.8749 83.1761 87.0863 82.965L112.625 57.4256C112.836 57.2133 112.836 56.8686 112.625 56.657L97.5994 41.6316C97.3893 41.4202 97.0436 41.4202 96.8307 41.6316L81.8287 56.6275C81.6144 56.8418 81.2698 56.8418 81.0555 56.6275V56.6273Z" fill="#DE5959"/>
</svg>
