<svg width="19" height="19" viewBox="0 0 19 19" fill="none" xmlns="http://www.w3.org/2000/svg">
<path d="M15.3638 2.73629C13.6646 1.03704 11.4045 0.100098 9 0.100098C6.59552 0.100098 4.33545 1.03704 2.63619 2.73629C0.93694 4.43555 0 6.69562 0 9.1001C0 11.5046 0.93694 13.7647 2.63619 15.4639C4.33545 17.1632 6.59552 18.1001 9 18.1001C11.4045 18.1001 13.6646 17.1632 15.3638 15.4639C17.0631 13.7647 18 11.5046 18 9.1001C18 6.69562 17.0631 4.43555 15.3638 2.73629ZM17.1134 8.66353H13.856C13.8325 6.9945 13.4765 5.38592 12.8418 3.94861C13.4631 3.76055 14.0608 3.52547 14.6351 3.24338C14.672 3.28032 14.709 3.31726 14.7493 3.3542C16.1765 4.7848 17.0093 6.65532 17.1134 8.66353ZM9.24515 17.0557C8.39552 16.3605 7.67351 15.4908 7.10597 14.4967C7.72724 14.4027 8.35858 14.3557 9 14.3557C9.82612 14.3557 10.6388 14.4363 11.428 14.5908C10.8437 15.5512 10.1049 16.3908 9.24515 17.0557ZM12.3146 14.799C12.9224 14.9702 13.5134 15.1852 14.0743 15.4471C13.0433 16.2766 11.8377 16.8307 10.5481 17.0792C11.2332 16.421 11.8276 15.6486 12.3146 14.799ZM8.07313 17.1732C6.54851 17.002 5.12127 16.4076 3.92575 15.4471C4.64776 15.1113 5.41343 14.8494 6.20597 14.6647C6.7097 15.6049 7.33769 16.4546 8.07313 17.1732ZM9 13.4792C8.21754 13.4792 7.44179 13.5464 6.68955 13.6773C6.1153 12.4214 5.77276 11.0109 5.7056 9.53666H12.966C12.8787 11.0579 12.4925 12.5087 11.8679 13.7882C10.9377 13.5833 9.97724 13.4792 9 13.4792ZM5.69552 8.66353C5.73918 7.11876 6.08843 5.63107 6.69291 4.31129C7.44515 4.44226 8.21754 4.50943 9 4.50943C10.0209 4.50943 11.025 4.39525 11.9888 4.17361C12.6101 5.53368 12.9593 7.06838 12.9828 8.66017H5.69552V8.66353ZM9.21157 0.97659C9.36604 0.979948 9.51716 0.990023 9.67164 1.0001C10.4239 1.66502 11.0687 2.46764 11.5791 3.37099C10.7463 3.54562 9.87985 3.63629 9 3.63629C8.36194 3.63629 7.7306 3.58928 7.11269 3.49525C7.67015 2.52472 8.37537 1.66502 9.21157 0.97659ZM6.20933 3.32398C5.47388 3.15607 4.7653 2.91763 4.09366 2.61875C5.19515 1.78256 6.47799 1.24525 7.84813 1.05383C7.21007 1.72211 6.65933 2.48778 6.20933 3.32398ZM11.1493 1.25868C12.1433 1.53069 13.0769 1.99077 13.903 2.61875C13.4362 2.82696 12.9493 3.00495 12.4489 3.14935C12.0828 2.46764 11.6463 1.83293 11.1493 1.25868ZM3.2541 3.3542C3.29104 3.31726 3.32799 3.28032 3.36828 3.24338C4.14403 3.62286 4.96679 3.91838 5.82313 4.12995C5.2153 5.51689 4.8694 7.06167 4.82575 8.66353H0.886567C0.990672 6.65532 1.82351 4.7848 3.2541 3.3542ZM0.886567 9.53666H4.83246C4.89627 11.068 5.24216 12.5389 5.81978 13.862C4.91306 14.087 4.04328 14.4061 3.22724 14.8191C1.81007 13.3885 0.990672 11.5281 0.886567 9.53666ZM14.7761 14.8158C14.1246 14.4867 13.4396 14.218 12.7276 14.0064C13.3657 12.6497 13.7552 11.1251 13.8392 9.53666H17.1134C17.0093 11.5281 16.1899 13.3885 14.7761 14.8158Z" fill="#D5DAED"/>
<path fill-rule="evenodd" clip-rule="evenodd" d="M2.66548 2.66548C4.38348 0.947486 6.66899 0 9.1 0C11.531 0 13.8165 0.947486 15.5345 2.66548C17.2525 4.38348 18.2 6.66899 18.2 9.1C18.2 11.531 17.2525 13.8165 15.5345 15.5345C13.8165 17.2525 11.531 18.2 9.1 18.2C6.66899 18.2 4.38348 17.2525 2.66548 15.5345C0.947486 13.8165 0 11.531 0 9.1C0 6.66899 0.947486 4.38348 2.66548 2.66548ZM9.1 0.2C6.72206 0.2 4.48742 1.12639 2.8069 2.8069C1.12639 4.48742 0.2 6.72206 0.2 9.1C0.2 11.4779 1.12639 13.7126 2.8069 15.3931C4.48742 17.0736 6.72206 18 9.1 18C11.4779 18 13.7126 17.0736 15.3931 15.3931C17.0736 13.7126 18 11.4779 18 9.1C18 6.72206 17.0736 4.48742 15.3931 2.8069C13.7126 1.12639 11.4779 0.2 9.1 0.2ZM9.27665 0.87571L9.31374 0.876516C9.4657 0.87982 9.61422 0.889513 9.76319 0.899236L9.81226 0.902437L9.83787 0.925075C10.5988 1.59765 11.2505 2.40906 11.7662 3.3217L11.8334 3.44071L11.6996 3.46877C10.86 3.64482 9.98669 3.73619 9.1 3.73619C8.45704 3.73619 7.82066 3.68882 7.19764 3.59401L7.0532 3.57203L7.12597 3.44534C7.68882 2.46544 8.4016 1.59613 9.24801 0.899291L9.27665 0.87571ZM9.34646 1.0774C8.56954 1.72307 7.90713 2.51969 7.3738 3.4176C7.93993 3.49665 8.51706 3.53619 9.1 3.53619C9.92548 3.53619 10.7389 3.45575 11.5234 3.30057C11.0354 2.46532 10.4304 1.72081 9.73091 1.09756C9.60073 1.08907 9.47442 1.08107 9.34646 1.0774ZM8.21892 0.91493L8.02046 1.12279C7.38888 1.78428 6.84334 2.54259 6.39739 3.37127L6.3613 3.43832L6.28707 3.42137C5.54519 3.25199 4.83045 3.01149 4.153 2.71002L3.99849 2.64126L4.13319 2.53901C5.24817 1.69258 6.54703 1.1485 7.9343 0.954693L8.21892 0.91493ZM4.39188 2.596C4.98795 2.85059 5.61224 3.05734 6.25774 3.20927C6.65738 2.47871 7.13384 1.80217 7.67836 1.19761C6.48817 1.40781 5.37107 1.8847 4.39188 2.596ZM10.9584 1.07531L11.2756 1.16213C12.282 1.43752 13.2272 1.90331 14.0635 2.53905L14.1979 2.64121L14.0437 2.70998C13.5727 2.92009 13.0814 3.09966 12.5766 3.24533L12.499 3.26773L12.4608 3.19656C12.0982 2.52123 11.6658 1.89263 11.1736 1.32402L10.9584 1.07531ZM11.5388 1.44855C11.936 1.93871 12.291 2.46856 12.5983 3.0306C13.0114 2.90818 13.4149 2.76266 13.8049 2.59601C13.1129 2.09289 12.3484 1.70654 11.5388 1.44855ZM14.7552 3.12198L14.8058 3.17257C14.8429 3.20972 14.8784 3.24514 14.9168 3.28039L14.9201 3.28341C16.3647 4.73139 17.2079 6.62526 17.3133 8.65826L17.3188 8.76343H13.8574L13.856 8.66484C13.8327 7.00903 13.4795 5.41373 12.8503 3.9889L12.8047 3.88553L12.9128 3.8528C13.529 3.66629 14.1217 3.43319 14.691 3.15353L14.7552 3.12198ZM3.45097 3.12349L3.51223 3.15346C4.2813 3.52967 5.09734 3.82283 5.94712 4.03277L6.06238 4.06125L6.01472 4.16999C5.41221 5.54479 5.06902 7.07683 5.02571 8.66616L5.02306 8.76343H0.881249L0.886701 8.65826C0.992091 6.62525 1.83538 4.73141 3.28339 3.28339C3.31994 3.24685 3.35881 3.20798 3.40071 3.16957L3.45097 3.12349ZM3.48679 3.36343C3.46611 3.38353 3.44573 3.4039 3.42482 3.42482C2.03664 4.81299 1.21855 6.61995 1.09257 8.56343H4.82881C4.88245 7.02528 5.21268 5.54076 5.7847 4.19811C4.9857 3.99305 4.21608 3.71486 3.48679 3.36343ZM13.0782 4.01117C13.678 5.40609 14.019 6.95612 14.0542 8.56343H17.1074C16.9815 6.62067 16.164 4.81428 14.78 3.42629C14.7574 3.40549 14.7358 3.38476 14.715 3.36432C14.1888 3.61887 13.6431 3.83449 13.0782 4.01117ZM12.1459 4.05777L12.1798 4.13196C12.8069 5.50488 13.1591 7.05326 13.1828 8.6586L13.1843 8.76008H5.79552V8.66485L5.69552 8.66343V8.56007H5.69883C5.75487 7.03818 6.10494 5.57313 6.70199 4.26955L6.7341 4.19945L6.81006 4.21268C7.5566 4.34265 8.32325 4.40933 9.1 4.40933C10.1135 4.40933 11.11 4.29598 12.0664 4.07605L12.1459 4.05777ZM5.89897 8.56007H12.9809C12.9452 7.04693 12.6128 5.58885 12.0313 4.28908C11.0845 4.50054 10.1002 4.60933 9.1 4.60933C8.33826 4.60933 7.58591 4.54614 6.85211 4.42278C6.28648 5.68225 5.9539 7.09368 5.89897 8.56007ZM0.881203 9.43657H5.02838L5.03238 9.5324C5.09567 11.0515 5.43879 12.5102 6.01142 13.8219L6.05881 13.9305L5.94386 13.959C5.04408 14.1823 4.18141 14.4988 3.3724 14.9083L3.30744 14.9411L3.2562 14.8894C1.82176 13.4414 0.99209 11.5577 0.886704 9.54179L0.881203 9.43657ZM1.09261 9.63657C1.21678 11.5399 2.00357 13.3162 3.34751 14.6969C4.11712 14.3134 4.93307 14.0124 5.78155 13.7938C5.23876 12.5153 4.90936 11.1042 4.83691 9.63657H1.09261ZM5.70094 9.43657H13.1719L13.1659 9.5423C13.0778 11.0767 12.6883 12.5404 12.0578 13.8319L12.0233 13.9026L11.9464 13.8857C11.0234 13.6825 10.0701 13.5791 9.1 13.5791C8.32323 13.5791 7.55322 13.6458 6.8067 13.7758L6.73069 13.789L6.69861 13.7188C6.11888 12.4509 5.77343 11.0278 5.7057 9.54112L5.70094 9.43657ZM5.91073 9.63657C5.98694 11.0332 6.31247 12.3691 6.8488 13.5657C7.58283 13.4423 8.3383 13.3791 9.1 13.3791C10.0573 13.3791 10.9989 13.4783 11.9122 13.6736C12.4966 12.4533 12.8635 11.0783 12.9596 9.63657H5.91073ZM13.8443 9.43657H17.3188L17.3133 9.54179C17.2079 11.5577 16.3783 13.4414 14.9472 14.886L14.896 14.9377L14.831 14.9049C14.1852 14.5787 13.5057 14.3122 12.7991 14.1022L12.6876 14.0691L12.7371 13.9638C13.3696 12.6189 13.756 11.1069 13.8393 9.53129L13.8443 9.43657ZM14.0337 9.63657C13.9413 11.1629 13.5691 12.6291 12.9668 13.9439C13.6209 14.1445 14.2523 14.3935 14.8558 14.6936C16.1965 13.3161 16.9832 11.5399 17.1074 9.63657H14.0337ZM7.36674 14.5743C7.90278 15.4816 8.57016 16.2792 9.3469 16.9273C10.1329 16.3072 10.8152 15.5378 11.3664 14.6618C10.6282 14.5262 9.87001 14.4556 9.1 14.4556C8.51363 14.4556 7.93589 14.4952 7.36674 14.5743ZM7.19101 14.3978C7.81733 14.303 8.45368 14.2556 9.1 14.2556C9.93263 14.2556 10.7517 14.3368 11.5472 14.4925L11.688 14.5201L11.6134 14.6426C11.0231 15.6129 10.2763 16.4618 9.40633 17.1347L9.3434 17.1834L9.28183 17.133C8.42205 16.4295 7.69229 15.5501 7.11913 14.5462L7.04683 14.4196L7.19101 14.3978ZM6.35792 14.5498L6.39412 14.6173C6.89339 15.5493 7.51537 16.3906 8.24302 17.1016L8.45116 17.305L8.16197 17.2725C6.61849 17.0991 5.1734 16.4973 3.96312 15.525L3.83768 15.4242L3.98357 15.3563C4.71205 15.0175 5.48427 14.7534 6.28327 14.5672L6.35792 14.5498ZM4.21653 15.4699C5.29391 16.3002 6.55264 16.836 7.89633 17.0361C7.25902 16.374 6.70793 15.6124 6.2544 14.7795C5.54885 14.9486 4.86552 15.1796 4.21653 15.4699ZM12.3666 14.6815L12.4417 14.7026C13.0542 14.8752 13.6504 15.092 14.2166 15.3564L14.362 15.4243L14.2369 15.5249C13.1931 16.3647 11.9725 16.9257 10.6671 17.1773L10.335 17.2413L10.5789 17.007C11.2566 16.3558 11.8453 15.5911 12.3278 14.7492L12.3666 14.6815ZM12.4621 14.9164C12.037 15.646 11.5327 16.3184 10.9596 16.91C12.0564 16.6506 13.0841 16.1639 13.9837 15.4698C13.4958 15.2512 12.9857 15.0674 12.4621 14.9164Z" fill="#D5DAED"/>
</svg>
