<svg width="144" height="36" viewBox="0 0 144 36" fill="none" xmlns="http://www.w3.org/2000/svg">
<path opacity="0.9" d="M45.152 25H41.712L39.852 22.36L37.992 25H34.552L38.132 19.92L34.672 15H38.112L39.852 17.48L41.592 15H45.032L41.572 19.92L45.152 25ZM52.8374 14.72C54.1574 14.72 55.2841 15.2333 56.2174 16.26C57.1508 17.2733 57.6174 18.52 57.6174 20C57.6174 21.48 57.1508 22.7333 56.2174 23.76C55.2841 24.7733 54.1574 25.28 52.8374 25.28C51.5574 25.28 50.5641 24.8733 49.8574 24.06V29H46.8574V15H49.8574V15.94C50.5641 15.1267 51.5574 14.72 52.8374 14.72ZM50.5174 21.78C50.9708 22.22 51.5441 22.44 52.2374 22.44C52.9308 22.44 53.4974 22.22 53.9374 21.78C54.3908 21.34 54.6174 20.7467 54.6174 20C54.6174 19.2533 54.3908 18.66 53.9374 18.22C53.4974 17.78 52.9308 17.56 52.2374 17.56C51.5441 17.56 50.9708 17.78 50.5174 18.22C50.0774 18.66 49.8574 19.2533 49.8574 20C49.8574 20.7467 50.0774 21.34 50.5174 21.78ZM62.1576 24.72C61.7842 25.0933 61.3376 25.28 60.8176 25.28C60.2976 25.28 59.8509 25.0933 59.4776 24.72C59.1042 24.3467 58.9176 23.9 58.9176 23.38C58.9176 22.86 59.1042 22.4133 59.4776 22.04C59.8509 21.6667 60.2976 21.48 60.8176 21.48C61.3376 21.48 61.7842 21.6667 62.1576 22.04C62.5309 22.4133 62.7176 22.86 62.7176 23.38C62.7176 23.9 62.5309 24.3467 62.1576 24.72ZM71.183 14.72C72.2497 14.72 73.1364 15.0867 73.843 15.82C74.563 16.5533 74.923 17.5667 74.923 18.86V25H71.923V19.3C71.923 18.7133 71.7564 18.2667 71.423 17.96C71.103 17.64 70.6897 17.48 70.183 17.48C69.6097 17.48 69.1564 17.6533 68.823 18C68.4897 18.3467 68.323 18.86 68.323 19.54V25H65.323V15H68.323V15.94C68.923 15.1267 69.8764 14.72 71.183 14.72ZM80.2632 21.2C80.6099 22.1333 81.4099 22.6 82.6632 22.6C83.4765 22.6 84.1165 22.3467 84.5832 21.84L86.9832 23.22C85.9965 24.5933 84.5432 25.28 82.6232 25.28C80.9432 25.28 79.5965 24.78 78.5832 23.78C77.5832 22.78 77.0832 21.52 77.0832 20C77.0832 18.4933 77.5765 17.24 78.5632 16.24C79.5632 15.2267 80.8432 14.72 82.4032 14.72C83.8565 14.72 85.0632 15.2267 86.0232 16.24C86.9965 17.24 87.4832 18.4933 87.4832 20C87.4832 20.4267 87.4432 20.8267 87.3632 21.2H80.2632ZM80.2032 18.96H84.5032C84.2099 17.9067 83.5032 17.38 82.3832 17.38C81.2232 17.38 80.4965 17.9067 80.2032 18.96ZM95.3518 17.88H93.2918V21.42C93.2918 21.82 93.4518 22.0733 93.7718 22.18C94.0918 22.2867 94.6185 22.32 95.3518 22.28V25C93.4451 25.2 92.1251 25.02 91.3918 24.46C90.6585 23.8867 90.2918 22.8733 90.2918 21.42V17.88H88.6918V15H90.2918V13.1L93.2918 12.2V15H95.3518V17.88ZM108.846 15H112.046L108.846 25H106.046L104.446 19.66L102.846 25H100.046L96.8457 15H100.046L101.486 20.36L103.046 15H105.846L107.406 20.36L108.846 15ZM122.006 23.76C120.979 24.7733 119.726 25.28 118.246 25.28C116.766 25.28 115.512 24.7733 114.486 23.76C113.459 22.7333 112.946 21.48 112.946 20C112.946 18.52 113.459 17.2733 114.486 16.26C115.512 15.2333 116.766 14.72 118.246 14.72C119.726 14.72 120.979 15.2333 122.006 16.26C123.032 17.2733 123.546 18.52 123.546 20C123.546 21.48 123.032 22.7333 122.006 23.76ZM116.606 21.7C117.046 22.14 117.592 22.36 118.246 22.36C118.899 22.36 119.446 22.14 119.886 21.7C120.326 21.26 120.546 20.6933 120.546 20C120.546 19.3067 120.326 18.74 119.886 18.3C119.446 17.86 118.899 17.64 118.246 17.64C117.592 17.64 117.046 17.86 116.606 18.3C116.166 18.74 115.946 19.3067 115.946 20C115.946 20.6933 116.166 21.26 116.606 21.7ZM128.843 16.78C129.029 16.14 129.403 15.6533 129.963 15.32C130.536 14.9733 131.163 14.8 131.843 14.8V18.2C131.109 18.08 130.423 18.2067 129.783 18.58C129.156 18.94 128.843 19.5733 128.843 20.48V25H125.843V15H128.843V16.78ZM143.445 25H140.045L136.845 20.58V25H133.845V11H136.845V19.38L139.845 15H143.345L139.705 20L143.445 25Z" fill="#040D27"/>
<path fill-rule="evenodd" clip-rule="evenodd" d="M12.3524 5.73853L14.672 5.73853L16.4934 8.09491L15.325 9.59602L12.3524 5.73853ZM16.9898 7.44845L17.6082 6.64577C17.8831 6.27933 17.6426 5.75584 17.1788 5.75584L15.6843 5.75584L16.9898 7.44845ZM5.68618 11.1492L4.55214 12.6154L8.77903 18.1137C8.78762 18.1049 8.79191 18.0962 8.79621 18.0875C8.80051 18.0787 8.8048 18.07 8.81339 18.0613L9.91307 16.6475L5.68618 11.1492ZM12.9881 31.7278L15.1187 31.7278L2.40368 15.4251L1.33836 16.7866L12.9881 31.7278ZM16.1314 31.7286L2.90091 14.7626L4.05214 13.279L17.6435 30.9083C17.8325 31.2748 17.6091 31.7286 17.1796 31.7286L16.1314 31.7286ZM7.83217 8.35588L8.96621 6.88968L13.1931 12.3705L12.0591 13.8367L7.83217 8.35588ZM7.33424 9.00231L6.18301 10.5034L10.4099 15.9842L11.5611 14.4831L7.33424 9.00231ZM0.839324 17.4505L0.375396 18.0614C0.0661114 18.4629 0.0661114 19.0389 0.375396 19.4404L9.53367 31.327C9.73986 31.5888 10.0491 31.7459 10.3928 31.7459L11.9908 31.7459L0.839324 17.4505ZM10.3926 5.73858L11.3548 5.73858L14.8257 10.2419L13.7088 11.7081L9.4819 6.22731L9.53344 6.1575C9.73963 5.89568 10.0661 5.73858 10.3926 5.73858Z" fill="url(#paint0_linear)"/>
<path d="M18.6827 18.0583C18.9986 18.46 18.9986 19.0364 18.6827 19.4382L9.69741 30.8613C9.41662 31.2281 9.66231 31.7521 10.1361 31.7521L17.0857 31.7521C17.4191 31.7521 17.7526 31.5949 17.9632 31.3329L27.2994 19.4382C27.6153 19.0364 27.6153 18.46 27.2994 18.0583L17.9456 6.16358C17.735 5.90158 17.4191 5.74438 17.0682 5.74438L10.1361 5.74438C9.67986 5.74438 9.41662 6.28585 9.69741 6.63518L18.6827 18.0583Z" fill="#030C21"/>
<defs>
<linearGradient id="paint0_linear" x1="63.7159" y1="32.534" x2="2.89539" y2="18.2795" gradientUnits="userSpaceOnUse">
<stop offset="0.848958" stop-color="#030C21"/>
</linearGradient>
</defs>
</svg>
