<svg width="260" height="116" viewBox="0 0 260 116" fill="none" xmlns="http://www.w3.org/2000/svg">
<path d="M73.2318 65.7194C72.7662 65.7194 72.5334 65.6048 72.3007 65.4902C72.1843 65.2609 72.0679 65.0316 72.0679 64.6877V51.8476C72.0679 51.5037 72.1843 51.1597 72.3007 51.0451C72.5334 50.8158 72.7662 50.7012 73.2318 50.7012H78.7021C80.7972 50.7012 82.3103 51.1597 83.3578 51.9623C84.2889 52.8794 84.8709 54.1405 84.8709 55.8601C84.8709 57.5798 84.4053 58.8408 83.3578 59.758C82.4267 60.5605 80.7972 61.0191 78.7021 61.0191H76.6071V64.573C76.6071 64.9169 76.4907 65.2609 76.3743 65.3755C76.1416 65.6048 75.9088 65.6048 75.4432 65.6048H73.2318V65.7194ZM78.353 57.8091C78.9349 57.8091 79.4005 57.6944 79.7497 57.3505C80.0988 57.0066 80.2152 56.548 80.2152 55.8601C80.2152 55.1723 80.0988 54.7137 79.7497 54.3698C79.4005 54.0258 78.9349 53.9112 78.353 53.9112H76.6071V57.8091H78.353V57.8091Z" fill="black"/>
<path d="M90.1083 66.0633C88.7116 66.0633 87.5477 65.6047 86.7329 64.6876C85.9182 63.7704 85.4526 62.5094 85.4526 60.9044C85.4526 59.6433 85.6854 58.6115 86.2674 57.6944C86.8493 56.7772 87.6641 56.0893 88.7116 55.5161C89.7591 55.0576 91.0394 54.7136 92.3197 54.7136C93.4836 54.7136 94.4147 54.8283 95.3459 55.0576C96.277 55.2868 96.9753 55.6308 97.7901 56.0893V64.9169C97.7901 65.1462 97.7901 65.3754 97.6737 65.4901C97.5573 65.6047 97.3245 65.6047 97.0917 65.6047H94.7639C94.6475 65.6047 94.4147 65.6047 94.4147 65.4901C94.2983 65.3754 94.2983 65.3755 94.1819 65.2608L93.8328 64.5729C93.3672 65.0315 92.9016 65.3754 92.3197 65.6047C91.7377 65.9487 90.923 66.0633 90.1083 66.0633ZM91.7377 63.0826C92.3197 63.0826 92.7853 62.9679 93.1344 62.624C93.4836 62.3947 93.6 61.9361 93.6 61.4776V58.0383C93.3672 57.9236 92.9016 57.809 92.5525 57.809C91.7377 57.809 91.1558 58.0383 90.6902 58.6115C90.2247 59.1847 89.9919 59.8726 89.9919 60.9044C89.9919 62.2801 90.5738 63.0826 91.7377 63.0826Z" fill="black"/>
<path d="M100.932 65.7192C100.467 65.7192 100.234 65.6046 100.001 65.4899C99.7686 65.2607 99.7686 65.0314 99.7686 64.6874V55.7453C99.7686 55.516 99.7686 55.2867 99.8849 55.1721C100.001 55.0574 100.234 55.0574 100.467 55.0574H102.795C103.027 55.0574 103.144 55.0574 103.144 55.1721C103.26 55.1721 103.26 55.2867 103.377 55.4013L103.493 56.0892C103.959 55.6306 104.424 55.4013 105.123 55.1721C105.821 54.9428 106.519 54.8281 107.45 54.8281C108.614 54.8281 109.662 55.1721 110.36 55.8599C111.058 56.5478 111.524 57.4649 111.524 58.8406V64.6874C111.524 65.0314 111.408 65.3753 111.291 65.4899C111.175 65.7192 110.826 65.7192 110.36 65.7192H108.149C107.683 65.7192 107.45 65.6046 107.218 65.4899C106.985 65.2607 106.985 65.0314 106.985 64.6874V59.0699C106.985 58.6114 106.868 58.2674 106.636 58.1528C106.403 57.9235 106.17 57.8088 105.704 57.8088C105.239 57.8088 104.89 57.9235 104.657 58.1528C104.424 58.3821 104.308 58.726 104.308 59.0699V64.5728C104.308 64.9167 104.191 65.2607 104.075 65.3753C103.959 65.6046 103.609 65.6046 103.144 65.6046H100.932V65.7192Z" fill="black"/>
<path d="M119.439 66.0632C117.344 66.0632 115.714 65.6046 114.551 64.5728C113.387 63.6557 112.805 62.2799 112.805 60.4456C112.805 59.2992 113.037 58.3821 113.619 57.4649C114.085 56.6624 114.9 55.9746 115.831 55.516C116.878 55.0574 118.042 54.8281 119.323 54.8281C120.37 54.8281 121.185 54.9428 121.883 55.1721C122.582 55.4013 123.28 55.6306 123.745 56.0892C123.862 56.2038 123.978 56.3185 123.978 56.4331C123.978 56.5478 123.862 56.6624 123.745 56.8917L122.814 58.4967C122.698 58.726 122.582 58.8406 122.465 58.8406C122.349 58.8406 122.232 58.726 122 58.6114C121.65 58.3821 121.185 58.1528 120.836 58.0381C120.486 57.9235 120.021 57.8088 119.555 57.8088C118.857 57.8088 118.159 58.0381 117.693 58.4967C117.228 58.9553 116.995 59.6431 116.995 60.4456C116.995 61.2481 117.228 61.936 117.693 62.3946C118.159 62.8532 118.741 63.0824 119.555 63.0824C120.021 63.0824 120.486 62.9678 120.836 62.8532C121.185 62.7385 121.65 62.5092 122 62.2799C122.232 62.1653 122.349 62.0506 122.465 62.0506C122.582 62.0506 122.698 62.1653 122.814 62.3946L123.862 64.1142C123.978 64.2289 123.978 64.3435 123.978 64.4582C123.978 64.5728 123.862 64.6874 123.745 64.8021C123.163 65.146 122.465 65.4899 121.65 65.7192C121.301 65.9485 120.486 66.0632 119.439 66.0632Z" fill="black"/>
<path d="M130.03 66.0633C128.633 66.0633 127.47 65.6047 126.655 64.6876C125.84 63.7704 125.375 62.5094 125.375 60.9044C125.375 59.6433 125.607 58.6115 126.189 57.6944C126.771 56.7772 127.586 56.0893 128.633 55.5161C129.681 55.0576 130.961 54.7136 132.242 54.7136C133.405 54.7136 134.337 54.8283 135.268 55.0576C136.199 55.2868 136.897 55.6308 137.712 56.0893V64.9169C137.712 65.1462 137.712 65.3754 137.596 65.4901C137.479 65.6047 137.246 65.6047 137.014 65.6047H134.686C134.569 65.6047 134.337 65.6047 134.337 65.4901C134.22 65.3754 134.22 65.3755 134.104 65.2608L133.755 64.5729C133.289 65.0315 132.824 65.3754 132.242 65.6047C131.66 65.9487 130.961 66.0633 130.03 66.0633ZM131.776 63.0826C132.358 63.0826 132.824 62.9679 133.173 62.624C133.522 62.3947 133.638 61.9361 133.638 61.4776V58.0383C133.405 57.9236 132.94 57.809 132.591 57.809C131.776 57.809 131.194 58.0383 130.728 58.6115C130.263 59.1847 130.03 59.8726 130.03 60.9044C129.914 62.2801 130.496 63.0826 131.776 63.0826Z" fill="black"/>
<path d="M151.912 64.9169C152.028 65.0316 152.028 65.1462 152.028 65.2609C152.028 65.3755 152.028 65.4902 151.912 65.6048C151.796 65.7194 151.679 65.7194 151.563 65.7194H148.071C147.838 65.7194 147.722 65.7194 147.606 65.7194C147.489 65.7194 147.373 65.6048 147.256 65.4902L144.23 61.363V64.573C144.23 64.9169 144.114 65.2609 143.997 65.3755C143.765 65.6048 143.532 65.6048 143.066 65.6048H140.855C140.389 65.6048 140.156 65.4902 139.924 65.3755C139.807 65.1462 139.691 64.9169 139.691 64.573V51.8476C139.691 51.5037 139.807 51.1597 139.924 51.0451C140.156 50.8158 140.389 50.7012 140.855 50.7012H143.066C143.532 50.7012 143.765 50.8158 143.997 51.0451C144.23 51.2744 144.23 51.5037 144.23 51.8476V59.1848L147.14 55.4015C147.256 55.2869 147.373 55.1723 147.489 55.1723C147.606 55.1723 147.722 55.0576 147.955 55.0576H151.446C151.563 55.0576 151.679 55.0576 151.796 55.1723C151.912 55.2869 151.912 55.4015 151.912 55.5162C151.912 55.6308 151.912 55.7455 151.796 55.8601L147.955 60.2166L151.912 64.9169Z" fill="black"/>
<path d="M159.129 66.0633C157.848 66.0633 156.801 65.834 155.753 65.4901C154.822 65.0315 154.008 64.4583 153.426 63.6558C152.844 62.8533 152.611 61.8215 152.611 60.675C152.611 58.8407 153.193 57.3504 154.24 56.4332C155.288 55.4014 156.917 54.9429 158.896 54.9429C160.875 54.9429 162.388 55.4014 163.319 56.4332C164.366 57.3504 164.832 58.7261 164.832 60.4457C164.832 61.1336 164.483 61.5922 163.901 61.5922H156.917C156.917 62.28 157.15 62.7386 157.616 63.0825C158.081 63.4265 158.896 63.5411 159.827 63.5411C160.409 63.5411 160.991 63.5411 161.34 63.4265C161.806 63.3118 162.155 63.0825 162.62 62.9679C162.853 62.8533 162.97 62.8533 162.97 62.8533C163.086 62.8533 163.202 62.9679 163.319 63.0825L164.134 64.4583C164.25 64.5729 164.25 64.6875 164.25 64.8022C164.25 64.9168 164.134 65.0315 164.017 65.1461C163.435 65.49 162.737 65.834 161.922 66.0633C160.991 65.9486 160.176 66.0633 159.129 66.0633ZM160.875 59.1847C160.875 58.6115 160.758 58.1529 160.409 57.9236C160.06 57.5797 159.594 57.465 158.896 57.465C158.198 57.465 157.732 57.5797 157.383 57.9236C157.034 58.2675 156.917 58.6115 156.917 59.1847H160.875Z" fill="black"/>
<path d="M172.63 66.063C171.35 66.063 170.186 65.9484 169.022 65.7191C167.858 65.4898 167.043 65.0312 166.345 64.5727C166.112 64.458 165.996 64.2287 165.996 64.1141C165.996 63.9994 165.996 63.8848 166.112 63.7702L167.16 62.0505C167.276 61.8212 167.392 61.8212 167.509 61.8212C167.625 61.8212 167.741 61.8212 167.858 61.9359C168.44 62.2798 169.022 62.5091 169.72 62.7384C170.418 62.9676 171.117 63.0823 171.815 63.0823C172.513 63.0823 172.979 62.9676 173.328 62.7384C173.677 62.5091 173.794 62.1651 173.794 61.7066C173.794 61.248 173.561 60.9041 173.212 60.6748C172.863 60.4455 172.164 60.1016 171.117 59.7576C169.604 59.1844 168.44 58.6112 167.625 57.9234C166.81 57.2355 166.345 56.2037 166.345 55.0573C166.345 53.5669 166.927 52.5351 167.974 51.7326C169.022 50.9301 170.418 50.5862 172.164 50.5862C173.445 50.5862 174.492 50.7008 175.307 50.9301C176.238 51.1594 176.936 51.5033 177.518 51.8473C177.751 52.0765 177.867 52.1912 177.867 52.4205C177.867 52.5351 177.867 52.6498 177.751 52.7644L176.704 54.4841C176.587 54.7133 176.471 54.7133 176.354 54.7133C176.238 54.7133 176.122 54.7133 176.005 54.5987C175.19 54.0255 174.143 53.7962 172.863 53.7962C172.164 53.7962 171.699 53.9108 171.35 54.1401C171 54.3694 170.884 54.7133 170.884 55.1719C170.884 55.5158 171 55.7451 171.117 55.9744C171.35 56.2037 171.582 56.3183 171.815 56.5476C172.164 56.6623 172.63 56.8916 173.212 57.1208L173.677 57.2355C174.725 57.6941 175.656 58.038 176.238 58.4966C176.936 58.8405 177.402 59.4137 177.751 59.9869C178.1 60.5601 178.217 61.248 178.217 62.0505C178.217 63.3116 177.751 64.458 176.704 65.1459C176.005 65.6044 174.492 66.063 172.63 66.063Z" fill="black"/>
<path d="M183.221 65.7192C182.988 65.7192 182.872 65.7192 182.755 65.6046C182.639 65.4899 182.523 65.3753 182.523 65.146L179.613 55.6306C179.613 55.5159 179.613 55.5159 179.613 55.4013C179.613 55.172 179.729 55.0574 180.078 55.0574H182.988C183.221 55.0574 183.337 55.0574 183.454 55.172C183.57 55.2867 183.57 55.2867 183.686 55.5159L184.85 60.5603L186.363 56.5477C186.48 56.3184 186.48 56.2038 186.596 56.2038C186.713 56.0892 186.829 56.0892 187.062 56.0892H188.459C188.691 56.0892 188.808 56.0892 188.924 56.2038C189.04 56.3184 189.04 56.4331 189.157 56.5477L190.67 60.5603L191.95 55.5159C191.95 55.4013 192.067 55.2867 192.183 55.172C192.299 55.0574 192.416 55.0574 192.532 55.0574H195.558C195.908 55.0574 196.024 55.172 196.024 55.4013C196.024 55.4013 196.024 55.5159 196.024 55.6306L193.114 65.146C192.998 65.3753 192.998 65.4899 192.881 65.6046C192.765 65.7192 192.649 65.7192 192.416 65.7192H190.204C189.972 65.7192 189.855 65.7192 189.739 65.6046C189.622 65.4899 189.506 65.3753 189.506 65.146L187.993 61.1335L186.48 65.146C186.363 65.3753 186.363 65.4899 186.247 65.6046C186.131 65.7192 186.014 65.7192 185.782 65.7192H183.221Z" fill="black"/>
<path d="M201.378 66.0633C199.982 66.0633 198.818 65.6047 198.003 64.6876C197.188 63.7704 196.723 62.5094 196.723 60.9044C196.723 59.6433 196.955 58.6115 197.537 57.6944C198.119 56.7772 198.934 56.0893 199.982 55.5161C201.029 55.0576 202.309 54.7136 203.59 54.7136C204.754 54.7136 205.685 54.8283 206.616 55.0576C207.547 55.2868 208.245 55.6308 209.06 56.0893V64.9169C209.06 65.1462 209.06 65.3754 208.944 65.4901C208.827 65.6047 208.595 65.6047 208.362 65.6047H206.034C205.918 65.6047 205.801 65.6047 205.685 65.4901C205.568 65.3754 205.568 65.3755 205.452 65.2608L205.103 64.5729C204.637 65.0315 204.172 65.3754 203.59 65.6047C203.008 65.9487 202.309 66.0633 201.378 66.0633ZM203.124 63.0826C203.706 63.0826 204.172 62.9679 204.521 62.624C204.87 62.3947 204.986 61.9361 204.986 61.4776V58.0383C204.754 57.9236 204.288 57.809 203.939 57.809C203.124 57.809 202.542 58.0383 202.077 58.6115C201.611 59.1847 201.378 59.8726 201.378 60.9044C201.262 62.2801 201.844 63.0826 203.124 63.0826Z" fill="black"/>
<path d="M212.202 70.1904C211.736 70.1904 211.504 70.0758 211.271 69.9611C211.154 69.7319 211.038 69.5026 211.038 69.1586V56.5479C211.736 56.0893 212.551 55.6307 213.599 55.4014C214.646 55.0575 215.694 54.9429 216.741 54.9429C221.28 54.9429 223.492 56.7772 223.492 60.5604C223.492 62.28 223.026 63.6558 222.095 64.6876C221.164 65.7193 219.767 66.1779 218.022 66.1779C217.556 66.1779 217.09 66.0633 216.625 65.9486C216.159 65.834 215.81 65.7193 215.461 65.4901V69.1586C215.461 69.5026 215.345 69.8465 215.228 69.9611C214.995 70.1904 214.763 70.1904 214.297 70.1904H212.202V70.1904ZM217.09 63.0825C217.789 63.0825 218.254 62.8533 218.487 62.3947C218.836 61.9361 218.953 61.2483 218.953 60.4457C218.953 59.5286 218.72 58.8407 218.371 58.3822C218.022 58.0382 217.44 57.809 216.625 57.809C216.159 57.809 215.694 57.9236 215.461 58.0382V61.4775C215.461 61.9361 215.577 62.3947 215.927 62.624C216.159 62.9679 216.625 63.0825 217.09 63.0825Z" fill="black"/>
<path fill-rule="evenodd" clip-rule="evenodd" d="M42.388 48.1789C41.9224 45.886 43.7847 43.7078 46.1125 43.7078C48.2075 43.7078 49.9534 45.4274 49.9534 47.491V52.0767C50.5353 52.0767 51.0009 52.0767 51.5829 52.0767C52.0484 52.0767 52.6304 52.0767 53.0959 52.0767V47.491C53.0959 45.4274 54.8418 43.7078 56.9368 43.7078C59.2647 43.7078 61.1269 45.886 60.6613 48.1789L59.6138 53.5671C63.1056 55.0574 65.7825 57.6942 65.7825 61.0189V62.9678C65.7825 65.7193 63.9203 68.0121 61.3597 69.5025C58.7991 71.1075 55.3074 72.0246 51.4665 72.0246C47.6256 72.0246 44.1338 71.1075 41.5732 69.5025C39.0126 68.0121 37.1504 65.7193 37.1504 62.9678V61.0189C37.1504 57.6942 39.8274 55.0574 43.3191 53.5671L42.388 48.1789ZM58.3335 54.3696L59.4974 48.0642C59.8466 46.4592 58.5663 44.9688 56.9368 44.9688C55.4238 44.9688 54.2598 46.1153 54.2598 47.6056V53.4524C53.9107 53.4524 53.4451 53.3378 53.0959 53.3378C52.6304 53.3378 52.0484 53.3378 51.5829 53.3378C51.0009 53.3378 50.5353 53.3378 49.9534 53.4524C49.6042 53.4524 49.1386 53.5671 48.7895 53.5671V47.7203C48.7895 46.2299 47.6256 45.0835 46.1125 45.0835C44.483 45.0835 43.2027 46.5738 43.5519 48.1789L44.7158 54.5989C40.9913 55.9746 38.4307 58.4967 38.4307 61.3628V63.3118C38.4307 67.6682 44.2502 71.2221 51.4665 71.2221C58.6827 71.2221 64.5022 67.6682 64.5022 63.3118V61.3628C64.6186 58.2675 62.058 55.7453 58.3335 54.3696Z" fill="#633001"/>
<path d="M64.6189 63.0822C64.6189 67.4387 58.7994 70.9926 51.5831 70.9926C44.3669 70.9926 38.5474 67.4387 38.5474 63.0822V61.1333H64.7353V63.0822H64.6189Z" fill="#FEDC90"/>
<path fill-rule="evenodd" clip-rule="evenodd" d="M43.552 47.9496C43.2028 46.3446 44.4831 44.8542 46.1126 44.8542C47.6257 44.8542 48.7896 46.0007 48.7896 47.491V53.4525C49.7207 53.3378 50.6518 53.2232 51.583 53.2232C52.5141 53.2232 53.4452 53.3378 54.2599 53.3378V47.491C54.2599 46.0007 55.4239 44.8542 56.9369 44.8542C58.5664 44.8542 59.8467 46.3446 59.4975 47.9496L58.3336 54.255C62.1745 55.6307 64.7351 58.1529 64.7351 61.0189C64.7351 65.3754 58.9156 68.9293 51.6993 68.9293C44.4831 68.9293 38.6636 65.3754 38.6636 61.0189C38.6636 58.1529 41.2242 55.6307 44.9487 54.255L43.552 47.9496Z" fill="#D1884F"/>
<path d="M47.975 60.5603C47.975 61.7067 47.2767 62.7385 46.5783 62.7385C45.88 62.7385 45.1816 61.8214 45.1816 60.5603C45.1816 59.4139 45.88 58.3821 46.5783 58.3821C47.2767 58.3821 47.975 59.2992 47.975 60.5603Z" fill="#633001"/>
<path d="M57.9843 60.5603C57.9843 61.7067 57.286 62.7385 56.5876 62.7385C55.7729 62.7385 55.1909 61.8214 55.1909 60.5603C55.1909 59.4139 55.8893 58.3821 56.5876 58.3821C57.286 58.3821 57.9843 59.2992 57.9843 60.5603Z" fill="#633001"/>
</svg>
