<svg width="74" height="115" viewBox="0 0 74 115" fill="none" xmlns="http://www.w3.org/2000/svg">
<path d="M51.0698 92.4576C50.8241 92.6129 48.1661 94.4758 45.6272 96.2869C42.6565 98.4086 41.0334 101.72 41.2865 105.158L41.5247 108.329L41.212 108.847L20.3574 109.534L51.0698 92.4576Z" fill="url(#paint0_linear)"/>
<path d="M47.5694 68.1807C47.495 68.2472 47.3982 68.2842 47.3014 68.2842C47.279 68.2842 47.2567 68.2842 47.2344 68.2768L47.4056 67.3306C47.5322 67.4488 47.6215 67.5597 47.6662 67.6632C47.7481 67.848 47.7109 68.0476 47.5694 68.1807Z" fill="#1F2033"/>
<path d="M43.6453 66.2513C45.4397 66.2365 46.8245 66.7983 47.4053 67.3306L47.234 68.2768C47.1596 68.262 47.0851 68.2324 47.0255 68.1733C46.9511 68.0994 46.9139 67.9959 46.9139 67.8998C46.6756 67.641 45.596 66.9979 43.7272 66.9979C43.7049 66.9979 43.6826 66.9979 43.6528 66.9979C43.4443 66.9979 43.2656 66.8353 43.2656 66.6283C43.2656 66.4213 43.4369 66.2513 43.6453 66.2513Z" fill="#1F2033"/>
<path d="M38.0016 65.2534C37.957 65.4234 37.8006 65.5343 37.6219 65.5343C37.5921 65.5343 37.5624 65.5343 37.5326 65.5269C36.0435 65.1942 34.3757 65.5269 34.3608 65.5269C34.1524 65.5712 33.9439 65.4456 33.8992 65.246C33.8545 65.0464 33.9886 64.8542 34.197 64.8098C34.2715 64.795 36.0509 64.4402 37.7113 64.8098C37.9197 64.8542 38.0463 65.0538 38.0016 65.2534Z" fill="#1F2033"/>
<path d="M25.1201 68.7648C25.0456 68.8535 24.9414 68.8978 24.8297 68.8978C24.7403 68.8978 24.651 68.8683 24.5765 68.8091C24.4127 68.6761 24.3979 68.4469 24.5319 68.2917C24.5914 68.2325 25.9242 66.7688 27.8004 66.2661C28.0089 66.2144 28.2173 66.3253 28.2769 66.5175C28.3365 66.7171 28.2173 66.9167 28.0089 66.9758C26.356 67.412 25.1349 68.7574 25.1201 68.7648Z" fill="#1F2033"/>
<path d="M17.639 74.42C17.572 74.5087 17.4678 74.5604 17.3635 74.5678L17.2891 73.666C17.8177 73.0672 19.1132 71.7809 20.7214 71.3373C20.9299 71.2782 21.1383 71.3965 21.1979 71.5887C21.2575 71.7883 21.1383 71.9879 20.9299 72.047C19.0983 72.5497 17.6539 74.3978 17.639 74.42Z" fill="#1F2033"/>
<path d="M17.2807 73.666L17.3552 74.5679C17.3477 74.5679 17.3328 74.5679 17.3254 74.5679C17.2435 74.5679 17.169 74.5457 17.0946 74.494C16.9233 74.3683 16.8861 74.1391 17.0127 73.9765C17.0276 73.9617 17.1243 73.8434 17.2807 73.666Z" fill="#1F2033"/>
<path d="M36.1732 79.2621C36.1732 79.2621 27.3057 86.4845 31.3337 96.1317L36.1732 79.2621ZM22.831 68.8978C22.9427 68.8978 23.0469 68.8535 23.1214 68.7647C23.1363 68.75 24.3499 67.4119 26.0102 66.9684C26.2187 66.9166 26.3378 66.7096 26.2783 66.51C26.2261 66.3104 26.0102 66.1996 25.8017 66.2587C23.9181 66.7614 22.5928 68.2251 22.5332 68.2842C22.3992 68.4395 22.4141 68.676 22.5779 68.8017C22.6523 68.8682 22.7417 68.8978 22.831 68.8978ZM41.2659 66.6209C41.2659 66.8279 41.4446 66.9906 41.653 66.9906C41.6828 66.9906 41.7052 66.9906 41.7275 66.9906C43.5963 66.9906 44.6759 67.6411 44.9141 67.8924C44.9067 67.9885 44.9439 68.092 45.0258 68.166C45.0854 68.2251 45.1598 68.2621 45.2343 68.2694L44.46 72.5571C44.46 72.5719 44.1324 74.6713 44.1324 74.6861C43.5293 78.7668 43.9165 78.5228 45.2715 79.6095C47.0435 81.0436 50.2451 81.5316 52.4117 80.674C57.6756 78.5893 61.0037 76.963 63.2969 76.0168C64.4956 75.5215 65.806 75.2923 67.1164 75.3884C72.5143 75.8098 69.7297 80.9919 67.7046 81.9012C65.2922 82.9879 51.0864 92.4428 51.0864 92.4428C51.0864 92.4428 51.0789 92.4502 51.0715 92.4502L20.3666 109.519L19.8231 109.534C20.2847 107.472 19.1977 101.853 18.602 99.2883C18.401 98.4307 18.133 97.588 17.8351 96.76C17.7532 96.5457 17.6788 96.3165 17.6118 96.0947C16.7034 93.2043 15.5568 89.2936 15.4675 86.8246C15.4005 85.0356 15.3409 82.9731 15.6164 81.1176C15.7355 80.3118 15.7802 79.4912 15.7132 78.6781L15.3558 74.5457C15.4675 74.5383 15.5643 74.4865 15.6313 74.3978C15.6462 74.3756 17.0906 72.5275 18.9222 72.0248C19.1307 71.9731 19.2498 71.7661 19.1902 71.5665C19.1307 71.3743 18.9147 71.256 18.7137 71.3151C17.0981 71.7587 15.81 73.0376 15.2814 73.6438L15.1474 72.1061C15.0878 71.3891 14.9463 70.6794 14.7379 69.9919L11.514 59.5094C11.514 59.5094 9.8611 52.8783 10.9035 51.3259C11.5363 50.3797 12.4744 50.2318 13.1148 50.254L21.3345 69.5557C20.9324 68.5208 17.6192 59.9307 16.1153 55.1404C15.0431 51.7177 14.0603 50.6901 13.5317 50.3871C13.6732 50.4314 13.7848 50.4388 13.7848 50.2688C13.7848 50.1653 13.7402 49.9879 13.6285 49.6996C12.3777 45.752 11.6555 43.0907 11.4842 41.6492C11.4768 41.6122 11.4917 41.4496 11.4991 41.4126C11.514 40.9247 11.8192 39.4684 14.2465 39.1135C16.9417 38.7217 18.334 43.4012 18.334 43.4012C18.334 43.4012 22.7864 57.883 25.2955 62.2076C26.8962 64.9798 28.4374 64.2258 29.3458 63.3239C29.8074 62.8655 30.1424 62.3111 30.3658 61.7123L36.605 44.8057C37.0741 43.5268 37.5059 42.2406 37.8708 40.9321C38.4738 38.7883 39.0397 37.4133 39.5311 36.5336C40.2235 35.2621 41.8541 34.6041 43.3357 35.0772C44.862 35.5651 45.2194 36.8736 45.3385 37.5537C45.3534 37.6572 45.3758 37.7459 45.413 37.8199C45.48 37.9529 45.5917 38.0194 45.7852 37.9307C48.339 36.844 49.2846 39.5275 49.5229 40.5477C49.7834 41.6196 47.9295 53.418 47.9295 53.418L45.413 67.3158C44.8322 66.791 43.4474 66.2291 41.653 66.2365C41.4371 66.2513 41.2659 66.4213 41.2659 66.6209ZM35.6223 65.5342C35.8009 65.5342 35.9573 65.416 36.002 65.2533C36.0466 65.0537 35.9201 64.8541 35.7116 64.8098C34.0513 64.4401 32.2718 64.795 32.1974 64.8098C31.9889 64.8541 31.8549 65.0463 31.8995 65.2459C31.9442 65.4455 32.1527 65.5712 32.3612 65.5268C32.3761 65.5268 34.0438 65.1942 35.5329 65.5268C35.5627 65.5342 35.5925 65.5342 35.6223 65.5342Z" fill="url(#paint1_linear)"/>
<path d="M43.502 109C43.002 109 43.1403 108.63 43.0808 108.445C43.0808 108.445 43.0882 108.425 43.0808 108.425H43.0882V108.359L42.85 105.202C42.5819 101.609 44.272 98.1424 47.3768 95.9321C49.8114 94.1948 52.5588 92.2654 52.8343 92.088L52.8566 92.0732C53.0353 91.9623 53.2661 91.9919 53.415 92.1397C53.5863 92.3171 53.5863 92.5981 53.4076 92.7755C53.3778 92.805 53.3406 92.8272 53.3108 92.8494C53.0651 93.012 50.4443 94.8454 47.9054 96.6565C45.0613 98.6821 43.5052 101.853 43.7509 105.136L43.9891 108.337C44.0412 108.743 43.9115 108.86 43.502 109C43.4498 109.015 43.5466 109 43.502 109Z" fill="#030C21"/>
<path d="M21.824 110C21.7942 110 21.757 110 21.7272 109.993C21.4815 109.941 21.3326 109.697 21.3847 109.46C21.8166 107.523 20.7742 102.046 20.1637 99.414C19.985 98.6451 19.7393 97.832 19.4117 96.9301C19.3298 96.7083 19.2479 96.4718 19.1809 96.2426C18.2949 93.4261 17.1036 89.3972 17.0217 86.8541C16.9621 85.2352 16.8802 83.0101 17.1781 81.0658C17.3046 80.2231 17.3344 79.4617 17.2674 78.7372L16.91 74.6048C16.8877 74.3609 17.0738 74.1391 17.3195 74.1169C17.5652 74.0947 17.7886 74.2796 17.8109 74.5235L18.1683 78.6559C18.2353 79.4469 18.2055 80.2822 18.0715 81.1989C17.7886 83.0618 17.863 85.2352 17.9226 86.8246C18.0045 89.2567 19.1734 93.2117 20.0445 95.9765C20.1116 96.1834 20.186 96.4126 20.2605 96.6196C20.5955 97.5511 20.8561 98.4012 21.0422 99.207C21.1167 99.5248 22.8515 107.028 22.2633 109.653C22.2186 109.86 22.0325 110 21.824 110Z" fill="#030C21"/>
<path d="M17.2799 74.1169C17.0491 74.1169 16.8481 73.9395 16.8332 73.7103L16.6992 72.1727C16.6396 71.4852 16.5056 70.8051 16.3046 70.1546L13.0807 59.6203C12.9095 58.918 11.413 52.7453 12.5298 51.082C13.1105 50.217 14.0337 49.7661 15.1357 49.8179C15.3888 49.8252 15.5824 50.0396 15.5675 50.2836C15.5601 50.5275 15.3516 50.7271 15.0984 50.7123C14.5549 50.6902 13.7955 50.8232 13.2892 51.5773C12.6117 52.5826 13.3413 56.8998 13.9593 59.3911L17.1757 69.8884C17.3991 70.5981 17.5405 71.3447 17.6075 72.0914L17.7416 73.629C17.7639 73.873 17.5778 74.0947 17.3321 74.1169C17.3023 74.1169 17.2948 74.1169 17.2799 74.1169Z" fill="#030C21"/>
<path d="M29.686 64.5954C29.5967 64.5954 29.5074 64.588 29.418 64.5806C28.5022 64.4623 27.6609 63.7378 26.9089 62.4368C24.4072 58.1122 20.0889 44.1256 19.9102 43.5342C19.8953 43.4899 18.5849 39.2244 16.3141 39.5571C14.1102 39.8823 13.9613 41.1686 13.9539 41.4274C13.9539 41.4495 13.9539 41.4717 13.9464 41.5087C13.9464 41.5456 13.939 41.59 13.939 41.6196C14.1028 42.9872 14.7952 45.5893 16.0535 49.5591C16.1801 49.8917 16.2322 50.1061 16.2322 50.2688C16.2322 50.5497 16.0833 50.6975 16.0014 50.7567C15.7631 50.9341 15.4802 50.8454 15.3908 50.8158C15.1526 50.7419 15.026 50.4831 15.1005 50.254C15.1303 50.1579 15.1898 50.084 15.2643 50.0322C15.2494 49.9878 15.227 49.9287 15.2047 49.8622L15.1973 49.84C13.9018 45.7446 13.2093 43.1572 13.0381 41.7157C13.0306 41.6491 13.0306 41.5752 13.0455 41.4421V41.3978C13.053 41.0282 13.254 39.0987 16.1726 38.67C19.2178 38.2264 20.6994 43.0685 20.7664 43.2755C20.8111 43.4159 25.2337 57.7499 27.6832 61.9858C28.2789 63.0208 28.9192 63.6122 29.5297 63.6935C29.9988 63.7526 30.505 63.5309 31.0188 63.0134C31.4208 62.6142 31.7261 62.1263 31.9346 61.5645L38.1738 44.6579C38.6727 43.3124 39.0822 42.0557 39.4321 40.8212C39.9682 38.9065 40.5415 37.3911 41.1297 36.3266C41.9412 34.8407 43.8026 34.1236 45.4703 34.6559C46.736 35.0624 47.5402 36.0456 47.7784 37.4872C47.7933 37.5759 47.8082 37.6129 47.8156 37.635C47.9199 37.8568 47.8305 38.1229 47.5997 38.2338C47.3764 38.3373 47.1083 38.2486 46.9966 38.0194C46.9445 37.9159 46.9073 37.7977 46.885 37.635C46.6988 36.5188 46.133 35.8091 45.1948 35.506C43.944 35.1068 42.5368 35.6391 41.9263 36.7479C41.3679 37.7533 40.8244 39.2022 40.3032 41.0577C39.9458 42.3219 39.5289 43.5934 39.03 44.961L32.7833 61.8749C32.5302 62.5551 32.1505 63.1538 31.6591 63.6417C31.0337 64.2701 30.3487 64.5954 29.686 64.5954ZM13.9315 41.59V41.5974V41.6048C13.9315 41.5974 13.9315 41.5974 13.9315 41.59Z" fill="#030C21"/>
<path d="M47.4052 67.7742C47.3755 67.7742 47.3531 67.7742 47.3233 67.7668C47.0776 67.7224 46.9138 67.4859 46.9585 67.2419L49.4751 53.3441C50.3611 47.7036 51.2247 41.3313 51.0758 40.6586C50.9716 40.2224 50.5621 38.7809 49.5942 38.293C49.1326 38.0638 48.5965 38.0786 47.9562 38.3521C47.569 38.5222 47.1893 38.3965 47.0032 38.0343C46.8915 37.8125 46.9809 37.5464 47.1968 37.4281C47.368 37.3394 47.5616 37.3689 47.6956 37.4872C48.5518 37.1472 49.3187 37.1546 49.9962 37.4946C51.2769 38.1378 51.7906 39.7789 51.9469 40.4516C52.215 41.5531 50.6738 51.5107 50.3611 53.4919L47.8445 67.4045C47.8147 67.6263 47.6212 67.7742 47.4052 67.7742Z" fill="#1F2033"/>
<path d="M53.086 92.9012C52.9371 92.9012 52.7956 92.8346 52.7137 92.7016C52.5722 92.4946 52.6318 92.2137 52.8403 92.0806C53.421 91.6962 67.1057 82.5961 69.5255 81.502C70.5827 81.0289 72.042 79.0033 71.774 77.51C71.6027 76.5342 70.6944 75.9724 69.0862 75.8467C67.88 75.758 66.6292 75.9576 65.4752 76.4381C64.6934 76.7634 63.7701 77.17 62.7055 77.6431C60.6282 78.5672 58.0446 79.7204 54.5825 81.088C52.2968 81.9973 48.8868 81.4872 46.9882 79.9569C46.8467 79.8461 46.7202 79.7426 46.601 79.6539C45.3353 78.6928 45.1566 78.2345 45.6852 74.6196L45.6927 74.59C45.7225 74.4052 45.9756 72.7641 46.0128 72.5201L46.0203 72.4758L46.7946 68.1881C46.8393 67.9442 47.0701 67.7815 47.3158 67.8259C47.5615 67.8702 47.7253 68.0994 47.6806 68.3434L46.9063 72.631C46.8542 72.9932 46.6234 74.4643 46.5787 74.7452C46.0798 78.131 46.2436 78.2567 47.1445 78.9368C47.2711 79.0329 47.4051 79.1364 47.554 79.2547C49.2218 80.6001 52.2223 81.051 54.24 80.2526C57.6798 78.8924 60.2559 77.7392 62.3257 76.8225C63.3979 76.342 64.3211 75.9354 65.1178 75.6028C66.4058 75.0705 67.8056 74.8414 69.1457 74.9448C71.7293 75.1444 72.4813 76.3642 72.6525 77.3474C73.0099 79.3434 71.2453 81.7016 69.8828 82.3151C67.5301 83.3723 53.4731 92.7238 53.3317 92.8199C53.2572 92.879 53.1753 92.9012 53.086 92.9012Z" fill="#030C21"/>
<path d="M33.3335 96.5826C33.1548 96.5826 32.991 96.4791 32.9166 96.3017C31.219 92.2211 31.5392 87.9187 33.8547 83.8528C35.5895 80.7997 37.8008 78.9886 37.8901 78.9072C38.0837 78.752 38.3666 78.7816 38.523 78.9664C38.6793 79.1586 38.657 79.4395 38.4634 79.5947C38.4411 79.6095 36.2745 81.3985 34.629 84.3111C32.4401 88.17 32.1497 92.088 33.7579 95.9469C33.8547 96.1761 33.743 96.4422 33.5122 96.5309C33.4452 96.5679 33.3856 96.5826 33.3335 96.5826Z" fill="#030C21"/>
<path d="M23.8408 79.4247C22.7985 79.4247 22.255 79.2546 22.188 79.2251C21.9497 79.1437 21.8306 78.885 21.9125 78.6558C21.9944 78.4193 22.2475 78.301 22.4858 78.3749C22.5602 78.3971 28.0177 80.0234 39.8113 71.3373C40.0123 71.1894 40.2952 71.2338 40.4441 71.4334C40.593 71.633 40.5484 71.9139 40.3473 72.0617C31.6958 78.4341 26.3351 79.4247 23.8408 79.4247Z" fill="#030C21"/>
<path d="M38.9329 65.6155C38.8882 65.6155 38.8435 65.6081 38.7989 65.5933C38.5606 65.5194 38.4266 65.2681 38.501 65.0315L46.9739 37.7016C47.0261 37.5094 47.2047 37.3689 47.4132 37.3689C47.6664 37.3689 47.8674 37.5685 47.8674 37.8124V37.879L47.845 37.9455L39.3647 65.305C39.3052 65.4972 39.1265 65.6155 38.9329 65.6155Z" fill="#1F2033"/>
<path d="M23.3636 70.0806C23.1849 70.0806 23.0211 69.9771 22.9467 69.8071C22.9392 69.7923 22.9318 69.7775 22.9318 69.7627L22.9169 69.7183C22.5446 68.7499 19.2091 60.1155 17.6828 55.2735C16.6032 51.8286 15.6576 50.9784 15.3002 50.7714C15.2109 50.7197 15.1588 50.7049 15.1364 50.7049C14.9131 50.7197 14.6972 50.5571 14.6674 50.3279C14.6302 50.0839 14.794 49.8548 15.0396 49.8178C15.1364 49.803 15.3896 49.7882 15.7544 50.0026C16.4319 50.3944 17.4669 51.5846 18.5464 55.0147C20.0504 59.805 23.3562 68.3581 23.7508 69.3857C23.7657 69.4153 23.7731 69.4374 23.7806 69.467C23.8774 69.6962 23.7657 69.9549 23.5349 70.051C23.4828 70.0732 23.4232 70.0806 23.3636 70.0806Z" fill="#1F2033"/>
<path d="M23.3785 70.1102C23.1998 70.1102 23.0286 69.9993 22.9541 69.8219L22.9467 69.7923C22.8573 69.5631 22.969 69.3044 23.2073 69.2083C23.4381 69.1196 23.6987 69.2305 23.7955 69.467L23.8029 69.4966C23.8922 69.7258 23.7806 69.9845 23.5423 70.0806C23.4827 70.0954 23.4306 70.1102 23.3785 70.1102Z" fill="#1F2033"/>
<path d="M21.2097 111C21.1641 111.239 21.0736 111.408 21 111.629" stroke="#030C21" stroke-linecap="round"/>
<path d="M44 110C44.2959 111.134 44.7646 112.093 45.2676 113.098" stroke="#030C21" stroke-linecap="round"/>
<path d="M46.5 114.5C46.5 114.5 46.2057 114.411 46 114" stroke="#030C21" stroke-linecap="round"/>
<defs>
<linearGradient id="paint0_linear" x1="17" y1="76" x2="35.7136" y2="109.534" gradientUnits="userSpaceOnUse">
<stop stop-color="#E7E5F3"/>
<stop offset="1" stop-color="#F9F8FF" stop-opacity="0"/>
</linearGradient>
<linearGradient id="paint1_linear" x1="26" y1="93" x2="40.4052" y2="109.534" gradientUnits="userSpaceOnUse">
<stop stop-color="#F6F4FF"/>
<stop offset="1" stop-color="#F9F8FF" stop-opacity="0"/>
</linearGradient>
</defs>
</svg>
