<svg width="74" height="86" viewBox="0 0 74 86" fill="none" xmlns="http://www.w3.org/2000/svg">
<path d="M51.0695 63.4577C50.8238 63.6129 48.1658 65.4758 45.6269 67.287C42.6562 69.4086 41.0331 72.7204 41.2863 76.158L41.5245 79.3293L41.2118 79.8468L20.3572 80.5343L51.0695 63.4577Z" fill="url(#paint0_linear)"/>
<path d="M47.5683 39.1808C47.4939 39.2473 47.3971 39.2842 47.3003 39.2842C47.2779 39.2842 47.2556 39.2842 47.2333 39.2769L47.4045 38.3306C47.5311 38.4489 47.6204 38.5598 47.6651 38.6633C47.747 38.8481 47.7098 39.0477 47.5683 39.1808Z" fill="#1F2033"/>
<path d="M43.6445 37.2513C45.4388 37.2365 46.8237 37.7984 47.4044 38.3306L47.2332 39.2768C47.1587 39.2621 47.0843 39.2325 47.0247 39.1734C46.9502 39.0994 46.913 38.9959 46.913 38.8998C46.6748 38.6411 45.5952 37.998 43.7264 37.998C43.704 37.998 43.6817 37.998 43.6519 37.998C43.4435 37.998 43.2648 37.8353 43.2648 37.6283C43.2648 37.4213 43.436 37.2513 43.6445 37.2513Z" fill="#1F2033"/>
<path d="M38.0014 36.2534C37.9567 36.4234 37.8004 36.5343 37.6217 36.5343C37.5919 36.5343 37.5621 36.5343 37.5323 36.5269C36.0432 36.1943 34.3755 36.5269 34.3606 36.5269C34.1521 36.5713 33.9436 36.4456 33.899 36.246C33.8543 36.0464 33.9883 35.8542 34.1968 35.8099C34.2712 35.7951 36.0507 35.4402 37.711 35.8099C37.9195 35.8542 38.0461 36.0538 38.0014 36.2534Z" fill="#1F2033"/>
<path d="M25.1205 39.7648C25.0461 39.8535 24.9419 39.8978 24.8302 39.8978C24.7408 39.8978 24.6515 39.8683 24.577 39.8091C24.4132 39.6761 24.3983 39.4469 24.5324 39.2917C24.5919 39.2325 25.9246 37.7688 27.8009 37.2661C28.0094 37.2144 28.2178 37.3253 28.2774 37.5175C28.337 37.7171 28.2178 37.9167 28.0094 37.9758C26.3565 38.412 25.1354 39.7574 25.1205 39.7648Z" fill="#1F2033"/>
<path d="M17.638 45.42C17.571 45.5087 17.4668 45.5605 17.3625 45.5679L17.2881 44.666C17.8167 44.0672 19.1122 42.7809 20.7204 42.3374C20.9289 42.2782 21.1374 42.3965 21.1969 42.5887C21.2565 42.7883 21.1374 42.9879 20.9289 43.047C19.0973 43.5497 17.6529 45.3978 17.638 45.42Z" fill="#1F2033"/>
<path d="M17.2807 44.666L17.3552 45.5679C17.3477 45.5679 17.3328 45.5679 17.3254 45.5679C17.2435 45.5679 17.169 45.5457 17.0946 45.4939C16.9233 45.3683 16.8861 45.1391 17.0127 44.9765C17.0276 44.9617 17.1243 44.8434 17.2807 44.666Z" fill="#1F2033"/>
<path d="M36.173 50.2621C36.173 50.2621 27.3055 57.4845 31.3335 67.1317L36.173 50.2621ZM22.8308 39.8978C22.9425 39.8978 23.0467 39.8535 23.1212 39.7648C23.136 39.75 24.3496 38.412 26.01 37.9684C26.2184 37.9167 26.3376 37.7097 26.278 37.5101C26.2259 37.3105 26.01 37.1996 25.8015 37.2587C23.9178 37.7614 22.5925 39.2251 22.533 39.2843C22.3989 39.4395 22.4138 39.6761 22.5776 39.8017C22.6521 39.8683 22.7414 39.8978 22.8308 39.8978ZM41.2656 37.621C41.2656 37.8279 41.4443 37.9906 41.6528 37.9906C41.6826 37.9906 41.7049 37.9906 41.7273 37.9906C43.5961 37.9906 44.6756 38.6411 44.9139 38.8925C44.9064 38.9886 44.9437 39.0921 45.0256 39.166C45.0851 39.2251 45.1596 39.2621 45.234 39.2695L44.4597 43.5571C44.4597 43.5719 44.1321 45.6714 44.1321 45.6861C43.529 49.7668 43.9162 49.5228 45.2713 50.6095C47.0433 52.0437 50.2448 52.5316 52.4114 51.6741C57.6753 49.5894 61.0034 47.963 63.2966 47.0168C64.4953 46.5215 65.8057 46.2923 67.1161 46.3884C72.5141 46.8098 69.7295 51.9919 67.7043 52.9012C65.292 53.9879 51.0861 63.4429 51.0861 63.4429C51.0861 63.4429 51.0787 63.4503 51.0713 63.4503L20.3663 80.5195L19.8228 80.5343C20.2844 78.4718 19.1974 72.8535 18.6018 70.2883C18.4008 69.4308 18.1327 68.588 17.8349 67.7601C17.753 67.5457 17.6785 67.3165 17.6115 67.0947C16.7032 64.2043 15.5566 60.2937 15.4673 57.8246C15.4003 56.0356 15.3407 53.9731 15.6162 52.1176C15.7353 51.3118 15.78 50.4913 15.713 49.6781L15.3556 45.5457C15.4673 45.5383 15.5641 45.4865 15.6311 45.3978C15.646 45.3757 17.0904 43.5275 18.9219 43.0249C19.1304 42.9731 19.2495 42.7661 19.19 42.5665C19.1304 42.3743 18.9145 42.256 18.7135 42.3152C17.0978 42.7587 15.8098 44.0376 15.2811 44.6438L15.1471 43.1062C15.0875 42.3891 14.9461 41.6794 14.7376 40.9919L11.5137 30.5094C11.5137 30.5094 9.86086 23.8784 10.9032 22.3259C11.5361 21.3797 12.4742 21.2318 13.1145 21.254L21.3343 40.5558C20.9322 39.5208 17.619 30.9308 16.115 26.1404C15.0429 22.7177 14.0601 21.6902 13.5315 21.3871C13.6729 21.4314 13.7846 21.4388 13.7846 21.2688C13.7846 21.1653 13.7399 20.9879 13.6282 20.6996C12.3774 16.752 11.6552 14.0907 11.484 12.6492C11.4765 12.6122 11.4914 12.4496 11.4989 12.4126C11.5137 11.9247 11.819 10.4684 14.2462 10.1136C16.9415 9.72176 18.3337 14.4012 18.3337 14.4012C18.3337 14.4012 22.7861 28.8831 25.2952 33.2077C26.896 35.9798 28.4372 35.2258 29.3455 34.3239C29.8071 33.8656 30.1422 33.3111 30.3655 32.7124L36.6048 15.8058C37.0739 14.5269 37.5057 13.2406 37.8705 11.9321C38.4736 9.7883 39.0395 8.4133 39.5309 7.53359C40.2233 6.26209 41.8538 5.60416 43.3355 6.07728C44.8618 6.56518 45.2192 7.87365 45.3383 8.55375C45.3532 8.65725 45.3755 8.74596 45.4127 8.81988C45.4797 8.95295 45.5914 9.01948 45.785 8.93077C48.3388 7.84408 49.2844 10.5275 49.5226 11.5477C49.7832 12.6196 47.9293 24.418 47.9293 24.418L45.4127 38.3158C44.832 37.791 43.4471 37.2292 41.6528 37.2365C41.4369 37.2513 41.2656 37.4214 41.2656 37.621ZM35.622 36.5343C35.8007 36.5343 35.9571 36.416 36.0017 36.2534C36.0464 36.0538 35.9198 35.8542 35.7114 35.8098C34.051 35.4402 32.2716 35.795 32.1971 35.8098C31.9886 35.8542 31.8546 36.0464 31.8993 36.246C31.944 36.4456 32.1524 36.5712 32.3609 36.5269C32.3758 36.5269 34.0436 36.1942 35.5327 36.5269C35.5624 36.5343 35.5922 36.5343 35.622 36.5343Z" fill="url(#paint1_linear)"/>
<path d="M43.5012 80.0001C43.0012 80.0001 43.1396 79.6302 43.08 79.4454C43.08 79.4454 43.0875 79.4254 43.08 79.4254H43.0875V79.3589L42.8492 76.2023C42.5812 72.6095 44.2713 69.1425 47.376 66.9321C49.8107 65.1949 52.5581 63.2655 52.8335 63.088L52.8559 63.0733C53.0346 62.9624 53.2654 62.9919 53.4143 63.1398C53.5855 63.3172 53.5855 63.5981 53.4068 63.7755C53.3771 63.8051 53.3398 63.8273 53.31 63.8495C53.0643 64.0121 50.4436 65.8454 47.9047 67.6566C45.0605 69.6821 43.5044 72.8535 43.7501 76.1357L43.9884 79.3367C44.0405 79.7433 43.9107 79.8596 43.5012 80.0001C43.5459 80.0001 43.4491 80.0148 43.5012 80.0001Z" fill="#030C21"/>
<path d="M21.8231 81C21.7934 81 21.7561 81 21.7263 80.9926C21.4807 80.9408 21.3317 80.6969 21.3839 80.4603C21.8157 78.5235 20.7733 73.0457 20.1628 70.414C19.9841 69.6451 19.7384 68.832 19.4108 67.9301C19.3289 67.7083 19.247 67.4718 19.18 67.2426C18.294 64.4261 17.1027 60.3972 17.0208 57.8541C16.9613 56.2352 16.8794 54.0101 17.1772 52.0658C17.3038 51.2231 17.3336 50.4617 17.2665 49.7372L16.9092 45.6048C16.8868 45.3609 17.073 45.1391 17.3187 45.1169C17.5644 45.0947 17.7877 45.2796 17.8101 45.5235L18.1674 49.6559C18.2345 50.4469 18.2047 51.2822 18.0707 52.1989C17.7877 54.0618 17.8622 56.2352 17.9217 57.8246C18.0036 60.2567 19.1726 64.2117 20.0437 66.9765C20.1107 67.1834 20.1851 67.4126 20.2596 67.6196C20.5946 68.5511 20.8552 69.4012 21.0414 70.207C21.1158 70.5248 22.8506 78.0282 22.2624 80.6525C22.2177 80.8595 22.0316 81 21.8231 81Z" fill="#030C21"/>
<path d="M17.2806 45.117C17.0497 45.117 16.8487 44.9395 16.8338 44.7104L16.6998 43.1727C16.6403 42.4852 16.5062 41.8051 16.3052 41.1546L13.0813 30.6203C12.9101 29.918 11.4136 23.7453 12.5304 22.082C13.1111 21.2171 14.0344 20.7661 15.1363 20.8179C15.3894 20.8253 15.583 21.0397 15.5681 21.2836C15.5607 21.5276 15.3522 21.7272 15.099 21.7124C14.5555 21.6902 13.7961 21.8233 13.2898 22.5773C12.6123 23.5827 13.3419 27.8999 13.9599 30.3911L17.1763 40.8885C17.3997 41.5981 17.5411 42.3448 17.6082 43.0914L17.7422 44.6291C17.7645 44.873 17.5784 45.0948 17.3327 45.117C17.3029 45.117 17.2954 45.117 17.2806 45.117Z" fill="#030C21"/>
<path d="M29.6851 35.5954C29.5957 35.5954 29.5064 35.588 29.417 35.5806C28.5012 35.4623 27.6599 34.7379 26.9079 33.4368C24.4063 29.1122 20.0879 15.1257 19.9092 14.5343C19.8943 14.4899 18.584 10.2244 16.3131 10.5571C14.1093 10.8824 13.9603 12.1687 13.9529 12.4274C13.9529 12.4496 13.9529 12.4718 13.9455 12.5087C13.9455 12.5457 13.938 12.59 13.938 12.6196C14.1018 13.9872 14.7942 16.5894 16.0525 20.5591C16.1791 20.8918 16.2312 21.1062 16.2312 21.2688C16.2312 21.5497 16.0823 21.6976 16.0004 21.7567C15.7621 21.9341 15.4792 21.8454 15.3899 21.8158C15.1516 21.7419 15.025 21.4832 15.0995 21.254C15.1293 21.1579 15.1888 21.084 15.2633 21.0322C15.2484 20.9879 15.2261 20.9287 15.2037 20.8622L15.1963 20.84C13.9008 16.7446 13.2084 14.1572 13.0371 12.7157C13.0297 12.6492 13.0297 12.5752 13.0446 12.4422V12.3978C13.052 12.0282 13.253 10.0988 16.1716 9.67C19.2168 9.22645 20.6985 14.0685 20.7655 14.2755C20.8101 14.416 25.2327 28.75 27.6823 32.9859C28.2779 34.0208 28.9182 34.6122 29.5287 34.6935C29.9978 34.7527 30.5041 34.5309 31.0178 34.0134C31.4199 33.6142 31.7251 33.1263 31.9336 32.5645L38.1728 15.6579C38.6717 14.3125 39.0812 13.0558 39.4311 11.8212C39.9672 9.90657 40.5405 8.39111 41.1287 7.32659C41.9402 5.8407 43.8016 5.12363 45.4694 5.65589C46.7351 6.06248 47.5392 7.04568 47.7774 8.48721C47.7923 8.57592 47.8072 8.61288 47.8147 8.63506C47.9189 8.85683 47.8295 9.12296 47.5987 9.23385C47.3754 9.33734 47.1073 9.24863 46.9957 9.01947C46.9435 8.91597 46.9063 8.79769 46.884 8.63506C46.6978 7.5188 46.132 6.80912 45.1939 6.50603C43.943 6.10683 42.5359 6.63909 41.9253 7.74796C41.3669 8.75334 40.8234 10.2023 40.3022 12.0578C39.9449 13.3219 39.5279 14.5934 39.0291 15.961L32.7824 32.875C32.5292 33.5551 32.1495 34.1539 31.6581 34.6418C31.0327 35.2701 30.3477 35.5954 29.6851 35.5954ZM13.9306 12.59V12.5974V12.6048C13.9306 12.5974 13.9306 12.5974 13.9306 12.59Z" fill="#030C21"/>
<path d="M47.4056 38.7742C47.3758 38.7742 47.3535 38.7742 47.3237 38.7668C47.078 38.7225 46.9142 38.4859 46.9589 38.242L49.4754 24.3441C50.3614 18.7037 51.2251 12.3314 51.0762 11.6586C50.972 11.2225 50.5625 9.78096 49.5946 9.29305C49.1329 9.06389 48.5969 9.07867 47.9566 9.35219C47.5694 9.52222 47.1897 9.39655 47.0036 9.03432C46.8919 8.81254 46.9812 8.54641 47.1971 8.42813C47.3684 8.33942 47.562 8.369 47.696 8.48727C48.5522 8.14722 49.3191 8.15461 49.9966 8.49467C51.2772 9.13781 51.791 10.7789 51.9473 11.4517C52.2153 12.5531 50.6741 22.5108 50.3614 24.492L47.8449 38.4046C47.8151 38.6264 47.6215 38.7742 47.4056 38.7742Z" fill="#1F2033"/>
<path d="M53.0851 63.9012C52.9362 63.9012 52.7948 63.8347 52.7129 63.7016C52.5714 63.4946 52.631 63.2137 52.8394 63.0806C53.4202 62.6962 67.1048 53.5961 69.5246 52.502C70.5818 52.0289 72.0411 50.0033 71.7731 48.5101C71.6019 47.5343 70.6935 46.9724 69.0853 46.8468C67.8792 46.7581 66.6283 46.9576 65.4743 47.4382C64.6925 47.7634 63.7693 48.17 62.7046 48.6431C60.6273 49.5672 58.0438 50.7204 54.5817 52.088C52.2959 52.9973 48.8859 52.4872 46.9873 50.957C46.8459 50.8461 46.7193 50.7426 46.6002 50.6539C45.3345 49.6929 45.1558 49.2345 45.6844 45.6196L45.6918 45.59C45.7216 45.4052 45.9748 43.7641 46.012 43.5201L46.0194 43.4758L46.7938 39.1882C46.8384 38.9442 47.0692 38.7816 47.3149 38.8259C47.5606 38.8703 47.7244 39.0994 47.6798 39.3434L46.9054 43.631C46.8533 43.9933 46.6225 45.4644 46.5778 45.7453C46.079 49.131 46.2428 49.2567 47.1437 49.9368C47.2703 50.0329 47.4043 50.1364 47.5532 50.2547C49.221 51.6001 52.2215 52.0511 54.2392 51.2527C57.6789 49.8925 60.2551 48.7392 62.3249 47.8226C63.397 47.3421 64.3203 46.9355 65.1169 46.6028C66.405 46.0706 67.8047 45.8414 69.1449 45.9449C71.7284 46.1445 72.4804 47.3642 72.6517 48.3474C73.0091 50.3434 71.2445 52.7016 69.882 53.3152C67.5292 54.3723 53.4723 63.7238 53.3308 63.8199C53.2564 63.879 53.1745 63.9012 53.0851 63.9012Z" fill="#030C21"/>
<path d="M33.3333 67.5826C33.1546 67.5826 32.9908 67.4791 32.9163 67.3017C31.2188 63.2211 31.5389 58.9187 33.8544 54.8528C35.5892 51.7997 37.8005 49.9886 37.8899 49.9072C38.0834 49.752 38.3664 49.7816 38.5227 49.9664C38.6791 50.1586 38.6567 50.4395 38.4632 50.5947C38.4408 50.6095 36.2742 52.3985 34.6288 55.3111C32.4398 59.17 32.1494 63.088 33.7577 66.9469C33.8544 67.1761 33.7428 67.4422 33.512 67.5309C33.4449 67.5679 33.3854 67.5826 33.3333 67.5826Z" fill="#030C21"/>
<path d="M23.8407 50.4247C22.7984 50.4247 22.2549 50.2547 22.1878 50.2251C21.9496 50.1438 21.8305 49.8851 21.9124 49.6559C21.9943 49.4193 22.2474 49.3011 22.4857 49.375C22.5601 49.3972 28.0176 51.0235 39.8111 42.3373C40.0122 42.1895 40.2951 42.2338 40.444 42.4334C40.5929 42.633 40.5482 42.914 40.3472 43.0618C31.6956 49.4341 26.3349 50.4247 23.8407 50.4247Z" fill="#030C21"/>
<path d="M38.9317 36.6155C38.887 36.6155 38.8423 36.6081 38.7976 36.5933C38.5594 36.5194 38.4254 36.2681 38.4998 36.0315L46.9727 8.70156C47.0248 8.50935 47.2035 8.3689 47.412 8.3689C47.6651 8.3689 47.8662 8.56849 47.8662 8.81244V8.87898L47.8438 8.94551L39.3635 36.305C39.3039 36.4972 39.1252 36.6155 38.9317 36.6155Z" fill="#1F2033"/>
<path d="M23.3637 41.0806C23.1851 41.0806 23.0213 40.9771 22.9468 40.8071C22.9394 40.7923 22.9319 40.7775 22.9319 40.7628L22.917 40.7184C22.5448 39.75 19.2092 31.1156 17.6829 26.2735C16.6033 22.8286 15.6577 21.9785 15.3004 21.7715C15.211 21.7198 15.1589 21.705 15.1366 21.705C14.9132 21.7198 14.6973 21.5571 14.6675 21.328C14.6303 21.084 14.7941 20.8548 15.0398 20.8179C15.1366 20.8031 15.3897 20.7883 15.7545 21.0027C16.4321 21.3945 17.467 22.5847 18.5466 26.0148C20.0505 30.8051 23.3563 39.3582 23.7509 40.3857C23.7658 40.4153 23.7732 40.4375 23.7807 40.4671C23.8775 40.6962 23.7658 40.955 23.535 41.0511C23.4829 41.0732 23.4233 41.0806 23.3637 41.0806Z" fill="#1F2033"/>
<path d="M23.3785 41.1101C23.1998 41.1101 23.0286 40.9993 22.9541 40.8218L22.9467 40.7923C22.8573 40.5631 22.969 40.3044 23.2073 40.2083C23.4381 40.1196 23.6987 40.2304 23.7955 40.467L23.8029 40.4966C23.8922 40.7257 23.7806 40.9845 23.5423 41.0806C23.4827 41.0954 23.4306 41.1101 23.3785 41.1101Z" fill="#1F2033"/>
<path d="M21.2097 82.8865C21.1641 83.0651 21.0736 83.1913 21 83.3562" stroke="#030C21" stroke-linecap="round"/>
<path d="M44 82.1397C44.2959 82.9866 44.7646 83.7024 45.2676 84.4534" stroke="#030C21" stroke-linecap="round"/>
<path d="M46.5 85.5C46.5 85.5 46.2057 85.4338 46 85.1266" stroke="#030C21" stroke-linecap="round"/>
<defs>
<linearGradient id="paint0_linear" x1="16.9998" y1="47" x2="35.7134" y2="80.5343" gradientUnits="userSpaceOnUse">
<stop stop-color="#E7E5F3"/>
<stop offset="1" stop-color="#F9F8FF" stop-opacity="0"/>
</linearGradient>
<linearGradient id="paint1_linear" x1="25.9998" y1="64" x2="40.405" y2="80.5343" gradientUnits="userSpaceOnUse">
<stop stop-color="#F6F4FF"/>
<stop offset="1" stop-color="#F9F8FF" stop-opacity="0"/>
</linearGradient>
</defs>
</svg>
