<svg width="31" height="20" viewBox="0 0 31 20" fill="none" xmlns="http://www.w3.org/2000/svg">
<path d="M29.9999 20H0.526339C0.235684 20 0 19.7643 0 19.4737V0.526339C0 0.235684 0.235684 0 0.526339 0H30C30.2906 0 30.5263 0.235684 30.5263 0.526339V19.4737C30.5262 19.7644 30.2906 20 29.9999 20Z" fill="#F5F5F5"/>
<path d="M30.5262 1.53853H0V0.526339C0 0.235684 0.235684 0 0.526339 0H30C30.2906 0 30.5263 0.235684 30.5263 0.526339L30.5262 1.53853Z" fill="#FF4B55"/>
<path d="M30.5262 6.15405H0V7.69253H30.5262V6.15405Z" fill="#FF4B55"/>
<path d="M30.5262 3.0769H0V4.61538H30.5262V3.0769Z" fill="#FF4B55"/>
<path d="M30.5262 10.7695H0.526339C0.235684 10.7695 0 10.5338 0 10.2432V9.23096H30.5262V10.7695Z" fill="#FF4B55"/>
<path d="M30.5262 15.3853H0V16.9237H30.5262V15.3853Z" fill="#FF4B55"/>
<path d="M29.9999 20.0001H0.526339C0.235684 20.0001 0 19.7645 0 19.4738V18.4617H30.5262V19.4739C30.5262 19.7645 30.2906 20.0001 29.9999 20.0001Z" fill="#FF4B55"/>
<path d="M30.5262 12.3079H0V13.8463H30.5262V12.3079Z" fill="#FF4B55"/>
<path d="M13.6842 0H0.526339C0.235684 0 0 0.235624 0 0.526279V10.2428C0 10.5335 0.235684 10.7691 0.526339 10.7691H13.6842C13.9749 10.7691 14.2106 10.5335 14.2106 10.2428V0.526279C14.2105 0.235624 13.9748 0 13.6842 0Z" fill="#41479B"/>
<path d="M1.47805 1.20923L1.59455 1.55861L1.96283 1.56141C2.01053 1.56183 2.03026 1.62264 1.99193 1.65096L1.69567 1.86977L1.8068 2.22088C1.82123 2.26632 1.76942 2.304 1.7306 2.27621L1.43101 2.06211L1.13141 2.27627C1.09259 2.304 1.0409 2.26638 1.05521 2.22094L1.16635 1.86983L0.870087 1.65102C0.83175 1.62264 0.851485 1.56189 0.899182 1.56147L1.26746 1.55867L1.38397 1.20928C1.39899 1.16397 1.4629 1.16397 1.47805 1.20923Z" fill="#F5F5F5"/>
<path d="M1.4778 3.03584L1.5943 3.38522L1.96259 3.38803C2.01028 3.38844 2.03002 3.44926 1.99168 3.47758L1.69542 3.69639L1.80656 4.0475C1.82099 4.09293 1.76917 4.13061 1.73036 4.10283L1.43076 3.88873L1.13116 4.10289C1.09235 4.13061 1.04066 4.09299 1.05497 4.04756L1.1661 3.69645L0.869842 3.47764C0.831506 3.44926 0.851241 3.3885 0.898938 3.38809L1.26722 3.38528L1.38372 3.0359C1.39875 2.99065 1.46266 2.99065 1.4778 3.03584Z" fill="#F5F5F5"/>
<path d="M1.4778 4.86348L1.5943 5.21286L1.96259 5.21566C2.01028 5.21608 2.03002 5.27689 1.99168 5.30521L1.69542 5.52403L1.80656 5.87514C1.82099 5.92057 1.76917 5.95825 1.73036 5.93047L1.43076 5.71636L1.13116 5.93052C1.09235 5.95825 1.04066 5.92063 1.05497 5.8752L1.1661 5.52408L0.869842 5.30527C0.831506 5.27689 0.851241 5.21614 0.898938 5.21572L1.26722 5.21292L1.38372 4.86354C1.39875 4.81828 1.46266 4.81828 1.4778 4.86348Z" fill="#F5F5F5"/>
<path d="M1.4778 6.69116L1.5943 7.04054L1.96259 7.04334C2.01028 7.04376 2.03002 7.10457 1.99168 7.13289L1.69542 7.35171L1.80656 7.70282C1.82099 7.74825 1.76917 7.78593 1.73036 7.75815L1.43076 7.54405L1.13116 7.75821C1.09235 7.78593 1.04066 7.74831 1.05497 7.70288L1.1661 7.35177L0.869842 7.13295C0.831506 7.10457 0.851241 7.04382 0.898938 7.0434L1.26722 7.0406L1.38372 6.69122C1.39875 6.64591 1.46266 6.64591 1.4778 6.69116Z" fill="#F5F5F5"/>
<path d="M1.4778 8.51884L1.5943 8.86822L1.96259 8.87102C2.01028 8.87144 2.03002 8.93226 1.99168 8.96058L1.69542 9.17939L1.80656 9.5305C1.82099 9.57593 1.76917 9.61361 1.73036 9.58583L1.43076 9.37173L1.13116 9.58589C1.09235 9.61361 1.04066 9.57599 1.05497 9.53056L1.1661 9.17945L0.869842 8.96064C0.831506 8.93226 0.851241 8.8715 0.898938 8.87108L1.26722 8.86828L1.38372 8.5189C1.39875 8.47353 1.46266 8.47353 1.4778 8.51884Z" fill="#F5F5F5"/>
<path d="M2.8965 2.10445L3.01301 2.45383L3.38129 2.45664C3.42899 2.45705 3.44872 2.51787 3.41038 2.54619L3.11412 2.765L3.22526 3.11611C3.23969 3.16154 3.18788 3.19922 3.14906 3.17144L2.84946 2.95728L2.54987 3.17144C2.51105 3.19916 2.45936 3.16154 2.47367 3.11611L2.5848 2.765L2.28854 2.54619C2.25021 2.51781 2.26994 2.45705 2.31764 2.45664L2.68592 2.45383L2.80242 2.10445C2.81739 2.05926 2.88142 2.05926 2.8965 2.10445Z" fill="#F5F5F5"/>
<path d="M2.8965 3.93213L3.01301 4.28152L3.38129 4.28432C3.42899 4.28473 3.44872 4.34555 3.41038 4.37387L3.11412 4.59268L3.22526 4.94379C3.23969 4.98922 3.18788 5.0269 3.14906 4.99912L2.84946 4.78496L2.54987 4.99912C2.51105 5.02684 2.45936 4.98928 2.47367 4.94379L2.5848 4.59268L2.28854 4.37387C2.25021 4.34549 2.26994 4.28473 2.31764 4.28432L2.68592 4.28152L2.80242 3.93213C2.81739 3.88688 2.88142 3.88688 2.8965 3.93213Z" fill="#F5F5F5"/>
<path d="M2.8965 5.75953L3.01301 6.10891L3.38129 6.11171C3.42899 6.11213 3.44872 6.17294 3.41038 6.20126L3.11412 6.42007L3.22526 6.77118C3.23969 6.81662 3.18788 6.8543 3.14906 6.82651L2.84946 6.61235L2.54987 6.82651C2.51105 6.85424 2.45936 6.81662 2.47367 6.77118L2.5848 6.42007L2.28854 6.20126C2.25021 6.17288 2.26994 6.11213 2.31764 6.11171L2.68592 6.10891L2.80242 5.75953C2.81739 5.71427 2.88142 5.71427 2.8965 5.75953Z" fill="#F5F5F5"/>
<path d="M2.8965 7.58736L3.01301 7.93674L3.38129 7.93955C3.42899 7.93996 3.44872 8.00078 3.41038 8.0291L3.11412 8.24791L3.22526 8.59902C3.23969 8.64445 3.18788 8.68213 3.14906 8.65435L2.84946 8.44019L2.54987 8.65435C2.51105 8.68207 2.45936 8.64445 2.47367 8.59902L2.5848 8.24791L2.28854 8.0291C2.25021 8.00072 2.26994 7.93996 2.31764 7.93955L2.68592 7.93674L2.80242 7.58736C2.81739 7.54217 2.88142 7.54217 2.8965 7.58736Z" fill="#F5F5F5"/>
<path d="M4.31496 1.20826L4.43146 1.55764L4.79974 1.56044C4.84744 1.56086 4.86718 1.62167 4.82884 1.64999L4.53258 1.8688L4.64372 2.21991C4.65814 2.26535 4.60633 2.30303 4.56752 2.27524L4.26792 2.06108L3.96832 2.27524C3.92951 2.30297 3.87782 2.26535 3.89213 2.21991L4.00326 1.8688L3.707 1.64999C3.66866 1.62161 3.6884 1.56086 3.7361 1.56044L4.10438 1.55764L4.22088 1.20826C4.2359 1.163 4.29988 1.163 4.31496 1.20826Z" fill="#F5F5F5"/>
<path d="M4.31496 3.03585L4.43146 3.38523L4.79974 3.38803C4.84744 3.38845 4.86718 3.44926 4.82884 3.47758L4.53258 3.6964L4.64372 4.04751C4.65814 4.09294 4.60633 4.13062 4.56752 4.10284L4.26792 3.88868L3.96832 4.10284C3.92951 4.13056 3.87782 4.09294 3.89213 4.04751L4.00326 3.6964L3.707 3.47758C3.66866 3.4492 3.6884 3.38845 3.7361 3.38803L4.10438 3.38523L4.22088 3.03585C4.2359 2.99065 4.29988 2.99065 4.31496 3.03585Z" fill="#F5F5F5"/>
<path d="M4.31496 4.86348L4.43146 5.21287L4.79974 5.21567C4.84744 5.21609 4.86718 5.2769 4.82884 5.30522L4.53258 5.52403L4.64372 5.87514C4.65814 5.92058 4.60633 5.95826 4.56752 5.93047L4.26792 5.71631L3.96832 5.93047C3.92951 5.9582 3.87782 5.92058 3.89213 5.87514L4.00326 5.52403L3.707 5.30522C3.66866 5.27684 3.6884 5.21609 3.7361 5.21567L4.10438 5.21287L4.22088 4.86348C4.2359 4.81829 4.29988 4.81829 4.31496 4.86348Z" fill="#F5F5F5"/>
<path d="M4.31496 6.69117L4.43146 7.04055L4.79974 7.04335C4.84744 7.04377 4.86718 7.10458 4.82884 7.1329L4.53258 7.35171L4.64372 7.70282C4.65814 7.74826 4.60633 7.78594 4.56752 7.75815L4.26792 7.54399L3.96832 7.75815C3.92951 7.78588 3.87782 7.74826 3.89213 7.70282L4.00326 7.35171L3.707 7.1329C3.66866 7.10452 3.6884 7.04377 3.7361 7.04335L4.10438 7.04055L4.22088 6.69117C4.2359 6.64591 4.29988 6.64591 4.31496 6.69117Z" fill="#F5F5F5"/>
<path d="M4.31496 8.51885L4.43146 8.86823L4.79974 8.87103C4.84744 8.87145 4.86718 8.93226 4.82884 8.96058L4.53258 9.17939L4.64372 9.53051C4.65814 9.57594 4.60633 9.61362 4.56752 9.58584L4.26792 9.37167L3.96832 9.58584C3.92951 9.61356 3.87782 9.57594 3.89213 9.53051L4.00326 9.17939L3.707 8.96058C3.66866 8.9322 3.6884 8.87145 3.7361 8.87103L4.10438 8.86823L4.22088 8.51885C4.2359 8.47354 4.29988 8.47354 4.31496 8.51885Z" fill="#F5F5F5"/>
<path d="M5.73391 2.10445L5.85041 2.45383L6.21869 2.45664C6.26639 2.45705 6.28612 2.51787 6.24779 2.54619L5.95153 2.765L6.06266 3.11611C6.07709 3.16154 6.02528 3.19922 5.98646 3.17144L5.68687 2.95728L5.38727 3.17144C5.34845 3.19916 5.29676 3.16154 5.31107 3.11611L5.42221 2.765L5.12595 2.54619C5.08761 2.51781 5.10734 2.45705 5.15504 2.45664L5.52332 2.45383L5.63982 2.10445C5.65479 2.05926 5.71882 2.05926 5.73391 2.10445Z" fill="#F5F5F5"/>
<path d="M5.73391 3.93213L5.85041 4.28152L6.21869 4.28432C6.26639 4.28473 6.28612 4.34555 6.24779 4.37387L5.95153 4.59268L6.06266 4.94379C6.07709 4.98922 6.02528 5.0269 5.98646 4.99912L5.68687 4.78496L5.38727 4.99912C5.34845 5.02684 5.29676 4.98928 5.31107 4.94379L5.42221 4.59268L5.12595 4.37387C5.08761 4.34549 5.10734 4.28473 5.15504 4.28432L5.52332 4.28152L5.63982 3.93213C5.65479 3.88688 5.71882 3.88688 5.73391 3.93213Z" fill="#F5F5F5"/>
<path d="M5.73391 5.75953L5.85041 6.10891L6.21869 6.11171C6.26639 6.11213 6.28612 6.17294 6.24779 6.20126L5.95153 6.42007L6.06266 6.77118C6.07709 6.81662 6.02528 6.8543 5.98646 6.82651L5.68687 6.61235L5.38727 6.82651C5.34845 6.85424 5.29676 6.81662 5.31107 6.77118L5.42221 6.42007L5.12595 6.20126C5.08761 6.17288 5.10734 6.11213 5.15504 6.11171L5.52332 6.10891L5.63982 5.75953C5.65479 5.71427 5.71882 5.71427 5.73391 5.75953Z" fill="#F5F5F5"/>
<path d="M5.73391 7.58736L5.85041 7.93674L6.21869 7.93955C6.26639 7.93996 6.28612 8.00078 6.24779 8.0291L5.95153 8.24791L6.06266 8.59902C6.07709 8.64445 6.02528 8.68213 5.98646 8.65435L5.68687 8.44019L5.38727 8.65435C5.34845 8.68207 5.29676 8.64445 5.31107 8.59902L5.42221 8.24791L5.12595 8.0291C5.08761 8.00072 5.10734 7.93996 5.15504 7.93955L5.52332 7.93674L5.63982 7.58736C5.65479 7.54217 5.71882 7.54217 5.73391 7.58736Z" fill="#F5F5F5"/>
<path d="M7.15242 1.20826L7.26892 1.55764L7.63721 1.56044C7.6849 1.56086 7.70464 1.62167 7.6663 1.64999L7.37004 1.8688L7.48118 2.21991C7.49561 2.26535 7.44379 2.30303 7.40498 2.27524L7.10532 2.06108L6.80572 2.27524C6.76691 2.30297 6.71522 2.26535 6.72953 2.21991L6.84066 1.8688L6.5444 1.64999C6.50607 1.62161 6.5258 1.56086 6.5735 1.56044L6.94178 1.55764L7.05828 1.20826C7.07337 1.163 7.13734 1.163 7.15242 1.20826Z" fill="#F5F5F5"/>
<path d="M7.15242 3.03585L7.26892 3.38523L7.63721 3.38803C7.6849 3.38845 7.70464 3.44926 7.6663 3.47758L7.37004 3.6964L7.48118 4.04751C7.49561 4.09294 7.44379 4.13062 7.40498 4.10284L7.10532 3.88868L6.80572 4.10284C6.76691 4.13056 6.71522 4.09294 6.72953 4.04751L6.84066 3.6964L6.5444 3.47758C6.50607 3.4492 6.5258 3.38845 6.5735 3.38803L6.94178 3.38523L7.05828 3.03585C7.07337 2.99065 7.13734 2.99065 7.15242 3.03585Z" fill="#F5F5F5"/>
<path d="M7.15242 4.86348L7.26892 5.21287L7.63721 5.21567C7.6849 5.21609 7.70464 5.2769 7.6663 5.30522L7.37004 5.52403L7.48118 5.87514C7.49561 5.92058 7.44379 5.95826 7.40498 5.93047L7.10532 5.71631L6.80572 5.93047C6.76691 5.9582 6.71522 5.92058 6.72953 5.87514L6.84066 5.52403L6.5444 5.30522C6.50607 5.27684 6.5258 5.21609 6.5735 5.21567L6.94178 5.21287L7.05828 4.86348C7.07337 4.81829 7.13734 4.81829 7.15242 4.86348Z" fill="#F5F5F5"/>
<path d="M7.15242 6.69117L7.26892 7.04055L7.63721 7.04335C7.6849 7.04377 7.70464 7.10458 7.6663 7.1329L7.37004 7.35171L7.48118 7.70282C7.49561 7.74826 7.44379 7.78594 7.40498 7.75815L7.10532 7.54399L6.80572 7.75815C6.76691 7.78588 6.71522 7.74826 6.72953 7.70282L6.84066 7.35171L6.5444 7.1329C6.50607 7.10452 6.5258 7.04377 6.5735 7.04335L6.94178 7.04055L7.05828 6.69117C7.07337 6.64591 7.13734 6.64591 7.15242 6.69117Z" fill="#F5F5F5"/>
<path d="M7.15242 8.51885L7.26892 8.86823L7.63721 8.87103C7.6849 8.87145 7.70464 8.93226 7.6663 8.96058L7.37004 9.17939L7.48118 9.53051C7.49561 9.57594 7.44379 9.61362 7.40498 9.58584L7.10532 9.37167L6.80572 9.58584C6.76691 9.61356 6.71522 9.57594 6.72953 9.53051L6.84066 9.17939L6.5444 8.96058C6.50607 8.9322 6.5258 8.87145 6.5735 8.87103L6.94178 8.86823L7.05828 8.51885C7.07337 8.47354 7.13734 8.47354 7.15242 8.51885Z" fill="#F5F5F5"/>
<path d="M8.57058 2.10445L8.68708 2.45383L9.05536 2.45664C9.10306 2.45705 9.12279 2.51787 9.08446 2.54619L8.7882 2.765L8.89933 3.11611C8.91376 3.16154 8.86195 3.19922 8.82313 3.17144L8.52354 2.95728L8.22394 3.17144C8.18512 3.19916 8.13343 3.16154 8.14774 3.11611L8.25888 2.765L7.96262 2.54619C7.92428 2.51781 7.94401 2.45705 7.99171 2.45664L8.35999 2.45383L8.47649 2.10445C8.49158 2.05926 8.55549 2.05926 8.57058 2.10445Z" fill="#F5F5F5"/>
<path d="M8.57058 3.93213L8.68708 4.28152L9.05536 4.28432C9.10306 4.28473 9.12279 4.34555 9.08446 4.37387L8.7882 4.59268L8.89933 4.94379C8.91376 4.98922 8.86195 5.0269 8.82313 4.99912L8.52354 4.78496L8.22394 4.99912C8.18512 5.02684 8.13343 4.98928 8.14774 4.94379L8.25888 4.59268L7.96262 4.37387C7.92428 4.34549 7.94401 4.28473 7.99171 4.28432L8.35999 4.28152L8.47649 3.93213C8.49158 3.88688 8.55549 3.88688 8.57058 3.93213Z" fill="#F5F5F5"/>
<path d="M8.57058 5.75953L8.68708 6.10891L9.05536 6.11171C9.10306 6.11213 9.12279 6.17294 9.08446 6.20126L8.7882 6.42007L8.89933 6.77118C8.91376 6.81662 8.86195 6.8543 8.82313 6.82651L8.52354 6.61235L8.22394 6.82651C8.18512 6.85424 8.13343 6.81662 8.14774 6.77118L8.25888 6.42007L7.96262 6.20126C7.92428 6.17288 7.94401 6.11213 7.99171 6.11171L8.35999 6.10891L8.47649 5.75953C8.49158 5.71427 8.55549 5.71427 8.57058 5.75953Z" fill="#F5F5F5"/>
<path d="M8.57058 7.58736L8.68708 7.93674L9.05536 7.93955C9.10306 7.93996 9.12279 8.00078 9.08446 8.0291L8.7882 8.24791L8.89933 8.59902C8.91376 8.64445 8.86195 8.68213 8.82313 8.65435L8.52354 8.44019L8.22394 8.65435C8.18512 8.68207 8.13343 8.64445 8.14774 8.59902L8.25888 8.24791L7.96262 8.0291C7.92428 8.00072 7.94401 7.93996 7.99171 7.93955L8.35999 7.93674L8.47649 7.58736C8.49158 7.54217 8.55549 7.54217 8.57058 7.58736Z" fill="#F5F5F5"/>
<path d="M9.98952 1.20826L10.106 1.55764L10.4743 1.56044C10.522 1.56086 10.5417 1.62167 10.5034 1.64999L10.2071 1.8688L10.3183 2.21991C10.3327 2.26535 10.2809 2.30303 10.2421 2.27524L9.94248 2.06108L9.64288 2.27524C9.60407 2.30297 9.55238 2.26535 9.56669 2.21991L9.67782 1.8688L9.38156 1.64999C9.34322 1.62161 9.36296 1.56086 9.41066 1.56044L9.77894 1.55764L9.89544 1.20826C9.9104 1.163 9.97444 1.163 9.98952 1.20826Z" fill="#F5F5F5"/>
<path d="M9.98952 3.03585L10.106 3.38523L10.4743 3.38803C10.522 3.38845 10.5417 3.44926 10.5034 3.47758L10.2071 3.6964L10.3183 4.04751C10.3327 4.09294 10.2809 4.13062 10.2421 4.10284L9.94248 3.88868L9.64288 4.10284C9.60407 4.13056 9.55238 4.09294 9.56669 4.04751L9.67782 3.6964L9.38156 3.47758C9.34322 3.4492 9.36296 3.38845 9.41066 3.38803L9.77894 3.38523L9.89544 3.03585C9.9104 2.99065 9.97444 2.99065 9.98952 3.03585Z" fill="#F5F5F5"/>
<path d="M9.98952 4.86348L10.106 5.21287L10.4743 5.21567C10.522 5.21609 10.5417 5.2769 10.5034 5.30522L10.2071 5.52403L10.3183 5.87514C10.3327 5.92058 10.2809 5.95826 10.2421 5.93047L9.94248 5.71631L9.64288 5.93047C9.60407 5.9582 9.55238 5.92058 9.56669 5.87514L9.67782 5.52403L9.38156 5.30522C9.34322 5.27684 9.36296 5.21609 9.41066 5.21567L9.77894 5.21287L9.89544 4.86348C9.9104 4.81829 9.97444 4.81829 9.98952 4.86348Z" fill="#F5F5F5"/>
<path d="M9.98952 6.69117L10.106 7.04055L10.4743 7.04335C10.522 7.04377 10.5417 7.10458 10.5034 7.1329L10.2071 7.35171L10.3183 7.70282C10.3327 7.74826 10.2809 7.78594 10.2421 7.75815L9.94248 7.54399L9.64288 7.75815C9.60407 7.78588 9.55238 7.74826 9.56669 7.70282L9.67782 7.35171L9.38156 7.1329C9.34322 7.10452 9.36296 7.04377 9.41066 7.04335L9.77894 7.04055L9.89544 6.69117C9.9104 6.64591 9.97444 6.64591 9.98952 6.69117Z" fill="#F5F5F5"/>
<path d="M9.98952 8.51885L10.106 8.86823L10.4743 8.87103C10.522 8.87145 10.5417 8.93226 10.5034 8.96058L10.2071 9.17939L10.3183 9.53051C10.3327 9.57594 10.2809 9.61362 10.2421 9.58584L9.94248 9.37167L9.64288 9.58584C9.60407 9.61356 9.55238 9.57594 9.56669 9.53051L9.67782 9.17939L9.38156 8.96058C9.34322 8.9322 9.36296 8.87145 9.41066 8.87103L9.77894 8.86823L9.89544 8.51885C9.9104 8.47354 9.97444 8.47354 9.98952 8.51885Z" fill="#F5F5F5"/>
<path d="M11.408 2.10445L11.5245 2.45383L11.8928 2.45664C11.9405 2.45705 11.9602 2.51787 11.9219 2.54619L11.6256 2.765L11.7367 3.11611C11.7512 3.16154 11.6994 3.19922 11.6605 3.17144L11.3609 2.95728L11.0613 3.17144C11.0225 3.19916 10.9708 3.16154 10.9851 3.11611L11.0963 2.765L10.8 2.54619C10.7617 2.51781 10.7814 2.45705 10.8291 2.45664L11.1974 2.45383L11.3139 2.10445C11.3289 2.05926 11.393 2.05926 11.408 2.10445Z" fill="#F5F5F5"/>
<path d="M11.408 3.93213L11.5245 4.28152L11.8928 4.28432C11.9405 4.28473 11.9602 4.34555 11.9219 4.37387L11.6256 4.59268L11.7367 4.94379C11.7512 4.98922 11.6994 5.0269 11.6605 4.99912L11.3609 4.78496L11.0613 4.99912C11.0225 5.02684 10.9708 4.98928 10.9851 4.94379L11.0963 4.59268L10.8 4.37387C10.7617 4.34549 10.7814 4.28473 10.8291 4.28432L11.1974 4.28152L11.3139 3.93213C11.3289 3.88688 11.393 3.88688 11.408 3.93213Z" fill="#F5F5F5"/>
<path d="M11.408 5.75953L11.5245 6.10891L11.8928 6.11171C11.9405 6.11213 11.9602 6.17294 11.9219 6.20126L11.6256 6.42007L11.7367 6.77118C11.7512 6.81662 11.6994 6.8543 11.6605 6.82651L11.3609 6.61235L11.0613 6.82651C11.0225 6.85424 10.9708 6.81662 10.9851 6.77118L11.0963 6.42007L10.8 6.20126C10.7617 6.17288 10.7814 6.11213 10.8291 6.11171L11.1974 6.10891L11.3139 5.75953C11.3289 5.71427 11.393 5.71427 11.408 5.75953Z" fill="#F5F5F5"/>
<path d="M11.408 7.58736L11.5245 7.93674L11.8928 7.93955C11.9405 7.93996 11.9602 8.00078 11.9219 8.0291L11.6256 8.24791L11.7367 8.59902C11.7512 8.64445 11.6994 8.68213 11.6605 8.65435L11.3609 8.44019L11.0613 8.65435C11.0225 8.68207 10.9708 8.64445 10.9851 8.59902L11.0963 8.24791L10.8 8.0291C10.7617 8.00072 10.7814 7.93996 10.8291 7.93955L11.1974 7.93674L11.3139 7.58736C11.3289 7.54217 11.393 7.54217 11.408 7.58736Z" fill="#F5F5F5"/>
<path d="M12.8267 1.20826L12.9432 1.55764L13.3115 1.56044C13.3592 1.56086 13.3789 1.62167 13.3406 1.64999L13.0443 1.8688L13.1554 2.21991C13.1699 2.26535 13.1181 2.30303 13.0792 2.27524L12.7796 2.06108L12.48 2.27524C12.4412 2.30297 12.3895 2.26535 12.4038 2.21991L12.515 1.8688L12.2187 1.64999C12.1804 1.62161 12.2001 1.56086 12.2478 1.56044L12.6161 1.55764L12.7326 1.20826C12.7476 1.163 12.8115 1.163 12.8267 1.20826Z" fill="#F5F5F5"/>
<path d="M12.8267 3.03585L12.9432 3.38523L13.3115 3.38803C13.3592 3.38845 13.3789 3.44926 13.3406 3.47758L13.0443 3.6964L13.1554 4.04751C13.1699 4.09294 13.1181 4.13062 13.0792 4.10284L12.7796 3.88868L12.48 4.10284C12.4412 4.13056 12.3895 4.09294 12.4038 4.04751L12.515 3.6964L12.2187 3.47758C12.1804 3.4492 12.2001 3.38845 12.2478 3.38803L12.6161 3.38523L12.7326 3.03585C12.7476 2.99065 12.8115 2.99065 12.8267 3.03585Z" fill="#F5F5F5"/>
<path d="M12.8267 4.86348L12.9432 5.21287L13.3115 5.21567C13.3592 5.21609 13.3789 5.2769 13.3406 5.30522L13.0443 5.52403L13.1554 5.87514C13.1699 5.92058 13.1181 5.95826 13.0792 5.93047L12.7796 5.71631L12.48 5.93047C12.4412 5.9582 12.3895 5.92058 12.4038 5.87514L12.515 5.52403L12.2187 5.30522C12.1804 5.27684 12.2001 5.21609 12.2478 5.21567L12.6161 5.21287L12.7326 4.86348C12.7476 4.81829 12.8115 4.81829 12.8267 4.86348Z" fill="#F5F5F5"/>
<path d="M12.8267 6.69117L12.9432 7.04055L13.3115 7.04335C13.3592 7.04377 13.3789 7.10458 13.3406 7.1329L13.0443 7.35171L13.1554 7.70282C13.1699 7.74826 13.1181 7.78594 13.0792 7.75815L12.7796 7.54399L12.48 7.75815C12.4412 7.78588 12.3895 7.74826 12.4038 7.70282L12.515 7.35171L12.2187 7.1329C12.1804 7.10452 12.2001 7.04377 12.2478 7.04335L12.6161 7.04055L12.7326 6.69117C12.7476 6.64591 12.8115 6.64591 12.8267 6.69117Z" fill="#F5F5F5"/>
<path d="M12.8267 8.51885L12.9432 8.86823L13.3115 8.87103C13.3592 8.87145 13.3789 8.93226 13.3406 8.96058L13.0443 9.17939L13.1554 9.53051C13.1699 9.57594 13.1181 9.61362 13.0792 9.58584L12.7796 9.37167L12.48 9.58584C12.4412 9.61356 12.3895 9.57594 12.4038 9.53051L12.515 9.17939L12.2187 8.96058C12.1804 8.9322 12.2001 8.87145 12.2478 8.87103L12.6161 8.86823L12.7326 8.51885C12.7476 8.47354 12.8115 8.47354 12.8267 8.51885Z" fill="#F5F5F5"/>
</svg>
