<svg width="111" height="35" viewBox="0 0 111 35" fill="none" xmlns="http://www.w3.org/2000/svg">
<path d="M52.3786 27.3161H53.1852L55.0504 32.2963L56.9157 27.3161H57.7223L55.4537 33.0006H54.6975L52.3786 27.3161Z" fill="#103460"/>
<path d="M63.5197 33.1013C62.7131 33.1013 62.0578 32.8497 61.5536 32.2964C61.0495 31.743 60.7974 31.0387 60.7974 30.1332C60.7974 29.2277 61.0495 28.5234 61.5536 28.0204C62.0578 27.467 62.7635 27.2155 63.5701 27.2155C64.3767 27.2155 65.0321 27.467 65.5362 27.9701C66.0403 28.4731 66.242 29.1271 66.242 29.8314C66.242 30.0326 66.242 30.2338 66.1916 30.3847H61.5032C61.5536 31.0387 61.7049 31.5418 62.1082 31.9442C62.4611 32.2964 62.9652 32.4976 63.5197 32.4976C63.9734 32.4976 64.3263 32.397 64.6288 32.1958C64.9313 31.9945 65.1329 31.743 65.2842 31.3909H66.0908C65.8891 31.8939 65.5866 32.2964 65.1833 32.5982C64.7296 32.9503 64.1751 33.1013 63.5197 33.1013ZM65.4858 29.8314C65.4858 29.2277 65.2842 28.7246 64.9313 28.3222C64.528 27.9701 64.0743 27.7688 63.5197 27.7688C62.9652 27.7688 62.5115 27.9701 62.1082 28.3222C61.7553 28.6743 61.5536 29.1774 61.5032 29.8314H65.4858Z" fill="#103460"/>
<path d="M70.0229 27.3161V28.2216C70.4262 27.5173 71.0312 27.2155 71.8882 27.2155C72.5435 27.2155 73.0477 27.4167 73.451 27.8191C73.8543 28.2216 74.1063 28.8253 74.1063 29.5798V32.9503H73.4006V29.6805C73.4006 29.0768 73.2493 28.5737 72.9468 28.2719C72.6444 27.9701 72.2411 27.7688 71.6865 27.7688C71.1824 27.7688 70.7287 27.9198 70.4262 28.2719C70.1237 28.5737 69.9725 29.0768 69.9725 29.6805V32.9503H69.2667V27.3161H70.0229Z" fill="#103460"/>
<path d="M80.307 27.8694H78.7442V31.6424C78.7442 31.9442 78.7947 32.1454 78.8955 32.246C78.9963 32.3466 79.198 32.397 79.5004 32.397H80.307V32.9503H79.3492C78.4418 32.9503 78.0385 32.4976 78.0385 31.5921V27.8191H77.2319V27.2658H78.0385V25.8572H78.7442V27.2658H80.307V27.8694Z" fill="#103460"/>
<path d="M87.4656 27.3161H88.1714V33.0006H87.4656V32.0951C87.0623 32.7994 86.4574 33.1012 85.6004 33.1012C84.945 33.1012 84.4409 32.9 84.0376 32.4976C83.6343 32.0951 83.3822 31.4914 83.3822 30.7369V27.3664H84.088V30.6362C84.088 31.2399 84.2392 31.743 84.5417 32.0448C84.8442 32.3467 85.2475 32.5479 85.802 32.5479C86.3061 32.5479 86.7598 32.397 87.0623 32.0448C87.3648 31.743 87.516 31.2399 87.516 30.6362V27.3161H87.4656Z" fill="#103460"/>
<path d="M91.9523 27.3161V28.2719C92.2548 27.5676 92.8598 27.2155 93.7168 27.2155V27.9701H93.5151C93.011 27.9701 92.6077 28.121 92.3556 28.3725C92.1036 28.624 91.9523 29.1271 91.9523 29.7811V33.0006H91.2466V27.3161H91.9523Z" fill="#103460"/>
<path d="M99.5142 33.1013C98.7076 33.1013 98.0523 32.8497 97.5481 32.2964C97.044 31.743 96.7919 31.0387 96.7919 30.1332C96.7919 29.2277 97.044 28.5234 97.5481 28.0204C98.0523 27.467 98.758 27.2155 99.5646 27.2155C100.371 27.2155 101.027 27.467 101.531 27.9701C102.035 28.4731 102.236 29.1271 102.236 29.8314C102.236 30.0326 102.236 30.2338 102.186 30.3847H97.4977C97.5481 31.0387 97.6994 31.5418 98.1027 31.9442C98.4556 32.2964 98.9597 32.4976 99.5142 32.4976C99.9679 32.4976 100.321 32.397 100.623 32.1958C100.926 31.9945 101.127 31.743 101.279 31.3909H102.085C101.884 31.8939 101.581 32.2964 101.178 32.5982C100.724 32.9503 100.17 33.1013 99.5142 33.1013ZM101.531 29.8314C101.531 29.2277 101.329 28.7246 100.976 28.3222C100.573 27.9701 100.119 27.7688 99.5646 27.7688C99.0101 27.7688 98.5564 27.9701 98.1531 28.3222C97.8002 28.6743 97.5985 29.1774 97.5481 29.8314H101.531Z" fill="#103460"/>
<path d="M105.312 28.8756C105.312 28.4228 105.513 28.0204 105.917 27.6682C106.32 27.3664 106.824 27.1652 107.429 27.1652C108.034 27.1652 108.488 27.3161 108.84 27.6179C109.193 27.9197 109.345 28.3725 109.395 28.9259H108.639C108.639 28.5737 108.488 28.2719 108.286 28.0707C108.084 27.8694 107.731 27.7185 107.379 27.7185C106.975 27.7185 106.673 27.8191 106.421 28.0204C106.219 28.2216 106.068 28.4731 106.068 28.7246C106.068 28.9762 106.169 29.2277 106.32 29.3786C106.471 29.5295 106.673 29.6301 106.975 29.6805C107.227 29.7308 107.479 29.7811 107.782 29.8817C108.084 29.9823 108.336 30.0326 108.588 30.1332C108.84 30.2338 109.042 30.3847 109.244 30.586C109.395 30.7872 109.496 31.089 109.496 31.4412C109.496 31.8939 109.294 32.2964 108.941 32.5479C108.538 32.8497 108.034 33.0006 107.429 33.0006C106.824 33.0006 106.32 32.8497 105.967 32.4976C105.614 32.1957 105.412 31.743 105.362 31.1896H106.118C106.118 31.5418 106.269 31.8436 106.471 32.0448C106.723 32.246 107.026 32.397 107.429 32.397C107.832 32.397 108.185 32.2964 108.387 32.1454C108.639 31.9442 108.74 31.743 108.74 31.4412C108.74 31.1393 108.639 30.9381 108.488 30.7872C108.336 30.6363 108.135 30.5357 107.832 30.435C107.58 30.3847 107.328 30.2841 107.026 30.2338C106.723 30.1332 106.471 30.0829 106.219 29.9823C105.967 29.8817 105.765 29.7308 105.564 29.5295C105.412 29.4792 105.312 29.1774 105.312 28.8756Z" fill="#103460"/>
<path d="M64.0742 4.27599H68.4601V22.2352H64.0742L56.7644 10.9164V22.2352H52.3786V4.27599H56.7644L64.0742 15.5948V4.27599Z" fill="#103460"/>
<path d="M74.1567 19.8205C72.3923 18.1101 71.4849 15.8966 71.4849 13.2304C71.4849 10.5642 72.3923 8.40107 74.1567 6.64037C75.9212 4.92997 78.1393 4.02446 80.7104 4.02446C82.7269 4.02446 84.4913 4.52752 86.0541 5.58395C87.6169 6.64037 88.6755 8.09924 89.2805 9.96055H84.0376C83.3318 8.6526 82.2731 7.99863 80.7608 7.99863C79.2484 7.99863 78.0889 8.45138 77.2319 9.40719C76.3749 10.363 75.9212 11.5703 75.9212 13.1801C75.9212 14.7396 76.3749 15.9973 77.2319 16.9531C78.0889 17.9089 79.2484 18.3616 80.7104 18.3616C81.769 18.3616 82.5756 18.1101 83.2814 17.607C83.9367 17.104 84.3905 16.3997 84.5921 15.5445H79.5005V12.2243H89.2301V15.5445C88.9276 17.1543 88.0202 18.7138 86.5582 20.1223C85.8524 20.8266 84.9954 21.38 83.9368 21.7824C82.9285 22.1849 81.8194 22.4364 80.6599 22.4364C78.0889 22.4364 75.9212 21.5812 74.1567 19.8205Z" fill="#103460"/>
<path d="M94.9267 19.8205C93.1622 18.1101 92.2548 15.8966 92.2548 13.2304C92.2548 10.5642 93.1622 8.40107 94.9267 6.64037C96.6911 4.92997 98.9093 4.02446 101.48 4.02446C103.497 4.02446 105.261 4.52752 106.824 5.58395C108.387 6.64037 109.445 8.09924 110.05 9.96056H104.808C104.102 8.6526 103.043 7.99863 101.531 7.99863C100.018 7.99863 98.8588 8.45138 98.0018 9.40719C97.1448 10.363 96.6911 11.5703 96.6911 13.1801C96.6911 14.7396 97.1448 15.9973 98.0018 16.9531C98.8588 17.9089 100.069 18.3616 101.531 18.3616C103.043 18.3616 104.102 17.7077 104.808 16.3997H110.05C109.445 18.261 108.336 19.7199 106.824 20.7763C105.261 21.8327 103.497 22.3358 101.48 22.3358C98.8588 22.4364 96.6911 21.5812 94.9267 19.8205Z" fill="#103460"/>
<path d="M5.39413 3.11896L0 0V28.3222L5.39413 31.3909L10.7379 34.5098V6.18762L5.39413 3.11896Z" fill="#103460"/>
<path d="M21.5261 3.11896L16.132 0V28.3222L21.5261 31.3909L26.8698 34.5098V6.18762L21.5261 3.11896Z" fill="#103460"/>
<path d="M37.6581 3.11896L32.264 0V28.3222L37.6581 31.3909L43.0018 34.5098V6.18762L37.6581 3.11896Z" fill="#103460"/>
</svg>
