<svg width="30" height="30" viewBox="0 0 30 30" fill="none" xmlns="http://www.w3.org/2000/svg">
<g clip-path="url(#clip0)">
<path d="M22.996 22V21.9993H23V16.1313C23 13.2606 22.382 11.0493 19.026 11.0493C17.4126 11.0493 16.33 11.9347 15.888 12.774H15.8413V11.3173H12.6593V21.9993H15.9726V16.71C15.9726 15.3173 16.2366 13.9707 17.9613 13.9707C19.6606 13.9707 19.686 15.56 19.686 16.7993V22H22.996Z" fill="#515878"/>
<path d="M7.26399 11.3179H10.5813V21.9999H7.26399V11.3179Z" fill="#515878"/>
<path d="M8.92133 6C7.86067 6 7 6.86067 7 7.92133C7 8.982 7.86067 9.86067 8.92133 9.86067C9.982 9.86067 10.8427 8.982 10.8427 7.92133C10.842 6.86067 9.98133 6 8.92133 6V6Z" fill="#515878"/>
</g>
<defs>
<clipPath id="clip0">
<rect width="16" height="16" fill="white" transform="translate(7 6)"/>
</clipPath>
</defs>
</svg>
