<svg width="30" height="30" viewBox="0 0 30 30" fill="none" xmlns="http://www.w3.org/2000/svg">
<g clip-path="url(#clip0)">
<path fill-rule="evenodd" clip-rule="evenodd" d="M23.3151 20.5556C24.414 18.9113 25.0005 16.978 25.0006 15.0003C25.0007 13.687 24.7421 12.3866 24.2395 11.1733C23.737 9.95993 23.0004 8.85748 22.0718 7.92885C21.1431 7.00022 20.0407 6.26361 18.8274 5.76107C17.614 5.25854 16.3136 4.99993 15.0003 5C13.0226 5.00011 11.0894 5.58667 9.44501 6.68549C7.80065 7.78432 6.51905 9.34607 5.76227 11.1733C5.00548 13.0004 4.8075 15.011 5.19336 16.9507C5.57922 18.8904 6.53159 20.6721 7.93004 22.0706C9.32849 23.469 11.1102 24.4214 13.0499 24.8073C14.9896 25.1931 17.0002 24.9951 18.8274 24.2384C20.6546 23.4816 22.2163 22.2 23.3151 20.5556ZM21.4223 14.1964C21.5802 14.4347 21.6646 14.7142 21.6649 15.0001C21.6646 15.2821 21.5826 15.5581 21.4287 15.7945C21.2747 16.031 21.0554 16.2177 20.7974 16.332C20.8199 16.4771 20.8313 16.6236 20.8315 16.7703C20.8315 19.0137 18.2196 20.833 14.9982 20.833C11.7768 20.833 9.16493 19.0137 9.16493 16.7703C9.1653 16.6226 9.17705 16.4751 9.20008 16.3292C9.00587 16.2425 8.83298 16.1144 8.69355 15.9538C8.55412 15.7931 8.45153 15.604 8.39297 15.3995C8.33442 15.195 8.32131 14.9802 8.35459 14.7702C8.38786 14.5601 8.4667 14.3599 8.58558 14.1835C8.70445 14.0071 8.86049 13.8589 9.04272 13.7493C9.22496 13.6396 9.42899 13.5712 9.64049 13.5487C9.85199 13.5263 10.0658 13.5504 10.267 13.6194C10.4682 13.6884 10.6519 13.8006 10.8051 13.9481C11.8143 13.2229 13.2101 12.7558 14.7623 12.7127L15.5039 9.22543C15.5111 9.19192 15.5248 9.16015 15.5442 9.13194C15.5637 9.10373 15.5885 9.07963 15.6173 9.06102C15.6458 9.04224 15.6778 9.02935 15.7114 9.02312C15.745 9.01689 15.7795 9.01744 15.8129 9.02473L18.2366 9.53952C18.3489 9.31182 18.5405 9.13293 18.7753 9.03637C19.0102 8.93982 19.2722 8.93223 19.5122 9.01504C19.7522 9.09784 19.9538 9.26535 20.0792 9.48617C20.2046 9.70698 20.2451 9.96593 20.1932 10.2145C20.1412 10.463 20.0004 10.6841 19.7972 10.8363C19.5939 10.9884 19.3421 11.0613 19.089 11.041C18.8359 11.0208 18.5988 10.909 18.4223 10.7265C18.2457 10.544 18.1418 10.3034 18.13 10.0498L15.9597 9.58828L15.2953 12.7161C16.8249 12.7694 18.198 13.2343 19.1953 13.9537C19.4009 13.755 19.6604 13.6212 19.9416 13.5689C20.2227 13.5167 20.5131 13.5483 20.7763 13.6599C21.0396 13.7715 21.2643 13.9581 21.4223 14.1964ZM21.6649 15.0001C21.6649 15.0001 21.6649 15.0002 21.6649 15.0003V14.9997C21.6649 14.9998 21.6649 14.9999 21.6649 15.0001ZM11.8423 15.4632C11.7279 15.6345 11.6668 15.8358 11.6668 16.0418C11.6673 16.3179 11.7772 16.5827 11.9726 16.7779C12.1679 16.9731 12.4327 17.0829 12.7089 17.0832C12.9148 17.0831 13.1161 17.022 13.2873 16.9074C13.4585 16.7929 13.5919 16.6302 13.6707 16.4399C13.7494 16.2496 13.77 16.0402 13.7297 15.8382C13.6895 15.6363 13.5902 15.4507 13.4445 15.3051C13.2989 15.1595 13.1133 15.0604 12.9113 15.0203C12.7093 14.9801 12.4999 15.0008 12.3096 15.0796C12.1194 15.1585 11.9567 15.292 11.8423 15.4632ZM15.0016 19.5591C15.4019 19.5591 16.7642 19.5041 17.4752 18.7943C17.5012 18.7695 17.522 18.7397 17.5363 18.7068C17.5507 18.6738 17.5583 18.6383 17.5587 18.6024C17.5592 18.5664 17.5525 18.5308 17.5389 18.4975C17.5254 18.4642 17.5054 18.4339 17.48 18.4085C17.4546 18.383 17.4244 18.3629 17.3912 18.3493C17.3579 18.3356 17.3223 18.3288 17.2863 18.3291C17.2504 18.3295 17.2149 18.337 17.1819 18.3513C17.1489 18.3655 17.1191 18.3862 17.0942 18.4122C16.6457 18.8606 15.6865 19.0193 15.0016 19.0193C14.3167 19.0193 13.358 18.8606 12.9101 18.4122C12.8851 18.3871 12.8553 18.3672 12.8226 18.3536C12.7899 18.34 12.7547 18.333 12.7193 18.3329C12.6838 18.3329 12.6487 18.3399 12.616 18.3534C12.5832 18.367 12.5534 18.3868 12.5283 18.4119C12.5032 18.4369 12.4833 18.4667 12.4697 18.4994C12.4561 18.5322 12.4491 18.5673 12.4491 18.6027C12.4491 18.6382 12.456 18.6733 12.4696 18.7061C12.4831 18.7388 12.503 18.7686 12.528 18.7937C13.2384 19.5024 14.6013 19.5591 15.0016 19.5591ZM16.7134 16.9077C16.8847 17.0222 17.0861 17.0832 17.292 17.0832C17.5682 17.0829 17.8329 16.9731 18.0281 16.7779C18.2234 16.5826 18.3332 16.3179 18.3335 16.0418C18.3335 15.8358 18.2724 15.6344 18.158 15.4632C18.0436 15.2919 17.8809 15.1584 17.6906 15.0796C17.5003 15.0008 17.2909 14.9801 17.0889 15.0203C16.8868 15.0605 16.7013 15.1597 16.5556 15.3053C16.41 15.451 16.3108 15.6366 16.2706 15.8386C16.2304 16.0406 16.251 16.25 16.3298 16.4403C16.4087 16.6306 16.5422 16.7933 16.7134 16.9077Z" fill="#515878"/>
</g>
<defs>
<clipPath id="clip0">
<rect width="20" height="20" fill="white" transform="translate(5 5)"/>
</clipPath>
</defs>
</svg>
