<svg width="30" height="30" viewBox="0 0 30 30" fill="none" xmlns="http://www.w3.org/2000/svg">
<path d="M25.6923 8.89415C24.96 9.21538 24.1797 9.42831 23.3662 9.53169C24.2031 9.032 24.8418 8.24677 25.1422 7.30031C24.3618 7.76554 23.5003 8.09415 22.5822 8.27754C21.8412 7.48862 20.7852 7 19.6332 7C17.3982 7 15.5988 8.81415 15.5988 11.0382C15.5988 11.3582 15.6258 11.6658 15.6923 11.9588C12.336 11.7951 9.36615 10.1865 7.37108 7.736C7.02277 8.34031 6.81846 9.032 6.81846 9.77662C6.81846 11.1748 7.53846 12.4142 8.61169 13.1317C7.96308 13.1194 7.32677 12.9311 6.78769 12.6345C6.78769 12.6468 6.78769 12.6628 6.78769 12.6788C6.78769 14.6406 8.18708 16.2702 10.0222 16.6455C9.69354 16.7354 9.33539 16.7785 8.96369 16.7785C8.70523 16.7785 8.44431 16.7637 8.19938 16.7095C8.72246 18.3083 10.2068 19.4837 11.9717 19.5218C10.5982 20.5963 8.85415 21.2437 6.96615 21.2437C6.63508 21.2437 6.31754 21.2289 6 21.1883C7.78831 22.3415 9.90769 23 12.1932 23C19.6222 23 23.6837 16.8462 23.6837 11.512C23.6837 11.3335 23.6775 11.1612 23.6689 10.9902C24.4702 10.4215 25.1434 9.71138 25.6923 8.89415Z" fill="#515878"/>
</svg>
