<svg width="108" height="108" viewBox="0 0 108 108" fill="none" xmlns="http://www.w3.org/2000/svg">
<circle cx="54" cy="54" r="54" fill="#6239DA"/>
<path d="M58.6192 73.9055C58.621 73.7852 58.6118 73.6756 58.6027 73.5552C58.6029 73.5442 58.6031 73.5333 58.6032 73.5223C58.6036 73.5005 58.593 73.4784 58.5935 73.4456C58.5837 73.3689 58.5849 73.2923 58.5751 73.2156C58.5652 73.1498 58.5551 73.0949 58.5452 73.0292C58.5348 72.9962 58.5353 72.9634 58.5358 72.9305C58.5361 72.9087 58.5255 72.8866 58.5257 72.8757C58.5056 72.755 58.4745 72.6452 58.4545 72.5245C58.4547 72.5136 58.4439 72.5025 58.4442 72.4806C58.4338 72.4476 58.4235 72.4037 58.4131 72.3707C58.3924 72.2938 58.3717 72.2169 58.3509 72.151C58.3404 72.118 58.33 72.085 58.3196 72.052C58.2987 71.986 58.2671 71.909 58.2353 71.8428C58.2141 71.7988 58.204 71.7439 58.1828 71.6998C58.1722 71.6778 58.1616 71.6557 58.151 71.6337C58.0559 71.4134 57.9388 71.2038 57.8217 70.9941C57.8219 70.9832 57.8111 70.972 57.8111 70.972C57.7578 70.8837 57.7042 70.8063 57.64 70.7178C57.6078 70.6735 57.5757 70.6293 57.5437 70.5741C57.4475 70.4304 57.3401 70.2974 57.2218 70.1643C57.0391 69.9537 56.8451 69.7647 56.6509 69.5867C56.6294 69.5644 56.6078 69.5422 56.5863 69.52C56.5648 69.4978 56.5431 69.4865 56.5215 69.4643C56.4675 69.4197 56.4027 69.364 56.3378 69.3193C56.2945 69.2858 56.2515 69.2414 56.1973 69.2077C56.1648 69.1853 56.1323 69.1629 56.0999 69.1406C56.0566 69.1071 56.0132 69.0845 55.9807 69.0621C55.9483 69.0398 55.9158 69.0174 55.8833 68.995C55.8074 68.9501 55.7206 68.905 55.6447 68.86C55.6339 68.8489 55.6121 68.8486 55.6013 68.8375C55.6013 68.8375 55.5904 68.8373 55.5905 68.8264C55.4928 68.7811 55.4061 68.7251 55.3082 68.6907C55.2755 68.6793 55.2321 68.6568 55.1995 68.6453C55.1668 68.6339 55.1451 68.6226 55.1125 68.6111C55.0798 68.5997 55.0581 68.5884 55.0255 68.577C54.9276 68.5427 54.8406 68.5085 54.7426 68.4742C54.7317 68.474 54.71 68.4627 54.699 68.4626C54.6773 68.4513 54.6555 68.4509 54.6338 68.4397C54.5794 68.417 54.514 68.405 54.4596 68.3823C54.3724 68.3591 54.296 68.3469 54.2089 68.3237C54.1979 68.3235 54.1762 68.3123 54.1653 68.3121C54.1103 68.3331 54.1103 68.3331 54.0993 68.333C53.9903 68.3094 53.8813 68.2858 53.7611 68.2731C53.7066 68.2613 53.6519 68.2604 53.5974 68.2487C53.5319 68.2367 53.4663 68.2357 53.4009 68.2237C53.2915 68.2221 53.1823 68.2094 53.062 68.2076C52.9635 68.2061 52.8651 68.2045 52.7776 68.2032C52.7667 68.203 52.7667 68.203 52.7557 68.2029C52.7448 68.2027 52.7448 68.2027 52.7338 68.2025C52.6243 68.2118 52.5149 68.2101 52.4052 68.2303C52.2847 68.2394 52.175 68.2595 52.0653 68.2797C52.0434 68.2794 52.0323 68.2902 52.0105 68.2898C51.9886 68.2895 51.9665 68.3001 51.9447 68.2998C51.8568 68.3203 51.7801 68.33 51.6921 68.3615C51.5383 68.4029 51.3843 68.4552 51.2522 68.5079C51.021 68.6028 50.8004 68.7197 50.5796 68.8476L39.5147 73.5028C39.7247 73.3638 39.9562 73.247 40.1872 73.163C40.1872 73.163 40.1872 73.163 40.1982 73.1632C40.4183 73.0791 40.6491 73.0061 40.8795 72.9659C40.9014 72.9662 40.9234 72.9556 40.9453 72.9559C41.1868 72.905 41.4388 72.876 41.7015 72.8691C41.7124 72.8693 41.7124 72.8693 41.7234 72.8695C41.986 72.8626 42.2702 72.8779 42.5541 72.9151C42.7288 72.9397 42.9034 72.9642 43.067 72.9996C43.0779 72.9997 43.0996 73.011 43.1106 73.0112C43.2523 73.0462 43.3939 73.0812 43.5354 73.1271C43.5572 73.1384 43.579 73.1388 43.6007 73.15C43.7422 73.196 43.8838 73.2419 44.0251 73.2988C44.0577 73.3102 44.0795 73.3215 44.1121 73.333C44.2534 73.3898 44.3837 73.4575 44.5249 73.5253C44.5356 73.5364 44.5575 73.5367 44.5683 73.5478C44.6876 73.6153 44.7959 73.6826 44.9152 73.7501C44.9586 73.7727 45.0019 73.8062 45.0344 73.8285C45.1101 73.8844 45.1967 73.9404 45.2723 74.0072C45.3372 74.052 45.3912 74.0966 45.456 74.1523C45.4993 74.1858 45.5423 74.2302 45.5854 74.2746C45.7796 74.4527 45.9736 74.6416 46.1563 74.8523C46.2746 74.9854 46.382 75.1184 46.4782 75.2621C46.5104 75.3063 46.5425 75.3506 46.5745 75.4058C46.6387 75.4943 46.7029 75.5937 46.7562 75.6821C46.8842 75.8919 46.9904 76.1014 47.0855 76.3217C47.1173 76.3878 47.1489 76.4649 47.1698 76.5308C47.2016 76.597 47.2223 76.6739 47.2541 76.74C47.2961 76.85 47.3274 76.949 47.3586 77.0589C47.369 77.0918 47.3792 77.1358 47.3897 77.1687C47.4312 77.3116 47.4617 77.4652 47.4812 77.6187C47.4916 77.6517 47.4911 77.6845 47.4906 77.7173C47.5105 77.8489 47.5302 77.9914 47.5389 78.1338C47.5386 78.1556 47.5492 78.1777 47.5487 78.2105C47.5569 78.3857 47.5653 78.5499 47.5626 78.7249C47.5572 79.0749 47.5301 79.4136 47.4705 79.73C47.4702 79.7518 47.4589 79.7735 47.4586 79.7954C47.4345 79.9373 47.3995 80.0789 47.3537 80.2095C47.3537 80.2095 47.3425 80.2312 47.3421 80.2531C47.2962 80.3946 47.2504 80.5252 47.2046 80.6558C47.1935 80.6665 47.1932 80.6884 47.1821 80.6992C47.1367 80.8079 47.0803 80.9164 47.0239 81.0249C47.0014 81.0684 46.9788 81.1118 46.9564 81.1442C46.9115 81.2201 46.8666 81.296 46.8218 81.361C46.777 81.4259 46.7323 81.4909 46.6877 81.5449C46.6542 81.5881 46.6207 81.6314 46.5872 81.6746C46.4422 81.8584 46.2864 82.031 46.1088 82.1924C45.9202 82.3645 45.721 82.5146 45.511 82.6536L56.5648 78.0092C56.7747 77.8811 56.9741 77.7201 57.1627 77.548C57.3402 77.3866 57.4961 77.214 57.6411 77.0302C57.6524 77.0085 57.6746 76.987 57.6968 76.9654C57.719 76.9439 57.7303 76.9222 57.7417 76.8895C57.7865 76.8246 57.8313 76.7596 57.876 76.6947C57.8986 76.6513 57.9319 76.619 57.9654 76.5757C57.9878 76.5433 57.9992 76.5106 58.0216 76.4781C58.0441 76.4347 58.0667 76.3913 58.0891 76.3588C58.1114 76.3264 58.1229 76.2937 58.1453 76.2612C58.1793 76.1852 58.2133 76.1091 58.2473 76.0331C58.2584 76.0223 58.2587 76.0004 58.2698 75.9897C58.2698 75.9897 58.27 75.9787 58.2809 75.9789C58.3151 75.8919 58.3494 75.794 58.3836 75.707C58.395 75.6743 58.4066 75.6307 58.4181 75.5981C58.4293 75.5764 58.4298 75.5436 58.4411 75.5219C58.4526 75.4892 58.4638 75.4675 58.4643 75.4347C58.4876 75.3476 58.511 75.2495 58.5342 75.1623C58.5345 75.1404 58.5456 75.1296 58.546 75.1078C58.5463 75.0859 58.5576 75.0642 58.5581 75.0314C58.5699 74.9769 58.5816 74.9223 58.5825 74.8677C58.5949 74.7694 58.6074 74.6711 58.62 74.5619C58.6326 74.4527 58.6343 74.3433 58.636 74.234C58.637 74.1683 58.6382 74.0918 58.6392 74.0261C58.6286 74.0041 58.6185 73.9492 58.6192 73.9055Z" fill="#858585"/>
<path d="M58.6192 73.9055C58.621 73.7852 58.6118 73.6756 58.6027 73.5552C58.6029 73.5442 58.6031 73.5333 58.6032 73.5223C58.6036 73.5005 58.593 73.4784 58.5935 73.4456C58.5837 73.3689 58.5849 73.2923 58.5751 73.2156C58.5652 73.1498 58.5551 73.0949 58.5452 73.0292C58.5348 72.9962 58.5353 72.9634 58.5358 72.9305C58.5361 72.9087 58.5255 72.8866 58.5257 72.8757C58.5056 72.755 58.4745 72.6452 58.4545 72.5245C58.4547 72.5136 58.4439 72.5025 58.4442 72.4806C58.4338 72.4476 58.4235 72.4037 58.4131 72.3707C58.3924 72.2938 58.3717 72.2169 58.3509 72.151C58.3404 72.118 58.33 72.085 58.3196 72.052C58.2987 71.986 58.2671 71.909 58.2353 71.8428C58.2141 71.7988 58.204 71.7439 58.1828 71.6998C58.1722 71.6778 58.1616 71.6557 58.151 71.6337C58.0559 71.4134 57.9388 71.2038 57.8217 70.9941C57.8219 70.9832 57.8111 70.972 57.8111 70.972C57.7578 70.8837 57.7042 70.8063 57.64 70.7178C57.6078 70.6735 57.5757 70.6293 57.5437 70.5741C57.4475 70.4304 57.3401 70.2974 57.2218 70.1643C57.0391 69.9537 56.8451 69.7647 56.6509 69.5867C56.6294 69.5644 56.6078 69.5422 56.5863 69.52C56.5648 69.4978 56.5431 69.4865 56.5215 69.4643C56.4675 69.4197 56.4027 69.364 56.3378 69.3193C56.2945 69.2858 56.2515 69.2414 56.1973 69.2077C56.1648 69.1853 56.1323 69.1629 56.0999 69.1406C56.0566 69.1071 56.0132 69.0845 55.9807 69.0621C55.9483 69.0398 55.9158 69.0174 55.8833 68.995C55.8074 68.9501 55.7206 68.905 55.6447 68.86C55.6339 68.8489 55.6121 68.8486 55.6013 68.8375C55.6013 68.8375 55.5904 68.8373 55.5905 68.8264C55.4928 68.7811 55.4061 68.7251 55.3082 68.6907C55.2755 68.6793 55.2321 68.6568 55.1995 68.6453C55.1668 68.6339 55.1451 68.6226 55.1125 68.6111C55.0798 68.5997 55.0581 68.5884 55.0255 68.577C54.9276 68.5427 54.8406 68.5085 54.7426 68.4742C54.7317 68.474 54.71 68.4627 54.699 68.4626C54.6773 68.4513 54.6555 68.4509 54.6338 68.4397C54.5794 68.417 54.514 68.405 54.4596 68.3823C54.3724 68.3591 54.296 68.3469 54.2089 68.3237C54.1979 68.3235 54.1762 68.3123 54.1653 68.3121C54.1103 68.3331 54.1103 68.3331 54.0993 68.333C53.9903 68.3094 53.8813 68.2858 53.7611 68.2731C53.7066 68.2613 53.6519 68.2604 53.5974 68.2487C53.5319 68.2367 53.4663 68.2357 53.4009 68.2237C53.2915 68.2221 53.1823 68.2094 53.062 68.2076C52.9635 68.2061 52.8651 68.2045 52.7776 68.2032C52.7667 68.203 52.7667 68.203 52.7557 68.2029C52.7448 68.2027 52.7448 68.2027 52.7338 68.2025C52.6243 68.2118 52.5149 68.2101 52.4052 68.2303C52.2847 68.2394 52.175 68.2595 52.0653 68.2797C52.0434 68.2794 52.0323 68.2902 52.0105 68.2898C51.9886 68.2895 51.9665 68.3001 51.9447 68.2998C51.8568 68.3203 51.7801 68.33 51.6921 68.3615C51.5383 68.4029 51.3843 68.4552 51.2522 68.5079C51.021 68.6028 50.8004 68.7197 50.5796 68.8476L39.5147 73.5028C39.7247 73.3638 39.9562 73.247 40.1872 73.163C40.1872 73.163 40.1872 73.163 40.1982 73.1632C40.4183 73.0791 40.6491 73.0061 40.8795 72.9659C40.9014 72.9662 40.9234 72.9556 40.9453 72.9559C41.1868 72.905 41.4388 72.876 41.7015 72.8691C41.7124 72.8693 41.7124 72.8693 41.7234 72.8695C41.986 72.8626 42.2702 72.8779 42.5541 72.9151C42.7288 72.9397 42.9034 72.9642 43.067 72.9996C43.0779 72.9997 43.0996 73.011 43.1106 73.0112C43.2523 73.0462 43.3939 73.0812 43.5354 73.1271C43.5572 73.1384 43.579 73.1388 43.6007 73.15C43.7422 73.196 43.8838 73.2419 44.0251 73.2988C44.0577 73.3102 44.0795 73.3215 44.1121 73.333C44.2534 73.3898 44.3837 73.4575 44.5249 73.5253C44.5356 73.5364 44.5575 73.5367 44.5683 73.5478C44.6876 73.6153 44.7959 73.6826 44.9152 73.7501C44.9586 73.7727 45.0019 73.8062 45.0344 73.8285C45.1101 73.8844 45.1967 73.9404 45.2723 74.0072C45.3372 74.052 45.3912 74.0966 45.456 74.1523C45.4993 74.1858 45.5423 74.2302 45.5854 74.2746C45.7796 74.4527 45.9736 74.6416 46.1563 74.8523C46.2746 74.9854 46.382 75.1184 46.4782 75.2621C46.5104 75.3063 46.5425 75.3506 46.5745 75.4058C46.6387 75.4943 46.7029 75.5937 46.7562 75.6821C46.8842 75.8919 46.9904 76.1014 47.0855 76.3217C47.1173 76.3878 47.1489 76.4649 47.1698 76.5308C47.2016 76.597 47.2223 76.6739 47.2541 76.74C47.2961 76.85 47.3274 76.949 47.3586 77.0589C47.369 77.0918 47.3792 77.1358 47.3897 77.1687C47.4312 77.3116 47.4617 77.4652 47.4812 77.6187C47.4916 77.6517 47.4911 77.6845 47.4906 77.7173C47.5105 77.8489 47.5302 77.9914 47.5389 78.1338C47.5386 78.1556 47.5492 78.1777 47.5487 78.2105C47.5569 78.3857 47.5653 78.5499 47.5626 78.7249C47.5572 79.0749 47.5301 79.4136 47.4705 79.73C47.4702 79.7518 47.4589 79.7735 47.4586 79.7954C47.4345 79.9373 47.3995 80.0789 47.3537 80.2095C47.3537 80.2095 47.3425 80.2312 47.3421 80.2531C47.2962 80.3946 47.2504 80.5252 47.2046 80.6558C47.1935 80.6665 47.1932 80.6884 47.1821 80.6992C47.1367 80.8079 47.0803 80.9164 47.0239 81.0249C47.0014 81.0684 46.9788 81.1118 46.9564 81.1442C46.9115 81.2201 46.8666 81.296 46.8218 81.361C46.777 81.4259 46.7323 81.4909 46.6877 81.5449C46.6542 81.5881 46.6207 81.6314 46.5872 81.6746C46.4422 81.8584 46.2864 82.031 46.1088 82.1924C45.9202 82.3645 45.721 82.5146 45.511 82.6536L56.5648 78.0092C56.7747 77.8811 56.9741 77.7201 57.1627 77.548C57.3402 77.3866 57.4961 77.214 57.6411 77.0302C57.6524 77.0085 57.6746 76.987 57.6968 76.9654C57.719 76.9439 57.7303 76.9222 57.7417 76.8895C57.7865 76.8246 57.8313 76.7596 57.876 76.6947C57.8986 76.6513 57.9319 76.619 57.9654 76.5757C57.9878 76.5433 57.9992 76.5106 58.0216 76.4781C58.0441 76.4347 58.0667 76.3913 58.0891 76.3588C58.1114 76.3264 58.1229 76.2937 58.1453 76.2612C58.1793 76.1852 58.2133 76.1091 58.2473 76.0331C58.2584 76.0223 58.2587 76.0004 58.2698 75.9897C58.2698 75.9897 58.27 75.9787 58.2809 75.9789C58.3151 75.8919 58.3494 75.794 58.3836 75.707C58.395 75.6743 58.4066 75.6307 58.4181 75.5981C58.4293 75.5764 58.4298 75.5436 58.4411 75.5219C58.4526 75.4892 58.4638 75.4675 58.4643 75.4347C58.4876 75.3476 58.511 75.2495 58.5342 75.1623C58.5345 75.1404 58.5456 75.1296 58.546 75.1078C58.5463 75.0859 58.5576 75.0642 58.5581 75.0314C58.5699 74.9769 58.5816 74.9223 58.5825 74.8677C58.5949 74.7694 58.6074 74.6711 58.62 74.5619C58.6326 74.4527 58.6343 74.3433 58.636 74.234C58.637 74.1683 58.6382 74.0918 58.6392 74.0261C58.6286 74.0041 58.6185 73.9492 58.6192 73.9055Z" fill="url(#paint0_linear)"/>
<path d="M46.0976 82.2143C45.1322 83.0965 43.9234 83.4499 42.482 83.2745C41.0406 83.0991 39.8363 82.446 38.858 81.326C37.8909 80.1952 37.4184 78.9079 37.4297 77.464C37.441 76.0201 37.9296 74.8461 38.9059 73.9641C39.8822 73.082 41.1022 72.7179 42.5436 72.8933C43.9849 73.0687 45.1784 73.7107 46.146 74.8196C47.1025 75.9284 47.575 77.2156 47.5743 78.6816C47.5624 80.1583 47.063 81.3321 46.0976 82.2143Z" fill="#41419A"/>
<path d="M30 46L101.5 74L80.5 82.5L10 54.5L30 46Z" fill="#2C2C67"/>
<path d="M10 57.5V54.5L80.5 82.5V85.5L10 57.5Z" fill="#41419A"/>
<path d="M101.5 77V74L80.5 82.5V85.5L101.5 77Z" fill="#7A7AE1"/>
<g filter="url(#filter0_b)">
<path d="M59 49.5317L80.0795 57.7765V82.1547L59 73.9099V49.5317Z" fill="url(#paint1_linear)"/>
</g>
<g filter="url(#filter1_b)">
<path d="M80.0796 57.7765L101.159 49.5317V73.7844L80.0796 82.1487V57.7765Z" fill="url(#paint2_linear)"/>
</g>
<path d="M80.0797 81.8653L59.0002 73.6205L80.0797 65.0884L101.137 73.6474L80.0797 81.8653Z" fill="url(#paint3_linear)"/>
<path d="M86.1607 66.3602C82.1145 70.4063 76.124 71.0865 72.2179 68.1378C72.4575 68.4551 72.718 68.7604 73.0057 69.048C76.8333 72.8757 83.4832 72.4324 87.8582 68.0578C92.2328 63.6828 92.6761 57.0329 88.8481 53.2053C88.5608 52.9176 88.2555 52.6571 87.9383 52.4175C90.8869 56.3236 90.2068 62.3141 86.1607 66.3602Z" fill="url(#paint4_linear)"/>
<path d="M87.1509 51.5073C90.979 55.3354 90.5357 61.9849 86.1607 66.3599C81.7857 70.7349 75.1362 71.1782 71.3081 67.3501C67.48 63.522 67.9233 56.8725 72.2983 52.4975C76.6733 48.1226 83.3228 47.6793 87.1509 51.5073Z" fill="#FFE47E"/>
<path d="M78.0267 67.2457C76.2869 67.2457 74.7002 66.5879 73.5577 65.3939C70.9055 62.621 71.2738 57.724 74.379 54.478C76.0265 52.7552 78.2032 51.7676 80.3511 51.7676C82.0908 51.7676 83.6776 52.4253 84.82 53.6194C87.4723 56.3922 87.104 61.2892 83.9988 64.5353C82.3516 66.2573 80.1749 67.2457 78.0267 67.2457Z" fill="url(#paint5_linear)"/>
<path d="M59.9877 49.5591L80.0684 57.4229M80.0684 57.4229L100.314 49.5591M80.0684 57.4229V81.9845" stroke="url(#paint6_radial)" stroke-width="1.5"/>
<path d="M80.0796 57.777L59.0002 49.5322L80.0796 41L101.137 49.559L80.0796 57.777Z" fill="url(#paint7_linear)"/>
<g filter="url(#filter2_b)">
<path d="M10 30.5317L31.0795 38.7765V63.1547L10 54.9099V30.5317Z" fill="url(#paint8_linear)"/>
</g>
<g filter="url(#filter3_b)">
<path d="M31.0796 38.7765L52.159 30.5317V54.7844L31.0796 63.1487V38.7765Z" fill="url(#paint9_linear)"/>
</g>
<path d="M31.0797 62.8653L10.0002 54.6205L31.0797 46.0884L52.1366 54.6474L31.0797 62.8653Z" fill="url(#paint10_linear)"/>
<path d="M20.5753 56.1771V36.9018L38.8185 30V48.9571L20.5753 56.1771Z" fill="#C4C4C4"/>
<path d="M20.5753 56.1771V36.9018L38.8185 30V48.9571L20.5753 56.1771Z" fill="url(#paint11_linear)"/>
<ellipse cx="35.6215" cy="37.7013" rx="1.15921" ry="1.35241" transform="rotate(4.07148 35.6215 37.7013)" fill="white"/>
<path d="M26.1238 45.4092L23.0833 53.6365L37.5685 48.1281L32.0261 41.1167L29.3432 48.3007L26.1238 45.4092Z" fill="white"/>
<path d="M10.9876 30.5591L31.0684 38.4229M31.0684 38.4229L51.3137 30.5591M31.0684 38.4229V62.9845" stroke="url(#paint12_radial)" stroke-width="1.5"/>
<path d="M31.0796 38.777L10.0002 30.5322L31.0796 22L52.1366 30.559L31.0796 38.777Z" fill="url(#paint13_linear)"/>
<defs>
<filter id="filter0_b" x="55" y="45.5317" width="29.0795" height="40.623" filterUnits="userSpaceOnUse" color-interpolation-filters="sRGB">
<feFlood flood-opacity="0" result="BackgroundImageFix"/>
<feGaussianBlur in="BackgroundImage" stdDeviation="2"/>
<feComposite in2="SourceAlpha" operator="in" result="effect1_backgroundBlur"/>
<feBlend mode="normal" in="SourceGraphic" in2="effect1_backgroundBlur" result="shape"/>
</filter>
<filter id="filter1_b" x="76.0796" y="45.5317" width="29.0795" height="40.617" filterUnits="userSpaceOnUse" color-interpolation-filters="sRGB">
<feFlood flood-opacity="0" result="BackgroundImageFix"/>
<feGaussianBlur in="BackgroundImage" stdDeviation="2"/>
<feComposite in2="SourceAlpha" operator="in" result="effect1_backgroundBlur"/>
<feBlend mode="normal" in="SourceGraphic" in2="effect1_backgroundBlur" result="shape"/>
</filter>
<filter id="filter2_b" x="6" y="26.5317" width="29.0795" height="40.623" filterUnits="userSpaceOnUse" color-interpolation-filters="sRGB">
<feFlood flood-opacity="0" result="BackgroundImageFix"/>
<feGaussianBlur in="BackgroundImage" stdDeviation="2"/>
<feComposite in2="SourceAlpha" operator="in" result="effect1_backgroundBlur"/>
<feBlend mode="normal" in="SourceGraphic" in2="effect1_backgroundBlur" result="shape"/>
</filter>
<filter id="filter3_b" x="27.0796" y="26.5317" width="29.0795" height="40.617" filterUnits="userSpaceOnUse" color-interpolation-filters="sRGB">
<feFlood flood-opacity="0" result="BackgroundImageFix"/>
<feGaussianBlur in="BackgroundImage" stdDeviation="2"/>
<feComposite in2="SourceAlpha" operator="in" result="effect1_backgroundBlur"/>
<feBlend mode="normal" in="SourceGraphic" in2="effect1_backgroundBlur" result="shape"/>
</filter>
<linearGradient id="paint0_linear" x1="46.3295" y1="71.0899" x2="49.1987" y2="80.3862" gradientUnits="userSpaceOnUse">
<stop offset="0.0364583" stop-color="#2C2C67"/>
<stop offset="0.651042" stop-color="#9391DF"/>
<stop offset="0.880208" stop-color="#2C2C67"/>
</linearGradient>
<linearGradient id="paint1_linear" x1="69.5397" y1="49.5317" x2="69.5397" y2="82.1547" gradientUnits="userSpaceOnUse">
<stop stop-color="#B8BADE"/>
<stop offset="1" stop-color="#B8BADE" stop-opacity="0.55"/>
</linearGradient>
<linearGradient id="paint2_linear" x1="80.5348" y1="58.8333" x2="100.387" y2="73.9749" gradientUnits="userSpaceOnUse">
<stop stop-color="#8F92CF"/>
<stop offset="1" stop-color="#8F92CF" stop-opacity="0.78"/>
</linearGradient>
<linearGradient id="paint3_linear" x1="80.0685" y1="65.0884" x2="80.0685" y2="81.8653" gradientUnits="userSpaceOnUse">
<stop stop-color="#D5D6F1" stop-opacity="0.23"/>
<stop offset="1" stop-color="#D5D6F1"/>
</linearGradient>
<linearGradient id="paint4_linear" x1="84.909" y1="57.8242" x2="84.5725" y2="72.6293" gradientUnits="userSpaceOnUse">
<stop stop-color="#F4BF1A"/>
<stop offset="1" stop-color="#CDA015"/>
</linearGradient>
<linearGradient id="paint5_linear" x1="79.1889" y1="51.7676" x2="79.1889" y2="67.2457" gradientUnits="userSpaceOnUse">
<stop stop-color="#F4BF1A"/>
<stop offset="1" stop-color="#E7B724"/>
</linearGradient>
<radialGradient id="paint6_radial" cx="0" cy="0" r="1" gradientUnits="userSpaceOnUse" gradientTransform="translate(80.0684 57.4597) rotate(-20.8747) scale(20.7867 26.8758)">
<stop stop-color="white" stop-opacity="0.68"/>
<stop offset="1" stop-color="white" stop-opacity="0"/>
</radialGradient>
<linearGradient id="paint7_linear" x1="80.0684" y1="41" x2="80.0684" y2="57.777" gradientUnits="userSpaceOnUse">
<stop stop-color="#D5D6F1"/>
<stop offset="1" stop-color="#D5D6F1" stop-opacity="0.17"/>
</linearGradient>
<linearGradient id="paint8_linear" x1="20.5397" y1="30.5317" x2="20.5397" y2="63.1547" gradientUnits="userSpaceOnUse">
<stop stop-color="#B8BADE"/>
<stop offset="1" stop-color="#B8BADE" stop-opacity="0.55"/>
</linearGradient>
<linearGradient id="paint9_linear" x1="31.5348" y1="39.8333" x2="51.3871" y2="54.9749" gradientUnits="userSpaceOnUse">
<stop stop-color="#8F92CF"/>
<stop offset="1" stop-color="#8F92CF" stop-opacity="0.78"/>
</linearGradient>
<linearGradient id="paint10_linear" x1="31.0684" y1="46.0884" x2="31.0684" y2="62.8653" gradientUnits="userSpaceOnUse">
<stop stop-color="#D5D6F1" stop-opacity="0.23"/>
<stop offset="1" stop-color="#D5D6F1"/>
</linearGradient>
<linearGradient id="paint11_linear" x1="29.6969" y1="30" x2="19.7909" y2="54.832" gradientUnits="userSpaceOnUse">
<stop stop-color="#72D0D6"/>
<stop offset="1" stop-color="#40A0A6"/>
</linearGradient>
<radialGradient id="paint12_radial" cx="0" cy="0" r="1" gradientUnits="userSpaceOnUse" gradientTransform="translate(31.0684 38.4597) rotate(-20.8747) scale(20.7867 26.8758)">
<stop stop-color="white" stop-opacity="0.68"/>
<stop offset="1" stop-color="white" stop-opacity="0"/>
</radialGradient>
<linearGradient id="paint13_linear" x1="31.0684" y1="22" x2="31.0684" y2="38.777" gradientUnits="userSpaceOnUse">
<stop stop-color="#D5D6F1"/>
<stop offset="1" stop-color="#D5D6F1" stop-opacity="0.17"/>
</linearGradient>
</defs>
</svg>
