<svg width="108" height="108" viewBox="0 0 108 108" fill="none" xmlns="http://www.w3.org/2000/svg">
<circle cx="54" cy="54" r="54" fill="#6239DA"/>
<mask id="mask0" mask-type="alpha" maskUnits="userSpaceOnUse" x="0" y="0" width="108" height="108">
<circle cx="54" cy="54" r="54" fill="#6239DA"/>
</mask>
<g mask="url(#mask0)">
<g filter="url(#filter0_f)">
<path d="M73.5473 88.5384L77.7803 86.8351L77.6154 67L73.5 68.5L73.5473 88.5384Z" fill="url(#paint0_linear)"/>
<path d="M75.0316 112.578L74.9217 98.7315L72.7777 100.49L71.6782 96.0392L75.6913 92.4678L79.0997 91.0392L79.2646 110.874L75.0316 112.578Z" fill="url(#paint1_linear)"/>
<path fill-rule="evenodd" clip-rule="evenodd" d="M59.4739 100.655C60.5184 98.3469 61.9477 96.8084 63.8168 96.0392C65.7959 95.215 67.5001 95.6546 68.5996 97.3029C69.6441 98.7315 70.1939 100.984 70.1939 104.006C70.1939 106.973 69.6991 109.556 68.7645 111.753C67.775 114.061 66.2907 115.6 64.4216 116.369C63.8718 116.589 63.3221 116.699 62.8273 116.753C61.5629 116.808 60.4634 116.259 59.6388 115.105C58.5943 113.677 58.0446 111.424 58.0446 108.402C58.0446 105.49 58.4843 102.852 59.4739 100.655ZM65.4111 109.556C65.8509 108.457 66.0158 106.973 66.0158 105.16C66.0158 102.962 65.686 101.918 65.4111 101.424C65.1362 100.984 64.9163 100.929 64.7514 100.929C64.671 100.929 64.5905 100.959 64.4886 100.996C64.4512 101.01 64.4108 101.024 64.3666 101.039C63.7069 101.314 63.2121 101.918 62.8823 102.852C62.4425 103.951 62.2776 105.435 62.2776 107.248C62.2776 109.446 62.6074 110.49 62.8823 110.984C63.1572 111.479 63.432 111.589 63.9268 111.369C64.5315 111.149 65.0263 110.545 65.4111 109.556Z" fill="url(#paint2_linear)"/>
<path fill-rule="evenodd" clip-rule="evenodd" d="M61.8377 92.6193C62.3325 92.5644 62.8822 92.4545 63.432 92.2347C65.3011 91.4655 66.7854 89.927 67.775 87.6193C68.7095 85.4215 69.2043 82.8391 69.2043 79.8721C69.2043 76.905 68.6545 74.5974 67.61 73.1688C66.4556 71.5204 64.8064 71.0809 62.7723 71.9051C60.9032 72.6743 59.4738 74.2127 58.4293 76.5204C57.4398 78.7182 57 81.3006 57 84.2677C57 87.2347 57.5497 89.5424 58.5943 90.9709C59.4738 92.1797 60.5184 92.7292 61.8377 92.6193ZM61.233 83.1138C61.233 81.3006 61.3979 79.8171 61.8377 78.7182C62.1676 77.7842 62.6624 77.1798 63.322 76.905C63.3662 76.8903 63.4065 76.8756 63.4438 76.8619C63.5458 76.8246 63.6264 76.7952 63.7069 76.7952C63.8718 76.7952 64.0917 76.8501 64.3665 77.2897C64.6414 77.7842 64.9713 78.8281 64.9713 81.0259C64.9713 82.8391 64.8064 84.3226 64.3665 85.3666C63.9817 86.3006 63.487 86.96 62.8822 87.1797C62.4425 87.3446 62.1676 87.3446 61.8377 86.7951C61.6178 86.3556 61.288 85.3116 61.233 83.1138Z" fill="url(#paint3_linear)"/>
<path d="M52.2469 75.5L28 85.0117V131.125L52.2469 121.105V75.5Z" fill="url(#paint4_linear)"/>
</g>
</g>
<path fill-rule="evenodd" clip-rule="evenodd" d="M69.4373 43.7347C68.8875 43.9545 68.3378 44.0644 67.843 44.1193C66.5236 44.2292 63.4792 43.5546 62.5996 42.3458C61.5551 40.9172 61.0053 38.6095 61.0053 35.6425C61.0053 32.6755 61.4451 30.093 62.4346 27.8952C63.4792 25.5876 64.9085 24.0491 66.7776 23.2799C68.8117 22.4557 72.4609 23.0205 73.6153 24.6688C74.6598 26.0974 75.2096 28.4051 75.2096 31.3721C75.2096 34.3391 74.7148 36.9215 73.7803 39.1193C72.7907 41.427 71.3064 42.9655 69.4373 43.7347ZM67.843 30.2182C67.4032 31.3171 67.2383 32.8007 67.2383 34.6138C67.2933 36.8116 67.6231 37.8556 67.843 38.2952C68.1729 38.8446 68.4477 38.8446 68.8875 38.6798C69.4923 38.46 69.987 37.8007 70.3718 36.8666C70.8116 35.8226 70.9766 34.3391 70.9766 32.5259C70.9766 30.3281 70.6467 29.2842 70.3718 28.7897C70.097 28.3501 69.8771 28.2952 69.7122 28.2952C69.6317 28.2952 69.5512 28.3246 69.4491 28.362C69.4118 28.3756 69.3715 28.3903 69.3273 28.4051C68.6676 28.6798 68.1729 29.2842 67.843 30.2182Z" fill="url(#paint5_linear)"/>
<path d="M54.3534 48.6095L54.2435 37.3748L52.0445 36.5216L51 32.0711L54.5528 28.6645L58 26.8748L62.2888 28.2952L58.5 49.5L54.3534 48.6095Z" fill="url(#paint6_linear)"/>
<path fill-rule="evenodd" clip-rule="evenodd" d="M53.4738 55.0294C54.5184 52.7218 55.9477 51.1833 57.8168 50.4141C59.7959 49.5899 63.5001 50.1547 64.5995 51.803C65.6441 53.2316 66.1938 55.4843 66.1938 58.5063C66.1938 61.4733 65.699 64.0557 64.7645 66.2535C63.7749 68.5612 62.2906 70.0997 60.4215 70.8689C59.8718 71.0887 59.322 71.1986 58.8272 71.2535C57.5628 71.3085 54.4634 70.6338 53.6388 69.48C52.5943 68.0514 52.0445 65.7986 52.0445 62.7767C52.0445 59.8646 52.4843 57.2272 53.4738 55.0294ZM61.411 64.0557C61.8508 62.9568 62.0158 61.4733 62.0158 59.6601C62.0158 57.4623 61.6859 56.4184 61.411 55.9239C61.1362 55.4843 60.9163 55.4294 60.7514 55.4294C60.6709 55.4294 60.5904 55.4588 60.4884 55.4961C60.4512 55.5097 60.4104 55.5246 60.3665 55.5393C59.7068 55.814 59.2121 56.4184 58.8822 57.3524C58.4424 58.4513 58.2775 59.9349 58.2775 61.748C58.2775 63.9458 58.6074 64.9898 58.8822 65.4843C59.1571 65.9788 59.432 66.0887 59.9267 65.8689C60.5314 65.6491 61.0262 65.0447 61.411 64.0557Z" fill="url(#paint7_linear)"/>
<path d="M47.5 29.3748L24 38.3865V84.5L28 86L50.2469 74.6055L52 30.5L47.5 29.3748Z" fill="url(#paint8_linear)"/>
<path d="M68.9766 66.8748L68.8666 55.6401L66.6677 54.7869L65.6232 50.3364L69.1759 46.9298L72.6232 45.1401L76.912 46.5605L73.1231 67.7653L68.9766 66.8748Z" fill="url(#paint9_linear)"/>
<path d="M28 39.9042L52.2469 30.3926V75.998L28 86.0178V39.9042Z" fill="#62C1C6"/>
<path d="M28 39.9042L52.2469 30.3926V75.998L28 86.0178V39.9042Z" fill="url(#paint10_linear)"/>
<mask id="mask1" mask-type="alpha" maskUnits="userSpaceOnUse" x="28" y="30" width="25" height="56">
<path d="M28 39.5117L52.2469 30V75.6055L28 85.6252V39.5117Z" fill="#62C1C6"/>
<path d="M28 39.5117L52.2469 30V75.6055L28 85.6252V39.5117Z" fill="url(#paint11_linear)"/>
</mask>
<g mask="url(#mask1)">
<ellipse cx="36.3038" cy="47.4897" rx="4.01464" ry="4.21528" transform="rotate(4.07148 36.3038 47.4897)" fill="white"/>
<path d="M43.2741 55.2693L36 74.952L70.6538 61.7739L57.3943 45L50.976 62.1868L43.2741 55.2693Z" fill="white"/>
</g>
<mask id="mask2" mask-type="alpha" maskUnits="userSpaceOnUse" x="55" y="24" width="23" height="49">
<path d="M58.2435 35.8885L58.3534 49.7347L62.5864 48.0314L62.4215 28.1963L59.0131 29.6248L55 33.1962L56.0445 37.6468L58.2435 35.8885Z" fill="#C4C4C4"/>
<path d="M69.8431 45.1193C70.3378 45.0644 70.8876 44.9545 71.4373 44.7347C73.3064 43.9655 74.7907 42.427 75.7803 40.1193C76.7148 37.9215 77.2096 35.3391 77.2096 32.3721C77.2096 29.405 76.6599 27.0974 75.6154 25.6688C74.4609 24.0204 72.8117 23.5809 70.7776 24.4051C68.9085 25.1743 67.4792 26.7127 66.4346 29.0204C65.4451 31.2182 65.0053 33.8006 65.0053 36.7677C65.0053 39.7347 65.5551 42.0424 66.5996 43.471C67.4792 44.6797 68.5237 45.2292 69.8431 45.1193ZM69.2383 35.6138C69.2383 33.8006 69.4033 32.3171 69.8431 31.2182C70.1729 30.2842 70.6677 29.6798 71.3274 29.405C71.4923 29.3501 71.6022 29.2952 71.7122 29.2952C71.8771 29.2952 72.097 29.3501 72.3719 29.7897C72.6467 30.2842 72.9766 31.3281 72.9766 33.5259C72.9766 35.3391 72.8117 36.8226 72.3719 37.8666C71.987 38.8006 71.4923 39.46 70.8876 39.6797C70.4478 39.8446 70.1729 39.8446 69.8431 39.2951C69.6232 38.8556 69.2933 37.8116 69.2383 35.6138Z" fill="#C4C4C4"/>
<path d="M72.9216 54.2315L73.0316 68.0777L77.2646 66.3744L77.0997 46.5393L73.6913 47.9678L69.6781 51.5392L70.7776 55.9898L72.9216 54.2315Z" fill="#C4C4C4"/>
<path d="M61.8168 51.5392C59.9477 52.3085 58.5184 53.8469 57.4738 56.1546C56.4843 58.3524 56.0445 60.9898 56.0445 63.9019C56.0445 66.9238 56.5943 69.1766 57.6388 70.6051C58.4634 71.759 59.5629 72.3084 60.8273 72.2535C61.322 72.1986 61.8718 72.0887 62.4215 71.8689C64.2907 71.0996 65.775 69.5612 66.7645 67.2535C67.6991 65.0557 68.1938 62.4733 68.1938 59.5063C68.1938 56.4843 67.6441 54.2316 66.5996 52.803C65.5001 51.1546 63.7959 50.7151 61.8168 51.5392ZM64.0158 60.6601C64.0158 62.4733 63.8509 63.9568 63.4111 65.0557C63.0262 66.0447 62.5315 66.6491 61.9268 66.8689C61.432 67.0887 61.1571 66.9788 60.8822 66.4843C60.6074 65.9898 60.2775 64.9458 60.2775 62.748C60.2775 60.9348 60.4425 59.4513 60.8822 58.3524C61.2121 57.4184 61.7069 56.814 62.3666 56.5392C62.5315 56.4843 62.6414 56.4293 62.7514 56.4293C62.9163 56.4293 63.1362 56.4843 63.4111 56.9239C63.6859 57.4184 64.0158 58.4623 64.0158 60.6601Z" fill="#C4C4C4"/>
</mask>
<g mask="url(#mask2)">
<rect x="15.7373" y="23.2002" width="77.4587" height="84.9247" fill="#72D0D6"/>
<path d="M43.2608 55.2857L36 75L70.5 62L57.3554 45L50.9488 62.2143L43.2608 55.2857Z" fill="white"/>
</g>
<defs>
<filter id="filter0_f" x="24" y="63" width="59.2646" height="72.1252" filterUnits="userSpaceOnUse" color-interpolation-filters="sRGB">
<feFlood flood-opacity="0" result="BackgroundImageFix"/>
<feBlend mode="normal" in="SourceGraphic" in2="BackgroundImageFix" result="shape"/>
<feGaussianBlur stdDeviation="2" result="effect1_foregroundBlur"/>
</filter>
<linearGradient id="paint0_linear" x1="40.1234" y1="75.5" x2="40.9636" y2="111.329" gradientUnits="userSpaceOnUse">
<stop stop-color="#72D0D6"/>
<stop offset="1" stop-color="#40A0A6" stop-opacity="0"/>
</linearGradient>
<linearGradient id="paint1_linear" x1="40.1234" y1="75.5" x2="40.9636" y2="111.329" gradientUnits="userSpaceOnUse">
<stop stop-color="#72D0D6"/>
<stop offset="1" stop-color="#40A0A6" stop-opacity="0"/>
</linearGradient>
<linearGradient id="paint2_linear" x1="40.1234" y1="75.5" x2="40.9636" y2="111.329" gradientUnits="userSpaceOnUse">
<stop stop-color="#72D0D6"/>
<stop offset="1" stop-color="#40A0A6" stop-opacity="0"/>
</linearGradient>
<linearGradient id="paint3_linear" x1="40.1234" y1="75.5" x2="40.9636" y2="111.329" gradientUnits="userSpaceOnUse">
<stop stop-color="#72D0D6"/>
<stop offset="1" stop-color="#40A0A6" stop-opacity="0"/>
</linearGradient>
<linearGradient id="paint4_linear" x1="40.1234" y1="75.5" x2="40.9636" y2="111.329" gradientUnits="userSpaceOnUse">
<stop stop-color="#72D0D6"/>
<stop offset="1" stop-color="#40A0A6" stop-opacity="0"/>
</linearGradient>
<linearGradient id="paint5_linear" x1="50" y1="28.5" x2="50.456" y2="86" gradientUnits="userSpaceOnUse">
<stop stop-color="#238E95"/>
<stop offset="1" stop-color="#246991"/>
</linearGradient>
<linearGradient id="paint6_linear" x1="50" y1="28.5" x2="50.456" y2="86" gradientUnits="userSpaceOnUse">
<stop stop-color="#238E95"/>
<stop offset="1" stop-color="#246991"/>
</linearGradient>
<linearGradient id="paint7_linear" x1="50" y1="28.5" x2="50.456" y2="86" gradientUnits="userSpaceOnUse">
<stop stop-color="#238E95"/>
<stop offset="1" stop-color="#246991"/>
</linearGradient>
<linearGradient id="paint8_linear" x1="50" y1="28.5" x2="50.456" y2="86" gradientUnits="userSpaceOnUse">
<stop stop-color="#238E95"/>
<stop offset="1" stop-color="#246991"/>
</linearGradient>
<linearGradient id="paint9_linear" x1="50" y1="28.5" x2="50.456" y2="86" gradientUnits="userSpaceOnUse">
<stop stop-color="#238E95"/>
<stop offset="1" stop-color="#246991"/>
</linearGradient>
<linearGradient id="paint10_linear" x1="40.1234" y1="30.3926" x2="12.3934" y2="73.8706" gradientUnits="userSpaceOnUse">
<stop stop-color="#72D0D6"/>
<stop offset="1" stop-color="#40A0A6"/>
</linearGradient>
<linearGradient id="paint11_linear" x1="40.1234" y1="30" x2="12.3934" y2="73.478" gradientUnits="userSpaceOnUse">
<stop stop-color="#72D0D6"/>
<stop offset="1" stop-color="#40A0A6"/>
</linearGradient>
</defs>
</svg>
