<svg width="108" height="108" viewBox="0 0 108 108" fill="none" xmlns="http://www.w3.org/2000/svg">
<circle cx="54" cy="54" r="54" fill="#6239DA"/>
<path d="M58.9944 37.1769C58.9944 36.9158 58.9706 36.6784 58.9469 36.4173C58.9469 36.3936 58.9469 36.3698 58.9469 36.3461C58.9469 36.2986 58.9232 36.2512 58.9232 36.18C58.8994 36.0138 58.8994 35.8476 58.8757 35.6815C58.8519 35.5391 58.8282 35.4204 58.8045 35.278C58.7807 35.2068 58.7807 35.1355 58.7807 35.0643C58.7807 35.0169 58.757 34.9694 58.757 34.9456C58.7095 34.6845 58.6383 34.4472 58.5908 34.1861C58.5908 34.1623 58.5671 34.1386 58.5671 34.0911C58.5434 34.0199 58.5196 33.925 58.4959 33.8538C58.4484 33.6876 58.4009 33.5215 58.3535 33.379C58.3297 33.3078 58.306 33.2366 58.2823 33.1654C58.2348 33.023 58.1636 32.8568 58.0924 32.7144C58.0449 32.6195 58.0212 32.5008 57.9737 32.4058C57.95 32.3584 57.9262 32.3109 57.9025 32.2634C57.6888 31.7887 57.4277 31.3377 57.1666 30.8867C57.1666 30.8629 57.1429 30.8392 57.1429 30.8392C57.0242 30.6493 56.9055 30.4832 56.7631 30.2933C56.6919 30.1983 56.6207 30.1034 56.5495 29.9847C56.3359 29.6761 56.0985 29.3913 55.8374 29.1064C55.4339 28.6554 55.0066 28.2519 54.5794 27.8721C54.5319 27.8247 54.4844 27.7772 54.4369 27.7297C54.3895 27.6822 54.342 27.6585 54.2945 27.611C54.1758 27.5161 54.0334 27.3974 53.891 27.3025C53.796 27.2312 53.7011 27.1363 53.5824 27.0651C53.5112 27.0176 53.44 26.9701 53.3688 26.9227C53.2738 26.8515 53.1789 26.804 53.1077 26.7565C53.0365 26.709 52.9653 26.6616 52.8941 26.6141C52.7279 26.5191 52.538 26.4242 52.3718 26.3293C52.3481 26.3055 52.3006 26.3055 52.2769 26.2818C52.2769 26.2818 52.2532 26.2818 52.2532 26.258C52.0395 26.1631 51.8496 26.0444 51.636 25.9732C51.5648 25.9495 51.4699 25.902 51.3986 25.8783C51.3274 25.8545 51.28 25.8308 51.2087 25.807C51.1375 25.7833 51.0901 25.7596 51.0189 25.7358C50.8052 25.6646 50.6153 25.5934 50.4017 25.5222C50.378 25.5222 50.3305 25.4985 50.3068 25.4985C50.2593 25.4747 50.2118 25.4747 50.1643 25.451C50.0457 25.4035 49.9032 25.3798 49.7846 25.3323C49.5947 25.2848 49.4285 25.2611 49.2386 25.2136C49.2149 25.2136 49.1674 25.1899 49.1437 25.1899C49.025 25.2374 49.025 25.2374 49.0012 25.2374C48.7639 25.1899 48.5265 25.1424 48.2654 25.1187C48.1467 25.0949 48.028 25.0949 47.9094 25.0712C47.7669 25.0475 47.6245 25.0475 47.4821 25.0237C47.2447 25.0237 47.0074 25 46.7463 25C46.5326 25 46.319 25 46.1291 25C46.1054 25 46.1054 25 46.0816 25C46.0579 25 46.0579 25 46.0342 25C45.7968 25.0237 45.5594 25.0237 45.3221 25.0712C45.061 25.0949 44.8236 25.1424 44.5862 25.1899C44.5388 25.1899 44.515 25.2136 44.4675 25.2136C44.4201 25.2136 44.3726 25.2374 44.3251 25.2374C44.1352 25.2848 43.9691 25.3086 43.7792 25.3798C43.4469 25.4747 43.1146 25.5934 42.8297 25.7121C42.3313 25.9257 41.8565 26.1868 41.3818 26.4717L30.3917 33.6876C30.8427 33.379 31.3412 33.1179 31.8397 32.928C31.8397 32.928 31.8397 32.928 31.8634 32.928C32.3381 32.7381 32.8366 32.572 33.3351 32.477C33.3825 32.477 33.43 32.4533 33.4775 32.4533C33.9997 32.3346 34.5456 32.2634 35.1153 32.2397C35.1391 32.2397 35.139 32.2397 35.1628 32.2397C35.7325 32.2159 36.3496 32.2397 36.9668 32.3109C37.3466 32.3584 37.7263 32.4058 38.0824 32.477C38.1061 32.477 38.1536 32.5008 38.1773 32.5008C38.4859 32.572 38.7945 32.6432 39.1031 32.7381C39.1505 32.7619 39.198 32.7619 39.2455 32.7856C39.5541 32.8806 39.8626 32.9755 40.1712 33.0942C40.2424 33.1179 40.2899 33.1417 40.3611 33.1654C40.6697 33.2841 40.9545 33.4265 41.2631 33.5689C41.2868 33.5927 41.3343 33.5927 41.358 33.6164C41.6192 33.7588 41.8565 33.9012 42.1176 34.0437C42.2126 34.0911 42.3075 34.1623 42.3787 34.2098C42.5449 34.3285 42.7348 34.4472 42.9009 34.5896C43.0433 34.6845 43.162 34.7795 43.3045 34.8982C43.3994 34.9694 43.4943 35.0643 43.5893 35.1593C44.0166 35.5391 44.4438 35.9426 44.8473 36.3936C45.1084 36.6784 45.3458 36.9633 45.5594 37.2718C45.6306 37.3668 45.7019 37.4617 45.7731 37.5804C45.9155 37.7703 46.0579 37.9839 46.1766 38.1738C46.4614 38.6248 46.6988 39.0758 46.9124 39.5506C46.9836 39.693 47.0548 39.8591 47.1023 40.0016C47.1735 40.144 47.221 40.3101 47.2922 40.4525C47.3872 40.6899 47.4584 40.9035 47.5296 41.1409C47.5533 41.2121 47.577 41.3071 47.6008 41.3783C47.6957 41.6869 47.7669 42.0192 47.8144 42.3515C47.8381 42.4227 47.8381 42.4939 47.8381 42.5651C47.8856 42.8499 47.9331 43.1585 47.9568 43.4671C47.9568 43.5146 47.9806 43.562 47.9806 43.6333C48.0043 44.013 48.028 44.3691 48.028 44.7489C48.028 45.5084 47.9806 46.2443 47.8619 46.9326C47.8619 46.9801 47.8381 47.0276 47.8381 47.0751C47.7907 47.3836 47.7195 47.6922 47.6245 47.9771C47.6245 47.9771 47.6008 48.0245 47.6008 48.072C47.5058 48.3806 47.4109 48.6654 47.3159 48.9503C47.2922 48.974 47.2922 49.0215 47.2685 49.0452C47.1735 49.2826 47.0548 49.5199 46.9362 49.7573C46.8887 49.8523 46.8412 49.9472 46.7937 50.0184C46.6988 50.1846 46.6038 50.3507 46.5089 50.4931C46.4139 50.6356 46.319 50.778 46.2241 50.8967C46.1528 50.9916 46.0816 51.0866 46.0104 51.1815C45.7019 51.585 45.3695 51.9648 44.9898 52.3209C44.5862 52.7006 44.159 53.033 43.708 53.3415L54.6743 46.1493C55.1253 45.8645 55.5526 45.5084 55.9561 45.1287C56.3359 44.7726 56.6682 44.3928 56.9768 43.9893C57.0005 43.9418 57.048 43.8944 57.0954 43.8469C57.1429 43.7994 57.1666 43.7519 57.1904 43.6807C57.2853 43.5383 57.3803 43.3959 57.4752 43.2535C57.5227 43.1585 57.5939 43.0873 57.6651 42.9924C57.7126 42.9212 57.7363 42.8499 57.7838 42.7787C57.8313 42.6838 57.8787 42.5888 57.9262 42.5176C57.9737 42.4464 57.9974 42.3752 58.0449 42.304C58.1161 42.1378 58.1873 41.9717 58.2585 41.8055C58.2823 41.7818 58.2823 41.7343 58.306 41.7106C58.306 41.7106 58.306 41.6869 58.3297 41.6869C58.4009 41.497 58.4722 41.2833 58.5434 41.0934C58.5671 41.0222 58.5908 40.9273 58.6146 40.8561C58.6383 40.8086 58.6383 40.7374 58.6621 40.6899C58.6858 40.6187 58.7095 40.5712 58.7095 40.5C58.757 40.3101 58.8045 40.0965 58.8519 39.9066C58.8519 39.8591 58.8757 39.8354 58.8757 39.7879C58.8757 39.7404 58.8994 39.693 58.8994 39.6218C58.9232 39.5031 58.9469 39.3844 58.9469 39.2657C58.9706 39.0521 58.9944 38.8385 59.0181 38.6011C59.0418 38.3637 59.0418 38.1264 59.0418 37.889C59.0418 37.7466 59.0418 37.5804 59.0418 37.438C59.0181 37.3905 58.9944 37.2718 58.9944 37.1769Z" fill="#858585"/>
<path d="M58.9944 37.1769C58.9944 36.9158 58.9706 36.6784 58.9469 36.4173C58.9469 36.3936 58.9469 36.3698 58.9469 36.3461C58.9469 36.2986 58.9232 36.2512 58.9232 36.18C58.8994 36.0138 58.8994 35.8476 58.8757 35.6815C58.8519 35.5391 58.8282 35.4204 58.8045 35.278C58.7807 35.2068 58.7807 35.1355 58.7807 35.0643C58.7807 35.0169 58.757 34.9694 58.757 34.9456C58.7095 34.6845 58.6383 34.4472 58.5908 34.1861C58.5908 34.1623 58.5671 34.1386 58.5671 34.0911C58.5434 34.0199 58.5196 33.925 58.4959 33.8538C58.4484 33.6876 58.4009 33.5215 58.3535 33.379C58.3297 33.3078 58.306 33.2366 58.2823 33.1654C58.2348 33.023 58.1636 32.8568 58.0924 32.7144C58.0449 32.6195 58.0212 32.5008 57.9737 32.4058C57.95 32.3584 57.9262 32.3109 57.9025 32.2634C57.6888 31.7887 57.4277 31.3377 57.1666 30.8867C57.1666 30.8629 57.1429 30.8392 57.1429 30.8392C57.0242 30.6493 56.9055 30.4832 56.7631 30.2933C56.6919 30.1983 56.6207 30.1034 56.5495 29.9847C56.3359 29.6761 56.0985 29.3913 55.8374 29.1064C55.4339 28.6554 55.0066 28.2519 54.5794 27.8721C54.5319 27.8247 54.4844 27.7772 54.4369 27.7297C54.3895 27.6822 54.342 27.6585 54.2945 27.611C54.1758 27.5161 54.0334 27.3974 53.891 27.3025C53.796 27.2312 53.7011 27.1363 53.5824 27.0651C53.5112 27.0176 53.44 26.9701 53.3688 26.9227C53.2738 26.8515 53.1789 26.804 53.1077 26.7565C53.0365 26.709 52.9653 26.6616 52.8941 26.6141C52.7279 26.5191 52.538 26.4242 52.3718 26.3293C52.3481 26.3055 52.3006 26.3055 52.2769 26.2818C52.2769 26.2818 52.2532 26.2818 52.2532 26.258C52.0395 26.1631 51.8496 26.0444 51.636 25.9732C51.5648 25.9495 51.4699 25.902 51.3986 25.8783C51.3274 25.8545 51.28 25.8308 51.2087 25.807C51.1375 25.7833 51.0901 25.7596 51.0189 25.7358C50.8052 25.6646 50.6153 25.5934 50.4017 25.5222C50.378 25.5222 50.3305 25.4985 50.3068 25.4985C50.2593 25.4747 50.2118 25.4747 50.1643 25.451C50.0457 25.4035 49.9032 25.3798 49.7846 25.3323C49.5947 25.2848 49.4285 25.2611 49.2386 25.2136C49.2149 25.2136 49.1674 25.1899 49.1437 25.1899C49.025 25.2374 49.025 25.2374 49.0012 25.2374C48.7639 25.1899 48.5265 25.1424 48.2654 25.1187C48.1467 25.0949 48.028 25.0949 47.9094 25.0712C47.7669 25.0475 47.6245 25.0475 47.4821 25.0237C47.2447 25.0237 47.0074 25 46.7463 25C46.5326 25 46.319 25 46.1291 25C46.1054 25 46.1054 25 46.0816 25C46.0579 25 46.0579 25 46.0342 25C45.7968 25.0237 45.5594 25.0237 45.3221 25.0712C45.061 25.0949 44.8236 25.1424 44.5862 25.1899C44.5388 25.1899 44.515 25.2136 44.4675 25.2136C44.4201 25.2136 44.3726 25.2374 44.3251 25.2374C44.1352 25.2848 43.9691 25.3086 43.7792 25.3798C43.4469 25.4747 43.1146 25.5934 42.8297 25.7121C42.3313 25.9257 41.8565 26.1868 41.3818 26.4717L30.3917 33.6876C30.8427 33.379 31.3412 33.1179 31.8397 32.928C31.8397 32.928 31.8397 32.928 31.8634 32.928C32.3381 32.7381 32.8366 32.572 33.3351 32.477C33.3825 32.477 33.43 32.4533 33.4775 32.4533C33.9997 32.3346 34.5456 32.2634 35.1153 32.2397C35.1391 32.2397 35.139 32.2397 35.1628 32.2397C35.7325 32.2159 36.3496 32.2397 36.9668 32.3109C37.3466 32.3584 37.7263 32.4058 38.0824 32.477C38.1061 32.477 38.1536 32.5008 38.1773 32.5008C38.4859 32.572 38.7945 32.6432 39.1031 32.7381C39.1505 32.7619 39.198 32.7619 39.2455 32.7856C39.5541 32.8806 39.8626 32.9755 40.1712 33.0942C40.2424 33.1179 40.2899 33.1417 40.3611 33.1654C40.6697 33.2841 40.9545 33.4265 41.2631 33.5689C41.2868 33.5927 41.3343 33.5927 41.358 33.6164C41.6192 33.7588 41.8565 33.9012 42.1176 34.0437C42.2126 34.0911 42.3075 34.1623 42.3787 34.2098C42.5449 34.3285 42.7348 34.4472 42.9009 34.5896C43.0433 34.6845 43.162 34.7795 43.3045 34.8982C43.3994 34.9694 43.4943 35.0643 43.5893 35.1593C44.0166 35.5391 44.4438 35.9426 44.8473 36.3936C45.1084 36.6784 45.3458 36.9633 45.5594 37.2718C45.6306 37.3668 45.7019 37.4617 45.7731 37.5804C45.9155 37.7703 46.0579 37.9839 46.1766 38.1738C46.4614 38.6248 46.6988 39.0758 46.9124 39.5506C46.9836 39.693 47.0548 39.8591 47.1023 40.0016C47.1735 40.144 47.221 40.3101 47.2922 40.4525C47.3872 40.6899 47.4584 40.9035 47.5296 41.1409C47.5533 41.2121 47.577 41.3071 47.6008 41.3783C47.6957 41.6869 47.7669 42.0192 47.8144 42.3515C47.8381 42.4227 47.8381 42.4939 47.8381 42.5651C47.8856 42.8499 47.9331 43.1585 47.9568 43.4671C47.9568 43.5146 47.9806 43.562 47.9806 43.6333C48.0043 44.013 48.028 44.3691 48.028 44.7489C48.028 45.5084 47.9806 46.2443 47.8619 46.9326C47.8619 46.9801 47.8381 47.0276 47.8381 47.0751C47.7907 47.3836 47.7195 47.6922 47.6245 47.9771C47.6245 47.9771 47.6008 48.0245 47.6008 48.072C47.5058 48.3806 47.4109 48.6654 47.3159 48.9503C47.2922 48.974 47.2922 49.0215 47.2685 49.0452C47.1735 49.2826 47.0548 49.5199 46.9362 49.7573C46.8887 49.8523 46.8412 49.9472 46.7937 50.0184C46.6988 50.1846 46.6038 50.3507 46.5089 50.4931C46.4139 50.6356 46.319 50.778 46.2241 50.8967C46.1528 50.9916 46.0816 51.0866 46.0104 51.1815C45.7019 51.585 45.3695 51.9648 44.9898 52.3209C44.5862 52.7006 44.159 53.033 43.708 53.3415L54.6743 46.1493C55.1253 45.8645 55.5526 45.5084 55.9561 45.1287C56.3359 44.7726 56.6682 44.3928 56.9768 43.9893C57.0005 43.9418 57.048 43.8944 57.0954 43.8469C57.1429 43.7994 57.1666 43.7519 57.1904 43.6807C57.2853 43.5383 57.3803 43.3959 57.4752 43.2535C57.5227 43.1585 57.5939 43.0873 57.6651 42.9924C57.7126 42.9212 57.7363 42.8499 57.7838 42.7787C57.8313 42.6838 57.8787 42.5888 57.9262 42.5176C57.9737 42.4464 57.9974 42.3752 58.0449 42.304C58.1161 42.1378 58.1873 41.9717 58.2585 41.8055C58.2823 41.7818 58.2823 41.7343 58.306 41.7106C58.306 41.7106 58.306 41.6869 58.3297 41.6869C58.4009 41.497 58.4722 41.2833 58.5434 41.0934C58.5671 41.0222 58.5908 40.9273 58.6146 40.8561C58.6383 40.8086 58.6383 40.7374 58.6621 40.6899C58.6858 40.6187 58.7095 40.5712 58.7095 40.5C58.757 40.3101 58.8045 40.0965 58.8519 39.9066C58.8519 39.8591 58.8757 39.8354 58.8757 39.7879C58.8757 39.7404 58.8994 39.693 58.8994 39.6218C58.9232 39.5031 58.9469 39.3844 58.9469 39.2657C58.9706 39.0521 58.9944 38.8385 59.0181 38.6011C59.0418 38.3637 59.0418 38.1264 59.0418 37.889C59.0418 37.7466 59.0418 37.5804 59.0418 37.438C59.0181 37.3905 58.9944 37.2718 58.9944 37.1769Z" fill="url(#paint0_linear)"/>
<circle cx="37.394" cy="43.5151" r="7.35836" fill="#C4C4C4"/>
<circle cx="37.394" cy="43.5151" r="7.35836" fill="url(#paint1_linear)"/>
<circle cx="37.394" cy="43.5151" r="7.35836" fill="#6239DA" fill-opacity="0.3"/>
<path d="M44.966 52.3687C42.9009 54.3151 40.2899 55.1221 37.1566 54.7898C34.0234 54.4575 31.3886 53.0808 29.2286 50.6834C27.0923 48.2622 26.0241 45.485 26.0004 42.3518C25.9767 39.2186 26.9973 36.655 29.0862 34.7086C31.175 32.7622 33.8098 31.9314 36.943 32.2637C40.0762 32.596 42.6873 33.949 44.8236 36.3227C46.9361 38.6964 48.0043 41.4735 48.0517 44.6543C48.0755 47.8587 47.0311 50.4223 44.966 52.3687ZM34.0946 46.3158C34.8779 47.2415 35.8274 47.7638 37.0142 47.8824C38.201 48.0011 39.1505 47.6925 39.9338 46.933C40.7171 46.1734 41.0969 45.1765 41.0732 43.9422C41.0732 42.7079 40.6696 41.6634 39.8626 40.7377C39.0556 39.8357 38.0824 39.3135 36.9193 39.1948C35.7562 39.0761 34.783 39.3847 34.0234 40.1206C33.2638 40.8564 32.9078 41.8533 32.9078 43.0639C32.9552 44.2982 33.335 45.3901 34.0946 46.3158Z" fill="#F8FAFB"/>
<circle cx="59.7065" cy="72.7109" r="7.35836" fill="#C4C4C4"/>
<circle cx="59.7065" cy="72.7109" r="7.35836" fill="url(#paint2_linear)"/>
<circle cx="59.7065" cy="72.7109" r="7.35836" fill="#6239DA" fill-opacity="0.3"/>
<path d="M67.4209 65.4711C69.5334 67.8685 70.6016 70.6456 70.6491 73.7789C70.6728 76.9121 69.6521 79.4757 67.587 81.4221C65.5219 83.3922 62.9109 84.1993 59.7777 83.8669C56.6444 83.5346 54.0097 82.1579 51.8971 79.7605C49.7846 77.3631 48.7164 74.5859 48.6927 71.4527C48.6689 68.3194 49.6896 65.7559 51.7547 63.7858C53.8198 61.8393 56.4308 61.0086 59.564 61.3409C62.6735 61.6969 65.3083 63.0737 67.4209 65.4711ZM62.5786 76.0101C63.3144 75.2268 63.6942 74.2536 63.6942 73.0668C63.6942 71.8325 63.2907 70.7643 62.5311 69.8623C61.7478 68.9366 60.7746 68.4144 59.6115 68.2957C58.4484 68.177 57.4752 68.4856 56.7156 69.2452C55.9561 70.0047 55.6 71.0017 55.6 72.2123C55.6 73.4466 56.0036 74.5147 56.7631 75.4404C57.5464 76.3662 58.4959 76.8884 59.6827 77.0071C60.8696 77.1257 61.819 76.7934 62.5786 76.0101Z" fill="#F8FAFB"/>
<path d="M81.3542 66.5393C81.3542 66.3019 81.3305 66.0408 81.3067 65.8035C81.3067 65.7797 81.3067 65.756 81.3067 65.7085C81.3067 65.6611 81.283 65.5898 81.283 65.5424C81.2593 65.3762 81.2593 65.2338 81.2355 65.0676C81.2118 64.9252 81.188 64.7828 81.1643 64.6641C81.1643 64.5929 81.1406 64.5454 81.1406 64.4742C81.1406 64.4267 81.1406 64.403 81.1168 64.3555C81.0694 64.0944 80.9981 63.8571 80.9507 63.596C80.9507 63.5722 80.9269 63.5248 80.9269 63.501C80.9032 63.4061 80.8795 63.3349 80.8557 63.2399C80.8083 63.0738 80.7608 62.9313 80.7133 62.7652C80.6896 62.694 80.6658 62.6228 80.6184 62.5516C80.5709 62.3854 80.4997 62.243 80.4285 62.1006C80.381 62.0056 80.3573 61.8869 80.3098 61.792C80.2861 61.7445 80.2623 61.697 80.2386 61.6496C80.0249 61.1748 79.7638 60.7001 79.479 60.2491C79.4553 60.2254 79.4553 60.2016 79.4553 60.1779C79.3366 59.988 79.2179 59.8218 79.0992 59.6557C79.028 59.5607 78.9568 59.4658 78.8856 59.3708C78.672 59.0623 78.4346 58.7774 78.1735 58.4926L78.1498 58.4689L78.126 58.4451C77.7462 58.0179 77.319 57.6143 76.8917 57.2345C76.8442 57.1871 76.7968 57.1396 76.7493 57.0921C76.7018 57.0447 76.6543 57.0209 76.6069 56.9972C76.4882 56.9022 76.3458 56.7836 76.2033 56.6886C76.1084 56.6174 75.9897 56.5224 75.8948 56.4512C75.8236 56.4038 75.7524 56.3563 75.7049 56.3326C75.6099 56.2851 75.5387 56.2139 75.4438 56.1664C75.3726 56.1189 75.2776 56.0477 75.2064 56.0002C75.0403 55.9053 74.8741 55.8103 74.7317 55.7391C74.6842 55.7154 74.6605 55.6917 74.613 55.6679C74.5893 55.6679 74.5893 55.6442 74.5655 55.6442C74.3519 55.5492 74.162 55.4543 73.9484 55.3594C73.8772 55.3356 73.806 55.2881 73.7347 55.2644C73.6635 55.2407 73.6161 55.2169 73.5448 55.1932C73.4736 55.1695 73.4024 55.1457 73.3312 55.0983C73.1176 55.027 72.9277 54.9558 72.7141 54.8846C72.6903 54.8846 72.6429 54.8609 72.6191 54.8609C72.5716 54.8371 72.5242 54.8371 72.4767 54.8134C72.3343 54.7659 72.2156 54.7422 72.0732 54.6947C71.907 54.6473 71.7171 54.6235 71.551 54.576C71.5272 54.576 71.4798 54.5523 71.456 54.5523C71.4323 54.5523 71.4323 54.5523 71.4086 54.5523C71.1712 54.5048 70.9338 54.4574 70.6727 54.4336C70.554 54.4099 70.4353 54.4099 70.3167 54.3862C70.1742 54.3624 70.0318 54.3624 69.8894 54.3387C69.6283 54.3149 69.3909 54.3149 69.1536 54.3149C68.9399 54.3149 68.75 54.3149 68.5364 54.3149C68.5127 54.3149 68.4889 54.3149 68.4889 54.3149C68.4652 54.3149 68.4415 54.3149 68.4415 54.3149C68.2041 54.3149 67.9667 54.3387 67.7294 54.3862C67.4683 54.4099 67.2309 54.4574 66.9935 54.5048C66.9461 54.5048 66.9223 54.5286 66.8749 54.5286C66.8274 54.5286 66.7799 54.5523 66.7324 54.5523C66.5425 54.5998 66.3526 54.6235 66.1865 54.6947C65.8779 54.7897 65.5693 54.8846 65.2845 55.0033H65.2608C64.7623 55.2169 64.2876 55.4543 63.8366 55.7629L52.8702 62.9551C53.3212 62.6465 53.796 62.4091 54.2944 62.1955H54.3182C54.7929 62.0056 55.2676 61.8632 55.7661 61.7445C55.8136 61.7445 55.8611 61.7208 55.9085 61.7208C56.4307 61.6021 56.9767 61.5309 57.5226 61.5071C57.5464 61.5071 57.5701 61.5071 57.5938 61.5071C58.1635 61.4834 58.7569 61.5071 59.3741 61.5546C59.7539 61.6021 60.1336 61.6496 60.4897 61.7208C60.5134 61.7208 60.5609 61.7445 60.5846 61.7445C60.8932 61.8157 61.2018 61.8869 61.5104 61.9819C61.5578 62.0056 61.6053 62.0056 61.6528 62.0293C61.9614 62.1243 62.2699 62.2192 62.5785 62.3379C62.6497 62.3617 62.6972 62.3854 62.7684 62.4091C63.077 62.5278 63.3618 62.6702 63.6467 62.8127C63.6941 62.8364 63.7179 62.8601 63.7654 62.8839C64.0027 63.0263 64.2638 63.1687 64.5012 63.3111C64.5961 63.3586 64.6911 63.4298 64.7623 63.4773C64.9284 63.596 65.1183 63.7146 65.2845 63.8571C65.4269 63.952 65.5456 64.047 65.688 64.1656C65.783 64.2369 65.8779 64.3318 65.9729 64.403C66.4001 64.7828 66.8036 65.1626 67.2072 65.6136C67.2309 65.6373 67.2546 65.6611 67.2546 65.6611C67.5157 65.9459 67.7531 66.2545 67.9667 66.5393C68.0379 66.6343 68.1092 66.7292 68.1804 66.8479C68.3228 67.0378 68.4415 67.2277 68.5839 67.4413C68.8687 67.8923 69.1298 68.367 69.3435 68.8418C69.4147 68.9842 69.4859 69.1266 69.5334 69.2928C69.6046 69.4352 69.652 69.6013 69.7232 69.7675C69.7945 69.9811 69.8894 70.2185 69.9369 70.4321C69.9606 70.5271 69.9844 70.5983 70.0081 70.6932C70.103 71.0018 70.1742 71.3341 70.2217 71.6427C70.2455 71.7139 70.2455 71.7851 70.2455 71.8326C70.2929 72.1174 70.3404 72.426 70.3641 72.7108C70.3641 72.7583 70.3879 72.8295 70.3879 72.877C70.4116 73.233 70.4353 73.6128 70.4353 73.9926C70.4353 74.3961 70.4353 74.7759 70.3879 75.132V75.1557C70.3641 75.488 70.3167 75.8203 70.2692 76.1526C70.2692 76.2001 70.2455 76.2476 70.2455 76.2951C70.198 76.6036 70.1268 76.9122 70.0318 77.1971C70.0081 77.2445 70.0081 77.3157 69.9844 77.3632C69.8894 77.6481 69.7945 77.9566 69.6995 78.2415C69.6758 78.2889 69.6758 78.3127 69.652 78.3601C69.5571 78.5975 69.4384 78.8349 69.3197 79.0485C69.2723 79.1435 69.2248 79.2384 69.1773 79.3096C69.0824 79.4758 68.9874 79.6182 68.8925 79.7843C68.7975 79.9268 68.7026 80.0692 68.6076 80.2116C68.5364 80.3066 68.4652 80.4015 68.3703 80.4964C68.0617 80.9 67.7294 81.2798 67.3496 81.6358C66.9223 82.0393 66.4713 82.3954 66.0203 82.704L76.9867 75.5118C77.4614 75.2032 77.8886 74.8471 78.3159 74.4436C78.6957 74.0876 79.028 73.7078 79.3366 73.3042C79.3841 73.2568 79.4315 73.2093 79.4553 73.1618C79.5027 73.1144 79.5265 73.0431 79.5739 72.9957C79.6689 72.8533 79.7638 72.7108 79.8588 72.5684C79.9063 72.4735 79.9775 72.4023 80.0249 72.3073C80.0724 72.2361 80.0962 72.1649 80.1436 72.0937C80.1911 71.9987 80.2386 71.9038 80.286 71.8326C80.3335 71.7614 80.3573 71.6902 80.4047 71.6189C80.4759 71.4528 80.5472 71.3104 80.6184 71.1442C80.6421 71.0967 80.6421 71.073 80.6658 71.0255C80.6658 71.0018 80.6896 71.0018 80.6896 70.9781C80.7608 70.7882 80.832 70.5745 80.9032 70.3846C80.9269 70.3134 80.9507 70.2422 80.9744 70.171C80.9981 70.1235 80.9981 70.0523 81.0219 70.0049C81.0456 69.9336 81.0694 69.8624 81.0694 69.815C81.1168 69.6251 81.1643 69.4114 81.2118 69.2215C81.2118 69.1978 81.2118 69.1503 81.2355 69.1266C81.2355 69.0791 81.2593 69.0317 81.2593 68.9842C81.283 68.8655 81.3067 68.7468 81.3067 68.6281C81.3305 68.4382 81.3542 68.2246 81.3779 68.011V67.9872C81.4017 67.7499 81.4017 67.5362 81.4017 67.2989C81.4017 67.1565 81.4017 66.9903 81.4017 66.8479C81.3542 66.7292 81.3542 66.6343 81.3542 66.5393Z" fill="#858585"/>
<path d="M81.3542 66.5393C81.3542 66.3019 81.3305 66.0408 81.3067 65.8035C81.3067 65.7797 81.3067 65.756 81.3067 65.7085C81.3067 65.6611 81.283 65.5898 81.283 65.5424C81.2593 65.3762 81.2593 65.2338 81.2355 65.0676C81.2118 64.9252 81.188 64.7828 81.1643 64.6641C81.1643 64.5929 81.1406 64.5454 81.1406 64.4742C81.1406 64.4267 81.1406 64.403 81.1168 64.3555C81.0694 64.0944 80.9981 63.8571 80.9507 63.596C80.9507 63.5722 80.9269 63.5248 80.9269 63.501C80.9032 63.4061 80.8795 63.3349 80.8557 63.2399C80.8083 63.0738 80.7608 62.9313 80.7133 62.7652C80.6896 62.694 80.6658 62.6228 80.6184 62.5516C80.5709 62.3854 80.4997 62.243 80.4285 62.1006C80.381 62.0056 80.3573 61.8869 80.3098 61.792C80.2861 61.7445 80.2623 61.697 80.2386 61.6496C80.0249 61.1748 79.7638 60.7001 79.479 60.2491C79.4553 60.2254 79.4553 60.2016 79.4553 60.1779C79.3366 59.988 79.2179 59.8218 79.0992 59.6557C79.028 59.5607 78.9568 59.4658 78.8856 59.3708C78.672 59.0623 78.4346 58.7774 78.1735 58.4926L78.1498 58.4689L78.126 58.4451C77.7462 58.0179 77.319 57.6143 76.8917 57.2345C76.8442 57.1871 76.7968 57.1396 76.7493 57.0921C76.7018 57.0447 76.6543 57.0209 76.6069 56.9972C76.4882 56.9022 76.3458 56.7836 76.2033 56.6886C76.1084 56.6174 75.9897 56.5224 75.8948 56.4512C75.8236 56.4038 75.7524 56.3563 75.7049 56.3326C75.6099 56.2851 75.5387 56.2139 75.4438 56.1664C75.3726 56.1189 75.2776 56.0477 75.2064 56.0002C75.0403 55.9053 74.8741 55.8103 74.7317 55.7391C74.6842 55.7154 74.6605 55.6917 74.613 55.6679C74.5893 55.6679 74.5893 55.6442 74.5655 55.6442C74.3519 55.5492 74.162 55.4543 73.9484 55.3594C73.8772 55.3356 73.806 55.2881 73.7347 55.2644C73.6635 55.2407 73.6161 55.2169 73.5448 55.1932C73.4736 55.1695 73.4024 55.1457 73.3312 55.0983C73.1176 55.027 72.9277 54.9558 72.7141 54.8846C72.6903 54.8846 72.6429 54.8609 72.6191 54.8609C72.5716 54.8371 72.5242 54.8371 72.4767 54.8134C72.3343 54.7659 72.2156 54.7422 72.0732 54.6947C71.907 54.6473 71.7171 54.6235 71.551 54.576C71.5272 54.576 71.4798 54.5523 71.456 54.5523C71.4323 54.5523 71.4323 54.5523 71.4086 54.5523C71.1712 54.5048 70.9338 54.4574 70.6727 54.4336C70.554 54.4099 70.4353 54.4099 70.3167 54.3862C70.1742 54.3624 70.0318 54.3624 69.8894 54.3387C69.6283 54.3149 69.3909 54.3149 69.1536 54.3149C68.9399 54.3149 68.75 54.3149 68.5364 54.3149C68.5127 54.3149 68.4889 54.3149 68.4889 54.3149C68.4652 54.3149 68.4415 54.3149 68.4415 54.3149C68.2041 54.3149 67.9667 54.3387 67.7294 54.3862C67.4683 54.4099 67.2309 54.4574 66.9935 54.5048C66.9461 54.5048 66.9223 54.5286 66.8749 54.5286C66.8274 54.5286 66.7799 54.5523 66.7324 54.5523C66.5425 54.5998 66.3526 54.6235 66.1865 54.6947C65.8779 54.7897 65.5693 54.8846 65.2845 55.0033H65.2608C64.7623 55.2169 64.2876 55.4543 63.8366 55.7629L52.8702 62.9551C53.3212 62.6465 53.796 62.4091 54.2944 62.1955H54.3182C54.7929 62.0056 55.2676 61.8632 55.7661 61.7445C55.8136 61.7445 55.8611 61.7208 55.9085 61.7208C56.4307 61.6021 56.9767 61.5309 57.5226 61.5071C57.5464 61.5071 57.5701 61.5071 57.5938 61.5071C58.1635 61.4834 58.7569 61.5071 59.3741 61.5546C59.7539 61.6021 60.1336 61.6496 60.4897 61.7208C60.5134 61.7208 60.5609 61.7445 60.5846 61.7445C60.8932 61.8157 61.2018 61.8869 61.5104 61.9819C61.5578 62.0056 61.6053 62.0056 61.6528 62.0293C61.9614 62.1243 62.2699 62.2192 62.5785 62.3379C62.6497 62.3617 62.6972 62.3854 62.7684 62.4091C63.077 62.5278 63.3618 62.6702 63.6467 62.8127C63.6941 62.8364 63.7179 62.8601 63.7654 62.8839C64.0027 63.0263 64.2638 63.1687 64.5012 63.3111C64.5961 63.3586 64.6911 63.4298 64.7623 63.4773C64.9284 63.596 65.1183 63.7146 65.2845 63.8571C65.4269 63.952 65.5456 64.047 65.688 64.1656C65.783 64.2369 65.8779 64.3318 65.9729 64.403C66.4001 64.7828 66.8036 65.1626 67.2072 65.6136C67.2309 65.6373 67.2546 65.6611 67.2546 65.6611C67.5157 65.9459 67.7531 66.2545 67.9667 66.5393C68.0379 66.6343 68.1092 66.7292 68.1804 66.8479C68.3228 67.0378 68.4415 67.2277 68.5839 67.4413C68.8687 67.8923 69.1298 68.367 69.3435 68.8418C69.4147 68.9842 69.4859 69.1266 69.5334 69.2928C69.6046 69.4352 69.652 69.6013 69.7232 69.7675C69.7945 69.9811 69.8894 70.2185 69.9369 70.4321C69.9606 70.5271 69.9844 70.5983 70.0081 70.6932C70.103 71.0018 70.1742 71.3341 70.2217 71.6427C70.2455 71.7139 70.2455 71.7851 70.2455 71.8326C70.2929 72.1174 70.3404 72.426 70.3641 72.7108C70.3641 72.7583 70.3879 72.8295 70.3879 72.877C70.4116 73.233 70.4353 73.6128 70.4353 73.9926C70.4353 74.3961 70.4353 74.7759 70.3879 75.132V75.1557C70.3641 75.488 70.3167 75.8203 70.2692 76.1526C70.2692 76.2001 70.2455 76.2476 70.2455 76.2951C70.198 76.6036 70.1268 76.9122 70.0318 77.1971C70.0081 77.2445 70.0081 77.3157 69.9844 77.3632C69.8894 77.6481 69.7945 77.9566 69.6995 78.2415C69.6758 78.2889 69.6758 78.3127 69.652 78.3601C69.5571 78.5975 69.4384 78.8349 69.3197 79.0485C69.2723 79.1435 69.2248 79.2384 69.1773 79.3096C69.0824 79.4758 68.9874 79.6182 68.8925 79.7843C68.7975 79.9268 68.7026 80.0692 68.6076 80.2116C68.5364 80.3066 68.4652 80.4015 68.3703 80.4964C68.0617 80.9 67.7294 81.2798 67.3496 81.6358C66.9223 82.0393 66.4713 82.3954 66.0203 82.704L76.9867 75.5118C77.4614 75.2032 77.8886 74.8471 78.3159 74.4436C78.6957 74.0876 79.028 73.7078 79.3366 73.3042C79.3841 73.2568 79.4315 73.2093 79.4553 73.1618C79.5027 73.1144 79.5265 73.0431 79.5739 72.9957C79.6689 72.8533 79.7638 72.7108 79.8588 72.5684C79.9063 72.4735 79.9775 72.4023 80.0249 72.3073C80.0724 72.2361 80.0962 72.1649 80.1436 72.0937C80.1911 71.9987 80.2386 71.9038 80.286 71.8326C80.3335 71.7614 80.3573 71.6902 80.4047 71.6189C80.4759 71.4528 80.5472 71.3104 80.6184 71.1442C80.6421 71.0967 80.6421 71.073 80.6658 71.0255C80.6658 71.0018 80.6896 71.0018 80.6896 70.9781C80.7608 70.7882 80.832 70.5745 80.9032 70.3846C80.9269 70.3134 80.9507 70.2422 80.9744 70.171C80.9981 70.1235 80.9981 70.0523 81.0219 70.0049C81.0456 69.9336 81.0694 69.8624 81.0694 69.815C81.1168 69.6251 81.1643 69.4114 81.2118 69.2215C81.2118 69.1978 81.2118 69.1503 81.2355 69.1266C81.2355 69.0791 81.2593 69.0317 81.2593 68.9842C81.283 68.8655 81.3067 68.7468 81.3067 68.6281C81.3305 68.4382 81.3542 68.2246 81.3779 68.011V67.9872C81.4017 67.7499 81.4017 67.5362 81.4017 67.2989C81.4017 67.1565 81.4017 66.9903 81.4017 66.8479C81.3542 66.7292 81.3542 66.6343 81.3542 66.5393Z" fill="url(#paint3_linear)"/>
<path d="M60.4185 41.6152L64.4299 44.3449L34.8541 75.8909L30.9138 73.0663L60.4185 41.6152Z" fill="#F8FAFB"/>
<path d="M64.4301 44.345L75.3964 37.1528L45.8443 68.6988L34.8542 75.891L64.4301 44.345Z" fill="#838383"/>
<path d="M64.4301 44.345L75.3964 37.1528L45.8443 68.6988L34.8542 75.891L64.4301 44.345Z" fill="#9494CC"/>
<path d="M60.4185 41.6155L71.3848 34.4233L75.3963 37.1531L64.4299 44.3453L60.4185 41.6155Z" fill="#E2E2E2"/>
<path d="M60.4185 41.6155L71.3848 34.4233L75.3963 37.1531L64.4299 44.3453L60.4185 41.6155Z" fill="#B9B8E8"/>
<defs>
<linearGradient id="paint0_linear" x1="44.7168" y1="25" x2="56.6489" y2="56.5152" gradientUnits="userSpaceOnUse">
<stop stop-color="#9391DF"/>
<stop offset="0.333333" stop-color="#DDDDF0"/>
<stop offset="1" stop-color="#9391DF"/>
</linearGradient>
<linearGradient id="paint1_linear" x1="37.394" y1="36.1567" x2="43.6402" y2="52.4766" gradientUnits="userSpaceOnUse">
<stop stop-color="#9391DF"/>
<stop offset="0.333333" stop-color="#DDDDF0"/>
<stop offset="1" stop-color="#9391DF"/>
</linearGradient>
<linearGradient id="paint2_linear" x1="59.7065" y1="65.3525" x2="65.9527" y2="81.6724" gradientUnits="userSpaceOnUse">
<stop stop-color="#9391DF"/>
<stop offset="0.333333" stop-color="#DDDDF0"/>
<stop offset="1" stop-color="#9391DF"/>
</linearGradient>
<linearGradient id="paint3_linear" x1="67.136" y1="54.3149" x2="79.1403" y2="85.8366" gradientUnits="userSpaceOnUse">
<stop stop-color="#9391DF"/>
<stop offset="0.333333" stop-color="#DDDDF0"/>
<stop offset="1" stop-color="#9391DF"/>
</linearGradient>
</defs>
</svg>
