<svg width="108" height="108" viewBox="0 0 108 108" fill="none" xmlns="http://www.w3.org/2000/svg">
<circle cx="54" cy="54" r="54" fill="#6239DA"/>
<g filter="url(#filter0_b)">
<path d="M23 37.6782L54.3234 49.9297V86.155L23 73.9035V37.6782Z" fill="url(#paint0_linear)"/>
</g>
<g filter="url(#filter1_b)">
<path d="M54.3236 49.9297L85.6471 37.6782V73.717L54.3236 86.1461V49.9297Z" fill="url(#paint1_linear)"/>
</g>
<path d="M54.3238 85.725L23.0003 73.4735L54.3238 60.7949L85.6138 73.5133L54.3238 85.725Z" fill="url(#paint2_linear)"/>
<path d="M63.3599 62.6843C57.3475 68.6967 48.4457 69.7074 42.6414 65.3258C42.9975 65.7973 43.3845 66.2509 43.812 66.6783C49.4998 72.3661 59.3814 71.7074 65.8825 65.2069C72.383 58.7058 73.0417 48.8242 67.3533 43.1364C66.9264 42.709 66.4728 42.3219 66.0014 41.9658C70.383 47.7701 69.3723 56.6719 63.3599 62.6843Z" fill="url(#paint3_linear)"/>
<path d="M64.8314 40.6138C70.5197 46.3022 69.861 56.1832 63.3599 62.6843C56.8588 69.1854 46.9778 69.8441 41.2894 64.1558C35.6011 58.4674 36.2598 48.5864 42.7609 42.0853C49.262 35.5842 59.143 34.9255 64.8314 40.6138Z" fill="#FFE47E"/>
<path d="M51.273 64C48.6878 64 46.3299 63.0226 44.6323 61.2483C40.6911 57.1279 41.2384 49.8511 45.8526 45.0276C48.3007 42.4676 51.5353 41 54.727 41C57.3122 41 59.6701 41.9774 61.3677 43.7517C65.3089 47.8721 64.7616 55.1489 60.1474 59.9724C57.6998 62.5313 54.4652 64 51.273 64Z" fill="url(#paint4_linear)"/>
<path d="M24.4676 37.7188L54.307 49.4041M54.307 49.4041L84.3909 37.7188M54.307 49.4041V85.9019" stroke="url(#paint5_radial)" stroke-width="1.5"/>
<path d="M54.3237 49.9301L23.0002 37.6785L54.3237 25L85.6137 37.7184L54.3237 49.9301Z" fill="url(#paint6_linear)"/>
<defs>
<filter id="filter0_b" x="19" y="33.6782" width="39.3234" height="56.4768" filterUnits="userSpaceOnUse" color-interpolation-filters="sRGB">
<feFlood flood-opacity="0" result="BackgroundImageFix"/>
<feGaussianBlur in="BackgroundImage" stdDeviation="2"/>
<feComposite in2="SourceAlpha" operator="in" result="effect1_backgroundBlur"/>
<feBlend mode="normal" in="SourceGraphic" in2="effect1_backgroundBlur" result="shape"/>
</filter>
<filter id="filter1_b" x="50.3236" y="33.6782" width="39.3234" height="56.4679" filterUnits="userSpaceOnUse" color-interpolation-filters="sRGB">
<feFlood flood-opacity="0" result="BackgroundImageFix"/>
<feGaussianBlur in="BackgroundImage" stdDeviation="2"/>
<feComposite in2="SourceAlpha" operator="in" result="effect1_backgroundBlur"/>
<feBlend mode="normal" in="SourceGraphic" in2="effect1_backgroundBlur" result="shape"/>
</filter>
<linearGradient id="paint0_linear" x1="38.6617" y1="37.6782" x2="38.6617" y2="86.155" gradientUnits="userSpaceOnUse">
<stop stop-color="#B8BADE"/>
<stop offset="1" stop-color="#B8BADE" stop-opacity="0.55"/>
</linearGradient>
<linearGradient id="paint1_linear" x1="55" y1="51.5" x2="84.5" y2="74" gradientUnits="userSpaceOnUse">
<stop stop-color="#8F92CF"/>
<stop offset="1" stop-color="#8F92CF" stop-opacity="0.78"/>
</linearGradient>
<linearGradient id="paint2_linear" x1="54.3071" y1="60.7949" x2="54.3071" y2="85.725" gradientUnits="userSpaceOnUse">
<stop stop-color="#D5D6F1" stop-opacity="0.23"/>
<stop offset="1" stop-color="#D5D6F1"/>
</linearGradient>
<linearGradient id="paint3_linear" x1="61.5" y1="50" x2="61" y2="72" gradientUnits="userSpaceOnUse">
<stop stop-color="#F4BF1A"/>
<stop offset="1" stop-color="#CDA015"/>
</linearGradient>
<linearGradient id="paint4_linear" x1="53" y1="41" x2="53" y2="64" gradientUnits="userSpaceOnUse">
<stop stop-color="#F4BF1A"/>
<stop offset="1" stop-color="#E7B724"/>
</linearGradient>
<radialGradient id="paint5_radial" cx="0" cy="0" r="1" gradientUnits="userSpaceOnUse" gradientTransform="translate(54.307 49.4588) rotate(-20.8746) scale(30.8885 39.9366)">
<stop stop-color="white" stop-opacity="0.68"/>
<stop offset="1" stop-color="white" stop-opacity="0"/>
</radialGradient>
<linearGradient id="paint6_linear" x1="54.307" y1="25" x2="54.307" y2="49.9301" gradientUnits="userSpaceOnUse">
<stop stop-color="#D5D6F1"/>
<stop offset="1" stop-color="#D5D6F1" stop-opacity="0.17"/>
</linearGradient>
</defs>
</svg>
