<svg width="40" height="42" viewBox="0 0 40 42" fill="none" xmlns="http://www.w3.org/2000/svg">
<g clip-path="url(#clip0)">
<path d="M37.44 0C20.5253 0 6.61261 13.0125 5.13833 29.5493C7.94883 25.5857 11.3917 21.7718 15.6898 17.3871C16.0093 17.0577 16.5384 17.051 16.8663 17.3755C17.1941 17.6967 17.1991 18.2242 16.8779 18.552C16.2306 19.2109 15.5733 19.8949 14.9127 20.5871C14.5349 20.9815 14.1655 21.3742 13.8028 21.7602C13.7363 21.8317 13.6697 21.9034 13.6031 21.9765C8.29164 27.664 4.49436 32.6144 1.73706 38.7629C1.549 39.1822 1.73706 39.6748 2.15475 39.8628C2.26621 39.9127 2.38103 39.936 2.49584 39.936C2.81369 39.936 3.11821 39.753 3.25627 39.4452C4.23805 37.257 5.37787 35.2269 6.65918 33.2517C18.2806 32.9539 28.8586 26.4892 34.4031 16.2024C34.5412 15.9445 34.5345 15.6333 34.3848 15.3804C34.2334 15.1308 33.9621 14.976 33.6693 14.976H30.5876L36.1137 11.8177C36.2884 11.7179 36.4232 11.5565 36.4881 11.3668C37.6729 7.92231 38.2719 4.37799 38.2719 0.832027C38.2719 0.372762 37.8992 0 37.44 0Z" fill="#030C21"/>
</g>
<path fill-rule="evenodd" clip-rule="evenodd" d="M19.7531 37.2349C19.4676 37.3941 19.0777 37.6671 18.5389 38.116C16.169 40.091 14.4413 41.0726 13.0267 41.2123C12.263 41.2878 11.6122 41.1174 11.0565 40.7787C10.533 40.4595 10.1366 40.0157 9.82184 39.6242C9.66574 39.4301 9.52544 39.247 9.39367 39.0751C8.93545 38.4774 8.58027 38.014 8.02194 37.6851C7.41745 37.3289 4.72929 37.4332 2.62739 39.6242H2.42487C5.25474 36.5013 7.82133 35.1274 9.08884 35.8741C10.0393 36.434 10.7054 37.3154 11.1809 37.9446C11.2822 38.0788 11.375 38.2015 11.4599 38.3071C11.7363 38.6508 11.9475 38.8602 12.1506 38.984C12.3215 39.0882 12.5165 39.1506 12.8201 39.1206C13.5403 39.0495 14.834 38.4674 17.1933 36.5013C17.7795 36.0128 18.2825 35.6484 18.7293 35.3992C19.1742 35.151 19.6231 34.9832 20.0874 34.9626C20.954 34.9242 21.5711 35.4449 21.8849 35.7098C21.8078 35.645 22.9526 36.6487 23.1209 36.7832C23.4523 37.0481 24.1475 37.6748 24.6973 37.8341C25.0944 37.9492 25.7735 37.9492 27.6685 37.2932V37.6748C25.6224 38.3832 24.1564 38.5794 23.0317 38.4473C21.8532 38.3089 21.1563 37.8213 20.6708 37.4332C20.6019 37.3782 20.5453 37.3322 20.4971 37.2932C20.3643 37.1855 20.2966 37.1305 20.2187 37.0839C20.1978 37.0715 20.1848 37.0653 20.1783 37.0625C20.1543 37.0642 20.0305 37.0802 19.7531 37.2349Z" fill="#030C21"/>
<defs>
<clipPath id="clip0">
<rect width="39.936" height="39.936" fill="white"/>
</clipPath>
</defs>
</svg>
