<svg width="44" height="44" viewBox="0 0 44 44" fill="none" xmlns="http://www.w3.org/2000/svg">
<path d="M40.7665 8.25422C40.1764 7.66383 39.2193 7.66409 38.6291 8.25422L31.8912 14.9919C31.301 15.5821 31.301 16.5392 31.8912 17.1293C32.4814 17.7197 33.4385 17.7195 34.0287 17.1293L40.7665 10.3917C41.3567 9.80144 41.3567 8.84444 40.7665 8.25422Z" fill="#030C21"/>
<path d="M42.4886 20.4888H32.9599C32.1252 20.4888 31.4486 21.1655 31.4486 22.0002C31.4486 22.8349 32.1253 23.5115 32.9599 23.5115H42.4885C43.3232 23.5115 43.9999 22.8348 43.9999 22.0002C44 21.1654 43.3233 20.4888 42.4886 20.4888Z" fill="#030C21"/>
<path d="M40.7665 33.6088L34.0287 26.8709C33.4384 26.2808 32.4814 26.2808 31.8912 26.8709C31.301 27.4612 31.301 28.4183 31.8912 29.0084L38.6291 35.7461C39.2193 36.3364 40.1763 36.3365 40.7665 35.7461C41.3567 35.156 41.3567 34.1989 40.7665 33.6088Z" fill="#030C21"/>
<path d="M1.51138 13.9231C0.676672 13.9231 0 14.5999 0 15.4345V28.5656C0 29.4004 0.676672 30.077 1.51138 30.077H10.886V13.9231H1.51138Z" fill="#030C21"/>
<path d="M24.7577 4.37284L13.9089 12.4297V31.5709L24.7577 39.6278C25.747 40.3626 27.1703 39.663 27.1703 38.4144V5.58628C27.1703 4.3456 25.7529 3.63369 24.7577 4.37284Z" fill="#030C21"/>
</svg>
