<svg width="40" height="40" viewBox="0 0 40 40" fill="none" xmlns="http://www.w3.org/2000/svg">
<path d="M3.51562 32.9688H5.85938C6.50665 32.9688 7.03125 32.4442 7.03125 31.7969V20C7.03125 19.3527 6.50665 18.8281 5.85938 18.8281H3.51562C1.5741 18.8281 0 20.4022 0 22.3438V29.4531C0 31.3947 1.5741 32.9688 3.51562 32.9688Z" fill="black"/>
<path d="M36.4844 18.8281H34.1406C33.4933 18.8281 32.9688 19.3527 32.9688 20V34.1406C32.9688 34.7873 32.4435 35.3125 31.7969 35.3125H25.7217C25.2362 33.9514 23.9478 32.9688 22.4219 32.9688H17.6562C15.7178 32.9688 14.1406 34.5459 14.1406 36.4844C14.1406 38.4229 15.7178 40 17.6562 40H22.4219C23.9478 40 25.2362 39.0173 25.7217 37.6562H31.7969C33.7354 37.6562 35.3125 36.0791 35.3125 34.1406V32.9688H36.4844C38.4259 32.9688 40 31.3947 40 29.4531V22.3438C40 20.4022 38.4259 18.8281 36.4844 18.8281Z" fill="black"/>
<path d="M2.39716 16.5976C2.7597 16.5271 3.13263 16.4844 3.51563 16.4844H5.85938C6.28967 16.4844 6.69739 16.5729 7.07886 16.7151C7.56256 10.0369 13.1982 4.6875 20 4.6875C26.8018 4.6875 32.4374 10.0369 32.9211 16.7151C33.3026 16.5729 33.7103 16.4844 34.1406 16.4844H36.4844C36.8674 16.4844 37.2403 16.5271 37.6028 16.5976C37.0526 7.38525 29.3506 0 20 0C10.6494 0 2.94739 7.38525 2.39716 16.5976Z" fill="black"/>
</svg>
