<svg width="45" height="46" viewBox="0 0 45 46" fill="none" xmlns="http://www.w3.org/2000/svg">
<circle cx="20.5" cy="20.5" r="20.5" fill="#030C21"/>
<path d="M39.7838 40.2244L27.9139 37.7532L35.9889 28.7092L39.7838 40.2244Z" fill="#030C21"/>
<g clip-path="url(#clip0)">
<path d="M31.5039 12.7073C31.5035 12.6986 31.5025 12.6899 31.5011 12.6812C31.4673 12.633 31.4258 12.5915 31.3911 12.5443C31.139 12.2009 30.8721 11.8704 30.5905 11.5527C30.5134 11.4659 30.4362 11.38 30.3571 11.2951C30.0671 10.9846 29.7629 10.6884 29.4446 10.4068C29.3858 10.3547 29.3308 10.3007 29.272 10.2496C28.4875 9.5775 27.6286 8.99752 26.712 8.52108C26.6753 8.50181 26.6368 8.48542 26.5991 8.46609C26.191 8.25867 25.7725 8.07222 25.3452 7.90759C25.2487 7.87289 25.1609 7.84005 25.0693 7.81111C24.6893 7.67417 24.3035 7.55424 23.9119 7.45132C23.7961 7.42047 23.6804 7.38865 23.5627 7.36163C23.1769 7.27194 22.7911 7.20344 22.3965 7.14749C22.2769 7.13014 22.1593 7.10696 22.0387 7.0925C21.0225 6.96901 19.9952 6.96901 18.979 7.0925C18.8585 7.10696 18.7408 7.13014 18.6212 7.14749C18.2267 7.20344 17.837 7.27194 17.455 7.36163C17.3373 7.38865 17.2216 7.42047 17.1058 7.45132C16.7116 7.55419 16.3258 7.67411 15.9484 7.81111C15.8519 7.84389 15.7641 7.87673 15.6725 7.90759C15.2453 8.07222 14.8267 8.25862 14.4185 8.46609C14.3809 8.48536 14.3424 8.50175 14.3057 8.52108C13.3861 8.99701 12.5243 9.57694 11.737 10.2496C11.6782 10.3006 11.6232 10.3547 11.5644 10.4068C11.2428 10.6897 10.9387 10.9859 10.6519 11.2951C10.5728 11.38 10.4956 11.4659 10.4185 11.5527C10.1362 11.8697 9.8693 12.2002 9.61791 12.5442C9.58321 12.5915 9.54172 12.6329 9.50792 12.6812C9.50352 12.6896 9.49962 12.6983 9.49634 12.7072C6.16939 17.3697 6.16939 23.6301 9.49634 28.2926C9.49962 28.3015 9.50346 28.3102 9.50792 28.3186C9.54167 28.3668 9.58315 28.4083 9.61791 28.4556C9.86935 28.799 10.1362 29.1295 10.4185 29.4472C10.4956 29.534 10.5728 29.6198 10.6519 29.7047C10.9426 30.0153 11.2467 30.3114 11.5644 30.5931C11.6232 30.6452 11.6782 30.6991 11.737 30.7503C12.5215 31.4223 13.3804 32.0023 14.297 32.4788C14.3337 32.498 14.3722 32.5144 14.4098 32.5337C14.818 32.7412 15.2365 32.9276 15.6638 33.0923C15.7603 33.127 15.848 33.1598 15.9396 33.1887C16.3197 33.3257 16.7055 33.4456 17.0971 33.5485C17.2129 33.5794 17.3286 33.6112 17.4463 33.6382C17.8321 33.7279 18.2179 33.7964 18.6125 33.8524C18.7321 33.8697 18.8497 33.8929 18.9703 33.9073C19.9865 34.0308 21.0138 34.0308 22.03 33.9073C22.1505 33.8929 22.2682 33.8697 22.3878 33.8524C22.7823 33.7964 23.172 33.7279 23.554 33.6382C23.6717 33.6112 23.7874 33.5794 23.9032 33.5485C24.298 33.4457 24.6838 33.3257 25.0606 33.1887C25.1571 33.1559 25.2449 33.1231 25.3365 33.0923C25.7637 32.9276 26.1823 32.7412 26.5904 32.5337C26.6281 32.5145 26.6666 32.4981 26.7033 32.4788C27.6198 32.0023 28.4788 31.4223 29.2633 30.7503C29.3221 30.6991 29.3771 30.6452 29.4359 30.5931C29.7574 30.3108 30.0616 30.0147 30.3484 29.7047C30.4275 29.6198 30.5047 29.534 30.5818 29.4472C30.8641 29.1295 31.131 28.799 31.3824 28.4556C31.4171 28.4083 31.4586 28.3668 31.4924 28.3186C31.4968 28.3102 31.5007 28.3015 31.5039 28.2926C34.8309 23.6302 34.8309 17.3698 31.5039 12.7073ZM30.4034 14.5323C31.3259 16.0515 31.8829 17.7642 32.0306 19.5355H26.2529C26.1821 18.3861 26.0012 17.2463 25.7127 16.1315C27.3448 15.8259 28.9245 15.2873 30.4034 14.5323ZM22.9589 9.19143C23.0129 9.20398 23.0649 9.22133 23.119 9.23388C23.4643 9.31492 23.8067 9.4075 24.1414 9.52325C24.1926 9.5406 24.2427 9.56089 24.2929 9.5792C24.6247 9.69495 24.9517 9.82324 25.272 9.96504C25.3279 9.9911 25.3829 10.02 25.4388 10.0461C25.7456 10.1921 26.0452 10.3499 26.3378 10.5197L26.5307 10.6364C26.8085 10.8062 27.0786 10.9878 27.3409 11.1814C27.4085 11.2306 27.476 11.2779 27.5425 11.3319C27.7997 11.5248 28.046 11.7315 28.2814 11.9521C28.3431 12.008 28.4068 12.063 28.4676 12.1209C28.7145 12.3553 28.9498 12.6032 29.1775 12.8597C29.2064 12.8935 29.2373 12.9243 29.2662 12.9562C27.9601 13.5786 26.5765 14.0231 25.1524 14.2777C24.4926 12.4639 23.621 10.7344 22.5558 9.12497C22.6897 9.14905 22.8267 9.16255 22.9589 9.19143ZM16.6815 19.5354C16.7576 18.4917 16.9353 17.458 17.212 16.4488C18.3049 16.5786 19.4045 16.643 20.5051 16.6417C21.6066 16.6414 22.7073 16.5754 23.801 16.444C24.0772 17.4548 24.254 18.4902 24.3286 19.5354H16.6815ZM24.3286 21.4646C24.2525 22.5082 24.0748 23.542 23.798 24.5511C22.7052 24.4213 21.6056 24.3569 20.505 24.3582C19.4035 24.357 18.3029 24.4214 17.2091 24.5511C16.9331 23.5419 16.7564 22.5082 16.6814 21.4646H24.3286ZM20.505 9.55416C21.6027 11.1099 22.5055 12.7944 23.1932 14.5699C22.3003 14.6647 21.403 14.7124 20.505 14.7127C19.608 14.7116 18.7117 14.6637 17.8196 14.5689C18.5082 12.7946 19.41 11.1107 20.505 9.55416ZM11.8336 12.8587C12.0603 12.6021 12.2966 12.3543 12.5435 12.1199C12.6043 12.062 12.668 12.007 12.7297 11.9511C12.9676 11.7344 13.2139 11.5276 13.4685 11.3308C13.5351 11.2797 13.6026 11.2344 13.6701 11.1804C13.9325 10.9875 14.2026 10.8058 14.4804 10.6354L14.6733 10.5187C14.9659 10.3477 15.2655 10.1898 15.5722 10.0451C15.6282 10.019 15.6832 9.99008 15.7391 9.96403C16.0594 9.81934 16.3864 9.69105 16.7182 9.57818C16.7683 9.55987 16.8146 9.53958 16.8696 9.52223C17.2043 9.41033 17.5448 9.31775 17.892 9.23286C17.9461 9.22031 17.9981 9.20296 18.0531 9.19138C18.1852 9.16244 18.3222 9.14893 18.4563 9.1248C17.3906 10.7345 16.5188 12.4644 15.8587 14.2784C14.4345 14.0239 13.0509 13.5794 11.7449 12.957C11.7738 12.9233 11.8047 12.8925 11.8336 12.8587ZM10.6067 14.5323C12.0852 15.2872 13.6646 15.8258 15.2964 16.1315C15.0082 17.2463 14.8276 18.3862 14.7572 19.5355H8.97949C9.12722 17.7642 9.68426 16.0515 10.6067 14.5323ZM10.6067 26.4677C9.6842 24.9485 9.12717 23.2358 8.97949 21.4646H14.7572C14.828 22.6139 15.0088 23.7537 15.2973 24.8685C13.6653 25.1741 12.0856 25.7127 10.6067 26.4677ZM18.0512 31.8085C17.9972 31.796 17.9451 31.7786 17.8911 31.7661C17.5458 31.685 17.2033 31.5925 16.8686 31.4767C16.8175 31.4594 16.7673 31.4391 16.7172 31.4208C16.3853 31.305 16.0584 31.1767 15.7381 31.0349C15.6822 31.0089 15.6272 30.9799 15.5712 30.9539C15.2645 30.8079 14.9648 30.65 14.6722 30.4802L14.4794 30.3635C14.2016 30.1938 13.9315 30.0121 13.6691 29.8185C13.6016 29.7694 13.5341 29.7221 13.4675 29.6681C13.2103 29.4752 12.964 29.2685 12.7287 29.0479C12.667 28.9919 12.6033 28.9369 12.5425 28.8791C12.2956 28.6447 12.0602 28.3968 11.8326 28.1402C11.8037 28.1065 11.7728 28.0756 11.7439 28.0437C13.0499 27.4213 14.4335 26.9769 15.8577 26.7223C16.5175 28.5361 17.389 30.2656 18.4543 31.875C18.3203 31.851 18.1833 31.8375 18.0512 31.8085ZM20.505 31.4458C19.4073 29.8901 18.5045 28.2056 17.8168 26.4301C19.6031 26.2378 21.4049 26.2378 23.1913 26.4301L23.1903 26.4311C22.5018 28.2053 21.6001 29.8892 20.505 31.4458ZM29.1764 28.1412C28.9498 28.3978 28.7135 28.6457 28.4665 28.8801C28.4058 28.938 28.3421 28.9929 28.2804 29.0489C28.0424 29.2663 27.7961 29.473 27.5415 29.6691C27.4749 29.7202 27.4075 29.7704 27.3399 29.8196C27.0776 30.0125 26.8075 30.1942 26.5297 30.3646L26.3368 30.4813C26.0448 30.6517 25.7452 30.8095 25.4378 30.9549C25.3819 30.9809 25.3269 31.0099 25.2709 31.0359C24.9507 31.1806 24.6237 31.3089 24.2919 31.4218C24.2418 31.4401 24.1954 31.4604 24.1405 31.4777C23.8058 31.5896 23.4653 31.6822 23.118 31.7671C23.064 31.7796 23.0119 31.797 22.9569 31.8086C22.8248 31.8375 22.6878 31.851 22.5538 31.8752C23.619 30.2658 24.4906 28.5362 25.1503 26.7225C26.5745 26.977 27.9582 27.4215 29.2642 28.0439C29.2362 28.0766 29.2054 28.1075 29.1764 28.1412ZM30.4034 26.4677C28.9248 25.7128 27.3455 25.1742 25.7137 24.8685C26.0019 23.7537 26.1824 22.6138 26.2529 21.4646H32.0306C31.8828 23.2358 31.3258 24.9485 30.4034 26.4677Z" fill="white"/>
</g>
<defs>
<clipPath id="clip0">
<rect width="27" height="27" fill="white" transform="translate(7 7)"/>
</clipPath>
</defs>
</svg>
