<svg width="1010" height="1106" viewBox="0 0 1010 1106" fill="none" xmlns="http://www.w3.org/2000/svg">
<path fill-rule="evenodd" clip-rule="evenodd" d="M185 660L75.0936 694.978C70.1309 696.557 69.5256 703.335 74.1297 705.769L482.931 921.879C491.69 926.51 501.944 927.426 511.385 924.421L935.369 789.489C940.331 787.909 940.937 781.132 936.333 778.698L826 720.371V724.168L934.764 781.665C936.737 782.708 936.477 785.613 934.351 786.29L510.367 921.223C501.784 923.954 492.463 923.122 484.5 918.912L75.6985 702.801C73.7252 701.758 73.9847 698.853 76.1116 698.176L185 663.523V660Z" fill="white"/>
<path fill-rule="evenodd" clip-rule="evenodd" d="M185 660L75.0936 694.978C70.1309 696.557 69.5256 703.335 74.1297 705.769L482.931 921.879C491.69 926.51 501.944 927.426 511.385 924.421L935.369 789.489C940.331 787.909 940.937 781.132 936.333 778.698L826 720.371V724.168L934.764 781.665C936.737 782.708 936.477 785.613 934.351 786.29L510.367 921.223C501.784 923.954 492.463 923.122 484.5 918.912L75.6985 702.801C73.7252 701.758 73.9847 698.853 76.1116 698.176L185 663.523V660Z" fill="url(#paint0_linear)" fill-opacity="0.85"/>
<defs>
<linearGradient id="paint0_linear" x1="102.633" y1="799.028" x2="940.612" y2="918.07" gradientUnits="userSpaceOnUse">
<stop stop-color="#F23563"/>
<stop offset="0.334138" stop-color="#6956D9"/>
<stop offset="0.622896" stop-color="#3F2ED0"/>
<stop offset="1" stop-color="#8817BE"/>
</linearGradient>
</defs>
</svg>
