<svg width="1010" height="1106" viewBox="0 0 1010 1106" fill="none" xmlns="http://www.w3.org/2000/svg">
<path d="M821.658 145.935L517.497 48.8184L517.001 805.998L821.162 903.115L821.658 145.935Z" fill="url(#paint0_linear)"/>
<path d="M702.056 878.908L820.917 917L821.164 574.011L518.159 86.3418L517.829 582.357L702.056 878.908Z" fill="url(#paint1_linear)" fill-opacity="0.3"/>
<path d="M521.961 47L826.287 141.554L825.709 900.305L821.166 898.854L821.659 145.934L517.498 48.8177L517.489 62.2038L517.415 48.6531L521.961 47Z" fill="url(#paint2_linear)"/>
<path d="M189.629 241.935L493.79 144.818L494.286 901.998L190.125 999.115L189.629 241.935Z" fill="url(#paint3_linear)"/>
<path d="M309.231 974.908L190.37 1013L190.123 670.011L493.128 182.342L493.458 678.357L309.231 974.908Z" fill="url(#paint4_linear)" fill-opacity="0.3"/>
<path d="M489.327 143L185 237.554L185.579 996.305L190.121 994.854L189.628 241.934L493.789 144.818L493.798 158.204L493.872 144.653L489.327 143Z" fill="url(#paint5_linear)"/>
<defs>
<linearGradient id="paint0_linear" x1="751.321" y1="358.683" x2="517.001" y2="698.385" gradientUnits="userSpaceOnUse">
<stop stop-color="#1F217A" stop-opacity="0.27"/>
<stop offset="1" stop-color="#140210" stop-opacity="0"/>
</linearGradient>
<linearGradient id="paint1_linear" x1="675.123" y1="497.38" x2="751.428" y2="439.235" gradientUnits="userSpaceOnUse">
<stop stop-color="#1C1D4F" stop-opacity="0"/>
<stop offset="1" stop-color="#5152A3"/>
</linearGradient>
<linearGradient id="paint2_linear" x1="662.558" y1="196.177" x2="687.767" y2="809.459" gradientUnits="userSpaceOnUse">
<stop stop-color="#23256A"/>
<stop offset="1" stop-color="#522F5B" stop-opacity="0"/>
</linearGradient>
<linearGradient id="paint3_linear" x1="259.966" y1="454.683" x2="494.286" y2="794.385" gradientUnits="userSpaceOnUse">
<stop stop-color="#1F217A" stop-opacity="0.27"/>
<stop offset="1" stop-color="#140210" stop-opacity="0"/>
</linearGradient>
<linearGradient id="paint4_linear" x1="336.164" y1="593.38" x2="259.859" y2="535.235" gradientUnits="userSpaceOnUse">
<stop stop-color="#1C1D4F" stop-opacity="0"/>
<stop offset="1" stop-color="#5152A3"/>
</linearGradient>
<linearGradient id="paint5_linear" x1="348.729" y1="292.177" x2="323.52" y2="905.459" gradientUnits="userSpaceOnUse">
<stop stop-color="#23256A"/>
<stop offset="1" stop-color="#522F5B" stop-opacity="0"/>
</linearGradient>
</defs>
</svg>
