<svg width="71" height="71" viewBox="0 0 71 71" fill="none" xmlns="http://www.w3.org/2000/svg">
<path fill-rule="evenodd" clip-rule="evenodd" d="M7 19.116L35.0294 3L63 19.116V51.3479L35 67.4639L7 51.3479V19.116ZM35 63.6616L59.68 49.4468V21.0171L35 6.80232L10.32 21.0171V49.4468L35 63.6616ZM26.8615 55.4719L30.1815 57.6071V36.9283H42.3158V32.8042H30.1815V17.0977L35.1175 14.3776L43.3735 19.3206L45.4008 16.2203L35.1175 10.2243L26.8615 15.0796V55.4719ZM16.2844 22.4211L20.2802 35.9925V19.4085L23.894 17.3026V53.8926L21.3379 52.4302L16.1669 32.8921V49.4468L13.2288 47.7504L13.2582 24.176L16.2844 22.4211ZM49.573 52.6349L49.5436 23.0061L45.1071 20.1982L46.9287 17.3026L57.9172 24.2345V28.3001L53.2162 25.0827V50.529L49.573 52.6349Z" fill="white"/>
</svg>
