<svg width="56" height="65" viewBox="0 0 56 65" fill="none" xmlns="http://www.w3.org/2000/svg">
<path fill-rule="evenodd" clip-rule="evenodd" d="M0 16.116L28.0294 0L56 16.116V48.3479L28 64.4639L0 48.3479V16.116ZM28 60.6616L52.68 46.4468V18.0171L28 3.80232L3.32004 18.0171V46.4468L28 60.6616ZM19.8615 52.4719L23.1815 54.6071V33.9283H35.3158V29.8042H23.1815V14.0977L28.1175 11.3776L36.3735 16.3206L38.4008 13.2203L28.1175 7.22432L19.8615 12.0796V52.4719ZM9.2844 19.4211L13.2802 32.9925V16.4085L16.894 14.3026V50.8926L14.3379 49.4302L9.16687 29.8921V46.4468L6.22878 44.7504L6.25816 21.176L9.2844 19.4211ZM42.573 49.6349L42.5436 20.0061L38.1071 17.1982L39.9287 14.3026L50.9172 21.2345V25.3001L46.2162 22.0827V47.529L42.573 49.6349Z" fill="white"/>
</svg>
