<svg width="48" height="65" viewBox="0 0 48 65" fill="none" xmlns="http://www.w3.org/2000/svg">
<path d="M24.3219 0C10.9118 0.0545346 0.0538663 11.0471 0 24.6237C0 27.3426 0.433495 30.0433 1.28253 32.6221C1.9161 34.3775 3.79629 35.3228 5.56105 34.7801C7.26682 34.1179 8.17229 32.2299 7.62849 30.464C6.90771 28.4541 6.58708 26.322 6.68198 24.1874C6.9744 14.3815 15.062 6.67139 24.7477 6.96744C34.4334 7.26348 42.049 15.4515 41.7566 25.2573C41.4822 34.4373 34.341 41.8929 25.2838 42.4513C25.2838 42.4513 21.8697 42.6616 20.1716 42.872C19.5458 42.9628 18.925 43.0875 18.312 43.2459C18.2248 43.3368 18.0837 43.3368 17.9939 43.2485L17.9913 43.2459C17.9298 43.1654 17.9298 43.0511 17.9913 42.9706L18.5197 40.0517L21.7261 25.4521C22.1108 23.629 20.9642 21.8346 19.1636 21.4451C17.3629 21.0555 15.5904 22.2163 15.2057 24.0394C15.2057 24.0394 7.57976 59.7751 7.57976 60.0997C7.1437 61.837 8.17998 63.6029 9.89601 64.0443C9.91396 64.0495 9.93448 64.0547 9.95244 64.0573H10.1294C11.8429 64.5066 13.5923 63.4626 14.0335 61.7279C14.0411 61.6994 14.0488 61.6708 14.054 61.6396C14.0488 61.5851 14.0488 61.5306 14.054 61.4786C14.1489 61.0579 15.1108 56.303 15.1108 56.303C15.8393 52.7141 18.6967 49.964 22.2724 49.4083C23.0086 49.294 26.1021 49.0837 26.1021 49.0837C39.4609 47.7359 49.2107 35.6786 47.8769 22.154C46.661 9.81882 36.5675 0.322014 24.3219 0Z" fill="white"/>
<path d="M25.7968 56.776C23.6037 56.3137 21.4593 57.7394 21.0027 59.9572C20.9976 59.9779 20.995 59.9987 20.9899 60.0195C20.5154 62.2242 21.8954 64.403 24.0757 64.8835C24.0782 64.8835 24.0808 64.8835 24.0834 64.8861H24.1962C26.3304 65.408 28.4773 64.0784 28.9904 61.9204C28.9955 61.9048 28.998 61.8867 29.0032 61.8711V61.6451C29.3802 59.417 27.9746 57.2798 25.7968 56.776Z" fill="#E6007A"/>
</svg>
