<svg width="667" height="573" viewBox="0 0 667 573" fill="none" xmlns="http://www.w3.org/2000/svg">
<path d="M11 135L335 0L659 135V406L338.5 533.5L11 406V135Z" fill="url(#paint0_linear)"/>
<path d="M345.156 313.706C337.662 310.775 329.338 310.775 321.844 313.706L14.7707 433.811C11.4014 435.129 11.3734 439.887 14.7269 441.244L321.494 565.412C329.194 568.529 337.806 568.529 345.506 565.412L652.273 441.244C655.627 439.887 655.599 435.129 652.229 433.811L345.156 313.706Z" stroke="white" stroke-width="4"/>
<path d="M345.156 313.706C337.662 310.775 329.338 310.775 321.844 313.706L14.7707 433.811C11.4014 435.129 11.3734 439.887 14.7269 441.244L321.494 565.412C329.194 568.529 337.806 568.529 345.506 565.412L652.273 441.244C655.627 439.887 655.599 435.129 652.229 433.811L345.156 313.706Z" stroke="url(#paint1_linear)" stroke-opacity="0.85" stroke-width="4"/>
<path d="M345.156 287.706C337.662 284.775 329.338 284.775 321.844 287.706L14.7707 407.811C11.4014 409.129 11.3734 413.887 14.7269 415.244L321.494 539.412C329.194 542.529 337.806 542.529 345.506 539.412L652.273 415.244C655.627 413.887 655.599 409.129 652.229 407.811L345.156 287.706Z" stroke="white" stroke-width="4"/>
<path d="M345.156 287.706C337.662 284.775 329.338 284.775 321.844 287.706L14.7707 407.811C11.4014 409.129 11.3734 413.887 14.7269 415.244L321.494 539.412C329.194 542.529 337.806 542.529 345.506 539.412L652.273 415.244C655.627 413.887 655.599 409.129 652.229 407.811L345.156 287.706Z" stroke="url(#paint2_linear)" stroke-opacity="0.85" stroke-width="4"/>
<path d="M321.115 281.844C329.078 278.729 337.922 278.729 345.885 281.844L652.958 401.949C658.012 403.926 658.054 411.062 653.023 413.098L346.257 537.266C338.075 540.578 328.925 540.578 320.743 537.266L13.9765 413.098C8.94629 411.062 8.98829 403.926 14.0422 401.949L321.115 281.844Z" fill="url(#paint3_linear)"/>
<mask id="mask0" mask-type="alpha" maskUnits="userSpaceOnUse" x="10" y="280" width="647" height="261">
<path d="M321.115 282.844C329.078 279.729 337.922 279.729 345.885 282.844L652.958 402.949C658.012 404.926 658.054 412.062 653.023 414.098L346.257 538.266C338.075 541.578 328.925 541.578 320.743 538.266L13.9765 414.098C8.94629 412.062 8.98829 404.926 14.0422 402.949L321.115 282.844Z" fill="url(#paint4_linear)"/>
</mask>
<g mask="url(#mask0)">
<g opacity="0.1" filter="url(#filter0_f)">
<g filter="url(#filter1_b)">
<path d="M496.171 407.016L553.034 429.257V495.019L496.171 472.778V407.016Z" fill="#E54276"/>
</g>
<path d="M609.897 406.241V407.016L553.034 429.257L496.171 407.016V406.241L553.034 384L609.897 406.241Z" fill="#F56190"/>
<g filter="url(#filter2_b)">
<path d="M553.033 429.257L609.897 407.016V472.439L553.033 494.68V429.257Z" fill="#BA2F5B"/>
</g>
<g filter="url(#filter3_b)">
<path d="M55 408.881L114 431.957V500.19L55 477.113V408.881Z" fill="#E54276"/>
</g>
<path d="M173 408.077V408.881L114.001 431.958L55.001 408.881V408.077L114.001 385L173 408.077Z" fill="#F56190"/>
<g filter="url(#filter4_b)">
<path d="M114 431.957L172.999 408.881V476.762L114 499.838V431.957Z" fill="#BA2F5B"/>
</g>
<path d="M345.204 336.247L342.424 356.288L332.925 354.55L335.705 334.51L345.204 336.247Z" fill="#B4B4B4"/>
<path d="M345.204 336.247L342.424 356.288L332.925 354.55L335.705 334.51L345.204 336.247Z" fill="url(#paint5_linear)"/>
<path d="M346.247 342.385L343.467 362.426L321.804 358.603L324.585 338.562L346.247 342.385Z" fill="#B4B4B4"/>
<path d="M346.247 342.385L343.467 362.426L321.804 358.603L324.585 338.562L346.247 342.385Z" fill="url(#paint6_linear)"/>
<path d="M347.289 348.642L344.509 368.567L310.684 362.543L313.464 342.503L347.289 348.642Z" fill="#B4B4B4"/>
<path d="M347.289 348.642L344.509 368.567L310.684 362.543L313.464 342.503L347.289 348.642Z" fill="url(#paint7_linear)"/>
<g opacity="0.4784">
<path opacity="0.4784" d="M306.281 345.977L303.501 366.017C303.501 365.901 303.501 365.786 303.501 365.786L306.281 345.745C306.281 345.861 306.281 345.861 306.281 345.977Z" fill="#858585"/>
</g>
<path d="M306.513 347.253L303.733 367.294L303.501 366.019L306.281 345.979L306.513 347.253Z" fill="#6F4EB3"/>
<path d="M348.333 354.782L345.437 374.822L303.734 367.292L306.515 347.252L348.333 354.782Z" fill="#B4B4B4"/>
<path d="M348.333 354.782L345.437 374.822L303.734 367.292L306.515 347.252L348.333 354.782Z" fill="url(#paint8_linear)"/>
<path d="M307.557 353.507L304.776 373.432L304.197 369.957L306.977 350.032L307.557 353.507Z" fill="#6F4EB3"/>
<path d="M349.259 360.92L346.478 380.96L304.776 373.43L307.556 353.506L349.259 360.92Z" fill="#B4B4B4"/>
<path d="M349.259 360.92L346.478 380.96L304.776 373.43L307.556 353.506L349.259 360.92Z" fill="url(#paint9_linear)"/>
<path d="M308.598 359.648L305.817 379.688L305.238 376.097L308.018 356.173L308.598 359.648Z" fill="#6F4EB3"/>
<path d="M350.302 367.06L347.521 387.101L305.819 379.687L308.599 359.646L350.302 367.06Z" fill="#B4B4B4"/>
<path d="M350.302 367.06L347.521 387.101L305.819 379.687L308.599 359.646L350.302 367.06Z" fill="url(#paint10_linear)"/>
<path d="M309.643 365.789L306.863 385.83L306.283 382.354L309.064 362.314L309.643 365.789Z" fill="#6F4EB3"/>
<path d="M351.343 373.316L348.563 393.24L306.86 385.827L309.641 365.786L351.343 373.316Z" fill="#B4B4B4"/>
<path d="M351.343 373.316L348.563 393.24L306.86 385.827L309.641 365.786L351.343 373.316Z" fill="url(#paint11_linear)"/>
<path d="M310.685 371.927L307.904 391.968L307.325 388.493L310.105 368.452L310.685 371.927Z" fill="#6F4EB3"/>
<path d="M352.387 379.456L349.607 399.497L307.905 391.967L310.685 371.927L352.387 379.456Z" fill="#B4B4B4"/>
<path d="M352.387 379.456L349.607 399.497L307.905 391.967L310.685 371.927L352.387 379.456Z" fill="url(#paint12_linear)"/>
<path d="M311.727 378.181L308.946 398.106L308.367 394.631L311.147 374.706L311.727 378.181Z" fill="#6F4EB3"/>
<path opacity="0.4784" d="M312.536 383.51L309.756 403.435L309.408 400.77L312.188 380.846L312.536 383.51Z" fill="#808080"/>
<path d="M447.837 401.118C447.837 401.118 447.837 401.234 447.837 401.118C447.721 401.234 447.721 401.35 447.605 401.35C447.489 401.466 447.489 401.466 447.374 401.581C447.374 401.581 447.374 401.581 447.258 401.581C447.142 401.697 447.026 401.697 446.794 401.813L445.868 402.161L311.725 378.182L308.944 398.222L443.203 422.201L444.13 421.853C444.246 421.853 444.362 421.738 444.478 421.738C444.478 421.738 444.478 421.738 444.593 421.738C444.593 421.738 444.593 421.738 444.709 421.738C444.709 421.738 444.825 421.738 444.825 421.622C444.941 421.622 444.941 421.506 444.941 421.506L445.057 421.39L445.173 421.274V421.158V421.043L447.953 401.002C447.837 401.002 447.837 401.118 447.837 401.118Z" fill="url(#paint13_linear)"/>
<path opacity="0.4784" d="M331.419 386.871L328.639 406.911L309.757 403.436L312.537 383.512L331.419 386.871Z" fill="#B4B4B4"/>
<g opacity="0.4784">
<path opacity="0.4784" d="M335.47 388.376L332.69 408.416C332.574 408.416 332.458 408.3 332.458 408.3L335.239 388.26C335.239 388.26 335.355 388.376 335.47 388.376Z" fill="#858585"/>
<path opacity="0.4784" d="M335.124 388.259L332.343 408.299C332.112 408.183 331.88 408.067 331.648 407.952L334.429 387.911C334.66 387.911 334.892 388.027 335.124 388.259Z" fill="#8A8A8A"/>
<path opacity="0.4784" d="M334.429 387.795L331.649 407.836C331.417 407.72 331.185 407.604 331.069 407.604L333.85 387.563C334.081 387.679 334.197 387.795 334.429 387.795Z" fill="#8F8F8F"/>
<path opacity="0.4784" d="M333.85 387.565L331.069 407.605C330.838 407.489 330.722 407.489 330.49 407.373L333.27 387.333C333.386 387.449 333.618 387.449 333.85 387.565Z" fill="#949494"/>
<path opacity="0.4784" d="M333.271 387.334L330.49 407.375C330.259 407.259 330.143 407.259 329.911 407.143L332.691 387.103C332.807 387.218 333.039 387.334 333.271 387.334Z" fill="#999999"/>
<path opacity="0.4784" d="M332.692 387.217L329.912 407.142C329.681 407.142 329.565 407.026 329.333 407.026L332.113 386.985C332.229 387.101 332.461 387.101 332.692 387.217Z" fill="#9E9E9E"/>
<path opacity="0.4784" d="M331.998 386.985L329.217 407.025C328.986 407.025 328.87 406.91 328.638 406.91L331.418 386.869C331.65 386.985 331.882 386.985 331.998 386.985Z" fill="#A3A3A3"/>
</g>
<path d="M434.863 406.215L335.472 388.375L332.576 408.416L432.083 426.139L438.338 423.938L441.119 403.898L434.863 406.215Z" fill="url(#paint14_linear)"/>
<path opacity="0.4784" d="M337.79 394.747L335.009 414.787L334.43 411.312L337.21 391.271L337.79 394.747Z" fill="#808080"/>
<path d="M423.744 410.153L337.79 394.746L335.01 414.786L420.964 430.193L427.219 427.876L429.999 407.952L423.744 410.153Z" fill="url(#paint15_linear)"/>
<path opacity="0.4784" d="M338.717 400.191L335.937 420.116L335.474 417.451L338.254 397.527L338.717 400.191Z" fill="#808080"/>
<path d="M414.638 413.744C414.407 413.86 414.175 413.86 413.943 413.86C413.828 413.86 413.828 413.86 413.712 413.86C413.596 413.86 413.364 413.86 413.132 413.86C412.901 413.86 412.785 413.86 412.553 413.86C412.322 413.86 412.09 413.86 411.742 413.744L338.415 400.539L335.635 420.579L408.962 433.901C409.078 433.901 409.194 433.901 409.31 433.901C409.426 433.901 409.541 433.901 409.657 433.901C409.773 433.901 409.889 433.901 410.121 433.901H410.236C410.468 433.901 410.584 433.901 410.816 433.901C410.931 433.901 410.931 433.901 411.047 433.901C411.279 433.901 411.511 433.785 411.742 433.785L415.797 432.395L418.577 412.354L414.638 413.744Z" fill="url(#paint16_linear)"/>
<path fill-rule="evenodd" clip-rule="evenodd" d="M344.972 334.858C344.74 333.468 341.381 332.541 339.296 333.236L335.705 334.511L345.204 336.248L344.972 334.858ZM345.666 338.911L330.839 336.246L324.583 338.563L346.246 342.386L345.666 338.911ZM319.717 340.301L346.708 345.167L347.287 348.642L313.462 342.502L319.717 340.301ZM347.635 351.192L308.597 344.241L307.323 344.589C306.628 344.936 306.164 345.4 306.28 345.863L306.512 347.137L348.214 354.667L347.635 351.192ZM306.976 350.033L348.679 357.446L349.258 360.922L307.555 353.508L306.976 350.033ZM349.72 363.587L308.018 356.174L308.597 359.649L350.299 367.063L349.72 363.587ZM309.062 362.311L350.764 369.841L351.343 373.316L309.641 365.786L309.062 362.311ZM351.805 375.982L310.103 368.452L310.682 371.928L352.384 379.457L351.805 375.982ZM311.146 374.706L386.327 388.144L445.173 398.801C447.954 399.264 448.996 401.118 446.911 401.813L445.984 402.16L311.725 378.181L311.146 374.706ZM441.118 404.015L312.188 380.846L312.651 383.511L331.533 386.986C333.039 387.334 334.429 387.797 335.471 388.492L434.862 406.331L441.118 404.015ZM337.21 391.272L429.998 407.953L423.743 410.154L337.789 394.748L337.21 391.272ZM418.879 412.008L338.254 397.528L338.717 400.192L412.044 413.514C413.087 413.746 414.013 413.63 414.824 413.398L418.879 412.008Z" fill="url(#paint17_linear)"/>
<path d="M344.857 437.378C344.857 437.609 344.741 437.725 344.625 437.957C344.509 438.188 344.393 438.304 344.277 438.42C344.162 438.536 343.93 438.652 343.698 438.884C343.698 438.884 343.582 438.884 343.582 438.999C343.351 439.115 343.119 439.231 342.772 439.347L312.074 450.352C311.842 450.468 311.61 450.468 311.379 450.468C311.379 450.468 311.379 450.468 311.263 450.468C311.031 450.468 310.8 450.468 310.568 450.468H310.452C310.336 450.468 310.22 450.468 310.22 450.468C310.105 450.468 310.105 450.468 309.989 450.468H309.873C309.757 450.468 309.641 450.468 309.641 450.468H309.525C309.409 450.468 309.294 450.468 309.178 450.352C309.062 450.352 308.946 450.236 308.83 450.236H308.714C308.599 450.236 308.483 450.12 308.483 450.12H308.367C308.251 450.12 308.135 450.004 308.135 450.004H308.019C307.904 450.004 307.904 449.888 307.904 449.888C307.788 449.888 307.788 449.773 307.672 449.773C307.672 449.773 307.672 449.773 307.556 449.773C307.44 449.657 307.324 449.657 307.324 449.541C307.324 449.541 307.209 449.541 307.209 449.425C307.093 449.425 307.093 449.309 306.977 449.309L306.861 449.193C306.861 449.077 306.745 449.077 306.745 448.962V448.846C306.745 448.73 306.629 448.614 306.629 448.498L299.216 404.016C299.216 403.784 299.1 403.668 298.984 403.436C298.984 403.321 298.868 403.321 298.868 403.205C298.752 403.089 298.752 402.973 298.636 402.857C298.52 402.741 298.521 402.741 298.405 402.625C298.289 402.51 298.173 402.394 298.057 402.278C297.941 402.162 297.825 402.162 297.71 402.046C297.594 401.93 297.478 401.815 297.246 401.699C297.246 401.699 297.246 401.699 297.13 401.583C297.015 401.467 296.783 401.467 296.667 401.351C296.551 401.351 296.551 401.235 296.435 401.235C296.088 401.467 295.856 401.351 295.624 401.351C295.624 401.351 295.509 401.351 295.509 401.235C295.509 401.235 295.393 401.235 295.393 401.12C295.277 401.12 295.277 401.004 295.161 401.004C294.929 400.888 294.814 400.888 294.582 400.772H294.466C294.35 400.772 294.119 400.656 294.003 400.656C293.771 400.656 293.655 400.54 293.424 400.54L203.416 384.359C203.184 384.359 202.952 384.243 202.72 384.243C202.489 384.243 202.373 384.127 202.141 384.011C202.025 383.895 201.91 383.895 201.794 383.779C201.794 383.779 201.678 383.779 201.678 383.664C201.562 383.664 201.562 383.548 201.562 383.548C201.33 383.548 201.215 383.548 201.099 383.432L200.983 383.316C200.867 383.2 200.867 383.2 200.751 383.084L200.635 382.968C200.635 382.853 200.52 382.853 200.52 382.737V382.621C200.52 382.505 200.52 382.389 200.52 382.273L200.635 402.741C200.635 402.857 200.635 402.973 200.635 403.089V403.205C200.635 403.321 200.751 403.321 200.751 403.436L200.867 403.552C200.867 403.668 200.983 403.668 201.099 403.784L201.215 403.9C201.33 404.016 201.446 404.016 201.446 404.131C201.446 404.131 201.562 404.131 201.562 404.247C201.562 404.247 201.562 404.247 201.678 404.247C201.678 404.247 201.794 404.247 201.794 404.363L201.91 404.479C202.025 404.479 202.025 404.595 202.141 404.595C202.257 404.595 202.373 404.711 202.489 404.711C202.605 404.711 202.605 404.711 202.72 404.826C202.836 404.826 202.952 404.826 203.068 404.942C203.184 404.942 203.3 404.942 203.416 405.058L290.412 420.928C290.759 421.044 291.107 421.044 291.454 421.16H291.57C291.918 421.276 292.149 421.392 292.497 421.392C292.613 421.392 292.613 421.392 292.613 421.507C292.844 421.623 293.192 421.739 293.424 421.855C293.539 421.855 293.539 421.971 293.655 421.971C293.887 422.087 294.003 422.203 294.234 422.318C294.35 422.434 294.466 422.55 294.698 422.666C294.814 422.782 294.929 422.782 295.045 422.898C295.161 423.013 295.277 423.129 295.393 423.245C295.509 423.361 295.509 423.361 295.624 423.477C295.74 423.593 295.856 423.708 295.856 423.824C295.856 423.94 295.972 423.94 295.972 424.056C296.088 424.288 296.088 424.403 296.204 424.635L303.617 469.118C303.617 469.234 303.617 469.35 303.733 469.465V469.581C303.733 469.697 303.849 469.697 303.849 469.813C303.849 469.813 303.849 469.929 303.965 469.929C303.965 470.045 304.081 470.045 304.197 470.045C304.197 470.045 304.313 470.045 304.313 470.16C304.428 470.276 304.428 470.276 304.544 470.392C304.544 470.392 304.544 470.392 304.66 470.392C304.66 470.392 304.776 470.508 304.892 470.508C304.892 470.508 305.008 470.508 305.008 470.624H305.123C305.239 470.624 305.239 470.74 305.355 470.74C305.355 470.74 305.355 470.74 305.471 470.74H305.587H305.703H305.818H305.934C305.934 470.74 305.934 470.74 306.05 470.74C306.166 470.74 306.282 470.74 306.398 470.855C306.513 470.855 306.513 470.855 306.629 470.855H306.745H306.861H306.977H307.093H307.209C307.209 470.855 307.209 470.855 307.324 470.855H307.44C307.556 470.855 307.672 470.855 307.672 470.855C307.672 470.855 307.672 470.855 307.788 470.855C307.788 470.855 307.788 470.855 307.904 470.855C308.135 470.855 308.367 470.855 308.599 470.855C308.599 470.855 308.599 470.855 308.714 470.855C308.946 470.855 309.178 470.74 309.409 470.74L342.424 459.594C342.656 459.479 342.887 459.363 343.119 459.247C343.119 459.247 343.235 459.247 343.235 459.131C343.235 459.131 343.351 459.131 343.351 459.015C343.467 459.015 343.467 458.899 343.582 458.899C343.698 458.784 343.814 458.784 343.93 458.668C344.046 458.552 344.046 458.552 344.162 458.436C344.277 458.32 344.277 458.204 344.393 458.204C344.393 458.089 344.509 458.089 344.509 457.973C344.509 457.857 344.625 457.741 344.625 457.625L344.857 437.378Z" fill="url(#paint18_linear)"/>
<path d="M235.272 370.652C236.778 370.073 238.863 369.957 240.832 370.421L312.538 383.511L331.42 386.986C333.042 387.218 334.432 387.797 335.358 388.492C336.285 389.071 336.98 389.882 337.096 390.577L337.212 391.388L337.791 394.863L338.254 397.527L338.718 400.192L344.857 436.797C345.089 437.84 344.278 438.767 342.772 439.346L312.074 450.351C309.989 451.046 306.63 450.119 306.398 448.729L298.984 404.246C298.753 402.624 296.32 401.234 293.308 400.655L203.289 384.926C200.508 384.463 199.466 382.61 201.551 381.915L235.272 370.652Z" fill="#FCFAFC"/>
</g>
</g>
<path d="M344.981 325.178C337.6 322.289 329.4 322.289 322.019 325.178L124.943 402.312C121.996 403.465 121.971 407.627 124.904 408.815L321.675 488.513C329.259 491.585 337.741 491.585 345.325 488.513L542.096 408.815C545.029 407.627 545.004 403.465 542.057 402.312L344.981 325.178Z" stroke="#9A8AFF" stroke-width="5"/>
<g filter="url(#filter5_b)">
<path d="M489 342.887L545.545 365.003V430.396L489 408.28V342.887Z" fill="url(#paint19_linear)"/>
</g>
<path d="M545.546 365.003L489.001 342.887L545.546 320L602.03 342.959L545.546 365.003Z" fill="url(#paint20_linear)"/>
<g filter="url(#filter6_b)">
<path d="M545.545 365.003L602.09 342.887V407.943L545.545 430.38V365.003Z" fill="url(#paint21_linear)"/>
</g>
<path d="M576.814 402.028C576.948 401.971 577.083 401.942 577.217 401.914C578.294 401.829 579.02 403.022 578.859 404.642V404.784V404.813C578.671 406.177 577.863 407.342 576.975 407.711C576.814 407.768 576.679 407.796 576.518 407.825L576.464 407.853C575.361 407.938 574.661 406.716 574.876 405.097V405.04C575.065 403.647 575.899 402.397 576.814 402.028Z" fill="#DADADA"/>
<path d="M575.844 362.924C581.926 360.736 587.039 365.311 587.792 373.581C588.599 382.674 583.917 392.933 577.297 396.513C577.217 396.542 575.763 397.281 575.387 397.508C573.611 398.588 572.238 401.06 571.915 403.703C571.888 403.873 571.485 407.17 571.458 407.482C571.27 408.733 570.651 409.671 569.951 409.955C569.816 410.012 569.682 410.04 569.547 410.04C568.579 410.125 568.04 409.102 568.229 407.795C568.229 407.568 571.431 382.646 571.592 381.339C571.754 380.173 572.427 379.15 573.18 378.838C573.288 378.781 573.422 378.753 573.53 378.753C574.418 378.667 575.01 379.69 574.849 381.026L573.422 391.768L573.207 393.927C573.18 393.984 573.18 394.069 573.207 394.126C573.665 393.842 573.987 393.615 574.283 393.444C575.118 392.961 576.732 392.194 576.813 392.137C581.307 389.949 584.778 383.356 584.805 376.962C584.832 370.114 580.957 365.965 576.14 367.67C576.059 367.698 575.952 367.727 575.871 367.783C571.189 369.659 567.395 376.451 567.368 383.157C567.341 384.663 567.529 386.056 567.906 387.306C568.202 388.414 567.771 389.892 566.937 390.688C566.776 390.83 566.614 390.915 566.426 391C565.726 391.285 565.053 390.915 564.784 390.034C564.327 388.443 564.085 386.653 564.058 384.777C563.923 375.371 569.197 365.624 575.844 362.924Z" fill="#DADADA"/>
<path d="M491.649 342.959L545.514 364.053M545.514 364.053L599.822 342.959M545.514 364.053V429.939" stroke="url(#paint22_radial)" stroke-width="1.5"/>
<path d="M546 339.5V211" stroke="white"/>
<g filter="url(#filter7_b)">
<path d="M67 341.887L123.545 364.003V429.396L67 407.28V341.887Z" fill="url(#paint23_linear)"/>
</g>
<path d="M123.545 364.003L67.0007 341.887L123.545 319L180.03 341.959L123.545 364.003Z" fill="url(#paint24_linear)"/>
<g filter="url(#filter8_b)">
<path d="M123.545 364.003L180.09 341.887V406.943L123.545 429.38V364.003Z" fill="url(#paint25_linear)"/>
</g>
<g clip-path="url(#clip0)">
<path d="M151.282 401.028C151.416 400.971 151.551 400.942 151.685 400.914C152.762 400.829 153.488 402.022 153.327 403.642V403.784V403.813C153.138 405.177 152.331 406.342 151.443 406.711C151.282 406.768 151.147 406.796 150.986 406.825L150.932 406.853C149.828 406.938 149.129 405.716 149.344 404.097V404.04C149.532 402.647 150.367 401.397 151.282 401.028Z" fill="#DADADA"/>
<path d="M150.312 361.924C156.394 359.736 161.506 364.311 162.26 372.581C163.067 381.674 158.385 391.933 151.765 395.513C151.684 395.542 150.231 396.281 149.855 396.508C148.078 397.588 146.706 400.06 146.383 402.703C146.356 402.873 145.953 406.17 145.926 406.482C145.737 407.733 145.118 408.671 144.419 408.955C144.284 409.012 144.15 409.04 144.015 409.04C143.046 409.125 142.508 408.102 142.696 406.795C142.696 406.568 145.899 381.646 146.06 380.339C146.222 379.173 146.894 378.15 147.648 377.838C147.756 377.781 147.89 377.753 147.998 377.753C148.886 377.667 149.478 378.69 149.316 380.026L147.89 390.768L147.675 392.927C147.648 392.984 147.648 393.069 147.675 393.126C148.132 392.842 148.455 392.615 148.751 392.444C149.585 391.961 151.2 391.194 151.281 391.137C155.775 388.949 159.246 382.356 159.273 375.962C159.3 369.114 155.425 364.965 150.608 366.67C150.527 366.698 150.42 366.727 150.339 366.783C145.657 368.659 141.862 375.451 141.835 382.157C141.808 383.663 141.997 385.056 142.374 386.306C142.67 387.414 142.239 388.892 141.405 389.688C141.243 389.83 141.082 389.915 140.894 390C140.194 390.285 139.521 389.915 139.252 389.034C138.795 387.443 138.552 385.653 138.525 383.777C138.391 374.371 143.665 364.624 150.312 361.924Z" fill="#DADADA"/>
</g>
<path d="M69.6492 341.959L123.515 363.053M123.515 363.053L177.822 341.959M123.515 363.053V428.939" stroke="url(#paint26_radial)" stroke-width="1.5"/>
<g filter="url(#filter9_b)">
<path d="M483 134.489L543.5 158.152L543.499 226.993L483 203.33L483 134.489Z" fill="#533FA4"/>
</g>
<path d="M604 133.663V134.488L543.5 158.151L483.001 134.488V133.663L543.5 110L604 133.663Z" fill="#735FC8"/>
<path d="M604 133.663V134.488L543.5 158.151L483.001 134.488V133.663L543.5 110L604 133.663Z" fill="url(#paint27_linear)"/>
<path d="M603.998 203.016V203.33L543.499 226.993V158.152L603.998 134.489V203.016Z" fill="#C4C4C4"/>
<path d="M603.998 203.016V203.33L543.499 226.993V158.152L603.998 134.489V203.016Z" fill="url(#paint28_linear)"/>
<path d="M484.654 134.298L542.921 157.019M542.921 157.019V226.261M542.921 157.019L601.166 134.325" stroke="url(#paint29_radial)" stroke-width="1.5"/>
<path d="M604 202.663V203.488L543.5 227.151L483.001 203.488V202.663L543.5 179L604 202.663Z" fill="#735FC8" fill-opacity="0.2"/>
<path d="M122 340V212.5" stroke="white"/>
<circle cx="122" cy="340" r="3" fill="white"/>
<path d="M345.71 197.316C337.86 194.243 329.14 194.243 321.29 197.316L124.214 274.449C119.583 276.262 119.544 282.802 124.154 284.669L320.924 364.367C328.99 367.634 338.01 367.634 346.076 364.367L542.846 284.669C547.456 282.802 547.417 276.262 542.786 274.449L345.71 197.316Z" stroke="white"/>
<path d="M356.954 206.342L354.093 226.964L344.319 225.176L347.18 204.554L356.954 206.342Z" fill="#B4B4B4"/>
<path d="M356.954 206.342L354.093 226.964L344.319 225.176L347.18 204.554L356.954 206.342Z" fill="url(#paint30_linear)"/>
<path d="M358.027 212.658L355.166 233.28L332.875 229.346L335.736 208.724L358.027 212.658Z" fill="#B4B4B4"/>
<path d="M358.027 212.658L355.166 233.28L332.875 229.346L335.736 208.724L358.027 212.658Z" fill="url(#paint31_linear)"/>
<path d="M359.1 219.096L356.239 239.599L321.432 233.401L324.293 212.779L359.1 219.096Z" fill="#B4B4B4"/>
<path d="M359.1 219.096L356.239 239.599L321.432 233.401L324.293 212.779L359.1 219.096Z" fill="url(#paint32_linear)"/>
<g opacity="0.4784">
<path opacity="0.4784" d="M316.902 216.354L314.041 236.976C314.041 236.856 314.041 236.737 314.041 236.737L316.902 216.115C316.902 216.234 316.902 216.234 316.902 216.354Z" fill="#858585"/>
</g>
<path d="M317.14 217.667L314.28 238.289L314.041 236.977L316.902 216.355L317.14 217.667Z" fill="#6F4EB3"/>
<path d="M360.173 225.413L357.193 246.035L314.281 238.287L317.142 217.665L360.173 225.413Z" fill="#B4B4B4"/>
<path d="M360.173 225.413L357.193 246.035L314.281 238.287L317.142 217.665L360.173 225.413Z" fill="url(#paint33_linear)"/>
<path d="M318.214 224.102L315.353 244.605L314.757 241.029L317.618 220.526L318.214 224.102Z" fill="#6F4EB3"/>
<path d="M361.126 231.73L358.265 252.352L315.353 244.604L318.214 224.101L361.126 231.73Z" fill="#B4B4B4"/>
<path d="M361.126 231.73L358.265 252.352L315.353 244.604L318.214 224.101L361.126 231.73Z" fill="url(#paint34_linear)"/>
<path d="M319.285 230.421L316.425 251.043L315.829 247.347L318.689 226.845L319.285 230.421Z" fill="#6F4EB3"/>
<path d="M362.199 238.048L359.339 258.67L316.426 251.041L319.287 230.419L362.199 238.048Z" fill="#B4B4B4"/>
<path d="M362.199 238.048L359.339 258.67L316.426 251.041L319.287 230.419L362.199 238.048Z" fill="url(#paint35_linear)"/>
<path d="M320.361 236.741L317.5 257.362L316.904 253.786L319.765 233.165L320.361 236.741Z" fill="#6F4EB3"/>
<path d="M363.271 244.485L360.411 264.988L317.498 257.359L320.359 236.737L363.271 244.485Z" fill="#B4B4B4"/>
<path d="M363.271 244.485L360.411 264.988L317.498 257.359L320.359 236.737L363.271 244.485Z" fill="url(#paint36_linear)"/>
<path d="M321.433 243.057L318.572 263.679L317.976 260.103L320.837 239.481L321.433 243.057Z" fill="#6F4EB3"/>
<path d="M364.346 250.805L361.485 271.427L318.572 263.679L321.433 243.057L364.346 250.805Z" fill="#B4B4B4"/>
<path d="M364.346 250.805L361.485 271.427L318.572 263.679L321.433 243.057L364.346 250.805Z" fill="url(#paint37_linear)"/>
<path d="M322.505 249.492L319.644 269.995L319.048 266.419L321.909 245.916L322.505 249.492Z" fill="#6F4EB3"/>
<path opacity="0.4784" d="M323.339 254.976L320.478 275.479L320.12 272.737L322.981 252.234L323.339 254.976Z" fill="#808080"/>
<path d="M462.565 273.095C462.565 273.095 462.565 273.214 462.565 273.095C462.446 273.214 462.446 273.333 462.327 273.333C462.207 273.453 462.207 273.453 462.088 273.572C462.088 273.572 462.088 273.572 461.969 273.572C461.85 273.691 461.731 273.691 461.492 273.81L460.539 274.168L322.503 249.493L319.642 270.115L457.797 294.79L458.751 294.432C458.87 294.432 458.989 294.313 459.108 294.313C459.108 294.313 459.108 294.313 459.227 294.313C459.227 294.313 459.227 294.313 459.347 294.313C459.347 294.313 459.466 294.313 459.466 294.194C459.585 294.194 459.585 294.075 459.585 294.075L459.704 293.955L459.823 293.836V293.717V293.598L462.684 272.976C462.565 272.976 462.565 273.095 462.565 273.095Z" fill="url(#paint38_linear)"/>
<path opacity="0.4784" d="M342.769 258.434L339.908 279.056L320.478 275.48L323.339 254.978L342.769 258.434Z" fill="#B4B4B4"/>
<g opacity="0.4784">
<path opacity="0.4784" d="M346.938 259.982L344.077 280.604C343.958 280.604 343.839 280.485 343.839 280.485L346.7 259.863C346.7 259.863 346.819 259.982 346.938 259.982Z" fill="#858585"/>
<path opacity="0.4784" d="M346.582 259.862L343.721 280.483C343.482 280.364 343.244 280.245 343.006 280.126L345.866 259.504C346.105 259.504 346.343 259.623 346.582 259.862Z" fill="#8A8A8A"/>
<path opacity="0.4784" d="M345.866 259.385L343.005 280.007C342.767 279.888 342.529 279.768 342.409 279.768L345.27 259.146C345.509 259.266 345.628 259.385 345.866 259.385Z" fill="#8F8F8F"/>
<path opacity="0.4784" d="M345.271 259.148L342.41 279.769C342.172 279.65 342.052 279.65 341.814 279.531L344.675 258.909C344.794 259.028 345.032 259.028 345.271 259.148Z" fill="#949494"/>
<path opacity="0.4784" d="M344.675 258.911L341.814 279.533C341.575 279.413 341.456 279.413 341.218 279.294L344.079 258.672C344.198 258.792 344.436 258.911 344.675 258.911Z" fill="#999999"/>
<path opacity="0.4784" d="M344.079 258.79L341.219 279.293C340.98 279.293 340.861 279.174 340.623 279.174L343.483 258.552C343.603 258.671 343.841 258.671 344.079 258.79Z" fill="#9E9E9E"/>
<path opacity="0.4784" d="M343.365 258.551L340.504 279.173C340.265 279.173 340.146 279.054 339.908 279.054L342.769 258.432C343.007 258.551 343.245 258.551 343.365 258.551Z" fill="#A3A3A3"/>
</g>
<path d="M449.215 278.339L346.94 259.982L343.96 280.604L446.354 298.842L452.791 296.577L455.652 275.955L449.215 278.339Z" fill="url(#paint39_linear)"/>
<path opacity="0.4784" d="M349.325 266.538L346.464 287.16L345.868 283.584L348.729 262.962L349.325 266.538Z" fill="#808080"/>
<path d="M437.773 282.392L349.325 266.538L346.464 287.16L434.912 303.014L441.349 300.63L444.21 280.127L437.773 282.392Z" fill="url(#paint40_linear)"/>
<path opacity="0.4784" d="M350.279 272.141L347.418 292.644L346.941 289.902L349.802 269.399L350.279 272.141Z" fill="#808080"/>
<path d="M428.403 286.087C428.165 286.206 427.926 286.206 427.688 286.206C427.568 286.206 427.568 286.206 427.449 286.206C427.33 286.206 427.092 286.206 426.853 286.206C426.615 286.206 426.496 286.206 426.257 286.206C426.019 286.206 425.78 286.206 425.423 286.087L349.968 272.498L347.107 293.12L422.562 306.828C422.681 306.828 422.8 306.828 422.92 306.828C423.039 306.828 423.158 306.828 423.277 306.828C423.396 306.828 423.516 306.828 423.754 306.828H423.873C424.112 306.828 424.231 306.828 424.469 306.828C424.588 306.828 424.588 306.828 424.708 306.828C424.946 306.828 425.184 306.709 425.423 306.709L429.595 305.278L432.456 284.657L428.403 286.087Z" fill="url(#paint41_linear)"/>
<path fill-rule="evenodd" clip-rule="evenodd" d="M356.715 204.912C356.477 203.482 353.02 202.528 350.875 203.243L347.179 204.554L356.954 206.342L356.715 204.912ZM357.43 209.082L342.172 206.341L335.735 208.725L358.026 212.658L357.43 209.082ZM330.728 210.513L358.502 215.52L359.098 219.096L324.291 212.778L330.728 210.513ZM359.456 221.719L319.285 214.567L317.974 214.925C317.259 215.283 316.782 215.759 316.901 216.236L317.139 217.547L360.052 225.296L359.456 221.719ZM317.617 220.527L360.53 228.156L361.126 231.732L318.213 224.103L317.617 220.527ZM361.602 234.475L318.689 226.846L319.285 230.422L362.198 238.051L361.602 234.475ZM319.763 233.161L362.675 240.909L363.271 244.486L320.359 236.737L319.763 233.161ZM363.747 247.229L320.835 239.481L321.431 243.057L364.343 250.805L363.747 247.229ZM321.908 245.916L399.27 259.744L459.824 270.71C462.685 271.187 463.758 273.094 461.612 273.809L460.659 274.167L322.504 249.492L321.908 245.916ZM455.651 276.075L322.98 252.235L323.457 254.976L342.886 258.552C344.436 258.91 345.867 259.387 346.939 260.102L449.214 278.459L455.651 276.075ZM348.728 262.963L444.209 280.128L437.772 282.393L349.324 266.539L348.728 262.963ZM432.767 284.301L349.803 269.4L350.279 272.142L425.734 285.85C426.807 286.089 427.76 285.969 428.595 285.731L432.767 284.301Z" fill="url(#paint42_linear)"/>
<path d="M356.597 310.406C356.597 310.644 356.478 310.763 356.359 311.002C356.239 311.24 356.12 311.359 356.001 311.479C355.882 311.598 355.643 311.717 355.405 311.955C355.405 311.955 355.286 311.955 355.286 312.075C355.047 312.194 354.809 312.313 354.451 312.432L322.863 323.756C322.625 323.875 322.386 323.875 322.148 323.875C322.148 323.875 322.148 323.875 322.028 323.875C321.79 323.875 321.552 323.875 321.313 323.875H321.194C321.075 323.875 320.956 323.875 320.956 323.875C320.836 323.875 320.836 323.875 320.717 323.875H320.598C320.479 323.875 320.36 323.875 320.36 323.875H320.24C320.121 323.875 320.002 323.875 319.883 323.756C319.764 323.756 319.644 323.637 319.525 323.637H319.406C319.287 323.637 319.168 323.518 319.168 323.518H319.048C318.929 323.518 318.81 323.399 318.81 323.399H318.691C318.572 323.399 318.572 323.279 318.572 323.279C318.452 323.279 318.452 323.16 318.333 323.16C318.333 323.16 318.333 323.16 318.214 323.16C318.095 323.041 317.976 323.041 317.976 322.922C317.976 322.922 317.856 322.922 317.856 322.803C317.737 322.803 317.737 322.683 317.618 322.683L317.499 322.564C317.499 322.445 317.38 322.445 317.38 322.326V322.207C317.38 322.087 317.26 321.968 317.26 321.849L309.632 276.076C309.632 275.837 309.512 275.718 309.393 275.48C309.393 275.36 309.274 275.36 309.274 275.241C309.155 275.122 309.155 275.003 309.036 274.884C308.916 274.764 308.916 274.764 308.797 274.645C308.678 274.526 308.559 274.407 308.44 274.288C308.32 274.168 308.201 274.168 308.082 274.049C307.963 273.93 307.844 273.811 307.605 273.692C307.605 273.692 307.605 273.692 307.486 273.572C307.367 273.453 307.128 273.453 307.009 273.334C306.89 273.334 306.89 273.215 306.771 273.215C306.413 273.453 306.175 273.334 305.936 273.334C305.936 273.334 305.817 273.334 305.817 273.215C305.817 273.215 305.698 273.215 305.698 273.096C305.579 273.096 305.579 272.976 305.459 272.976C305.221 272.857 305.102 272.857 304.863 272.738H304.744C304.625 272.738 304.387 272.619 304.267 272.619C304.029 272.619 303.91 272.5 303.671 272.5L211.052 255.848C210.813 255.848 210.575 255.729 210.337 255.729C210.098 255.729 209.979 255.61 209.741 255.491C209.621 255.371 209.502 255.371 209.383 255.252C209.383 255.252 209.264 255.252 209.264 255.133C209.145 255.133 209.145 255.014 209.145 255.014C208.906 255.014 208.787 255.014 208.668 254.895L208.549 254.775C208.429 254.656 208.429 254.656 208.31 254.537L208.191 254.418C208.191 254.299 208.072 254.299 208.072 254.179V254.06C208.072 253.941 208.072 253.822 208.072 253.703L208.191 274.764C208.191 274.884 208.191 275.003 208.191 275.122V275.241C208.191 275.36 208.31 275.36 208.31 275.48L208.429 275.599C208.429 275.718 208.549 275.718 208.668 275.837L208.787 275.956C208.906 276.076 209.025 276.076 209.025 276.195C209.025 276.195 209.145 276.195 209.145 276.314C209.145 276.314 209.145 276.314 209.264 276.314C209.264 276.314 209.383 276.314 209.383 276.433L209.502 276.552C209.621 276.552 209.621 276.672 209.741 276.672C209.86 276.672 209.979 276.791 210.098 276.791C210.217 276.791 210.217 276.791 210.337 276.91C210.456 276.91 210.575 276.91 210.694 277.029C210.813 277.029 210.933 277.029 211.052 277.148L300.572 293.479C300.93 293.598 301.287 293.598 301.645 293.717H301.764C302.122 293.837 302.36 293.956 302.718 293.956C302.837 293.956 302.837 293.956 302.837 294.075C303.075 294.194 303.433 294.313 303.671 294.433C303.791 294.433 303.791 294.552 303.91 294.552C304.148 294.671 304.267 294.79 304.506 294.909C304.625 295.029 304.744 295.148 304.983 295.267C305.102 295.386 305.221 295.386 305.34 295.506C305.459 295.625 305.579 295.744 305.698 295.863C305.817 295.982 305.817 295.982 305.936 296.102C306.055 296.221 306.175 296.34 306.175 296.459C306.175 296.578 306.294 296.578 306.294 296.698C306.413 296.936 306.413 297.055 306.532 297.294L314.161 343.067C314.161 343.186 314.161 343.305 314.28 343.425V343.544C314.28 343.663 314.4 343.663 314.4 343.782C314.4 343.782 314.4 343.901 314.519 343.901C314.519 344.021 314.638 344.021 314.757 344.021C314.757 344.021 314.876 344.021 314.876 344.14C314.996 344.259 314.996 344.259 315.115 344.378C315.115 344.378 315.115 344.378 315.234 344.378C315.234 344.378 315.353 344.497 315.472 344.497C315.472 344.497 315.592 344.497 315.592 344.617H315.711C315.83 344.617 315.83 344.736 315.949 344.736C315.949 344.736 315.949 344.736 316.068 344.736H316.188H316.307H316.426H316.545C316.545 344.736 316.545 344.736 316.664 344.736C316.784 344.736 316.903 344.736 317.022 344.855C317.141 344.855 317.141 344.855 317.26 344.855H317.38H317.499H317.618H317.737H317.856C317.856 344.855 317.856 344.855 317.976 344.855H318.095C318.214 344.855 318.333 344.855 318.333 344.855C318.333 344.855 318.333 344.855 318.452 344.855C318.452 344.855 318.452 344.855 318.572 344.855C318.81 344.855 319.048 344.855 319.287 344.855C319.287 344.855 319.287 344.855 319.406 344.855C319.644 344.855 319.883 344.736 320.121 344.736L354.094 333.267C354.332 333.148 354.571 333.029 354.809 332.91C354.809 332.91 354.928 332.91 354.928 332.79C354.928 332.79 355.047 332.79 355.047 332.671C355.167 332.671 355.167 332.552 355.286 332.552C355.405 332.433 355.524 332.433 355.643 332.314C355.763 332.194 355.763 332.194 355.882 332.075C356.001 331.956 356.001 331.837 356.12 331.837C356.12 331.718 356.239 331.718 356.239 331.598C356.239 331.479 356.359 331.36 356.359 331.241L356.597 310.406Z" fill="url(#paint43_linear)"/>
<path d="M243.832 241.745C245.382 241.149 247.528 241.03 249.554 241.507L323.34 254.976L342.77 258.552C344.439 258.791 345.869 259.387 346.823 260.102C347.776 260.698 348.491 261.532 348.611 262.248L348.73 263.082L349.326 266.658L349.803 269.4L350.279 272.141L356.597 309.809C356.836 310.882 356.001 311.836 354.452 312.432L322.863 323.756C320.717 324.471 317.261 323.517 317.022 322.087L309.393 276.313C309.155 274.645 306.652 273.214 303.552 272.618L210.921 256.433C208.06 255.956 206.987 254.049 209.133 253.334L243.832 241.745Z" fill="#FCFAFC"/>
<path d="M243.832 241.745C245.382 241.149 247.528 241.03 249.554 241.507L323.34 254.976L342.77 258.552C344.439 258.791 345.869 259.387 346.823 260.102C347.776 260.698 348.491 261.532 348.611 262.248L348.73 263.082L349.326 266.658L349.803 269.4L350.279 272.141L356.597 309.809C356.836 310.882 356.001 311.836 354.452 312.432L322.863 323.756C320.717 324.471 317.261 323.517 317.022 322.087L309.393 276.313C309.155 274.645 306.652 273.214 303.552 272.618L210.921 256.433C208.06 255.956 206.987 254.049 209.133 253.334L243.832 241.745Z" fill="url(#paint44_linear)"/>
<circle cx="122" cy="280" r="3" fill="white"/>
<circle cx="546" cy="278" r="3" fill="white"/>
<circle cx="546" cy="339" r="3" fill="white"/>
<g filter="url(#filter10_b)">
<path d="M67 135.489L127.5 159.152L127.499 227.993L67 204.33L67 135.489Z" fill="#533FA4"/>
</g>
<path d="M188 134.663V135.488L127.5 159.151L67.001 135.488V134.663L127.5 111L188 134.663Z" fill="#735FC8"/>
<path d="M188 134.663V135.488L127.5 159.151L67.001 135.488V134.663L127.5 111L188 134.663Z" fill="url(#paint45_linear)"/>
<path d="M187.998 204.016V204.33L127.499 227.993V159.152L187.998 135.489V204.016Z" fill="#C4C4C4"/>
<path d="M187.998 204.016V204.33L127.499 227.993V159.152L187.998 135.489V204.016Z" fill="url(#paint46_linear)"/>
<path d="M187.999 202.663V203.488L127.499 227.151L67 203.488V202.663L127.499 179L187.999 202.663Z" fill="#735FC8" fill-opacity="0.2"/>
<path d="M68.6541 135.298L126.921 158.019M126.921 158.019V227.261M126.921 158.019L185.166 135.325" stroke="url(#paint47_radial)" stroke-width="1.5"/>
<defs>
<filter id="filter0_f" x="46" y="324" width="572.897" height="185.19" filterUnits="userSpaceOnUse" color-interpolation-filters="sRGB">
<feFlood flood-opacity="0" result="BackgroundImageFix"/>
<feBlend mode="normal" in="SourceGraphic" in2="BackgroundImageFix" result="shape"/>
<feGaussianBlur stdDeviation="4.5" result="effect1_foregroundBlur"/>
</filter>
<filter id="filter1_b" x="492.171" y="403.016" width="64.8632" height="96.0025" filterUnits="userSpaceOnUse" color-interpolation-filters="sRGB">
<feFlood flood-opacity="0" result="BackgroundImageFix"/>
<feGaussianBlur in="BackgroundImage" stdDeviation="2"/>
<feComposite in2="SourceAlpha" operator="in" result="effect1_backgroundBlur"/>
<feBlend mode="normal" in="SourceGraphic" in2="effect1_backgroundBlur" result="shape"/>
</filter>
<filter id="filter2_b" x="549.033" y="403.016" width="64.8632" height="95.6641" filterUnits="userSpaceOnUse" color-interpolation-filters="sRGB">
<feFlood flood-opacity="0" result="BackgroundImageFix"/>
<feGaussianBlur in="BackgroundImage" stdDeviation="2"/>
<feComposite in2="SourceAlpha" operator="in" result="effect1_backgroundBlur"/>
<feBlend mode="normal" in="SourceGraphic" in2="effect1_backgroundBlur" result="shape"/>
</filter>
<filter id="filter3_b" x="51" y="404.881" width="66.9995" height="99.3088" filterUnits="userSpaceOnUse" color-interpolation-filters="sRGB">
<feFlood flood-opacity="0" result="BackgroundImageFix"/>
<feGaussianBlur in="BackgroundImage" stdDeviation="2"/>
<feComposite in2="SourceAlpha" operator="in" result="effect1_backgroundBlur"/>
<feBlend mode="normal" in="SourceGraphic" in2="effect1_backgroundBlur" result="shape"/>
</filter>
<filter id="filter4_b" x="110" y="404.881" width="66.9995" height="98.9576" filterUnits="userSpaceOnUse" color-interpolation-filters="sRGB">
<feFlood flood-opacity="0" result="BackgroundImageFix"/>
<feGaussianBlur in="BackgroundImage" stdDeviation="2"/>
<feComposite in2="SourceAlpha" operator="in" result="effect1_backgroundBlur"/>
<feBlend mode="normal" in="SourceGraphic" in2="effect1_backgroundBlur" result="shape"/>
</filter>
<filter id="filter5_b" x="485" y="338.887" width="64.5446" height="95.5095" filterUnits="userSpaceOnUse" color-interpolation-filters="sRGB">
<feFlood flood-opacity="0" result="BackgroundImageFix"/>
<feGaussianBlur in="BackgroundImage" stdDeviation="2"/>
<feComposite in2="SourceAlpha" operator="in" result="effect1_backgroundBlur"/>
<feBlend mode="normal" in="SourceGraphic" in2="effect1_backgroundBlur" result="shape"/>
</filter>
<filter id="filter6_b" x="541.545" y="338.887" width="64.5446" height="95.4936" filterUnits="userSpaceOnUse" color-interpolation-filters="sRGB">
<feFlood flood-opacity="0" result="BackgroundImageFix"/>
<feGaussianBlur in="BackgroundImage" stdDeviation="2"/>
<feComposite in2="SourceAlpha" operator="in" result="effect1_backgroundBlur"/>
<feBlend mode="normal" in="SourceGraphic" in2="effect1_backgroundBlur" result="shape"/>
</filter>
<filter id="filter7_b" x="63" y="337.887" width="64.5446" height="95.5095" filterUnits="userSpaceOnUse" color-interpolation-filters="sRGB">
<feFlood flood-opacity="0" result="BackgroundImageFix"/>
<feGaussianBlur in="BackgroundImage" stdDeviation="2"/>
<feComposite in2="SourceAlpha" operator="in" result="effect1_backgroundBlur"/>
<feBlend mode="normal" in="SourceGraphic" in2="effect1_backgroundBlur" result="shape"/>
</filter>
<filter id="filter8_b" x="119.545" y="337.887" width="64.5446" height="95.4936" filterUnits="userSpaceOnUse" color-interpolation-filters="sRGB">
<feFlood flood-opacity="0" result="BackgroundImageFix"/>
<feGaussianBlur in="BackgroundImage" stdDeviation="2"/>
<feComposite in2="SourceAlpha" operator="in" result="effect1_backgroundBlur"/>
<feBlend mode="normal" in="SourceGraphic" in2="effect1_backgroundBlur" result="shape"/>
</filter>
<filter id="filter9_b" x="479" y="130.489" width="68.4995" height="100.504" filterUnits="userSpaceOnUse" color-interpolation-filters="sRGB">
<feFlood flood-opacity="0" result="BackgroundImageFix"/>
<feGaussianBlur in="BackgroundImage" stdDeviation="2"/>
<feComposite in2="SourceAlpha" operator="in" result="effect1_backgroundBlur"/>
<feBlend mode="normal" in="SourceGraphic" in2="effect1_backgroundBlur" result="shape"/>
</filter>
<filter id="filter10_b" x="63" y="131.489" width="68.4995" height="100.504" filterUnits="userSpaceOnUse" color-interpolation-filters="sRGB">
<feFlood flood-opacity="0" result="BackgroundImageFix"/>
<feGaussianBlur in="BackgroundImage" stdDeviation="2"/>
<feComposite in2="SourceAlpha" operator="in" result="effect1_backgroundBlur"/>
<feBlend mode="normal" in="SourceGraphic" in2="effect1_backgroundBlur" result="shape"/>
</filter>
<linearGradient id="paint0_linear" x1="324.001" y1="132.5" x2="335.001" y2="533.5" gradientUnits="userSpaceOnUse">
<stop stop-color="#D6538A" stop-opacity="0"/>
<stop offset="1" stop-color="#D6538A" stop-opacity="0.33"/>
</linearGradient>
<linearGradient id="paint1_linear" x1="24.2947" y1="433.783" x2="673.105" y2="362.8" gradientUnits="userSpaceOnUse">
<stop stop-color="#F23563"/>
<stop offset="0.334138" stop-color="#6956D9"/>
<stop offset="0.622896" stop-color="#3F2ED0"/>
<stop offset="1" stop-color="#8817BE"/>
</linearGradient>
<linearGradient id="paint2_linear" x1="24.2947" y1="407.783" x2="673.105" y2="336.8" gradientUnits="userSpaceOnUse">
<stop stop-color="#F23563"/>
<stop offset="0.334138" stop-color="#6956D9"/>
<stop offset="0.622896" stop-color="#3F2ED0"/>
<stop offset="1" stop-color="#8817BE"/>
</linearGradient>
<linearGradient id="paint3_linear" x1="333.5" y1="542.429" x2="334" y2="228" gradientUnits="userSpaceOnUse">
<stop stop-color="#151837"/>
<stop offset="0.293799" stop-color="#1E1B3D"/>
<stop offset="0.525525" stop-color="#15112B"/>
<stop offset="1" stop-color="#1A102D"/>
</linearGradient>
<linearGradient id="paint4_linear" x1="333.5" y1="543.429" x2="334" y2="229" gradientUnits="userSpaceOnUse">
<stop stop-color="#151837"/>
<stop offset="0.293799" stop-color="#1E1B3D"/>
<stop offset="0.525525" stop-color="#15112B"/>
<stop offset="1" stop-color="#1A102D"/>
</linearGradient>
<linearGradient id="paint5_linear" x1="343.975" y1="356.477" x2="334.067" y2="355.586" gradientUnits="userSpaceOnUse">
<stop stop-color="#E291C2"/>
<stop offset="1" stop-color="#B46CDF"/>
</linearGradient>
<linearGradient id="paint6_linear" x1="343.799" y1="362.633" x2="324.436" y2="359.467" gradientUnits="userSpaceOnUse">
<stop stop-color="#E291C2"/>
<stop offset="1" stop-color="#B46CDF"/>
</linearGradient>
<linearGradient id="paint7_linear" x1="343.624" y1="368.794" x2="315.274" y2="362.438" gradientUnits="userSpaceOnUse">
<stop stop-color="#E291C2"/>
<stop offset="1" stop-color="#B46CDF"/>
</linearGradient>
<linearGradient id="paint8_linear" x1="343.867" y1="375.062" x2="309.858" y2="366.281" gradientUnits="userSpaceOnUse">
<stop stop-color="#E291C2"/>
<stop offset="1" stop-color="#B46CDF"/>
</linearGradient>
<linearGradient id="paint9_linear" x1="344.804" y1="381.199" x2="310.891" y2="372.428" gradientUnits="userSpaceOnUse">
<stop stop-color="#E291C2"/>
<stop offset="1" stop-color="#B46CDF"/>
</linearGradient>
<linearGradient id="paint10_linear" x1="345.847" y1="387.34" x2="311.934" y2="378.569" gradientUnits="userSpaceOnUse">
<stop stop-color="#E291C2"/>
<stop offset="1" stop-color="#B46CDF"/>
</linearGradient>
<linearGradient id="paint11_linear" x1="346.889" y1="393.479" x2="312.975" y2="384.708" gradientUnits="userSpaceOnUse">
<stop stop-color="#E291C2"/>
<stop offset="1" stop-color="#B46CDF"/>
</linearGradient>
<linearGradient id="paint12_linear" x1="347.933" y1="399.737" x2="314.002" y2="390.998" gradientUnits="userSpaceOnUse">
<stop stop-color="#E291C2"/>
<stop offset="1" stop-color="#B46CDF"/>
</linearGradient>
<linearGradient id="paint13_linear" x1="434.033" y1="422.584" x2="343.872" y2="377.138" gradientUnits="userSpaceOnUse">
<stop stop-color="#E291C2"/>
<stop offset="1" stop-color="#C388E7"/>
</linearGradient>
<linearGradient id="paint14_linear" x1="430.25" y1="426.468" x2="357.313" y2="393.007" gradientUnits="userSpaceOnUse">
<stop stop-color="#E998D2"/>
<stop offset="1" stop-color="#C388E7"/>
</linearGradient>
<linearGradient id="paint15_linear" x1="420.488" y1="430.502" x2="355.174" y2="402.565" gradientUnits="userSpaceOnUse">
<stop stop-color="#E79DDB"/>
<stop offset="1" stop-color="#C388E7"/>
</linearGradient>
<linearGradient id="paint16_linear" x1="410.272" y1="434.191" x2="351.986" y2="411.062" gradientUnits="userSpaceOnUse">
<stop stop-color="#E7B3F9"/>
<stop offset="1" stop-color="#C388E7"/>
</linearGradient>
<linearGradient id="paint17_linear" x1="377.137" y1="333" x2="377.137" y2="413.64" gradientUnits="userSpaceOnUse">
<stop stop-color="#DADADA"/>
<stop offset="1" stop-color="#F0EFEF"/>
</linearGradient>
<linearGradient id="paint18_linear" x1="272.746" y1="382.701" x2="272.746" y2="470.855" gradientUnits="userSpaceOnUse">
<stop stop-color="#C6BEFF"/>
<stop offset="1" stop-color="#9689F0"/>
</linearGradient>
<linearGradient id="paint19_linear" x1="540.216" y1="388.877" x2="487.675" y2="395.942" gradientUnits="userSpaceOnUse">
<stop stop-color="#E54276"/>
<stop offset="0.557292" stop-color="#F32064"/>
<stop offset="1" stop-color="#CB2C5F"/>
</linearGradient>
<linearGradient id="paint20_linear" x1="501.363" y1="342.076" x2="598.056" y2="343.401" gradientUnits="userSpaceOnUse">
<stop stop-color="#E46A91"/>
<stop offset="0.471569" stop-color="#FF88AE"/>
<stop offset="1" stop-color="#F56190"/>
</linearGradient>
<linearGradient id="paint21_linear" x1="594.524" y1="350.465" x2="555.67" y2="425.082" gradientUnits="userSpaceOnUse">
<stop offset="0.0260417" stop-color="#B72352"/>
<stop offset="0.478963" stop-color="#C11B50"/>
<stop offset="1" stop-color="#8E2547"/>
</linearGradient>
<radialGradient id="paint22_radial" cx="0" cy="0" r="1" gradientUnits="userSpaceOnUse" gradientTransform="translate(545.514 364.152) rotate(-20.8747) scale(55.7594 72.0929)">
<stop stop-color="#FFBFC3"/>
<stop offset="1" stop-color="#E47699"/>
</radialGradient>
<linearGradient id="paint23_linear" x1="118.216" y1="387.877" x2="65.6754" y2="394.942" gradientUnits="userSpaceOnUse">
<stop stop-color="#E54276"/>
<stop offset="0.557292" stop-color="#F32064"/>
<stop offset="1" stop-color="#CB2C5F"/>
</linearGradient>
<linearGradient id="paint24_linear" x1="79.3629" y1="341.076" x2="176.056" y2="342.401" gradientUnits="userSpaceOnUse">
<stop stop-color="#E46A91"/>
<stop offset="0.471569" stop-color="#FF88AE"/>
<stop offset="1" stop-color="#F56190"/>
</linearGradient>
<linearGradient id="paint25_linear" x1="172.524" y1="349.465" x2="133.67" y2="424.082" gradientUnits="userSpaceOnUse">
<stop offset="0.0260417" stop-color="#B72352"/>
<stop offset="0.478963" stop-color="#C11B50"/>
<stop offset="1" stop-color="#8E2547"/>
</linearGradient>
<radialGradient id="paint26_radial" cx="0" cy="0" r="1" gradientUnits="userSpaceOnUse" gradientTransform="translate(123.515 363.152) rotate(-20.8747) scale(55.7594 72.0929)">
<stop stop-color="#FFBFC3"/>
<stop offset="1" stop-color="#E47699"/>
</radialGradient>
<linearGradient id="paint27_linear" x1="543.5" y1="110" x2="543.5" y2="158.151" gradientUnits="userSpaceOnUse">
<stop stop-color="#74CCAC" stop-opacity="0.35"/>
<stop offset="1" stop-color="#735FC8" stop-opacity="0.22"/>
</linearGradient>
<linearGradient id="paint28_linear" x1="573.749" y1="134.489" x2="573.749" y2="298.962" gradientUnits="userSpaceOnUse">
<stop stop-color="#402F88"/>
<stop offset="0.442708" stop-color="#5944B5"/>
<stop offset="0.666667" stop-color="#3F2B95"/>
<stop offset="1" stop-color="#352286"/>
</linearGradient>
<radialGradient id="paint29_radial" cx="0" cy="0" r="1" gradientUnits="userSpaceOnUse" gradientTransform="translate(542.921 157.122) rotate(-20.9011) scale(58.0545 75.1379)">
<stop stop-color="#AC9EEE"/>
<stop offset="1" stop-color="#624DBD" stop-opacity="0.22"/>
</radialGradient>
<linearGradient id="paint30_linear" x1="355.689" y1="227.159" x2="345.494" y2="226.241" gradientUnits="userSpaceOnUse">
<stop stop-color="#E291C2"/>
<stop offset="1" stop-color="#B46CDF"/>
</linearGradient>
<linearGradient id="paint31_linear" x1="355.509" y1="233.493" x2="335.583" y2="230.236" gradientUnits="userSpaceOnUse">
<stop stop-color="#E291C2"/>
<stop offset="1" stop-color="#B46CDF"/>
</linearGradient>
<linearGradient id="paint32_linear" x1="355.328" y1="239.833" x2="326.155" y2="233.293" gradientUnits="userSpaceOnUse">
<stop stop-color="#E291C2"/>
<stop offset="1" stop-color="#B46CDF"/>
</linearGradient>
<linearGradient id="paint33_linear" x1="355.578" y1="246.282" x2="320.582" y2="237.246" gradientUnits="userSpaceOnUse">
<stop stop-color="#E291C2"/>
<stop offset="1" stop-color="#B46CDF"/>
</linearGradient>
<linearGradient id="paint34_linear" x1="356.543" y1="252.598" x2="321.645" y2="243.572" gradientUnits="userSpaceOnUse">
<stop stop-color="#E291C2"/>
<stop offset="1" stop-color="#B46CDF"/>
</linearGradient>
<linearGradient id="paint35_linear" x1="357.616" y1="258.916" x2="322.718" y2="249.891" gradientUnits="userSpaceOnUse">
<stop stop-color="#E291C2"/>
<stop offset="1" stop-color="#B46CDF"/>
</linearGradient>
<linearGradient id="paint36_linear" x1="358.688" y1="265.234" x2="323.79" y2="256.209" gradientUnits="userSpaceOnUse">
<stop stop-color="#E291C2"/>
<stop offset="1" stop-color="#B46CDF"/>
</linearGradient>
<linearGradient id="paint37_linear" x1="359.762" y1="271.673" x2="324.846" y2="262.681" gradientUnits="userSpaceOnUse">
<stop stop-color="#E291C2"/>
<stop offset="1" stop-color="#B46CDF"/>
</linearGradient>
<linearGradient id="paint38_linear" x1="448.361" y1="295.184" x2="355.583" y2="248.419" gradientUnits="userSpaceOnUse">
<stop stop-color="#E291C2"/>
<stop offset="1" stop-color="#C388E7"/>
</linearGradient>
<linearGradient id="paint39_linear" x1="444.468" y1="299.18" x2="369.415" y2="264.748" gradientUnits="userSpaceOnUse">
<stop stop-color="#CB86B8"/>
<stop offset="1" stop-color="#AC7BCA"/>
</linearGradient>
<linearGradient id="paint40_linear" x1="434.422" y1="303.331" x2="367.213" y2="274.584" gradientUnits="userSpaceOnUse">
<stop stop-color="#C973BB"/>
<stop offset="1" stop-color="#A876C7"/>
</linearGradient>
<linearGradient id="paint41_linear" x1="423.91" y1="307.127" x2="363.932" y2="283.326" gradientUnits="userSpaceOnUse">
<stop offset="0.0625" stop-color="#CD91E1"/>
<stop offset="1" stop-color="#AF7CCE"/>
<stop offset="1" stop-color="#9B65BB"/>
</linearGradient>
<linearGradient id="paint42_linear" x1="389.814" y1="203" x2="389.814" y2="285.98" gradientUnits="userSpaceOnUse">
<stop stop-color="#DADADA"/>
<stop offset="1" stop-color="#F0EFEF"/>
</linearGradient>
<linearGradient id="paint43_linear" x1="352.456" y1="323.232" x2="207.928" y2="266.542" gradientUnits="userSpaceOnUse">
<stop stop-color="#A49AE9"/>
<stop offset="0.114583" stop-color="#BAB1F4"/>
<stop offset="0.1875" stop-color="#C8C0FF"/>
<stop offset="0.276042" stop-color="#B0A8ED"/>
<stop offset="0.432292" stop-color="#9E95DD"/>
<stop offset="1" stop-color="#837BBF"/>
</linearGradient>
<linearGradient id="paint44_linear" x1="258.442" y1="243.154" x2="287.461" y2="305.98" gradientUnits="userSpaceOnUse">
<stop stop-color="#C5B6E7"/>
<stop offset="1" stop-color="#F4EFFF"/>
</linearGradient>
<linearGradient id="paint45_linear" x1="127.5" y1="111" x2="127.5" y2="159.151" gradientUnits="userSpaceOnUse">
<stop stop-color="#74CCAC" stop-opacity="0.35"/>
<stop offset="1" stop-color="#735FC8" stop-opacity="0.22"/>
</linearGradient>
<linearGradient id="paint46_linear" x1="157.749" y1="135.489" x2="157.749" y2="299.962" gradientUnits="userSpaceOnUse">
<stop stop-color="#402F88"/>
<stop offset="0.442708" stop-color="#5944B5"/>
<stop offset="0.666667" stop-color="#3F2B95"/>
<stop offset="1" stop-color="#352286"/>
</linearGradient>
<radialGradient id="paint47_radial" cx="0" cy="0" r="1" gradientUnits="userSpaceOnUse" gradientTransform="translate(126.921 158.122) rotate(-20.9011) scale(58.0545 75.1379)">
<stop stop-color="#AC9EEE"/>
<stop offset="1" stop-color="#624DBD" stop-opacity="0.22"/>
</radialGradient>
<clipPath id="clip0">
<rect width="23.8421" height="47.6843" fill="white" transform="translate(138.526 361.386)"/>
</clipPath>
</defs>
</svg>
