<svg width="90" height="90" viewBox="0 0 90 90" fill="none" xmlns="http://www.w3.org/2000/svg">
<rect width="90" height="90" rx="6" fill="#141649"/>
<path d="M33.8243 68.6397L27.8201 62.3507C27.2715 61.776 26.365 61.7591 25.7964 62.3128C25.227 62.8665 25.2102 63.7804 25.7589 64.3551L29.316 68.0803H21.2202C18.6997 68.0787 16.283 67.0656 14.5045 65.2642C12.7251 63.4629 11.7292 61.0208 11.7356 58.4771C11.7356 58.0951 11.5839 57.7292 11.3155 57.46C11.0472 57.1908 10.683 57.0401 10.3045 57.0425C9.513 57.0465 8.87329 57.6962 8.87329 58.4949C8.8709 61.8042 10.1727 64.9781 12.4911 67.3179C14.8104 69.6576 17.9554 70.9713 21.2346 70.9689H29.5212L25.7629 74.8731C25.2118 75.4445 25.2254 76.3593 25.7916 76.9154C26.3586 77.4715 27.2651 77.4586 27.8153 76.8864L33.8203 70.649C34.3586 70.0904 34.361 69.2006 33.8243 68.6397Z" fill="white"/>
<path d="M58.2143 27.847V36.6458L57.8393 36.2359C56.9815 35.3006 55.7707 34.7673 54.5019 34.7673H44.3584C41.861 34.7661 39.8359 36.79 39.8353 39.2874V51.3466H22.7446C25.2414 51.3466 27.2653 49.3221 27.2647 46.8253V27.847C27.2647 25.3496 29.2899 23.3257 31.7872 23.3257H53.693C56.1904 23.3263 58.2143 25.3502 58.2143 27.847Z" fill="white"/>
<path d="M58.2143 27.847V36.6458L57.8393 36.2359C56.9815 35.3006 55.7707 34.7673 54.5019 34.7673H44.3584C41.861 34.7661 39.8359 36.79 39.8353 39.2874V51.3466H22.7446C25.2414 51.3466 27.2653 49.3221 27.2647 46.8253V27.847C27.2647 25.3496 29.2899 23.3257 31.7872 23.3257H53.693C56.1904 23.3263 58.2143 25.3502 58.2143 27.847Z" fill="url(#paint0_linear)" fill-opacity="0.85"/>
<path d="M52.6699 22.4063V23.3257H31.7867C29.2894 23.3257 27.2642 25.3496 27.2642 27.847V46.8253C27.2648 49.3221 25.2409 51.3466 22.7441 51.3466H22.2689C19.7715 51.3473 17.7463 49.3227 17.7463 46.8253V17.1983C17.7463 14.7009 19.7709 12.6758 22.2689 12.6758H32.4111C33.6806 12.6752 34.8926 13.2091 35.7485 14.1475L38.8274 17.516C39.0412 17.7506 39.3442 17.8837 39.6613 17.8837H48.1468C50.6447 17.8837 52.6699 19.9083 52.6699 22.4063Z" fill="#803A5C"/>
<path d="M80.3032 49.9356V68.9152C80.3032 71.4126 78.2787 73.4365 75.7819 73.4365H44.8335C47.3309 73.4371 49.356 71.4126 49.356 68.9152V49.9356C49.356 47.4395 51.3799 45.4155 53.8761 45.4155H75.7819C78.2787 45.4149 80.3032 47.4388 80.3032 49.9356Z" fill="#6E72F4"/>
<path d="M74.7588 44.4951V45.4158H53.8762C51.3801 45.4158 49.3561 47.4397 49.3561 49.9358V68.9154C49.3561 71.4128 47.331 73.4373 44.8336 73.4367H44.3583C41.8604 73.4373 39.8358 71.4128 39.8352 68.9154V39.2872C39.8358 36.7898 41.861 34.7659 44.3583 34.7671H54.5018C55.7706 34.7671 56.9815 35.3004 57.8392 36.2357L58.2143 36.6456L60.9181 39.6061C61.1325 39.84 61.4349 39.9732 61.752 39.9738H70.2362C72.7336 39.9732 74.7588 41.9971 74.7588 44.4951Z" fill="#383CB4"/>
<defs>
<linearGradient id="paint0_linear" x1="24.0366" y1="37.9623" x2="58.8462" y2="39.8807" gradientUnits="userSpaceOnUse">
<stop stop-color="#F23563"/>
<stop offset="0.334138" stop-color="#6956D9"/>
<stop offset="0.622896" stop-color="#3F2ED0"/>
<stop offset="1" stop-color="#8817BE"/>
</linearGradient>
</defs>
</svg>
