<svg width="90" height="90" viewBox="0 0 90 90" fill="none" xmlns="http://www.w3.org/2000/svg">
<rect width="90" height="90" rx="6" fill="#141649"/>
<rect x="8.87329" y="15.2114" width="34.2253" height="24.0845" fill="#2E3077"/>
<rect x="48.1692" y="15.2114" width="34.2253" height="24.0845" fill="#2E3077"/>
<rect x="48.1692" y="43.0986" width="34.2253" height="24.0845" fill="#33A093"/>
<path d="M88.1545 74.6488L81.4304 67.9245L86.2276 65.1537C86.6024 64.9372 86.8205 64.5257 86.7894 64.0939C86.7582 63.6621 86.4831 63.2861 86.0811 63.1258L64.6897 54.5927C64.2704 54.4253 63.7915 54.5239 63.4722 54.8431C63.1528 55.1626 63.0542 55.6413 63.2216 56.0606L71.7532 77.4545C71.9137 77.8565 72.2897 78.1317 72.7215 78.1629C73.1534 78.1943 73.565 77.9761 73.7813 77.6011L76.552 72.804L83.2756 79.5283C83.4874 79.7403 83.775 79.8594 84.0746 79.8594C84.3743 79.8594 84.6617 79.7403 84.8735 79.5283L88.1546 76.2468C88.5958 75.8055 88.5958 75.0901 88.1545 74.6488Z" fill="white"/>
<path d="M59.6597 49.4333C59.2184 48.9923 58.5031 48.9922 58.0616 49.4333C57.6204 49.8746 57.6204 50.5901 58.0616 51.0314L60.5723 53.542C60.7929 53.7626 61.0819 53.873 61.3713 53.873C61.6603 53.873 61.9495 53.7626 62.1701 53.542C62.6114 53.1007 62.6114 52.3854 62.1701 51.9441L59.6597 49.4333Z" fill="white"/>
<path d="M60.5106 57.2451C60.5106 56.6213 60.0047 56.1152 59.3806 56.1152H55.83C55.206 56.1152 54.7 56.6211 54.7 57.2451C54.7 57.8692 55.2059 58.3752 55.83 58.3752H59.3806C60.0047 58.3751 60.5106 57.8692 60.5106 57.2451Z" fill="white"/>
<path d="M60.0526 60.7326L57.5416 63.2435C57.1004 63.6848 57.1004 64.4003 57.5416 64.8415C57.7623 65.0621 58.0515 65.1724 58.3406 65.1724C58.6296 65.1724 58.9189 65.0621 59.1395 64.8415L61.6504 62.3307C62.0917 61.8894 62.0917 61.1739 61.6504 60.7326C61.2093 60.2917 60.4941 60.2915 60.0526 60.7326Z" fill="white"/>
<path d="M65.8726 51.8822C66.4966 51.8822 67.0026 51.3763 67.0026 50.7522V47.2012C67.0026 46.5772 66.4967 46.0713 65.8726 46.0713C65.2487 46.0713 64.7427 46.5771 64.7427 47.2012V50.7523C64.7427 51.3763 65.2486 51.8822 65.8726 51.8822Z" fill="white"/>
<path d="M70.1583 53.354C70.4476 53.354 70.7366 53.2436 70.9572 53.023L73.4678 50.5124C73.9091 50.0711 73.9091 49.3556 73.4678 48.9143C73.0265 48.4732 72.311 48.4732 71.8699 48.9143L69.3593 51.4251C68.918 51.8664 68.918 52.5819 69.3593 53.023C69.58 53.2436 69.8691 53.354 70.1583 53.354Z" fill="white"/>
</svg>
