<svg width="24" height="24" viewBox="0 0 24 24" fill="none" xmlns="http://www.w3.org/2000/svg">
<g clip-path="url(#clip0)">
<path d="M24.0236 4.31307C23.1293 4.70534 22.1764 4.96535 21.1829 5.0916C22.205 4.4814 22.985 3.52251 23.3517 2.36672C22.3988 2.93485 21.3468 3.33614 20.2256 3.56008C19.3208 2.59668 18.0312 2 16.6244 2C13.8951 2 11.6977 4.21537 11.6977 6.93123C11.6977 7.32201 11.7308 7.69775 11.8119 8.05545C7.71335 7.85556 4.08669 5.89118 1.65038 2.89877C1.22504 3.63673 0.975548 4.4814 0.975548 5.39069C0.975548 7.09806 1.85478 8.61155 3.16537 9.48778C2.37331 9.47275 1.59627 9.2428 0.937973 8.88058C0.937973 8.89561 0.937973 8.91515 0.937973 8.93469C0.937973 11.3304 2.64685 13.3203 4.88777 13.7788C4.48648 13.8885 4.04912 13.9411 3.59522 13.9411C3.2796 13.9411 2.96097 13.923 2.66188 13.8569C3.30064 15.8093 5.11322 17.2446 7.26847 17.2912C5.59116 18.6033 3.46146 19.3938 1.1559 19.3938C0.751605 19.3938 0.36384 19.3758 -0.0239258 19.3262C2.15989 20.7345 4.748 21.5386 7.53901 21.5386C16.6109 21.5386 21.5707 14.0237 21.5707 7.50988C21.5707 7.29195 21.5632 7.08153 21.5527 6.87262C22.5311 6.17825 23.3532 5.31104 24.0236 4.31307Z" fill="white"/>
</g>
<defs>
<clipPath id="clip0">
<rect width="24" height="24" fill="white"/>
</clipPath>
</defs>
</svg>
