<svg width="128" height="128" viewBox="0 0 128 128" fill="none" xmlns="http://www.w3.org/2000/svg">
<circle cx="64" cy="64" r="64" fill="#6239DA"/>
<g filter="url(#filter0_b)">
<path d="M27 42.8262L63.6308 57.1536V99.5168L27 85.1894V42.8262Z" fill="url(#paint0_linear)"/>
</g>
<g filter="url(#filter1_b)">
<path d="M63.6311 57.1536L100.262 42.8262V84.9713L63.6311 99.5064V57.1536Z" fill="url(#paint1_linear)"/>
</g>
<path d="M63.6311 99.014L27.0002 84.6866L63.6311 69.8599L100.223 84.7333L63.6311 99.014Z" fill="url(#paint2_linear)"/>
<path d="M78.3756 69.4532C72.4762 75.3527 63.7416 76.3444 58.0464 72.0451C58.3958 72.5077 58.7756 72.9528 59.195 73.3722C64.7759 78.9531 74.4718 78.3068 80.8508 71.9284C87.2291 65.5494 87.8755 55.8536 82.294 50.2726C81.8751 49.8532 81.43 49.4735 80.9674 49.124C85.2667 54.8193 84.275 63.5538 78.3756 69.4532Z" fill="url(#paint3_linear)"/>
<path d="M79.8191 47.7975C85.4006 53.379 84.7543 63.0743 78.3753 69.4532C71.9964 75.8322 62.3011 76.4785 56.7196 70.897C51.1381 65.3155 51.7844 55.6202 58.1634 49.2413C64.5423 42.8623 74.2376 42.216 79.8191 47.7975Z" fill="#F0D365"/>
<path d="M66.516 70.7436C63.9794 70.7436 61.6658 69.7846 60 68.0436C56.1329 64.0006 56.67 56.8606 61.1975 52.1277C63.5996 49.6158 66.7734 48.1758 69.9051 48.1758C72.4417 48.1758 74.7553 49.1348 76.421 50.8758C80.2881 54.9188 79.7511 62.0588 75.2236 66.7917C72.822 69.3025 69.6482 70.7436 66.516 70.7436Z" fill="url(#paint4_linear)"/>
<path fill-rule="evenodd" clip-rule="evenodd" d="M60.0023 53.5551C60.3636 53.0603 60.7621 52.5829 61.1975 52.1277C61.5613 51.7473 61.9428 51.3914 62.3392 51.0614L63.0498 51.915C62.6858 52.218 62.335 52.5452 62.0002 52.8953C61.5989 53.3147 61.2318 53.7546 60.8994 54.21L60.0023 53.5551ZM63.784 50.0134L64.3739 50.9544C65.1969 50.4385 66.0627 50.0362 66.9459 49.7561L66.6102 48.6974C65.6344 49.0068 64.6836 49.4495 63.784 50.0134ZM68.348 48.2928L68.5124 49.3912C68.9771 49.3217 69.4424 49.2865 69.9051 49.2865C70.6056 49.2865 71.2828 49.3687 71.9259 49.5265L72.1906 48.4478C71.4588 48.2682 70.6927 48.1758 69.9051 48.1758C69.386 48.1758 68.8657 48.2153 68.348 48.2928ZM74.6224 49.4418L74.0527 50.3953C74.625 50.7372 75.1508 51.1548 75.6184 51.6435C75.9978 52.0402 76.3291 52.4714 76.6129 52.931L77.558 52.3475C77.2342 51.823 76.8554 51.3299 76.421 50.8758C75.8841 50.3146 75.2798 49.8346 74.6224 49.4418ZM78.4587 54.2712L77.4064 54.6267C77.7527 55.6516 77.9154 56.7647 77.8907 57.9145L79.0011 57.9383C79.0284 56.6691 78.8491 55.4269 78.4587 54.2712ZM78.7685 60.0517L77.679 59.8359C77.464 60.9213 77.0874 62.0063 76.5507 63.0456L77.5376 63.5552C78.1215 62.4245 78.5329 61.2407 78.7685 60.0517ZM76.4188 65.3643L75.5217 64.7094C75.1892 65.1648 74.8223 65.6045 74.421 66.0239C74.0862 66.374 73.7353 66.7012 73.3713 67.0042L74.0818 67.8578C74.4783 67.5279 74.8598 67.1721 75.2236 66.7917C75.659 66.3365 76.0575 65.8591 76.4188 65.3643ZM72.637 68.9058L72.0471 67.9648C71.2241 68.4806 70.3583 68.883 69.4751 69.1631L69.8108 70.2218C70.7866 69.9123 71.7375 69.4697 72.637 68.9058ZM68.073 70.6265L67.9086 69.5281C67.4439 69.5977 66.9786 69.6329 66.516 69.6329C65.8154 69.6329 65.1383 69.5507 64.4951 69.3929L64.2304 70.4715C64.9623 70.6511 65.7284 70.7436 66.516 70.7436C67.0351 70.7436 67.5553 70.704 68.073 70.6265ZM61.7987 69.4775L62.3683 68.5241C61.7961 68.1822 61.2702 67.7645 60.8027 67.2759M61.7987 69.4775C61.1413 69.0848 60.537 68.6048 60 68.0436C59.5657 67.5895 59.1869 67.0963 58.8631 66.5719L59.8082 65.9884C60.0919 66.4479 60.4233 66.8792 60.8027 67.2759M57.9624 64.6481L59.0147 64.2926C58.6684 63.2678 58.5056 62.1547 58.5303 61.0049L57.4199 60.9811C57.3927 62.2502 57.572 63.4925 57.9624 64.6481ZM57.6526 58.8677L58.7421 59.0835C58.9571 57.9981 59.3337 56.9131 59.8703 55.8738L58.8835 55.3642C58.2996 56.4949 57.8881 57.6787 57.6526 58.8677Z" fill="#D5A71C"/>
<path d="M65.37 74.9234C59.4705 80.8229 50.736 81.8146 45.0408 77.5153C45.3902 77.9779 45.77 78.423 46.1894 78.8424C51.7703 84.4233 61.4662 83.777 67.8451 77.3986C74.2235 71.0197 74.8699 61.3238 69.2883 55.7429C68.8695 55.3234 68.4244 54.9437 67.9618 54.5942C72.2611 60.2895 71.2694 69.024 65.37 74.9234Z" fill="url(#paint5_linear)"/>
<path d="M66.8135 53.2677C72.395 58.8492 71.7487 68.5445 65.3697 74.9234C58.9908 81.3024 49.2955 81.9487 43.714 76.3672C38.1325 70.7857 38.7788 61.0904 45.1578 54.7115C51.5367 48.3325 61.232 47.6862 66.8135 53.2677Z" fill="#FFE47E"/>
<path d="M53.5101 76.2138C50.9735 76.2138 48.6599 75.2548 46.9942 73.5138C43.1271 69.4708 43.6641 62.3308 48.1916 57.5979C50.5937 55.086 53.7675 53.646 56.8992 53.646C59.4358 53.646 61.7494 54.605 63.4152 56.346C67.2823 60.389 66.7453 67.529 62.2178 72.2619C59.8161 74.7728 56.6423 76.2138 53.5101 76.2138Z" fill="url(#paint6_linear)"/>
<path fill-rule="evenodd" clip-rule="evenodd" d="M46.9965 59.0253C47.3577 58.5305 47.7562 58.0531 48.1916 57.5979C48.5554 57.2175 48.9369 56.8616 49.3333 56.5316L50.0439 57.3852C49.6799 57.6882 49.3292 58.0154 48.9943 58.3655C48.5931 58.785 48.226 59.2248 47.8935 59.6802L46.9965 59.0253ZM50.7782 55.4836L51.3681 56.4246C52.1911 55.9087 53.0568 55.5064 53.94 55.2264L53.6043 54.1676C52.6286 54.4771 51.6777 54.9197 50.7782 55.4836ZM55.3422 53.763L55.5065 54.8615C55.9713 54.7919 56.4366 54.7567 56.8992 54.7567C57.5998 54.7567 58.2769 54.8389 58.9201 54.9967L59.1848 53.9181C58.4529 53.7384 57.6868 53.646 56.8992 53.646C56.3801 53.646 55.8599 53.6856 55.3422 53.763ZM61.6166 54.9121L61.0469 55.8655C61.6192 56.2074 62.145 56.6251 62.6126 57.1137C62.992 57.5104 63.3233 57.9416 63.6071 58.4012L64.5521 57.8177C64.2283 57.2933 63.8495 56.8001 63.4152 56.346C62.8782 55.7848 62.2739 55.3048 61.6166 54.9121ZM65.4528 59.7415L64.4006 60.0969C64.7468 61.1218 64.9096 62.2349 64.8849 63.3847L65.9953 63.4085C66.0226 62.1394 65.8432 60.8971 65.4528 59.7415ZM65.7626 65.5219L64.6731 65.3061C64.4581 66.3915 64.0815 67.4765 63.5449 68.5158L64.5318 69.0254C65.1156 67.8947 65.5271 66.7109 65.7626 65.5219ZM63.4129 70.8345L62.5158 70.1796C62.1834 70.635 61.8164 71.0747 61.4152 71.4942C61.0803 71.8443 60.7294 72.1714 60.3654 72.4744L61.076 73.3281C61.4724 72.9981 61.8539 72.6423 62.2178 72.2619C62.6532 71.8067 63.0517 71.3293 63.4129 70.8345ZM59.6311 74.3761L59.0412 73.435C58.2182 73.9509 57.3525 74.3532 56.4692 74.6333L56.805 75.692C57.7808 75.3826 58.7316 74.9399 59.6311 74.3761ZM55.0672 76.0968L54.9028 74.9983C54.4381 75.0679 53.9728 75.1031 53.5101 75.1031C52.8096 75.1031 52.1325 75.0209 51.4893 74.8631L51.2246 75.9418C51.9564 76.1214 52.7225 76.2138 53.5101 76.2138C54.0292 76.2138 54.5495 76.1742 55.0672 76.0968ZM48.7928 74.9478L49.3625 73.9943C48.7902 73.6524 48.2644 73.2348 47.7968 72.7461M48.7928 74.9478C48.1354 74.555 47.5311 74.075 46.9942 73.5138C46.5598 73.0597 46.1811 72.5665 45.8573 72.0421L46.8023 71.4586C47.086 71.9182 47.4174 72.3494 47.7968 72.7461M44.9566 70.1184L46.0088 69.7629C45.6626 68.738 45.4998 67.6249 45.5245 66.4751L44.4141 66.4513C44.3868 67.7204 44.5661 68.9627 44.9566 70.1184ZM44.6468 64.3379L45.7363 64.5537C45.9513 63.4683 46.3278 62.3833 46.8645 61.344L45.8776 60.8344C45.2938 61.9651 44.8823 63.1489 44.6468 64.3379Z" fill="#D5A71C"/>
<path d="M28.7161 43.3242L63.6113 56.9895M63.6113 56.9895L98.7926 43.3242M63.6113 56.9895V99.6715" stroke="url(#paint7_radial)" stroke-width="1.5"/>
<path d="M63.6311 57.1542L27.0002 42.8268L63.6311 28L100.223 42.8734L63.6311 57.1542Z" fill="url(#paint8_linear)"/>
<defs>
<filter id="filter0_b" x="23" y="38.8262" width="44.6308" height="64.6906" filterUnits="userSpaceOnUse" color-interpolation-filters="sRGB">
<feFlood flood-opacity="0" result="BackgroundImageFix"/>
<feGaussianBlur in="BackgroundImage" stdDeviation="2"/>
<feComposite in2="SourceAlpha" operator="in" result="effect1_backgroundBlur"/>
<feBlend mode="normal" in="SourceGraphic" in2="effect1_backgroundBlur" result="shape"/>
</filter>
<filter id="filter1_b" x="59.6311" y="38.8262" width="44.6308" height="64.6802" filterUnits="userSpaceOnUse" color-interpolation-filters="sRGB">
<feFlood flood-opacity="0" result="BackgroundImageFix"/>
<feGaussianBlur in="BackgroundImage" stdDeviation="2"/>
<feComposite in2="SourceAlpha" operator="in" result="effect1_backgroundBlur"/>
<feBlend mode="normal" in="SourceGraphic" in2="effect1_backgroundBlur" result="shape"/>
</filter>
<linearGradient id="paint0_linear" x1="45.3154" y1="42.8262" x2="45.3154" y2="99.5168" gradientUnits="userSpaceOnUse">
<stop stop-color="#B8BADE"/>
<stop offset="1" stop-color="#B8BADE" stop-opacity="0.55"/>
</linearGradient>
<linearGradient id="paint1_linear" x1="64.4221" y1="58.9899" x2="98.9205" y2="85.3023" gradientUnits="userSpaceOnUse">
<stop stop-color="#8F92CF"/>
<stop offset="1" stop-color="#8F92CF" stop-opacity="0.78"/>
</linearGradient>
<linearGradient id="paint2_linear" x1="63.6115" y1="69.8599" x2="63.6115" y2="99.014" gradientUnits="userSpaceOnUse">
<stop stop-color="#D5D6F1" stop-opacity="0.23"/>
<stop offset="1" stop-color="#D5D6F1"/>
</linearGradient>
<linearGradient id="paint3_linear" x1="76.5506" y1="57.0072" x2="76.06" y2="78.5938" gradientUnits="userSpaceOnUse">
<stop stop-color="#F4BF18"/>
<stop offset="1" stop-color="#AD870E"/>
</linearGradient>
<linearGradient id="paint4_linear" x1="68.2105" y1="48.1758" x2="68.2105" y2="70.7436" gradientUnits="userSpaceOnUse">
<stop offset="0.015625" stop-color="#F3CE5B"/>
<stop offset="1" stop-color="#E1BF53"/>
</linearGradient>
<linearGradient id="paint5_linear" x1="63.545" y1="62.4775" x2="63.0544" y2="84.0641" gradientUnits="userSpaceOnUse">
<stop stop-color="#F4BF1A"/>
<stop offset="1" stop-color="#CDA015"/>
</linearGradient>
<linearGradient id="paint6_linear" x1="55.2047" y1="53.646" x2="55.2047" y2="76.2138" gradientUnits="userSpaceOnUse">
<stop stop-color="#FFDC71"/>
<stop offset="1" stop-color="#F2CF62"/>
</linearGradient>
<radialGradient id="paint7_radial" cx="0" cy="0" r="1" gradientUnits="userSpaceOnUse" gradientTransform="translate(63.6113 57.0535) rotate(-20.8747) scale(36.1221 46.7034)">
<stop stop-color="white" stop-opacity="0.68"/>
<stop offset="1" stop-color="white" stop-opacity="0"/>
</radialGradient>
<linearGradient id="paint8_linear" x1="63.6115" y1="28" x2="63.6115" y2="57.1542" gradientUnits="userSpaceOnUse">
<stop stop-color="#D5D6F1"/>
<stop offset="1" stop-color="#D5D6F1" stop-opacity="0.17"/>
</linearGradient>
</defs>
</svg>
