<svg width="128" height="128" viewBox="0 0 128 128" fill="none" xmlns="http://www.w3.org/2000/svg">
<circle cx="64" cy="64" r="64" fill="#6239DA"/>
<circle cx="64" cy="64" r="64" fill="#6239DA"/>
<g filter="url(#filter0_b)">
<path d="M52.4765 50.0552L34.2546 57.3394L34.239 110.476L79.202 92.2251V70.2015L52.4765 81.0399V50.0552Z" fill="#8F92CF"/>
<path d="M52.4765 50.0552L34.2546 57.3394L34.239 110.476L79.202 92.2251V70.2015L52.4765 81.0399V50.0552Z" fill="url(#paint0_linear)"/>
</g>
<g filter="url(#filter1_b)">
<path d="M59.8701 53.1916L75.7274 47.0249V65.1646L59.8701 71.4207V53.1916Z" fill="#8F92CF"/>
<path d="M59.8701 53.1916L75.7274 47.0249V65.1646L59.8701 71.4207V53.1916Z" fill="url(#paint1_linear)"/>
</g>
<g filter="url(#filter2_b)">
<path d="M67.189 30.9141L79.3869 26.2891V39.8939L67.189 44.5859V30.9141Z" fill="#8F92CF"/>
<path d="M67.189 30.9141L79.3869 26.2891V39.8939L67.189 44.5859V30.9141Z" fill="url(#paint2_linear)"/>
</g>
<g filter="url(#filter3_b)">
<path d="M85.4485 22.3645L97.6835 17.7271V31.3546L85.4857 36.0467L85.4485 22.3645Z" fill="#8F92CF"/>
<path d="M85.4485 22.3645L97.6835 17.7271V31.3546L85.4857 36.0467L85.4485 22.3645Z" fill="url(#paint3_linear)"/>
</g>
<g filter="url(#filter4_b)">
<path d="M83.0464 45.5513L95.2443 40.9263V54.5311L83.0464 59.2231V45.5513Z" fill="#8F92CF"/>
<path d="M83.0464 45.5513L95.2443 40.9263V54.5311L83.0464 59.2231V45.5513Z" fill="url(#paint4_linear)"/>
</g>
<path fill-rule="evenodd" clip-rule="evenodd" d="M89.515 34.4952L85.4858 36.0451V31.5396C87.2395 31.6909 88.7097 32.8477 89.515 34.4952Z" fill="white"/>
<path fill-rule="evenodd" clip-rule="evenodd" d="M79.3866 32.7609V39.8927L74.3475 41.831C73.8671 40.8341 73.6291 39.6599 73.7173 38.4213C73.9545 35.0889 76.4624 32.5522 79.3187 32.7556C79.3414 32.7572 79.3641 32.759 79.3866 32.7609Z" fill="white"/>
<path fill-rule="evenodd" clip-rule="evenodd" d="M83.3388 50.9229C86.1952 51.1262 88.703 48.5895 88.9402 45.2571C88.9869 44.6017 88.9422 43.9644 88.8187 43.3618L83.0461 45.5506V50.8924C83.1428 50.9057 83.2404 50.9159 83.3388 50.9229Z" fill="white"/>
<path d="M64.1395 66.5405L62.9197 70.1999L65.9691 68.9801L64.1395 66.5405Z" fill="white"/>
<mask id="mask0" mask-type="alpha" maskUnits="userSpaceOnUse" x="34" y="50" width="46" height="61">
<path d="M52.4765 50.0557L34.2546 57.3399V110.454L79.202 92.2255V70.202L52.4765 81.0404V50.0557Z" fill="#8F92CF"/>
<path d="M52.4765 50.0557L34.2546 57.3399V110.454L79.202 92.2255V70.202L52.4765 81.0404V50.0557Z" fill="url(#paint5_linear)"/>
</mask>
<g mask="url(#mask0)">
<path d="M50.0533 76.1011L42.6824 96.4077L77.7975 82.8119L64.3615 65.5063L57.8577 83.2378L50.0533 76.1011Z" fill="white"/>
</g>
<path d="M83.426 21.2298L95.6611 16.5923L97.6838 17.727L85.4488 22.3645L83.426 21.2298Z" fill="#4BABB1"/>
<path d="M65.1904 29.7649L77.4255 25.1274L79.4482 26.2621L67.2132 30.8996L65.1904 29.7649Z" fill="#4BABB1"/>
<path d="M80.9775 44.4671L93.2126 39.8296L95.2353 40.9643L83.0003 45.6018L80.9775 44.4671Z" fill="#4BABB1"/>
<path d="M57.8704 52.0643L73.7068 45.8975L75.7296 47.0322L59.8931 53.199L57.8704 52.0643Z" fill="#4BABB1"/>
<path d="M32.2888 56.2581L50.4703 48.9072L52.493 50.0419L34.3115 57.3928L32.2888 56.2581Z" fill="#4BABB1"/>
<path d="M85.498 36.0305L85.4487 22.3648L83.426 21.2301L83.5933 34.6855L85.498 36.0305Z" fill="#3A8E94"/>
<path d="M67.2627 44.5657L67.2133 30.8999L65.1906 29.7652L65.3579 43.2206L67.2627 44.5657Z" fill="#3A8E94"/>
<path d="M83.0495 59.2663L83.0002 45.6006L80.9775 44.4659L81.1448 57.9213L83.0495 59.2663Z" fill="#3A8E94"/>
<path d="M59.874 71.416L59.8933 53.1985L57.8706 52.0638L57.9693 70.0709L59.874 71.416Z" fill="#3A8E94"/>
<path d="M34.2391 110.477L34.3116 57.3923L32.2888 56.2576L32.5617 109.194L34.2391 110.477Z" fill="#3A8E94"/>
<defs>
<filter id="filter0_b" x="30.239" y="46.0552" width="52.9629" height="68.4208" filterUnits="userSpaceOnUse" color-interpolation-filters="sRGB">
<feFlood flood-opacity="0" result="BackgroundImageFix"/>
<feGaussianBlur in="BackgroundImage" stdDeviation="2"/>
<feComposite in2="SourceAlpha" operator="in" result="effect1_backgroundBlur"/>
<feBlend mode="normal" in="SourceGraphic" in2="effect1_backgroundBlur" result="shape"/>
</filter>
<filter id="filter1_b" x="55.8701" y="43.0249" width="23.8573" height="32.3958" filterUnits="userSpaceOnUse" color-interpolation-filters="sRGB">
<feFlood flood-opacity="0" result="BackgroundImageFix"/>
<feGaussianBlur in="BackgroundImage" stdDeviation="2"/>
<feComposite in2="SourceAlpha" operator="in" result="effect1_backgroundBlur"/>
<feBlend mode="normal" in="SourceGraphic" in2="effect1_backgroundBlur" result="shape"/>
</filter>
<filter id="filter2_b" x="63.189" y="22.2891" width="20.1979" height="26.2968" filterUnits="userSpaceOnUse" color-interpolation-filters="sRGB">
<feFlood flood-opacity="0" result="BackgroundImageFix"/>
<feGaussianBlur in="BackgroundImage" stdDeviation="2"/>
<feComposite in2="SourceAlpha" operator="in" result="effect1_backgroundBlur"/>
<feBlend mode="normal" in="SourceGraphic" in2="effect1_backgroundBlur" result="shape"/>
</filter>
<filter id="filter3_b" x="81.4485" y="13.7271" width="20.2351" height="26.3196" filterUnits="userSpaceOnUse" color-interpolation-filters="sRGB">
<feFlood flood-opacity="0" result="BackgroundImageFix"/>
<feGaussianBlur in="BackgroundImage" stdDeviation="2"/>
<feComposite in2="SourceAlpha" operator="in" result="effect1_backgroundBlur"/>
<feBlend mode="normal" in="SourceGraphic" in2="effect1_backgroundBlur" result="shape"/>
</filter>
<filter id="filter4_b" x="79.0464" y="36.9263" width="20.1979" height="26.2968" filterUnits="userSpaceOnUse" color-interpolation-filters="sRGB">
<feFlood flood-opacity="0" result="BackgroundImageFix"/>
<feGaussianBlur in="BackgroundImage" stdDeviation="2"/>
<feComposite in2="SourceAlpha" operator="in" result="effect1_backgroundBlur"/>
<feBlend mode="normal" in="SourceGraphic" in2="effect1_backgroundBlur" result="shape"/>
</filter>
<linearGradient id="paint0_linear" x1="56.7283" y1="50.0552" x2="34.9565" y2="108.334" gradientUnits="userSpaceOnUse">
<stop stop-color="#72D0D6"/>
<stop offset="1" stop-color="#40A0A6"/>
</linearGradient>
<linearGradient id="paint1_linear" x1="67.7987" y1="47.0249" x2="58.0997" y2="69.7015" gradientUnits="userSpaceOnUse">
<stop stop-color="#72D0D6"/>
<stop offset="1" stop-color="#40A0A6"/>
</linearGradient>
<linearGradient id="paint2_linear" x1="73.2879" y1="26.2891" x2="66.1409" y2="43.4274" gradientUnits="userSpaceOnUse">
<stop stop-color="#72D0D6"/>
<stop offset="1" stop-color="#40A0A6"/>
</linearGradient>
<linearGradient id="paint3_linear" x1="91.5846" y1="17.7498" x2="84.4376" y2="34.8881" gradientUnits="userSpaceOnUse">
<stop stop-color="#72D0D6"/>
<stop offset="1" stop-color="#40A0A6"/>
</linearGradient>
<linearGradient id="paint4_linear" x1="89.1453" y1="40.9263" x2="81.9983" y2="58.0646" gradientUnits="userSpaceOnUse">
<stop stop-color="#72D0D6"/>
<stop offset="1" stop-color="#40A0A6"/>
</linearGradient>
<linearGradient id="paint5_linear" x1="56.7283" y1="50.0557" x2="34.9565" y2="108.334" gradientUnits="userSpaceOnUse">
<stop stop-color="#72D0D6"/>
<stop offset="1" stop-color="#40A0A6"/>
</linearGradient>
</defs>
</svg>
