<svg width="128" height="128" viewBox="0 0 128 128" fill="none" xmlns="http://www.w3.org/2000/svg">
<circle cx="64" cy="64" r="64" fill="#6239DA"/>
<circle cx="64" cy="64" r="64" fill="#6239DA"/>
<mask id="mask0" mask-type="alpha" maskUnits="userSpaceOnUse" x="0" y="0" width="128" height="128">
<circle cx="64" cy="64" r="64" fill="#6239DA"/>
<circle cx="64" cy="64" r="64" fill="#6239DA"/>
</mask>
<g mask="url(#mask0)">
<g clip-path="url(#clip0)">
<path d="M58.4255 80.7923L61.9632 79.5635L66.4594 81.9529L62.9218 83.1818L58.4255 80.7923Z" fill="#3C3E6F"/>
<path d="M70.0199 86.9369L73.5576 85.708L73.5347 89.5994L69.9971 90.851L70.0199 86.9369Z" fill="#2F3056"/>
<path d="M66.0488 84.8434L69.5637 83.5918L73.5578 85.7081L70.0201 86.937L66.0488 84.8434Z" fill="#262745"/>
<path d="M83.5276 56.2147L87.0652 54.9858L69.5637 83.592L66.0488 84.8436L83.5276 56.2147Z" fill="#2F3056"/>
<path d="M98.1387 101.842L101.676 100.613L105.351 102.57L101.813 103.799L98.1387 101.842Z" fill="#2F3056"/>
<path d="M90.47 55.3509C90.4016 55.1916 90.3559 55.0323 90.2875 54.8731C90.2646 54.8503 90.2646 54.8275 90.2418 54.782C90.1733 54.6227 90.1049 54.4862 90.0364 54.3497C90.0364 54.3269 90.0364 54.3269 90.0136 54.3041C89.9907 54.2814 89.9679 54.2359 89.9679 54.2131C89.9451 54.1676 89.9223 54.1221 89.8995 54.0766C89.8995 54.0538 89.8766 54.0538 89.8766 54.0311C89.8538 53.9856 89.831 53.94 89.8082 53.8945C89.7853 53.8718 89.7853 53.849 89.7625 53.8263C89.7625 53.8263 89.7625 53.8035 89.7397 53.8035C89.694 53.7352 89.6484 53.667 89.6027 53.5987C89.6027 53.5759 89.5799 53.5759 89.5799 53.5532C89.5571 53.5077 89.5114 53.4622 89.4886 53.3939C89.4886 53.3711 89.4658 53.3711 89.4658 53.3484C89.443 53.3256 89.4202 53.3029 89.4202 53.2801C89.3973 53.2573 89.3745 53.2346 89.3517 53.1891C89.3289 53.1663 89.3289 53.1436 89.306 53.1208C89.2832 53.0981 89.2604 53.0753 89.2376 53.0298C89.2147 53.007 89.2147 53.007 89.1919 52.9843C89.1691 52.9615 89.1463 52.916 89.1006 52.8932C89.0778 52.8705 89.055 52.8477 89.055 52.825L89.0322 52.8022C88.9865 52.7339 88.918 52.6884 88.8724 52.6202C88.8724 52.6202 88.8724 52.6202 88.8496 52.5974C88.8039 52.5519 88.7583 52.5064 88.7126 52.4609L88.6898 52.4381C88.667 52.4154 88.6442 52.4154 88.6442 52.3926C88.6213 52.3698 88.5985 52.3471 88.5757 52.3243C88.5529 52.3016 88.53 52.2788 88.5072 52.2561C88.4844 52.2333 88.4844 52.2333 88.4616 52.2106L88.4387 52.1878C88.3931 52.1423 88.3474 52.0968 88.3018 52.074C88.3018 52.074 88.3018 52.074 88.279 52.074L88.2562 52.0513C88.2333 52.0285 88.1877 52.0057 88.1649 51.983C88.142 51.9602 88.1192 51.9602 88.0964 51.9375C88.0736 51.9375 88.0736 51.9147 88.0507 51.9147C88.0279 51.9147 88.0279 51.892 88.0051 51.892C87.9594 51.8692 87.9138 51.8237 87.8682 51.8009C87.8682 51.8009 87.8682 51.8009 87.8453 51.8009L87.8225 51.7782C87.7997 51.7554 87.754 51.7327 87.7312 51.7099C87.7084 51.6872 87.6627 51.6644 87.6399 51.6644C87.6171 51.6644 87.6171 51.6416 87.5943 51.6416C87.5486 51.6189 87.503 51.5961 87.4573 51.5734C87.4117 51.5279 87.3889 51.5279 87.3889 51.5279C87.366 51.5279 87.366 51.5051 87.3432 51.5051C87.3204 51.5051 87.2976 51.4823 87.2976 51.4823C87.2519 51.4596 87.2063 51.4368 87.1606 51.4368H87.1378C87.0922 51.4141 87.0693 51.4141 87.0237 51.3913C87.0009 51.3913 86.978 51.3913 86.9552 51.3686C86.9324 51.3686 86.9324 51.3686 86.9096 51.3458C86.8867 51.3458 86.8867 51.3458 86.8639 51.3458C86.8183 51.3458 86.7498 51.323 86.7041 51.323H86.6813C86.6357 51.323 86.59 51.323 86.5444 51.3003C86.5216 51.3003 86.5216 51.3003 86.4987 51.3003C86.4759 51.3003 86.4531 51.3003 86.4303 51.3003C86.4074 51.3003 86.3846 51.3003 86.3618 51.3003C86.339 51.3003 86.339 51.3003 86.3161 51.3003C86.2705 51.3003 86.2477 51.3003 86.202 51.3003C86.1792 51.3003 86.1564 51.3003 86.1336 51.3003C86.1107 51.3003 86.1107 51.3003 86.0879 51.3003C86.0194 51.3003 85.9738 51.323 85.9281 51.3458C85.9053 51.3458 85.8825 51.3458 85.8825 51.3686C85.8597 51.3686 85.8597 51.3686 85.8369 51.3913L82.322 52.6202C82.3448 52.6202 82.3905 52.5974 82.4133 52.5974C82.459 52.5747 82.5274 52.5747 82.5731 52.5519C82.5959 52.5519 82.6416 52.5291 82.6644 52.5291C82.6872 52.5291 82.7328 52.5291 82.7557 52.5291C82.8013 52.5291 82.847 52.5291 82.8698 52.5291C82.8926 52.5291 82.9154 52.5291 82.9383 52.5291C82.9839 52.5291 83.0524 52.5291 83.1208 52.5519H83.1437C83.2121 52.5519 83.2806 52.5747 83.3491 52.5974C83.3719 52.5974 83.3719 52.5974 83.3947 52.6202C83.4632 52.6429 83.5317 52.6429 83.5773 52.6657H83.6001C83.6686 52.6884 83.7371 52.7112 83.8056 52.7567C83.8284 52.7567 83.8284 52.7795 83.8512 52.7795C83.9197 52.8022 84.011 52.8477 84.0794 52.8932C84.1479 52.9388 84.2164 52.9615 84.2848 53.007C84.2848 53.007 84.3077 53.007 84.3077 53.0298C84.3761 53.0753 84.4446 53.1208 84.4903 53.1663C84.5131 53.1663 84.5131 53.1891 84.5359 53.1891C84.5816 53.2346 84.65 53.2801 84.6957 53.3029L84.7185 53.3256C84.787 53.3711 84.8326 53.4166 84.9011 53.4849C84.9239 53.5077 84.9239 53.5077 84.9467 53.5304C84.9924 53.5759 85.038 53.6214 85.0837 53.667C85.1065 53.6897 85.1293 53.6897 85.1293 53.7125C85.1978 53.7807 85.2434 53.8263 85.2891 53.8945C85.2891 53.8945 85.2891 53.8945 85.2891 53.9173C85.3576 53.9856 85.4032 54.0538 85.4717 54.1221C85.4945 54.1448 85.5173 54.1676 85.5173 54.1904C85.563 54.2359 85.6086 54.2814 85.6314 54.3497C85.6543 54.3724 85.6771 54.3952 85.6999 54.4407C85.7456 54.4862 85.7684 54.5317 85.814 54.6C85.8369 54.6227 85.8597 54.6455 85.8597 54.6682C85.9053 54.7365 85.951 54.8048 85.9966 54.8503C85.9966 54.8731 86.0194 54.8731 86.0194 54.8958C86.0651 54.9868 86.1107 55.0551 86.1792 55.1461C86.202 55.1689 86.202 55.1916 86.2249 55.2144C86.2705 55.2827 86.2933 55.3282 86.3161 55.3965C86.339 55.442 86.3618 55.4875 86.3846 55.533C86.4074 55.5785 86.4303 55.624 86.4531 55.6695C86.5216 55.8061 86.59 55.9654 86.6585 56.1019C86.6813 56.1247 86.6813 56.1474 86.7041 56.1929C86.7726 56.3522 86.8411 56.5115 86.8867 56.6708L104.94 105.461L108.455 104.232L90.47 55.3509Z" fill="url(#paint0_linear)"/>
<path d="M104.94 105.461L108.478 104.232L113.271 106.758L109.733 108.01L104.94 105.461Z" fill="#3C3E6F"/>
<path d="M84.0794 52.8426C85.2434 53.4571 86.3161 54.8452 86.9551 56.5747L104.94 105.456L109.733 108.004L109.71 111.896L98.1159 105.751L98.1387 101.86L101.813 103.794L84.7641 57.4622C84.5358 56.8705 84.2163 56.6202 84.0565 56.5519C83.9196 56.4837 83.5773 56.3471 83.349 56.7112L66.0487 84.8382L70.02 86.9545L69.9972 90.8459L58.4028 84.6789L58.4257 80.7875L62.9219 83.177L81.1808 53.5481C81.8198 52.5013 82.9154 52.251 84.0794 52.8426Z" fill="#404273"/>
<path d="M109.733 108.009L113.271 106.758L113.248 110.672L109.71 111.901L109.733 108.009Z" fill="#2F3056"/>
</g>
<g clip-path="url(#clip1)">
<path d="M99.5592 32.9152L110.599 66.4265L99.1998 87.9971L76.7872 76.0819L65.7734 42.5962L77.1466 21L99.5592 32.9152Z" fill="#B2B2CC" fill-opacity="0.4"/>
<path d="M66.7863 81.7316L110.405 66.4268L99.006 87.9973L55.3875 103.302L66.7863 81.7316Z" fill="url(#paint1_linear)" fill-opacity="0.6"/>
<ellipse cx="81.7325" cy="75.7325" rx="5.73247" ry="5.73246" fill="url(#paint2_radial)"/>
<ellipse cx="69.0489" cy="84.4668" rx="5.73247" ry="5.73247" fill="url(#paint3_radial)"/>
<circle cx="86.2464" cy="62.356" r="5.73247" fill="#E96594"/>
<ellipse cx="63.3166" cy="53.3476" rx="4.91354" ry="4.91354" fill="url(#paint4_radial)"/>
<circle cx="49.3948" cy="74.23" r="5.73247" fill="url(#paint5_radial)"/>
<ellipse cx="70.2774" cy="58.2613" rx="5.73247" ry="5.73247" fill="url(#paint6_radial)"/>
<ellipse cx="63.3164" cy="74.6399" rx="5.323" ry="5.32301" fill="url(#paint7_radial)"/>
<path d="M55.7466 48.2198L99.3652 32.915L110.405 66.4264L66.786 81.7312L55.7466 48.2198Z" fill="#D3CCEB" fill-opacity="0.5"/>
<path d="M33.3342 36.3048L76.9785 21L99.3654 32.9152L55.7468 48.22L33.3342 36.3048Z" fill="url(#paint8_linear)" fill-opacity="0.5"/>
<path d="M55.7467 48.2198L66.7862 81.7312L55.3873 103.302L32.9747 91.3866L21.9609 57.9009L33.3341 36.3047L55.7467 48.2198Z" fill="url(#paint9_linear)" fill-opacity="0.8"/>
<path d="M35.5 36.5L56.5 47.5M56.5 47.5L67.5 81M56.5 47.5L100 33" stroke="url(#paint10_radial)" stroke-width="2"/>
</g>
<path d="M15.0229 92.6673L18.5606 91.4385L23.0569 93.8279L19.5192 95.0568L15.0229 92.6673Z" fill="#3C3E6F"/>
<path d="M26.6171 98.8109L30.1547 97.582L30.1319 101.473L26.5942 102.725L26.6171 98.8109Z" fill="#2F3056"/>
<path d="M22.646 96.7174L26.1608 95.4658L30.155 97.5822L26.6173 98.811L22.646 96.7174Z" fill="#262745"/>
<path d="M40.1248 68.0887L43.6624 66.8599L26.1608 95.466L22.646 96.7176L40.1248 68.0887Z" fill="#2F3056"/>
<path d="M54.7358 113.717L58.2735 112.488L61.9481 114.445L58.4104 115.674L54.7358 113.717Z" fill="#2F3056"/>
<path d="M47.0672 67.2254C46.9987 67.0662 46.9531 66.9069 46.8846 66.7476C46.8618 66.7248 46.8618 66.7021 46.839 66.6565C46.7705 66.4972 46.702 66.3607 46.6336 66.2242C46.6336 66.2014 46.6336 66.2014 46.6107 66.1787C46.5879 66.1559 46.5651 66.1104 46.5651 66.0876C46.5423 66.0421 46.5194 65.9966 46.4966 65.9511C46.4966 65.9283 46.4738 65.9283 46.4738 65.9056C46.451 65.8601 46.4282 65.8146 46.4053 65.769C46.3825 65.7463 46.3825 65.7235 46.3597 65.7008C46.3597 65.7008 46.3597 65.678 46.3369 65.678C46.2912 65.6097 46.2456 65.5415 46.1999 65.4732C46.1999 65.4504 46.1771 65.4504 46.1771 65.4277C46.1543 65.3822 46.1086 65.3367 46.0858 65.2684C46.0858 65.2456 46.063 65.2456 46.063 65.2229C46.0402 65.2001 46.0173 65.1774 46.0173 65.1546C45.9945 65.1319 45.9717 65.1091 45.9489 65.0636C45.926 65.0408 45.926 65.0181 45.9032 64.9953C45.8804 64.9726 45.8576 64.9498 45.8347 64.9043C45.8119 64.8815 45.8119 64.8815 45.7891 64.8588C45.7663 64.836 45.7434 64.7905 45.6978 64.7678C45.675 64.745 45.6521 64.7222 45.6521 64.6995L45.6293 64.6767C45.5837 64.6085 45.5152 64.5629 45.4696 64.4947C45.4696 64.4947 45.4696 64.4947 45.4467 64.4719C45.4011 64.4264 45.3554 64.3809 45.3098 64.3354L45.287 64.3126C45.2641 64.2899 45.2413 64.2899 45.2413 64.2671C45.2185 64.2444 45.1957 64.2216 45.1729 64.1988C45.15 64.1761 45.1272 64.1533 45.1044 64.1306C45.0816 64.1078 45.0816 64.1078 45.0587 64.0851L45.0359 64.0623C44.9903 64.0168 44.9446 63.9713 44.899 63.9485C44.899 63.9485 44.899 63.9485 44.8761 63.9485L44.8533 63.9258C44.8305 63.903 44.7849 63.8803 44.762 63.8575C44.7392 63.8347 44.7164 63.8347 44.6936 63.812C44.6707 63.812 44.6707 63.7892 44.6479 63.7892C44.6251 63.7892 44.6251 63.7665 44.6023 63.7665C44.5566 63.7437 44.511 63.6982 44.4653 63.6754C44.4653 63.6754 44.4653 63.6754 44.4425 63.6754L44.4197 63.6527C44.3968 63.6299 44.3512 63.6072 44.3284 63.5844C44.3056 63.5617 44.2599 63.5389 44.2371 63.5389C44.2143 63.5389 44.2143 63.5162 44.1914 63.5162C44.1458 63.4934 44.1001 63.4706 44.0545 63.4479C44.0089 63.4024 43.986 63.4024 43.986 63.4024C43.9632 63.4024 43.9632 63.3796 43.9404 63.3796C43.9176 63.3796 43.8947 63.3569 43.8947 63.3569C43.8491 63.3341 43.8034 63.3113 43.7578 63.3113H43.735C43.6893 63.2886 43.6665 63.2886 43.6208 63.2658C43.598 63.2658 43.5752 63.2658 43.5524 63.2431C43.5296 63.2431 43.5296 63.2431 43.5067 63.2203C43.4839 63.2203 43.4839 63.2203 43.4611 63.2203C43.4154 63.2203 43.347 63.1976 43.3013 63.1976H43.2785C43.2328 63.1976 43.1872 63.1976 43.1416 63.1748C43.1187 63.1748 43.1187 63.1748 43.0959 63.1748C43.0731 63.1748 43.0503 63.1748 43.0274 63.1748C43.0046 63.1748 42.9818 63.1748 42.959 63.1748C42.9361 63.1748 42.9361 63.1748 42.9133 63.1748C42.8677 63.1748 42.8448 63.1748 42.7992 63.1748C42.7764 63.1748 42.7536 63.1748 42.7307 63.1748C42.7079 63.1748 42.7079 63.1748 42.6851 63.1748C42.6166 63.1748 42.571 63.1976 42.5253 63.2203C42.5025 63.2203 42.4797 63.2203 42.4797 63.2431C42.4568 63.2431 42.4568 63.2431 42.434 63.2658L38.9192 64.4947C38.942 64.4947 38.9877 64.4719 39.0105 64.4719C39.0561 64.4492 39.1246 64.4492 39.1702 64.4264C39.1931 64.4264 39.2387 64.4037 39.2615 64.4037C39.2844 64.4037 39.33 64.4037 39.3528 64.4037C39.3985 64.4037 39.4441 64.4037 39.467 64.4037C39.4898 64.4037 39.5126 64.4037 39.5354 64.4037C39.5811 64.4037 39.6495 64.4037 39.718 64.4264H39.7408C39.8093 64.4264 39.8778 64.4492 39.9463 64.4719C39.9691 64.4719 39.9691 64.4719 39.9919 64.4947C40.0604 64.5174 40.1288 64.5174 40.1745 64.5402H40.1973C40.2658 64.5629 40.3343 64.5857 40.4027 64.6312C40.4255 64.6312 40.4255 64.654 40.4484 64.654C40.5168 64.6767 40.6081 64.7222 40.6766 64.7678C40.7451 64.8133 40.8135 64.836 40.882 64.8815C40.882 64.8815 40.9048 64.8815 40.9048 64.9043C40.9733 64.9498 41.0418 64.9953 41.0874 65.0408C41.1103 65.0408 41.1103 65.0636 41.1331 65.0636C41.1787 65.1091 41.2472 65.1546 41.2928 65.1774L41.3157 65.2001C41.3841 65.2456 41.4298 65.2912 41.4983 65.3594C41.5211 65.3822 41.5211 65.3822 41.5439 65.4049C41.5895 65.4504 41.6352 65.496 41.6808 65.5415C41.7037 65.5642 41.7265 65.5642 41.7265 65.587C41.795 65.6553 41.8406 65.7008 41.8863 65.769C41.8863 65.769 41.8863 65.769 41.8863 65.7918C41.9547 65.8601 42.0004 65.9283 42.0688 65.9966C42.0917 66.0194 42.1145 66.0421 42.1145 66.0649C42.1601 66.1104 42.2058 66.1559 42.2286 66.2242C42.2514 66.2469 42.2743 66.2697 42.2971 66.3152C42.3427 66.3607 42.3656 66.4062 42.4112 66.4745C42.434 66.4972 42.4568 66.52 42.4568 66.5428C42.5025 66.611 42.5481 66.6793 42.5938 66.7248C42.5938 66.7476 42.6166 66.7476 42.6166 66.7703C42.6623 66.8613 42.7079 66.9296 42.7764 67.0206C42.7992 67.0434 42.7992 67.0662 42.822 67.0889C42.8677 67.1572 42.8905 67.2027 42.9133 67.271C42.9361 67.3165 42.959 67.362 42.9818 67.4075C43.0046 67.453 43.0274 67.4985 43.0503 67.544C43.1187 67.6806 43.1872 67.8399 43.2557 67.9764C43.2785 67.9992 43.2785 68.0219 43.3013 68.0674C43.3698 68.2267 43.4383 68.386 43.4839 68.5453L61.5374 117.335L65.0522 116.106L47.0672 67.2254Z" fill="url(#paint11_linear)"/>
<path d="M61.5374 117.335L65.075 116.106L69.868 118.632L66.3303 119.884L61.5374 117.335Z" fill="#3C3E6F"/>
<path d="M40.6765 64.7171C41.8405 65.3316 42.9132 66.7197 43.5523 68.4492L61.5373 117.33L66.3302 119.879L66.3074 123.77L54.713 117.626L54.7359 113.735L58.4105 115.669L41.3612 69.3367C41.133 68.745 40.8135 68.4947 40.6537 68.4264C40.5168 68.3582 40.1744 68.2216 39.9462 68.5857L22.6459 96.7127L26.6172 98.829L26.5944 102.72L15 96.5534L15.0228 92.662L19.5191 95.0515L37.7779 65.4226C38.417 64.3758 39.5125 64.1255 40.6765 64.7171Z" fill="#404273"/>
<path d="M66.3304 119.883L69.8681 118.632L69.8453 122.546L66.3076 123.775L66.3304 119.883Z" fill="#2F3056"/>
</g>
<defs>
<linearGradient id="paint0_linear" x1="95.3885" y1="51.3003" x2="95.3885" y2="105.461" gradientUnits="userSpaceOnUse">
<stop stop-color="#4F517A"/>
<stop offset="0.244792" stop-color="#2F3156"/>
</linearGradient>
<linearGradient id="paint1_linear" x1="82.8962" y1="66.4268" x2="82.8962" y2="103.302" gradientUnits="userSpaceOnUse">
<stop stop-color="#9285C8"/>
<stop offset="1" stop-color="#725CC8"/>
</linearGradient>
<radialGradient id="paint2_radial" cx="0" cy="0" r="1" gradientUnits="userSpaceOnUse" gradientTransform="translate(81.7325 75.7325) rotate(90) scale(5.73246)">
<stop stop-color="#5849FF"/>
<stop offset="1" stop-color="#2C1AFF"/>
</radialGradient>
<radialGradient id="paint3_radial" cx="0" cy="0" r="1" gradientUnits="userSpaceOnUse" gradientTransform="translate(69.0489 84.4668) rotate(90) scale(5.73247)">
<stop stop-color="#FF6CA1"/>
<stop offset="1" stop-color="#F54082"/>
</radialGradient>
<radialGradient id="paint4_radial" cx="0" cy="0" r="1" gradientUnits="userSpaceOnUse" gradientTransform="translate(63.3166 53.3476) rotate(90) scale(4.91354)">
<stop stop-color="#FF6CA1"/>
<stop offset="1" stop-color="#F54082"/>
</radialGradient>
<radialGradient id="paint5_radial" cx="0" cy="0" r="1" gradientUnits="userSpaceOnUse" gradientTransform="translate(49.3948 74.23) rotate(90) scale(5.73247)">
<stop stop-color="#5849FF"/>
<stop offset="1" stop-color="#2C1AFF"/>
</radialGradient>
<radialGradient id="paint6_radial" cx="0" cy="0" r="1" gradientUnits="userSpaceOnUse" gradientTransform="translate(70.2774 58.2613) rotate(90) scale(5.73247)">
<stop stop-color="#5849FF"/>
<stop offset="1" stop-color="#2C1AFF"/>
</radialGradient>
<radialGradient id="paint7_radial" cx="0" cy="0" r="1" gradientUnits="userSpaceOnUse" gradientTransform="translate(63.3164 74.6399) rotate(90) scale(5.32301)">
<stop stop-color="#FF6CA1"/>
<stop offset="1" stop-color="#F54082"/>
</radialGradient>
<linearGradient id="paint8_linear" x1="65.1232" y1="27.835" x2="63.3006" y2="59.2758" gradientUnits="userSpaceOnUse">
<stop stop-color="#D3CCEB"/>
<stop offset="1" stop-color="#D3CCEB" stop-opacity="0"/>
</linearGradient>
<linearGradient id="paint9_linear" x1="44.3735" y1="36.3047" x2="44.3735" y2="103.302" gradientUnits="userSpaceOnUse">
<stop stop-color="#E4DDFF"/>
<stop offset="1" stop-color="#E4DDFF" stop-opacity="0.51"/>
</linearGradient>
<radialGradient id="paint10_radial" cx="0" cy="0" r="1" gradientUnits="userSpaceOnUse" gradientTransform="translate(58.5 48.5) rotate(79.2157) scale(21.3776 28.5034)">
<stop stop-color="white"/>
<stop offset="1" stop-color="white" stop-opacity="0"/>
</radialGradient>
<linearGradient id="paint11_linear" x1="51.9857" y1="63.1748" x2="51.9857" y2="117.335" gradientUnits="userSpaceOnUse">
<stop stop-color="#4F517A"/>
<stop offset="0.244792" stop-color="#2F3156"/>
</linearGradient>
<clipPath id="clip0">
<rect width="54.8679" height="60.6004" fill="white" transform="translate(58.4028 51.3003)"/>
</clipPath>
<clipPath id="clip1">
<rect width="88.4438" height="82.3019" fill="white" transform="translate(21.9609 21)"/>
</clipPath>
</defs>
</svg>
