<svg width="128" height="128" viewBox="0 0 128 128" fill="none" xmlns="http://www.w3.org/2000/svg">
<circle cx="64" cy="64" r="64" fill="#6239DA"/>
<circle cx="64" cy="64" r="64" fill="#6239DA"/>
<mask id="mask0" mask-type="alpha" maskUnits="userSpaceOnUse" x="0" y="0" width="128" height="128">
<circle cx="64" cy="64" r="64" fill="#6239DA"/>
<circle cx="64" cy="64" r="64" fill="#6239DA"/>
</mask>
<g mask="url(#mask0)">
<path d="M95.0658 101.615C95.0658 101.182 95.0403 100.724 95.0149 100.292C95.0149 100.266 95.0149 100.266 95.0149 100.241C94.9894 99.8848 94.964 99.5032 94.9385 99.1471C94.9385 99.0453 94.9131 98.9435 94.9131 98.8418C94.8877 98.6891 94.8877 98.5619 94.8622 98.4093C94.8368 98.2566 94.8368 98.104 94.8113 97.9513C94.7859 97.8496 94.7859 97.7478 94.7605 97.6206C94.7096 97.239 94.6587 96.8828 94.6078 96.5012V96.4757C94.6078 96.4249 94.5824 96.3994 94.5824 96.3485C94.5315 96.0178 94.4552 95.6616 94.4043 95.3309C94.3788 95.2037 94.3534 95.0765 94.3279 94.9747C94.3025 94.8221 94.2771 94.6694 94.2262 94.5168C94.2007 94.415 94.1753 94.3132 94.1499 94.2115C94.1244 94.0588 94.0735 93.9062 94.0227 93.7535C93.9718 93.5246 93.8955 93.2702 93.8446 93.0412C93.7937 92.8885 93.7682 92.7359 93.7174 92.5832C93.6919 92.5069 93.6919 92.456 93.6665 92.3797C93.6156 92.2271 93.5647 92.0999 93.5393 91.9472C93.4884 91.7437 93.4121 91.5402 93.3612 91.3366C93.2849 91.1331 93.234 90.9296 93.1577 90.726C93.0813 90.5225 93.0305 90.319 92.9541 90.1409C92.9287 90.09 92.9032 90.0137 92.9032 89.9628C92.8015 89.683 92.6997 89.4285 92.598 89.1487C92.5725 89.0978 92.5725 89.0469 92.5471 89.0215C92.4199 88.7162 92.2927 88.3855 92.14 88.0802C92.1146 88.0038 92.0891 87.953 92.0637 87.8766C91.9365 87.5968 91.8093 87.2915 91.6566 87.0116C91.6312 86.9862 91.6312 86.9353 91.6058 86.9099C91.4785 86.6555 91.3513 86.3756 91.1987 86.1212C91.1224 85.994 91.0715 85.8413 90.9952 85.7141C90.7916 85.358 90.6135 85.0018 90.41 84.6456C90.3846 84.6202 90.3846 84.5693 90.3591 84.5438C90.1302 84.1622 89.9012 83.7806 89.6722 83.399C89.5959 83.2718 89.5196 83.17 89.4433 83.0428C89.2906 82.7884 89.1125 82.534 88.9344 82.2796C88.909 82.2541 88.8836 82.2287 88.8836 82.2033C88.7818 82.0506 88.68 81.898 88.5783 81.7708C88.451 81.5927 88.3493 81.44 88.2221 81.2619C88.0949 81.0838 87.9677 80.9058 87.8405 80.7277C87.7133 80.575 87.5861 80.3969 87.4588 80.2443C87.3316 80.0662 87.179 79.9136 87.0518 79.7355C86.9246 79.5828 86.7974 79.4047 86.6702 79.2521C86.5175 79.074 86.3903 78.9214 86.2377 78.7433C86.1105 78.5906 85.9578 78.438 85.8306 78.2853C85.8052 78.2599 85.8052 78.2344 85.7797 78.209C85.7034 78.1072 85.6016 78.0055 85.4999 77.9291C85.2964 77.7256 85.0928 77.4966 84.8893 77.2931C84.7621 77.1659 84.6349 77.0387 84.5077 76.9115C84.3041 76.708 84.1261 76.5299 83.9225 76.3518C83.7953 76.2246 83.6427 76.0974 83.5155 75.9702C83.3119 75.7921 83.1339 75.614 82.9303 75.4359C82.7777 75.3087 82.6505 75.1815 82.4978 75.0543C82.2943 74.8762 82.0908 74.7236 81.8872 74.5455C81.8109 74.4692 81.7346 74.4183 81.6328 74.3419C81.5311 74.2402 81.4039 74.1639 81.3021 74.0875C81.2512 74.0367 81.2003 73.9858 81.124 73.9603C80.8187 73.7314 80.5389 73.5024 80.2336 73.2989C80.1827 73.248 80.1064 73.2225 80.0555 73.1717C79.7756 72.9681 79.4703 72.7646 79.165 72.5611C79.1396 72.5356 79.1142 72.5356 79.0887 72.5102L79.0633 72.4847C78.8597 72.3321 78.6308 72.2049 78.4272 72.0777C78.3 72.0014 78.1474 71.8996 78.0202 71.8233C77.7403 71.6452 77.4859 71.4925 77.2061 71.3399C77.1043 71.289 77.028 71.2381 76.9262 71.1618C76.57 70.9583 76.2393 70.7802 75.8831 70.6021C75.7814 70.5512 75.6542 70.5003 75.5524 70.424C75.3743 70.3222 75.1708 70.2205 74.9927 70.1442C74.9164 70.1187 74.84 70.0678 74.7637 70.0424C74.6874 70.017 74.6111 69.9661 74.5348 69.9406C74.1786 69.788 73.8478 69.6099 73.4917 69.4572C73.3899 69.4064 73.2627 69.3555 73.1609 69.3046C72.9574 69.2283 72.7793 69.152 72.5758 69.0756C72.4995 69.0502 72.4231 69.0248 72.3468 68.9739C72.0415 68.8467 71.7108 68.7449 71.4055 68.6431C71.3801 68.6431 71.3546 68.6177 71.3292 68.6177C71.2528 68.5923 71.1765 68.5668 71.1002 68.5414C70.8458 68.465 70.5659 68.3633 70.3115 68.287C70.2098 68.2615 70.0826 68.2106 69.9808 68.1852C69.879 68.1598 69.8027 68.1343 69.7009 68.1089C69.5483 68.058 69.3702 68.0071 69.2176 67.9817C69.1412 67.9562 69.0395 67.9308 68.9631 67.9053C68.6579 67.829 68.3271 67.7527 68.0218 67.6764C67.9964 67.6764 67.9709 67.6764 67.9455 67.6509C67.8692 67.6255 67.7929 67.6255 67.742 67.6C67.4621 67.5492 67.2077 67.4983 66.9279 67.422C66.8261 67.3965 66.7243 67.3965 66.6226 67.3711C66.5462 67.3456 66.4445 67.3456 66.3681 67.3202C66.1646 67.2948 65.9865 67.2693 65.783 67.2184C65.7067 67.2184 65.6558 67.193 65.5795 67.193C65.2742 67.1421 64.9689 67.1167 64.6636 67.0658C64.5873 67.0658 64.5364 67.0403 64.4601 67.0403C64.1293 67.0149 63.7732 66.9895 63.4424 66.964C63.3661 66.964 63.2643 66.964 63.188 66.9386C63.1117 66.9386 63.0354 66.9386 62.9336 66.9131C62.7301 66.9131 62.5265 66.8877 62.323 66.8877C62.2467 66.8877 62.1958 66.8877 62.1195 66.8877C61.8142 66.8877 61.5089 66.8877 61.2036 66.8877C61.1782 66.8877 61.1527 66.8877 61.1018 66.8877C61.0001 66.8877 60.8983 66.8877 60.822 66.8877C60.5676 66.8877 60.3132 66.8877 60.0587 66.9131C59.9315 66.9131 59.8298 66.9131 59.7026 66.9386C59.6008 66.9386 59.499 66.9386 59.3973 66.964C59.2701 66.964 59.1429 66.9895 59.0157 66.9895C58.8885 66.9895 58.7613 67.0149 58.634 67.0149C58.4051 67.0403 58.1507 67.0658 57.9217 67.0912C57.8199 67.1167 57.6927 67.1167 57.591 67.1421C57.5655 67.1421 57.5401 67.1421 57.5146 67.1421C57.3111 67.1675 57.0821 67.2184 56.8786 67.2439C56.7768 67.2693 56.6496 67.2693 56.5479 67.2948C56.1917 67.3456 55.8355 67.422 55.4793 67.4983C55.1232 67.5746 54.767 67.6509 54.4108 67.7527C54.3599 67.7781 54.2836 67.7781 54.2327 67.8036C53.902 67.8799 53.5713 67.9817 53.2405 68.0834C53.2151 68.0834 53.1896 68.1089 53.1642 68.1089C53.1133 68.1343 53.037 68.1598 52.9861 68.1598C52.8589 68.2106 52.7317 68.2361 52.6045 68.287C52.3755 68.4142 52.2738 68.465 52.172 68.4905C52.0448 68.5414 51.9176 68.5923 51.7904 68.6177C51.6886 68.6431 51.5869 68.694 51.4851 68.7195C51.3579 68.7703 51.2307 68.8212 51.1035 68.8721C51.0017 68.923 50.8999 68.9484 50.7982 68.9993C50.671 69.0502 50.5438 69.1011 50.4166 69.152C50.3402 69.1774 50.2894 69.2028 50.213 69.2283C50.1876 69.2537 50.1621 69.2537 50.1113 69.2792C50.0095 69.33 49.8823 69.3809 49.7805 69.4318C49.6788 69.4827 49.577 69.5336 49.4752 69.559C49.3735 69.6099 49.2463 69.6608 49.1445 69.7117C49.0427 69.7625 48.9664 69.8134 48.8647 69.8643C48.7629 69.9152 48.6357 69.9915 48.5339 70.0424C48.4322 70.0933 48.3558 70.1442 48.2541 70.195C48.1523 70.2459 48.0251 70.3222 47.9233 70.3731C47.847 70.424 47.7452 70.4749 47.6689 70.5258C47.5672 70.6021 47.4399 70.653 47.3382 70.7293C47.2619 70.7802 47.1601 70.8311 47.0838 70.882C46.9566 70.9583 46.8548 71.0346 46.753 71.1109C46.6767 71.1618 46.6004 71.2127 46.5241 71.2636C46.3969 71.3399 46.2697 71.4417 46.1425 71.518C46.0661 71.5689 46.0152 71.5943 45.9389 71.6452C45.7608 71.7724 45.5827 71.8996 45.4047 72.0268C45.4047 72.0268 45.3792 72.0268 45.3792 72.0522L40.6726 75.4868C40.8507 75.3596 41.0542 75.2324 41.2323 75.0797C41.2832 75.0289 41.3595 75.0034 41.4104 74.9525C41.5376 74.8762 41.6648 74.7744 41.792 74.6981C41.8683 74.6472 41.9447 74.5964 42.021 74.5455C42.1482 74.4692 42.25 74.3928 42.3772 74.3165C42.4535 74.2656 42.5553 74.2147 42.6316 74.1639C42.7333 74.0875 42.8605 74.0367 42.9623 73.9603C43.0386 73.9094 43.1404 73.8586 43.2167 73.8077C43.3185 73.7568 43.4457 73.6805 43.5475 73.6296C43.6492 73.5787 43.7255 73.5278 43.8273 73.4769C43.9291 73.4261 44.0563 73.3497 44.158 73.2989C44.2598 73.248 44.3361 73.1971 44.4379 73.1462C44.5397 73.0953 44.6669 73.0444 44.7686 72.9936C44.8704 72.9427 44.9722 72.8918 45.0485 72.8664C45.1502 72.8155 45.2775 72.7646 45.3792 72.7137C45.481 72.6628 45.5827 72.6374 45.6591 72.5865C45.7863 72.5356 45.9135 72.4847 46.0407 72.4339C46.1425 72.383 46.2442 72.3575 46.346 72.3067C46.4732 72.2558 46.6004 72.2049 46.7276 72.154C46.8294 72.1286 46.9311 72.0777 47.0329 72.0522C47.1601 72.0014 47.2873 71.9505 47.4145 71.925C47.5163 71.8996 47.618 71.8487 47.7198 71.8233C47.847 71.7724 47.9742 71.747 48.1014 71.6961C48.1777 71.6706 48.2795 71.6452 48.3558 71.6197C48.6866 71.518 49.0173 71.4162 49.348 71.3399C49.3989 71.3145 49.4752 71.3145 49.5261 71.289C49.8823 71.1872 50.2385 71.1109 50.5946 71.0346C50.9508 70.9583 51.307 70.882 51.6632 70.8311C51.7649 70.8056 51.8921 70.8056 51.9939 70.7802C52.2483 70.7293 52.4773 70.7039 52.7317 70.6784C52.8335 70.653 52.9607 70.653 53.0624 70.6275C53.2914 70.6021 53.5458 70.5767 53.7748 70.5512C53.902 70.5512 54.0292 70.5258 54.1564 70.5258C54.3854 70.5003 54.6143 70.5003 54.8433 70.4749C54.9705 70.4749 55.0723 70.4495 55.1995 70.4495C55.4539 70.4495 55.7083 70.424 55.9627 70.424C56.0645 70.424 56.1663 70.424 56.2426 70.424C56.5733 70.424 56.9295 70.424 57.2602 70.424C57.3365 70.424 57.3874 70.424 57.4638 70.424C57.7436 70.424 58.0235 70.4495 58.3033 70.4749C58.3796 70.4749 58.4814 70.4749 58.5577 70.5003C58.8885 70.5258 59.2446 70.5512 59.5754 70.5767C59.9315 70.6275 60.3132 70.653 60.6693 70.7039C60.7457 70.7039 60.7965 70.7293 60.8729 70.7293C61.1527 70.7802 61.4326 70.8056 61.7124 70.8565C61.8142 70.882 61.916 70.882 62.0177 70.9074C62.2976 70.9583 62.552 71.0092 62.8318 71.0855C62.9082 71.1109 62.9845 71.1109 63.0354 71.1364C63.3661 71.2127 63.7223 71.289 64.053 71.3908C64.1293 71.4162 64.2311 71.4417 64.3074 71.4671C64.5618 71.5434 64.8162 71.6197 65.0961 71.6961C65.1979 71.7215 65.3251 71.7724 65.4268 71.7978C65.6812 71.8742 65.9611 71.9759 66.2155 72.0522C66.2918 72.0777 66.3681 72.1031 66.4445 72.1286C66.7752 72.2558 67.1314 72.3575 67.4621 72.4847C67.5384 72.5102 67.6148 72.5356 67.6911 72.5865C67.9964 72.7137 68.3017 72.8409 68.607 72.9681C68.9631 73.1208 69.3193 73.2734 69.6501 73.4515C69.7264 73.4769 69.8027 73.5278 69.879 73.5533C70.1334 73.6805 70.3878 73.8077 70.6677 73.9349C70.7695 73.9858 70.8967 74.0367 70.9984 74.113C71.3546 74.2911 71.7108 74.4946 72.067 74.6981C72.1687 74.749 72.245 74.7999 72.3468 74.8762C72.6267 75.0289 72.8811 75.1815 73.1609 75.3596C73.2881 75.4359 73.4408 75.5377 73.568 75.614C73.797 75.7667 74.0259 75.8939 74.2295 76.0465C74.2549 76.0719 74.2803 76.0719 74.3058 76.0974C74.6111 76.3009 74.8909 76.5044 75.1962 76.708C75.2471 76.7589 75.3234 76.7843 75.3743 76.8352C75.6796 77.0641 75.9595 77.2677 76.2647 77.4966C76.3156 77.5475 76.392 77.5984 76.4428 77.6239C76.6464 77.7765 76.8245 77.9291 77.028 78.0818C77.2315 78.2599 77.435 78.4125 77.6386 78.5906C77.7912 78.7178 77.9184 78.845 78.0711 78.9722C78.2746 79.1503 78.4527 79.3284 78.6562 79.5065C78.7834 79.6337 78.9361 79.7609 79.0633 79.8881C79.2668 80.0662 79.4449 80.2697 79.6484 80.4478C79.7756 80.575 79.9028 80.7022 80.03 80.8294C80.2336 81.033 80.4371 81.2619 80.6406 81.4655C80.7424 81.5927 80.8696 81.6944 80.9714 81.8216C81.0986 81.9743 81.2512 82.1269 81.3784 82.2796C81.5311 82.4322 81.6583 82.6103 81.8109 82.7884C81.9381 82.9411 82.0653 83.0937 82.1925 83.2718C82.3197 83.4499 82.4724 83.6025 82.5996 83.7806C82.7268 83.9333 82.854 84.1113 82.9812 84.264C83.1084 84.4421 83.2356 84.6202 83.3628 84.7983C83.49 84.9763 83.5918 85.129 83.719 85.3071C83.8462 85.4852 83.9734 85.6633 84.1006 85.8413C84.2787 86.0958 84.4314 86.3502 84.6094 86.6046C84.6858 86.7318 84.7621 86.8335 84.8384 86.9608C85.0674 87.3424 85.2963 87.724 85.5253 88.1056C85.5508 88.131 85.5508 88.1819 85.5762 88.2074C85.7797 88.5635 85.9833 88.9197 86.1613 89.2759C86.2377 89.4031 86.2886 89.5557 86.3649 89.683C86.4921 89.9374 86.6447 90.2172 86.7719 90.4716C86.9246 90.8024 87.0772 91.1077 87.2299 91.4384C87.2553 91.5147 87.2808 91.5656 87.3062 91.6419C87.4334 91.9472 87.5861 92.2779 87.7133 92.5832C87.7387 92.6341 87.7387 92.685 87.7641 92.7104C87.8913 93.0412 88.0186 93.3719 88.1458 93.7027C88.2221 93.9062 88.2984 94.1097 88.3493 94.2878C88.4256 94.4913 88.5019 94.6949 88.5528 94.8984C88.6291 95.1019 88.68 95.3054 88.7309 95.509C88.8072 95.7125 88.8581 95.9415 88.9344 96.145C88.9853 96.2976 89.0108 96.4503 89.0616 96.6029C89.138 96.8319 89.1888 97.0863 89.2397 97.3153C89.2906 97.4679 89.316 97.6206 89.3669 97.7732C89.4178 98.0276 89.4941 98.2821 89.545 98.5365C89.5705 98.6637 89.5959 98.7909 89.6213 98.8926C89.6977 99.2234 89.7486 99.5796 89.7994 99.9103C89.7994 99.9612 89.8249 99.9866 89.8249 100.037C89.8758 100.419 89.9521 100.801 90.003 101.157C90.0284 101.259 90.0284 101.36 90.0538 101.488C90.0793 101.767 90.1302 102.073 90.1556 102.353C90.1556 102.454 90.181 102.556 90.181 102.658C90.2065 103.04 90.2319 103.396 90.2574 103.777C90.2828 104.21 90.2828 104.668 90.3083 105.1L91.0206 168.525L95.7527 165.065L95.0658 101.615Z" fill="url(#paint0_linear)"/>
<path d="M59.6265 70.5775C62.6794 70.9082 65.7069 71.6969 68.6581 72.9435C81.3787 78.3625 90.1813 91.3629 90.334 105.076L91.0463 168.5L30.3438 162.115L29.6314 98.69C29.4788 84.9772 37.9761 73.7831 50.6203 71.0609C53.5461 70.4249 56.599 70.2722 59.6265 70.5775Z" fill="url(#paint1_linear)"/>
<path d="M71.3166 64.1987C78.7891 58.9304 79.9698 47.7961 73.9537 39.3295C67.9375 30.8629 57.0028 28.2702 49.5302 33.5385C42.0577 38.8068 40.877 49.9412 46.8932 58.4078C52.9093 66.8743 63.844 69.4671 71.3166 64.1987Z" fill="#D4CFF2"/>
<path d="M63.6108 118.463C63.6108 118.135 63.5915 117.788 63.5722 117.46C63.5722 117.44 63.5722 117.44 63.5722 117.421C63.5529 117.151 63.5337 116.862 63.5144 116.592C63.5144 116.515 63.4951 116.437 63.4951 116.36C63.4758 116.245 63.4758 116.148 63.4565 116.032C63.4372 115.917 63.4372 115.801 63.4179 115.685C63.3986 115.608 63.3986 115.531 63.3793 115.434C63.3408 115.145 63.3022 114.875 63.2636 114.586V114.566C63.2636 114.528 63.2443 114.509 63.2443 114.47C63.2058 114.219 63.1479 113.949 63.1093 113.699C63.09 113.602 63.0707 113.506 63.0514 113.428C63.0322 113.313 63.0129 113.197 62.9743 113.081C62.955 113.004 62.9357 112.927 62.9164 112.85C62.8971 112.734 62.8586 112.618 62.82 112.503C62.7814 112.329 62.7235 112.136 62.685 111.963C62.6464 111.847 62.6271 111.731 62.5885 111.615C62.5692 111.558 62.5692 111.519 62.55 111.461C62.5114 111.345 62.4728 111.249 62.4535 111.133C62.4149 110.979 62.3571 110.825 62.3185 110.67C62.2606 110.516 62.222 110.362 62.1642 110.207C62.1063 110.053 62.0677 109.899 62.0099 109.764C61.9906 109.725 61.9713 109.667 61.9713 109.629C61.8941 109.417 61.817 109.224 61.7398 109.011C61.7206 108.973 61.7206 108.934 61.7013 108.915C61.6048 108.684 61.5084 108.433 61.3927 108.201C61.3734 108.144 61.3541 108.105 61.3348 108.047C61.2384 107.835 61.1419 107.603 61.0262 107.391C61.0069 107.372 61.0069 107.333 60.9876 107.314C60.8912 107.121 60.7947 106.909 60.679 106.716C60.6211 106.62 60.5826 106.504 60.5247 106.408C60.3704 106.138 60.2354 105.868 60.0811 105.597C60.0618 105.578 60.0618 105.54 60.0425 105.52C59.8689 105.231 59.6953 104.942 59.5217 104.652C59.4638 104.556 59.406 104.479 59.3481 104.382C59.2324 104.189 59.0974 103.997 58.9623 103.804C58.9431 103.784 58.9238 103.765 58.9238 103.746C58.8466 103.63 58.7695 103.514 58.6923 103.418C58.5959 103.283 58.5187 103.167 58.4223 103.032C58.3258 102.897 58.2294 102.762 58.1329 102.627C58.0365 102.511 57.9401 102.376 57.8436 102.261C57.7472 102.126 57.6315 102.01 57.535 101.875C57.4386 101.759 57.3421 101.624 57.2457 101.508C57.13 101.373 57.0335 101.258 56.9178 101.123C56.8214 101.007 56.7056 100.891 56.6092 100.775C56.5899 100.756 56.5899 100.737 56.5706 100.718C56.5127 100.64 56.4356 100.563 56.3584 100.505C56.2041 100.351 56.0498 100.177 55.8955 100.023C55.7991 99.9267 55.7026 99.8303 55.6062 99.7338C55.4519 99.5795 55.3169 99.4445 55.1626 99.3095C55.0661 99.2131 54.9504 99.1166 54.8539 99.0202C54.6996 98.8852 54.5646 98.7501 54.4103 98.6151C54.2946 98.5187 54.1981 98.4222 54.0824 98.3258C53.9281 98.1908 53.7738 98.0751 53.6195 97.94C53.5616 97.8822 53.5038 97.8436 53.4266 97.7857C53.3495 97.7086 53.253 97.6507 53.1759 97.5928C53.1373 97.5543 53.0987 97.5157 53.0409 97.4964C52.8094 97.3228 52.5972 97.1492 52.3658 96.9949C52.3272 96.9563 52.2693 96.937 52.2307 96.8985C52.0186 96.7442 51.7871 96.5899 51.5557 96.4356C51.5364 96.4163 51.5171 96.4163 51.4978 96.397L51.4785 96.3777C51.3242 96.262 51.1506 96.1655 50.9963 96.0691C50.8999 96.0112 50.7841 95.9341 50.6877 95.8762C50.4755 95.7412 50.2826 95.6254 50.0705 95.5097C49.9933 95.4711 49.9354 95.4326 49.8583 95.3747C49.5883 95.2204 49.3375 95.0854 49.0675 94.9504C48.9903 94.9118 48.8939 94.8732 48.8167 94.8153C48.6817 94.7382 48.5274 94.661 48.3924 94.6032C48.3345 94.5839 48.2767 94.5453 48.2188 94.526C48.1609 94.5067 48.1031 94.4682 48.0452 94.4489C47.7752 94.3331 47.5244 94.1981 47.2544 94.0824C47.1772 94.0438 47.0808 94.0052 47.0036 93.9667C46.8493 93.9088 46.7143 93.8509 46.56 93.7931C46.5021 93.7738 46.4443 93.7545 46.3864 93.7159C46.155 93.6195 45.9042 93.5423 45.6727 93.4652C45.6535 93.4652 45.6342 93.4459 45.6149 93.4459C45.557 93.4266 45.4992 93.4073 45.4413 93.388C45.2484 93.3301 45.0362 93.253 44.8434 93.1951C44.7662 93.1758 44.6698 93.1373 44.5926 93.118C44.5155 93.0987 44.4576 93.0794 44.3804 93.0601C44.2647 93.0215 44.1297 92.983 44.014 92.9637C43.9561 92.9444 43.8789 92.9251 43.8211 92.9058C43.5896 92.8479 43.3389 92.7901 43.1074 92.7322C43.0881 92.7322 43.0688 92.7322 43.0495 92.7129C42.9917 92.6936 42.9338 92.6936 42.8952 92.6743C42.6831 92.6358 42.4902 92.5972 42.278 92.5393C42.2009 92.52 42.1237 92.52 42.0466 92.5008C41.9887 92.4815 41.9115 92.4815 41.8537 92.4622C41.6994 92.4429 41.5644 92.4236 41.41 92.385C41.3522 92.385 41.3136 92.3657 41.2557 92.3657C41.0243 92.3272 40.7928 92.3079 40.5614 92.2693C40.5035 92.2693 40.4649 92.25 40.4071 92.25C40.1563 92.2307 39.8863 92.2114 39.6355 92.1921C39.5777 92.1921 39.5005 92.1921 39.4426 92.1729C39.3848 92.1729 39.3269 92.1729 39.2498 92.1536C39.0955 92.1536 38.9412 92.1343 38.7868 92.1343C38.729 92.1343 38.6904 92.1343 38.6325 92.1343C38.4011 92.1343 38.1696 92.1343 37.9382 92.1343C37.9189 92.1343 37.8996 92.1343 37.861 92.1343C37.7839 92.1343 37.7067 92.1343 37.6488 92.1343C37.456 92.1343 37.2631 92.1343 37.0702 92.1536C36.9738 92.1536 36.8966 92.1536 36.8002 92.1729C36.723 92.1729 36.6459 92.1729 36.5687 92.1921C36.4723 92.1921 36.3758 92.2114 36.2794 92.2114C36.1829 92.2114 36.0865 92.2307 35.9901 92.2307C35.8165 92.25 35.6236 92.2693 35.45 92.2886C35.3728 92.3079 35.2764 92.3079 35.1992 92.3272C35.1799 92.3272 35.1607 92.3272 35.1414 92.3272C34.9871 92.3464 34.8135 92.385 34.6592 92.4043C34.582 92.4236 34.4856 92.4236 34.4084 92.4429C34.1384 92.4815 33.8683 92.5393 33.5983 92.5972C33.3283 92.6551 33.0582 92.7129 32.7882 92.7901C32.7496 92.8094 32.6918 92.8094 32.6532 92.8287C32.4024 92.8865 32.1517 92.9637 31.9009 93.0408C31.8817 93.0408 31.8624 93.0601 31.8431 93.0601C31.8045 93.0794 31.7466 93.0987 31.7081 93.0987C31.6116 93.1373 31.5152 93.1566 31.4187 93.1951C31.2451 93.2916 31.168 93.3301 31.0908 93.3494C30.9944 93.388 30.898 93.4266 30.8015 93.4459C30.7244 93.4652 30.6472 93.5037 30.5701 93.523C30.4736 93.5616 30.3772 93.6002 30.2807 93.6388C30.2036 93.6773 30.1264 93.6966 30.0493 93.7352C29.9528 93.7738 29.8564 93.8124 29.76 93.8509C29.7021 93.8702 29.6635 93.8895 29.6056 93.9088C29.5864 93.9281 29.5671 93.9281 29.5285 93.9474C29.4513 93.9859 29.3549 94.0245 29.2777 94.0631C29.2006 94.1017 29.1234 94.1403 29.0463 94.1595C28.9691 94.1981 28.8727 94.2367 28.7955 94.2753C28.7184 94.3138 28.6605 94.3524 28.5834 94.391C28.5062 94.4296 28.4098 94.4874 28.3326 94.526C28.2555 94.5646 28.1976 94.6032 28.1205 94.6417C28.0433 94.6803 27.9469 94.7382 27.8697 94.7768C27.8118 94.8153 27.7347 94.8539 27.6768 94.8925C27.5997 94.9504 27.5032 94.9889 27.4261 95.0468C27.3682 95.0854 27.2911 95.124 27.2332 95.1625C27.1368 95.2204 27.0596 95.2783 26.9824 95.3361C26.9246 95.3747 26.8667 95.4133 26.8089 95.4519C26.7124 95.5097 26.616 95.5869 26.5195 95.6447C26.4617 95.6833 26.4231 95.7026 26.3652 95.7412C26.2302 95.8376 26.0952 95.9341 25.9602 96.0305C25.9602 96.0305 25.9409 96.0305 25.9409 96.0498L22.3726 98.6537C22.5076 98.5573 22.6619 98.4608 22.7969 98.3451C22.8355 98.3065 22.8933 98.2872 22.9319 98.2486C23.0284 98.1908 23.1248 98.1136 23.2212 98.0558C23.2791 98.0172 23.337 97.9786 23.3948 97.94C23.4913 97.8822 23.5684 97.8243 23.6649 97.7664C23.7227 97.7279 23.7999 97.6893 23.8578 97.6507C23.9349 97.5928 24.0313 97.5543 24.1085 97.4964C24.1664 97.4578 24.2435 97.4193 24.3014 97.3807C24.3785 97.3421 24.475 97.2842 24.5521 97.2457C24.6293 97.2071 24.6871 97.1685 24.7643 97.1299C24.8415 97.0914 24.9379 97.0335 25.015 96.9949C25.0922 96.9563 25.1501 96.9178 25.2272 96.8792C25.3044 96.8406 25.4008 96.802 25.478 96.7635C25.5551 96.7249 25.6323 96.6863 25.6901 96.667C25.7673 96.6284 25.8637 96.5899 25.9409 96.5513C26.018 96.5127 26.0952 96.4934 26.1531 96.4548C26.2495 96.4163 26.3459 96.3777 26.4424 96.3391C26.5195 96.3005 26.5967 96.2812 26.6738 96.2427C26.7703 96.2041 26.8667 96.1655 26.9632 96.1269C27.0403 96.1077 27.1175 96.0691 27.1946 96.0498C27.2911 96.0112 27.3875 95.9726 27.4839 95.9533C27.5611 95.9341 27.6382 95.8955 27.7154 95.8762C27.8118 95.8376 27.9083 95.8183 28.0047 95.7798C28.0626 95.7605 28.1397 95.7412 28.1976 95.7219C28.4484 95.6447 28.6991 95.5676 28.9498 95.5097C28.9884 95.4904 29.0463 95.4904 29.0849 95.4711C29.3549 95.394 29.6249 95.3361 29.895 95.2783C30.165 95.2204 30.435 95.1625 30.7051 95.124C30.7822 95.1047 30.8787 95.1047 30.9558 95.0854C31.1487 95.0468 31.3223 95.0275 31.5152 95.0082C31.5923 94.9889 31.6888 94.9889 31.7659 94.9696C31.9395 94.9504 32.1324 94.9311 32.306 94.9118C32.4024 94.9118 32.4989 94.8925 32.5953 94.8925C32.7689 94.8732 32.9425 94.8732 33.1161 94.8539C33.2125 94.8539 33.2897 94.8346 33.3861 94.8346C33.579 94.8346 33.7719 94.8153 33.9648 94.8153C34.0419 94.8153 34.1191 94.8153 34.177 94.8153C34.4277 94.8153 34.6977 94.8153 34.9485 94.8153C35.0064 94.8153 35.0449 94.8153 35.1028 94.8153C35.315 94.8153 35.5271 94.8346 35.7393 94.8539C35.7972 94.8539 35.8743 94.8539 35.9322 94.8732C36.1829 94.8925 36.453 94.9118 36.7037 94.9311C36.9738 94.9696 37.2631 94.9889 37.5331 95.0275C37.591 95.0275 37.6296 95.0468 37.6874 95.0468C37.8996 95.0854 38.1118 95.1047 38.3239 95.1432C38.4011 95.1625 38.4782 95.1625 38.5554 95.1818C38.7676 95.2204 38.9604 95.259 39.1726 95.3168C39.2305 95.3361 39.2883 95.3361 39.3269 95.3554C39.5777 95.4133 39.8477 95.4711 40.0984 95.5483C40.1563 95.5676 40.2335 95.5869 40.2913 95.6062C40.4842 95.664 40.6771 95.7219 40.8893 95.7798C40.9664 95.799 41.0629 95.8376 41.14 95.8569C41.3329 95.9148 41.5451 95.9919 41.7379 96.0498C41.7958 96.0691 41.8537 96.0884 41.9115 96.1077C42.1623 96.2041 42.4323 96.2812 42.6831 96.3777C42.7409 96.397 42.7988 96.4163 42.8567 96.4548C43.0881 96.5513 43.3196 96.6477 43.551 96.7442C43.8211 96.8599 44.0911 96.9756 44.3419 97.1106C44.3997 97.1299 44.4576 97.1685 44.5155 97.1878C44.7083 97.2842 44.9012 97.3807 45.1134 97.4771C45.1905 97.5157 45.287 97.5543 45.3641 97.6121C45.6342 97.7472 45.9042 97.9015 46.1742 98.0558C46.2514 98.0943 46.3093 98.1329 46.3864 98.1908C46.5986 98.3065 46.7915 98.4222 47.0036 98.5573C47.1001 98.6151 47.2158 98.6923 47.3122 98.7501C47.4858 98.8659 47.6594 98.9623 47.8137 99.078C47.833 99.0973 47.8523 99.0973 47.8716 99.1166C48.1031 99.2709 48.3152 99.4252 48.5467 99.5795C48.5853 99.6181 48.6431 99.6374 48.6817 99.676C48.9132 99.8496 49.1253 100.004 49.3568 100.177C49.3954 100.216 49.4532 100.255 49.4918 100.274C49.6461 100.39 49.7811 100.505 49.9354 100.621C50.0898 100.756 50.2441 100.872 50.3984 101.007C50.5141 101.103 50.6105 101.2 50.7263 101.296C50.8806 101.431 51.0156 101.566 51.1699 101.701C51.2663 101.798 51.3821 101.894 51.4785 101.991C51.6328 102.126 51.7678 102.28 51.9221 102.415C52.0186 102.511 52.115 102.608 52.2115 102.704C52.3658 102.859 52.5201 103.032 52.6744 103.186C52.7515 103.283 52.848 103.36 52.9251 103.456C53.0216 103.572 53.1373 103.688 53.2337 103.804C53.3495 103.919 53.4459 104.054 53.5616 104.189C53.6581 104.305 53.7545 104.421 53.851 104.556C53.9474 104.691 54.0631 104.807 54.1596 104.942C54.256 105.057 54.3525 105.192 54.4489 105.308C54.5453 105.443 54.6418 105.578 54.7382 105.713C54.8347 105.848 54.9118 105.964 55.0083 106.099C55.1047 106.234 55.2011 106.369 55.2976 106.504C55.4326 106.697 55.5483 106.89 55.6833 107.083C55.7412 107.179 55.7991 107.256 55.8569 107.353C56.0305 107.642 56.2041 107.931 56.3777 108.221C56.397 108.24 56.397 108.279 56.4163 108.298C56.5706 108.568 56.7249 108.838 56.8599 109.108C56.9178 109.204 56.9564 109.32 57.0142 109.417C57.1107 109.609 57.2264 109.822 57.3228 110.014C57.4386 110.265 57.5543 110.497 57.67 110.747C57.6893 110.805 57.7086 110.844 57.7279 110.902C57.8243 111.133 57.9401 111.384 58.0365 111.615C58.0558 111.654 58.0558 111.693 58.0751 111.712C58.1715 111.963 58.268 112.213 58.3644 112.464C58.4223 112.618 58.4801 112.773 58.5187 112.908C58.5766 113.062 58.6344 113.216 58.673 113.371C58.7309 113.525 58.7695 113.679 58.808 113.834C58.8659 113.988 58.9045 114.161 58.9623 114.316C59.0009 114.431 59.0202 114.547 59.0588 114.663C59.1166 114.837 59.1552 115.029 59.1938 115.203C59.2324 115.319 59.2517 115.434 59.2902 115.55C59.3288 115.743 59.3867 115.936 59.4253 116.129C59.4445 116.225 59.4638 116.322 59.4831 116.399C59.541 116.65 59.5796 116.92 59.6181 117.17C59.6181 117.209 59.6374 117.228 59.6374 117.267C59.676 117.556 59.7339 117.845 59.7724 118.116C59.7917 118.193 59.7917 118.27 59.811 118.366C59.8303 118.578 59.8689 118.81 59.8882 119.022C59.8882 119.099 59.9075 119.176 59.9075 119.254C59.9268 119.543 59.946 119.813 59.9653 120.102C59.9846 120.43 59.9846 120.777 60.0039 121.105L60.544 169.191L64.1316 166.568L63.6108 118.463Z" fill="url(#paint2_linear)"/>
<path d="M48.8074 89.3755C54.2679 85.5257 55.1307 77.3894 50.7344 71.2025C46.3382 65.0156 38.3477 63.1209 32.8872 66.9707C27.4266 70.8205 26.5639 78.9569 30.9601 85.1438C35.3564 91.3307 43.3469 93.2253 48.8074 89.3755Z" fill="white"/>
<path d="M57.443 77.0811C57.443 76.9561 57.443 76.8425 57.443 76.7175C57.443 76.5925 57.443 76.4675 57.4316 76.3425C57.4316 76.2971 57.4202 76.2516 57.4202 76.2062C57.4088 76.0699 57.4087 75.9335 57.3973 75.7972C57.3973 75.729 57.3859 75.6722 57.3859 75.604C57.3859 75.5699 57.3745 75.5358 57.3745 75.5018C57.3631 75.3427 57.3403 75.1836 57.3175 75.0359C57.3061 74.9678 57.3061 74.9109 57.2947 74.8428C57.2947 74.8201 57.2833 74.7973 57.2833 74.786C57.2491 74.536 57.2034 74.286 57.1578 74.0474C57.1236 73.8543 57.078 73.6611 57.0323 73.4794C57.0209 73.4339 57.0095 73.3885 56.9981 73.343C56.9867 73.2976 56.9753 73.2521 56.9639 73.1953C56.9297 73.0817 56.8955 72.9567 56.8612 72.8431C56.8498 72.809 56.8384 72.7749 56.8384 72.7522C56.7928 72.5818 56.7358 72.4227 56.6787 72.2523C56.6673 72.2296 56.6673 72.2068 56.6559 72.1841C56.6331 72.1046 56.5989 72.0364 56.5761 71.9569C56.5305 71.8319 56.4848 71.7183 56.4392 71.5933C56.405 71.5138 56.3708 71.4342 56.3365 71.3547C56.3023 71.2865 56.2795 71.207 56.2453 71.1388C56.2339 71.1047 56.2111 71.0707 56.1997 71.0366C56.1198 70.8661 56.04 70.6957 55.9601 70.5253C55.9259 70.4685 55.9031 70.4003 55.8803 70.3435C55.7662 70.1163 55.6522 69.9004 55.5267 69.6845C55.5267 69.6731 55.5153 69.6731 55.5153 69.6618C55.424 69.4914 55.3214 69.3209 55.2187 69.1619C55.1959 69.1278 55.1845 69.1051 55.1617 69.071C55.0704 68.9233 54.9792 68.7869 54.8765 68.6392C54.8309 68.5824 54.7967 68.5256 54.751 68.4574C54.6712 68.3438 54.5914 68.2302 54.5115 68.1279C54.4659 68.0598 54.4203 68.003 54.3632 67.9348C54.2834 67.8325 54.2035 67.7303 54.1237 67.628C54.0667 67.5599 54.021 67.503 53.964 67.4349C53.8842 67.3326 53.8043 67.2417 53.7245 67.1508C53.6674 67.094 53.6218 67.0258 53.5648 66.969C53.4735 66.8668 53.3823 66.7759 53.291 66.6736C53.2454 66.6168 53.1884 66.56 53.1427 66.5146C53.0287 66.4009 52.9146 66.2873 52.8119 66.1737C52.7777 66.1396 52.7435 66.1055 52.7093 66.0715L52.6979 66.0601C52.6751 66.0374 52.6523 66.026 52.6294 66.0033C52.4698 65.8442 52.2987 65.6965 52.1276 65.5488C52.0705 65.492 52.0021 65.4466 51.9451 65.3897C51.8082 65.2761 51.6599 65.1511 51.5116 65.0375C51.4774 65.0034 51.4318 64.9694 51.3976 64.9466C51.3633 64.9239 51.3291 64.9012 51.2949 64.8785C51.2265 64.8217 51.1466 64.7762 51.0782 64.7194C50.9755 64.6512 50.8843 64.5831 50.7816 64.5149C50.7132 64.4694 50.6333 64.4126 50.5535 64.3672C50.5078 64.3331 50.4622 64.299 50.4166 64.2763C50.3482 64.2308 50.2797 64.1968 50.2227 64.1513C50.1771 64.1172 50.1314 64.0945 50.0744 64.0604C49.9147 63.9582 49.7436 63.8673 49.5725 63.7764C49.5725 63.7764 49.5725 63.7764 49.5611 63.7764C49.333 63.6514 49.1049 63.5378 48.8653 63.4241C48.8425 63.4128 48.8197 63.4014 48.7969 63.3901C48.7513 63.3673 48.6942 63.3446 48.6486 63.3219C48.5003 63.2537 48.352 63.1856 48.1923 63.1287C48.1467 63.106 48.1125 63.0947 48.0669 63.0719C48.0212 63.0606 47.987 63.0378 47.9414 63.0265C47.8045 62.9697 47.6676 62.9242 47.5194 62.8674C47.4623 62.8447 47.4053 62.822 47.3483 62.7992C47.314 62.7879 47.2912 62.7765 47.257 62.7765C47.1201 62.7311 46.9833 62.6856 46.8464 62.6515C46.7779 62.6288 46.7209 62.6061 46.6525 62.5947C46.6297 62.5947 46.6182 62.5834 46.5954 62.5834C46.4586 62.5493 46.3217 62.5152 46.1848 62.4811C46.1164 62.4584 46.0479 62.447 45.9795 62.4243C45.9681 62.4243 45.9567 62.4243 45.9453 62.4129C45.7856 62.3789 45.6259 62.3448 45.4662 62.3221C45.4092 62.3107 45.3521 62.2993 45.2951 62.288H45.2837C45.067 62.2539 44.8388 62.2198 44.6107 62.1971H44.5993C44.5879 62.1971 44.5765 62.1971 44.5537 62.1971C44.3484 62.1743 44.1545 62.163 43.9605 62.1516C43.9377 62.1516 43.9149 62.1516 43.8921 62.1403C43.8465 62.1403 43.8123 62.1403 43.7666 62.1403C43.6069 62.1289 43.4473 62.1289 43.2876 62.1289C43.2533 62.1289 43.2077 62.1289 43.1735 62.1289C43.1507 62.1289 43.1279 62.1289 43.1051 62.1289C42.8883 62.1289 42.6602 62.1403 42.4435 62.1516H42.4321C42.2838 62.163 42.1241 62.1743 41.9758 62.1971C41.9302 62.1971 41.8846 62.2084 41.8389 62.2084C41.7819 62.2198 41.7135 62.2198 41.6564 62.2312C41.6108 62.2425 41.5652 62.2425 41.5082 62.2539C41.4511 62.2652 41.3941 62.2766 41.3371 62.2766C41.2344 62.2993 41.1203 62.3107 41.0177 62.3334C40.9721 62.3448 40.915 62.3561 40.8694 62.3675C40.8466 62.3675 40.8352 62.3789 40.8124 62.3789C40.7325 62.3902 40.6641 62.4129 40.5842 62.4357C40.5158 62.447 40.4474 62.4698 40.3789 62.4811C40.2877 62.5038 40.185 62.5379 40.0938 62.5607C40.0253 62.5834 39.9683 62.5947 39.8999 62.6175C39.8884 62.6175 39.8884 62.6175 39.877 62.6288C39.8428 62.6402 39.8086 62.6515 39.7744 62.6629C39.6375 62.7084 39.5006 62.7538 39.3637 62.7992C39.3067 62.822 39.2383 62.8447 39.1812 62.8674C39.0672 62.9129 38.9531 62.9583 38.8391 63.0038C38.8048 63.0151 38.7706 63.0265 38.7364 63.0378C38.7022 63.0492 38.668 63.0719 38.6451 63.0833C38.5539 63.1287 38.4512 63.1742 38.36 63.2196C38.2915 63.2537 38.2345 63.2764 38.1661 63.3105C38.0748 63.356 37.9722 63.4128 37.8809 63.4582C37.8239 63.4923 37.7554 63.5264 37.6984 63.5605C37.5957 63.6173 37.4931 63.6741 37.3904 63.7423C37.3448 63.7764 37.2878 63.7991 37.2421 63.8332C37.0939 63.9241 36.9456 64.0263 36.8087 64.1286L32.8967 67.0256C33.0336 66.9233 33.1819 66.8324 33.3302 66.7415C33.3758 66.7074 33.4328 66.6847 33.4785 66.6506C33.5811 66.5938 33.6838 66.5257 33.7864 66.4688C33.8435 66.4348 33.9005 66.4007 33.9689 66.3666C34.0602 66.3098 34.1628 66.2643 34.2541 66.2189C34.3225 66.1848 34.3796 66.1507 34.448 66.128C34.5393 66.0825 34.6419 66.0371 34.7332 65.9916C34.8016 65.9576 34.8586 65.9348 34.9271 65.9121C35.0411 65.8667 35.1552 65.8212 35.2693 65.7758C35.3263 65.7531 35.3947 65.7303 35.4518 65.7076C35.5887 65.6622 35.7255 65.6167 35.8624 65.5713C35.908 65.5599 35.9537 65.5372 35.9879 65.5258C36.0563 65.5031 36.1133 65.4917 36.1818 65.469C36.273 65.4463 36.3643 65.4122 36.4669 65.3895C36.5354 65.3667 36.6038 65.3554 36.6723 65.344C36.7635 65.3213 36.8548 65.2986 36.9574 65.2759C37.0031 65.2645 37.0601 65.2531 37.1057 65.2418C37.2084 65.219 37.3224 65.2077 37.4251 65.185C37.4821 65.1736 37.5392 65.1622 37.5962 65.1622C37.7102 65.1509 37.8129 65.1282 37.927 65.1168C37.9726 65.1168 38.0182 65.1054 38.0524 65.1054C38.2121 65.0941 38.3604 65.0713 38.5201 65.06C38.7368 65.0486 38.9536 65.0373 39.1817 65.0373C39.2501 65.0373 39.3072 65.0373 39.3756 65.0373C39.5353 65.0373 39.695 65.0373 39.8547 65.0486C39.9231 65.0486 39.9801 65.0486 40.0486 65.06C40.2425 65.0713 40.4478 65.0941 40.6417 65.1054C40.6645 65.1054 40.6759 65.1054 40.6987 65.1054C40.9269 65.1282 41.1436 65.1622 41.3717 65.1963C41.4288 65.2077 41.4972 65.219 41.5542 65.2304C41.7139 65.2645 41.8736 65.2872 42.0333 65.3213C42.1131 65.344 42.193 65.3667 42.2842 65.3781C42.4211 65.4122 42.558 65.4463 42.6949 65.4804C42.7747 65.5031 42.866 65.5258 42.9458 65.5599C43.0827 65.6053 43.2196 65.6394 43.3564 65.6849C43.4477 65.719 43.5275 65.7417 43.6188 65.7758C43.7557 65.8212 43.8925 65.878 44.0408 65.9348C44.1207 65.9689 44.2119 66.003 44.2918 66.0371C44.4401 66.1053 44.5997 66.1621 44.748 66.2302C44.8165 66.2643 44.8963 66.2984 44.9648 66.3325C45.1929 66.4461 45.4324 66.5597 45.6605 66.6847C45.8316 66.7756 46.0027 66.8779 46.1624 66.9801C46.2081 67.0142 46.2537 67.0369 46.3107 67.071C46.4248 67.1392 46.5388 67.2187 46.6529 67.2869C46.7327 67.3323 46.8012 67.3892 46.881 67.4346C46.9837 67.5028 47.0749 67.5709 47.1776 67.6391C47.246 67.6959 47.3259 67.7414 47.3943 67.7982C47.4628 67.855 47.5426 67.9118 47.611 67.9686C47.7593 68.0822 47.8962 68.1958 48.0445 68.3208C48.1015 68.3776 48.17 68.4231 48.227 68.4799C48.3981 68.6276 48.5692 68.7753 48.7289 68.9344C48.7517 68.9571 48.7859 68.9798 48.8087 69.0025C48.8429 69.0366 48.8772 69.0707 48.9114 69.1048C49.0254 69.2184 49.1395 69.3207 49.2422 69.4456C49.2992 69.5024 49.3448 69.5593 49.3905 69.6047C49.4817 69.6956 49.573 69.7979 49.6642 69.9001C49.7212 69.9569 49.7669 70.0251 49.8239 70.0819C49.9037 70.1728 49.9836 70.2751 50.0634 70.3659C50.1205 70.4341 50.1661 70.4909 50.2231 70.5591C50.303 70.6614 50.3828 70.7636 50.4627 70.8659C50.5083 70.934 50.5653 70.9908 50.6109 71.059C50.6908 71.1726 50.7706 71.2749 50.8505 71.3885C50.8961 71.4453 50.9303 71.5021 50.976 71.5703C51.0672 71.718 51.1699 71.8543 51.2611 72.002C51.2839 72.0361 51.2953 72.0589 51.3181 72.0929C51.4208 72.2634 51.5349 72.4452 51.6261 72.627C51.7516 72.8428 51.8657 73.0701 51.9797 73.2859C52.0139 73.3427 52.0368 73.3996 52.0596 73.4677C52.1394 73.6382 52.2193 73.8086 52.2991 73.979C52.3447 74.0813 52.3904 74.1835 52.436 74.2858C52.4702 74.3653 52.5044 74.4448 52.5386 74.5244C52.5843 74.6494 52.6299 74.763 52.6755 74.888C52.6983 74.9675 52.7325 75.0357 52.7554 75.1152C52.8238 75.297 52.8808 75.4901 52.9379 75.6719C52.9493 75.706 52.9607 75.7401 52.9607 75.7628C53.0063 75.9219 53.0519 76.0923 53.0975 76.2627C53.109 76.3082 53.1204 76.3536 53.1318 76.3991C53.1774 76.5922 53.223 76.7854 53.2686 76.9785C53.3143 77.2285 53.3599 77.4671 53.3941 77.717C53.4055 77.7966 53.4169 77.8875 53.4283 77.967C53.4512 78.1261 53.474 78.2738 53.4854 78.4328C53.4968 78.5351 53.5082 78.626 53.5082 78.7282C53.5196 78.8646 53.531 79.0009 53.531 79.1373C53.5424 79.3077 53.5424 79.4781 53.5538 79.6486C53.5538 79.8417 53.5538 80.0462 53.5424 80.2394C53.5424 80.353 53.531 80.4552 53.531 80.5689C53.5196 80.7052 53.5082 80.8415 53.4968 80.9779C53.4854 81.0915 53.474 81.1938 53.4626 81.296C53.4511 81.4324 53.4283 81.5573 53.4055 81.6937C53.3941 81.8073 53.3713 81.9096 53.3599 82.0232C53.3371 82.1482 53.3143 82.2731 53.2915 82.3981C53.2686 82.5117 53.2458 82.6254 53.223 82.7276C53.2002 82.8412 53.166 82.9548 53.1318 83.0685C53.0975 83.1934 53.0633 83.3184 53.0291 83.4434C52.9949 83.5457 52.9607 83.6366 52.9379 83.7388C52.8922 83.8865 52.8466 84.0229 52.7896 84.1706C52.7325 84.341 52.6641 84.5114 52.5957 84.6705V84.6818C52.5158 84.8636 52.436 85.0454 52.3447 85.2272C52.3219 85.284 52.2877 85.3295 52.2649 85.3863C52.185 85.5453 52.0938 85.7158 52.0025 85.8748C51.9911 85.8976 51.9797 85.9203 51.9683 85.9316C51.8542 86.1248 51.7402 86.3066 51.6261 86.4884C51.5919 86.5338 51.5577 86.5793 51.5349 86.6247C51.4436 86.7611 51.3524 86.8974 51.2497 87.0337C51.2269 87.0678 51.2041 87.0905 51.1813 87.1246C51.0786 87.261 50.9645 87.3973 50.8505 87.5337C50.8277 87.5564 50.8049 87.5905 50.782 87.6132C50.6566 87.7609 50.5197 87.9086 50.3828 88.0449C50.3486 88.079 50.3258 88.1131 50.2916 88.1358C50.1661 88.2608 50.0406 88.3858 49.9037 88.5108C49.8809 88.5221 49.8695 88.5449 49.8581 88.5562C49.7098 88.6926 49.5616 88.8175 49.4133 88.9425C49.379 88.9766 49.3448 88.9993 49.3106 89.0334C49.1509 89.1584 48.9912 89.2834 48.8315 89.397L52.7435 86.5C52.9032 86.3864 53.0629 86.2614 53.2226 86.1364C53.2568 86.1023 53.291 86.0796 53.3366 86.0455C53.4849 85.9205 53.6332 85.7956 53.7815 85.6592C53.8043 85.6479 53.8157 85.6251 53.8385 85.6138C53.9754 85.4888 54.1009 85.3638 54.2264 85.2388C54.2606 85.2048 54.2834 85.182 54.3176 85.1479C54.4545 85.0116 54.58 84.8639 54.7168 84.7162C54.7396 84.6935 54.7625 84.6594 54.7853 84.6367C54.8993 84.5003 55.002 84.364 55.1161 84.2276C55.1389 84.1936 55.1617 84.1708 55.1845 84.1367C55.1959 84.114 55.2073 84.1027 55.2301 84.0799C55.31 83.9663 55.3898 83.8413 55.4697 83.7277C55.5039 83.6823 55.5381 83.6368 55.5609 83.5914C55.675 83.4096 55.789 83.2392 55.8917 83.046L55.9031 83.0346C55.9145 83.0119 55.9259 82.9892 55.9373 82.9778C56.0286 82.8188 56.1084 82.6597 56.1997 82.4893C56.2225 82.4325 56.2567 82.387 56.2795 82.3302C56.3023 82.2848 56.3251 82.228 56.3594 82.1825C56.4164 82.0462 56.4848 81.9212 56.5419 81.7848V81.7735C56.5989 81.6485 56.6445 81.5235 56.7015 81.3872C56.713 81.3531 56.7244 81.3076 56.7472 81.2622C56.8042 81.1259 56.8498 80.9782 56.8955 80.8305C56.9183 80.7623 56.9411 80.6941 56.9639 80.6259C56.9753 80.5919 56.9753 80.5578 56.9867 80.535C57.0209 80.4101 57.0551 80.2851 57.0894 80.1601C57.1122 80.0806 57.135 80.001 57.1578 79.9101C57.1692 79.8761 57.1692 79.8533 57.1806 79.8193C57.2034 79.7056 57.2262 79.592 57.2491 79.4898C57.2719 79.3989 57.2947 79.308 57.3061 79.2171C57.3175 79.183 57.3175 79.1489 57.3175 79.1148C57.3403 79.0126 57.3517 78.8989 57.3631 78.7853C57.3745 78.6944 57.3973 78.6035 57.4088 78.5126C57.4088 78.4672 57.4202 78.4331 57.4202 78.3877C57.4316 78.2854 57.443 78.1718 57.4544 78.0695C57.4658 77.99 57.4772 77.8991 57.4772 77.8196C57.4772 77.7628 57.4772 77.7173 57.4886 77.6605C57.5 77.5469 57.5 77.4446 57.5 77.331C57.443 77.2401 57.443 77.1606 57.443 77.0811Z" fill="url(#paint3_linear)"/>
<path d="M36.7424 94.9314C39.0569 95.1822 41.3522 95.7801 43.5897 96.7252C53.2338 100.834 59.9075 110.69 60.0233 121.086L60.5633 169.172L14.5416 164.33L14.0015 116.245C13.8858 105.849 20.3281 97.3617 29.9143 95.2979C32.1325 94.8157 34.4471 94.7 36.7424 94.9314Z" fill="white"/>
<path d="M83.7006 47.212C83.7006 47.0431 83.7006 46.8895 83.7006 46.7206C83.7006 46.5516 83.7006 46.3827 83.685 46.2137C83.685 46.1523 83.6695 46.0908 83.6695 46.0294C83.654 45.8451 83.6539 45.6608 83.6384 45.4765C83.6384 45.3843 83.6229 45.3075 83.6229 45.2154C83.6229 45.1693 83.6073 45.1232 83.6073 45.0771C83.5918 44.8621 83.5607 44.6471 83.5296 44.4474C83.514 44.3553 83.514 44.2785 83.4985 44.1863C83.4985 44.1556 83.4829 44.1249 83.4829 44.1095C83.4363 43.7716 83.3741 43.4337 83.3119 43.1112C83.2653 42.8501 83.2031 42.589 83.1409 42.3432C83.1254 42.2818 83.1098 42.2203 83.0943 42.1589C83.0787 42.0975 83.0632 42.036 83.0476 41.9592C83.001 41.8057 82.9544 41.6367 82.9077 41.4831C82.8922 41.437 82.8766 41.391 82.8766 41.3602C82.8144 41.1299 82.7367 40.9148 82.659 40.6844C82.6434 40.6537 82.6434 40.623 82.6279 40.5923C82.5968 40.4848 82.5502 40.3926 82.5191 40.2851C82.4569 40.1162 82.3947 39.9626 82.3325 39.7936C82.2859 39.6861 82.2392 39.5786 82.1926 39.4711C82.146 39.3789 82.1149 39.2714 82.0682 39.1793C82.0527 39.1332 82.0216 39.0871 82.006 39.041C81.8972 38.8106 81.7884 38.5803 81.6796 38.3499C81.6329 38.2731 81.6018 38.1809 81.5707 38.1041C81.4153 37.7969 81.2598 37.5051 81.0888 37.2133C81.0888 37.1979 81.0732 37.1979 81.0732 37.1826C80.9489 36.9522 80.809 36.7218 80.669 36.5068C80.6379 36.4607 80.6224 36.43 80.5913 36.3839C80.4669 36.1842 80.3426 35.9999 80.2026 35.8003C80.1405 35.7235 80.0938 35.6467 80.0316 35.5545C79.9228 35.4009 79.814 35.2473 79.7052 35.1091C79.643 35.0169 79.5808 34.9402 79.5031 34.848C79.3942 34.7098 79.2854 34.5715 79.1766 34.4333C79.0989 34.3411 79.0367 34.2644 78.9589 34.1722C78.8501 34.034 78.7413 33.9111 78.6325 33.7882C78.5547 33.7114 78.4925 33.6193 78.4148 33.5425C78.2904 33.4042 78.1661 33.2814 78.0417 33.1431C77.9795 33.0663 77.9018 32.9895 77.8396 32.9281C77.6841 32.7745 77.5287 32.6209 77.3887 32.4673C77.3421 32.4213 77.2955 32.3752 77.2488 32.3291L77.2333 32.3137C77.2022 32.283 77.1711 32.2677 77.14 32.237C76.9224 32.0219 76.6892 31.8223 76.456 31.6226C76.3782 31.5458 76.285 31.4844 76.2072 31.4076C76.0207 31.254 75.8186 31.085 75.6165 30.9314C75.5698 30.8854 75.5076 30.8393 75.461 30.8086C75.4144 30.7778 75.3677 30.7471 75.3211 30.7164C75.2278 30.6396 75.119 30.5782 75.0257 30.5014C74.8858 30.4092 74.7614 30.3171 74.6215 30.2249C74.5282 30.1635 74.4194 30.0867 74.3106 30.0252C74.2484 29.9792 74.1862 29.9331 74.124 29.9024C74.0307 29.8409 73.9374 29.7949 73.8597 29.7334C73.7975 29.6873 73.7353 29.6566 73.6576 29.6106C73.44 29.4723 73.2068 29.3494 72.9736 29.2266C72.9736 29.2266 72.9736 29.2266 72.958 29.2266C72.6471 29.0576 72.3362 28.904 72.0097 28.7504C71.9786 28.7351 71.9475 28.7197 71.9164 28.7044C71.8542 28.6737 71.7765 28.6429 71.7143 28.6122C71.5122 28.5201 71.3101 28.4279 71.0924 28.3511C71.0303 28.3204 70.9836 28.305 70.9214 28.2743C70.8593 28.259 70.8126 28.2282 70.7504 28.2129C70.5639 28.1361 70.3773 28.0746 70.1752 27.9979C70.0975 27.9671 70.0197 27.9364 69.942 27.9057C69.8954 27.8903 69.8643 27.875 69.8176 27.875C69.6311 27.8135 69.4445 27.7521 69.258 27.706C69.1647 27.6753 69.087 27.6446 68.9937 27.6292C68.9626 27.6292 68.947 27.6139 68.916 27.6139C68.7294 27.5678 68.5428 27.5217 68.3563 27.4756C68.263 27.4449 68.1697 27.4296 68.0764 27.3988C68.0609 27.3988 68.0454 27.3988 68.0298 27.3835C67.8122 27.3374 67.5945 27.2913 67.3769 27.2606C67.2991 27.2453 67.2214 27.2299 67.1437 27.2145H67.1281C66.8327 27.1685 66.5218 27.1224 66.2109 27.0917H66.1953C66.1798 27.0917 66.1642 27.0917 66.1331 27.0917C65.8533 27.0609 65.589 27.0456 65.3247 27.0302C65.2936 27.0302 65.2625 27.0302 65.2315 27.0149C65.1693 27.0149 65.1226 27.0149 65.0604 27.0149C64.8428 26.9995 64.6251 26.9995 64.4075 26.9995C64.3609 26.9995 64.2987 26.9995 64.252 26.9995C64.2209 26.9995 64.1898 26.9995 64.1588 26.9995C63.8634 26.9995 63.5524 27.0149 63.2571 27.0302H63.2415C63.0394 27.0456 62.8218 27.0609 62.6197 27.0917C62.5575 27.0917 62.4953 27.107 62.4331 27.107C62.3554 27.1224 62.2621 27.1224 62.1844 27.1377C62.1222 27.1531 62.06 27.1531 61.9823 27.1685C61.9045 27.1838 61.8268 27.1992 61.7491 27.1992C61.6091 27.2299 61.4537 27.2453 61.3138 27.276C61.2516 27.2913 61.1738 27.3067 61.1117 27.3221C61.0806 27.3221 61.065 27.3374 61.0339 27.3374C60.9251 27.3528 60.8318 27.3835 60.723 27.4142C60.6297 27.4296 60.5364 27.4603 60.4432 27.4756C60.3188 27.5064 60.1789 27.5524 60.0545 27.5832C59.9612 27.6139 59.8835 27.6292 59.7902 27.66C59.7747 27.66 59.7747 27.66 59.7591 27.6753C59.7125 27.6907 59.6658 27.706 59.6192 27.7214C59.4326 27.7828 59.2461 27.8443 59.0595 27.9057C58.9818 27.9364 58.8885 27.9671 58.8108 27.9979C58.6553 28.0593 58.4999 28.1207 58.3444 28.1822C58.2978 28.1975 58.2511 28.2129 58.2045 28.2282C58.1578 28.2436 58.1112 28.2743 58.0801 28.2897C57.9557 28.3511 57.8158 28.4125 57.6914 28.474C57.5982 28.5201 57.5204 28.5508 57.4272 28.5969C57.3028 28.6583 57.1629 28.7351 57.0385 28.7965C56.9608 28.8426 56.8675 28.8887 56.7898 28.9348C56.6498 29.0115 56.5099 29.0883 56.37 29.1805C56.3078 29.2266 56.2301 29.2573 56.1679 29.3034C55.9658 29.4262 55.7637 29.5645 55.5771 29.7027L49.7783 33.7575C49.9649 33.6193 50.167 33.4964 50.3691 33.3735C50.4313 33.3274 50.509 33.2967 50.5712 33.2507C50.7111 33.1739 50.851 33.0817 50.9909 33.0049C51.0687 32.9588 51.1464 32.9128 51.2397 32.8667C51.3641 32.7899 51.504 32.7284 51.6283 32.667C51.7216 32.6209 51.7994 32.5749 51.8926 32.5441C52.017 32.4827 52.1569 32.4213 52.2813 32.3598C52.3746 32.3137 52.4523 32.283 52.5456 32.2523C52.701 32.1909 52.8565 32.1294 53.012 32.068C53.0897 32.0373 53.183 32.0066 53.2607 31.9758C53.4473 31.9144 53.6338 31.853 53.8204 31.7915C53.8826 31.7762 53.9448 31.7455 53.9914 31.7301C54.0847 31.6994 54.1624 31.684 54.2557 31.6533C54.3801 31.6226 54.5044 31.5765 54.6443 31.5458C54.7376 31.5151 54.8309 31.4997 54.9242 31.4844C55.0486 31.4536 55.1729 31.4229 55.3128 31.3922C55.375 31.3768 55.4528 31.3615 55.5149 31.3461C55.6549 31.3154 55.8103 31.3001 55.9502 31.2693C56.028 31.254 56.1057 31.2386 56.1834 31.2386C56.3389 31.2233 56.4788 31.1925 56.6343 31.1772C56.6965 31.1772 56.7587 31.1618 56.8053 31.1618C57.0229 31.1465 57.2251 31.1157 57.4427 31.1004C57.7381 31.085 58.0335 31.0697 58.3444 31.0697C58.4377 31.0697 58.5154 31.0697 58.6087 31.0697C58.8263 31.0697 59.044 31.0697 59.2616 31.085C59.3549 31.085 59.4326 31.085 59.5259 31.1004C59.7902 31.1157 60.07 31.1465 60.3343 31.1618C60.3654 31.1618 60.381 31.1618 60.4121 31.1618C60.723 31.1925 61.0184 31.2386 61.3293 31.2847C61.407 31.3001 61.5003 31.3154 61.578 31.3308C61.7957 31.3768 62.0133 31.4076 62.231 31.4536C62.3398 31.4844 62.4486 31.5151 62.573 31.5304C62.7596 31.5765 62.9461 31.6226 63.1327 31.6687C63.2415 31.6994 63.3659 31.7301 63.4747 31.7762C63.6613 31.8376 63.8478 31.8837 64.0344 31.9451C64.1588 31.9912 64.2676 32.0219 64.3919 32.068C64.5785 32.1294 64.7651 32.2062 64.9672 32.283C65.076 32.3291 65.2004 32.3752 65.3092 32.4213C65.5113 32.5134 65.7289 32.5902 65.931 32.6824C66.0243 32.7284 66.1331 32.7745 66.2264 32.8206C66.5374 32.9742 66.8638 33.1278 67.1748 33.2967C67.408 33.4196 67.6411 33.5578 67.8588 33.6961C67.921 33.7421 67.9832 33.7729 68.0609 33.8189C68.2164 33.9111 68.3718 34.0186 68.5273 34.1108C68.6361 34.1722 68.7294 34.249 68.8382 34.3104C68.9781 34.4026 69.1025 34.4947 69.2424 34.5869C69.3357 34.6637 69.4445 34.7251 69.5378 34.8019C69.6311 34.8787 69.7399 34.9555 69.8332 35.0323C70.0353 35.1859 70.2219 35.3395 70.424 35.5084C70.5017 35.5852 70.595 35.6467 70.6727 35.7235C70.9059 35.9231 71.1391 36.1228 71.3567 36.3378C71.3878 36.3685 71.4345 36.3993 71.4656 36.43C71.5122 36.4761 71.5588 36.5221 71.6055 36.5682C71.7609 36.7218 71.9164 36.86 72.0563 37.029C72.1341 37.1058 72.1962 37.1826 72.2584 37.244C72.3828 37.3669 72.5072 37.5051 72.6315 37.6433C72.7093 37.7201 72.7715 37.8123 72.8492 37.8891C72.958 38.012 73.0668 38.1502 73.1757 38.2731C73.2534 38.3652 73.3156 38.442 73.3933 38.5342C73.5021 38.6724 73.611 38.8106 73.7198 38.9489C73.782 39.041 73.8597 39.1178 73.9219 39.21C74.0307 39.3636 74.1395 39.5018 74.2484 39.6554C74.3106 39.7322 74.3572 39.809 74.4194 39.9011C74.5438 40.1008 74.6837 40.2851 74.808 40.4848C74.8391 40.5309 74.8547 40.5616 74.8858 40.6076C75.0257 40.838 75.1812 41.0838 75.3055 41.3295C75.4765 41.6213 75.632 41.9285 75.7875 42.2203C75.8341 42.2971 75.8652 42.3739 75.8963 42.4661C76.0051 42.6965 76.1139 42.9269 76.2228 43.1573C76.285 43.2955 76.3471 43.4337 76.4093 43.5719C76.456 43.6795 76.5026 43.787 76.5492 43.8945C76.6114 44.0634 76.6736 44.217 76.7358 44.386C76.7669 44.4935 76.8135 44.5856 76.8446 44.6932C76.9379 44.9389 77.0156 45.2 77.0934 45.4458C77.1089 45.4918 77.1245 45.5379 77.1245 45.5686C77.1866 45.7837 77.2488 46.014 77.311 46.2444C77.3266 46.3059 77.3421 46.3673 77.3577 46.4287C77.4198 46.6898 77.482 46.9509 77.5442 47.212C77.6064 47.5499 77.6686 47.8725 77.7152 48.2104C77.7308 48.3179 77.7463 48.4408 77.7619 48.5483C77.793 48.7633 77.824 48.963 77.8396 49.178C77.8551 49.3162 77.8707 49.4391 77.8707 49.5773C77.8862 49.7617 77.9018 49.946 77.9018 50.1303C77.9173 50.3607 77.9173 50.591 77.9329 50.8214C77.9329 51.0825 77.9329 51.359 77.9173 51.6201C77.9173 51.7737 77.9018 51.9119 77.9018 52.0655C77.8862 52.2498 77.8707 52.4341 77.8551 52.6184C77.8396 52.772 77.824 52.9103 77.8085 53.0485C77.793 53.2328 77.7619 53.4018 77.7308 53.5861C77.7152 53.7397 77.6841 53.8779 77.6686 54.0315C77.6375 54.2004 77.6064 54.3694 77.5753 54.5383C77.5442 54.6919 77.5131 54.8455 77.482 54.9837C77.4509 55.1373 77.4043 55.2909 77.3577 55.4445C77.311 55.6135 77.2644 55.7824 77.2177 55.9514C77.1711 56.0896 77.1245 56.2125 77.0934 56.3507C77.0312 56.5504 76.969 56.7347 76.8913 56.9343C76.8135 57.1647 76.7203 57.3951 76.627 57.6101V57.6255C76.5181 57.8712 76.4093 58.117 76.285 58.3627C76.2539 58.4395 76.2072 58.501 76.1761 58.5778C76.0673 58.7928 75.9429 59.0232 75.8186 59.2382C75.803 59.2689 75.7875 59.2996 75.7719 59.315C75.6165 59.5761 75.461 59.8218 75.3055 60.0676C75.2589 60.129 75.2122 60.1905 75.1812 60.2519C75.0568 60.4362 74.9324 60.6205 74.7925 60.8048C74.7614 60.8509 74.7303 60.8816 74.6992 60.9277C74.5593 61.112 74.4038 61.2963 74.2484 61.4806C74.2173 61.5113 74.1862 61.5574 74.1551 61.5881C73.9841 61.7878 73.7975 61.9875 73.611 62.1718C73.5643 62.2179 73.5332 62.2639 73.4866 62.2947C73.3156 62.4636 73.1446 62.6326 72.958 62.8015C72.9269 62.8169 72.9114 62.8476 72.8958 62.8629C72.6937 63.0472 72.4916 63.2162 72.2895 63.3851C72.2429 63.4312 72.1962 63.4619 72.1496 63.508C71.932 63.677 71.7143 63.8459 71.4967 63.9995L77.2955 59.9447C77.5131 59.7911 77.7308 59.6222 77.9484 59.4532C77.9951 59.4072 78.0417 59.3764 78.1039 59.3304C78.306 59.1614 78.5081 58.9925 78.7102 58.8081C78.7413 58.7928 78.7568 58.7621 78.7879 58.7467C78.9745 58.5778 79.1455 58.4088 79.3165 58.2399C79.3631 58.1938 79.3942 58.1631 79.4409 58.117C79.6274 57.9327 79.7984 57.733 79.985 57.5333C80.0161 57.5026 80.0472 57.4565 80.0783 57.4258C80.2337 57.2415 80.3737 57.0572 80.5291 56.8729C80.5602 56.8268 80.5913 56.7961 80.6224 56.75C80.6379 56.7193 80.6535 56.704 80.6846 56.6732C80.7934 56.5196 80.9022 56.3507 81.0111 56.1971C81.0577 56.1357 81.1043 56.0742 81.1354 56.0128C81.2909 55.767 81.4464 55.5367 81.5863 55.2756L81.6018 55.2602C81.6174 55.2295 81.6329 55.1988 81.6485 55.1834C81.7728 54.9684 81.8817 54.7534 82.006 54.523C82.0371 54.4462 82.0838 54.3847 82.1149 54.3079C82.146 54.2465 82.177 54.1697 82.2237 54.1083C82.3014 53.924 82.3947 53.755 82.4724 53.5707V53.5553C82.5502 53.3864 82.6123 53.2174 82.6901 53.0331C82.7056 52.9871 82.7212 52.9256 82.7523 52.8642C82.83 52.6799 82.8922 52.4802 82.9544 52.2805C82.9855 52.1884 83.0165 52.0962 83.0476 52.0041C83.0632 51.958 83.0632 51.9119 83.0787 51.8812C83.1254 51.7123 83.172 51.5433 83.2187 51.3744C83.2497 51.2668 83.2808 51.1593 83.3119 51.0365C83.3275 50.9904 83.3275 50.9597 83.343 50.9136C83.3741 50.76 83.4052 50.6064 83.4363 50.4682C83.4674 50.3453 83.4985 50.2224 83.514 50.0996C83.5296 50.0535 83.5296 50.0074 83.5296 49.9613C83.5607 49.8231 83.5762 49.6695 83.5918 49.5159C83.6073 49.393 83.6384 49.2702 83.654 49.1473C83.654 49.0859 83.6695 49.0398 83.6695 48.9783C83.685 48.8401 83.7006 48.6865 83.7161 48.5483C83.7317 48.4408 83.7472 48.3179 83.7472 48.2104C83.7472 48.1336 83.7472 48.0722 83.7628 47.9954C83.7783 47.8418 83.7783 47.7035 83.7783 47.5499C83.7006 47.4271 83.7006 47.3196 83.7006 47.212Z" fill="url(#paint4_linear)"/>
</g>
<rect x="90" y="90" width="38" height="38" rx="19" fill="url(#paint5_linear)"/>
<path d="M98.9508 120.066L103.168 118.684C103.322 118.633 103.462 118.548 103.575 118.433L113.459 108.492L109.522 104.553L99.664 114.469C99.5352 114.6 99.4431 114.764 99.3971 114.943L98.2652 119.429C98.164 119.832 98.5551 120.198 98.9508 120.066Z" fill="white"/>
<path d="M119.275 100.699L117.282 98.7069C116.801 98.2261 115.826 98.2191 115.354 98.6885L110.495 103.575L114.434 107.514L115.964 105.975L116.709 106.725C116.889 106.904 116.887 107.196 116.709 107.376L115.502 108.581L114.524 109.557L110.431 113.638C110.072 113.997 110.07 114.579 110.429 114.94C110.608 115.12 110.845 115.209 111.08 115.209C111.314 115.209 111.549 115.12 111.731 114.94L118.009 108.676C118.907 107.781 118.909 106.322 118.014 105.425L117.262 104.668L119.291 102.627C119.762 102.156 119.756 101.18 119.275 100.699Z" fill="white"/>
<defs>
<linearGradient id="paint0_linear" x1="68.2126" y1="66.8877" x2="68.2126" y2="168.525" gradientUnits="userSpaceOnUse">
<stop stop-color="#9B90E1"/>
<stop offset="1" stop-color="#7D73B8"/>
</linearGradient>
<linearGradient id="paint1_linear" x1="60.3379" y1="70.4258" x2="60.3379" y2="168.5" gradientUnits="userSpaceOnUse">
<stop stop-color="#D4CFF2"/>
<stop offset="1" stop-color="#443699" stop-opacity="0.97"/>
</linearGradient>
<linearGradient id="paint2_linear" x1="43.2521" y1="92.1343" x2="43.2521" y2="169.191" gradientUnits="userSpaceOnUse">
<stop offset="0.03125" stop-color="#CBC2FF"/>
<stop offset="1" stop-color="#312479"/>
</linearGradient>
<linearGradient id="paint3_linear" x1="45.3697" y1="62.0264" x2="45.3697" y2="89.397" gradientUnits="userSpaceOnUse">
<stop offset="0.03125" stop-color="#CBC2FF"/>
<stop offset="1" stop-color="#7F73C2"/>
</linearGradient>
<linearGradient id="paint4_linear" x1="66.7783" y1="26.9995" x2="66.7783" y2="63.9995" gradientUnits="userSpaceOnUse">
<stop stop-color="#9B90E1"/>
<stop offset="1" stop-color="#7D73B8"/>
</linearGradient>
<linearGradient id="paint5_linear" x1="100.5" y1="94.5" x2="117.5" y2="123.5" gradientUnits="userSpaceOnUse">
<stop stop-color="#23CA98"/>
<stop offset="1" stop-color="#17AEB8"/>
</linearGradient>
</defs>
</svg>
