<svg width="128" height="128" viewBox="0 0 128 128" fill="none" xmlns="http://www.w3.org/2000/svg">
<circle cx="64" cy="64" r="64" fill="#6239DA"/>
<circle cx="64" cy="64" r="64" fill="#6239DA"/>
<mask id="mask0" mask-type="alpha" maskUnits="userSpaceOnUse" x="0" y="0" width="128" height="128">
<circle cx="64" cy="64" r="64" fill="#6239DA"/>
<circle cx="64" cy="64" r="64" fill="#6239DA"/>
</mask>
<g mask="url(#mask0)">
<path d="M89.9302 42.9564L105.07 50.4484C106.267 48.3673 108.285 43.4247 106.787 40.3031C105.289 37.1814 102 36.1929 100.544 36.0889L89.9302 42.9564Z" fill="#A5C3FB"/>
<path d="M103.978 37.8065C99.1082 35.1843 95.7056 41.0842 94.6131 44.3619L73.2992 104.453C72.5762 111.999 63.9435 115.92 57.7859 111.499L53.4076 108.355L28.4346 89.4694L53.8219 21.1189C55.439 16.7652 60.4557 14.7555 64.6218 16.808C79.3538 24.0659 100.165 34.467 104.446 37.1822C109.566 40.4287 107.412 47.3795 105.695 50.4491H105.071C106.735 47.3275 108.848 40.4287 103.978 37.8065Z" fill="#EEE9FE"/>
<path d="M50.9457 91.8736C51.7344 89.4773 54.5173 88.4005 56.7135 89.6419L68.8943 96.5268C70.5553 97.4657 71.322 99.4471 70.7255 101.26L70.0818 103.215C69.2931 105.612 66.5102 106.689 64.314 105.447L52.1332 98.5623C50.4721 97.6234 49.7055 95.642 50.302 93.8295L50.9457 91.8736Z" fill="#356ED7"/>
<path d="M61.6797 112.414C68.3912 114.756 71.825 109.137 73.0736 105.547C71.825 111.01 67.9229 113.351 65.8939 113.663C64.2706 113.913 61.9919 113.663 60.5871 113.039C59.4827 112.548 34.9321 98.2596 24.4868 92.1735C21.7433 90.575 20.4198 87.3429 21.2413 84.2758L22.1911 80.73L58.2459 100.396C56.6851 103.986 55.9322 110.41 61.6797 112.414Z" fill="#A5C3FB"/>
<path d="M55.7059 97.9007L57.6589 93.5195L56.9786 93.1837L55.11 94.7701L55.0976 92.2025L54.4178 91.8438L52.4648 96.2249L53.1222 96.5603L54.3765 93.7225L54.4128 96.2448L54.4806 96.2921L56.3258 94.7281L55.0715 97.5658L55.7059 97.9007Z" fill="#FEFEFE"/>
<path d="M65.9609 98.0482L66.0588 97.8631L65.4115 97.5045L63.1835 101.98L63.8315 102.307L64.1248 101.783C64.1472 101.762 64.1696 101.741 64.1917 101.73C64.2012 101.726 64.2106 101.723 64.2199 101.723C64.3781 101.633 64.5342 101.637 64.6895 101.672C64.7207 101.672 64.7519 101.673 64.7824 101.705C64.9675 101.803 65.0567 101.993 65.1757 102.245C65.2627 102.528 65.4107 102.875 65.7503 103.039C65.7566 103.043 65.7625 103.046 65.7682 103.048C65.7736 103.051 65.7787 103.053 65.7837 103.055C65.7995 103.062 65.8136 103.067 65.8276 103.072C65.8509 103.081 65.8741 103.089 65.9049 103.105C66.1524 103.205 66.4652 103.181 66.7817 103.001C66.9399 102.911 67.0981 102.821 67.2259 102.699L66.956 102.224C66.829 102.315 66.7027 102.375 66.5764 102.434C66.4182 102.524 66.2621 102.52 66.1068 102.486C66.0756 102.485 66.0444 102.484 66.0139 102.452C65.8288 102.354 65.7389 102.196 65.6206 101.912C65.6033 101.879 65.5859 101.845 65.5683 101.811C65.4346 101.549 65.2874 101.262 65.0147 101.117C64.9843 101.085 64.953 101.085 64.8914 101.052C64.768 100.987 64.6432 100.984 64.4864 101.011L64.8465 100.302C64.8784 100.271 64.9103 100.241 64.9415 100.241C65.0998 100.151 65.2558 100.155 65.4111 100.19C65.4424 100.191 65.4736 100.191 65.504 100.223C65.6891 100.321 65.7783 100.511 65.8973 100.763C66.0156 101.047 66.1636 101.394 66.5032 101.558C66.5174 101.566 66.53 101.571 66.5417 101.576C66.5526 101.581 66.5627 101.585 66.5727 101.588C66.5986 101.598 66.6235 101.606 66.6578 101.624C66.9052 101.724 67.2181 101.7 67.5345 101.52C67.6928 101.43 67.851 101.34 67.9787 101.218L67.7088 100.743C67.5818 100.834 67.4555 100.893 67.3292 100.953C67.171 101.043 67.0149 101.039 66.8596 101.004C66.8284 101.004 66.7972 101.003 66.7667 100.971C66.5817 100.873 66.4924 100.684 66.3735 100.431C66.2552 100.147 66.1072 99.8002 65.7988 99.6369C65.7679 99.6205 65.7447 99.6122 65.7215 99.6038C65.6982 99.5955 65.675 99.5871 65.6442 99.5708C65.5201 99.5367 65.396 99.5025 65.2392 99.5301L65.5681 98.8196C65.6001 98.7892 65.632 98.7587 65.6632 98.7594C65.8214 98.6694 65.9774 98.6731 66.1328 98.7079C66.164 98.7087 66.1952 98.7094 66.2257 98.7413C66.4107 98.8393 66.5007 98.9976 66.6189 99.2814C66.7372 99.5652 66.8852 99.9121 67.2248 100.076C67.2557 100.093 67.2789 100.101 67.3021 100.109C67.3095 100.112 67.317 100.115 67.3247 100.117C67.3317 100.12 67.339 100.123 67.3467 100.126C67.3568 100.131 67.3675 100.136 67.3794 100.142C67.6269 100.242 67.9397 100.218 68.2562 100.038C68.4144 99.9479 68.5726 99.8579 68.7004 99.736L68.4305 99.2613C68.3034 99.352 68.1771 99.4115 68.0508 99.471C67.8926 99.561 67.7366 99.5573 67.5813 99.5225C67.5501 99.5217 67.5189 99.521 67.4884 99.4891C67.3033 99.3911 67.2141 99.2016 67.0951 98.949C67.0852 98.9303 67.0754 98.9113 67.0656 98.8921L67.0428 98.8478C66.9091 98.5864 66.7618 98.2986 66.4892 98.1542C66.4704 98.1345 66.4512 98.1267 66.4248 98.1159C66.4085 98.1092 66.3894 98.1014 66.3658 98.0889C66.2417 98.0548 66.1176 98.0206 65.9609 98.0482Z" fill="#FEFEFE"/>
<path d="M64.6396 97.1342L61.5532 100.94L60.7598 100.533L61.5798 95.5541L62.3049 95.9368L61.6028 99.7265L63.914 96.7744L64.6396 97.1342Z" fill="#FEFEFE"/>
<path fill-rule="evenodd" clip-rule="evenodd" d="M60.5921 97.7329C60.8812 97.0974 60.9635 96.4803 60.8167 95.8582C60.6694 95.259 60.3582 94.8166 59.8831 94.5311C59.407 94.2914 58.9024 94.3033 58.3694 94.5666C57.8359 94.8529 57.4364 95.3026 57.1473 95.9381C56.8583 96.5735 56.776 97.1906 56.9227 97.8128C57.0695 98.4349 57.3807 98.8773 57.8569 99.1169C58.333 99.3566 58.8375 99.3448 59.3705 99.0814C59.9035 98.8181 60.3031 98.3684 60.5921 97.7329ZM59.9576 97.3981C59.7648 97.8294 59.5062 98.1217 59.182 98.275C58.8572 98.4513 58.5364 98.4442 58.2655 98.2549C57.9707 98.1109 57.7705 97.8314 57.6869 97.4628C57.5804 97.0937 57.6353 96.6823 57.8276 96.2739C58.02 95.8655 58.2791 95.5503 58.6033 95.397C58.9276 95.2436 59.2489 95.2278 59.5432 95.3947C59.8375 95.5616 60.0377 95.8411 60.1213 96.2097C60.2049 96.5783 60.15 96.9897 59.9576 97.3981Z" fill="#FEFEFE"/>
<path d="M57.8948 38.7455L56.5326 41.99L56.0449 41.7547L57.1212 39.1826L56.5831 39.1322L56.7008 38.527L57.4744 38.5438L57.8948 38.7455Z" fill="url(#paint0_linear)"/>
<path d="M56.314 38.4429C56.3644 38.8296 56.2803 39.2835 56.0617 39.8046C55.8431 40.3089 55.5908 40.6788 55.2881 40.8973C54.9854 41.1159 54.6827 41.1495 54.3632 40.9982C54.0604 40.8469 53.8754 40.5779 53.8418 40.1745C53.7914 39.7878 53.8754 39.3339 54.0941 38.8128C54.3127 38.3085 54.565 37.9386 54.8677 37.7201C55.1704 37.5015 55.4731 37.4679 55.7758 37.6192C56.0954 37.7705 56.2635 38.0563 56.314 38.4429ZM55.1199 40.2921C55.2881 40.1577 55.4395 39.9055 55.574 39.5693C55.7254 39.2162 55.7926 38.9473 55.7758 38.7119C55.759 38.4934 55.6749 38.3421 55.5236 38.258C55.3554 38.174 55.204 38.2076 55.0358 38.3421C54.8677 38.4766 54.7163 38.7287 54.5818 39.0649C54.4304 39.418 54.3632 39.7038 54.38 39.9223C54.3968 40.1408 54.4809 40.2921 54.6322 40.3762C54.7836 40.4602 54.9518 40.4266 55.1199 40.2921Z" fill="url(#paint1_linear)"/>
<path d="M63.6128 41.5529L62.2506 44.7974L61.7629 44.5621L62.8392 41.99L62.3178 41.9396L62.4187 41.3344L63.1923 41.3512L63.6128 41.5529Z" fill="url(#paint2_linear)"/>
<path d="M62.0319 41.2504C62.0824 41.637 61.9983 42.0909 61.7797 42.612C61.561 43.1164 61.3088 43.4862 61.0061 43.7047C60.7033 43.9233 60.4006 43.9569 60.0811 43.8056C59.7784 43.6543 59.5934 43.3853 59.5598 42.9819C59.5093 42.5952 59.5934 42.1413 59.812 41.6202C60.0306 41.1159 60.2829 40.746 60.5856 40.5275C60.8883 40.3089 61.1911 40.2753 61.4938 40.4266C61.8133 40.5779 61.9815 40.8637 62.0319 41.2504ZM60.8379 43.0996C61.0061 42.9651 61.1574 42.7129 61.292 42.3767C61.4433 42.0237 61.5106 41.7379 61.4938 41.5193C61.477 41.3008 61.3929 41.1495 61.2415 41.0654C61.0733 40.9814 60.922 41.015 60.7538 41.1495C60.5856 41.284 60.4343 41.5361 60.2997 41.8724C60.1484 42.2254 60.0811 42.5112 60.0979 42.7297C60.1147 42.9483 60.1988 43.0996 60.3502 43.1836C60.5184 43.2677 60.6697 43.234 60.8379 43.0996Z" fill="url(#paint3_linear)"/>
<path d="M59.812 40.1577C59.8625 40.5443 59.7784 40.9982 59.5597 41.5194C59.3411 42.0237 59.0889 42.3935 58.7861 42.6121C58.4834 42.8306 58.1807 42.8642 57.8612 42.7129C57.5585 42.5616 57.3735 42.2927 57.3398 41.8892C57.2894 41.5026 57.3735 41.0487 57.5921 40.5275C57.8107 40.0232 58.063 39.6534 58.3657 39.4348C58.6684 39.2163 58.9711 39.1827 59.2738 39.334C59.5934 39.5021 59.7616 39.771 59.812 40.1577ZM58.618 42.0069C58.7861 41.8724 58.9375 41.6202 59.072 41.284C59.2234 40.931 59.2907 40.6452 59.2738 40.4267C59.257 40.2081 59.1729 40.0568 59.0216 39.9728C58.8534 39.8887 58.7021 39.9223 58.5339 40.0568C58.3657 40.1913 58.2143 40.4435 58.0798 40.7797C57.9284 41.1327 57.8612 41.4185 57.878 41.637C57.8948 41.8556 57.9789 42.0069 58.1303 42.0909C58.2984 42.175 58.4666 42.1414 58.618 42.0069Z" fill="url(#paint4_linear)"/>
<path d="M67.1276 43.2676L65.7654 46.5289L65.2777 46.2768L66.354 43.7047L65.8158 43.6543L65.9168 43.0491L66.6904 43.0659L67.1276 43.2676Z" fill="url(#paint5_linear)"/>
<path d="M65.53 42.9651C65.5804 43.3518 65.4963 43.8056 65.2777 44.3268C65.0591 44.8311 64.8068 45.2009 64.5041 45.4195C64.2014 45.638 63.8987 45.6717 63.5791 45.5204C63.2764 45.3691 63.0914 45.1001 63.0578 44.6966C63.0073 44.31 63.0914 43.8561 63.31 43.3349C63.5287 42.8306 63.7809 42.4608 64.0837 42.2422C64.3864 42.0237 64.6891 41.9901 64.9918 42.1414C65.3113 42.3095 65.4963 42.5785 65.53 42.9651ZM64.3359 44.8143C64.5041 44.6798 64.6554 44.4276 64.79 44.0914C64.9413 43.7384 65.0086 43.4694 64.9918 43.2341C64.975 43.0155 64.8909 42.8642 64.7395 42.7802C64.5714 42.6961 64.42 42.7298 64.2518 42.8642C64.0837 42.9987 63.9323 43.2509 63.7978 43.5871C63.6464 43.9401 63.5791 44.2259 63.5959 44.4445C63.6128 44.663 63.6969 44.8143 63.8482 44.8984C64.0164 44.9824 64.1846 44.9488 64.3359 44.8143Z" fill="url(#paint6_linear)"/>
<path d="M72.8456 46.075L71.4833 49.3363L70.9956 49.0842L72.072 46.5121L71.5338 46.4617L71.6515 45.8565L72.4083 45.8733L72.8456 46.075Z" fill="url(#paint7_linear)"/>
<path d="M71.2479 45.7892C71.2984 46.1759 71.2143 46.6298 70.9956 47.1509C70.777 47.6552 70.5248 48.0251 70.222 48.2436C69.9193 48.4622 69.6166 48.4958 69.2971 48.3445C68.9944 48.1932 68.8094 47.9242 68.7757 47.5208C68.7253 47.1341 68.8094 46.6802 69.028 46.1591C69.2466 45.6548 69.4989 45.2849 69.8016 45.0664C70.1043 44.8478 70.407 44.8142 70.7097 44.9655C71.0293 45.1168 71.2143 45.3858 71.2479 45.7892ZM70.0539 47.6216C70.222 47.4871 70.3734 47.235 70.5079 46.8988C70.6593 46.5457 70.7266 46.2768 70.7097 46.0414C70.6929 45.8229 70.6088 45.6716 70.4575 45.5875C70.2893 45.5035 70.138 45.5371 69.9698 45.6716C69.8016 45.8061 69.6502 46.0582 69.5157 46.3944C69.3643 46.7475 69.2971 47.0332 69.3139 47.2518C69.3307 47.4703 69.4148 47.6216 69.5662 47.7057C69.7343 47.7897 69.9025 47.7729 70.0539 47.6216Z" fill="url(#paint8_linear)"/>
<path d="M69.0448 44.6966C69.0953 45.0832 69.0112 45.5371 68.7926 46.0583C68.5739 46.5626 68.3217 46.9324 68.0189 47.151C67.7162 47.3695 67.4135 47.4031 67.094 47.2518C66.7913 47.1005 66.6063 46.8316 66.5726 46.4281C66.5222 46.0414 66.6063 45.5875 66.8249 45.0664C67.0435 44.5621 67.2958 44.1922 67.5985 43.9737C67.9012 43.7552 68.2039 43.7215 68.5067 43.8728C68.8094 44.0241 68.9944 44.2931 69.0448 44.6966ZM67.8508 46.5458C68.0189 46.4113 68.1703 46.1591 68.3048 45.8229C68.4562 45.4699 68.5235 45.2009 68.5067 44.9655C68.4898 44.747 68.4058 44.5957 68.2544 44.5117C68.0862 44.4276 67.9349 44.4612 67.7667 44.5957C67.5985 44.7302 67.4472 44.9824 67.3126 45.3186C67.1613 45.6716 67.094 45.9574 67.1108 46.1759C67.1276 46.3945 67.2117 46.5458 67.3631 46.6298C67.5144 46.7139 67.6826 46.6803 67.8508 46.5458Z" fill="url(#paint9_linear)"/>
<path d="M76.3436 47.8066L74.9814 51.0511L74.4937 50.8158L75.57 48.2437L75.0318 48.1933L75.1496 47.5881H75.9232L76.3436 47.8066Z" fill="url(#paint10_linear)"/>
<path d="M74.7628 47.504C74.8132 47.8906 74.7291 48.3445 74.5105 48.8657C74.2919 49.37 74.0396 49.7398 73.7369 49.9584C73.4342 50.1769 73.1315 50.2105 72.8119 50.0592C72.5092 49.9079 72.3242 49.639 72.2906 49.2355C72.2401 48.8489 72.3242 48.395 72.5429 47.8738C72.7615 47.3695 73.0137 46.9997 73.3165 46.7811C73.6192 46.5626 73.9219 46.529 74.2246 46.6803C74.5273 46.8316 74.7123 47.1173 74.7628 47.504ZM73.5687 49.3532C73.7369 49.2187 73.8883 48.9665 74.0228 48.6303C74.1742 48.2773 74.2414 47.9915 74.2246 47.773C74.2078 47.5544 74.1237 47.4031 73.9723 47.3191C73.8042 47.235 73.6528 47.2686 73.4846 47.4031C73.3165 47.5376 73.1651 47.7898 73.0306 48.126C72.8792 48.479 72.8119 48.7648 72.8288 48.9833C72.8456 49.2019 72.9297 49.3532 73.081 49.4372C73.2324 49.5213 73.4005 49.4877 73.5687 49.3532Z" fill="url(#paint11_linear)"/>
<path d="M78.2608 49.2187C78.3112 49.6054 78.2272 50.0593 78.0085 50.5804C77.7899 51.0847 77.5376 51.4546 77.2349 51.6731C76.9322 51.8917 76.6295 51.9253 76.31 51.774C76.0073 51.6227 75.8223 51.3537 75.7886 50.9502C75.7382 50.5636 75.8223 50.1097 76.0409 49.5886C76.2595 49.0842 76.5118 48.7144 76.8145 48.4959C77.1172 48.2773 77.4199 48.2437 77.7226 48.395C78.0422 48.5631 78.2103 48.8321 78.2608 49.2187ZM77.0668 51.0679C77.2349 50.9334 77.3863 50.6813 77.5208 50.3451C77.6722 49.992 77.7395 49.7231 77.7226 49.4877C77.7058 49.2692 77.6217 49.1179 77.4704 49.0338C77.3022 48.9498 77.1508 48.9834 76.9827 49.1179C76.8145 49.2524 76.6631 49.5045 76.5286 49.8407C76.3772 50.1938 76.31 50.4795 76.3268 50.6981C76.3436 50.9166 76.4277 51.0679 76.579 51.152C76.7472 51.236 76.8986 51.2024 77.0668 51.0679Z" fill="url(#paint12_linear)"/>
<path d="M79.8416 49.5212L78.4962 52.7657L78.0085 52.5304L79.0848 49.9583L78.5467 49.9079L78.6476 49.3027L79.4212 49.3195L79.8416 49.5212Z" fill="url(#paint13_linear)"/>
<path d="M83.3565 51.2528L81.9943 54.4973L81.5066 54.262L82.5829 51.6899L82.0447 51.6226L82.1625 51.0175L82.9361 51.0343L83.3565 51.2528Z" fill="url(#paint14_linear)"/>
<path d="M81.7588 50.9502C81.8093 51.3368 81.7252 51.7907 81.5066 52.3119C81.288 52.8162 81.0357 53.186 80.733 53.4046C80.4303 53.6231 80.1275 53.6567 79.808 53.5055C79.5053 53.3542 79.3203 53.0852 79.2867 52.6817C79.2362 52.2951 79.3203 51.8412 79.5389 51.32C79.7576 50.8157 80.0098 50.4459 80.3125 50.2273C80.6153 50.0088 80.918 49.9752 81.2207 50.1265C81.5402 50.2778 81.7252 50.5467 81.7588 50.9502ZM80.5648 52.7826C80.733 52.6481 80.8843 52.3959 81.0189 52.0597C81.1702 51.7067 81.2375 51.4377 81.2207 51.2024C81.2039 50.9838 81.1198 50.8325 80.9684 50.7485C80.8002 50.6644 80.6489 50.698 80.4807 50.8325C80.3125 50.967 80.1612 51.2192 80.0266 51.5554C79.8753 51.9084 79.808 52.1942 79.8248 52.4127C79.8416 52.6313 79.9257 52.7826 80.0771 52.8666C80.2453 52.9507 80.4134 52.9339 80.5648 52.7826Z" fill="url(#paint15_linear)"/>
<path d="M85.2737 52.6649C85.3242 53.0516 85.2401 53.5055 85.0214 54.0266C84.8028 54.5309 84.5505 54.9008 84.2478 55.1193C83.9451 55.3379 83.6424 55.3715 83.3229 55.2202C83.0202 55.0689 82.8352 54.7999 82.8015 54.3965C82.7511 54.0098 82.8352 53.5559 83.0538 53.0348C83.2724 52.5305 83.5247 52.1606 83.8274 51.9421C84.1301 51.7235 84.4328 51.6899 84.7355 51.8412C85.0551 51.9925 85.2232 52.2783 85.2737 52.6649ZM84.0797 54.5141C84.2478 54.3797 84.3992 54.1275 84.5337 53.7913C84.6851 53.4382 84.7524 53.1525 84.7355 52.9339C84.7187 52.7154 84.6346 52.5641 84.4833 52.48C84.3151 52.396 84.1637 52.4296 83.9956 52.5641C83.8274 52.6986 83.676 52.9507 83.5415 53.2869C83.3901 53.64 83.3229 53.9258 83.3397 54.1443C83.3565 54.3628 83.4406 54.5141 83.5919 54.5982C83.7601 54.6822 83.9115 54.6486 84.0797 54.5141Z" fill="url(#paint16_linear)"/>
<path d="M53.4214 43.2509L52.0591 46.5122L51.5714 46.26L52.6478 43.7048L52.1096 43.6375L52.2273 43.0324L53.0009 43.0492L53.4214 43.2509Z" fill="url(#paint17_linear)"/>
<path d="M56.9194 44.9824L55.5572 48.2269L55.0863 47.9915L56.1626 45.4194L55.6245 45.369L55.7254 44.7638L56.499 44.7806L56.9194 44.9824Z" fill="url(#paint18_linear)"/>
<path d="M55.3386 44.6797C55.389 45.0664 55.3049 45.5203 55.0863 46.0414C54.8677 46.5457 54.6154 46.9156 54.3127 47.1341C54.01 47.3526 53.7073 47.3863 53.3877 47.235C53.085 47.0837 52.9 46.8147 52.8664 46.4112C52.8159 46.0246 52.9 45.5707 53.1187 45.0495C53.3373 44.5452 53.5895 44.1754 53.8923 43.9568C54.195 43.7383 54.4977 43.7047 54.8004 43.856C55.1199 44.0073 55.2881 44.2931 55.3386 44.6797ZM54.1445 46.5289C54.3127 46.3944 54.4641 46.1423 54.5986 45.806C54.75 45.453 54.8172 45.184 54.8004 44.9487C54.7836 44.7301 54.6995 44.5788 54.5481 44.4948C54.38 44.4107 54.2286 44.4444 54.0604 44.5788C53.8923 44.7133 53.7409 44.9655 53.6064 45.3017C53.455 45.6547 53.3877 45.9405 53.3877 46.1591C53.4046 46.3776 53.4886 46.5289 53.64 46.613C53.825 46.697 53.9763 46.6634 54.1445 46.5289Z" fill="url(#paint19_linear)"/>
<path d="M60.4343 46.6971L59.072 49.9416L58.5843 49.7063L59.6607 47.1342L59.1225 47.0838L59.2402 46.4786L60.0138 46.4954L60.4343 46.6971Z" fill="url(#paint20_linear)"/>
<path d="M58.8366 46.3945C58.8871 46.7811 58.803 47.235 58.5843 47.7561C58.3657 48.2605 58.1135 48.6303 57.8107 48.8488C57.508 49.0674 57.2053 49.101 56.8858 48.9497C56.5831 48.7984 56.3981 48.5294 56.3644 48.126C56.314 47.7393 56.3981 47.2854 56.6167 46.7643C56.8353 46.26 57.0876 45.8901 57.3903 45.6716C57.693 45.453 57.9957 45.4194 58.2984 45.5707C58.618 45.7388 58.803 46.0078 58.8366 46.3945ZM57.6426 48.2437C57.8107 48.1092 57.9621 47.857 58.0966 47.5208C58.248 47.1678 58.3153 46.882 58.2984 46.6634C58.2816 46.4449 58.1975 46.2936 58.0462 46.2095C57.878 46.1255 57.7267 46.1591 57.5585 46.2936C57.3903 46.4281 57.2389 46.6802 57.1044 47.0165C56.953 47.3695 56.8858 47.6553 56.9026 47.8738C56.9194 48.0924 57.0035 48.2436 57.1549 48.3277C57.323 48.4118 57.4912 48.3781 57.6426 48.2437Z" fill="url(#paint21_linear)"/>
<path d="M63.9323 48.4287L62.5701 51.6732L62.0824 51.4378L63.1587 48.8657L62.6373 48.7985L62.7383 48.1933L63.5119 48.2101L63.9323 48.4287Z" fill="url(#paint22_linear)"/>
<path d="M62.3515 48.1261C62.4019 48.5127 62.3178 48.9666 62.0992 49.4877C61.8806 49.9921 61.6283 50.3619 61.3256 50.5804C61.0229 50.799 60.7202 50.8326 60.4006 50.6813C60.0979 50.53 59.9129 50.261 59.8793 49.8576C59.8288 49.4709 59.9129 49.017 60.1316 48.4959C60.3502 47.9916 60.6024 47.6217 60.9052 47.4032C61.2079 47.1847 61.5106 47.151 61.8133 47.3023C62.1328 47.4536 62.301 47.7226 62.3515 48.1261ZM61.1574 49.9584C61.3256 49.824 61.477 49.5718 61.6115 49.2356C61.7629 48.8825 61.8301 48.6136 61.8133 48.3782C61.7965 48.1597 61.7124 48.0084 61.561 47.9243C61.3929 47.8403 61.2415 47.8739 61.0733 48.0084C60.9052 48.1429 60.7538 48.395 60.6193 48.7312C60.4679 49.0843 60.4006 49.3701 60.4175 49.5886C60.4343 49.8071 60.5184 49.9584 60.6697 50.0425C60.8211 50.1434 60.9892 50.1097 61.1574 49.9584Z" fill="url(#paint23_linear)"/>
<path d="M67.4303 50.1433L66.0849 53.3878L65.5972 53.1525L66.6735 50.5804L66.1354 50.53L66.2363 49.9248L67.0099 49.9416L67.4303 50.1433Z" fill="url(#paint24_linear)"/>
<path d="M65.8495 49.8407C65.8999 50.2273 65.8159 50.6812 65.5972 51.2023C65.3786 51.7067 65.1263 52.0765 64.8236 52.2951C64.5209 52.5136 64.2182 52.5472 63.8987 52.3959C63.5959 52.2446 63.411 51.9756 63.3773 51.5722C63.3269 51.1855 63.411 50.7316 63.6296 50.2105C63.8482 49.7062 64.1005 49.3363 64.4032 49.1178C64.7059 48.8993 65.0086 48.8656 65.3113 49.0169C65.6309 49.1682 65.8159 49.454 65.8495 49.8407ZM64.6555 51.6899C64.8236 51.5554 64.975 51.3032 65.1095 50.967C65.2609 50.614 65.3282 50.345 65.3113 50.1096C65.2945 49.8911 65.2104 49.7398 65.0591 49.6557C64.8909 49.5717 64.7395 49.6053 64.5714 49.7398C64.4032 49.8743 64.2518 50.1264 64.1173 50.4627C63.9659 50.8157 63.8987 51.1015 63.9155 51.32C63.9323 51.5386 64.0164 51.6899 64.1677 51.7739C64.3359 51.858 64.5041 51.8243 64.6555 51.6899Z" fill="url(#paint25_linear)"/>
<path d="M71.5674 52.6481C71.6179 53.0347 71.5338 53.4886 71.3152 54.0098C71.0966 54.5141 70.8443 54.8839 70.5416 55.1025C70.2389 55.321 69.9361 55.3546 69.6166 55.2033C69.3139 55.052 69.1289 54.7831 69.0953 54.3796C69.0448 53.993 69.1289 53.5391 69.3475 53.0179C69.5662 52.5136 69.8184 52.1438 70.1211 51.9252C70.4239 51.7067 70.7266 51.6731 71.0293 51.8243C71.3488 51.9925 71.5338 52.2614 71.5674 52.6481ZM70.3734 54.4973C70.5416 54.3628 70.6929 54.1106 70.8275 53.7744C70.9788 53.4214 71.0461 53.1356 71.0293 52.9171C71.0125 52.6985 70.9284 52.5472 70.777 52.4632C70.6088 52.3791 70.4575 52.4127 70.2893 52.5472C70.1211 52.6817 69.9698 52.9339 69.8352 53.2701C69.6839 53.6231 69.6166 53.9089 69.6334 54.1274C69.6503 54.346 69.7343 54.4973 69.8857 54.5813C70.0539 54.6654 70.222 54.6318 70.3734 54.4973Z" fill="url(#paint26_linear)"/>
<path d="M73.7874 53.7407C73.8378 54.1273 73.7537 54.5812 73.5351 55.1024C73.3165 55.6067 73.0642 55.9765 72.7615 56.1951C72.4588 56.4136 72.1561 56.4472 71.8365 56.2959C71.5338 56.1446 71.3488 55.8757 71.3152 55.4722C71.2647 55.0856 71.3488 54.6317 71.5674 54.1105C71.7861 53.6062 72.0383 53.2364 72.341 53.0178C72.6438 52.7993 72.9465 52.7657 73.2492 52.917C73.5687 53.0683 73.7369 53.3372 73.7874 53.7407ZM72.5933 55.5731C72.7615 55.4386 72.9128 55.1864 73.0474 54.8502C73.1987 54.4972 73.266 54.2114 73.2492 53.9929C73.2324 53.7743 73.1483 53.623 72.9969 53.539C72.8288 53.4549 72.6774 53.4885 72.5092 53.623C72.341 53.7575 72.1897 54.0097 72.0552 54.3459C71.9038 54.6989 71.8365 54.9847 71.8533 55.2032C71.8702 55.4218 71.9542 55.5731 72.1056 55.6571C72.2738 55.758 72.4251 55.7244 72.5933 55.5731Z" fill="url(#paint27_linear)"/>
<path d="M76.0073 54.8335C76.0577 55.2201 75.9736 55.674 75.755 56.1952C75.5364 56.6995 75.2841 57.0693 74.9814 57.2879C74.6787 57.5064 74.376 57.5401 74.0564 57.3888C73.7537 57.2375 73.5687 56.9685 73.5351 56.565C73.4846 56.1784 73.5687 55.7245 73.7873 55.2033C74.006 54.699 74.2582 54.3292 74.561 54.1106C74.8637 53.8921 75.1664 53.8585 75.4691 54.0098C75.7718 54.1611 75.9568 54.43 76.0073 54.8335ZM74.8132 56.6659C74.9814 56.5314 75.1327 56.2792 75.2673 55.943C75.4186 55.59 75.4859 55.3042 75.4691 55.0857C75.4523 54.8671 75.3682 54.7158 75.2168 54.6318C75.0487 54.5477 74.8973 54.5813 74.7291 54.7158C74.561 54.8503 74.4096 55.1025 74.2751 55.4387C74.1237 55.7917 74.0564 56.0775 74.0732 56.296C74.0901 56.5146 74.1742 56.6659 74.3255 56.7499C74.4769 56.834 74.645 56.8172 74.8132 56.6659Z" fill="url(#paint28_linear)"/>
<path d="M69.3644 51.5554C69.4148 51.9421 69.3307 52.396 69.1121 52.9171C68.8935 53.4214 68.6412 53.7913 68.3385 54.0098C68.0358 54.2283 67.7331 54.262 67.4135 54.1107C67.1108 53.9594 66.9258 53.6904 66.8922 53.2869C66.8417 52.9003 66.9258 52.4464 67.1444 51.9252C67.3631 51.4209 67.6153 51.0511 67.918 50.8325C68.2208 50.614 68.5235 50.5804 68.8262 50.7317C69.1289 50.8998 69.3139 51.1688 69.3644 51.5554ZM68.1703 53.4046C68.3385 53.2701 68.4898 53.018 68.6244 52.6817C68.7757 52.3287 68.843 52.0429 68.8262 51.8244C68.8094 51.6058 68.7253 51.4545 68.5739 51.3705C68.4058 51.2864 68.2544 51.3201 68.0862 51.4545C67.918 51.589 67.7667 51.8412 67.6321 52.1774C67.4808 52.5304 67.4135 52.8162 67.4303 53.0348C67.4472 53.2533 67.5312 53.4046 67.6826 53.4887C67.834 53.5727 68.0021 53.5391 68.1703 53.4046Z" fill="url(#paint29_linear)"/>
<path d="M79.808 56.212L78.4458 59.4565L77.9581 59.2212L79.0344 56.6491L78.4963 56.5987L78.614 55.9935L79.3708 56.0103L79.808 56.212Z" fill="url(#paint30_linear)"/>
<path d="M78.2103 55.9095C78.2608 56.2962 78.1767 56.7501 77.9581 57.2712C77.7395 57.7755 77.4872 58.1454 77.1845 58.3639C76.8818 58.5824 76.5791 58.6161 76.2595 58.4648C75.9568 58.3135 75.7718 58.0445 75.7382 57.641C75.6877 57.2544 75.7718 56.8005 75.9904 56.2793C76.2091 55.775 76.4613 55.4052 76.764 55.1866C77.0668 54.9681 77.3695 54.9345 77.6722 55.0858C77.9917 55.2539 78.1767 55.5229 78.2103 55.9095ZM77.0163 57.7587C77.1845 57.6242 77.3358 57.3721 77.4704 57.0358C77.6217 56.6828 77.689 56.397 77.6722 56.1785C77.6554 55.9599 77.5713 55.8086 77.4199 55.7246C77.2518 55.6405 77.1004 55.6742 76.9322 55.8086C76.764 55.9431 76.6127 56.1953 76.4781 56.5315C76.3268 56.8845 76.2595 57.1703 76.2763 57.3889C76.2932 57.6074 76.3772 57.7587 76.5286 57.8428C76.6968 57.9268 76.8649 57.8932 77.0163 57.7587Z" fill="url(#paint31_linear)"/>
<path d="M81.1534 56.8845L79.808 60.129L79.3203 59.8937L80.3966 57.3216L79.8585 57.2712L79.9594 56.666H80.733L81.1534 56.8845Z" fill="url(#paint32_linear)"/>
<path d="M82.5156 57.5569L81.1534 60.8014L80.6825 60.566L81.7588 57.994L81.2207 57.9267L81.3216 57.3215L82.0952 57.3383L82.5156 57.5569Z" fill="url(#paint33_linear)"/>
<path d="M51.6387 49.5717C51.6892 49.9584 51.6051 50.4123 51.3865 50.9334C51.1678 51.4377 50.9156 51.8076 50.6128 52.0261C50.3101 52.2446 50.0074 52.2783 49.6879 52.127C49.3852 51.9757 49.2002 51.7067 49.1665 51.3032C49.1161 50.9166 49.2002 50.4627 49.4188 49.9416C49.6374 49.4372 49.8897 49.0674 50.1924 48.8488C50.4951 48.6303 50.7978 48.5967 51.1006 48.748C51.4201 48.9161 51.6051 49.1851 51.6387 49.5717ZM50.4447 51.4209C50.6128 51.2864 50.7642 51.0343 50.8987 50.698C51.0501 50.345 51.1174 50.076 51.1006 49.8407C51.0837 49.6221 50.9997 49.4708 50.8483 49.3868C50.6969 49.3027 50.5288 49.3364 50.3606 49.4708C50.1924 49.6053 50.0411 49.8575 49.9065 50.1937C49.7552 50.5467 49.6879 50.8325 49.7047 51.0511C49.7215 51.2696 49.8056 51.4209 49.957 51.505C50.1251 51.589 50.2933 51.5554 50.4447 51.4209Z" fill="url(#paint34_linear)"/>
<path d="M53.2364 49.8744L51.8742 53.1189L51.3865 52.8835L52.4628 50.3115L51.9246 50.261L52.0423 49.6558L52.816 49.6726L53.2364 49.8744Z" fill="url(#paint35_linear)"/>
<path d="M55.1536 51.3033C55.204 51.69 55.1199 52.1439 54.9013 52.665C54.6827 53.1693 54.4304 53.5392 54.1277 53.7577C53.825 53.9762 53.5223 54.0099 53.2027 53.8586C52.9 53.7073 52.715 53.4383 52.6814 53.0348C52.6309 52.6482 52.715 52.1943 52.9337 51.6732C53.1523 51.1688 53.4046 50.799 53.7073 50.5805C54.01 50.3619 54.3127 50.3283 54.6154 50.4796C54.9349 50.6309 55.1031 50.8999 55.1536 51.3033ZM53.9595 53.1357C54.1277 53.0012 54.2791 52.7491 54.4136 52.4128C54.565 52.0598 54.6322 51.774 54.6154 51.5555C54.5986 51.3369 54.5145 51.1856 54.3632 51.1016C54.195 51.0175 54.0436 51.0512 53.8754 51.1856C53.7073 51.3201 53.5559 51.5723 53.4214 51.9085C53.27 52.2615 53.2027 52.5473 53.2196 52.7659C53.2364 52.9844 53.3205 53.1357 53.4718 53.2198C53.64 53.3206 53.7914 53.287 53.9595 53.1357Z" fill="url(#paint36_linear)"/>
<path d="M56.7344 51.6059L55.3722 54.8504L54.8845 54.6151L55.9608 52.043L55.4395 51.9758L55.5404 51.3706L56.314 51.3874L56.7344 51.6059Z" fill="url(#paint37_linear)"/>
<path d="M60.8715 54.1106C60.922 54.4972 60.8379 54.9511 60.6193 55.4723C60.4006 55.9766 60.1484 56.3464 59.8457 56.565C59.5429 56.7835 59.2402 56.8172 58.9207 56.6659C58.618 56.5146 58.433 56.2456 58.3994 55.8421C58.3489 55.4555 58.433 55.0016 58.6516 54.4804C58.8702 53.9761 59.1225 53.6063 59.4252 53.3877C59.7279 53.1692 60.0306 53.1356 60.3334 53.2869C60.6529 53.4382 60.8211 53.7071 60.8715 54.1106ZM59.6775 55.943C59.8457 55.8085 59.997 55.5563 60.1316 55.2201C60.2829 54.8671 60.3502 54.5981 60.3334 54.3628C60.3165 54.1442 60.2325 53.9929 60.0811 53.9089C59.9129 53.8248 59.7616 53.8584 59.5934 53.9929C59.4252 54.1274 59.2739 54.3796 59.1393 54.7158C58.988 55.0688 58.9207 55.3546 58.9375 55.5731C58.9543 55.7917 59.0384 55.943 59.1898 56.027C59.3579 56.1279 59.5093 56.0943 59.6775 55.943Z" fill="url(#paint38_linear)"/>
<path d="M62.4524 54.4132L61.0902 57.6577L60.6193 57.4223L61.6956 54.8502L61.1574 54.783L61.2583 54.1778L62.0319 54.1946L62.4524 54.4132Z" fill="url(#paint39_linear)"/>
<path d="M58.6516 53.0179C58.7021 53.4046 58.618 53.8585 58.3993 54.3796C58.1807 54.8839 57.9285 55.2538 57.6257 55.4723C57.323 55.6909 57.0203 55.7245 56.7008 55.5732C56.3981 55.4219 56.2131 55.1529 56.1794 54.7494C56.129 54.3628 56.2131 53.9089 56.4317 53.3878C56.6503 52.8834 56.9026 52.5136 57.2053 52.2951C57.508 52.0765 57.8107 52.0429 58.1134 52.1942C58.433 52.3623 58.618 52.6313 58.6516 53.0179ZM57.4576 54.8671C57.6257 54.7326 57.7771 54.4805 57.9116 54.1443C58.063 53.7912 58.1303 53.5223 58.1134 53.2869C58.0966 53.0684 58.0125 52.9171 57.8612 52.833C57.693 52.749 57.5416 52.7826 57.3735 52.9171C57.2053 53.0515 57.0539 53.3037 56.9194 53.6399C56.768 53.993 56.7008 54.2787 56.7176 54.4973C56.7344 54.7158 56.8185 54.8671 56.9699 54.9512C57.138 55.0352 57.3062 55.0016 57.4576 54.8671Z" fill="url(#paint40_linear)"/>
<path d="M65.9672 56.128L64.605 59.3725L64.1173 59.1371L65.1936 56.5651L64.6555 56.5146L64.7732 55.9095L65.5468 55.9263L65.9672 56.128Z" fill="url(#paint41_linear)"/>
<path d="M64.3696 55.8253C64.42 56.212 64.3359 56.6659 64.1173 57.187C63.8987 57.6913 63.6464 58.0612 63.3437 58.2797C63.041 58.4983 62.7383 58.5319 62.4187 58.3806C62.116 58.2293 61.931 57.9603 61.8974 57.5569C61.8469 57.1702 61.931 56.7163 62.1496 56.1952C62.3683 55.6909 62.6205 55.321 62.9232 55.1025C63.226 54.8839 63.5287 54.8503 63.8314 55.0016C64.1509 55.1697 64.3359 55.4387 64.3696 55.8253ZM63.1755 57.6745C63.3437 57.5401 63.495 57.2879 63.6296 56.9517C63.7809 56.5986 63.8482 56.3297 63.8314 56.0943C63.8146 55.8758 63.7305 55.7245 63.5791 55.6404C63.411 55.5564 63.2596 55.59 63.0914 55.7245C62.9232 55.859 62.7719 56.1111 62.6374 56.4473C62.486 56.8004 62.4187 57.0862 62.4355 57.3047C62.4524 57.5232 62.5364 57.6745 62.6878 57.7586C62.856 57.8426 63.0242 57.809 63.1755 57.6745Z" fill="url(#paint42_linear)"/>
<path d="M69.4653 57.8427L68.103 61.1041L67.6153 60.8519L68.6917 58.2966L68.1535 58.2294L68.2712 57.6242L69.0448 57.641L69.4653 57.8427Z" fill="url(#paint43_linear)"/>
<path d="M67.8844 57.5569C67.9349 57.9436 67.8508 58.3975 67.6321 58.9186C67.4135 59.423 67.1613 59.7928 66.8585 60.0113C66.5558 60.2299 66.2531 60.2635 65.9336 60.1122C65.6309 59.9609 65.4459 59.6919 65.4122 59.2885C65.3618 58.9018 65.4459 58.4479 65.6645 57.9268C65.8831 57.4225 66.1354 57.0526 66.4381 56.8341C66.7408 56.6155 67.0435 56.5819 67.3462 56.7332C67.6658 56.8845 67.834 57.1535 67.8844 57.5569ZM66.6904 59.3893C66.8585 59.2548 67.0099 59.0027 67.1444 58.6665C67.2958 58.3134 67.3631 58.0277 67.3462 57.8091C67.3294 57.5906 67.2453 57.4393 67.094 57.3552C66.9258 57.2712 66.7745 57.3048 66.6063 57.4393C66.4381 57.5738 66.2867 57.8259 66.1522 58.1621C66.0008 58.5152 65.9336 58.801 65.9504 59.0195C65.9672 59.238 66.0513 59.3893 66.2027 59.4734C66.354 59.5574 66.5222 59.5406 66.6904 59.3893Z" fill="url(#paint44_linear)"/>
<path d="M72.9633 59.5742L71.6179 62.8187L71.1302 62.5834L72.2065 60.0113L71.6683 59.9609L71.7692 59.3557L72.5429 59.3725L72.9633 59.5742Z" fill="url(#paint45_linear)"/>
<path d="M71.3824 59.2717C71.4329 59.6583 71.3488 60.1122 71.1302 60.6334C70.9115 61.1377 70.6593 61.5075 70.3566 61.7261C70.0539 61.9446 69.7511 61.9782 69.4316 61.8269C69.1289 61.6756 68.9439 61.4067 68.9103 61.0032C68.8598 60.6166 68.9439 60.1627 69.1625 59.6415C69.3812 59.1372 69.6334 58.7674 69.9361 58.5488C70.2388 58.3303 70.5416 58.2967 70.8443 58.448C71.1638 58.5993 71.332 58.885 71.3824 59.2717ZM70.1884 61.1209C70.3566 60.9864 70.5079 60.7342 70.6425 60.398C70.7938 60.045 70.8611 59.776 70.8443 59.5407C70.8275 59.3221 70.7434 59.1708 70.592 59.0868C70.4238 59.0027 70.2725 59.0363 70.1043 59.1708C69.9361 59.3053 69.7848 59.5575 69.6502 59.8937C69.4989 60.2467 69.4316 60.5325 69.4484 60.751C69.4652 60.9696 69.5493 61.1209 69.7007 61.2049C69.8689 61.289 70.0202 61.2554 70.1884 61.1209Z" fill="url(#paint46_linear)"/>
<path d="M74.8805 60.9863C74.9309 61.3729 74.8468 61.8268 74.6282 62.348C74.4096 62.8523 74.1573 63.2221 73.8546 63.4407C73.5519 63.6592 73.2492 63.6928 72.9297 63.5415C72.6269 63.3903 72.4419 63.1213 72.4083 62.7178C72.3579 62.3312 72.4419 61.8773 72.6606 61.3561C72.8792 60.8518 73.1315 60.482 73.4342 60.2634C73.7369 60.0449 74.0396 60.0113 74.3423 60.1626C74.6619 60.3307 74.8468 60.5996 74.8805 60.9863ZM73.7033 62.8355C73.8714 62.701 74.0228 62.4488 74.1573 62.1126C74.3087 61.7596 74.376 61.4906 74.3591 61.2553C74.3423 61.0367 74.2582 60.8854 74.1069 60.8014C73.9387 60.7173 73.7873 60.7509 73.6192 60.8854C73.451 61.0199 73.2996 61.2721 73.1651 61.6083C73.0137 61.9613 72.9465 62.2471 72.9633 62.4657C72.9801 62.6842 73.0642 62.8355 73.2155 62.9195C73.3669 63.0036 73.5351 62.97 73.7033 62.8355Z" fill="url(#paint47_linear)"/>
<path d="M76.4782 61.289L75.1159 64.5335L74.6282 64.2981L75.7046 61.726L75.1664 61.6756L75.2841 61.0704L76.0577 61.0872L76.4782 61.289Z" fill="url(#paint48_linear)"/>
<path d="M78.3953 62.7179C78.4458 63.1046 78.3617 63.5584 78.1431 64.0796C77.9244 64.5839 77.6722 64.9538 77.3695 65.1723C77.0668 65.3908 76.764 65.4245 76.4445 65.2732C76.1418 65.1219 75.9568 64.8529 75.9232 64.4494C75.8727 64.0628 75.9568 63.6089 76.1754 63.0877C76.3941 62.5834 76.6463 62.2136 76.949 61.995C77.2517 61.7765 77.5545 61.7429 77.8572 61.8942C78.1767 62.0455 78.3449 62.3144 78.3953 62.7179ZM77.2013 64.5503C77.3695 64.4158 77.5208 64.1636 77.6554 63.8274C77.8067 63.4744 77.874 63.1886 77.8572 62.9701C77.8404 62.7515 77.7563 62.6002 77.6049 62.5162C77.4367 62.4321 77.2854 62.4657 77.1172 62.6002C76.949 62.7347 76.7977 62.9869 76.6631 63.3231C76.5118 63.6761 76.4445 63.9619 76.4613 64.1805C76.4781 64.399 76.5622 64.5503 76.7136 64.6343C76.8818 64.7352 77.0331 64.7016 77.2013 64.5503Z" fill="url(#paint49_linear)"/>
<path d="M79.9762 63.0204L78.614 66.2649L78.1263 66.0295L79.2026 63.4575L78.6812 63.3902L78.7821 62.785L79.5557 62.8018L79.9762 63.0204Z" fill="url(#paint50_linear)"/>
<path d="M49.3179 55.153C49.3684 55.5396 49.2843 55.9935 49.0656 56.5146C48.847 57.019 48.5948 57.3888 48.292 57.6073C47.9893 57.8259 47.6866 57.8595 47.3671 57.7082C47.0644 57.5569 46.8794 57.2879 46.8457 56.8845C46.7953 56.4978 46.8794 56.0439 47.098 55.5228C47.3166 55.0185 47.5689 54.6486 47.8716 54.4301C48.1743 54.2115 48.477 54.1779 48.7797 54.3292C49.0993 54.4805 49.2675 54.7495 49.3179 55.153ZM48.1239 56.9853C48.292 56.8509 48.4434 56.5987 48.5779 56.2625C48.7293 55.9095 48.7966 55.6405 48.7797 55.4051C48.7629 55.1866 48.6788 55.0353 48.5275 54.9512C48.3593 54.8672 48.2079 54.9008 48.0398 55.0353C47.8716 55.1698 47.7202 55.4219 47.5857 55.7582C47.4343 56.1112 47.3671 56.397 47.3839 56.6155C47.4007 56.834 47.4848 56.9853 47.6362 57.0694C47.7875 57.1535 47.9557 57.1366 48.1239 56.9853Z" fill="url(#paint51_linear)"/>
<path d="M50.8987 55.4387L49.5365 58.7L49.0488 58.4479L50.1251 55.8926L49.6038 55.8254L49.7047 55.2202L50.4783 55.237L50.8987 55.4387Z" fill="url(#paint52_linear)"/>
<path d="M52.8159 56.8677C52.8664 57.2544 52.7823 57.7082 52.5637 58.2294C52.3451 58.7337 52.0928 59.1036 51.7901 59.3221C51.4874 59.5406 51.1847 59.5743 50.8651 59.423C50.5624 59.2717 50.3774 59.0027 50.3438 58.5992C50.2933 58.2126 50.3774 57.7587 50.596 57.2375C50.8147 56.7332 51.0669 56.3634 51.3696 56.1448C51.6724 55.9263 51.9751 55.8927 52.2778 56.044C52.5973 56.1953 52.7823 56.4811 52.8159 56.8677ZM51.6219 58.7169C51.7901 58.5824 51.9414 58.3302 52.076 57.994C52.2273 57.641 52.2946 57.3552 52.2778 57.1367C52.261 56.9181 52.1769 56.7668 52.0255 56.6828C51.8574 56.5987 51.706 56.6324 51.5378 56.7668C51.3696 56.9013 51.2183 57.1535 51.0837 57.4897C50.9324 57.8427 50.8651 58.1285 50.8819 58.3471C50.8988 58.5656 50.9828 58.7169 51.1342 58.801C51.3024 58.885 51.4706 58.8514 51.6219 58.7169Z" fill="url(#paint53_linear)"/>
<path d="M57.2558 59.0363C57.3062 59.423 57.2221 59.8769 57.0035 60.398C56.7849 60.9023 56.5326 61.2722 56.2299 61.4907C55.9272 61.7093 55.6245 61.7429 55.3049 61.5916C55.0022 61.4403 54.8172 61.1713 54.7836 60.7678C54.7331 60.3812 54.8172 59.9273 55.0358 59.4062C55.2545 58.9018 55.5067 58.532 55.8095 58.3135C56.1122 58.0949 56.4149 58.0613 56.7176 58.2126C57.0203 58.3807 57.2053 58.6497 57.2558 59.0363ZM56.0617 60.8855C56.2299 60.751 56.3812 60.4989 56.5158 60.1627C56.6671 59.8096 56.7344 59.5238 56.7176 59.3053C56.7008 59.0868 56.6167 58.9355 56.4653 58.8514C56.2972 58.7674 56.1458 58.801 55.9776 58.9355C55.8095 59.0699 55.6581 59.3221 55.5236 59.6583C55.3722 60.0114 55.3049 60.2971 55.3217 60.5157C55.3386 60.7342 55.4227 60.8855 55.574 60.9696C55.7254 61.0536 55.8935 61.02 56.0617 60.8855Z" fill="url(#paint54_linear)"/>
<path d="M58.8366 59.3389L57.4744 62.5834L56.9867 62.3481L58.063 59.776L57.5248 59.7256L57.6426 59.1204L58.4162 59.1372L58.8366 59.3389Z" fill="url(#paint55_linear)"/>
<path d="M55.0359 57.9604C55.0863 58.347 55.0022 58.8009 54.7836 59.3221C54.565 59.8264 54.3127 60.1962 54.01 60.4148C53.7073 60.6333 53.4046 60.6669 53.085 60.5156C52.7823 60.3643 52.5973 60.0954 52.5637 59.6919C52.5132 59.3052 52.5973 58.8514 52.8159 58.3302C53.0346 57.8259 53.2868 57.4561 53.5896 57.2375C53.8923 57.019 54.195 56.9853 54.4977 57.1366C54.8172 57.2879 54.9854 57.5569 55.0359 57.9604ZM53.8418 59.7928C54.01 59.6583 54.1613 59.4061 54.2959 59.0699C54.4472 58.7169 54.5145 58.4311 54.4977 58.2125C54.4809 57.994 54.3968 57.8427 54.2454 57.7586C54.0773 57.6746 53.9259 57.7082 53.7577 57.8427C53.5896 57.9772 53.4382 58.2293 53.3037 58.5656C53.1523 58.9186 53.085 59.2044 53.1018 59.4229C53.1187 59.6415 53.2027 59.7928 53.3541 59.8768C53.5223 59.9609 53.6736 59.9441 53.8418 59.7928Z" fill="url(#paint56_linear)"/>
<path d="M62.3346 61.0704L60.9724 64.3149L60.5015 64.0795L61.5779 61.5075L61.0397 61.4402L61.1406 60.835L61.9142 60.8519L62.3346 61.0704Z" fill="url(#paint57_linear)"/>
<path d="M60.7538 60.7678C60.8043 61.1544 60.7202 61.6083 60.5015 62.1295C60.2829 62.6338 60.0307 63.0036 59.7279 63.2222C59.4252 63.4407 59.1225 63.4743 58.803 63.323C58.5003 63.1717 58.3153 62.9028 58.2816 62.4993C58.2312 62.1127 58.3153 61.6588 58.5339 61.1376C58.7525 60.6333 59.0048 60.2635 59.3075 60.0449C59.6102 59.8264 59.9129 59.7928 60.2156 59.9441C60.5352 60.0954 60.7034 60.3643 60.7538 60.7678ZM59.5598 62.6002C59.7279 62.4657 59.8793 62.2135 60.0138 61.8773C60.1652 61.5243 60.2325 61.2553 60.2156 61.02C60.1988 60.8014 60.1147 60.6501 59.9634 60.5661C59.7952 60.482 59.6439 60.5156 59.4757 60.6501C59.3075 60.7846 59.1561 61.0368 59.0216 61.373C58.8702 61.726 58.803 62.0118 58.8198 62.2303C58.8366 62.4489 58.9207 62.6002 59.0721 62.6842C59.2402 62.7851 59.3916 62.7515 59.5598 62.6002Z" fill="url(#paint58_linear)"/>
<path d="M63.6969 61.726L62.3346 64.9705L61.8469 64.7351L62.9401 62.163L62.4019 62.1126L62.5028 61.5074L63.2764 61.5242L63.6969 61.726Z" fill="url(#paint59_linear)"/>
<path d="M67.2117 63.4575L65.8495 66.702L65.3618 66.4667L66.4381 63.8946L65.8999 63.8274L66.0177 63.2222L66.7745 63.239L67.2117 63.4575Z" fill="url(#paint60_linear)"/>
<path d="M65.614 63.1549C65.6645 63.5416 65.5804 63.9955 65.3618 64.5166C65.1431 65.0209 64.8909 65.3908 64.5882 65.6093C64.2855 65.8278 63.9827 65.8615 63.6632 65.7102C63.3605 65.5589 63.1755 65.2899 63.1419 64.8864C63.0914 64.4998 63.1755 64.0459 63.3941 63.5248C63.6128 63.0204 63.865 62.6506 64.1677 62.4321C64.4704 62.2135 64.7732 62.1799 65.0759 62.3312C65.3954 62.4825 65.5804 62.7515 65.614 63.1549ZM64.42 64.9873C64.5882 64.8528 64.7395 64.6007 64.8741 64.2644C65.0254 63.9114 65.0927 63.6424 65.0759 63.4071C65.0591 63.1885 64.975 63.0372 64.8236 62.9532C64.6554 62.8691 64.5041 62.9028 64.3359 63.0372C64.1677 63.1717 64.0164 63.4239 63.8818 63.7601C63.7305 64.1131 63.6632 64.3989 63.68 64.6175C63.6968 64.836 63.7809 64.9873 63.9323 65.0714C64.1005 65.1722 64.2686 65.1386 64.42 64.9873Z" fill="url(#paint61_linear)"/>
<path d="M70.7097 65.1722L69.3475 68.4167L68.8598 68.1813L69.9361 65.6093L69.398 65.5588L69.5157 64.9536L70.2893 64.9704L70.7097 65.1722Z" fill="url(#paint62_linear)"/>
<path d="M69.1289 64.8697C69.1794 65.2563 69.0953 65.7102 68.8766 66.2313C68.658 66.7357 68.4058 67.1055 68.103 67.324C67.8003 67.5426 67.4976 67.5762 67.1781 67.4249C66.8754 67.2736 66.6904 67.0046 66.6567 66.6012C66.6063 66.2145 66.6904 65.7606 66.909 65.2395C67.1276 64.7352 67.3799 64.3653 67.6826 64.1468C67.9853 63.9283 68.288 63.8946 68.5908 64.0459C68.8935 64.214 69.0785 64.483 69.1289 64.8697ZM67.9349 66.7189C68.103 66.5844 68.2544 66.3322 68.3889 65.996C68.5403 65.643 68.6076 65.3572 68.5908 65.1386C68.5739 64.9201 68.4898 64.7688 68.3385 64.6847C68.1703 64.6007 68.019 64.6343 67.8508 64.7688C67.6826 64.9033 67.5313 65.1554 67.3967 65.4917C67.2454 65.8447 67.1781 66.1305 67.1949 66.349C67.2117 66.5676 67.2958 66.7189 67.4472 66.8029C67.5985 66.887 67.7667 66.8533 67.9349 66.7189Z" fill="url(#paint63_linear)"/>
</g>
<defs>
<linearGradient id="paint0_linear" x1="52.2457" y1="47.5558" x2="84.6108" y2="63.806" gradientUnits="userSpaceOnUse">
<stop stop-color="#608BDB"/>
<stop offset="1" stop-color="#356ED7"/>
</linearGradient>
<linearGradient id="paint1_linear" x1="52.2457" y1="47.5558" x2="84.6108" y2="63.806" gradientUnits="userSpaceOnUse">
<stop stop-color="#608BDB"/>
<stop offset="1" stop-color="#356ED7"/>
</linearGradient>
<linearGradient id="paint2_linear" x1="52.2457" y1="47.5558" x2="84.6108" y2="63.806" gradientUnits="userSpaceOnUse">
<stop stop-color="#608BDB"/>
<stop offset="1" stop-color="#356ED7"/>
</linearGradient>
<linearGradient id="paint3_linear" x1="52.2457" y1="47.5558" x2="84.6108" y2="63.806" gradientUnits="userSpaceOnUse">
<stop stop-color="#608BDB"/>
<stop offset="1" stop-color="#356ED7"/>
</linearGradient>
<linearGradient id="paint4_linear" x1="52.2457" y1="47.5558" x2="84.6108" y2="63.806" gradientUnits="userSpaceOnUse">
<stop stop-color="#608BDB"/>
<stop offset="1" stop-color="#356ED7"/>
</linearGradient>
<linearGradient id="paint5_linear" x1="52.2457" y1="47.5558" x2="84.6108" y2="63.806" gradientUnits="userSpaceOnUse">
<stop stop-color="#608BDB"/>
<stop offset="1" stop-color="#356ED7"/>
</linearGradient>
<linearGradient id="paint6_linear" x1="52.2457" y1="47.5558" x2="84.6108" y2="63.806" gradientUnits="userSpaceOnUse">
<stop stop-color="#608BDB"/>
<stop offset="1" stop-color="#356ED7"/>
</linearGradient>
<linearGradient id="paint7_linear" x1="52.2457" y1="47.5558" x2="84.6108" y2="63.806" gradientUnits="userSpaceOnUse">
<stop stop-color="#608BDB"/>
<stop offset="1" stop-color="#356ED7"/>
</linearGradient>
<linearGradient id="paint8_linear" x1="52.2457" y1="47.5558" x2="84.6108" y2="63.806" gradientUnits="userSpaceOnUse">
<stop stop-color="#608BDB"/>
<stop offset="1" stop-color="#356ED7"/>
</linearGradient>
<linearGradient id="paint9_linear" x1="52.2457" y1="47.5558" x2="84.6108" y2="63.806" gradientUnits="userSpaceOnUse">
<stop stop-color="#608BDB"/>
<stop offset="1" stop-color="#356ED7"/>
</linearGradient>
<linearGradient id="paint10_linear" x1="52.2457" y1="47.5558" x2="84.6108" y2="63.806" gradientUnits="userSpaceOnUse">
<stop stop-color="#608BDB"/>
<stop offset="1" stop-color="#356ED7"/>
</linearGradient>
<linearGradient id="paint11_linear" x1="52.2457" y1="47.5558" x2="84.6108" y2="63.806" gradientUnits="userSpaceOnUse">
<stop stop-color="#608BDB"/>
<stop offset="1" stop-color="#356ED7"/>
</linearGradient>
<linearGradient id="paint12_linear" x1="52.2457" y1="47.5558" x2="84.6108" y2="63.806" gradientUnits="userSpaceOnUse">
<stop stop-color="#608BDB"/>
<stop offset="1" stop-color="#356ED7"/>
</linearGradient>
<linearGradient id="paint13_linear" x1="52.2457" y1="47.5558" x2="84.6108" y2="63.806" gradientUnits="userSpaceOnUse">
<stop stop-color="#608BDB"/>
<stop offset="1" stop-color="#356ED7"/>
</linearGradient>
<linearGradient id="paint14_linear" x1="52.2457" y1="47.5558" x2="84.6108" y2="63.806" gradientUnits="userSpaceOnUse">
<stop stop-color="#608BDB"/>
<stop offset="1" stop-color="#356ED7"/>
</linearGradient>
<linearGradient id="paint15_linear" x1="52.2457" y1="47.5558" x2="84.6108" y2="63.806" gradientUnits="userSpaceOnUse">
<stop stop-color="#608BDB"/>
<stop offset="1" stop-color="#356ED7"/>
</linearGradient>
<linearGradient id="paint16_linear" x1="52.2457" y1="47.5558" x2="84.6108" y2="63.806" gradientUnits="userSpaceOnUse">
<stop stop-color="#608BDB"/>
<stop offset="1" stop-color="#356ED7"/>
</linearGradient>
<linearGradient id="paint17_linear" x1="52.2457" y1="47.5558" x2="84.6108" y2="63.806" gradientUnits="userSpaceOnUse">
<stop stop-color="#608BDB"/>
<stop offset="1" stop-color="#356ED7"/>
</linearGradient>
<linearGradient id="paint18_linear" x1="52.2457" y1="47.5558" x2="84.6108" y2="63.806" gradientUnits="userSpaceOnUse">
<stop stop-color="#608BDB"/>
<stop offset="1" stop-color="#356ED7"/>
</linearGradient>
<linearGradient id="paint19_linear" x1="52.2457" y1="47.5558" x2="84.6108" y2="63.806" gradientUnits="userSpaceOnUse">
<stop stop-color="#608BDB"/>
<stop offset="1" stop-color="#356ED7"/>
</linearGradient>
<linearGradient id="paint20_linear" x1="52.2457" y1="47.5558" x2="84.6108" y2="63.806" gradientUnits="userSpaceOnUse">
<stop stop-color="#608BDB"/>
<stop offset="1" stop-color="#356ED7"/>
</linearGradient>
<linearGradient id="paint21_linear" x1="52.2457" y1="47.5558" x2="84.6108" y2="63.806" gradientUnits="userSpaceOnUse">
<stop stop-color="#608BDB"/>
<stop offset="1" stop-color="#356ED7"/>
</linearGradient>
<linearGradient id="paint22_linear" x1="52.2457" y1="47.5558" x2="84.6108" y2="63.806" gradientUnits="userSpaceOnUse">
<stop stop-color="#608BDB"/>
<stop offset="1" stop-color="#356ED7"/>
</linearGradient>
<linearGradient id="paint23_linear" x1="52.2457" y1="47.5558" x2="84.6108" y2="63.806" gradientUnits="userSpaceOnUse">
<stop stop-color="#608BDB"/>
<stop offset="1" stop-color="#356ED7"/>
</linearGradient>
<linearGradient id="paint24_linear" x1="52.2457" y1="47.5558" x2="84.6108" y2="63.806" gradientUnits="userSpaceOnUse">
<stop stop-color="#608BDB"/>
<stop offset="1" stop-color="#356ED7"/>
</linearGradient>
<linearGradient id="paint25_linear" x1="52.2457" y1="47.5558" x2="84.6108" y2="63.806" gradientUnits="userSpaceOnUse">
<stop stop-color="#608BDB"/>
<stop offset="1" stop-color="#356ED7"/>
</linearGradient>
<linearGradient id="paint26_linear" x1="52.2457" y1="47.5558" x2="84.6108" y2="63.806" gradientUnits="userSpaceOnUse">
<stop stop-color="#608BDB"/>
<stop offset="1" stop-color="#356ED7"/>
</linearGradient>
<linearGradient id="paint27_linear" x1="52.2457" y1="47.5558" x2="84.6108" y2="63.806" gradientUnits="userSpaceOnUse">
<stop stop-color="#608BDB"/>
<stop offset="1" stop-color="#356ED7"/>
</linearGradient>
<linearGradient id="paint28_linear" x1="52.2457" y1="47.5558" x2="84.6108" y2="63.806" gradientUnits="userSpaceOnUse">
<stop stop-color="#608BDB"/>
<stop offset="1" stop-color="#356ED7"/>
</linearGradient>
<linearGradient id="paint29_linear" x1="52.2457" y1="47.5558" x2="84.6108" y2="63.806" gradientUnits="userSpaceOnUse">
<stop stop-color="#608BDB"/>
<stop offset="1" stop-color="#356ED7"/>
</linearGradient>
<linearGradient id="paint30_linear" x1="52.2457" y1="47.5558" x2="84.6108" y2="63.806" gradientUnits="userSpaceOnUse">
<stop stop-color="#608BDB"/>
<stop offset="1" stop-color="#356ED7"/>
</linearGradient>
<linearGradient id="paint31_linear" x1="52.2457" y1="47.5558" x2="84.6108" y2="63.806" gradientUnits="userSpaceOnUse">
<stop stop-color="#608BDB"/>
<stop offset="1" stop-color="#356ED7"/>
</linearGradient>
<linearGradient id="paint32_linear" x1="52.2457" y1="47.5558" x2="84.6108" y2="63.806" gradientUnits="userSpaceOnUse">
<stop stop-color="#608BDB"/>
<stop offset="1" stop-color="#356ED7"/>
</linearGradient>
<linearGradient id="paint33_linear" x1="52.2457" y1="47.5558" x2="84.6108" y2="63.806" gradientUnits="userSpaceOnUse">
<stop stop-color="#608BDB"/>
<stop offset="1" stop-color="#356ED7"/>
</linearGradient>
<linearGradient id="paint34_linear" x1="52.2457" y1="47.5558" x2="84.6108" y2="63.806" gradientUnits="userSpaceOnUse">
<stop stop-color="#608BDB"/>
<stop offset="1" stop-color="#356ED7"/>
</linearGradient>
<linearGradient id="paint35_linear" x1="52.2457" y1="47.5558" x2="84.6108" y2="63.806" gradientUnits="userSpaceOnUse">
<stop stop-color="#608BDB"/>
<stop offset="1" stop-color="#356ED7"/>
</linearGradient>
<linearGradient id="paint36_linear" x1="52.2457" y1="47.5558" x2="84.6108" y2="63.806" gradientUnits="userSpaceOnUse">
<stop stop-color="#608BDB"/>
<stop offset="1" stop-color="#356ED7"/>
</linearGradient>
<linearGradient id="paint37_linear" x1="52.2457" y1="47.5558" x2="84.6108" y2="63.806" gradientUnits="userSpaceOnUse">
<stop stop-color="#608BDB"/>
<stop offset="1" stop-color="#356ED7"/>
</linearGradient>
<linearGradient id="paint38_linear" x1="52.2457" y1="47.5558" x2="84.6108" y2="63.806" gradientUnits="userSpaceOnUse">
<stop stop-color="#608BDB"/>
<stop offset="1" stop-color="#356ED7"/>
</linearGradient>
<linearGradient id="paint39_linear" x1="52.2457" y1="47.5558" x2="84.6108" y2="63.806" gradientUnits="userSpaceOnUse">
<stop stop-color="#608BDB"/>
<stop offset="1" stop-color="#356ED7"/>
</linearGradient>
<linearGradient id="paint40_linear" x1="52.2457" y1="47.5558" x2="84.6108" y2="63.806" gradientUnits="userSpaceOnUse">
<stop stop-color="#608BDB"/>
<stop offset="1" stop-color="#356ED7"/>
</linearGradient>
<linearGradient id="paint41_linear" x1="52.2457" y1="47.5558" x2="84.6108" y2="63.806" gradientUnits="userSpaceOnUse">
<stop stop-color="#608BDB"/>
<stop offset="1" stop-color="#356ED7"/>
</linearGradient>
<linearGradient id="paint42_linear" x1="52.2457" y1="47.5558" x2="84.6108" y2="63.806" gradientUnits="userSpaceOnUse">
<stop stop-color="#608BDB"/>
<stop offset="1" stop-color="#356ED7"/>
</linearGradient>
<linearGradient id="paint43_linear" x1="52.2457" y1="47.5558" x2="84.6108" y2="63.806" gradientUnits="userSpaceOnUse">
<stop stop-color="#608BDB"/>
<stop offset="1" stop-color="#356ED7"/>
</linearGradient>
<linearGradient id="paint44_linear" x1="52.2457" y1="47.5558" x2="84.6108" y2="63.806" gradientUnits="userSpaceOnUse">
<stop stop-color="#608BDB"/>
<stop offset="1" stop-color="#356ED7"/>
</linearGradient>
<linearGradient id="paint45_linear" x1="52.2457" y1="47.5558" x2="84.6108" y2="63.806" gradientUnits="userSpaceOnUse">
<stop stop-color="#608BDB"/>
<stop offset="1" stop-color="#356ED7"/>
</linearGradient>
<linearGradient id="paint46_linear" x1="52.2457" y1="47.5558" x2="84.6108" y2="63.806" gradientUnits="userSpaceOnUse">
<stop stop-color="#608BDB"/>
<stop offset="1" stop-color="#356ED7"/>
</linearGradient>
<linearGradient id="paint47_linear" x1="52.2457" y1="47.5558" x2="84.6108" y2="63.806" gradientUnits="userSpaceOnUse">
<stop stop-color="#608BDB"/>
<stop offset="1" stop-color="#356ED7"/>
</linearGradient>
<linearGradient id="paint48_linear" x1="52.2457" y1="47.5558" x2="84.6108" y2="63.806" gradientUnits="userSpaceOnUse">
<stop stop-color="#608BDB"/>
<stop offset="1" stop-color="#356ED7"/>
</linearGradient>
<linearGradient id="paint49_linear" x1="52.2457" y1="47.5558" x2="84.6108" y2="63.806" gradientUnits="userSpaceOnUse">
<stop stop-color="#608BDB"/>
<stop offset="1" stop-color="#356ED7"/>
</linearGradient>
<linearGradient id="paint50_linear" x1="52.2457" y1="47.5558" x2="84.6108" y2="63.806" gradientUnits="userSpaceOnUse">
<stop stop-color="#608BDB"/>
<stop offset="1" stop-color="#356ED7"/>
</linearGradient>
<linearGradient id="paint51_linear" x1="52.2457" y1="47.5558" x2="84.6108" y2="63.806" gradientUnits="userSpaceOnUse">
<stop stop-color="#608BDB"/>
<stop offset="1" stop-color="#356ED7"/>
</linearGradient>
<linearGradient id="paint52_linear" x1="52.2457" y1="47.5558" x2="84.6108" y2="63.806" gradientUnits="userSpaceOnUse">
<stop stop-color="#608BDB"/>
<stop offset="1" stop-color="#356ED7"/>
</linearGradient>
<linearGradient id="paint53_linear" x1="52.2457" y1="47.5558" x2="84.6108" y2="63.806" gradientUnits="userSpaceOnUse">
<stop stop-color="#608BDB"/>
<stop offset="1" stop-color="#356ED7"/>
</linearGradient>
<linearGradient id="paint54_linear" x1="52.2457" y1="47.5558" x2="84.6108" y2="63.806" gradientUnits="userSpaceOnUse">
<stop stop-color="#608BDB"/>
<stop offset="1" stop-color="#356ED7"/>
</linearGradient>
<linearGradient id="paint55_linear" x1="52.2457" y1="47.5558" x2="84.6108" y2="63.806" gradientUnits="userSpaceOnUse">
<stop stop-color="#608BDB"/>
<stop offset="1" stop-color="#356ED7"/>
</linearGradient>
<linearGradient id="paint56_linear" x1="52.2457" y1="47.5558" x2="84.6108" y2="63.806" gradientUnits="userSpaceOnUse">
<stop stop-color="#608BDB"/>
<stop offset="1" stop-color="#356ED7"/>
</linearGradient>
<linearGradient id="paint57_linear" x1="52.2457" y1="47.5558" x2="84.6108" y2="63.806" gradientUnits="userSpaceOnUse">
<stop stop-color="#608BDB"/>
<stop offset="1" stop-color="#356ED7"/>
</linearGradient>
<linearGradient id="paint58_linear" x1="52.2457" y1="47.5558" x2="84.6108" y2="63.806" gradientUnits="userSpaceOnUse">
<stop stop-color="#608BDB"/>
<stop offset="1" stop-color="#356ED7"/>
</linearGradient>
<linearGradient id="paint59_linear" x1="52.2457" y1="47.5558" x2="84.6108" y2="63.806" gradientUnits="userSpaceOnUse">
<stop stop-color="#608BDB"/>
<stop offset="1" stop-color="#356ED7"/>
</linearGradient>
<linearGradient id="paint60_linear" x1="52.2457" y1="47.5558" x2="84.6108" y2="63.806" gradientUnits="userSpaceOnUse">
<stop stop-color="#608BDB"/>
<stop offset="1" stop-color="#356ED7"/>
</linearGradient>
<linearGradient id="paint61_linear" x1="52.2457" y1="47.5558" x2="84.6108" y2="63.806" gradientUnits="userSpaceOnUse">
<stop stop-color="#608BDB"/>
<stop offset="1" stop-color="#356ED7"/>
</linearGradient>
<linearGradient id="paint62_linear" x1="52.2457" y1="47.5558" x2="84.6108" y2="63.806" gradientUnits="userSpaceOnUse">
<stop stop-color="#608BDB"/>
<stop offset="1" stop-color="#356ED7"/>
</linearGradient>
<linearGradient id="paint63_linear" x1="52.2457" y1="47.5558" x2="84.6108" y2="63.806" gradientUnits="userSpaceOnUse">
<stop stop-color="#608BDB"/>
<stop offset="1" stop-color="#356ED7"/>
</linearGradient>
</defs>
</svg>
