<svg width="128" height="128" viewBox="0 0 128 128" fill="none" xmlns="http://www.w3.org/2000/svg">
<circle cx="64" cy="64" r="64" fill="#6239DA"/>
<path d="M69.4747 87.5919C69.4769 87.4493 69.466 87.3195 69.4552 87.1767C69.4554 87.1637 69.4556 87.1507 69.4558 87.1378C69.4562 87.1119 69.4436 87.0857 69.4442 87.0468C69.4327 86.9559 69.4341 86.8652 69.4225 86.7742C69.4107 86.6962 69.3988 86.6312 69.387 86.5532C69.3747 86.5142 69.3753 86.4753 69.3759 86.4364C69.3763 86.4105 69.3637 86.3843 69.3639 86.3714C69.3402 86.2284 69.3033 86.0981 69.2795 85.9552C69.2797 85.9422 69.267 85.929 69.2674 85.9031C69.255 85.864 69.2429 85.812 69.2305 85.7729C69.206 85.6817 69.1814 85.5906 69.1567 85.5124C69.1443 85.4733 69.132 85.4342 69.1196 85.3952C69.0949 85.317 69.0574 85.2256 69.0197 85.1473C68.9946 85.095 68.9826 85.03 68.9575 84.9777C68.9449 84.9516 68.9324 84.9255 68.9198 84.8994C68.8071 84.6383 68.6683 84.3898 68.5295 84.1413C68.5297 84.1284 68.517 84.1152 68.517 84.1152C68.4538 84.0105 68.3904 83.9188 68.3142 83.8139C68.2761 83.7614 68.238 83.7089 68.2001 83.6435C68.086 83.4732 67.9588 83.3157 67.8186 83.1579C67.602 82.9082 67.3721 82.6843 67.142 82.4732C67.1164 82.4469 67.0909 82.4206 67.0654 82.3943C67.0399 82.3679 67.0141 82.3546 66.9886 82.3283C66.9246 82.2754 66.8478 82.2094 66.7708 82.1563C66.7196 82.1167 66.6685 82.064 66.6043 82.0241C66.5658 81.9976 66.5273 81.9711 66.4889 81.9445C66.4376 81.9049 66.3862 81.8781 66.3477 81.8516C66.3092 81.8251 66.2707 81.7986 66.2322 81.772C66.1423 81.7188 66.0394 81.6653 65.9494 81.6121C65.9366 81.5989 65.9107 81.5985 65.898 81.5853C65.898 81.5853 65.885 81.5851 65.8852 81.5722C65.7693 81.5185 65.6666 81.4521 65.5506 81.4114C65.5119 81.3979 65.4604 81.3711 65.4217 81.3576C65.383 81.344 65.3573 81.3307 65.3186 81.3171C65.2799 81.3035 65.2542 81.2902 65.2155 81.2766C65.0995 81.2359 64.9964 81.1954 64.8803 81.1547C64.8673 81.1545 64.8416 81.1412 64.8286 81.141C64.8029 81.1276 64.777 81.1272 64.7513 81.1139C64.6868 81.0869 64.6093 81.0728 64.5448 81.0458C64.4415 81.0183 64.351 81.004 64.2477 80.9764C64.2347 80.9762 64.209 80.9629 64.196 80.9627C64.1308 80.9876 64.1308 80.9876 64.1179 80.9874C63.9886 80.9595 63.8594 80.9316 63.717 80.9164C63.6524 80.9024 63.5876 80.9014 63.523 80.8875C63.4454 80.8733 63.3676 80.8721 63.29 80.8579C63.1604 80.8559 63.031 80.841 62.8884 80.8388C62.7717 80.837 62.6551 80.8352 62.5514 80.8336C62.5384 80.8334 62.5384 80.8334 62.5254 80.8332C62.5125 80.833 62.5125 80.833 62.4995 80.8328C62.3697 80.8438 62.24 80.8418 62.11 80.8657C61.9672 80.8765 61.8372 80.9004 61.7072 80.9243C61.6812 80.9239 61.6681 80.9367 61.6422 80.9363C61.6162 80.9359 61.5901 80.9484 61.5642 80.948C61.4601 80.9724 61.3691 80.9839 61.2648 81.0212C61.0826 81.0703 60.9001 81.1323 60.7435 81.1947C60.4695 81.3072 60.208 81.4458 59.9464 81.5973L46.8323 87.1146C47.0812 86.9498 47.3556 86.8114 47.6295 86.7119C47.6295 86.7119 47.6295 86.7119 47.6424 86.7121C47.9033 86.6124 48.1769 86.5259 48.4499 86.4782C48.4758 86.4786 48.502 86.4661 48.5279 86.4665C48.8141 86.406 49.1128 86.3718 49.4241 86.3636C49.4371 86.3638 49.4371 86.3638 49.4501 86.364C49.7614 86.3558 50.0982 86.374 50.4346 86.4181C50.6416 86.4472 50.8486 86.4763 51.0425 86.5182C51.0555 86.5184 51.0812 86.5318 51.0941 86.532C51.2621 86.5734 51.43 86.6149 51.5977 86.6694C51.6234 86.6827 51.6494 86.6831 51.6751 86.6965C51.8428 86.751 52.0105 86.8054 52.178 86.8728C52.2167 86.8864 52.2424 86.8997 52.2811 86.9133C52.4487 86.9807 52.603 87.0609 52.7703 87.1413C52.7831 87.1544 52.809 87.1548 52.8218 87.168C52.9632 87.248 53.0916 87.3277 53.233 87.4077C53.2845 87.4345 53.3357 87.4741 53.3742 87.5007C53.4639 87.5669 53.5666 87.6333 53.6562 87.7125C53.7332 87.7655 53.7972 87.8184 53.8739 87.8844C53.9252 87.9241 53.9763 87.9767 54.0273 88.0294C54.2574 88.2404 54.4874 88.4643 54.7039 88.714C54.8441 88.8718 54.9714 89.0293 55.0854 89.1997C55.1235 89.2521 55.1616 89.3046 55.1995 89.37C55.2757 89.4749 55.3517 89.5927 55.4149 89.6974C55.5666 89.9461 55.6925 90.1944 55.8051 90.4555C55.8428 90.5339 55.8803 90.6252 55.905 90.7034C55.9427 90.7818 55.9673 90.8729 56.005 90.9513C56.0548 91.0817 56.0919 91.199 56.1288 91.3292C56.1412 91.3683 56.1533 91.4203 56.1657 91.4594C56.2149 91.6287 56.251 91.8108 56.2742 91.9927C56.2865 92.0318 56.2859 92.0707 56.2853 92.1096C56.3088 92.2655 56.3322 92.4344 56.3425 92.6032C56.3421 92.6291 56.3547 92.6552 56.3541 92.6941C56.3639 92.9017 56.3738 93.0963 56.3706 93.3038C56.3642 93.7186 56.3321 94.12 56.2615 94.4949C56.2611 94.5209 56.2477 94.5466 56.2473 94.5725C56.2188 94.7406 56.1773 94.9086 56.1231 95.0633C56.1231 95.0633 56.1097 95.089 56.1093 95.115C56.0549 95.2827 56.0006 95.4374 55.9464 95.5922C55.9332 95.605 55.9328 95.6309 55.9196 95.6436C55.8658 95.7725 55.799 95.9011 55.7322 96.0297C55.7054 96.0812 55.6787 96.1326 55.6522 96.1711C55.5989 96.2611 55.5457 96.351 55.4926 96.428C55.4396 96.505 55.3865 96.5819 55.3337 96.646C55.294 96.6972 55.2543 96.7485 55.2146 96.7997C55.0427 97.0175 54.858 97.2221 54.6476 97.4133C54.4241 97.6174 54.1879 97.7952 53.939 97.96L67.0399 92.4555C67.2886 92.3037 67.525 92.1129 67.7485 91.9089C67.9589 91.7176 68.1436 91.513 68.3155 91.2952C68.3289 91.2695 68.3552 91.244 68.3815 91.2185C68.4079 91.1929 68.4212 91.1672 68.4348 91.1285C68.4878 91.0516 68.5409 90.9746 68.5939 90.8976C68.6207 90.8461 68.6602 90.8079 68.6998 90.7566C68.7264 90.7181 68.7399 90.6794 68.7665 90.6409C68.7932 90.5895 68.8199 90.538 68.8464 90.4995C68.873 90.4611 68.8865 90.4224 68.913 90.3839C68.9533 90.2937 68.9936 90.2036 69.0339 90.1135C69.0471 90.1007 69.0475 90.0748 69.0606 90.062C69.0606 90.062 69.0608 90.049 69.0738 90.0492C69.1143 89.9461 69.155 89.8301 69.1955 89.727C69.209 89.6883 69.2228 89.6366 69.2364 89.5979C69.2497 89.5722 69.2503 89.5333 69.2637 89.5076C69.2772 89.4689 69.2906 89.4432 69.2912 89.4043C69.3187 89.301 69.3464 89.1847 69.374 89.0814C69.3744 89.0555 69.3875 89.0427 69.3879 89.0168C69.3883 88.9909 69.4017 88.9652 69.4023 88.9263C69.4163 88.8616 69.4302 88.797 69.4312 88.7322C69.446 88.6158 69.4607 88.4993 69.4757 88.3699C69.4907 88.2404 69.4927 88.1108 69.4947 87.9812C69.4959 87.9034 69.4973 87.8127 69.4985 87.7349C69.4859 87.7087 69.4739 87.6437 69.4747 87.5919Z" fill="#858585"/>
<path d="M69.4747 87.5919C69.4769 87.4493 69.466 87.3195 69.4552 87.1767C69.4554 87.1637 69.4556 87.1507 69.4558 87.1378C69.4562 87.1119 69.4436 87.0857 69.4442 87.0468C69.4327 86.9559 69.4341 86.8652 69.4225 86.7742C69.4107 86.6962 69.3988 86.6312 69.387 86.5532C69.3747 86.5142 69.3753 86.4753 69.3759 86.4364C69.3763 86.4105 69.3637 86.3843 69.3639 86.3714C69.3402 86.2284 69.3033 86.0981 69.2795 85.9552C69.2797 85.9422 69.267 85.929 69.2674 85.9031C69.255 85.864 69.2429 85.812 69.2305 85.7729C69.206 85.6817 69.1814 85.5906 69.1567 85.5124C69.1443 85.4733 69.132 85.4342 69.1196 85.3952C69.0949 85.317 69.0574 85.2256 69.0197 85.1473C68.9946 85.095 68.9826 85.03 68.9575 84.9777C68.9449 84.9516 68.9324 84.9255 68.9198 84.8994C68.8071 84.6383 68.6683 84.3898 68.5295 84.1413C68.5297 84.1284 68.517 84.1152 68.517 84.1152C68.4538 84.0105 68.3904 83.9188 68.3142 83.8139C68.2761 83.7614 68.238 83.7089 68.2001 83.6435C68.086 83.4732 67.9588 83.3157 67.8186 83.1579C67.602 82.9082 67.3721 82.6843 67.142 82.4732C67.1164 82.4469 67.0909 82.4206 67.0654 82.3943C67.0399 82.3679 67.0141 82.3546 66.9886 82.3283C66.9246 82.2754 66.8478 82.2094 66.7708 82.1563C66.7196 82.1167 66.6685 82.064 66.6043 82.0241C66.5658 81.9976 66.5273 81.9711 66.4889 81.9445C66.4376 81.9049 66.3862 81.8781 66.3477 81.8516C66.3092 81.8251 66.2707 81.7986 66.2322 81.772C66.1423 81.7188 66.0394 81.6653 65.9494 81.6121C65.9366 81.5989 65.9107 81.5985 65.898 81.5853C65.898 81.5853 65.885 81.5851 65.8852 81.5722C65.7693 81.5185 65.6666 81.4521 65.5506 81.4114C65.5119 81.3979 65.4604 81.3711 65.4217 81.3576C65.383 81.344 65.3573 81.3307 65.3186 81.3171C65.2799 81.3035 65.2542 81.2902 65.2155 81.2766C65.0995 81.2359 64.9964 81.1954 64.8803 81.1547C64.8673 81.1545 64.8416 81.1412 64.8286 81.141C64.8029 81.1276 64.777 81.1272 64.7513 81.1139C64.6868 81.0869 64.6093 81.0728 64.5448 81.0458C64.4415 81.0183 64.351 81.004 64.2477 80.9764C64.2347 80.9762 64.209 80.9629 64.196 80.9627C64.1308 80.9876 64.1308 80.9876 64.1179 80.9874C63.9886 80.9595 63.8594 80.9316 63.717 80.9164C63.6524 80.9024 63.5876 80.9014 63.523 80.8875C63.4454 80.8733 63.3676 80.8721 63.29 80.8579C63.1604 80.8559 63.031 80.841 62.8884 80.8388C62.7717 80.837 62.6551 80.8352 62.5514 80.8336C62.5384 80.8334 62.5384 80.8334 62.5254 80.8332C62.5125 80.833 62.5125 80.833 62.4995 80.8328C62.3697 80.8438 62.24 80.8418 62.11 80.8657C61.9672 80.8765 61.8372 80.9004 61.7072 80.9243C61.6812 80.9239 61.6681 80.9367 61.6422 80.9363C61.6162 80.9359 61.5901 80.9484 61.5642 80.948C61.4601 80.9724 61.3691 80.9839 61.2648 81.0212C61.0826 81.0703 60.9001 81.1323 60.7435 81.1947C60.4695 81.3072 60.208 81.4458 59.9464 81.5973L46.8323 87.1146C47.0812 86.9498 47.3556 86.8114 47.6295 86.7119C47.6295 86.7119 47.6295 86.7119 47.6424 86.7121C47.9033 86.6124 48.1769 86.5259 48.4499 86.4782C48.4758 86.4786 48.502 86.4661 48.5279 86.4665C48.8141 86.406 49.1128 86.3718 49.4241 86.3636C49.4371 86.3638 49.4371 86.3638 49.4501 86.364C49.7614 86.3558 50.0982 86.374 50.4346 86.4181C50.6416 86.4472 50.8486 86.4763 51.0425 86.5182C51.0555 86.5184 51.0812 86.5318 51.0941 86.532C51.2621 86.5734 51.43 86.6149 51.5977 86.6694C51.6234 86.6827 51.6494 86.6831 51.6751 86.6965C51.8428 86.751 52.0105 86.8054 52.178 86.8728C52.2167 86.8864 52.2424 86.8997 52.2811 86.9133C52.4487 86.9807 52.603 87.0609 52.7703 87.1413C52.7831 87.1544 52.809 87.1548 52.8218 87.168C52.9632 87.248 53.0916 87.3277 53.233 87.4077C53.2845 87.4345 53.3357 87.4741 53.3742 87.5007C53.4639 87.5669 53.5666 87.6333 53.6562 87.7125C53.7332 87.7655 53.7972 87.8184 53.8739 87.8844C53.9252 87.9241 53.9763 87.9767 54.0273 88.0294C54.2574 88.2404 54.4874 88.4643 54.7039 88.714C54.8441 88.8718 54.9714 89.0293 55.0854 89.1997C55.1235 89.2521 55.1616 89.3046 55.1995 89.37C55.2757 89.4749 55.3517 89.5927 55.4149 89.6974C55.5666 89.9461 55.6925 90.1944 55.8051 90.4555C55.8428 90.5339 55.8803 90.6252 55.905 90.7034C55.9427 90.7818 55.9673 90.8729 56.005 90.9513C56.0548 91.0817 56.0919 91.199 56.1288 91.3292C56.1412 91.3683 56.1533 91.4203 56.1657 91.4594C56.2149 91.6287 56.251 91.8108 56.2742 91.9927C56.2865 92.0318 56.2859 92.0707 56.2853 92.1096C56.3088 92.2655 56.3322 92.4344 56.3425 92.6032C56.3421 92.6291 56.3547 92.6552 56.3541 92.6941C56.3639 92.9017 56.3738 93.0963 56.3706 93.3038C56.3642 93.7186 56.3321 94.12 56.2615 94.4949C56.2611 94.5209 56.2477 94.5466 56.2473 94.5725C56.2188 94.7406 56.1773 94.9086 56.1231 95.0633C56.1231 95.0633 56.1097 95.089 56.1093 95.115C56.0549 95.2827 56.0006 95.4374 55.9464 95.5922C55.9332 95.605 55.9328 95.6309 55.9196 95.6436C55.8658 95.7725 55.799 95.9011 55.7322 96.0297C55.7054 96.0812 55.6787 96.1326 55.6522 96.1711C55.5989 96.2611 55.5457 96.351 55.4926 96.428C55.4396 96.505 55.3865 96.5819 55.3337 96.646C55.294 96.6972 55.2543 96.7485 55.2146 96.7997C55.0427 97.0175 54.858 97.2221 54.6476 97.4133C54.4241 97.6174 54.1879 97.7952 53.939 97.96L67.0399 92.4555C67.2886 92.3037 67.525 92.1129 67.7485 91.9089C67.9589 91.7176 68.1436 91.513 68.3155 91.2952C68.3289 91.2695 68.3552 91.244 68.3815 91.2185C68.4079 91.1929 68.4212 91.1672 68.4348 91.1285C68.4878 91.0516 68.5409 90.9746 68.5939 90.8976C68.6207 90.8461 68.6602 90.8079 68.6998 90.7566C68.7264 90.7181 68.7399 90.6794 68.7665 90.6409C68.7932 90.5895 68.8199 90.538 68.8464 90.4995C68.873 90.4611 68.8865 90.4224 68.913 90.3839C68.9533 90.2937 68.9936 90.2036 69.0339 90.1135C69.0471 90.1007 69.0475 90.0748 69.0606 90.062C69.0606 90.062 69.0608 90.049 69.0738 90.0492C69.1143 89.9461 69.155 89.8301 69.1955 89.727C69.209 89.6883 69.2228 89.6366 69.2364 89.5979C69.2497 89.5722 69.2503 89.5333 69.2637 89.5076C69.2772 89.4689 69.2906 89.4432 69.2912 89.4043C69.3187 89.301 69.3464 89.1847 69.374 89.0814C69.3744 89.0555 69.3875 89.0427 69.3879 89.0168C69.3883 88.9909 69.4017 88.9652 69.4023 88.9263C69.4163 88.8616 69.4302 88.797 69.4312 88.7322C69.446 88.6158 69.4607 88.4993 69.4757 88.3699C69.4907 88.2404 69.4927 88.1108 69.4947 87.9812C69.4959 87.9034 69.4973 87.8127 69.4985 87.7349C69.4859 87.7087 69.4739 87.6437 69.4747 87.5919Z" fill="url(#paint0_linear)"/>
<path d="M54.6343 97.4395C53.4901 98.485 52.0574 98.9038 50.3491 98.6959C48.6408 98.4881 47.2135 97.714 46.054 96.3866C44.9078 95.0464 44.3478 93.5207 44.3612 91.8094C44.3746 90.0981 44.9536 88.7067 46.1107 87.6614C47.2679 86.616 48.7137 86.1845 50.4221 86.3923C52.1304 86.6002 53.5449 87.3611 54.6916 88.6753C55.8253 89.9894 56.3852 91.5151 56.3844 93.2525C56.3704 95.0027 55.7784 96.3939 54.6343 97.4395Z" fill="#41419A"/>
<path d="M35.5555 54.5186L120.296 87.7037L95.4074 97.7778L11.8518 64.5926L35.5555 54.5186Z" fill="#2C2C67"/>
<path d="M11.8518 68.1483V64.5928L95.4074 97.778V101.334L11.8518 68.1483Z" fill="#41419A"/>
<path d="M120.296 91.2592V87.7036L95.4075 97.7777V101.333L120.296 91.2592Z" fill="#7A7AE1"/>
<g filter="url(#filter0_b)">
<path d="M69.926 58.7041L94.9091 68.4757V97.3684L69.926 87.5968V58.7041Z" fill="url(#paint1_linear)"/>
</g>
<g filter="url(#filter1_b)">
<path d="M94.9092 68.4757L119.892 58.7041V87.4481L94.9092 97.3613V68.4757Z" fill="url(#paint2_linear)"/>
</g>
<path d="M94.9093 97.0254L69.9263 87.2538L94.9093 77.1416L119.866 87.2856L94.9093 97.0254Z" fill="url(#paint3_linear)"/>
<path d="M102.117 78.6493C97.3211 83.4447 90.2212 84.2508 85.5918 80.756C85.8758 81.1321 86.1845 81.4939 86.5255 81.8348C91.062 86.3713 98.9433 85.8459 104.128 80.6612C109.313 75.476 109.839 67.5947 105.302 63.0582C104.961 62.7172 104.599 62.4085 104.223 62.1245C107.718 66.7539 106.912 73.8539 102.117 78.6493Z" fill="url(#paint4_linear)"/>
<path d="M103.29 61.0458C107.827 65.5828 107.302 73.4636 102.116 78.6488C96.9312 83.834 89.0503 84.3594 84.5133 79.8224C79.9764 75.2855 80.5017 67.4046 85.6869 62.2194C90.8721 57.0342 98.753 56.5088 103.29 61.0458Z" fill="#FFE47E"/>
<path d="M92.4761 79.6984C90.4142 79.6984 88.5335 78.9189 87.1795 77.5037C84.0361 74.2173 84.4727 68.4135 88.1529 64.5663C90.1054 62.5246 92.6853 61.354 95.2309 61.354C97.2928 61.354 99.1734 62.1336 100.527 63.5487C103.671 66.8351 103.234 72.6389 99.5541 76.4861C97.6019 78.527 95.0221 79.6984 92.4761 79.6984Z" fill="url(#paint5_linear)"/>
<path d="M71.0964 58.7368L94.8958 68.0568M94.8958 68.0568L118.89 58.7368M94.8958 68.0568V97.1669" stroke="url(#paint6_radial)" stroke-width="1.5"/>
<path d="M94.9093 68.4766L69.9263 58.705L94.9093 48.5928L119.866 58.7368L94.9093 68.4766Z" fill="url(#paint7_linear)"/>
<g filter="url(#filter2_b)">
<path d="M11.8518 36.1855L36.8349 45.9571V74.8498L11.8518 65.0782V36.1855Z" fill="url(#paint8_linear)"/>
</g>
<g filter="url(#filter3_b)">
<path d="M36.835 45.9571L61.818 36.1855V64.9295L36.835 74.8427V45.9571Z" fill="url(#paint9_linear)"/>
</g>
<path d="M36.8351 74.5068L11.8521 64.7352L36.8351 54.623L61.7915 64.767L36.8351 74.5068Z" fill="url(#paint10_linear)"/>
<path d="M24.3855 66.5804V43.7356L46.0071 35.5557V58.0233L24.3855 66.5804Z" fill="#C4C4C4"/>
<path d="M24.3855 66.5804V43.7356L46.0071 35.5557V58.0233L24.3855 66.5804Z" fill="url(#paint11_linear)"/>
<ellipse cx="42.2178" cy="44.6832" rx="1.37388" ry="1.60286" transform="rotate(4.07148 42.2178 44.6832)" fill="white"/>
<path d="M30.9615 53.8184L27.3579 63.5693L44.5255 57.0408L37.9567 48.731L34.7771 57.2453L30.9615 53.8184Z" fill="white"/>
<path d="M13.0222 36.2183L36.8216 45.5383M36.8216 45.5383L60.816 36.2183M36.8216 45.5383V74.6484" stroke="url(#paint12_radial)" stroke-width="1.5"/>
<path d="M36.8351 45.958L11.8521 36.1864L36.8351 26.0742L61.7915 36.2182L36.8351 45.958Z" fill="url(#paint13_linear)"/>
<defs>
<filter id="filter0_b" x="65.926" y="54.7041" width="32.9831" height="46.6643" filterUnits="userSpaceOnUse" color-interpolation-filters="sRGB">
<feFlood flood-opacity="0" result="BackgroundImageFix"/>
<feGaussianBlur in="BackgroundImage" stdDeviation="2"/>
<feComposite in2="SourceAlpha" operator="in" result="effect1_backgroundBlur"/>
<feBlend mode="normal" in="SourceGraphic" in2="effect1_backgroundBlur" result="shape"/>
</filter>
<filter id="filter1_b" x="90.9092" y="54.7041" width="32.9831" height="46.6572" filterUnits="userSpaceOnUse" color-interpolation-filters="sRGB">
<feFlood flood-opacity="0" result="BackgroundImageFix"/>
<feGaussianBlur in="BackgroundImage" stdDeviation="2"/>
<feComposite in2="SourceAlpha" operator="in" result="effect1_backgroundBlur"/>
<feBlend mode="normal" in="SourceGraphic" in2="effect1_backgroundBlur" result="shape"/>
</filter>
<filter id="filter2_b" x="7.85181" y="32.1855" width="32.9831" height="46.6643" filterUnits="userSpaceOnUse" color-interpolation-filters="sRGB">
<feFlood flood-opacity="0" result="BackgroundImageFix"/>
<feGaussianBlur in="BackgroundImage" stdDeviation="2"/>
<feComposite in2="SourceAlpha" operator="in" result="effect1_backgroundBlur"/>
<feBlend mode="normal" in="SourceGraphic" in2="effect1_backgroundBlur" result="shape"/>
</filter>
<filter id="filter3_b" x="32.835" y="32.1855" width="32.9831" height="46.6572" filterUnits="userSpaceOnUse" color-interpolation-filters="sRGB">
<feFlood flood-opacity="0" result="BackgroundImageFix"/>
<feGaussianBlur in="BackgroundImage" stdDeviation="2"/>
<feComposite in2="SourceAlpha" operator="in" result="effect1_backgroundBlur"/>
<feBlend mode="normal" in="SourceGraphic" in2="effect1_backgroundBlur" result="shape"/>
</filter>
<linearGradient id="paint0_linear" x1="54.9092" y1="84.2549" x2="58.3097" y2="95.2728" gradientUnits="userSpaceOnUse">
<stop offset="0.0364583" stop-color="#2C2C67"/>
<stop offset="0.651042" stop-color="#9391DF"/>
<stop offset="0.880208" stop-color="#2C2C67"/>
</linearGradient>
<linearGradient id="paint1_linear" x1="82.4176" y1="58.7041" x2="82.4176" y2="97.3684" gradientUnits="userSpaceOnUse">
<stop stop-color="#B8BADE"/>
<stop offset="1" stop-color="#B8BADE" stop-opacity="0.55"/>
</linearGradient>
<linearGradient id="paint2_linear" x1="95.4486" y1="69.7281" x2="118.977" y2="87.6737" gradientUnits="userSpaceOnUse">
<stop stop-color="#8F92CF"/>
<stop offset="1" stop-color="#8F92CF" stop-opacity="0.78"/>
</linearGradient>
<linearGradient id="paint3_linear" x1="94.896" y1="77.1416" x2="94.896" y2="97.0254" gradientUnits="userSpaceOnUse">
<stop stop-color="#D5D6F1" stop-opacity="0.23"/>
<stop offset="1" stop-color="#D5D6F1"/>
</linearGradient>
<linearGradient id="paint4_linear" x1="100.633" y1="68.5324" x2="100.234" y2="86.0793" gradientUnits="userSpaceOnUse">
<stop stop-color="#F4BF1A"/>
<stop offset="1" stop-color="#CDA015"/>
</linearGradient>
<linearGradient id="paint5_linear" x1="93.8535" y1="61.354" x2="93.8535" y2="79.6984" gradientUnits="userSpaceOnUse">
<stop stop-color="#F4BF1A"/>
<stop offset="1" stop-color="#E7B724"/>
</linearGradient>
<radialGradient id="paint6_radial" cx="0" cy="0" r="1" gradientUnits="userSpaceOnUse" gradientTransform="translate(94.8958 68.1005) rotate(-20.8747) scale(24.6361 31.8527)">
<stop stop-color="white" stop-opacity="0.68"/>
<stop offset="1" stop-color="white" stop-opacity="0"/>
</radialGradient>
<linearGradient id="paint7_linear" x1="94.896" y1="48.5928" x2="94.896" y2="68.4766" gradientUnits="userSpaceOnUse">
<stop stop-color="#D5D6F1"/>
<stop offset="1" stop-color="#D5D6F1" stop-opacity="0.17"/>
</linearGradient>
<linearGradient id="paint8_linear" x1="24.3433" y1="36.1855" x2="24.3433" y2="74.8498" gradientUnits="userSpaceOnUse">
<stop stop-color="#B8BADE"/>
<stop offset="1" stop-color="#B8BADE" stop-opacity="0.55"/>
</linearGradient>
<linearGradient id="paint9_linear" x1="37.3744" y1="47.2096" x2="60.9031" y2="65.1552" gradientUnits="userSpaceOnUse">
<stop stop-color="#8F92CF"/>
<stop offset="1" stop-color="#8F92CF" stop-opacity="0.78"/>
</linearGradient>
<linearGradient id="paint10_linear" x1="36.8218" y1="54.623" x2="36.8218" y2="74.5068" gradientUnits="userSpaceOnUse">
<stop stop-color="#D5D6F1" stop-opacity="0.23"/>
<stop offset="1" stop-color="#D5D6F1"/>
</linearGradient>
<linearGradient id="paint11_linear" x1="35.1963" y1="35.5557" x2="23.4558" y2="64.9862" gradientUnits="userSpaceOnUse">
<stop stop-color="#72D0D6"/>
<stop offset="1" stop-color="#40A0A6"/>
</linearGradient>
<radialGradient id="paint12_radial" cx="0" cy="0" r="1" gradientUnits="userSpaceOnUse" gradientTransform="translate(36.8216 45.5819) rotate(-20.8747) scale(24.6361 31.8527)">
<stop stop-color="white" stop-opacity="0.68"/>
<stop offset="1" stop-color="white" stop-opacity="0"/>
</radialGradient>
<linearGradient id="paint13_linear" x1="36.8218" y1="26.0742" x2="36.8218" y2="45.958" gradientUnits="userSpaceOnUse">
<stop stop-color="#D5D6F1"/>
<stop offset="1" stop-color="#D5D6F1" stop-opacity="0.17"/>
</linearGradient>
</defs>
</svg>
