<svg width="128" height="128" viewBox="0 0 128 128" fill="none" xmlns="http://www.w3.org/2000/svg">
<circle cx="64" cy="64" r="64" fill="#6239DA"/>
<circle cx="64" cy="64" r="64" fill="#6239DA"/>
<mask id="mask0" mask-type="alpha" maskUnits="userSpaceOnUse" x="0" y="0" width="128" height="128">
<circle cx="64" cy="64" r="64" fill="#6239DA"/>
<circle cx="64" cy="64" r="64" fill="#6239DA"/>
</mask>
<g mask="url(#mask0)">
<path d="M63.274 30.6534C62.1164 37.0277 58.6943 41.7439 55.6305 41.1876C52.5667 40.6313 51.0216 35.0127 52.1792 28.6385C53.3368 22.2642 56.7589 17.5479 59.8227 18.1042C62.8864 18.6608 64.4316 24.2791 63.274 30.6534Z" fill="url(#paint0_linear)"/>
<path d="M45.4029 17.6531C43.213 17.0205 41.0049 16.7864 38.8547 16.9064C38.2927 16.9378 38.111 17.6712 38.5928 17.9624C47.3971 23.2837 52.0187 33.7688 49.2271 43.9205C47.8305 48.9995 44.7957 53.2002 40.8243 56.1407C48.9879 55.7775 56.3567 50.3049 58.782 42.0787C61.8491 31.676 55.8219 20.6628 45.4029 17.6531Z" fill="url(#paint1_linear)"/>
<path d="M53.8573 41.9492C56.7329 31.4916 50.5866 20.683 40.129 17.8071C39.5271 17.6416 38.9241 17.5078 38.3214 17.4013C38.2938 17.6083 38.3748 17.8305 38.5929 17.9623C47.3972 23.2836 52.0188 33.7687 49.2271 43.9205C48.012 48.3397 45.5561 52.0936 42.3225 54.9313C47.7767 52.7083 52.1749 48.0674 53.8573 41.9492Z" fill="url(#paint2_linear)"/>
<path d="M73.4804 22.7527C75.7529 22.9305 77.9023 23.4878 79.873 24.3562C80.388 24.5832 80.3003 25.3336 79.7469 25.4368C69.6337 27.3225 61.6204 35.513 60.6642 45.9981C60.1858 51.2438 61.5497 56.2433 64.2336 60.3925C56.7189 57.182 51.745 49.4678 52.367 40.9141C53.1538 30.0974 62.6685 21.9067 73.4804 22.7527Z" fill="url(#paint3_linear)"/>
<path d="M57.0227 42.5241C58.0078 31.7232 67.5623 23.7659 78.3633 24.7509C78.9849 24.8075 79.5965 24.8943 80.198 25.0065C80.1511 25.2099 79.9972 25.3895 79.7466 25.4361C69.6335 27.3219 61.6202 35.5124 60.664 45.9974C60.2477 50.5618 61.2268 54.9394 63.2561 58.7329C58.9319 54.7342 56.4464 48.8432 57.0227 42.5241Z" fill="url(#paint4_linear)"/>
<path d="M76.8082 30.5857C79.3167 31.0081 81.6509 31.84 83.7558 33C84.3059 33.3032 84.1341 34.1288 83.5087 34.1888C72.0804 35.2852 62.3631 43.5977 60.2635 55.1585C59.2131 60.9423 60.235 66.6348 62.8083 71.5122C54.7722 67.2005 50.0057 58.1336 51.5429 48.6867C53.4867 36.7408 64.8731 28.5764 76.8082 30.5857Z" fill="url(#paint5_linear)"/>
<path d="M56.5593 50.9367C58.7221 39.0277 70.1295 31.1268 82.0386 33.2896C82.724 33.4141 83.3953 33.571 84.053 33.7551C83.9807 33.9766 83.7918 34.161 83.5088 34.1881C72.0804 35.2846 62.3632 43.597 60.2635 55.1578C59.3496 60.1905 60.0051 65.1535 61.8859 69.5711C57.4745 64.6982 55.294 57.9039 56.5593 50.9367Z" fill="url(#paint6_linear)"/>
<path d="M39.5335 23.816C37.0366 23.3293 34.559 23.2873 32.1806 23.6332C31.559 23.7235 31.4296 24.5568 31.9939 24.8329C42.3069 29.8778 48.4808 41.0762 46.3813 52.6371C45.331 58.4209 42.3727 63.3905 38.2488 67.0517C47.2877 65.841 54.938 59.0291 56.8207 49.6449C59.2015 37.7783 51.413 26.1316 39.5335 23.816Z" fill="url(#paint7_linear)"/>
<path d="M51.3333 49.9882C53.4961 38.0791 45.5952 26.6717 33.6861 24.5089C33.0007 24.3844 32.3171 24.2953 31.6367 24.2364C31.6264 24.4691 31.7385 24.7082 31.9939 24.8331C42.3069 29.878 48.4808 41.0764 46.3813 52.6373C45.4674 57.6699 43.1086 62.0855 39.7946 65.5597C45.6377 62.5491 50.068 56.9554 51.3333 49.9882Z" fill="url(#paint8_linear)"/>
<path d="M78.0779 35.2851L36.692 27.769C43.3434 32.9527 47.2772 41.0764 46.7394 49.6849C45.1914 52.2244 43.1717 54.4029 40.8245 56.1407C42.5148 56.0655 44.1699 55.7681 45.7552 55.2758C44.3821 59.9357 41.7311 63.9601 38.2487 67.0517C43.8316 66.3039 48.8839 63.4187 52.3755 59.111C54.1293 64.3713 57.8446 68.8489 62.808 71.5119C60.6351 67.3934 59.5685 62.6936 59.9215 57.8486C61.2325 58.867 62.6774 59.7273 64.2333 60.3921C62.6471 57.9399 61.5222 55.1903 60.9661 52.2687C63.4895 44.0207 70.0285 37.7988 78.0779 35.2851Z" fill="url(#paint9_linear)"/>
<path fill-rule="evenodd" clip-rule="evenodd" d="M33.8284 68.5023C40.8027 63.6719 42.5406 54.1023 37.7102 47.128C36.8924 45.9472 35.9388 44.9166 34.8849 44.0425C39.8081 40.9272 45.8693 39.5797 52.0536 40.7028C65.135 43.0785 73.8136 55.6089 71.4379 68.6904L69.6543 78.5114C67.2786 91.5928 54.7483 100.271 41.6668 97.8957C28.9319 95.5829 20.3697 83.6464 22.1168 70.9465C26.0477 71.7195 30.2749 70.9635 33.8284 68.5023Z" fill="url(#paint10_linear)"/>
<path d="M41.667 97.8961C44.4804 98.4071 47.2704 98.4064 49.937 97.9599C47.7805 94.6948 45.1674 91.5439 42.1202 88.6242C35.9581 82.7205 28.9254 78.6371 22.0002 76.5171C23.001 86.9751 30.822 95.9266 41.667 97.8961Z" fill="url(#paint11_linear)"/>
<path d="M21.8957 74.6624C22.0948 85.901 30.1841 95.811 41.6668 97.8964C53.1494 99.9817 64.2068 93.549 68.3448 83.098L21.8957 74.6624Z" fill="url(#paint12_linear)"/>
<path fill-rule="evenodd" clip-rule="evenodd" d="M39.1109 49.6095C41.1742 54.2158 40.7988 59.49 38.2969 63.7135C50.2118 58.7654 62.4738 58.4308 71.7101 61.9773C71.9304 64.1656 71.8508 66.4189 71.4383 68.6907L69.6547 78.5118L69.6544 78.5131L69.6544 78.5133C69.2486 80.7469 68.5467 82.8538 67.5956 84.7976C66.6041 86.8256 65.3423 88.6778 63.8646 90.3165C65.3427 88.6775 66.6049 86.825 67.5967 84.7966C68.548 82.8523 69.2499 80.745 69.6557 78.5108L71.4393 68.6897C71.8519 66.4179 71.9314 64.1646 71.7111 61.9763C71.2987 57.8644 69.8321 53.9877 67.5425 50.682C67.0473 49.967 66.5116 49.2774 65.9423 48.6175C58.1772 46.3061 48.6597 46.5127 39.1109 49.6095ZM25.4294 71.2332C24.3166 71.2574 23.2059 71.1606 22.1179 70.9467C21.9619 72.0801 21.8879 73.2074 21.8923 74.3227L21.8923 74.3227C21.9089 78.7985 23.178 83.0734 25.4177 86.7429C28.1457 84.1349 31.3087 81.7413 34.8422 79.6681L21.8923 74.3227C23 73.255 24.1805 72.2228 25.4294 71.2332ZM62.436 91.7716C62.3311 91.8699 62.2253 91.9672 62.1187 92.0635C61.9823 92.1867 61.8446 92.3083 61.7055 92.4282C61.9533 92.2146 62.1967 91.9958 62.4358 91.772L62.436 91.7716ZM62.954 91.272L62.9542 91.2721L62.9544 91.2716L62.954 91.272Z" fill="url(#paint13_linear)"/>
<path fill-rule="evenodd" clip-rule="evenodd" d="M40.4297 56.5421C40.2246 61.1736 37.9337 65.6589 33.8285 68.5021C30.275 70.9633 26.0478 71.7193 22.117 70.9463C21.8578 72.8293 21.8251 74.6962 22 76.5169C23.001 86.9749 30.822 95.9263 41.667 97.8959C44.4804 98.4069 47.2704 98.4062 49.9371 97.9597C53.9389 97.2915 57.6677 95.6204 60.8011 93.1699C64.1881 90.5223 66.8793 86.9665 68.4687 82.7824C65.9143 77.4191 62.158 72.1688 57.2932 67.5092C52.0951 62.5304 46.2784 58.8461 40.4297 56.5421Z" fill="url(#paint14_linear)"/>
<path fill-rule="evenodd" clip-rule="evenodd" d="M34.6795 67.8689C34.4051 68.088 34.1214 68.2993 33.8284 68.5022C30.275 70.9634 26.0478 71.7194 22.117 70.9465C21.8579 72.8295 21.8252 74.6965 22.0001 76.5171C23.0011 86.9752 30.822 95.9266 41.6671 97.8962C44.4805 98.4072 47.2705 98.4065 49.9371 97.96C53.9386 97.2917 57.6676 95.6207 60.8009 93.1702C58.248 87.8654 54.5206 82.6769 49.7065 78.0669C45.053 73.6098 39.9036 70.1898 34.6795 67.8689Z" fill="url(#paint15_linear)"/>
<path d="M52.7824 67.1018C60.1394 62.9557 67.355 55.8413 73.3916 46.7951L73.4859 46.748C79.5225 48.8211 86.6909 47.6432 94.0952 43.3086L94.2838 43.1201L93.9065 56.8778C92.4917 78.174 85.229 87.4557 73.5331 107.244L73.2501 107.385C61.5543 101.072 54.2915 100.224 52.8767 80.5297L52.4994 67.2432L52.7824 67.1018Z" fill="#C2BEF4"/>
<path d="M50.2829 64.9817C57.64 60.7885 64.8556 53.7212 70.8921 44.675L70.9865 44.6279C77.023 46.701 84.1915 45.5231 91.5957 41.1885L91.8315 41L94.2367 43.1673L94.0481 43.3087C86.691 47.6433 79.4754 48.8212 73.4388 46.7481L73.3445 46.7952C67.3079 55.8413 60.1395 62.9087 52.7353 67.1019L52.4523 67.2433L52.8296 80.5298C53.7256 93.3923 57.1684 98.1981 62.6862 101.779C55.8007 97.7269 51.4148 92.8269 50.3772 78.4096L49.9999 65.1231L50.2829 64.9817Z" fill="#EFEDFF"/>
<path d="M49.9998 65.1231L50.2828 64.9818C57.6399 60.7885 64.8555 53.7212 70.892 44.675L70.9864 44.6279L73.4387 46.7481L73.3444 46.7952C67.3078 55.8414 60.1394 62.9087 52.7352 67.102L52.4522 67.2433L49.9998 65.1231Z" fill="#EFEDFF"/>
<path d="M52.4995 67.2432L52.8768 80.5298C53.7729 93.3923 57.2156 98.198 62.7334 101.779C55.8479 97.7269 51.462 92.8269 50.4244 78.4096L50.0472 65.123L52.4995 67.2432Z" fill="#ADA2E5"/>
<path d="M53.537 67.62C60.7526 63.568 67.7796 56.595 73.6747 47.7844L73.769 47.7373C79.6641 49.7632 86.691 48.5853 93.9066 44.345L94.1896 44.2036L96.5476 46.3238L96.359 46.418C89.1434 50.6584 82.1164 51.8363 76.2213 49.8103L76.127 49.8575C70.1848 58.7151 63.1578 65.6411 55.9422 69.7402L55.6593 69.8815L56.0837 82.8853C56.9798 95.4651 60.3282 100.177 65.7045 103.663C58.9605 99.7055 54.6689 94.8998 53.6785 80.8123L53.2541 67.8084L53.537 67.62Z" fill="#7B65AB"/>
<path d="M53.254 67.8082L53.5369 67.6669C60.7525 63.6149 67.7795 56.6419 73.6746 47.8313L73.7689 47.7842L76.1741 49.8573L76.0798 49.9044C70.1847 58.7149 63.1577 65.6409 55.9421 69.7399L55.6592 69.8813L53.254 67.8082Z" fill="#7B65AB"/>
<path d="M55.6594 69.8812L56.0838 82.885C56.9799 95.4648 60.3283 100.176 65.7046 103.663C58.9606 99.7052 54.669 94.8995 53.6786 80.812L53.2542 67.8081L55.6594 69.8812Z" fill="#7B65AB"/>
<path d="M57.4514 71.3894C64.8085 67.2433 72.0241 60.1289 78.0606 51.0827L78.155 51.0356C84.1915 53.1087 91.36 51.9308 98.7642 47.5962L99 47.4077L98.6227 61.1654C97.2079 82.4616 89.9451 91.6962 78.2493 111.532L77.9663 111.673C66.2705 105.36 59.0077 104.512 57.5929 84.8173L57.2156 71.5308L57.4514 71.3894Z" fill="#C2BEF4"/>
<path d="M54.9991 69.2217C62.3562 65.0756 69.5246 57.9611 75.5612 48.915L75.6555 48.8679C81.6921 50.941 88.8605 49.7631 96.2647 45.4285L96.5477 45.2871L98.9529 47.4544L98.7171 47.5958C91.36 51.9304 84.1444 53.1083 78.1078 51.0352L78.0135 51.0823C71.9769 60.1285 64.8085 67.1958 57.4043 71.389L57.1213 71.5304L57.5929 84.8169C58.489 97.6794 61.9317 102.485 67.4495 106.066C60.564 102.014 56.1781 97.114 55.1406 82.6967L54.7633 69.4102L54.9991 69.2217Z" fill="#EFEDFF"/>
<path d="M54.7161 69.3633L54.999 69.222C62.3561 65.0759 69.5245 57.9614 75.5611 48.9153L75.6554 48.8682L78.1078 50.9884L78.0135 51.0355C71.9769 60.0816 64.8085 67.1489 57.4042 71.3422L57.1213 71.4835L54.7161 69.3633Z" fill="#EFEDFF"/>
<path d="M57.1684 71.5308L57.5929 84.8174C58.4889 97.6799 61.9317 102.486 67.4495 106.066C60.564 102.014 56.1781 97.1145 55.1405 82.6972L54.7632 69.4106L57.1684 71.5308Z" fill="#ADA2E5"/>
<path d="M79.5697 102.486C88.6245 87.4559 93.1991 79.8703 94.2838 63.3328L94.5668 54.6636C88.7188 57.302 83.1539 58.1501 78.1077 57.1136C73.0615 63.9453 67.4494 69.552 61.6486 73.6511L61.8844 82.0376C62.9691 97.303 67.5437 99.6117 76.6457 104.182C77.1173 104.417 77.5889 104.653 78.1077 104.936C78.5793 104.088 79.0509 103.287 79.5697 102.486Z" fill="white"/>
<path d="M79.5697 102.486C88.6245 87.4559 93.1991 79.8703 94.2838 63.3328L94.5668 54.6636C88.7188 57.302 83.1539 58.1501 78.1077 57.1136C73.0615 63.9453 67.4494 69.552 61.6486 73.6511L61.8844 82.0376C62.9691 97.303 67.5437 99.6117 76.6457 104.182C77.1173 104.417 77.5889 104.653 78.1077 104.936C78.5793 104.088 79.0509 103.287 79.5697 102.486Z" fill="url(#paint16_linear)" fill-opacity="0.85"/>
<path d="M79.0509 102.25C88.1058 87.1732 92.6803 79.6347 93.8122 63.0972L94.048 54.8992C94.2366 54.8049 94.3781 54.7578 94.5668 54.6636L94.2838 63.3328C93.1991 79.8703 88.6245 87.4088 79.5225 102.486C79.0509 103.287 78.5793 104.088 78.0605 104.889C77.8719 104.794 77.7304 104.7 77.5417 104.653C78.0605 103.852 78.5793 103.051 79.0509 102.25Z" fill="#61469C"/>
</g>
<defs>
<linearGradient id="paint0_linear" x1="55.8778" y1="24.085" x2="60.2897" y2="37.386" gradientUnits="userSpaceOnUse">
<stop stop-color="#66BB00"/>
<stop offset="1" stop-color="#0B799D"/>
</linearGradient>
<linearGradient id="paint1_linear" x1="52.1253" y1="25.1923" x2="48.4829" y2="30.5975" gradientUnits="userSpaceOnUse">
<stop stop-color="#B9DD39"/>
<stop offset="1" stop-color="#90CC1C"/>
</linearGradient>
<linearGradient id="paint2_linear" x1="39.933" y1="33.771" x2="52.6806" y2="45.3048" gradientUnits="userSpaceOnUse">
<stop stop-color="#66BB00" stop-opacity="0"/>
<stop offset="1" stop-color="#66BB00"/>
</linearGradient>
<linearGradient id="paint3_linear" x1="64.5337" y1="27.4462" x2="66.0431" y2="33.7871" gradientUnits="userSpaceOnUse">
<stop stop-color="#B9DD39"/>
<stop offset="1" stop-color="#90CC1C"/>
</linearGradient>
<linearGradient id="paint4_linear" x1="72.9367" y1="39.7686" x2="56.9474" y2="46.0836" gradientUnits="userSpaceOnUse">
<stop stop-color="#66BB00" stop-opacity="0"/>
<stop offset="1" stop-color="#66BB00"/>
</linearGradient>
<linearGradient id="paint5_linear" x1="65.9742" y1="34.401" x2="69.0685" y2="51.6464" gradientUnits="userSpaceOnUse">
<stop stop-color="#B9DD39"/>
<stop offset="1" stop-color="#90CC1C"/>
</linearGradient>
<linearGradient id="paint6_linear" x1="74.5297" y1="49.4383" x2="56.1398" y2="54.8793" gradientUnits="userSpaceOnUse">
<stop stop-color="#66BB00" stop-opacity="0"/>
<stop offset="1" stop-color="#66BB00"/>
</linearGradient>
<linearGradient id="paint7_linear" x1="43.8661" y1="38.9038" x2="38.1143" y2="70.5753" gradientUnits="userSpaceOnUse">
<stop stop-color="#B9DD39"/>
<stop offset="1" stop-color="#90CC1C"/>
</linearGradient>
<linearGradient id="paint8_linear" x1="35.0341" y1="42.2661" x2="50.3365" y2="53.8259" gradientUnits="userSpaceOnUse">
<stop stop-color="#66BB00" stop-opacity="0"/>
<stop offset="1" stop-color="#66BB00"/>
</linearGradient>
<linearGradient id="paint9_linear" x1="57.1411" y1="32.8372" x2="52.6221" y2="57.7203" gradientUnits="userSpaceOnUse">
<stop stop-color="#07485E" stop-opacity="0"/>
<stop offset="0.3884" stop-color="#05394A" stop-opacity="0.388"/>
<stop offset="1" stop-color="#03232E"/>
</linearGradient>
<linearGradient id="paint10_linear" x1="36.1959" y1="53.0505" x2="59.0968" y2="87.9381" gradientUnits="userSpaceOnUse">
<stop stop-color="#FFDA2D"/>
<stop offset="1" stop-color="#FDBF00"/>
</linearGradient>
<linearGradient id="paint11_linear" x1="34.5167" y1="94.6262" x2="40.7151" y2="63.2334" gradientUnits="userSpaceOnUse">
<stop stop-color="#FF9100" stop-opacity="0"/>
<stop offset="1" stop-color="#FF9100"/>
</linearGradient>
<linearGradient id="paint12_linear" x1="43.9799" y1="85.1273" x2="41.3807" y2="99.4389" gradientUnits="userSpaceOnUse">
<stop stop-color="#FF9100" stop-opacity="0"/>
<stop offset="1" stop-color="#FF9100"/>
</linearGradient>
<linearGradient id="paint13_linear" x1="52.6501" y1="72.4611" x2="73.2721" y2="23.3408" gradientUnits="userSpaceOnUse">
<stop stop-color="#FF9100" stop-opacity="0"/>
<stop offset="1" stop-color="#FF9100"/>
</linearGradient>
<linearGradient id="paint14_linear" x1="45.3932" y1="76.2091" x2="51.5282" y2="33.667" gradientUnits="userSpaceOnUse">
<stop stop-color="#FF9100" stop-opacity="0"/>
<stop offset="1" stop-color="#FF9100"/>
</linearGradient>
<linearGradient id="paint15_linear" x1="41.0317" y1="86.9363" x2="45.2139" y2="38.1721" gradientUnits="userSpaceOnUse">
<stop stop-color="#FF9100" stop-opacity="0"/>
<stop offset="1" stop-color="#FF9100"/>
</linearGradient>
<linearGradient id="paint16_linear" x1="93.3678" y1="80.923" x2="60.9903" y2="81.846" gradientUnits="userSpaceOnUse">
<stop stop-color="#F23563"/>
<stop offset="0.334138" stop-color="#6956D9"/>
<stop offset="0.622896" stop-color="#3F2ED0"/>
<stop offset="1" stop-color="#8817BE"/>
</linearGradient>
</defs>
</svg>
