<svg width="133" height="128" viewBox="0 0 133 128" fill="none" xmlns="http://www.w3.org/2000/svg">
<circle cx="64" cy="64" r="64" fill="#6239DA"/>
<circle cx="64" cy="64" r="64" fill="#6239DA"/>
<mask id="mask0" mask-type="alpha" maskUnits="userSpaceOnUse" x="5" y="0" width="128" height="128">
<circle cx="69" cy="64" r="64" fill="#6239DA"/>
<circle cx="69" cy="64" r="64" fill="#6239DA"/>
</mask>
<g mask="url(#mask0)">
<path d="M51.9092 19L85.0228 32.4524L89.9546 40.8409L97.0001 52.8182V105.659L51.9092 87.3409V19Z" fill="white"/>
<path fill-rule="evenodd" clip-rule="evenodd" d="M78.5854 51.8794C80.6188 54.7412 80.2198 58.5046 77.694 60.2853C75.1683 62.066 71.4723 61.1897 69.4389 58.3279C67.4054 55.4662 67.8045 51.7028 70.3302 49.9221C72.8559 48.1414 76.5519 49.0177 78.5854 51.8794ZM76.4316 63.3263C75.4159 62.8825 74.374 62.6017 73.3234 62.484C72.2815 62.3753 71.2308 62.4296 70.2239 62.6561C65.8725 63.6252 62.9482 67.6104 63.0007 72.4922L63.2458 75.4295L84.1364 83.4564L83.8912 74.7656C83.8387 69.8837 80.8093 65.2555 76.4316 63.3263Z" fill="#A196DE"/>
<path d="M29.811 62.9565L60.7073 76.2943C62.0276 76.8643 63.5 75.8962 63.5 74.4581V45.4097C63.5 44.188 62.7591 43.0883 61.6269 42.6294L32.1269 30.6727C30.1545 29.8732 28 31.3247 28 33.453V60.2022C28 61.3994 28.7118 62.482 29.811 62.9565Z" fill="url(#paint0_linear)"/>
<path d="M46 44L59 49.5V52.5L46 47V44Z" fill="#356783"/>
<path d="M46 49L59 54.5V57.5L46 52V49Z" fill="#356783"/>
<path d="M46 54L59 59.5V62.5L46 57V54Z" fill="#356783"/>
<path fill-rule="evenodd" clip-rule="evenodd" d="M39.4207 42.371C40.3889 43.7335 40.1989 45.5254 38.9963 46.3733C37.7937 47.2211 36.034 46.8038 35.0658 45.4413C34.0976 44.0787 34.2876 42.2869 35.4902 41.439C36.6927 40.5912 38.4525 41.0084 39.4207 42.371ZM41.7778 56.9998L32 52.9998V51.909C32 49.1495 34.6838 47.1871 37.3134 48.0238C39.9722 48.8697 41.7778 51.339 41.7778 54.1292V56.9998Z" fill="white"/>
<path d="M77.323 79.2074C71.0634 75.6798 64.9243 69.6266 59.7882 61.93L59.708 61.8899C54.5719 63.6537 48.4729 62.6516 42.1732 58.9636L42.0127 58.8032L42.3337 70.5086C43.5375 88.6278 49.7168 96.5249 59.6678 113.361L59.9086 113.482C69.8597 108.11 76.039 107.388 77.2428 90.6321L77.5638 79.3276L77.323 79.2074Z" fill="#C2BEF4"/>
<path d="M79.4493 77.4042C73.1898 73.8364 67.0506 67.8234 61.9145 60.1268L61.8343 60.0867C56.6982 61.8505 50.5992 60.8483 44.2995 57.1603L44.0989 57L42.0525 58.844L42.213 58.9643C48.4725 62.6522 54.6117 63.6544 59.7478 61.8906L59.828 61.9307C64.9641 69.6273 71.0631 75.6403 77.3628 79.2081L77.6035 79.3283L77.2826 90.6328C76.5202 101.576 73.591 105.665 68.8964 108.712C74.7547 105.264 78.4863 101.095 79.3691 88.8289L79.6901 77.5244L79.4493 77.4042Z" fill="#EFEDFF"/>
<path d="M79.6903 77.5242L79.4496 77.4039C73.19 73.8362 67.0509 67.8232 61.9148 60.1265L61.8346 60.0864L59.748 61.8903L59.8283 61.9304C64.9643 69.6271 71.0634 75.6401 77.3631 79.2078L77.6038 79.3281L79.6903 77.5242Z" fill="#EFEDFF"/>
<path d="M77.5634 79.3288L77.2424 90.6333C76.48 101.577 73.5509 105.666 68.8562 108.712C74.7145 105.265 78.4462 101.096 79.3289 88.8294L79.6499 77.5249L77.5634 79.3288Z" fill="#ADA2E5"/>
<path d="M76.6807 79.6492C70.5416 76.2017 64.5629 70.2689 59.5472 62.7727L59.467 62.7326C54.4513 64.4563 48.4726 63.4541 42.3334 59.8463L42.0927 59.7261L40.0864 61.53L40.2469 61.6102C46.3861 65.218 52.3648 66.2201 57.3805 64.4964L57.4607 64.5365C62.5165 72.0728 68.4952 77.9656 74.6344 81.4531L74.8751 81.5734L74.514 92.6373C73.7516 103.34 70.9027 107.349 66.3284 110.316C72.0663 106.948 75.7177 102.859 76.5604 90.8735L76.9215 79.8095L76.6807 79.6492Z" fill="#7B65AB"/>
<path d="M76.9216 79.8093L76.6808 79.6891C70.5416 76.2416 64.563 70.3088 59.5473 62.8125L59.467 62.7725L57.4207 64.5363L57.5009 64.5764C62.5166 72.0726 68.4953 77.9653 74.6344 81.4529L74.8752 81.5732L76.9216 79.8093Z" fill="#7B65AB"/>
<path d="M74.8751 81.5729L74.5139 92.6369C73.7516 103.34 70.9027 107.349 66.3284 110.315C72.0663 106.948 75.7177 102.859 76.5603 90.873L76.9215 79.8091L74.8751 81.5729Z" fill="#7B65AB"/>
<path d="M73.3504 82.8563C67.0909 79.3287 60.9517 73.2756 55.8157 65.5789L55.7354 65.5388C50.5994 67.3026 44.5003 66.3005 38.2006 62.6125L38 62.4521L38.321 74.1575C39.5248 92.2767 45.7041 100.134 55.6552 117.01L55.8959 117.13C65.847 111.759 72.0263 111.037 73.2301 94.281L73.5511 82.9766L73.3504 82.8563Z" fill="#C2BEF4"/>
<path d="M75.4366 81.0115C69.1771 77.4839 63.078 71.4308 57.942 63.7341L57.8617 63.6941C52.7257 65.4579 46.6266 64.4557 40.3269 60.7677L40.0862 60.6475L38.0398 62.4915L38.2404 62.6117C44.5 66.2997 50.6392 67.3019 55.7752 65.538L55.8554 65.5781C60.9915 73.2748 67.0905 79.2878 73.3902 82.8555L73.631 82.9758L73.2297 94.2803C72.4673 105.224 69.5382 109.313 64.8435 112.359C70.7018 108.912 74.4335 104.743 75.3162 92.4764L75.6372 81.1719L75.4366 81.0115Z" fill="#EFEDFF"/>
<path d="M75.6778 81.1326L75.4371 81.0123C69.1775 77.4847 63.0784 71.4316 57.9424 63.7349L57.8622 63.6948L55.7756 65.4987L55.8559 65.5388C60.9919 73.2355 67.091 79.2485 73.3907 82.8162L73.6314 82.9365L75.6778 81.1326Z" fill="#EFEDFF"/>
<path d="M73.5913 82.9768L73.2302 94.2812C72.4678 105.225 69.5387 109.314 64.844 112.36C70.7023 108.913 74.434 104.744 75.3167 92.4773L75.6377 81.1729L73.5913 82.9768Z" fill="#ADA2E5"/>
<path d="M54.5316 109.313C46.8275 96.5254 42.9354 90.0714 42.0125 76.001L41.7717 68.625C46.7473 70.8699 51.4821 71.5914 55.7755 70.7095C60.0689 76.5221 64.8438 81.2924 69.7792 84.78L69.5786 91.9154C68.6557 104.904 64.7636 106.868 57.0194 110.756C56.6181 110.957 56.2169 111.157 55.7755 111.398C55.3742 110.676 54.973 109.995 54.5316 109.313Z" fill="white"/>
<path d="M54.5316 109.313C46.8275 96.5254 42.9354 90.0714 42.0125 76.001L41.7717 68.625C46.7473 70.8699 51.4821 71.5914 55.7755 70.7095C60.0689 76.5221 64.8438 81.2924 69.7792 84.78L69.5786 91.9154C68.6557 104.904 64.7636 106.868 57.0194 110.756C56.6181 110.957 56.2169 111.157 55.7755 111.398C55.3742 110.676 54.973 109.995 54.5316 109.313Z" fill="url(#paint1_linear)" fill-opacity="0.85"/>
<path d="M54.973 109.113C47.2689 96.2849 43.3767 89.871 42.4137 75.8005L42.2131 68.8254C42.0526 68.7453 41.9322 68.7052 41.7717 68.625L42.0125 76.001C42.9354 90.0714 46.8275 96.4853 54.5717 109.313C54.973 109.995 55.3742 110.676 55.8156 111.357C55.9761 111.277 56.0965 111.197 56.257 111.157C55.8156 110.476 55.3742 109.794 54.973 109.113Z" fill="#61469C"/>
<path d="M97 52.818L85.0227 32.3862V47.8862L97 52.818Z" fill="#8484A2"/>
</g>
<defs>
<linearGradient id="paint0_linear" x1="28" y1="39" x2="49.5" y2="68.5" gradientUnits="userSpaceOnUse">
<stop stop-color="#92C8E7"/>
<stop offset="0.15625" stop-color="#BCE4FA"/>
<stop offset="0.270833" stop-color="#92C8E7"/>
<stop offset="1" stop-color="#6B96AE"/>
</linearGradient>
<linearGradient id="paint1_linear" x1="42.7919" y1="90.9671" x2="70.3393" y2="91.7524" gradientUnits="userSpaceOnUse">
<stop stop-color="#F23563"/>
<stop offset="0.334138" stop-color="#6956D9"/>
<stop offset="0.622896" stop-color="#3F2ED0"/>
<stop offset="1" stop-color="#8817BE"/>
</linearGradient>
</defs>
</svg>
