<svg width="128" height="131" viewBox="0 0 128 131" fill="none" xmlns="http://www.w3.org/2000/svg">
<circle cx="64" cy="64" r="64" fill="#6239DA"/>
<circle cx="64" cy="64" r="64" fill="#6239DA"/>
<mask id="mask0" mask-type="alpha" maskUnits="userSpaceOnUse" x="0" y="3" width="128" height="128">
<circle cx="64" cy="67" r="64" fill="#6239DA"/>
<circle cx="64" cy="67" r="64" fill="#6239DA"/>
</mask>
<g mask="url(#mask0)">
<path d="M48 82H84.4359L96 110L29 109.012L48 82Z" fill="url(#paint0_linear)"/>
<path d="M28 37.8957L47.6577 24V82.1043L28 96V37.8957Z" fill="url(#paint1_linear)"/>
<rect x="47.9019" y="24" width="36.6204" height="58.1043" fill="#F5F4FD"/>
<ellipse cx="32.4648" cy="66.1972" rx="1.46481" ry="2.19722" fill="#6A52B1"/>
</g>
<path d="M75.3292 61.231C71.5672 64.993 65.9975 65.6253 62.3657 62.8838C62.5885 63.1788 62.8307 63.4626 63.0982 63.7301C66.657 67.2889 72.8398 66.8767 76.9075 62.8094C80.9749 58.7417 81.387 52.5588 77.8278 49C77.5607 48.7326 77.2769 48.4904 76.9819 48.2676C79.7235 51.8993 79.0911 57.4691 75.3292 61.231Z" fill="url(#paint2_linear)"/>
<path d="M76.2497 47.4216C79.8089 50.9807 79.3968 57.1632 75.3291 61.2309C71.2614 65.2986 65.0789 65.7108 61.5197 62.1516C57.9605 58.5924 58.3727 52.4099 62.4404 48.3422C66.5081 44.2745 72.6905 43.8624 76.2497 47.4216Z" fill="#F0D365"/>
<path d="M67.7667 62.054C66.1491 62.054 64.6738 61.4425 63.6116 60.3323C61.1456 57.7542 61.4881 53.2012 64.3752 50.1831C65.9069 48.5814 67.9308 47.6631 69.9278 47.6631C71.5453 47.6631 73.0207 48.2746 74.0829 49.3848C76.5488 51.9629 76.2064 56.516 73.3193 59.534C71.7878 61.1351 69.764 62.054 67.7667 62.054Z" fill="url(#paint3_linear)"/>
<path fill-rule="evenodd" clip-rule="evenodd" d="M63.613 51.0933C63.8434 50.7778 64.0975 50.4734 64.3752 50.1831C64.6072 49.9405 64.8504 49.7136 65.1032 49.5032L65.5563 50.0475C65.3242 50.2407 65.1006 50.4493 64.887 50.6726C64.6312 50.9401 64.3971 51.2205 64.1851 51.5109L63.613 51.0933ZM66.0245 48.8349L66.4007 49.435C66.9255 49.106 67.4776 48.8494 68.0408 48.6708L67.8267 47.9957C67.2045 48.193 66.5982 48.4753 66.0245 48.8349ZM68.9349 47.7377L69.0397 48.4382C69.3361 48.3938 69.6328 48.3713 69.9278 48.3713C70.3745 48.3713 70.8063 48.4238 71.2165 48.5244L71.3853 47.8366C70.9186 47.722 70.43 47.6631 69.9278 47.6631C69.5968 47.6631 69.265 47.6883 68.9349 47.7377ZM72.9359 48.4704L72.5727 49.0784C72.9376 49.2965 73.2729 49.5628 73.5711 49.8744C73.813 50.1273 74.0243 50.4023 74.2052 50.6954L74.8079 50.3233C74.6014 49.9889 74.3598 49.6744 74.0829 49.3848C73.7405 49.0269 73.3551 48.7209 72.9359 48.4704ZM75.3822 51.55L74.7112 51.7767C74.932 52.4302 75.0358 53.14 75.0201 53.8732L75.7281 53.8884C75.7455 53.0791 75.6312 52.2869 75.3822 51.55ZM75.5798 55.2361L74.885 55.0985C74.7479 55.7906 74.5078 56.4825 74.1656 57.1452L74.7949 57.4702C75.1672 56.7491 75.4296 55.9943 75.5798 55.2361ZM74.0814 58.6238L73.5094 58.2062C73.2974 58.4966 73.0634 58.777 72.8075 59.0444C72.594 59.2677 72.3702 59.4763 72.1381 59.6695L72.5912 60.2139C72.844 60.0034 73.0873 59.7766 73.3193 59.534C73.597 59.2438 73.8511 58.9393 74.0814 58.6238ZM71.6698 60.8821L71.2937 60.2821C70.7689 60.611 70.2168 60.8676 69.6536 61.0462L69.8677 61.7213C70.4899 61.524 71.0963 61.2417 71.6698 60.8821ZM68.7595 61.9794L68.6547 61.279C68.3584 61.3233 68.0617 61.3458 67.7667 61.3458C67.3199 61.3458 66.8881 61.2934 66.478 61.1927L66.3092 61.8806C66.7759 61.9951 67.2644 62.054 67.7667 62.054C68.0977 62.054 68.4294 62.0288 68.7595 61.9794ZM64.7585 61.2467L65.1218 60.6387C64.7569 60.4207 64.4216 60.1544 64.1234 59.8428M64.7585 61.2467C64.3393 60.9962 63.954 60.6902 63.6116 60.3323C63.3346 60.0427 63.0931 59.7283 62.8866 59.3939L63.4892 59.0218C63.6702 59.3148 63.8815 59.5898 64.1234 59.8428M62.3122 58.1671L62.9832 57.9404C62.7624 57.2869 62.6587 56.5771 62.6744 55.8439L61.9663 55.8287C61.9489 56.638 62.0633 57.4302 62.3122 58.1671ZM62.1147 54.481L62.8094 54.6187C62.9466 53.9265 63.1867 53.2346 63.5289 52.5719L62.8996 52.247C62.5273 52.968 62.2649 53.7228 62.1147 54.481Z" fill="#D5A71C"/>
<path d="M67.036 64.7193C63.274 68.4812 57.7042 69.1136 54.0725 66.3721C54.2953 66.667 54.5375 66.9509 54.805 67.2183C58.3638 70.7772 64.5466 70.365 68.6143 66.2977C72.6816 62.23 73.0938 56.0471 69.5346 52.4883C69.2675 52.2208 68.9837 51.9787 68.6887 51.7559C71.4303 55.3876 70.7979 60.9574 67.036 64.7193Z" fill="url(#paint4_linear)"/>
<path d="M67.9565 50.9098C71.5157 54.469 71.1035 60.6515 67.0358 64.7192C62.9681 68.7869 56.7857 69.1991 53.2265 65.6399C49.6673 62.0807 50.0795 55.8982 54.1472 51.8305C58.2149 47.7628 64.3973 47.3506 67.9565 50.9098Z" fill="#FFE47E"/>
<path d="M59.4732 65.5423C57.8557 65.5423 56.3803 64.9308 55.3181 63.8206C52.8522 61.2425 53.1946 56.6895 56.0817 53.6714C57.6135 52.0697 59.6373 51.1514 61.6343 51.1514C63.2519 51.1514 64.7272 51.7629 65.7894 52.8731C68.2554 55.4512 67.9129 60.0042 65.0258 63.0223C63.4944 64.6234 61.4705 65.5423 59.4732 65.5423Z" fill="url(#paint5_linear)"/>
<path fill-rule="evenodd" clip-rule="evenodd" d="M55.3196 54.5816C55.5499 54.2661 55.8041 53.9617 56.0817 53.6714C56.3137 53.4288 56.557 53.2019 56.8097 52.9915L57.2629 53.5358C57.0308 53.729 56.8071 53.9376 56.5936 54.1609C56.3377 54.4284 56.1036 54.7088 55.8916 54.9992L55.3196 54.5816ZM57.7311 52.3231L58.1073 52.9232C58.6321 52.5943 59.1841 52.3377 59.7473 52.1591L59.5333 51.484C58.911 51.6813 58.3047 51.9636 57.7311 52.3231ZM60.6415 51.226L60.7462 51.9264C61.0426 51.8821 61.3393 51.8596 61.6343 51.8596C62.0811 51.8596 62.5129 51.912 62.923 52.0127L63.0918 51.3249C62.6251 51.2103 62.1366 51.1514 61.6343 51.1514C61.3033 51.1514 60.9716 51.1766 60.6415 51.226ZM64.6425 51.9587L64.2792 52.5667C64.6441 52.7847 64.9794 53.051 65.2776 53.3627C65.5196 53.6156 65.7308 53.8906 65.9118 54.1836L66.5144 53.8116C66.3079 53.4771 66.0664 53.1627 65.7894 52.8731C65.447 52.5152 65.0617 52.2092 64.6425 51.9587ZM67.0888 55.0383L66.4178 55.265C66.6386 55.9185 66.7424 56.6283 66.7266 57.3615L67.4347 57.3767C67.4521 56.5674 67.3377 55.7752 67.0888 55.0383ZM67.2863 58.7244L66.5916 58.5867C66.4545 59.2789 66.2143 59.9708 65.8721 60.6335L66.5014 60.9584C66.8737 60.2374 67.1361 59.4826 67.2863 58.7244ZM65.788 62.1121L65.2159 61.6945C65.0039 61.9849 64.7699 62.2653 64.5141 62.5327C64.3005 62.756 64.0768 62.9646 63.8447 63.1578L64.2978 63.7021C64.5505 63.4917 64.7938 63.2648 65.0258 63.0223C65.3035 62.732 65.5576 62.4276 65.788 62.1121ZM63.3764 64.3704L63.0002 63.7703C62.4754 64.0993 61.9234 64.3559 61.3601 64.5345L61.5742 65.2096C62.1965 65.0123 62.8028 64.73 63.3764 64.3704ZM60.4661 65.4677L60.3613 64.7672C60.0649 64.8116 59.7682 64.8341 59.4732 64.8341C59.0265 64.8341 58.5947 64.7817 58.1846 64.681L58.0158 65.3688C58.4825 65.4834 58.971 65.5423 59.4732 65.5423C59.8042 65.5423 60.136 65.5171 60.4661 65.4677ZM56.4651 64.735L56.8283 64.127C56.4634 63.909 56.1281 63.6426 55.8299 63.331M56.4651 64.735C56.0459 64.4845 55.6605 64.1785 55.3181 63.8206C55.0412 63.531 54.7996 63.2166 54.5931 62.8821L55.1958 62.51C55.3767 62.8031 55.588 63.0781 55.8299 63.331M54.0188 61.6554L54.6898 61.4287C54.469 60.7752 54.3652 60.0654 54.3809 59.3322L53.6729 59.317C53.6555 60.1263 53.7698 60.9185 54.0188 61.6554ZM53.8212 57.9693L54.516 58.1069C54.6531 57.4148 54.8932 56.7229 55.2354 56.0602L54.6061 55.7352C54.2338 56.4563 53.9714 57.2111 53.8212 57.9693Z" fill="#D5A71C"/>
<defs>
<linearGradient id="paint0_linear" x1="62.7519" y1="75.4118" x2="62" y2="114" gradientUnits="userSpaceOnUse">
<stop stop-color="white" stop-opacity="0.87"/>
<stop offset="1" stop-color="white" stop-opacity="0"/>
</linearGradient>
<linearGradient id="paint1_linear" x1="30.5" y1="66" x2="57.5" y2="61.5" gradientUnits="userSpaceOnUse">
<stop stop-color="#3A2182"/>
<stop offset="1" stop-color="#6043B1"/>
</linearGradient>
<linearGradient id="paint2_linear" x1="74.1654" y1="53.2945" x2="73.8526" y2="67.0598" gradientUnits="userSpaceOnUse">
<stop stop-color="#F4BF18"/>
<stop offset="1" stop-color="#AD870E"/>
</linearGradient>
<linearGradient id="paint3_linear" x1="68.8472" y1="47.6631" x2="68.8472" y2="62.054" gradientUnits="userSpaceOnUse">
<stop offset="0.015625" stop-color="#F3CE5B"/>
<stop offset="1" stop-color="#E1BF53"/>
</linearGradient>
<linearGradient id="paint4_linear" x1="65.8722" y1="56.7828" x2="65.5594" y2="70.5481" gradientUnits="userSpaceOnUse">
<stop stop-color="#F4BF1A"/>
<stop offset="1" stop-color="#CDA015"/>
</linearGradient>
<linearGradient id="paint5_linear" x1="60.5538" y1="51.1514" x2="60.5538" y2="65.5423" gradientUnits="userSpaceOnUse">
<stop stop-color="#FFDC71"/>
<stop offset="1" stop-color="#F2CF62"/>
</linearGradient>
</defs>
</svg>
