<svg width="128" height="128" viewBox="0 0 128 128" fill="none" xmlns="http://www.w3.org/2000/svg">
<circle cx="64" cy="64" r="64" fill="#6239DA"/>
<circle cx="64" cy="64" r="64" fill="#6239DA"/>
<mask id="mask0" mask-type="alpha" maskUnits="userSpaceOnUse" x="0" y="0" width="128" height="128">
<circle cx="64" cy="64" r="64" fill="#6239DA"/>
<circle cx="64" cy="64" r="64" fill="#6239DA"/>
</mask>
<g mask="url(#mask0)">
<path d="M73.6091 41.6013C73.6309 41.536 73.6309 41.4706 73.6527 41.4052C73.6745 41.3616 73.6745 41.2963 73.6963 41.2527C73.7181 41.1873 73.7399 41.122 73.7617 41.0566C73.7834 41.013 73.8052 40.9476 73.827 40.9041C73.8488 40.8387 73.8706 40.7951 73.9142 40.7297C73.936 40.6862 73.9578 40.6208 73.9795 40.5772C74.0013 40.5119 74.0449 40.4683 74.0667 40.4029C74.0885 40.3593 74.1103 40.3158 74.1539 40.2504C74.1974 40.185 74.241 40.1196 74.2846 40.0543C74.3064 40.0107 74.35 39.9671 74.3718 39.9235C74.4153 39.8582 74.4589 39.7928 74.5243 39.7274C74.5461 39.6839 74.5896 39.6403 74.6114 39.5967C74.6986 39.4878 74.7857 39.3788 74.8947 39.2699C74.8947 39.2699 74.8947 39.2699 74.9165 39.2481C75.0036 39.1391 75.1126 39.052 75.2215 38.9648C75.2433 38.943 75.2869 38.9212 75.3087 38.8777C75.3959 38.7905 75.5048 38.7033 75.6137 38.638C75.6573 38.5944 75.7009 38.5726 75.7445 38.529C75.8534 38.4419 75.9406 38.3765 76.0495 38.2893C76.0931 38.2676 76.1367 38.224 76.1803 38.2022C76.2238 38.1804 76.2674 38.1586 76.311 38.115C76.3982 38.0715 76.4853 38.0061 76.5507 37.9625C76.5943 37.9407 76.6378 37.8971 76.6814 37.8754C76.7686 37.8318 76.8557 37.7664 76.9429 37.7228C76.9865 37.701 77.03 37.6792 77.0736 37.6575C77.2044 37.5921 77.3569 37.5049 77.4876 37.4396L77.553 36.5244C77.4005 36.5898 77.2697 36.6769 77.139 36.7423C77.0954 36.7641 77.0518 36.7859 77.0083 36.8077C76.9211 36.8513 76.8339 36.9166 76.725 36.9602C76.6814 36.982 76.6378 37.0038 76.5943 37.0474C76.5071 37.0909 76.4199 37.1563 76.3546 37.1999C76.311 37.2217 76.2674 37.2435 76.2456 37.287C76.2238 37.3088 76.2021 37.3088 76.2021 37.3306C76.1803 37.3524 76.1367 37.3742 76.1149 37.396C76.006 37.4614 75.897 37.5485 75.8098 37.6139C75.7663 37.6575 75.7227 37.6792 75.6791 37.7228C75.5702 37.81 75.483 37.8971 75.3741 37.9843C75.3523 38.0061 75.3305 38.0279 75.3087 38.0497L75.2869 38.0715C75.178 38.1586 75.0908 38.2676 74.9819 38.3765C74.9819 38.3765 74.9819 38.3765 74.9601 38.3983C74.8511 38.5072 74.764 38.6162 74.6768 38.7251L74.655 38.7469C74.6332 38.7905 74.6114 38.8123 74.5679 38.8559C74.5243 38.9212 74.4589 38.9866 74.4153 39.052C74.3935 39.0956 74.35 39.1391 74.3282 39.1827C74.2846 39.2481 74.241 39.3134 74.1974 39.3788C74.1974 39.4006 74.1757 39.4006 74.1757 39.4224C74.1539 39.466 74.1321 39.4878 74.1321 39.5313C74.0885 39.5967 74.0667 39.6403 74.0449 39.7057C74.0231 39.7492 74.0013 39.7928 73.9795 39.8582C73.9578 39.9235 73.936 39.9671 73.8924 40.0325C73.8924 40.0543 73.8706 40.0761 73.8706 40.0979C73.8488 40.1196 73.8488 40.1632 73.8488 40.185C73.827 40.2504 73.8052 40.3158 73.7834 40.3811C73.7617 40.4247 73.7617 40.4901 73.7399 40.5336C73.7181 40.599 73.7181 40.6644 73.6963 40.7297C73.6963 40.7515 73.6745 40.7951 73.6745 40.8169C73.6745 40.8387 73.6745 40.8823 73.6527 40.9041C73.6527 40.9259 73.6527 40.9476 73.6309 40.9912C73.6091 41.0784 73.6091 41.1873 73.5873 41.2745L73.522 42.1896C73.522 42.1025 73.5438 41.9935 73.5656 41.9064C73.5656 41.8846 73.5655 41.8628 73.5873 41.8192C73.5873 41.7103 73.6091 41.6667 73.6091 41.6013Z" fill="#B58E3B"/>
<path d="M13.1873 59.5342C12.0761 58.9023 11.5531 58.0961 11.6185 57.3335L11.5313 58.2486C11.466 59.0113 11.9889 59.8175 13.1002 60.4494L21.0532 65.0251L21.1186 64.11L13.1873 59.5342Z" fill="#9B7A33"/>
<path d="M40.7068 65.0901C40.4671 64.9594 40.2274 64.8286 39.9878 64.6979C39.966 64.6761 39.9224 64.6761 39.9006 64.6543C39.8788 64.6325 39.8352 64.6325 39.8134 64.6108C39.6173 64.5236 39.443 64.4364 39.2469 64.3493C39.2033 64.3275 39.1598 64.3057 39.138 64.3057C38.9201 64.1968 38.6804 64.1096 38.4407 64.0224C38.4189 64.0224 38.3971 64.0007 38.3753 64.0007C38.31 63.9789 38.2664 63.9571 38.201 63.9353C38.0703 63.8917 37.9396 63.8263 37.8088 63.7828C37.7217 63.761 37.6345 63.7174 37.5473 63.6956C37.4166 63.652 37.2859 63.6084 37.1551 63.5649C37.1116 63.5431 37.068 63.5431 37.0244 63.5213C36.9808 63.4995 36.9372 63.4995 36.8719 63.4777C36.7629 63.4341 36.654 63.4123 36.545 63.3906C36.4361 63.3688 36.3489 63.3252 36.24 63.3034C36.131 63.2816 36.0221 63.238 35.9132 63.2162C35.8478 63.1944 35.8042 63.1944 35.7388 63.1727C35.6953 63.1727 35.6517 63.1509 35.6081 63.1509C35.4992 63.1291 35.3902 63.1073 35.3031 63.0855C35.1941 63.0637 35.0852 63.0419 34.9762 63.0201C34.8673 62.9983 34.7583 62.9766 34.6494 62.9548C34.584 62.933 34.5186 62.933 34.4533 62.9112C34.4097 62.9112 34.3661 62.8894 34.3225 62.8894C34.2136 62.8676 34.1046 62.8458 33.9957 62.824C33.8867 62.8022 33.7778 62.7805 33.6689 62.7587C33.5599 62.7369 33.451 62.7151 33.342 62.7151C33.2766 62.7151 33.2113 62.6933 33.1677 62.6933C33.1241 62.6933 33.0805 62.6715 33.0152 62.6715C32.9062 62.6497 32.7755 62.6497 32.6665 62.6279C32.5576 62.6061 32.4487 62.6061 32.3397 62.5844C32.2308 62.5626 32.1 62.5626 31.9911 62.5408C31.9257 62.5408 31.8603 62.519 31.795 62.519C31.7514 62.519 31.7078 62.519 31.686 62.519C31.5553 62.4972 31.4028 62.4972 31.272 62.4972C31.1849 62.4972 31.0759 62.4754 30.9888 62.4754C30.8362 62.4754 30.6837 62.4536 30.553 62.4536C30.4876 62.4536 30.4223 62.4536 30.3351 62.4536C30.3133 62.4536 30.3133 62.4536 30.2915 62.4536C30.03 62.4536 29.7904 62.4536 29.5289 62.4536C29.4853 62.4536 29.4199 62.4536 29.3764 62.4536C29.1803 62.4536 28.9624 62.4536 28.7663 62.4754C28.7227 62.4754 28.7009 62.4754 28.6573 62.4754C28.5702 62.4754 28.483 62.4754 28.3958 62.4972C28.3087 62.4972 28.2433 62.4972 28.1562 62.519C28.0036 62.519 27.8729 62.5408 27.7204 62.5408C27.655 62.5408 27.5896 62.5408 27.5461 62.5626C27.35 62.5843 27.1321 62.6061 26.936 62.6279C26.9142 62.6279 26.8924 62.6279 26.8488 62.6279C26.6963 62.6497 26.5438 62.6715 26.3694 62.6933C26.3477 62.6933 26.3477 62.6933 26.3259 62.6933C26.1516 62.7151 25.9772 62.7369 25.8247 62.7587C25.7811 62.7587 25.7158 62.7805 25.6722 62.7805C25.4543 62.824 25.2364 62.8458 25.0185 62.8894C24.9531 62.9112 24.9096 62.9112 24.8442 62.933C24.6917 62.9766 24.5391 62.9983 24.3648 63.0419C24.2777 63.0637 24.2123 63.0855 24.1251 63.1073C23.9944 63.1291 23.8637 63.1727 23.7329 63.2162C23.6458 63.238 23.5586 63.2598 23.4933 63.2816C23.3625 63.3252 23.2536 63.347 23.1228 63.3906C23.0357 63.4123 22.9485 63.4341 22.8614 63.4777C22.7524 63.5213 22.6217 63.5649 22.5127 63.5867C22.4256 63.6084 22.3384 63.652 22.2731 63.6738C22.1641 63.7174 22.0552 63.761 21.9462 63.8046C21.8591 63.8263 21.7937 63.8699 21.7065 63.8917C21.5976 63.9353 21.4886 63.9789 21.3797 64.0442C21.3361 64.066 21.2707 64.0878 21.2272 64.1096C21.1836 64.1314 21.1182 64.1532 21.0746 64.175L21.0093 65.0901C21.1182 65.0465 21.2054 65.003 21.3143 64.9594C21.4233 64.9158 21.5322 64.8722 21.6412 64.8069C21.7283 64.7633 21.7937 64.7415 21.8808 64.7197C21.9898 64.6761 22.0987 64.6325 22.2077 64.589C22.2948 64.5672 22.382 64.5236 22.4474 64.5018C22.5563 64.4582 22.6653 64.4147 22.796 64.3929C22.8832 64.3711 22.9703 64.3275 23.0575 64.3057C23.1664 64.2621 23.2972 64.2403 23.4279 64.1968C23.515 64.175 23.6022 64.1532 23.6676 64.1314C23.7983 64.0878 23.929 64.066 24.0598 64.0224C24.1469 64.0007 24.2123 63.9789 24.2995 63.9571C24.452 63.9135 24.6045 63.8917 24.7788 63.8481C24.8442 63.8263 24.8878 63.8263 24.9531 63.8046C25.171 63.761 25.3889 63.7174 25.6068 63.6956C25.6504 63.6956 25.7158 63.6738 25.7593 63.6738C25.9337 63.652 26.108 63.6302 26.2605 63.6084C26.4348 63.5867 26.6091 63.5649 26.7617 63.5431C26.7834 63.5431 26.827 63.5431 26.8488 63.5431C27.0449 63.5213 27.241 63.4995 27.4589 63.4777C27.5243 63.4777 27.5896 63.4777 27.655 63.4559C27.8075 63.4559 27.9383 63.4341 28.0908 63.4341C28.178 63.4341 28.2433 63.4341 28.3305 63.4123C28.4394 63.4123 28.5702 63.4123 28.6791 63.3906C28.8752 63.3906 29.0931 63.3906 29.2892 63.3688C29.3328 63.3688 29.3982 63.3688 29.4417 63.3688C29.7032 63.3688 29.9429 63.3688 30.2044 63.3688C30.2915 63.3688 30.3787 63.3688 30.4658 63.3688C30.6184 63.3688 30.7709 63.3906 30.9016 63.3906C30.9888 63.3906 31.0977 63.4123 31.1849 63.4123C31.3156 63.4123 31.4681 63.4341 31.5989 63.4341C31.7078 63.4341 31.8168 63.4559 31.9039 63.4559C32.0129 63.4559 32.1436 63.4777 32.2526 63.4995C32.3615 63.5213 32.4704 63.5213 32.5794 63.5431C32.6883 63.5649 32.8191 63.5649 32.928 63.5867C33.037 63.6084 33.1459 63.6084 33.2549 63.6302C33.3638 63.652 33.4728 63.652 33.5817 63.6738C33.6906 63.6956 33.7996 63.7174 33.9085 63.7392C34.0175 63.761 34.1264 63.7828 34.2354 63.8046C34.3443 63.8263 34.4533 63.8481 34.5622 63.8699C34.6712 63.8917 34.7801 63.9135 34.8891 63.9353C34.998 63.9571 35.1069 63.9789 35.2159 64.0007C35.3248 64.0224 35.4338 64.0442 35.5209 64.066C35.6299 64.0878 35.7388 64.1096 35.826 64.1532C35.9349 64.175 36.0439 64.2185 36.1528 64.2403C36.2618 64.2621 36.3489 64.3057 36.4579 64.3275C36.5668 64.3493 36.6758 64.3929 36.7847 64.4146C36.8719 64.4364 36.9808 64.48 37.068 64.5018C37.1987 64.5454 37.3295 64.589 37.4602 64.6325C37.5473 64.6543 37.6345 64.6979 37.7217 64.7197C37.8524 64.7633 37.9831 64.8069 38.1139 64.8722C38.201 64.894 38.2664 64.9376 38.3536 64.9594C38.5932 65.0465 38.8329 65.1555 39.0508 65.2426C39.0944 65.2644 39.138 65.2862 39.1598 65.2862C39.3559 65.3734 39.5302 65.4605 39.7263 65.5477C39.7916 65.5695 39.857 65.6131 39.9224 65.6349C40.1621 65.7656 40.4017 65.8963 40.6414 66.0271C43.5612 67.7048 44.9339 69.8184 44.7814 71.823L44.8468 70.9079C45.0211 68.8815 43.6266 66.7679 40.7068 65.0901Z" fill="#B58E3B"/>
<path d="M106.816 55.0017C106.794 55.0453 106.794 55.1107 106.773 55.1542C106.751 55.1978 106.751 55.2196 106.729 55.2632C106.707 55.3068 106.685 55.3503 106.664 55.4157C106.642 55.4593 106.62 55.4811 106.62 55.5246C106.576 55.59 106.555 55.6336 106.511 55.699C106.489 55.7208 106.467 55.7425 106.446 55.7861L106.424 55.8079C106.359 55.8733 106.315 55.9386 106.25 56.004L106.228 56.0258C106.162 56.0912 106.097 56.1565 106.01 56.2001C105.988 56.2219 105.966 56.2219 105.945 56.2437C105.879 56.2873 105.814 56.3309 105.748 56.3744C105.727 56.3962 105.683 56.418 105.661 56.4398C105.574 56.5052 105.465 56.5487 105.356 56.6141L56.2867 80.4952C56.2214 80.517 56.156 80.5388 56.1124 80.5823C56.0253 80.6259 55.9381 80.6695 55.851 80.6913C55.7856 80.7131 55.7202 80.7349 55.6766 80.7566C55.5895 80.7784 55.5023 80.822 55.4152 80.8438C55.3498 80.8656 55.2844 80.8874 55.2191 80.8874C55.1319 80.9092 55.0448 80.931 54.9358 80.9528C54.8704 80.9745 54.8051 80.9745 54.7179 80.9963C54.6308 81.0181 54.5218 81.0399 54.4347 81.0399C54.3475 81.0617 54.2821 81.0617 54.195 81.0617C54.1296 81.0617 54.0642 81.0835 54.0207 81.0835C53.9335 81.0835 53.8246 81.1053 53.7374 81.1053C53.672 81.1053 53.6067 81.1053 53.5631 81.1271C53.4977 81.1271 53.4323 81.1271 53.367 81.1271C53.2362 81.1271 53.1055 81.1271 52.953 81.1271C52.8876 81.1271 52.8222 81.1271 52.7569 81.1271C52.6479 81.1271 52.539 81.1271 52.4518 81.1053C52.3865 81.1053 52.2993 81.1053 52.2339 81.0835C52.1468 81.0835 52.0596 81.0617 51.9725 81.0617C51.8853 81.0617 51.8199 81.0399 51.7328 81.0399C51.6456 81.0181 51.5803 81.0181 51.4931 80.9963C51.4059 80.9745 51.3188 80.9745 51.2534 80.9528C51.1663 80.931 51.1009 80.9092 51.0137 80.9092C50.9266 80.8874 50.8612 80.8656 50.7741 80.8438C50.6869 80.822 50.5997 80.8002 50.5126 80.7784C50.4472 80.7566 50.3601 80.7349 50.2947 80.7131C50.1857 80.6695 50.0768 80.6477 49.9678 80.6041C49.9243 80.5823 49.8589 80.5605 49.8153 80.5388C49.641 80.4734 49.4667 80.3862 49.2924 80.2991C49.1834 80.2337 49.0527 80.1901 48.9438 80.1248L40.9907 75.549L40.9253 76.4642L48.8784 81.0399C48.9873 81.1053 49.0745 81.1489 49.1834 81.2142C49.2052 81.2142 49.2052 81.236 49.227 81.236C49.4013 81.3232 49.5756 81.3885 49.75 81.4757H49.7717C49.8153 81.4975 49.8589 81.4975 49.9025 81.5193C50.0114 81.5629 50.1204 81.6064 50.2293 81.6282C50.2511 81.6282 50.2729 81.65 50.2729 81.65C50.3165 81.6718 50.3818 81.6718 50.4472 81.6936C50.5344 81.7154 50.6215 81.7372 50.7087 81.759C50.7305 81.759 50.7523 81.7807 50.7741 81.7807C50.8394 81.8025 50.883 81.8025 50.9484 81.8243C51.0355 81.8461 51.1009 81.8679 51.1881 81.8679C51.2098 81.8679 51.2316 81.8679 51.2534 81.8897C51.3188 81.9115 51.3842 81.9115 51.4277 81.9115C51.5149 81.9333 51.5803 81.9333 51.6674 81.9551C51.6892 81.9551 51.711 81.9551 51.7328 81.9768C51.7982 81.9768 51.8417 81.9986 51.9071 81.9986C51.9943 81.9986 52.0814 82.0204 52.1686 82.0204C52.1904 82.0204 52.2121 82.0204 52.2339 82.0204C52.2775 82.0204 52.3429 82.0204 52.3865 82.0204C52.4954 82.0204 52.6044 82.0422 52.6915 82.0422C52.7133 82.0422 52.7569 82.0422 52.7787 82.0422C52.8222 82.0422 52.844 82.0422 52.8876 82.0422C53.0184 82.0422 53.1491 82.0422 53.3016 82.0422C53.3452 82.0422 53.3888 82.0422 53.4323 82.0422C53.4541 82.0422 53.4977 82.0422 53.5195 82.0422C53.5849 82.0422 53.6502 82.0422 53.6938 82.0204C53.781 82.0204 53.8899 81.9986 53.9771 81.9986C54.0424 81.9986 54.1078 81.9768 54.1514 81.9768C54.195 81.9768 54.2386 81.9768 54.2603 81.9551C54.3039 81.9551 54.3475 81.9333 54.3911 81.9333C54.4782 81.9115 54.5872 81.9115 54.6743 81.8897C54.7397 81.8679 54.8051 81.8679 54.8922 81.8461C54.9794 81.8243 55.0883 81.8025 55.1755 81.7807C55.2409 81.759 55.3062 81.7372 55.3716 81.7372C55.4588 81.7154 55.5459 81.6718 55.6331 81.65C55.6984 81.6282 55.7638 81.6064 55.8074 81.5846C55.8945 81.5411 55.9817 81.5193 56.0689 81.4757C56.1124 81.4539 56.156 81.4321 56.1996 81.4321C56.2214 81.4321 56.2432 81.4103 56.265 81.4103L105.356 57.4639C105.465 57.4203 105.574 57.3549 105.661 57.2896C105.683 57.2678 105.727 57.246 105.748 57.2242C105.792 57.2024 105.836 57.1806 105.879 57.1371C105.901 57.1153 105.923 57.0935 105.945 57.0935C105.966 57.0717 105.988 57.0717 106.01 57.0499C106.075 56.9845 106.162 56.941 106.228 56.8756C106.228 56.8756 106.228 56.8756 106.25 56.8538L106.271 56.832C106.337 56.7666 106.402 56.7013 106.446 56.6359L106.467 56.6141C106.489 56.5923 106.489 56.5705 106.511 56.5487C106.555 56.5052 106.598 56.4398 106.62 56.3962C106.62 56.3962 106.62 56.3962 106.642 56.3744C106.664 56.3526 106.664 56.3091 106.685 56.2873C106.707 56.2437 106.729 56.2001 106.751 56.1347C106.751 56.1347 106.751 56.113 106.773 56.113C106.773 56.0912 106.794 56.0694 106.794 56.0258C106.816 55.9822 106.816 55.9169 106.838 55.8733C106.838 55.8515 106.838 55.8515 106.838 55.8297C106.86 55.7643 106.86 55.7208 106.86 55.6554L106.925 54.7402C106.86 54.871 106.838 54.9363 106.816 55.0017Z" fill="#9D7B32"/>
<path d="M62.1912 31.6436C64.2176 30.6631 67.5514 30.8156 69.6214 32.0141L77.5745 36.5898C72.2143 39.2045 72.3015 43.8674 77.7706 47.0269C83.2397 50.1863 91.999 50.6221 97.3592 48.0074L105.312 52.5831C107.382 53.7816 107.426 55.5465 105.378 56.527L56.2863 80.4952C54.2599 81.4757 50.9262 81.3232 48.8562 80.1248L40.9031 75.5491C46.2633 72.9343 46.1761 68.2714 40.707 65.112C35.2597 61.9308 26.4786 61.495 21.1184 64.1097L13.1871 59.5339C11.1172 58.3355 11.0736 56.5706 13.1218 55.5901L62.1912 31.6436Z" fill="url(#paint0_linear)"/>
<path d="M39.6392 47.9009L58.6744 38.441L61.1587 39.8924L42.1235 49.3522L39.6392 47.9009Z" fill="white"/>
<path d="M43.9951 50.416L63.0304 40.9561L65.5147 42.4075L46.4794 51.8674L43.9951 50.416Z" fill="white"/>
<path d="M48.7905 52.9761L59.9245 47.5785L62.4088 49.0298L51.2748 54.4274L48.7905 52.9761Z" fill="white"/>
<path fill-rule="evenodd" clip-rule="evenodd" d="M36.807 50.1338C36.9446 49.8934 37.251 49.8101 37.4913 49.9477L38.5737 50.5672C38.814 50.7047 38.8973 51.0111 38.7597 51.2514C38.6222 51.4918 38.3158 51.5751 38.0755 51.4375L36.9931 50.818C36.7528 50.6805 36.6695 50.3741 36.807 50.1338ZM39.4047 51.6206C39.5422 51.3802 39.8486 51.2969 40.0889 51.4345L42.2536 52.6735C42.494 52.811 42.5773 53.1174 42.4397 53.3577C42.3022 53.5981 41.9958 53.6814 41.7555 53.5438L39.5908 52.3048C39.3504 52.1673 39.2671 51.8609 39.4047 51.6206ZM43.0846 53.7269C43.2222 53.4865 43.5286 53.4032 43.7689 53.5408L45.9336 54.7798C46.1739 54.9173 46.2572 55.2237 46.1197 55.464C45.9821 55.7044 45.6758 55.7877 45.4354 55.6501L43.2707 54.4111C43.0304 54.2736 42.9471 53.9672 43.0846 53.7269ZM46.7646 55.8332C46.9022 55.5928 47.2085 55.5095 47.4489 55.6471L49.6136 56.8861C49.8539 57.0236 49.9372 57.33 49.7997 57.5703C49.6621 57.8107 49.3557 57.894 49.1154 57.7564L46.9507 56.5174C46.7104 56.3799 46.627 56.0735 46.7646 55.8332ZM50.4446 57.9395C50.5821 57.6991 50.8885 57.6158 51.1288 57.7534L53.2935 58.9924C53.5339 59.1299 53.6172 59.4363 53.4796 59.6766C53.3421 59.917 53.0357 60.0003 52.7954 59.8627L50.6307 58.6237C50.3903 58.4862 50.307 58.1798 50.4446 57.9395ZM54.1246 60.0458C54.2621 59.8054 54.5685 59.7221 54.8088 59.8597L56.9735 61.0987C57.2138 61.2362 57.2972 61.5426 57.1596 61.7829C57.022 62.0233 56.7157 62.1066 56.4753 61.969L54.3106 60.73C54.0703 60.5925 53.987 60.2861 54.1246 60.0458ZM57.8045 62.1521C57.9421 61.9117 58.2484 61.8284 58.4888 61.966L60.6535 63.205C60.8938 63.3425 60.9771 63.6489 60.8396 63.8892C60.702 64.1296 60.3956 64.2129 60.1553 64.0753L57.9906 62.8363C57.7503 62.6988 57.667 62.3924 57.8045 62.1521ZM61.4845 64.2584C61.6221 64.018 61.9284 63.9347 62.1687 64.0723L64.3334 65.3113C64.5738 65.4488 64.6571 65.7552 64.5195 65.9955C64.382 66.2359 64.0756 66.3192 63.8353 66.1816L61.6706 64.9426C61.4302 64.805 61.3469 64.4987 61.4845 64.2584ZM65.1645 66.3647C65.302 66.1243 65.6084 66.041 65.8487 66.1786L68.0134 67.4176C68.2537 67.5551 68.3371 67.8615 68.1995 68.1018C68.0619 68.3422 67.7556 68.4255 67.5152 68.2879L65.3506 67.0489C65.1102 66.9113 65.0269 66.605 65.1645 66.3647ZM68.8444 68.471C68.982 68.2306 69.2883 68.1473 69.5287 68.2849L70.611 68.9044C70.8514 69.0419 70.9347 69.3483 70.7971 69.5886C70.6596 69.829 70.3532 69.9123 70.1129 69.7747L69.0305 69.1552C68.7902 69.0176 68.7069 68.7113 68.8444 68.471Z" fill="white"/>
<path d="M84.351 59.2717C84.3727 59.2064 84.3727 59.141 84.3945 59.0756C84.4163 59.032 84.4163 58.9667 84.4381 58.9231C84.4599 58.8577 84.4817 58.7924 84.5035 58.727C84.5253 58.6834 84.5471 58.6181 84.5688 58.5745C84.5906 58.5091 84.6124 58.4655 84.656 58.4002C84.6778 58.3566 84.6996 58.2912 84.7214 58.2476C84.7432 58.1823 84.7867 58.1387 84.8085 58.0733C84.8303 58.0297 84.8521 57.9862 84.8957 57.9208C84.9393 57.8554 84.9828 57.7901 85.0264 57.7247C85.0482 57.6811 85.0918 57.6375 85.1136 57.594C85.1572 57.5286 85.2007 57.4632 85.2661 57.3978C85.2879 57.3543 85.3315 57.3107 85.3533 57.2671C85.4404 57.1582 85.5276 57.0492 85.6365 56.9403C85.6365 56.9403 85.6365 56.9403 85.6583 56.9185C85.7455 56.8095 85.8544 56.7224 85.9634 56.6352C85.9851 56.6134 86.0287 56.5916 86.0505 56.5481C86.1377 56.4609 86.2466 56.3738 86.3338 56.3084C86.3774 56.2648 86.4209 56.243 86.4645 56.1994C86.5735 56.1123 86.6606 56.0469 86.7696 55.9598C86.8131 55.938 86.8567 55.8944 86.9003 55.8726C86.9439 55.8508 86.9875 55.829 87.0092 55.7854C87.0964 55.7419 87.1836 55.6765 87.2489 55.6329C87.2925 55.6111 87.3361 55.5675 87.3797 55.5458C87.4668 55.5022 87.554 55.4368 87.6411 55.3932C87.6847 55.3714 87.7283 55.3497 87.7719 55.3279C87.9026 55.2625 88.0551 55.1753 88.1859 55.11L88.2512 54.1948C88.0987 54.2602 87.968 54.3473 87.8372 54.4127C87.7937 54.4345 87.7501 54.4563 87.7065 54.4781C87.6193 54.5217 87.5322 54.587 87.445 54.6306C87.4014 54.6524 87.3579 54.6742 87.3143 54.7178C87.2271 54.7613 87.14 54.8267 87.0746 54.8703C87.031 54.8921 86.9875 54.9139 86.9439 54.9574C86.9221 54.9792 86.9003 54.9792 86.9003 55.001C86.8785 55.0228 86.8349 55.0446 86.8131 55.0664C86.7042 55.1318 86.5952 55.2189 86.5081 55.3061C86.4645 55.3497 86.4209 55.3714 86.3774 55.415C86.2684 55.5022 86.1813 55.5893 86.0723 55.6547C86.0505 55.6765 86.0287 55.6983 86.0069 55.7201L85.9851 55.7419C85.8762 55.829 85.789 55.938 85.6801 56.0251C85.6801 56.0251 85.6801 56.0251 85.6583 56.0469C85.5494 56.1559 85.4622 56.2648 85.375 56.3738L85.3533 56.3955C85.3315 56.4391 85.3097 56.4609 85.2661 56.5045C85.2225 56.5699 85.1572 56.6352 85.1136 56.7006C85.0918 56.7442 85.0482 56.7877 85.0264 56.8313C84.9828 56.8967 84.9393 56.9621 84.8957 57.0274C84.8957 57.0492 84.8739 57.0492 84.8739 57.071C84.8521 57.1146 84.8303 57.1364 84.8303 57.18C84.7867 57.2453 84.7649 57.2889 84.7432 57.3543C84.7214 57.3979 84.6996 57.4414 84.6778 57.5068C84.656 57.5722 84.6342 57.6157 84.5906 57.6811C84.5906 57.7029 84.5688 57.7247 84.5688 57.7465C84.5471 57.7683 84.5471 57.8118 84.5471 57.8336C84.5253 57.899 84.5035 57.9644 84.4817 58.0297C84.4599 58.0733 84.4599 58.1387 84.4381 58.1823C84.4163 58.2476 84.4163 58.313 84.3945 58.3784C84.3945 58.4002 84.3727 58.4437 84.3727 58.4655C84.3727 58.4873 84.3727 58.5309 84.351 58.5527C84.351 58.5745 84.351 58.5963 84.3292 58.6398C84.3074 58.727 84.3074 58.8359 84.2856 58.9231L84.2202 59.8382C84.2202 59.7511 84.242 59.6421 84.2638 59.555C84.2638 59.5332 84.2638 59.5114 84.2856 59.4678C84.3292 59.3807 84.3292 59.3371 84.351 59.2717Z" fill="#B58E3B"/>
<path d="M23.9075 77.2046C23.1449 76.7688 22.6655 76.2459 22.4476 75.723C22.3605 75.5268 22.3387 75.3307 22.3169 75.1564C22.3169 75.1129 22.3169 75.0693 22.3169 75.0039L22.2515 75.9191C22.1862 76.6817 22.7091 77.4879 23.8204 78.1198L31.7735 82.6955L31.8388 81.7804L23.9075 77.2046Z" fill="#B58E3B"/>
<path d="M51.4492 82.7605C51.2095 82.6298 50.9698 82.4991 50.7301 82.3683C50.7083 82.3465 50.6648 82.3465 50.643 82.3247C50.6212 82.303 50.5776 82.303 50.5558 82.2812C50.3597 82.194 50.1854 82.1068 49.9893 82.0197C49.9457 81.9979 49.9021 81.9761 49.8803 81.9761C49.6624 81.8672 49.4228 81.78 49.1831 81.6929C49.1613 81.6929 49.1395 81.6711 49.1177 81.6711C49.0523 81.6493 49.0088 81.6275 48.9434 81.6057C48.8127 81.5621 48.6819 81.4968 48.5512 81.4532C48.464 81.4314 48.3769 81.3878 48.2897 81.366C48.159 81.3224 48.0282 81.2789 47.8975 81.2353C47.8539 81.2135 47.8104 81.2135 47.7668 81.1917C47.7232 81.1699 47.6796 81.1699 47.636 81.1481C47.5271 81.1045 47.4181 81.0828 47.3092 81.061C47.2003 81.0392 47.1131 80.9956 47.0042 80.9738C46.8952 80.952 46.7863 80.9084 46.6773 80.8866C46.6119 80.8649 46.5684 80.8649 46.503 80.8431C46.4594 80.8431 46.4158 80.8213 46.3723 80.8213C46.2633 80.7995 46.1544 80.7777 46.0672 80.7559C45.9583 80.7341 45.8493 80.7123 45.7404 80.6905C45.6314 80.6688 45.5225 80.647 45.4135 80.6252C45.3482 80.6034 45.2828 80.6034 45.2174 80.5816C45.1739 80.5816 45.1303 80.5598 45.0867 80.5598C44.9777 80.538 44.8688 80.5162 44.7599 80.4944C44.6509 80.4727 44.542 80.4509 44.433 80.4291C44.3241 80.4073 44.2151 80.3855 44.1062 80.3855C44.0408 80.3855 43.9754 80.3637 43.9319 80.3637C43.8883 80.3637 43.8447 80.3419 43.7793 80.3419C43.6704 80.3201 43.5397 80.3201 43.4307 80.2983C43.3218 80.2765 43.2128 80.2765 43.1039 80.2548C42.9949 80.233 42.8642 80.233 42.7552 80.2112C42.6899 80.2112 42.6245 80.1894 42.5591 80.1894C42.5156 80.1894 42.472 80.1894 42.4502 80.1894C42.3195 80.1676 42.1669 80.1676 42.0362 80.1676C41.949 80.1676 41.8401 80.1458 41.7529 80.1458C41.6004 80.1458 41.4479 80.124 41.3171 80.124C41.2518 80.124 41.1864 80.124 41.0993 80.124C41.0775 80.124 41.0775 80.124 41.0557 80.124C40.7942 80.124 40.5545 80.124 40.293 80.124C40.2495 80.124 40.1841 80.124 40.1405 80.124C39.9444 80.124 39.7265 80.124 39.5304 80.1458C39.4868 80.1458 39.4651 80.1458 39.4215 80.1458C39.3343 80.1458 39.2472 80.1458 39.16 80.1676C39.0729 80.1676 39.0075 80.1676 38.9203 80.1894C38.7678 80.1894 38.6371 80.2112 38.4845 80.2112C38.4192 80.2112 38.3538 80.2112 38.3102 80.233C38.1141 80.2548 37.8962 80.2765 37.7001 80.2983C37.6783 80.2983 37.6565 80.2983 37.6348 80.2983C37.4822 80.3201 37.3079 80.3419 37.1554 80.3637C37.1336 80.3637 37.1336 80.3637 37.1118 80.3637C36.9375 80.3855 36.7632 80.4073 36.5889 80.4509C36.5453 80.4509 36.4799 80.4727 36.4363 80.4727C36.2185 80.5162 36.0006 80.538 35.7827 80.5816C35.7173 80.6034 35.6737 80.6034 35.6084 80.6252C35.4558 80.6688 35.2815 80.6905 35.129 80.7341C35.0418 80.7559 34.9765 80.7777 34.8893 80.7995C34.7586 80.8213 34.6278 80.8649 34.4971 80.9084C34.4099 80.9302 34.3228 80.952 34.2574 80.9738C34.1267 81.0174 34.0177 81.0392 33.887 81.0828C33.7998 81.1045 33.7127 81.1263 33.6255 81.1699C33.5166 81.2135 33.3858 81.2571 33.2769 81.2789C33.1897 81.3006 33.1026 81.3442 33.0372 81.366C32.9283 81.4096 32.8193 81.4532 32.7104 81.4967C32.6232 81.5185 32.5579 81.5621 32.4707 81.5839C32.3617 81.6275 32.2528 81.6711 32.1439 81.7364C32.1003 81.7582 32.0349 81.78 31.9913 81.8018C31.9478 81.8236 31.8824 81.8454 31.8388 81.8672L31.7734 82.7823C31.8824 82.7387 31.9695 82.6952 32.0785 82.6516C32.1874 82.608 32.2964 82.5644 32.4053 82.4991C32.4925 82.4555 32.5579 82.4337 32.645 82.4119C32.754 82.3683 32.8629 82.3247 32.9718 82.2812C33.059 82.2594 33.1462 82.2158 33.2115 82.194C33.3205 82.1504 33.4294 82.1068 33.5602 82.0851C33.6473 82.0633 33.7345 82.0197 33.8216 81.9979C33.9306 81.9543 34.0613 81.9325 34.192 81.889C34.2792 81.8672 34.3664 81.8454 34.4317 81.8236C34.5625 81.78 34.6932 81.7582 34.8239 81.7146C34.9111 81.6929 34.9765 81.6711 35.0636 81.6493C35.2161 81.6057 35.3687 81.5839 35.543 81.5403C35.6084 81.5185 35.6519 81.5185 35.7173 81.4967C35.9352 81.4532 36.1531 81.4096 36.371 81.3878C36.4146 81.3878 36.4799 81.366 36.5235 81.366C36.6978 81.3442 36.8721 81.3224 37.0464 81.2789C37.2208 81.2571 37.3951 81.2353 37.5694 81.2135C37.5912 81.2135 37.613 81.2135 37.6348 81.2135C37.8309 81.1917 38.027 81.1699 38.2449 81.1481C38.3102 81.1481 38.3756 81.1481 38.441 81.1263C38.5935 81.1263 38.7242 81.1045 38.8767 81.1045C38.9639 81.1045 39.0293 81.1045 39.1164 81.0828C39.2254 81.0828 39.3561 81.0828 39.4651 81.061C39.6612 81.061 39.8791 81.061 40.0752 81.0392C40.1187 81.0392 40.1841 81.0392 40.2277 81.0392C40.4892 81.0392 40.7288 81.0392 40.9903 81.0392C41.0775 81.0392 41.1646 81.0392 41.2518 81.0392C41.4043 81.0392 41.5568 81.061 41.6876 81.061C41.7747 81.061 41.8837 81.0828 41.9708 81.0828C42.1016 81.0828 42.2541 81.1045 42.3848 81.1045C42.4938 81.1045 42.6027 81.1263 42.6899 81.1263C42.7988 81.1263 42.9296 81.1481 43.0385 81.1699C43.1474 81.1917 43.2564 81.1917 43.3653 81.2135C43.4743 81.2353 43.605 81.2353 43.714 81.2571C43.8229 81.2789 43.9319 81.2789 44.0408 81.3006C44.1498 81.3224 44.2587 81.3224 44.3676 81.3442C44.4766 81.366 44.5855 81.3878 44.6945 81.4096C44.8034 81.4314 44.9124 81.4532 45.0213 81.475C45.1303 81.4967 45.2392 81.5185 45.3482 81.5403C45.4571 81.5621 45.5661 81.5839 45.675 81.6057C45.784 81.6275 45.8929 81.6493 46.0018 81.6711C46.1108 81.6929 46.2197 81.7146 46.3069 81.7364C46.4158 81.7582 46.5248 81.78 46.6119 81.8236C46.7209 81.8454 46.8298 81.889 46.9388 81.9107C47.0477 81.9325 47.1349 81.9761 47.2438 81.9979C47.3528 82.0197 47.4617 82.0633 47.5707 82.0851C47.6578 82.1068 47.7668 82.1504 47.8539 82.1722C47.9847 82.2158 48.1154 82.2594 48.2461 82.303C48.3333 82.3247 48.4205 82.3683 48.5076 82.3901C48.6383 82.4337 48.7691 82.4773 48.8998 82.5426C48.987 82.5644 49.0523 82.608 49.1395 82.6298C49.3792 82.7169 49.6189 82.8259 49.8368 82.9131C49.8803 82.9348 49.9239 82.9566 49.9457 82.9566C50.1418 83.0438 50.3161 83.1309 50.5122 83.2181C50.5776 83.2399 50.643 83.2835 50.7083 83.3053C50.948 83.436 51.1877 83.5667 51.4274 83.6975C54.3471 85.3752 55.7199 87.4888 55.5673 89.4934L55.6327 88.5783C55.7417 86.5519 54.3689 84.4383 51.4492 82.7605Z" fill="#B58E3B"/>
<path d="M117.58 72.4541C117.58 72.5195 117.558 72.5848 117.536 72.672C117.514 72.7156 117.514 72.7809 117.492 72.8245C117.471 72.8681 117.471 72.8899 117.449 72.9335C117.427 72.977 117.405 73.0206 117.383 73.086C117.362 73.1296 117.34 73.1514 117.34 73.1949C117.296 73.2603 117.275 73.3039 117.231 73.3475C117.209 73.3692 117.187 73.391 117.166 73.4346L117.144 73.4564C117.078 73.5218 117.035 73.5871 116.969 73.6525L116.948 73.6743C116.882 73.7397 116.817 73.805 116.73 73.8486C116.708 73.8704 116.686 73.8704 116.664 73.8922C116.599 73.9358 116.534 73.9794 116.468 74.0229C116.447 74.0447 116.403 74.0665 116.381 74.0883C116.294 74.1537 116.185 74.1972 116.076 74.2626L67.0067 98.1655C66.9413 98.1873 66.8759 98.209 66.8323 98.2526C66.7452 98.2962 66.658 98.3398 66.5709 98.3616C66.5055 98.3834 66.4401 98.4051 66.3966 98.4269C66.3094 98.4487 66.2222 98.4923 66.1351 98.5141C66.0697 98.5359 66.0043 98.5577 65.939 98.5577C65.8518 98.5795 65.7647 98.6012 65.6557 98.623C65.5903 98.6448 65.525 98.6448 65.4378 98.6666C65.3507 98.6884 65.2417 98.7102 65.1546 98.7102C65.0674 98.732 65.002 98.732 64.9149 98.732C64.8495 98.732 64.7841 98.7538 64.7406 98.7538C64.6534 98.7538 64.5445 98.7756 64.4573 98.7756C64.3919 98.7756 64.3266 98.7756 64.283 98.7974C64.2176 98.7974 64.1523 98.7974 64.0869 98.7974C63.9562 98.7974 63.8254 98.7974 63.6947 98.7974C63.6293 98.7974 63.5639 98.7974 63.4986 98.7974C63.3896 98.7974 63.2807 98.7974 63.1935 98.7756C63.1282 98.7756 63.041 98.7756 62.9756 98.7538C62.8885 98.7538 62.8013 98.732 62.7142 98.732C62.627 98.732 62.5616 98.7102 62.4745 98.7102C62.3873 98.6884 62.322 98.6884 62.2348 98.6666C62.1476 98.6448 62.0605 98.6448 61.9951 98.623C61.908 98.6012 61.8426 98.5795 61.7554 98.5795C61.6683 98.5577 61.6029 98.5359 61.5158 98.5141C61.4286 98.4923 61.3414 98.4705 61.2543 98.4487C61.1889 98.4269 61.1018 98.4051 61.0364 98.3834C60.9274 98.3398 60.8185 98.318 60.7095 98.2744C60.666 98.2526 60.6006 98.2308 60.557 98.209C60.3827 98.1437 60.2084 98.0565 60.0341 97.9694C59.9251 97.904 59.7944 97.8604 59.6855 97.795L51.7324 93.2193L51.667 94.1344L59.6201 98.7102C59.729 98.7756 59.8162 98.8191 59.9251 98.8845C59.9469 98.8845 59.9469 98.9063 59.9687 98.9063C60.143 98.9935 60.3173 99.0588 60.4917 99.146H60.5134C60.557 99.1678 60.6006 99.1678 60.6442 99.1896C60.7531 99.2331 60.8621 99.2767 60.971 99.2985C60.9928 99.2985 61.0146 99.3203 61.0364 99.3203C61.08 99.3421 61.1453 99.3421 61.2107 99.3639C61.2979 99.3857 61.385 99.4075 61.4722 99.4292C61.494 99.4292 61.5158 99.451 61.5375 99.451C61.6029 99.4728 61.6465 99.4728 61.7119 99.4946C61.799 99.5164 61.8644 99.5382 61.9515 99.5382C61.9733 99.5382 61.9951 99.5382 62.0169 99.56C62.0823 99.5818 62.1259 99.5818 62.1912 99.5818C62.2784 99.6036 62.3437 99.6036 62.4309 99.6253C62.4527 99.6253 62.4745 99.6253 62.4963 99.6471C62.5616 99.6471 62.6052 99.6689 62.6706 99.6689C62.7577 99.6689 62.8449 99.6907 62.9321 99.6907C62.9538 99.6907 62.9756 99.6907 62.9974 99.6907C63.041 99.6907 63.1064 99.6907 63.1499 99.6907C63.2589 99.6907 63.3678 99.7125 63.455 99.7125C63.4768 99.7125 63.5204 99.7125 63.5422 99.7125C63.5857 99.7125 63.6075 99.7125 63.6511 99.7125C63.7818 99.7125 63.9126 99.7125 64.0433 99.7125C64.0869 99.7125 64.1305 99.7125 64.174 99.7125C64.1958 99.7125 64.2394 99.7125 64.2612 99.7125C64.3266 99.7125 64.3919 99.7125 64.4355 99.6907C64.5227 99.6907 64.6316 99.6689 64.7188 99.6689C64.7841 99.6689 64.8495 99.6471 64.8931 99.6471C64.9367 99.6471 64.9802 99.6471 65.002 99.6253C65.0456 99.6253 65.0892 99.6036 65.1328 99.6036C65.2199 99.5818 65.3289 99.5818 65.416 99.56C65.4814 99.5382 65.5468 99.5382 65.6339 99.5164C65.7211 99.4946 65.83 99.4728 65.9172 99.451C65.9826 99.4292 66.0479 99.4075 66.1133 99.4075C66.2004 99.3857 66.2876 99.3421 66.3748 99.3203C66.4401 99.2985 66.5055 99.2767 66.5491 99.2549C66.6362 99.2113 66.7234 99.1896 66.8105 99.146C66.8541 99.1242 66.8977 99.1024 66.9413 99.1024C66.9631 99.1024 66.9849 99.0806 67.0067 99.0806L116.076 75.1342L116.12 74.6766L116.076 75.1342C116.185 75.0906 116.294 75.0252 116.381 74.9599C116.403 74.9381 116.447 74.9163 116.468 74.8945C116.512 74.8727 116.556 74.8509 116.599 74.8073C116.621 74.7856 116.643 74.7638 116.664 74.7638C116.686 74.742 116.708 74.742 116.73 74.7202C116.795 74.6548 116.882 74.6112 116.948 74.5459C116.948 74.5459 116.948 74.5459 116.969 74.5241L116.991 74.5023C117.057 74.4369 117.122 74.3716 117.166 74.3062L117.187 74.2844C117.209 74.2626 117.209 74.2408 117.231 74.219C117.275 74.1755 117.318 74.1101 117.34 74.0447C117.34 74.0447 117.34 74.0447 117.362 74.0229C117.383 74.0011 117.383 73.9576 117.405 73.9358C117.427 73.8922 117.449 73.8486 117.471 73.7832C117.471 73.7832 117.471 73.7615 117.492 73.7615C117.492 73.7397 117.514 73.7179 117.514 73.6743C117.536 73.6307 117.536 73.5654 117.558 73.5218C117.558 73.5 117.558 73.5 117.558 73.4782C117.58 73.4128 117.58 73.3693 117.58 73.3039V72.4541Z" fill="url(#paint1_linear)"/>
<path d="M72.9118 49.314C74.9382 48.3335 78.2719 48.4861 80.3419 49.6845L88.295 54.2602C82.9348 56.8749 83.022 61.5378 88.4911 64.6973C93.9602 67.8567 102.72 68.2925 108.08 65.6778L116.033 70.2536C118.103 71.452 118.146 73.2169 116.098 74.1974L67.0069 98.1656C64.9805 99.1462 61.6467 98.9936 59.5767 97.7952L51.6236 93.2195C56.9838 90.6048 56.8966 85.9418 51.4275 82.7824C45.9584 79.623 37.1991 79.1872 31.839 81.8019L23.8859 77.2261C21.8159 76.0277 21.7723 74.2628 23.8205 73.2823L72.9118 49.314Z" fill="url(#paint2_linear)"/>
<path fill-rule="evenodd" clip-rule="evenodd" d="M47.9195 66.9112C48.0567 66.6707 48.3629 66.587 48.6035 66.7242L49.6645 67.3294C49.905 67.4667 49.9888 67.7729 49.8515 68.0134C49.7143 68.254 49.4081 68.3377 49.1675 68.2005L48.1066 67.5952C47.866 67.458 47.7823 67.1518 47.9195 66.9112ZM50.4658 68.3639C50.6031 68.1233 50.9093 68.0396 51.1498 68.1768L53.2718 69.3873C53.5123 69.5245 53.5961 69.8308 53.4589 70.0713C53.3217 70.3118 53.0154 70.3956 52.7749 70.2584L50.6529 69.0479C50.4124 68.9106 50.3286 68.6044 50.4658 68.3639ZM54.0732 70.4217C54.2104 70.1812 54.5166 70.0975 54.7572 70.2347L56.8791 71.4452C57.1197 71.5824 57.2034 71.8886 57.0662 72.1292C56.929 72.3697 56.6228 72.4535 56.3822 72.3163L54.2603 71.1057C54.0197 70.9685 53.936 70.6623 54.0732 70.4217ZM57.6805 72.4796C57.8177 72.2391 58.124 72.1553 58.3645 72.2925L60.4865 73.5031C60.727 73.6403 60.8108 73.9465 60.6735 74.1871C60.5363 74.4276 60.2301 74.5113 59.9896 74.3741L57.8676 73.1636C57.6271 73.0264 57.5433 72.7202 57.6805 72.4796ZM61.2879 74.5375C61.4251 74.297 61.7313 74.2132 61.9718 74.3504L64.0938 75.5609C64.3343 75.6982 64.4181 76.0044 64.2809 76.2449C64.1437 76.4855 63.8374 76.5692 63.5969 76.432L61.4749 75.2215C61.2344 75.0843 61.1506 74.778 61.2879 74.5375ZM64.8952 76.5954C65.0324 76.3548 65.3386 76.2711 65.5792 76.4083L67.7011 77.6188C67.9417 77.756 68.0254 78.0623 67.8882 78.3028C67.751 78.5433 67.4448 78.6271 67.2042 78.4899L65.0823 77.2794C64.8417 77.1421 64.758 76.8359 64.8952 76.5954ZM68.5025 78.6533C68.6398 78.4127 68.946 78.329 69.1865 78.4662L71.3085 79.6767C71.549 79.8139 71.6328 80.1201 71.4956 80.3607C71.3583 80.6012 71.0521 80.685 70.8116 80.5478L68.6896 79.3372C68.4491 79.2 68.3653 78.8938 68.5025 78.6533ZM72.1099 80.7111C72.2471 80.4706 72.5533 80.3868 72.7939 80.5241L74.9158 81.7346C75.1564 81.8718 75.2401 82.178 75.1029 82.4186C74.9657 82.6591 74.6594 82.7429 74.4189 82.6056L72.2969 81.3951C72.0564 81.2579 71.9727 80.9517 72.1099 80.7111ZM75.7172 82.769C75.8544 82.5285 76.1607 82.4447 76.4012 82.5819L78.5232 83.7924C78.7637 83.9297 78.8475 84.2359 78.7102 84.4764C78.573 84.717 78.2668 84.8007 78.0262 84.6635L75.9043 83.453C75.6637 83.3158 75.58 83.0095 75.7172 82.769ZM79.3245 84.8269C79.4618 84.5863 79.768 84.5026 80.0085 84.6398L81.0695 85.2451C81.3101 85.3823 81.3938 85.6885 81.2566 85.9291C81.1194 86.1696 80.8131 86.2534 80.5726 86.1161L79.5116 85.5109C79.2711 85.3737 79.1873 85.0674 79.3245 84.8269Z" fill="white"/>
<path fill-rule="evenodd" clip-rule="evenodd" d="M52.4951 65.5507L71.5304 56.0908L74.0147 57.5422L54.9794 67.0021L52.4951 65.5507ZM56.8515 68.0651L75.8868 58.6052L78.3711 60.0566L59.3358 69.5165L56.8515 68.0651ZM72.7807 65.2285L61.6467 70.6261L64.131 72.0774L75.265 66.6798L72.7807 65.2285Z" fill="white"/>
</g>
<defs>
<linearGradient id="paint0_linear" x1="59.2497" y1="31" x2="59.2497" y2="81.1389" gradientUnits="userSpaceOnUse">
<stop stop-color="#EBC36E"/>
<stop offset="0.25" stop-color="#E9C16C"/>
<stop offset="0.364583" stop-color="#FCD98E"/>
<stop offset="0.484375" stop-color="#EABF62"/>
<stop offset="1" stop-color="#CFA241"/>
</linearGradient>
<linearGradient id="paint1_linear" x1="55.6545" y1="98.9717" x2="84.6233" y2="99.7125" gradientUnits="userSpaceOnUse">
<stop stop-color="#B58E3B"/>
<stop offset="0.25" stop-color="#957635"/>
<stop offset="1" stop-color="#B58E3B"/>
</linearGradient>
<linearGradient id="paint2_linear" x1="69.9593" y1="48.6704" x2="69.9593" y2="98.8093" gradientUnits="userSpaceOnUse">
<stop offset="0.0625" stop-color="#FFE5AD"/>
<stop offset="0.239583" stop-color="#FFD884"/>
<stop offset="0.567708" stop-color="#F6CC73"/>
<stop offset="1" stop-color="#EBBF60"/>
</linearGradient>
</defs>
</svg>
