<svg width="128" height="128" viewBox="0 0 128 128" fill="none" xmlns="http://www.w3.org/2000/svg">
<circle cx="64" cy="64" r="64" fill="#6239DA"/>
<mask id="mask0" mask-type="alpha" maskUnits="userSpaceOnUse" x="0" y="0" width="128" height="128">
<circle cx="64" cy="64" r="64" fill="#6239DA"/>
</mask>
<g mask="url(#mask0)">
<g filter="url(#filter0_f)">
<path d="M87.1672 104.934L92.1841 102.916L91.9887 79.4072L87.1112 81.185L87.1672 104.934Z" fill="url(#paint0_linear)"/>
<path d="M88.9265 133.425L88.7962 117.015L86.2551 119.099L84.952 113.824L89.7083 109.591L93.7479 107.898L93.9434 131.406L88.9265 133.425Z" fill="url(#paint1_linear)"/>
<path fill-rule="evenodd" clip-rule="evenodd" d="M70.4877 119.294C71.7256 116.559 73.4196 114.736 75.6349 113.824C77.9805 112.847 80.0003 113.368 81.3034 115.322C82.5413 117.015 83.1928 119.685 83.1928 123.266C83.1928 126.783 82.6065 129.844 81.4988 132.448C80.326 135.183 78.5669 137.007 76.3516 137.918C75.7001 138.179 75.0485 138.309 74.4621 138.374C72.9636 138.439 71.6605 137.788 70.6832 136.421C69.4452 134.728 68.7937 132.058 68.7937 128.476C68.7937 125.025 69.3149 121.899 70.4877 119.294ZM77.5244 129.844C78.0456 128.541 78.2411 126.783 78.2411 124.634C78.2411 122.029 77.8502 120.792 77.5244 120.206C77.1986 119.685 76.938 119.62 76.7425 119.62C76.6472 119.62 76.5519 119.655 76.431 119.699C76.3868 119.715 76.3388 119.733 76.2864 119.75C75.5046 120.076 74.9182 120.792 74.5273 121.899C74.006 123.201 73.8106 124.96 73.8106 127.109C73.8106 129.713 74.2015 130.951 74.5273 131.537C74.8531 132.123 75.1788 132.253 75.7652 131.993C76.4819 131.732 77.0683 131.016 77.5244 129.844Z" fill="url(#paint2_linear)"/>
<path fill-rule="evenodd" clip-rule="evenodd" d="M73.2893 109.771C73.8757 109.706 74.5272 109.575 75.1788 109.315C77.394 108.403 79.1532 106.58 80.326 103.845C81.4336 101.24 82.02 98.1795 82.02 94.663C82.02 91.1465 81.3685 88.4115 80.1305 86.7184C78.7623 84.7648 76.8076 84.2438 74.3969 85.2206C72.1816 86.1323 70.4876 87.9557 69.2497 90.6907C68.0769 93.2955 67.5557 96.3561 67.5557 99.8726C67.5557 103.389 68.2072 106.124 69.4452 107.817C70.4876 109.25 71.7256 109.901 73.2893 109.771ZM72.5726 98.5051C72.5726 96.3561 72.768 94.5979 73.2893 93.2955C73.6802 92.1885 74.2666 91.4721 75.0485 91.1465C75.1008 91.1291 75.1486 91.1116 75.1928 91.0954C75.3137 91.0512 75.4092 91.0163 75.5045 91.0163C75.7 91.0163 75.9606 91.0814 76.2864 91.6024C76.6122 92.1885 77.0031 93.4257 77.0031 96.0305C77.0031 98.1795 76.8076 99.9377 76.2864 101.175C75.8303 102.282 75.2439 103.063 74.5272 103.324C74.006 103.519 73.6802 103.519 73.2893 102.868C73.0287 102.347 72.6377 101.11 72.5726 98.5051Z" fill="url(#paint3_linear)"/>
<path d="M61.9223 89.4813L33.1853 100.754V155.407L61.9223 143.532V89.4813Z" fill="url(#paint4_linear)"/>
</g>
</g>
<path fill-rule="evenodd" clip-rule="evenodd" d="M82.2959 51.8338C81.6444 52.0943 80.9928 52.2245 80.4064 52.2896C78.8427 52.4199 75.2345 51.6203 74.192 50.1876C72.954 48.4945 72.3025 45.7595 72.3025 42.243C72.3025 38.7265 72.8237 35.6659 73.9965 33.0611C75.2345 30.3261 76.9285 28.5027 79.1437 27.591C81.5545 26.6142 85.8794 27.2836 87.2477 29.2372C88.4856 30.9303 89.1372 33.6653 89.1372 37.1818C89.1372 40.6983 88.5508 43.7589 87.4432 46.3637C86.2704 49.0988 84.5112 50.9221 82.2959 51.8338ZM80.4064 35.8143C79.8852 37.1167 79.6897 38.8749 79.6897 41.0239C79.7549 43.6287 80.1458 44.866 80.4064 45.3869C80.7974 46.0381 81.1231 46.0381 81.6444 45.8428C82.3611 45.5823 82.9475 44.8008 83.4036 43.6938C83.9248 42.4565 84.1203 40.6983 84.1203 38.5493C84.1203 35.9445 83.7293 34.7073 83.4036 34.1212C83.0778 33.6002 82.8172 33.5351 82.6217 33.5351C82.5263 33.5351 82.4309 33.57 82.31 33.6142C82.2657 33.6304 82.218 33.6479 82.1656 33.6653C81.3838 33.9909 80.7974 34.7073 80.4064 35.8143Z" fill="url(#paint5_linear)"/>
<path d="M64.4188 57.6113L64.2885 44.2961L61.6823 43.2849L60.4443 38.0102L64.655 33.9728L68.7406 31.8517L73.8237 33.5351L69.3332 58.6668L64.4188 57.6113Z" fill="url(#paint6_linear)"/>
<path fill-rule="evenodd" clip-rule="evenodd" d="M63.3763 65.2201C64.6142 62.4851 66.3083 60.6618 68.5235 59.7501C70.8691 58.7733 75.2592 59.4426 76.5623 61.3962C77.8003 63.0893 78.4518 65.7593 78.4518 69.3409C78.4518 72.8573 77.8654 75.918 76.7578 78.5228C75.585 81.2578 73.8258 83.0812 71.6106 83.9928C70.959 84.2533 70.3075 84.3836 69.7211 84.4487C68.2225 84.5138 64.5491 83.7142 63.5718 82.3467C62.3338 80.6536 61.6823 77.9837 61.6823 74.4021C61.6823 70.9507 62.2035 67.8249 63.3763 65.2201ZM72.7833 75.918C73.3046 74.6156 73.5 72.8573 73.5 70.7084C73.5 68.1036 73.1091 66.8663 72.7833 66.2802C72.4576 65.7593 72.197 65.6941 72.0015 65.6941C71.9061 65.6941 71.8107 65.729 71.6898 65.7733C71.6458 65.7894 71.5974 65.8071 71.5454 65.8244C70.7635 66.15 70.1772 66.8663 69.7862 67.9733C69.265 69.2757 69.0695 71.034 69.0695 73.1829C69.0695 75.7877 69.4605 77.025 69.7862 77.6111C70.112 78.1972 70.4378 78.3274 71.0242 78.0669C71.7409 77.8064 72.3273 77.0901 72.7833 75.918Z" fill="url(#paint7_linear)"/>
<path d="M56.2962 34.8147L28.4443 45.4951V100.148L33.185 101.926L59.5517 88.4214L61.6295 36.1482L56.2962 34.8147Z" fill="url(#paint8_linear)"/>
<path d="M81.7499 79.2591L81.6196 65.9439L79.0134 64.9327L77.7755 59.658L81.9862 55.6206L86.0718 53.4995L91.1549 55.1829L86.6643 80.3146L81.7499 79.2591Z" fill="url(#paint9_linear)"/>
<path d="M33.1851 47.2936L61.9221 36.0205V90.0714L33.1851 101.947V47.2936Z" fill="#62C1C6"/>
<path d="M33.1851 47.2936L61.9221 36.0205V90.0714L33.1851 101.947V47.2936Z" fill="url(#paint10_linear)"/>
<mask id="mask1" mask-type="alpha" maskUnits="userSpaceOnUse" x="33" y="35" width="29" height="67">
<path d="M33.1851 46.8287L61.9221 35.5557V89.6066L33.1851 101.482V46.8287Z" fill="#62C1C6"/>
<path d="M33.1851 46.8287L61.9221 35.5557V89.6066L33.1851 101.482V46.8287Z" fill="url(#paint11_linear)"/>
</mask>
<g mask="url(#mask1)">
<ellipse cx="43.0266" cy="56.284" rx="4.75809" ry="4.99588" transform="rotate(4.07148 43.0266 56.284)" fill="white"/>
<path d="M51.2876 65.5045L42.6665 88.8322L83.7377 73.2137L68.0227 53.3335L60.4159 73.703L51.2876 65.5045Z" fill="white"/>
</g>
<mask id="mask2" mask-type="alpha" maskUnits="userSpaceOnUse" x="65" y="28" width="27" height="58">
<path d="M69.0292 42.5345L69.1595 58.9447L74.1764 56.926L73.9809 33.4177L69.9414 35.1108L65.1851 39.3436L66.423 44.6183L69.0292 42.5345Z" fill="#C4C4C4"/>
<path d="M82.7768 53.4746C83.3632 53.4095 84.0148 53.2793 84.6663 53.0188C86.8816 52.1071 88.6407 50.2837 89.8135 47.5487C90.9212 44.9439 91.5076 41.8833 91.5076 38.3668C91.5076 34.8503 90.856 32.1153 89.6181 30.4222C88.2498 28.4686 86.2952 27.9476 83.8845 28.9244C81.6692 29.8361 79.9752 31.6594 78.7372 34.3945C77.5644 36.9993 77.0432 40.0599 77.0432 43.5764C77.0432 47.0929 77.6948 49.8279 78.9327 51.521C79.9752 52.9537 81.2131 53.6049 82.7768 53.4746ZM82.0601 42.2089C82.0601 40.0599 82.2556 38.3017 82.7768 36.9993C83.1678 35.8922 83.7541 35.1759 84.536 34.8503C84.7315 34.7852 84.8618 34.7201 84.9921 34.7201C85.1875 34.7201 85.4482 34.7852 85.7739 35.3062C86.0997 35.8922 86.4906 37.1295 86.4906 39.7343C86.4906 41.8833 86.2952 43.6415 85.7739 44.8788C85.3179 45.9858 84.7315 46.7673 84.0148 47.0277C83.4935 47.2231 83.1678 47.2231 82.7768 46.5719C82.5162 46.0509 82.1253 44.8137 82.0601 42.2089Z" fill="#C4C4C4"/>
<path d="M86.4255 64.2743L86.5558 80.6846L91.5727 78.6658L91.3772 55.1575L87.3377 56.8506L82.5814 61.0834L83.8845 66.3582L86.4255 64.2743Z" fill="#C4C4C4"/>
<path d="M73.2642 61.0834C71.049 61.9951 69.355 63.8185 68.117 66.5535C66.9442 69.1583 66.423 72.2841 66.423 75.7354C66.423 79.317 67.0745 81.9869 68.3125 83.6801C69.2898 85.0476 70.5929 85.6988 72.0915 85.6337C72.6778 85.5685 73.3294 85.4383 73.9809 85.1778C76.1962 84.2661 77.9554 82.4428 79.1282 79.7077C80.2358 77.103 80.8222 74.0423 80.8222 70.5258C80.8222 66.9442 80.1706 64.2743 78.9327 62.5812C77.6296 60.6276 75.6098 60.1066 73.2642 61.0834ZM75.8704 71.8934C75.8704 74.0423 75.675 75.8006 75.1537 77.103C74.6976 78.2751 74.1112 78.9914 73.3945 79.2519C72.8082 79.5124 72.4824 79.3822 72.1566 78.7961C71.8308 78.21 71.4399 76.9727 71.4399 74.3679C71.4399 72.219 71.6354 70.4607 72.1566 69.1583C72.5475 68.0513 73.1339 67.335 73.9158 67.0094C74.1112 66.9442 74.2416 66.8791 74.3719 66.8791C74.5673 66.8791 74.828 66.9442 75.1537 67.4652C75.4795 68.0513 75.8704 69.2886 75.8704 71.8934Z" fill="#C4C4C4"/>
</mask>
<g mask="url(#mask2)">
<rect x="18.6514" y="27.4966" width="91.803" height="100.651" fill="#72D0D6"/>
<path d="M51.272 65.524L42.6665 88.8891L83.5554 73.4816L67.9766 53.3335L60.3836 73.7356L51.272 65.524Z" fill="white"/>
</g>
<defs>
<filter id="filter0_f" x="29.1853" y="75.4072" width="68.7581" height="84.0002" filterUnits="userSpaceOnUse" color-interpolation-filters="sRGB">
<feFlood flood-opacity="0" result="BackgroundImageFix"/>
<feBlend mode="normal" in="SourceGraphic" in2="BackgroundImageFix" result="shape"/>
<feGaussianBlur stdDeviation="2" result="effect1_foregroundBlur"/>
</filter>
<linearGradient id="paint0_linear" x1="47.5538" y1="89.4813" x2="48.5496" y2="131.945" gradientUnits="userSpaceOnUse">
<stop stop-color="#72D0D6"/>
<stop offset="1" stop-color="#40A0A6" stop-opacity="0"/>
</linearGradient>
<linearGradient id="paint1_linear" x1="47.5538" y1="89.4813" x2="48.5496" y2="131.945" gradientUnits="userSpaceOnUse">
<stop stop-color="#72D0D6"/>
<stop offset="1" stop-color="#40A0A6" stop-opacity="0"/>
</linearGradient>
<linearGradient id="paint2_linear" x1="47.5538" y1="89.4813" x2="48.5496" y2="131.945" gradientUnits="userSpaceOnUse">
<stop stop-color="#72D0D6"/>
<stop offset="1" stop-color="#40A0A6" stop-opacity="0"/>
</linearGradient>
<linearGradient id="paint3_linear" x1="47.5538" y1="89.4813" x2="48.5496" y2="131.945" gradientUnits="userSpaceOnUse">
<stop stop-color="#72D0D6"/>
<stop offset="1" stop-color="#40A0A6" stop-opacity="0"/>
</linearGradient>
<linearGradient id="paint4_linear" x1="47.5538" y1="89.4813" x2="48.5496" y2="131.945" gradientUnits="userSpaceOnUse">
<stop stop-color="#72D0D6"/>
<stop offset="1" stop-color="#40A0A6" stop-opacity="0"/>
</linearGradient>
<linearGradient id="paint5_linear" x1="59.2592" y1="33.7779" x2="59.7996" y2="101.926" gradientUnits="userSpaceOnUse">
<stop stop-color="#238E95"/>
<stop offset="1" stop-color="#246991"/>
</linearGradient>
<linearGradient id="paint6_linear" x1="59.2592" y1="33.7779" x2="59.7996" y2="101.926" gradientUnits="userSpaceOnUse">
<stop stop-color="#238E95"/>
<stop offset="1" stop-color="#246991"/>
</linearGradient>
<linearGradient id="paint7_linear" x1="59.2592" y1="33.7779" x2="59.7996" y2="101.926" gradientUnits="userSpaceOnUse">
<stop stop-color="#238E95"/>
<stop offset="1" stop-color="#246991"/>
</linearGradient>
<linearGradient id="paint8_linear" x1="59.2592" y1="33.7779" x2="59.7996" y2="101.926" gradientUnits="userSpaceOnUse">
<stop stop-color="#238E95"/>
<stop offset="1" stop-color="#246991"/>
</linearGradient>
<linearGradient id="paint9_linear" x1="59.2592" y1="33.7779" x2="59.7996" y2="101.926" gradientUnits="userSpaceOnUse">
<stop stop-color="#238E95"/>
<stop offset="1" stop-color="#246991"/>
</linearGradient>
<linearGradient id="paint10_linear" x1="47.5536" y1="36.0205" x2="14.6883" y2="87.55" gradientUnits="userSpaceOnUse">
<stop stop-color="#72D0D6"/>
<stop offset="1" stop-color="#40A0A6"/>
</linearGradient>
<linearGradient id="paint11_linear" x1="47.5536" y1="35.5557" x2="14.6883" y2="87.0852" gradientUnits="userSpaceOnUse">
<stop stop-color="#72D0D6"/>
<stop offset="1" stop-color="#40A0A6"/>
</linearGradient>
</defs>
</svg>
