<svg width="128" height="128" viewBox="0 0 128 128" fill="none" xmlns="http://www.w3.org/2000/svg">
<circle cx="64" cy="64" r="64" fill="#6239DA"/>
<path d="M69.9192 44.0618C69.9192 43.7523 69.8911 43.471 69.8629 43.1615C69.8629 43.1334 69.8629 43.1053 69.8629 43.0771C69.8629 43.0209 69.8348 42.9646 69.8348 42.8802C69.8067 42.6833 69.8067 42.4863 69.7785 42.2894C69.7504 42.1206 69.7223 41.98 69.6941 41.8112C69.666 41.7268 69.666 41.6424 69.666 41.558C69.666 41.5017 69.6379 41.4454 69.6379 41.4173C69.5816 41.1079 69.4972 40.8265 69.441 40.5171C69.441 40.489 69.4128 40.4608 69.4128 40.4046C69.3847 40.3202 69.3566 40.2076 69.3284 40.1232C69.2722 39.9263 69.2159 39.7294 69.1596 39.5606C69.1315 39.4762 69.1034 39.3918 69.0752 39.3074C69.019 39.1386 68.9346 38.9417 68.8502 38.7729C68.7939 38.6604 68.7658 38.5197 68.7095 38.4072C68.6814 38.3509 68.6532 38.2946 68.6251 38.2384C68.3719 37.6757 68.0625 37.1412 67.753 36.6067C67.753 36.5786 67.7249 36.5504 67.7249 36.5504C67.5842 36.3254 67.4436 36.1284 67.2748 35.9034C67.1904 35.7909 67.106 35.6783 67.0216 35.5377C66.7684 35.1719 66.4871 34.8344 66.1776 34.4968C65.6994 33.9623 65.193 33.484 64.6866 33.0339C64.6303 32.9776 64.5741 32.9214 64.5178 32.8651C64.4615 32.8088 64.4053 32.7807 64.349 32.7244C64.2083 32.6119 64.0396 32.4712 63.8708 32.3587C63.7582 32.2743 63.6457 32.1618 63.505 32.0774C63.4206 32.0211 63.3362 31.9649 63.2518 31.9086C63.1393 31.8242 63.0268 31.7679 62.9424 31.7117C62.858 31.6554 62.7736 31.5991 62.6892 31.5429C62.4923 31.4304 62.2672 31.3178 62.0703 31.2053C62.0422 31.1772 61.9859 31.1772 61.9578 31.149C61.9578 31.149 61.9296 31.149 61.9296 31.1209C61.6764 31.0084 61.4514 30.8677 61.1982 30.7833C61.1138 30.7552 61.0013 30.6989 60.9169 30.6708C60.8325 30.6426 60.7762 30.6145 60.6918 30.5864C60.6074 30.5582 60.5511 30.5301 60.4667 30.502C60.2136 30.4176 59.9885 30.3332 59.7353 30.2488C59.7072 30.2488 59.6509 30.2207 59.6228 30.2207C59.5665 30.1925 59.5103 30.1925 59.454 30.1644C59.3133 30.1081 59.1445 30.08 59.0039 30.0237C58.7788 29.9675 58.5819 29.9393 58.3568 29.8831C58.3287 29.8831 58.2724 29.8549 58.2443 29.8549C58.1036 29.9112 58.1036 29.9112 58.0755 29.9112C57.7942 29.8549 57.5129 29.7987 57.2034 29.7705C57.0627 29.7424 56.9221 29.7424 56.7814 29.7143C56.6126 29.6861 56.4438 29.6861 56.275 29.658C55.9937 29.658 55.7124 29.6299 55.4029 29.6299C55.1497 29.6299 54.8966 29.6299 54.6715 29.6299C54.6434 29.6299 54.6434 29.6299 54.6152 29.6299C54.5871 29.6299 54.5871 29.6299 54.559 29.6299C54.2776 29.658 53.9963 29.658 53.715 29.7143C53.4055 29.7424 53.1242 29.7987 52.8429 29.8549C52.7866 29.8549 52.7585 29.8831 52.7022 29.8831C52.646 29.8831 52.5897 29.9112 52.5334 29.9112C52.3084 29.9675 52.1115 29.9956 51.8864 30.08C51.4925 30.1925 51.0987 30.3332 50.7611 30.4739C50.1703 30.727 49.6077 31.0365 49.045 31.3741L36.0198 39.9263C36.5543 39.5606 37.1451 39.2511 37.7358 39.0261C37.7358 39.0261 37.7358 39.0261 37.764 39.0261C38.3266 38.801 38.9174 38.6041 39.5082 38.4916C39.5644 38.4916 39.6207 38.4634 39.677 38.4634C40.2959 38.3228 40.9429 38.2384 41.6181 38.2102C41.6462 38.2102 41.6462 38.2102 41.6744 38.2102C42.3495 38.1821 43.081 38.2102 43.8124 38.2946C44.2625 38.3509 44.7127 38.4072 45.1346 38.4916C45.1628 38.4916 45.219 38.5197 45.2472 38.5197C45.6129 38.6041 45.9786 38.6885 46.3443 38.801C46.4006 38.8291 46.4569 38.8291 46.5131 38.8573C46.8788 38.9698 47.2446 39.0823 47.6103 39.223C47.6947 39.2511 47.7509 39.2793 47.8353 39.3074C48.2011 39.4481 48.5387 39.6168 48.9044 39.7856C48.9325 39.8138 48.9888 39.8138 49.0169 39.8419C49.3264 40.0107 49.6077 40.1795 49.9171 40.3483C50.0297 40.4046 50.1422 40.489 50.2266 40.5452C50.4235 40.6859 50.6486 40.8265 50.8455 40.9953C51.0143 41.1079 51.155 41.2204 51.3237 41.3611C51.4363 41.4454 51.5488 41.558 51.6613 41.6705C52.1677 42.1206 52.6741 42.5989 53.1523 43.1334C53.4618 43.471 53.7431 43.8086 53.9963 44.1743C54.0807 44.2868 54.1651 44.3993 54.2495 44.54C54.4183 44.7651 54.5871 45.0183 54.7278 45.2433C55.0653 45.7778 55.3467 46.3123 55.5999 46.875C55.6843 47.0438 55.7687 47.2407 55.8249 47.4095C55.9093 47.5783 55.9656 47.7752 56.05 47.944C56.1625 48.2253 56.2469 48.4785 56.3313 48.7598C56.3594 48.8442 56.3876 48.9568 56.4157 49.0412C56.5282 49.4069 56.6126 49.8007 56.6689 50.1946C56.697 50.279 56.697 50.3634 56.697 50.4478C56.7533 50.7854 56.8095 51.1511 56.8377 51.5168C56.8377 51.5731 56.8658 51.6293 56.8658 51.7137C56.8939 52.1639 56.9221 52.5858 56.9221 53.036C56.9221 53.9362 56.8658 54.8083 56.7252 55.6241C56.7252 55.6804 56.697 55.7367 56.697 55.7929C56.6408 56.1586 56.5564 56.5244 56.4438 56.862C56.4438 56.862 56.4157 56.9182 56.4157 56.9745C56.3032 57.3402 56.1906 57.6778 56.0781 58.0154C56.05 58.0435 56.05 58.0998 56.0218 58.1279C55.9093 58.4092 55.7687 58.6906 55.628 58.9719C55.5717 59.0844 55.5155 59.1969 55.4592 59.2813C55.3467 59.4783 55.2341 59.6752 55.1216 59.844C55.0091 60.0128 54.8966 60.1816 54.784 60.3222C54.6996 60.4348 54.6152 60.5473 54.5308 60.6598C54.1651 61.1381 53.7713 61.5882 53.3211 62.0102C52.8429 62.4603 52.3365 62.8541 51.802 63.2199L64.7991 54.6958C65.3336 54.3582 65.84 53.9362 66.3183 53.4861C66.7684 53.0641 67.1622 52.614 67.528 52.1357C67.5561 52.0795 67.6124 52.0232 67.6686 51.9669C67.7249 51.9107 67.753 51.8544 67.7811 51.77C67.8937 51.6012 68.0062 51.4324 68.1187 51.2636C68.175 51.1511 68.2594 51.0667 68.3438 50.9542C68.4001 50.8698 68.4282 50.7854 68.4845 50.701C68.5407 50.5884 68.597 50.4759 68.6532 50.3915C68.7095 50.3071 68.7376 50.2227 68.7939 50.1383C68.8783 49.9414 68.9627 49.7445 69.0471 49.5476C69.0752 49.5194 69.0752 49.4632 69.1034 49.435C69.1034 49.435 69.1034 49.4069 69.1315 49.4069C69.2159 49.1818 69.3003 48.9286 69.3847 48.7036C69.4128 48.6192 69.441 48.5067 69.4691 48.4223C69.4972 48.366 69.4972 48.2816 69.5254 48.2253C69.5535 48.1409 69.5816 48.0847 69.5816 48.0003C69.6379 47.7752 69.6941 47.522 69.7504 47.297C69.7504 47.2407 69.7785 47.2126 69.7785 47.1563C69.7785 47.1 69.8067 47.0438 69.8067 46.9594C69.8348 46.8187 69.8629 46.6781 69.8629 46.5374C69.8911 46.2842 69.9192 46.031 69.9473 45.7497C69.9755 45.4684 69.9755 45.187 69.9755 44.9057C69.9755 44.7369 69.9755 44.54 69.9755 44.3712C69.9473 44.3149 69.9192 44.1743 69.9192 44.0618Z" fill="#858585"/>
<path d="M69.9192 44.0618C69.9192 43.7523 69.8911 43.471 69.8629 43.1615C69.8629 43.1334 69.8629 43.1053 69.8629 43.0771C69.8629 43.0209 69.8348 42.9646 69.8348 42.8802C69.8067 42.6833 69.8067 42.4863 69.7785 42.2894C69.7504 42.1206 69.7223 41.98 69.6941 41.8112C69.666 41.7268 69.666 41.6424 69.666 41.558C69.666 41.5017 69.6379 41.4454 69.6379 41.4173C69.5816 41.1079 69.4972 40.8265 69.441 40.5171C69.441 40.489 69.4128 40.4608 69.4128 40.4046C69.3847 40.3202 69.3566 40.2076 69.3284 40.1232C69.2722 39.9263 69.2159 39.7294 69.1596 39.5606C69.1315 39.4762 69.1034 39.3918 69.0752 39.3074C69.019 39.1386 68.9346 38.9417 68.8502 38.7729C68.7939 38.6604 68.7658 38.5197 68.7095 38.4072C68.6814 38.3509 68.6532 38.2946 68.6251 38.2384C68.3719 37.6757 68.0625 37.1412 67.753 36.6067C67.753 36.5786 67.7249 36.5504 67.7249 36.5504C67.5842 36.3254 67.4436 36.1284 67.2748 35.9034C67.1904 35.7909 67.106 35.6783 67.0216 35.5377C66.7684 35.1719 66.4871 34.8344 66.1776 34.4968C65.6994 33.9623 65.193 33.484 64.6866 33.0339C64.6303 32.9776 64.5741 32.9214 64.5178 32.8651C64.4615 32.8088 64.4053 32.7807 64.349 32.7244C64.2083 32.6119 64.0396 32.4712 63.8708 32.3587C63.7582 32.2743 63.6457 32.1618 63.505 32.0774C63.4206 32.0211 63.3362 31.9649 63.2518 31.9086C63.1393 31.8242 63.0268 31.7679 62.9424 31.7117C62.858 31.6554 62.7736 31.5991 62.6892 31.5429C62.4923 31.4304 62.2672 31.3178 62.0703 31.2053C62.0422 31.1772 61.9859 31.1772 61.9578 31.149C61.9578 31.149 61.9296 31.149 61.9296 31.1209C61.6764 31.0084 61.4514 30.8677 61.1982 30.7833C61.1138 30.7552 61.0013 30.6989 60.9169 30.6708C60.8325 30.6426 60.7762 30.6145 60.6918 30.5864C60.6074 30.5582 60.5511 30.5301 60.4667 30.502C60.2136 30.4176 59.9885 30.3332 59.7353 30.2488C59.7072 30.2488 59.6509 30.2207 59.6228 30.2207C59.5665 30.1925 59.5103 30.1925 59.454 30.1644C59.3133 30.1081 59.1445 30.08 59.0039 30.0237C58.7788 29.9675 58.5819 29.9393 58.3568 29.8831C58.3287 29.8831 58.2724 29.8549 58.2443 29.8549C58.1036 29.9112 58.1036 29.9112 58.0755 29.9112C57.7942 29.8549 57.5129 29.7987 57.2034 29.7705C57.0627 29.7424 56.9221 29.7424 56.7814 29.7143C56.6126 29.6861 56.4438 29.6861 56.275 29.658C55.9937 29.658 55.7124 29.6299 55.4029 29.6299C55.1497 29.6299 54.8966 29.6299 54.6715 29.6299C54.6434 29.6299 54.6434 29.6299 54.6152 29.6299C54.5871 29.6299 54.5871 29.6299 54.559 29.6299C54.2776 29.658 53.9963 29.658 53.715 29.7143C53.4055 29.7424 53.1242 29.7987 52.8429 29.8549C52.7866 29.8549 52.7585 29.8831 52.7022 29.8831C52.646 29.8831 52.5897 29.9112 52.5334 29.9112C52.3084 29.9675 52.1115 29.9956 51.8864 30.08C51.4925 30.1925 51.0987 30.3332 50.7611 30.4739C50.1703 30.727 49.6077 31.0365 49.045 31.3741L36.0198 39.9263C36.5543 39.5606 37.1451 39.2511 37.7358 39.0261C37.7358 39.0261 37.7358 39.0261 37.764 39.0261C38.3266 38.801 38.9174 38.6041 39.5082 38.4916C39.5644 38.4916 39.6207 38.4634 39.677 38.4634C40.2959 38.3228 40.9429 38.2384 41.6181 38.2102C41.6462 38.2102 41.6462 38.2102 41.6744 38.2102C42.3495 38.1821 43.081 38.2102 43.8124 38.2946C44.2625 38.3509 44.7127 38.4072 45.1346 38.4916C45.1628 38.4916 45.219 38.5197 45.2472 38.5197C45.6129 38.6041 45.9786 38.6885 46.3443 38.801C46.4006 38.8291 46.4569 38.8291 46.5131 38.8573C46.8788 38.9698 47.2446 39.0823 47.6103 39.223C47.6947 39.2511 47.7509 39.2793 47.8353 39.3074C48.2011 39.4481 48.5387 39.6168 48.9044 39.7856C48.9325 39.8138 48.9888 39.8138 49.0169 39.8419C49.3264 40.0107 49.6077 40.1795 49.9171 40.3483C50.0297 40.4046 50.1422 40.489 50.2266 40.5452C50.4235 40.6859 50.6486 40.8265 50.8455 40.9953C51.0143 41.1079 51.155 41.2204 51.3237 41.3611C51.4363 41.4454 51.5488 41.558 51.6613 41.6705C52.1677 42.1206 52.6741 42.5989 53.1523 43.1334C53.4618 43.471 53.7431 43.8086 53.9963 44.1743C54.0807 44.2868 54.1651 44.3993 54.2495 44.54C54.4183 44.7651 54.5871 45.0183 54.7278 45.2433C55.0653 45.7778 55.3467 46.3123 55.5999 46.875C55.6843 47.0438 55.7687 47.2407 55.8249 47.4095C55.9093 47.5783 55.9656 47.7752 56.05 47.944C56.1625 48.2253 56.2469 48.4785 56.3313 48.7598C56.3594 48.8442 56.3876 48.9568 56.4157 49.0412C56.5282 49.4069 56.6126 49.8007 56.6689 50.1946C56.697 50.279 56.697 50.3634 56.697 50.4478C56.7533 50.7854 56.8095 51.1511 56.8377 51.5168C56.8377 51.5731 56.8658 51.6293 56.8658 51.7137C56.8939 52.1639 56.9221 52.5858 56.9221 53.036C56.9221 53.9362 56.8658 54.8083 56.7252 55.6241C56.7252 55.6804 56.697 55.7367 56.697 55.7929C56.6408 56.1586 56.5564 56.5244 56.4438 56.862C56.4438 56.862 56.4157 56.9182 56.4157 56.9745C56.3032 57.3402 56.1906 57.6778 56.0781 58.0154C56.05 58.0435 56.05 58.0998 56.0218 58.1279C55.9093 58.4092 55.7687 58.6906 55.628 58.9719C55.5717 59.0844 55.5155 59.1969 55.4592 59.2813C55.3467 59.4783 55.2341 59.6752 55.1216 59.844C55.0091 60.0128 54.8966 60.1816 54.784 60.3222C54.6996 60.4348 54.6152 60.5473 54.5308 60.6598C54.1651 61.1381 53.7713 61.5882 53.3211 62.0102C52.8429 62.4603 52.3365 62.8541 51.802 63.2199L64.7991 54.6958C65.3336 54.3582 65.84 53.9362 66.3183 53.4861C66.7684 53.0641 67.1622 52.614 67.528 52.1357C67.5561 52.0795 67.6124 52.0232 67.6686 51.9669C67.7249 51.9107 67.753 51.8544 67.7811 51.77C67.8937 51.6012 68.0062 51.4324 68.1187 51.2636C68.175 51.1511 68.2594 51.0667 68.3438 50.9542C68.4001 50.8698 68.4282 50.7854 68.4845 50.701C68.5407 50.5884 68.597 50.4759 68.6532 50.3915C68.7095 50.3071 68.7376 50.2227 68.7939 50.1383C68.8783 49.9414 68.9627 49.7445 69.0471 49.5476C69.0752 49.5194 69.0752 49.4632 69.1034 49.435C69.1034 49.435 69.1034 49.4069 69.1315 49.4069C69.2159 49.1818 69.3003 48.9286 69.3847 48.7036C69.4128 48.6192 69.441 48.5067 69.4691 48.4223C69.4972 48.366 69.4972 48.2816 69.5254 48.2253C69.5535 48.1409 69.5816 48.0847 69.5816 48.0003C69.6379 47.7752 69.6941 47.522 69.7504 47.297C69.7504 47.2407 69.7785 47.2126 69.7785 47.1563C69.7785 47.1 69.8067 47.0438 69.8067 46.9594C69.8348 46.8187 69.8629 46.6781 69.8629 46.5374C69.8911 46.2842 69.9192 46.031 69.9473 45.7497C69.9755 45.4684 69.9755 45.187 69.9755 44.9057C69.9755 44.7369 69.9755 44.54 69.9755 44.3712C69.9473 44.3149 69.9192 44.1743 69.9192 44.0618Z" fill="url(#paint0_linear)"/>
<circle cx="44.3192" cy="51.574" r="8.72101" fill="#C4C4C4"/>
<circle cx="44.3192" cy="51.574" r="8.72101" fill="url(#paint1_linear)"/>
<circle cx="44.3192" cy="51.574" r="8.72101" fill="#6239DA" fill-opacity="0.3"/>
<path d="M53.2931 62.0669C50.8456 64.3738 47.7511 65.3303 44.0376 64.9364C40.3241 64.5426 37.2015 62.9109 34.6414 60.0695C32.1095 57.2 30.8436 53.9086 30.8154 50.1951C30.7873 46.4816 31.997 43.4433 34.4726 41.1365C36.9483 38.8296 40.0709 37.845 43.7844 38.2389C47.4979 38.6327 50.5924 40.2363 53.1243 43.0495C55.6281 45.8627 56.8941 49.1542 56.9503 52.9239C56.9785 56.7218 55.7406 59.7601 53.2931 62.0669ZM40.4085 54.8932C41.3369 55.9903 42.4622 56.6093 43.8688 56.7499C45.2754 56.8906 46.4007 56.5249 47.3291 55.6246C48.2575 54.7244 48.7076 53.5428 48.6794 52.08C48.6794 50.6171 48.2012 49.3793 47.2447 48.2821C46.2882 47.2131 45.1348 46.5942 43.7563 46.4535C42.3778 46.3128 41.2244 46.6785 40.3241 47.5507C39.4239 48.4228 39.0019 49.6043 39.0019 51.0391C39.0582 52.5019 39.5083 53.796 40.4085 54.8932Z" fill="#F8FAFB"/>
<circle cx="70.7635" cy="86.1766" r="8.72101" fill="#C4C4C4"/>
<circle cx="70.7635" cy="86.1766" r="8.72101" fill="url(#paint2_linear)"/>
<circle cx="70.7635" cy="86.1766" r="8.72101" fill="#6239DA" fill-opacity="0.3"/>
<path d="M79.9066 77.5958C82.4104 80.4372 83.6763 83.7286 83.7326 87.4421C83.7607 91.1556 82.551 94.1938 80.1035 96.5007C77.656 98.8357 74.5614 99.7922 70.848 99.3983C67.1345 99.0045 64.0118 97.3728 61.5081 94.5314C59.0043 91.6901 57.7383 88.3986 57.7102 84.6851C57.6821 80.9717 58.8918 77.9334 61.3393 75.5984C63.7868 73.2915 66.8813 72.3069 70.5948 72.7008C74.2801 73.1228 77.4028 74.7544 79.9066 77.5958ZM74.1676 90.0865C75.0397 89.1582 75.4898 88.0047 75.4898 86.5981C75.4898 85.1353 75.0116 83.8693 74.1113 82.8003C73.183 81.7031 72.0295 81.0842 70.6511 80.9435C69.2726 80.8029 68.1191 81.1686 67.2189 82.0688C66.3187 82.9691 65.8967 84.1506 65.8967 85.5854C65.8967 87.0482 66.3749 88.3142 67.2752 89.4114C68.2035 90.5085 69.3288 91.1274 70.7355 91.2681C72.1421 91.4088 73.2674 91.0149 74.1676 90.0865Z" fill="#F8FAFB"/>
<path d="M96.4197 78.8617C96.4197 78.5803 96.3915 78.2709 96.3634 77.9896C96.3634 77.9614 96.3634 77.9333 96.3634 77.877C96.3634 77.8208 96.3353 77.7364 96.3353 77.6801C96.3071 77.4832 96.3071 77.3144 96.279 77.1175C96.2509 76.9487 96.2227 76.7799 96.1946 76.6392C96.1946 76.5548 96.1665 76.4986 96.1665 76.4142C96.1665 76.3579 96.1665 76.3298 96.1383 76.2735C96.0821 75.964 95.9977 75.6827 95.9414 75.3733C95.9414 75.3451 95.9133 75.2889 95.9133 75.2607C95.8851 75.1482 95.857 75.0638 95.8289 74.9513C95.7726 74.7544 95.7163 74.5856 95.6601 74.3886C95.632 74.3042 95.6038 74.2198 95.5476 74.1354C95.4913 73.9385 95.4069 73.7697 95.3225 73.6009C95.2662 73.4884 95.2381 73.3477 95.1818 73.2352C95.1537 73.1789 95.1256 73.1227 95.0974 73.0664C94.8442 72.5038 94.5348 71.9411 94.1972 71.4066C94.1691 71.3785 94.1691 71.3503 94.1691 71.3222C94.0284 71.0972 93.8877 70.9002 93.7471 70.7033C93.6627 70.5908 93.5783 70.4782 93.4939 70.3657C93.2407 70 92.9594 69.6624 92.6499 69.3248L92.6218 69.2967L92.5937 69.2686C92.1435 68.7622 91.6372 68.2839 91.1308 67.8338C91.0745 67.7775 91.0183 67.7213 90.962 67.665C90.9057 67.6087 90.8495 67.5806 90.7932 67.5525C90.6525 67.44 90.4837 67.2993 90.3149 67.1868C90.2024 67.1024 90.0618 66.9898 89.9492 66.9054C89.8648 66.8492 89.7804 66.7929 89.7242 66.7648C89.6116 66.7085 89.5272 66.6241 89.4147 66.5679C89.3303 66.5116 89.2178 66.4272 89.1334 66.3709C88.9365 66.2584 88.7395 66.1459 88.5707 66.0615C88.5145 66.0333 88.4863 66.0052 88.4301 65.9771C88.4019 65.9771 88.402 65.9489 88.3738 65.9489C88.1206 65.8364 87.8956 65.7239 87.6424 65.6114C87.558 65.5832 87.4736 65.527 87.3892 65.4988C87.3048 65.4707 87.2485 65.4426 87.1641 65.4144C87.0797 65.3863 86.9953 65.3582 86.9109 65.3019C86.6577 65.2175 86.4327 65.1331 86.1795 65.0487C86.1514 65.0487 86.0951 65.0206 86.067 65.0206C86.0107 64.9924 85.9544 64.9924 85.8982 64.9643C85.7294 64.908 85.5887 64.8799 85.4199 64.8237C85.223 64.7674 84.9979 64.7393 84.801 64.683C84.7729 64.683 84.7166 64.6549 84.6885 64.6549C84.6604 64.6549 84.6604 64.6549 84.6322 64.6549C84.3509 64.5986 84.0696 64.5423 83.7601 64.5142C83.6195 64.4861 83.4788 64.4861 83.3381 64.4579C83.1693 64.4298 83.0005 64.4298 82.8318 64.4017C82.5223 64.3735 82.241 64.3735 81.9597 64.3735C81.7065 64.3735 81.4814 64.3735 81.2282 64.3735C81.2001 64.3735 81.1719 64.3735 81.1719 64.3735C81.1438 64.3735 81.1157 64.3735 81.1157 64.3735C80.8344 64.3735 80.553 64.4017 80.2717 64.4579C79.9623 64.4861 79.6809 64.5423 79.3996 64.5986C79.3433 64.5986 79.3152 64.6267 79.2589 64.6267C79.2027 64.6267 79.1464 64.6549 79.0902 64.6549C78.8651 64.7111 78.64 64.7393 78.4431 64.8237C78.0774 64.9362 77.7117 65.0487 77.3741 65.1894H77.346C76.7552 65.4426 76.1925 65.7239 75.658 66.0896L62.6609 74.6137C63.1954 74.248 63.758 73.9667 64.3488 73.7135H64.377C64.9396 73.4884 65.5023 73.3196 66.093 73.1789C66.1493 73.1789 66.2056 73.1508 66.2618 73.1508C66.8807 73.0102 67.5278 72.9258 68.1748 72.8976C68.203 72.8976 68.2311 72.8976 68.2592 72.8976C68.9344 72.8695 69.6377 72.8976 70.3691 72.9539C70.8193 73.0102 71.2694 73.0664 71.6914 73.1508C71.7195 73.1508 71.7758 73.1789 71.8039 73.1789C72.1696 73.2633 72.5353 73.3477 72.9011 73.4603C72.9573 73.4884 73.0136 73.4884 73.0698 73.5165C73.4356 73.6291 73.8013 73.7416 74.167 73.8823C74.2514 73.9104 74.3077 73.9385 74.3921 73.9667C74.7578 74.1073 75.0954 74.2761 75.433 74.4449C75.4892 74.473 75.5174 74.5012 75.5736 74.5293C75.8549 74.6981 76.1644 74.8669 76.4457 75.0357C76.5582 75.0919 76.6708 75.1763 76.7552 75.2326C76.9521 75.3733 77.1772 75.5139 77.3741 75.6827C77.5429 75.7952 77.6835 75.9078 77.8523 76.0484C77.9649 76.1328 78.0774 76.2454 78.1899 76.3298C78.6963 76.7799 79.1746 77.23 79.6528 77.7645C79.6809 77.7926 79.7091 77.8208 79.7091 77.8208C80.0185 78.1584 80.2998 78.5241 80.553 78.8617C80.6374 78.9742 80.7218 79.0867 80.8062 79.2274C80.975 79.4525 81.1157 79.6775 81.2845 79.9307C81.6221 80.4652 81.9315 81.0279 82.1847 81.5905C82.2691 81.7593 82.3535 81.9281 82.4098 82.125C82.4942 82.2938 82.5504 82.4907 82.6348 82.6877C82.7192 82.9409 82.8318 83.2222 82.888 83.4754C82.9162 83.5879 82.9443 83.6723 82.9724 83.7848C83.0849 84.1505 83.1693 84.5444 83.2256 84.9101C83.2537 84.9945 83.2537 85.0789 83.2537 85.1352C83.31 85.4728 83.3663 85.8385 83.3944 86.1761C83.3944 86.2323 83.4225 86.3167 83.4225 86.373C83.4507 86.795 83.4788 87.2451 83.4788 87.6952C83.4788 88.1735 83.4788 88.6236 83.4225 89.0456V89.0737C83.3944 89.4676 83.3381 89.8614 83.2819 90.2553C83.2819 90.3115 83.2537 90.3678 83.2537 90.4241C83.1975 90.7898 83.1131 91.1555 83.0005 91.4931C82.9724 91.5493 82.9724 91.6337 82.9443 91.69C82.8318 92.0276 82.7192 92.3933 82.6067 92.7309C82.5786 92.7872 82.5786 92.8153 82.5504 92.8716C82.4379 93.1529 82.2972 93.4342 82.1566 93.6874C82.1003 93.7999 82.044 93.9125 81.9878 93.9969C81.8753 94.1938 81.7627 94.3626 81.6502 94.5595C81.5377 94.7283 81.4251 94.8971 81.3126 95.0659C81.2282 95.1784 81.1438 95.2909 81.0313 95.4035C80.6656 95.8817 80.2717 96.3318 79.8216 96.7538C79.3152 97.2321 78.7807 97.6541 78.2462 98.0198L91.2433 89.4957C91.806 89.13 92.3123 88.708 92.8187 88.2297C93.2688 87.8077 93.6627 87.3576 94.0284 86.8794C94.0847 86.8231 94.1409 86.7668 94.1691 86.7106C94.2253 86.6543 94.2535 86.5699 94.3097 86.5137C94.4223 86.3449 94.5348 86.1761 94.6473 86.0073C94.7036 85.8947 94.788 85.8104 94.8442 85.6978C94.9005 85.6134 94.9286 85.529 94.9849 85.4446C95.0412 85.3321 95.0974 85.2196 95.1537 85.1352C95.21 85.0508 95.2381 84.9664 95.2944 84.882C95.3788 84.6851 95.4632 84.5163 95.5476 84.3193C95.5757 84.2631 95.5757 84.2349 95.6038 84.1787C95.6038 84.1505 95.632 84.1505 95.632 84.1224C95.7163 83.8974 95.8007 83.6442 95.8851 83.4191C95.9133 83.3347 95.9414 83.2503 95.9695 83.1659C95.9977 83.1097 95.9977 83.0253 96.0258 82.969C96.0539 82.8846 96.0821 82.8002 96.0821 82.7439C96.1383 82.5189 96.1946 82.2657 96.2509 82.0406C96.2509 82.0125 96.2509 81.9562 96.279 81.9281C96.279 81.8718 96.3071 81.8156 96.3071 81.7593C96.3353 81.6186 96.3634 81.478 96.3634 81.3373C96.3915 81.1123 96.4197 80.8591 96.4478 80.6059V80.5777C96.4759 80.2964 96.4759 80.0432 96.4759 79.7619C96.4759 79.5931 96.4759 79.3962 96.4759 79.2274C96.4197 79.0867 96.4197 78.9742 96.4197 78.8617Z" fill="#858585"/>
<path d="M96.4197 78.8617C96.4197 78.5803 96.3915 78.2709 96.3634 77.9896C96.3634 77.9614 96.3634 77.9333 96.3634 77.877C96.3634 77.8208 96.3353 77.7364 96.3353 77.6801C96.3071 77.4832 96.3071 77.3144 96.279 77.1175C96.2509 76.9487 96.2227 76.7799 96.1946 76.6392C96.1946 76.5548 96.1665 76.4986 96.1665 76.4142C96.1665 76.3579 96.1665 76.3298 96.1383 76.2735C96.0821 75.964 95.9977 75.6827 95.9414 75.3733C95.9414 75.3451 95.9133 75.2889 95.9133 75.2607C95.8851 75.1482 95.857 75.0638 95.8289 74.9513C95.7726 74.7544 95.7163 74.5856 95.6601 74.3886C95.632 74.3042 95.6038 74.2198 95.5476 74.1354C95.4913 73.9385 95.4069 73.7697 95.3225 73.6009C95.2662 73.4884 95.2381 73.3477 95.1818 73.2352C95.1537 73.1789 95.1256 73.1227 95.0974 73.0664C94.8442 72.5038 94.5348 71.9411 94.1972 71.4066C94.1691 71.3785 94.1691 71.3503 94.1691 71.3222C94.0284 71.0972 93.8877 70.9002 93.7471 70.7033C93.6627 70.5908 93.5783 70.4782 93.4939 70.3657C93.2407 70 92.9594 69.6624 92.6499 69.3248L92.6218 69.2967L92.5937 69.2686C92.1435 68.7622 91.6372 68.2839 91.1308 67.8338C91.0745 67.7775 91.0183 67.7213 90.962 67.665C90.9057 67.6087 90.8495 67.5806 90.7932 67.5525C90.6525 67.44 90.4837 67.2993 90.3149 67.1868C90.2024 67.1024 90.0618 66.9898 89.9492 66.9054C89.8648 66.8492 89.7804 66.7929 89.7242 66.7648C89.6116 66.7085 89.5272 66.6241 89.4147 66.5679C89.3303 66.5116 89.2178 66.4272 89.1334 66.3709C88.9365 66.2584 88.7395 66.1459 88.5707 66.0615C88.5145 66.0333 88.4863 66.0052 88.4301 65.9771C88.4019 65.9771 88.402 65.9489 88.3738 65.9489C88.1206 65.8364 87.8956 65.7239 87.6424 65.6114C87.558 65.5832 87.4736 65.527 87.3892 65.4988C87.3048 65.4707 87.2485 65.4426 87.1641 65.4144C87.0797 65.3863 86.9953 65.3582 86.9109 65.3019C86.6577 65.2175 86.4327 65.1331 86.1795 65.0487C86.1514 65.0487 86.0951 65.0206 86.067 65.0206C86.0107 64.9924 85.9544 64.9924 85.8982 64.9643C85.7294 64.908 85.5887 64.8799 85.4199 64.8237C85.223 64.7674 84.9979 64.7393 84.801 64.683C84.7729 64.683 84.7166 64.6549 84.6885 64.6549C84.6604 64.6549 84.6604 64.6549 84.6322 64.6549C84.3509 64.5986 84.0696 64.5423 83.7601 64.5142C83.6195 64.4861 83.4788 64.4861 83.3381 64.4579C83.1693 64.4298 83.0005 64.4298 82.8318 64.4017C82.5223 64.3735 82.241 64.3735 81.9597 64.3735C81.7065 64.3735 81.4814 64.3735 81.2282 64.3735C81.2001 64.3735 81.1719 64.3735 81.1719 64.3735C81.1438 64.3735 81.1157 64.3735 81.1157 64.3735C80.8344 64.3735 80.553 64.4017 80.2717 64.4579C79.9623 64.4861 79.6809 64.5423 79.3996 64.5986C79.3433 64.5986 79.3152 64.6267 79.2589 64.6267C79.2027 64.6267 79.1464 64.6549 79.0902 64.6549C78.8651 64.7111 78.64 64.7393 78.4431 64.8237C78.0774 64.9362 77.7117 65.0487 77.3741 65.1894H77.346C76.7552 65.4426 76.1925 65.7239 75.658 66.0896L62.6609 74.6137C63.1954 74.248 63.758 73.9667 64.3488 73.7135H64.377C64.9396 73.4884 65.5023 73.3196 66.093 73.1789C66.1493 73.1789 66.2056 73.1508 66.2618 73.1508C66.8807 73.0102 67.5278 72.9258 68.1748 72.8976C68.203 72.8976 68.2311 72.8976 68.2592 72.8976C68.9344 72.8695 69.6377 72.8976 70.3691 72.9539C70.8193 73.0102 71.2694 73.0664 71.6914 73.1508C71.7195 73.1508 71.7758 73.1789 71.8039 73.1789C72.1696 73.2633 72.5353 73.3477 72.9011 73.4603C72.9573 73.4884 73.0136 73.4884 73.0698 73.5165C73.4356 73.6291 73.8013 73.7416 74.167 73.8823C74.2514 73.9104 74.3077 73.9385 74.3921 73.9667C74.7578 74.1073 75.0954 74.2761 75.433 74.4449C75.4892 74.473 75.5174 74.5012 75.5736 74.5293C75.8549 74.6981 76.1644 74.8669 76.4457 75.0357C76.5582 75.0919 76.6708 75.1763 76.7552 75.2326C76.9521 75.3733 77.1772 75.5139 77.3741 75.6827C77.5429 75.7952 77.6835 75.9078 77.8523 76.0484C77.9649 76.1328 78.0774 76.2454 78.1899 76.3298C78.6963 76.7799 79.1746 77.23 79.6528 77.7645C79.6809 77.7926 79.7091 77.8208 79.7091 77.8208C80.0185 78.1584 80.2998 78.5241 80.553 78.8617C80.6374 78.9742 80.7218 79.0867 80.8062 79.2274C80.975 79.4525 81.1157 79.6775 81.2845 79.9307C81.6221 80.4652 81.9315 81.0279 82.1847 81.5905C82.2691 81.7593 82.3535 81.9281 82.4098 82.125C82.4942 82.2938 82.5504 82.4907 82.6348 82.6877C82.7192 82.9409 82.8318 83.2222 82.888 83.4754C82.9162 83.5879 82.9443 83.6723 82.9724 83.7848C83.0849 84.1505 83.1693 84.5444 83.2256 84.9101C83.2537 84.9945 83.2537 85.0789 83.2537 85.1352C83.31 85.4728 83.3663 85.8385 83.3944 86.1761C83.3944 86.2323 83.4225 86.3167 83.4225 86.373C83.4507 86.795 83.4788 87.2451 83.4788 87.6952C83.4788 88.1735 83.4788 88.6236 83.4225 89.0456V89.0737C83.3944 89.4676 83.3381 89.8614 83.2819 90.2553C83.2819 90.3115 83.2537 90.3678 83.2537 90.4241C83.1975 90.7898 83.1131 91.1555 83.0005 91.4931C82.9724 91.5493 82.9724 91.6337 82.9443 91.69C82.8318 92.0276 82.7192 92.3933 82.6067 92.7309C82.5786 92.7872 82.5786 92.8153 82.5504 92.8716C82.4379 93.1529 82.2972 93.4342 82.1566 93.6874C82.1003 93.7999 82.044 93.9125 81.9878 93.9969C81.8753 94.1938 81.7627 94.3626 81.6502 94.5595C81.5377 94.7283 81.4251 94.8971 81.3126 95.0659C81.2282 95.1784 81.1438 95.2909 81.0313 95.4035C80.6656 95.8817 80.2717 96.3318 79.8216 96.7538C79.3152 97.2321 78.7807 97.6541 78.2462 98.0198L91.2433 89.4957C91.806 89.13 92.3123 88.708 92.8187 88.2297C93.2688 87.8077 93.6627 87.3576 94.0284 86.8794C94.0847 86.8231 94.1409 86.7668 94.1691 86.7106C94.2253 86.6543 94.2535 86.5699 94.3097 86.5137C94.4223 86.3449 94.5348 86.1761 94.6473 86.0073C94.7036 85.8947 94.788 85.8104 94.8442 85.6978C94.9005 85.6134 94.9286 85.529 94.9849 85.4446C95.0412 85.3321 95.0974 85.2196 95.1537 85.1352C95.21 85.0508 95.2381 84.9664 95.2944 84.882C95.3788 84.6851 95.4632 84.5163 95.5476 84.3193C95.5757 84.2631 95.5757 84.2349 95.6038 84.1787C95.6038 84.1505 95.632 84.1505 95.632 84.1224C95.7163 83.8974 95.8007 83.6442 95.8851 83.4191C95.9133 83.3347 95.9414 83.2503 95.9695 83.1659C95.9977 83.1097 95.9977 83.0253 96.0258 82.969C96.0539 82.8846 96.0821 82.8002 96.0821 82.7439C96.1383 82.5189 96.1946 82.2657 96.2509 82.0406C96.2509 82.0125 96.2509 81.9562 96.279 81.9281C96.279 81.8718 96.3071 81.8156 96.3071 81.7593C96.3353 81.6186 96.3634 81.478 96.3634 81.3373C96.3915 81.1123 96.4197 80.8591 96.4478 80.6059V80.5777C96.4759 80.2964 96.4759 80.0432 96.4759 79.7619C96.4759 79.5931 96.4759 79.3962 96.4759 79.2274C96.4197 79.0867 96.4197 78.9742 96.4197 78.8617Z" fill="url(#paint3_linear)"/>
<path d="M71.6071 49.3223L76.3615 52.5575L41.3086 89.9453L36.6387 86.5976L71.6071 49.3223Z" fill="#F8FAFB"/>
<path d="M76.3617 52.5573L89.3588 44.0332L54.3341 81.421L41.3088 89.9451L76.3617 52.5573Z" fill="#838383"/>
<path d="M76.3617 52.5573L89.3588 44.0332L54.3341 81.421L41.3088 89.9451L76.3617 52.5573Z" fill="#9494CC"/>
<path d="M71.6072 49.3224L84.6043 40.7983L89.3587 44.0336L76.3615 52.5576L71.6072 49.3224Z" fill="#E2E2E2"/>
<path d="M71.6072 49.3224L84.6043 40.7983L89.3587 44.0336L76.3615 52.5576L71.6072 49.3224Z" fill="#B9B8E8"/>
<defs>
<linearGradient id="paint0_linear" x1="52.9976" y1="29.6299" x2="67.1394" y2="66.9812" gradientUnits="userSpaceOnUse">
<stop stop-color="#9391DF"/>
<stop offset="0.333333" stop-color="#DDDDF0"/>
<stop offset="1" stop-color="#9391DF"/>
</linearGradient>
<linearGradient id="paint1_linear" x1="44.3192" y1="42.853" x2="51.7221" y2="62.1951" gradientUnits="userSpaceOnUse">
<stop stop-color="#9391DF"/>
<stop offset="0.333333" stop-color="#DDDDF0"/>
<stop offset="1" stop-color="#9391DF"/>
</linearGradient>
<linearGradient id="paint2_linear" x1="70.7635" y1="77.4556" x2="78.1664" y2="96.7976" gradientUnits="userSpaceOnUse">
<stop stop-color="#9391DF"/>
<stop offset="0.333333" stop-color="#DDDDF0"/>
<stop offset="1" stop-color="#9391DF"/>
</linearGradient>
<linearGradient id="paint3_linear" x1="79.5684" y1="64.3735" x2="93.7957" y2="101.733" gradientUnits="userSpaceOnUse">
<stop stop-color="#9391DF"/>
<stop offset="0.333333" stop-color="#DDDDF0"/>
<stop offset="1" stop-color="#9391DF"/>
</linearGradient>
</defs>
</svg>
