<svg width="1010" height="1106" viewBox="0 0 1010 1106" fill="none" xmlns="http://www.w3.org/2000/svg">
<path fill-rule="evenodd" clip-rule="evenodd" d="M750.036 737.044L508.351 609.278C505.165 607.594 501.437 607.261 498.004 608.354L247.424 688.101C246.715 688.326 246.628 689.295 247.286 689.642L482.125 813.789C489.69 817.788 498.545 818.579 506.699 815.984L749.899 738.586C750.608 738.36 750.694 737.392 750.036 737.044ZM509.919 606.31C505.938 604.206 501.277 603.789 496.986 605.155L246.406 684.902C242.861 686.03 242.428 690.871 245.717 692.61L480.556 816.756C488.917 821.177 498.705 822.051 507.717 819.183L750.917 741.784C754.462 740.656 754.894 735.815 751.605 734.077L509.919 606.31Z" fill="white"/>
<path fill-rule="evenodd" clip-rule="evenodd" d="M750.036 737.044L508.351 609.278C505.165 607.594 501.437 607.261 498.004 608.354L247.424 688.101C246.715 688.326 246.628 689.295 247.286 689.642L482.125 813.789C489.69 817.788 498.545 818.579 506.699 815.984L749.899 738.586C750.608 738.36 750.694 737.392 750.036 737.044ZM509.919 606.31C505.938 604.206 501.277 603.789 496.986 605.155L246.406 684.902C242.861 686.03 242.428 690.871 245.717 692.61L480.556 816.756C488.917 821.177 498.705 822.051 507.717 819.183L750.917 741.784C754.462 740.656 754.894 735.815 751.605 734.077L509.919 606.31Z" fill="url(#paint0_linear)" fill-opacity="0.85"/>
<g opacity="0.5">
<path fill-rule="evenodd" clip-rule="evenodd" d="M750.036 759.702L508.351 631.936C505.165 630.252 501.437 629.919 498.004 631.012L247.424 710.759C246.715 710.985 246.628 711.953 247.286 712.301L482.125 836.447C489.69 840.446 498.545 841.237 506.699 838.642L749.899 761.244C750.608 761.018 750.694 760.05 750.036 759.702ZM509.919 628.969C505.938 626.864 501.277 626.447 496.986 627.813L246.406 707.56C242.861 708.688 242.428 713.53 245.717 715.268L480.556 839.415C488.917 843.835 498.705 844.709 507.717 841.841L750.917 764.443C754.462 763.314 754.894 758.473 751.605 756.735L509.919 628.969Z" fill="white"/>
<path fill-rule="evenodd" clip-rule="evenodd" d="M750.036 759.702L508.351 631.936C505.165 630.252 501.437 629.919 498.004 631.012L247.424 710.759C246.715 710.985 246.628 711.953 247.286 712.301L482.125 836.447C489.69 840.446 498.545 841.237 506.699 838.642L749.899 761.244C750.608 761.018 750.694 760.05 750.036 759.702ZM509.919 628.969C505.938 626.864 501.277 626.447 496.986 627.813L246.406 707.56C242.861 708.688 242.428 713.53 245.717 715.268L480.556 839.415C488.917 843.835 498.705 844.709 507.717 841.841L750.917 764.443C754.462 763.314 754.894 758.473 751.605 756.735L509.919 628.969Z" fill="url(#paint1_linear)" fill-opacity="0.85"/>
</g>
<g opacity="0.2">
<path fill-rule="evenodd" clip-rule="evenodd" d="M750.036 784.038L508.351 656.272C505.165 654.588 501.437 654.255 498.004 655.348L247.424 735.095C246.715 735.321 246.628 736.289 247.286 736.636L482.125 860.783C489.69 864.782 498.545 865.573 506.699 862.978L749.899 785.58C750.608 785.354 750.694 784.386 750.036 784.038ZM509.919 653.305C505.938 651.2 501.277 650.783 496.986 652.149L246.406 731.896C242.861 733.024 242.428 737.865 245.717 739.604L480.556 863.75C488.917 868.171 498.705 869.045 507.717 866.177L750.917 788.778C754.462 787.65 754.894 782.809 751.605 781.071L509.919 653.305Z" fill="white"/>
<path fill-rule="evenodd" clip-rule="evenodd" d="M750.036 784.038L508.351 656.272C505.165 654.588 501.437 654.255 498.004 655.348L247.424 735.095C246.715 735.321 246.628 736.289 247.286 736.636L482.125 860.783C489.69 864.782 498.545 865.573 506.699 862.978L749.899 785.58C750.608 785.354 750.694 784.386 750.036 784.038ZM509.919 653.305C505.938 651.2 501.277 650.783 496.986 652.149L246.406 731.896C242.861 733.024 242.428 737.865 245.717 739.604L480.556 863.75C488.917 868.171 498.705 869.045 507.717 866.177L750.917 788.778C754.462 787.65 754.894 782.809 751.605 781.071L509.919 653.305Z" fill="url(#paint2_linear)" fill-opacity="0.85"/>
</g>
<path d="M496.986 583.122C501.277 581.756 505.938 582.172 509.919 584.277L751.605 712.043C754.894 713.782 754.462 718.623 750.917 719.751L507.717 797.149C498.705 800.018 488.917 799.143 480.556 794.723L245.717 670.577C242.428 668.838 242.861 663.997 246.406 662.869L496.986 583.122Z" fill="white"/>
<path d="M496.986 583.122C501.277 581.756 505.938 582.172 509.919 584.277L751.605 712.043C754.894 713.782 754.462 718.623 750.917 719.751L507.717 797.149C498.705 800.018 488.917 799.143 480.556 794.723L245.717 670.577C242.428 668.838 242.861 663.997 246.406 662.869L496.986 583.122Z" fill="url(#paint3_linear)" fill-opacity="0.85"/>
<g opacity="0.1">
<path d="M517.017 624.506L514.495 642.683L505.879 641.107L508.401 622.93L517.017 624.506Z" fill="#B4B4B4"/>
<path d="M517.017 624.506L514.495 642.683L505.879 641.107L508.401 622.93L517.017 624.506Z" fill="url(#paint4_linear)"/>
<path d="M517.961 630.073L515.44 648.251L495.791 644.783L498.313 626.605L517.961 630.073Z" fill="#B4B4B4"/>
<path d="M517.961 630.073L515.44 648.251L495.791 644.783L498.313 626.605L517.961 630.073Z" fill="url(#paint5_linear)"/>
<path d="M518.908 635.747L516.386 653.819L485.705 648.355L488.227 630.178L518.908 635.747Z" fill="#B4B4B4"/>
<path d="M518.908 635.747L516.386 653.819L485.705 648.355L488.227 630.178L518.908 635.747Z" fill="url(#paint6_linear)"/>
<g opacity="0.4784">
<path opacity="0.4784" d="M481.711 633.331L479.189 651.509C479.189 651.404 479.189 651.299 479.189 651.299L481.711 633.121C481.711 633.226 481.711 633.226 481.711 633.331Z" fill="#858585"/>
</g>
<path d="M481.921 634.488L479.4 652.665L479.189 651.51L481.711 633.332L481.921 634.488Z" fill="#6F4EB3"/>
<path d="M519.854 641.318L517.227 659.496L479.4 652.666L481.922 634.488L519.854 641.318Z" fill="#B4B4B4"/>
<path d="M519.854 641.318L517.227 659.496L479.4 652.666L481.922 634.488L519.854 641.318Z" fill="url(#paint7_linear)"/>
<path d="M482.867 640.162L480.346 658.235L479.82 655.082L482.342 637.01L482.867 640.162Z" fill="#6F4EB3"/>
<path d="M520.694 646.887L518.172 665.064L480.346 658.235L482.867 640.162L520.694 646.887Z" fill="#B4B4B4"/>
<path d="M520.694 646.887L518.172 665.064L480.346 658.235L482.867 640.162L520.694 646.887Z" fill="url(#paint8_linear)"/>
<path d="M483.813 645.73L481.291 663.908L480.766 660.651L483.287 642.578L483.813 645.73Z" fill="#6F4EB3"/>
<path d="M521.639 652.455L519.117 670.633L481.291 663.908L483.813 645.73L521.639 652.455Z" fill="#B4B4B4"/>
<path d="M521.639 652.455L519.117 670.633L481.291 663.908L483.813 645.73L521.639 652.455Z" fill="url(#paint9_linear)"/>
<path d="M484.758 651.299L482.236 669.476L481.711 666.324L484.233 648.146L484.758 651.299Z" fill="#6F4EB3"/>
<path d="M522.584 658.129L520.063 676.201L482.236 669.476L484.758 651.299L522.584 658.129Z" fill="#B4B4B4"/>
<path d="M522.584 658.129L520.063 676.201L482.236 669.476L484.758 651.299L522.584 658.129Z" fill="url(#paint10_linear)"/>
<path d="M485.705 656.869L483.184 675.047L482.658 671.894L485.18 653.717L485.705 656.869Z" fill="#6F4EB3"/>
<path d="M523.53 663.699L521.008 681.877L483.182 675.047L485.703 656.869L523.53 663.699Z" fill="#B4B4B4"/>
<path d="M523.53 663.699L521.008 681.877L483.182 675.047L485.703 656.869L523.53 663.699Z" fill="url(#paint11_linear)"/>
<path d="M486.651 662.543L484.129 680.615L483.604 677.463L486.125 659.391L486.651 662.543Z" fill="#6F4EB3"/>
<path opacity="0.4784" d="M487.386 667.374L484.864 685.446L484.549 683.03L487.071 664.957L487.386 667.374Z" fill="#808080"/>
<path d="M610.112 683.346C610.112 683.346 610.112 683.451 610.112 683.346C610.007 683.451 610.007 683.556 609.902 683.556C609.796 683.661 609.796 683.661 609.691 683.766C609.691 683.766 609.691 683.766 609.586 683.766C609.481 683.871 609.376 683.871 609.166 683.976L608.325 684.291L486.651 662.541L484.129 680.719L605.909 702.469L606.749 702.154C606.854 702.154 606.959 702.049 607.065 702.049C607.065 702.049 607.065 702.049 607.17 702.049C607.17 702.049 607.17 702.049 607.275 702.049C607.275 702.049 607.38 702.049 607.38 701.943C607.485 701.943 607.485 701.838 607.485 701.838L607.59 701.733L607.695 701.628V701.523V701.418L610.217 683.24C610.112 683.24 610.112 683.346 610.112 683.346Z" fill="url(#paint12_linear)"/>
<path opacity="0.4784" d="M504.512 670.422L501.99 688.6L484.863 685.448L487.385 667.375L504.512 670.422Z" fill="#B4B4B4"/>
<g opacity="0.4784">
<path opacity="0.4784" d="M508.189 671.787L505.667 689.964C505.562 689.964 505.457 689.859 505.457 689.859L507.979 671.682C507.979 671.682 508.084 671.787 508.189 671.787Z" fill="#858585"/>
<path opacity="0.4784" d="M507.875 671.682L505.353 689.86C505.143 689.755 504.933 689.65 504.723 689.545L507.244 671.367C507.455 671.367 507.665 671.472 507.875 671.682Z" fill="#8A8A8A"/>
<path opacity="0.4784" d="M507.244 671.261L504.723 689.439C504.512 689.334 504.302 689.228 504.197 689.228L506.719 671.051C506.929 671.156 507.034 671.261 507.244 671.261Z" fill="#8F8F8F"/>
<path opacity="0.4784" d="M506.719 671.052L504.197 689.23C503.987 689.125 503.882 689.125 503.672 689.019L506.194 670.842C506.299 670.947 506.509 670.947 506.719 671.052Z" fill="#949494"/>
<path opacity="0.4784" d="M506.194 670.841L503.672 689.019C503.462 688.914 503.357 688.914 503.146 688.809L505.668 670.631C505.773 670.736 505.983 670.841 506.194 670.841Z" fill="#999999"/>
<path opacity="0.4784" d="M505.668 670.736L503.146 688.808C502.936 688.808 502.831 688.703 502.621 688.703L505.143 670.525C505.248 670.63 505.458 670.63 505.668 670.736Z" fill="#9E9E9E"/>
<path opacity="0.4784" d="M505.037 670.527L502.516 688.705C502.305 688.705 502.2 688.6 501.99 688.6L504.512 670.422C504.722 670.527 504.932 670.527 505.037 670.527Z" fill="#A3A3A3"/>
</g>
<path d="M598.342 687.97L508.189 671.789L505.562 689.967L595.82 706.043L601.494 704.047L604.016 685.869L598.342 687.97Z" fill="url(#paint13_linear)"/>
<path opacity="0.4784" d="M510.291 677.568L507.77 695.746L507.244 692.594L509.766 674.416L510.291 677.568Z" fill="#808080"/>
<path d="M588.256 691.541L510.291 677.566L507.77 695.744L585.734 709.719L591.408 707.617L593.93 689.545L588.256 691.541Z" fill="url(#paint14_linear)"/>
<path opacity="0.4784" d="M511.131 682.507L508.61 700.579L508.189 698.162L510.711 680.09L511.131 682.507Z" fill="#808080"/>
<path d="M579.996 694.799C579.786 694.904 579.576 694.904 579.365 694.904C579.26 694.904 579.26 694.904 579.155 694.904C579.05 694.904 578.84 694.904 578.63 694.904C578.42 694.904 578.315 694.904 578.105 694.904C577.894 694.904 577.684 694.904 577.369 694.799L510.858 682.82L508.336 700.998L574.847 713.081C574.952 713.081 575.057 713.081 575.162 713.081C575.268 713.081 575.373 713.081 575.478 713.081C575.583 713.081 575.688 713.081 575.898 713.081H576.003C576.213 713.081 576.318 713.081 576.528 713.081C576.634 713.081 576.634 713.081 576.739 713.081C576.949 713.081 577.159 712.976 577.369 712.976L581.047 711.715L583.568 693.538L579.996 694.799Z" fill="url(#paint15_linear)"/>
<path fill-rule="evenodd" clip-rule="evenodd" d="M516.806 623.244C516.596 621.983 513.549 621.143 511.657 621.773L508.4 622.929L517.016 624.505L516.806 623.244ZM517.436 626.921L503.987 624.505L498.313 626.606L517.962 630.074L517.436 626.921ZM493.9 628.182L518.382 632.595L518.907 635.747L488.226 630.178L493.9 628.182ZM519.223 638.06L483.813 631.755L482.657 632.07C482.027 632.386 481.606 632.806 481.711 633.226L481.922 634.382L519.748 641.212L519.223 638.06ZM482.342 637.009L520.169 643.734L520.694 646.886L482.868 640.161L482.342 637.009ZM521.115 649.302L483.288 642.577L483.814 645.73L521.64 652.454L521.115 649.302ZM484.234 648.146L522.06 654.976L522.585 658.128L484.759 651.298L484.234 648.146ZM523.006 660.546L485.179 653.716L485.705 656.868L523.531 663.698L523.006 660.546ZM486.125 659.389L554.318 671.578L607.695 681.244C610.217 681.665 611.162 683.346 609.271 683.976L608.43 684.291L486.65 662.541L486.125 659.389ZM604.017 685.972L487.07 664.957L487.491 667.374L504.617 670.526C505.983 670.841 507.244 671.262 508.19 671.892L598.343 688.073L604.017 685.972ZM509.766 674.414L593.93 689.545L588.256 691.541L510.291 677.567L509.766 674.414ZM583.843 693.223L510.712 680.089L511.132 682.506L577.644 694.589C578.589 694.8 579.43 694.694 580.165 694.484L583.843 693.223Z" fill="url(#paint16_linear)"/>
<path d="M516.701 716.235C516.701 716.445 516.596 716.55 516.491 716.761C516.386 716.971 516.281 717.076 516.176 717.181C516.07 717.286 515.86 717.391 515.65 717.601C515.65 717.601 515.545 717.601 515.545 717.706C515.335 717.811 515.125 717.916 514.81 718.021L486.965 728.003C486.755 728.108 486.545 728.108 486.335 728.108C486.335 728.108 486.335 728.108 486.23 728.108C486.02 728.108 485.809 728.108 485.599 728.108H485.494C485.389 728.108 485.284 728.108 485.284 728.108C485.179 728.108 485.179 728.108 485.074 728.108H484.969C484.864 728.108 484.759 728.108 484.759 728.108H484.654C484.548 728.108 484.443 728.108 484.338 728.003C484.233 728.003 484.128 727.898 484.023 727.898H483.918C483.813 727.898 483.708 727.793 483.708 727.793H483.603C483.498 727.793 483.393 727.688 483.393 727.688H483.288C483.183 727.688 483.183 727.583 483.183 727.583C483.077 727.583 483.077 727.478 482.972 727.478C482.972 727.478 482.972 727.478 482.867 727.478C482.762 727.373 482.657 727.373 482.657 727.268C482.657 727.268 482.552 727.268 482.552 727.163C482.447 727.163 482.447 727.058 482.342 727.058L482.237 726.953C482.237 726.848 482.132 726.848 482.132 726.742V726.637C482.132 726.532 482.027 726.427 482.027 726.322L475.302 685.974C475.302 685.764 475.197 685.659 475.092 685.449C475.092 685.344 474.987 685.344 474.987 685.239C474.882 685.134 474.882 685.028 474.777 684.923C474.672 684.818 474.672 684.818 474.567 684.713C474.461 684.608 474.356 684.503 474.251 684.398C474.146 684.293 474.041 684.293 473.936 684.188C473.831 684.083 473.726 683.978 473.516 683.873C473.516 683.873 473.516 683.873 473.411 683.768C473.306 683.662 473.096 683.662 472.99 683.557C472.885 683.557 472.885 683.452 472.78 683.452C472.465 683.662 472.255 683.557 472.045 683.557C472.045 683.557 471.94 683.557 471.94 683.452C471.94 683.452 471.835 683.452 471.835 683.347C471.73 683.347 471.73 683.242 471.624 683.242C471.414 683.137 471.309 683.137 471.099 683.032H470.994C470.889 683.032 470.679 682.927 470.574 682.927C470.364 682.927 470.259 682.822 470.048 682.822L391.033 668.532C390.823 668.532 390.613 668.427 390.403 668.427C390.193 668.427 390.088 668.322 389.878 668.217C389.772 668.112 389.667 668.112 389.562 668.007C389.562 668.007 389.457 668.007 389.457 667.902C389.352 667.902 389.352 667.796 389.352 667.796C389.142 667.796 389.037 667.796 388.932 667.691L388.827 667.586C388.722 667.481 388.722 667.481 388.617 667.376L388.512 667.271C388.512 667.166 388.407 667.166 388.407 667.061V666.956C388.407 666.851 388.407 666.746 388.407 666.641L385.885 684.818C385.885 684.923 385.885 685.028 385.885 685.134V685.239C385.885 685.344 385.99 685.344 385.99 685.449L386.095 685.554C386.095 685.659 386.2 685.659 386.305 685.764L386.41 685.869C386.515 685.974 386.62 685.974 386.62 686.079C386.62 686.079 386.725 686.079 386.725 686.184C386.725 686.184 386.725 686.184 386.83 686.184C386.83 686.184 386.935 686.184 386.935 686.289L387.041 686.394C387.146 686.394 387.146 686.499 387.251 686.499C387.356 686.499 387.461 686.605 387.566 686.605C387.671 686.605 387.671 686.605 387.776 686.71C387.881 686.71 387.986 686.71 388.091 686.815C388.196 686.815 388.301 686.815 388.407 686.92L467.316 701.315C467.632 701.42 467.947 701.42 468.262 701.525H468.367C468.682 701.63 468.893 701.735 469.208 701.735C469.313 701.735 469.313 701.735 469.313 701.84C469.523 701.945 469.838 702.05 470.048 702.155C470.153 702.155 470.153 702.26 470.259 702.26C470.469 702.366 470.574 702.471 470.784 702.576C470.889 702.681 470.994 702.786 471.204 702.891C471.309 702.996 471.414 702.996 471.519 703.101C471.624 703.206 471.73 703.311 471.835 703.416C471.94 703.521 471.94 703.521 472.045 703.626C472.15 703.731 472.255 703.837 472.255 703.942C472.255 704.047 472.36 704.047 472.36 704.152C472.465 704.362 472.465 704.467 472.57 704.677L479.295 745.025C479.295 745.13 479.295 745.235 479.4 745.34V745.446C479.4 745.551 479.505 745.551 479.505 745.656C479.505 745.656 479.505 745.761 479.61 745.761C479.61 745.866 479.715 745.866 479.82 745.866C479.82 745.866 479.925 745.866 479.925 745.971C480.03 746.076 480.03 746.076 480.135 746.181C480.135 746.181 480.135 746.181 480.24 746.181C480.24 746.181 480.346 746.286 480.451 746.286C480.451 746.286 480.556 746.286 480.556 746.391H480.661C480.766 746.391 480.766 746.496 480.871 746.496C480.871 746.496 480.871 746.496 480.976 746.496H481.081H481.186H481.291H481.396C481.396 746.496 481.396 746.496 481.501 746.496C481.606 746.496 481.712 746.496 481.817 746.601C481.922 746.601 481.922 746.601 482.027 746.601H482.132H482.237H482.342H482.447H482.552C482.552 746.601 482.552 746.601 482.657 746.601H482.762C482.867 746.601 482.972 746.601 482.972 746.601C482.972 746.601 482.972 746.601 483.077 746.601C483.077 746.601 483.077 746.601 483.183 746.601C483.393 746.601 483.603 746.601 483.813 746.601C483.813 746.601 483.813 746.601 483.918 746.601C484.128 746.601 484.338 746.496 484.548 746.496L512.393 736.514C512.603 736.409 512.813 736.304 513.023 736.199C513.023 736.199 513.128 736.199 513.128 736.094C513.128 736.094 513.233 736.094 513.233 735.989C513.339 735.989 513.339 735.884 513.444 735.884C513.549 735.779 513.654 735.779 513.759 735.674C513.864 735.569 513.864 735.569 513.969 735.464C514.074 735.358 514.074 735.253 514.179 735.253C514.179 735.148 514.284 735.148 514.284 735.043C514.284 734.938 514.389 734.833 514.389 734.728L516.701 716.235Z" fill="url(#paint17_linear)"/>
<path d="M417.302 655.714C418.668 655.188 420.559 655.083 422.345 655.503L487.386 667.377L504.513 670.529C505.984 670.739 507.244 671.264 508.085 671.895C508.926 672.42 509.556 673.156 509.661 673.786L509.766 674.522L510.292 677.674L510.712 680.091L511.132 682.507L516.701 715.71C516.911 716.656 516.176 717.497 514.81 718.022L486.965 728.004C485.074 728.634 482.027 727.794 481.817 726.533L475.092 686.185C474.882 684.714 472.675 683.453 469.944 682.928L391.034 668.533C388.512 668.112 387.566 666.431 389.457 665.801L417.302 655.714Z" fill="#FCFAFC"/>
</g>
<path d="M518.694 614.135L516.173 632.312L507.557 630.736L510.078 612.559L518.694 614.135Z" fill="#B4B4B4"/>
<path d="M518.694 614.135L516.173 632.312L507.557 630.736L510.078 612.559L518.694 614.135Z" fill="url(#paint18_linear)"/>
<path d="M519.639 619.702L517.117 637.879L497.469 634.412L499.991 616.234L519.639 619.702Z" fill="#B4B4B4"/>
<path d="M519.639 619.702L517.117 637.879L497.469 634.412L499.991 616.234L519.639 619.702Z" fill="url(#paint19_linear)"/>
<path d="M520.584 625.377L518.062 643.45L487.381 637.986L489.903 619.809L520.584 625.377Z" fill="#B4B4B4"/>
<path d="M520.584 625.377L518.062 643.45L487.381 637.986L489.903 619.809L520.584 625.377Z" fill="url(#paint20_linear)"/>
<g opacity="0.4784">
<path opacity="0.4784" d="M483.389 622.96L480.867 641.138C480.867 641.033 480.867 640.928 480.867 640.928L483.389 622.75C483.389 622.855 483.389 622.855 483.389 622.96Z" fill="#858585"/>
</g>
<path d="M483.599 624.117L481.077 642.294L480.867 641.139L483.389 622.961L483.599 624.117Z" fill="#6F4EB3"/>
<path d="M521.531 630.947L518.904 649.125L481.078 642.295L483.6 624.117L521.531 630.947Z" fill="#B4B4B4"/>
<path d="M521.531 630.947L518.904 649.125L481.078 642.295L483.6 624.117L521.531 630.947Z" fill="url(#paint21_linear)"/>
<path d="M484.545 629.791L482.023 647.863L481.498 644.711L484.02 626.639L484.545 629.791Z" fill="#6F4EB3"/>
<path d="M522.372 636.516L519.85 654.693L482.023 647.864L484.545 629.791L522.372 636.516Z" fill="#B4B4B4"/>
<path d="M522.372 636.516L519.85 654.693L482.023 647.864L484.545 629.791L522.372 636.516Z" fill="url(#paint22_linear)"/>
<path d="M485.49 635.359L482.969 653.537L482.443 650.28L484.965 632.207L485.49 635.359Z" fill="#6F4EB3"/>
<path d="M523.317 642.084L520.795 660.262L482.969 653.537L485.491 635.359L523.317 642.084Z" fill="#B4B4B4"/>
<path d="M523.317 642.084L520.795 660.262L482.969 653.537L485.491 635.359L523.317 642.084Z" fill="url(#paint23_linear)"/>
<path d="M486.436 640.928L483.914 659.105L483.389 655.953L485.91 637.775L486.436 640.928Z" fill="#6F4EB3"/>
<path d="M524.262 647.757L521.74 665.83L483.914 659.105L486.436 640.928L524.262 647.757Z" fill="#B4B4B4"/>
<path d="M524.262 647.757L521.74 665.83L483.914 659.105L486.436 640.928L524.262 647.757Z" fill="url(#paint24_linear)"/>
<path d="M487.383 646.498L484.861 664.676L484.336 661.523L486.858 643.346L487.383 646.498Z" fill="#6F4EB3"/>
<path d="M525.207 653.328L522.686 671.505L484.859 664.676L487.381 646.498L525.207 653.328Z" fill="#B4B4B4"/>
<path d="M525.207 653.328L522.686 671.505L484.859 664.676L487.381 646.498L525.207 653.328Z" fill="url(#paint25_linear)"/>
<path d="M488.328 652.172L485.807 670.244L485.281 667.092L487.803 649.02L488.328 652.172Z" fill="#6F4EB3"/>
<path opacity="0.4784" d="M489.064 657.005L486.542 675.077L486.227 672.66L488.748 654.588L489.064 657.005Z" fill="#808080"/>
<path d="M611.789 672.974C611.789 672.974 611.789 673.079 611.789 672.974C611.684 673.079 611.684 673.185 611.579 673.185C611.474 673.29 611.474 673.29 611.369 673.395C611.369 673.395 611.369 673.395 611.264 673.395C611.159 673.5 611.054 673.5 610.844 673.605L610.003 673.92L488.328 652.17L485.807 670.348L607.586 692.098L608.427 691.783C608.532 691.783 608.637 691.677 608.742 691.677C608.742 691.677 608.742 691.677 608.847 691.677C608.847 691.677 608.847 691.677 608.952 691.677C608.952 691.677 609.057 691.677 609.057 691.572C609.163 691.572 609.163 691.467 609.163 691.467L609.268 691.362L609.373 691.257V691.152V691.047L611.894 672.869C611.789 672.869 611.789 672.974 611.789 672.974Z" fill="url(#paint26_linear)"/>
<path opacity="0.4784" d="M506.19 660.051L503.668 678.229L486.541 675.076L489.063 657.004L506.19 660.051Z" fill="#B4B4B4"/>
<g opacity="0.4784">
<path opacity="0.4784" d="M509.867 661.416L507.345 679.593C507.24 679.593 507.135 679.488 507.135 679.488L509.657 661.311C509.657 661.311 509.762 661.416 509.867 661.416Z" fill="#858585"/>
<path opacity="0.4784" d="M509.553 661.311L507.031 679.489C506.821 679.384 506.611 679.279 506.4 679.174L508.922 660.996C509.132 660.996 509.342 661.101 509.553 661.311Z" fill="#8A8A8A"/>
<path opacity="0.4784" d="M508.922 660.89L506.4 679.067C506.19 678.962 505.98 678.857 505.875 678.857L508.397 660.68C508.607 660.785 508.712 660.89 508.922 660.89Z" fill="#8F8F8F"/>
<path opacity="0.4784" d="M508.397 660.681L505.875 678.859C505.665 678.753 505.56 678.753 505.35 678.648L507.871 660.471C507.976 660.576 508.187 660.576 508.397 660.681Z" fill="#949494"/>
<path opacity="0.4784" d="M507.871 660.47L505.35 678.648C505.139 678.542 505.034 678.542 504.824 678.437L507.346 660.26C507.451 660.365 507.661 660.47 507.871 660.47Z" fill="#999999"/>
<path opacity="0.4784" d="M507.346 660.364L504.824 678.437C504.614 678.437 504.509 678.332 504.299 678.332L506.821 660.154C506.926 660.259 507.136 660.259 507.346 660.364Z" fill="#9E9E9E"/>
<path opacity="0.4784" d="M506.715 660.156L504.193 678.334C503.983 678.334 503.878 678.228 503.668 678.228L506.19 660.051C506.4 660.156 506.61 660.156 506.715 660.156Z" fill="#A3A3A3"/>
</g>
<path d="M600.02 677.597L509.867 661.416L507.24 679.594L597.498 695.67L603.172 693.673L605.694 675.496L600.02 677.597Z" fill="url(#paint27_linear)"/>
<path opacity="0.4784" d="M511.969 667.195L509.447 685.373L508.922 682.221L511.444 664.043L511.969 667.195Z" fill="#808080"/>
<path d="M589.933 681.17L511.969 667.195L509.447 685.373L587.412 699.348L593.086 697.246L595.607 679.174L589.933 681.17Z" fill="url(#paint28_linear)"/>
<path opacity="0.4784" d="M512.809 672.135L510.287 690.208L509.867 687.791L512.389 669.719L512.809 672.135Z" fill="#808080"/>
<path d="M581.674 684.426C581.463 684.531 581.253 684.531 581.043 684.531C580.938 684.531 580.938 684.531 580.833 684.531C580.728 684.531 580.518 684.531 580.308 684.531C580.097 684.531 579.992 684.531 579.782 684.531C579.572 684.531 579.362 684.531 579.047 684.426L512.535 672.447L510.014 690.625L576.525 702.708C576.63 702.708 576.735 702.708 576.84 702.708C576.945 702.708 577.05 702.708 577.155 702.708C577.261 702.708 577.366 702.708 577.576 702.708H577.681C577.891 702.708 577.996 702.708 578.206 702.708C578.311 702.708 578.311 702.708 578.416 702.708C578.626 702.708 578.837 702.603 579.047 702.603L582.724 701.342L585.246 683.165L581.674 684.426Z" fill="url(#paint29_linear)"/>
<path fill-rule="evenodd" clip-rule="evenodd" d="M518.484 612.873C518.274 611.612 515.226 610.771 513.335 611.402L510.078 612.558L518.694 614.134L518.484 612.873ZM519.114 616.55L505.665 614.134L499.991 616.235L519.639 619.702L519.114 616.55ZM495.578 617.81L520.06 622.223L520.585 625.376L489.904 619.807L495.578 617.81ZM520.9 627.688L485.491 621.384L484.335 621.699C483.704 622.014 483.284 622.435 483.389 622.855L483.599 624.011L521.426 630.841L520.9 627.688ZM484.02 626.638L521.846 633.363L522.372 636.515L484.545 629.79L484.02 626.638ZM522.792 638.931L484.966 632.206L485.491 635.358L523.318 642.083L522.792 638.931ZM485.911 637.775L523.737 644.604L524.263 647.757L486.436 640.927L485.911 637.775ZM524.683 650.174L486.857 643.345L487.382 646.497L525.209 653.327L524.683 650.174ZM487.803 649.018L555.995 661.207L609.372 670.873C611.894 671.294 612.84 672.975 610.948 673.605L610.108 673.92L488.328 652.17L487.803 649.018ZM605.694 675.601L488.748 654.586L489.168 657.003L506.295 660.155C507.661 660.47 508.922 660.891 509.868 661.521L600.02 677.702L605.694 675.601ZM511.444 664.043L595.607 679.174L589.934 681.17L511.969 667.195L511.444 664.043ZM585.52 682.852L512.389 669.718L512.81 672.135L579.321 684.218C580.267 684.428 581.107 684.323 581.843 684.113L585.52 682.852Z" fill="url(#paint30_linear)"/>
<path d="M518.379 705.862C518.379 706.072 518.274 706.177 518.168 706.387C518.063 706.598 517.958 706.703 517.853 706.808C517.748 706.913 517.538 707.018 517.328 707.228C517.328 707.228 517.223 707.228 517.223 707.333C517.013 707.438 516.803 707.543 516.487 707.648L488.643 717.63C488.433 717.735 488.223 717.735 488.012 717.735C488.012 717.735 488.012 717.735 487.907 717.735C487.697 717.735 487.487 717.735 487.277 717.735H487.172C487.067 717.735 486.962 717.735 486.962 717.735C486.857 717.735 486.857 717.735 486.752 717.735H486.647C486.541 717.735 486.436 717.735 486.436 717.735H486.331C486.226 717.735 486.121 717.735 486.016 717.63C485.911 717.63 485.806 717.525 485.701 717.525H485.596C485.491 717.525 485.386 717.42 485.386 717.42H485.281C485.175 717.42 485.07 717.315 485.07 717.315H484.965C484.86 717.315 484.86 717.21 484.86 717.21C484.755 717.21 484.755 717.105 484.65 717.105C484.65 717.105 484.65 717.105 484.545 717.105C484.44 717 484.335 717 484.335 716.895C484.335 716.895 484.23 716.895 484.23 716.79C484.125 716.79 484.125 716.685 484.02 716.685L483.915 716.58C483.915 716.475 483.81 716.475 483.81 716.369V716.264C483.81 716.159 483.704 716.054 483.704 715.949L476.98 675.601C476.98 675.391 476.875 675.286 476.77 675.076C476.77 674.971 476.665 674.971 476.665 674.866C476.559 674.76 476.559 674.655 476.454 674.55C476.349 674.445 476.349 674.445 476.244 674.34C476.139 674.235 476.034 674.13 475.929 674.025C475.824 673.92 475.719 673.92 475.614 673.815C475.509 673.71 475.404 673.605 475.194 673.5C475.194 673.5 475.194 673.5 475.088 673.395C474.983 673.289 474.773 673.289 474.668 673.184C474.563 673.184 474.563 673.079 474.458 673.079C474.143 673.289 473.933 673.184 473.723 673.184C473.723 673.184 473.617 673.184 473.617 673.079C473.617 673.079 473.512 673.079 473.512 672.974C473.407 672.974 473.407 672.869 473.302 672.869C473.092 672.764 472.987 672.764 472.777 672.659H472.672C472.567 672.659 472.357 672.554 472.251 672.554C472.041 672.554 471.936 672.449 471.726 672.449L392.711 658.159C392.501 658.159 392.291 658.054 392.081 658.054C391.871 658.054 391.765 657.949 391.555 657.844C391.45 657.739 391.345 657.739 391.24 657.634C391.24 657.634 391.135 657.634 391.135 657.528C391.03 657.528 391.03 657.423 391.03 657.423C390.82 657.423 390.715 657.423 390.61 657.318L390.505 657.213C390.399 657.108 390.399 657.108 390.294 657.003L390.189 656.898C390.189 656.793 390.084 656.793 390.084 656.688V656.583C390.084 656.478 390.084 656.373 390.084 656.268L387.562 674.445C387.562 674.55 387.562 674.655 387.562 674.76V674.866C387.562 674.971 387.668 674.971 387.668 675.076L387.773 675.181C387.773 675.286 387.878 675.286 387.983 675.391L388.088 675.496C388.193 675.601 388.298 675.601 388.298 675.706C388.298 675.706 388.403 675.706 388.403 675.811C388.403 675.811 388.403 675.811 388.508 675.811C388.508 675.811 388.613 675.811 388.613 675.916L388.718 676.021C388.823 676.021 388.823 676.126 388.928 676.126C389.034 676.126 389.139 676.231 389.244 676.231C389.349 676.231 389.349 676.231 389.454 676.337C389.559 676.337 389.664 676.337 389.769 676.442C389.874 676.442 389.979 676.442 390.084 676.547L468.994 690.942C469.309 691.047 469.625 691.047 469.94 691.152H470.045C470.36 691.257 470.57 691.362 470.886 691.362C470.991 691.362 470.991 691.362 470.991 691.467C471.201 691.572 471.516 691.677 471.726 691.782C471.831 691.782 471.831 691.887 471.936 691.887C472.146 691.992 472.251 692.098 472.462 692.203C472.567 692.308 472.672 692.413 472.882 692.518C472.987 692.623 473.092 692.623 473.197 692.728C473.302 692.833 473.407 692.938 473.512 693.043C473.617 693.148 473.617 693.148 473.723 693.253C473.828 693.358 473.933 693.463 473.933 693.569C473.933 693.674 474.038 693.674 474.038 693.779C474.143 693.989 474.143 694.094 474.248 694.304L480.973 734.652C480.973 734.757 480.973 734.862 481.078 734.967V735.072C481.078 735.178 481.183 735.178 481.183 735.283C481.183 735.283 481.183 735.388 481.288 735.388C481.288 735.493 481.393 735.493 481.498 735.493C481.498 735.493 481.603 735.493 481.603 735.598C481.708 735.703 481.708 735.703 481.813 735.808C481.813 735.808 481.813 735.808 481.918 735.808C481.918 735.808 482.023 735.913 482.128 735.913C482.128 735.913 482.233 735.913 482.233 736.018H482.339C482.444 736.018 482.444 736.123 482.549 736.123C482.549 736.123 482.549 736.123 482.654 736.123H482.759H482.864H482.969H483.074C483.074 736.123 483.074 736.123 483.179 736.123C483.284 736.123 483.389 736.123 483.494 736.228C483.599 736.228 483.599 736.228 483.704 736.228H483.81H483.915H484.02H484.125H484.23C484.23 736.228 484.23 736.228 484.335 736.228H484.44C484.545 736.228 484.65 736.228 484.65 736.228C484.65 736.228 484.65 736.228 484.755 736.228C484.755 736.228 484.755 736.228 484.86 736.228C485.07 736.228 485.281 736.228 485.491 736.228C485.491 736.228 485.491 736.228 485.596 736.228C485.806 736.228 486.016 736.123 486.226 736.123L514.071 726.141C514.281 726.036 514.491 725.931 514.701 725.826C514.701 725.826 514.806 725.826 514.806 725.721C514.806 725.721 514.911 725.721 514.911 725.616C515.016 725.616 515.016 725.511 515.121 725.511C515.226 725.406 515.331 725.406 515.437 725.301C515.542 725.196 515.542 725.196 515.647 725.091C515.752 724.985 515.752 724.88 515.857 724.88C515.857 724.775 515.962 724.775 515.962 724.67C515.962 724.565 516.067 724.46 516.067 724.355L518.379 705.862Z" fill="url(#paint31_linear)"/>
<path d="M418.98 645.341C420.346 644.815 422.237 644.71 424.023 645.13L489.063 657.004L506.19 660.156C507.661 660.366 508.922 660.891 509.763 661.522C510.603 662.047 511.234 662.783 511.339 663.413L511.444 664.149L511.969 667.301L512.39 669.718L512.81 672.134L518.379 705.337C518.589 706.283 517.853 707.124 516.487 707.649L488.643 717.631C486.752 718.261 483.705 717.421 483.495 716.16L476.77 675.812C476.56 674.341 474.353 673.08 471.621 672.555L392.711 658.16C390.19 657.739 389.244 656.058 391.135 655.428L418.98 645.341Z" fill="#FCFAFC"/>
<defs>
<linearGradient id="paint0_linear" x1="301.893" y1="614.372" x2="688.519" y2="872.936" gradientUnits="userSpaceOnUse">
<stop stop-color="#F23563"/>
<stop offset="0.334138" stop-color="#6956D9"/>
<stop offset="0.622896" stop-color="#3F2ED0"/>
<stop offset="1" stop-color="#8817BE"/>
</linearGradient>
<linearGradient id="paint1_linear" x1="301.893" y1="637.03" x2="688.519" y2="895.594" gradientUnits="userSpaceOnUse">
<stop stop-color="#F23563"/>
<stop offset="0.334138" stop-color="#6956D9"/>
<stop offset="0.622896" stop-color="#3F2ED0"/>
<stop offset="1" stop-color="#8817BE"/>
</linearGradient>
<linearGradient id="paint2_linear" x1="301.893" y1="661.366" x2="688.519" y2="919.93" gradientUnits="userSpaceOnUse">
<stop stop-color="#F23563"/>
<stop offset="0.334138" stop-color="#6956D9"/>
<stop offset="0.622896" stop-color="#3F2ED0"/>
<stop offset="1" stop-color="#8817BE"/>
</linearGradient>
<linearGradient id="paint3_linear" x1="645.669" y1="674.098" x2="277.133" y2="907.561" gradientUnits="userSpaceOnUse">
<stop stop-color="#F23563"/>
<stop offset="0.334138" stop-color="#6956D9"/>
<stop offset="0.622896" stop-color="#3F2ED0"/>
<stop offset="1" stop-color="#8817BE"/>
</linearGradient>
<linearGradient id="paint4_linear" x1="515.901" y1="642.855" x2="506.915" y2="642.047" gradientUnits="userSpaceOnUse">
<stop stop-color="#E291C2"/>
<stop offset="1" stop-color="#B46CDF"/>
</linearGradient>
<linearGradient id="paint5_linear" x1="515.741" y1="648.439" x2="498.178" y2="645.567" gradientUnits="userSpaceOnUse">
<stop stop-color="#E291C2"/>
<stop offset="1" stop-color="#B46CDF"/>
</linearGradient>
<linearGradient id="paint6_linear" x1="515.583" y1="654.025" x2="489.868" y2="648.26" gradientUnits="userSpaceOnUse">
<stop stop-color="#E291C2"/>
<stop offset="1" stop-color="#B46CDF"/>
</linearGradient>
<linearGradient id="paint7_linear" x1="515.803" y1="659.713" x2="484.955" y2="651.748" gradientUnits="userSpaceOnUse">
<stop stop-color="#E291C2"/>
<stop offset="1" stop-color="#B46CDF"/>
</linearGradient>
<linearGradient id="paint8_linear" x1="516.654" y1="665.281" x2="485.892" y2="657.326" gradientUnits="userSpaceOnUse">
<stop stop-color="#E291C2"/>
<stop offset="1" stop-color="#B46CDF"/>
</linearGradient>
<linearGradient id="paint9_linear" x1="517.599" y1="670.849" x2="486.837" y2="662.894" gradientUnits="userSpaceOnUse">
<stop stop-color="#E291C2"/>
<stop offset="1" stop-color="#B46CDF"/>
</linearGradient>
<linearGradient id="paint10_linear" x1="518.544" y1="676.418" x2="487.783" y2="668.462" gradientUnits="userSpaceOnUse">
<stop stop-color="#E291C2"/>
<stop offset="1" stop-color="#B46CDF"/>
</linearGradient>
<linearGradient id="paint11_linear" x1="519.49" y1="682.094" x2="488.712" y2="674.168" gradientUnits="userSpaceOnUse">
<stop stop-color="#E291C2"/>
<stop offset="1" stop-color="#B46CDF"/>
</linearGradient>
<linearGradient id="paint12_linear" x1="597.591" y1="702.816" x2="515.81" y2="661.594" gradientUnits="userSpaceOnUse">
<stop stop-color="#E291C2"/>
<stop offset="1" stop-color="#C388E7"/>
</linearGradient>
<linearGradient id="paint13_linear" x1="594.158" y1="706.341" x2="528" y2="675.99" gradientUnits="userSpaceOnUse">
<stop stop-color="#E998D2"/>
<stop offset="1" stop-color="#C388E7"/>
</linearGradient>
<linearGradient id="paint14_linear" x1="585.302" y1="709.999" x2="526.059" y2="684.658" gradientUnits="userSpaceOnUse">
<stop stop-color="#E79DDB"/>
<stop offset="1" stop-color="#C388E7"/>
</linearGradient>
<linearGradient id="paint15_linear" x1="576.035" y1="713.345" x2="523.167" y2="692.365" gradientUnits="userSpaceOnUse">
<stop stop-color="#E7B3F9"/>
<stop offset="1" stop-color="#C388E7"/>
</linearGradient>
<linearGradient id="paint16_linear" x1="545.982" y1="621.559" x2="545.982" y2="694.704" gradientUnits="userSpaceOnUse">
<stop stop-color="#DADADA"/>
<stop offset="1" stop-color="#F0EFEF"/>
</linearGradient>
<linearGradient id="paint17_linear" x1="451.293" y1="666.641" x2="451.293" y2="746.601" gradientUnits="userSpaceOnUse">
<stop stop-color="#C6BEFF"/>
<stop offset="1" stop-color="#9689F0"/>
</linearGradient>
<linearGradient id="paint18_linear" x1="517.579" y1="632.484" x2="508.593" y2="631.675" gradientUnits="userSpaceOnUse">
<stop stop-color="#E291C2"/>
<stop offset="1" stop-color="#B46CDF"/>
</linearGradient>
<linearGradient id="paint19_linear" x1="517.419" y1="638.068" x2="499.855" y2="635.196" gradientUnits="userSpaceOnUse">
<stop stop-color="#E291C2"/>
<stop offset="1" stop-color="#B46CDF"/>
</linearGradient>
<linearGradient id="paint20_linear" x1="517.259" y1="643.656" x2="491.544" y2="637.891" gradientUnits="userSpaceOnUse">
<stop stop-color="#E291C2"/>
<stop offset="1" stop-color="#B46CDF"/>
</linearGradient>
<linearGradient id="paint21_linear" x1="517.481" y1="649.342" x2="486.633" y2="641.377" gradientUnits="userSpaceOnUse">
<stop stop-color="#E291C2"/>
<stop offset="1" stop-color="#B46CDF"/>
</linearGradient>
<linearGradient id="paint22_linear" x1="518.331" y1="654.91" x2="487.57" y2="646.955" gradientUnits="userSpaceOnUse">
<stop stop-color="#E291C2"/>
<stop offset="1" stop-color="#B46CDF"/>
</linearGradient>
<linearGradient id="paint23_linear" x1="519.277" y1="660.478" x2="488.515" y2="652.523" gradientUnits="userSpaceOnUse">
<stop stop-color="#E291C2"/>
<stop offset="1" stop-color="#B46CDF"/>
</linearGradient>
<linearGradient id="paint24_linear" x1="520.222" y1="666.047" x2="489.461" y2="658.091" gradientUnits="userSpaceOnUse">
<stop stop-color="#E291C2"/>
<stop offset="1" stop-color="#B46CDF"/>
</linearGradient>
<linearGradient id="paint25_linear" x1="521.167" y1="671.723" x2="490.39" y2="663.797" gradientUnits="userSpaceOnUse">
<stop stop-color="#E291C2"/>
<stop offset="1" stop-color="#B46CDF"/>
</linearGradient>
<linearGradient id="paint26_linear" x1="599.269" y1="692.445" x2="517.488" y2="651.223" gradientUnits="userSpaceOnUse">
<stop stop-color="#E291C2"/>
<stop offset="1" stop-color="#C388E7"/>
</linearGradient>
<linearGradient id="paint27_linear" x1="595.835" y1="695.968" x2="529.678" y2="665.617" gradientUnits="userSpaceOnUse">
<stop stop-color="#E998D2"/>
<stop offset="1" stop-color="#C388E7"/>
</linearGradient>
<linearGradient id="paint28_linear" x1="586.98" y1="699.627" x2="527.737" y2="674.287" gradientUnits="userSpaceOnUse">
<stop stop-color="#E79DDB"/>
<stop offset="1" stop-color="#C388E7"/>
</linearGradient>
<linearGradient id="paint29_linear" x1="577.713" y1="702.972" x2="524.844" y2="681.992" gradientUnits="userSpaceOnUse">
<stop stop-color="#E7B3F9"/>
<stop offset="1" stop-color="#C388E7"/>
</linearGradient>
<linearGradient id="paint30_linear" x1="547.66" y1="611.188" x2="547.66" y2="684.333" gradientUnits="userSpaceOnUse">
<stop stop-color="#DADADA"/>
<stop offset="1" stop-color="#F0EFEF"/>
</linearGradient>
<linearGradient id="paint31_linear" x1="452.971" y1="656.268" x2="452.971" y2="736.228" gradientUnits="userSpaceOnUse">
<stop stop-color="#C6BEFF"/>
<stop offset="1" stop-color="#9689F0"/>
</linearGradient>
</defs>
</svg>
