<svg width="130" height="35" viewBox="0 0 130 35" fill="none" xmlns="http://www.w3.org/2000/svg">
<path d="M10.57 17.3129C10.5333 17.954 10.7516 18.5835 11.1768 19.063C11.602 19.5426 12.1994 19.833 12.8377 19.8704H12.9693C13.4394 19.8699 13.899 19.7312 14.2915 19.4713C14.684 19.2115 14.9921 18.8419 15.1779 18.4082C15.3637 17.9745 15.4189 17.4957 15.3368 17.0309C15.2547 16.566 15.0389 16.1355 14.716 15.7924C14.3931 15.4493 13.9772 15.2086 13.5197 15.1002C13.0621 14.9917 12.583 15.0202 12.1414 15.182C11.6998 15.3439 11.315 15.632 11.0346 16.0109C10.7542 16.3899 10.5904 16.8429 10.5634 17.3143L10.57 17.3129Z" fill="#0033AD"/>
<path d="M1.59367 16.7C1.4402 16.6914 1.28764 16.7286 1.15525 16.8071C1.02286 16.8855 0.916595 17.0016 0.849879 17.1406C0.783162 17.2797 0.758991 17.4355 0.78042 17.5883C0.801848 17.7412 0.867914 17.8842 0.97027 17.9994C1.07262 18.1146 1.20667 18.1967 1.35548 18.2353C1.50428 18.274 1.66116 18.2675 1.80629 18.2167C1.95141 18.1658 2.07828 18.0729 2.17084 17.9497C2.26341 17.8264 2.31752 17.6784 2.32634 17.5243C2.33239 17.4218 2.3182 17.3191 2.28461 17.2222C2.25102 17.1252 2.19868 17.0358 2.13059 16.9592C2.06251 16.8826 1.98003 16.8203 1.88789 16.7758C1.79574 16.7313 1.69576 16.7056 1.59367 16.7Z" fill="#0033AD"/>
<path d="M10.4174 3.28251C10.5541 3.21202 10.6669 3.1025 10.7418 2.96773C10.8166 2.83297 10.8501 2.67898 10.838 2.52515C10.8258 2.37133 10.7687 2.22454 10.6737 2.10327C10.5787 1.982 10.45 1.89167 10.304 1.84364C10.158 1.79562 10.0011 1.79204 9.85307 1.83338C9.70504 1.87471 9.57249 1.9591 9.47211 2.07593C9.37173 2.19275 9.308 2.33679 9.28896 2.4899C9.26991 2.64302 9.2964 2.79837 9.36508 2.9364C9.41125 3.0288 9.47517 3.1111 9.55315 3.17857C9.63114 3.24603 9.72166 3.29733 9.81948 3.32951C9.9173 3.36168 10.0205 3.37409 10.1231 3.36603C10.2257 3.35796 10.3258 3.32958 10.4174 3.28251Z" fill="#0033AD"/>
<path d="M12.8601 7.55989C13.0723 7.45235 13.2481 7.28403 13.3651 7.07619C13.4822 6.86835 13.5352 6.63034 13.5175 6.39223C13.4999 6.15413 13.4123 5.92662 13.266 5.73848C13.1196 5.55034 12.9209 5.41 12.6952 5.33522C12.4694 5.26044 12.2266 5.25456 11.9975 5.31834C11.7683 5.38211 11.5632 5.51267 11.408 5.69352C11.2527 5.87436 11.1544 6.09737 11.1253 6.33434C11.0963 6.57132 11.1378 6.81162 11.2448 7.02488C11.3158 7.16656 11.4139 7.2928 11.5336 7.39638C11.6532 7.49995 11.792 7.57884 11.942 7.62852C12.092 7.67821 12.2503 7.69772 12.4078 7.68594C12.5654 7.67417 12.719 7.63133 12.8601 7.55989Z" fill="#0033AD"/>
<path d="M4.64017 10.5018C4.8039 10.6099 4.99589 10.6668 5.19184 10.6654C5.3878 10.6639 5.57891 10.6041 5.741 10.4935C5.9031 10.3829 6.02888 10.2265 6.10244 10.0441C6.17601 9.86168 6.19404 9.66146 6.15427 9.46876C6.11449 9.27606 6.01869 9.09954 5.87899 8.96153C5.73929 8.82353 5.56197 8.73023 5.36946 8.69346C5.17695 8.65669 4.97791 8.6781 4.79751 8.75496C4.61712 8.83183 4.46348 8.96071 4.35604 9.12529C4.21215 9.34572 4.16124 9.61449 4.21452 9.87258C4.26779 10.1307 4.42088 10.357 4.64017 10.5018Z" fill="#0033AD"/>
<path d="M6.10418 16.2601C5.86682 16.2466 5.63083 16.3041 5.42601 16.4254C5.2212 16.5466 5.05678 16.7261 4.95351 16.9411C4.85025 17.1562 4.81279 17.3971 4.84587 17.6335C4.87894 17.87 4.98107 18.0912 5.13935 18.2694C5.29762 18.4475 5.50493 18.5746 5.73507 18.6344C5.96521 18.6943 6.20786 18.6842 6.43233 18.6056C6.65681 18.527 6.85304 18.3833 6.99621 18.1927C7.13939 18.0021 7.22309 17.7732 7.23674 17.5348C7.25469 17.215 7.1455 16.9011 6.93314 16.6621C6.72078 16.4231 6.42263 16.2785 6.10418 16.2601Z" fill="#0033AD"/>
<path d="M4.77172 24.3777C4.59691 24.4664 4.45222 24.6052 4.35594 24.7765C4.25966 24.9478 4.2161 25.1439 4.23079 25.34C4.24547 25.5362 4.31773 25.7236 4.43843 25.8785C4.55913 26.0334 4.72285 26.1489 4.9089 26.2104C5.09495 26.2718 5.29497 26.2765 5.48368 26.2239C5.6724 26.1712 5.84133 26.0636 5.96912 25.9145C6.09691 25.7654 6.17783 25.5817 6.20164 25.3864C6.22545 25.1912 6.19109 24.9932 6.1029 24.8176C6.0443 24.7009 5.96337 24.5969 5.86474 24.5116C5.76611 24.4264 5.65171 24.3615 5.52809 24.3206C5.40446 24.2797 5.27403 24.2638 5.14424 24.2736C5.01446 24.2834 4.88787 24.3187 4.77172 24.3777Z" fill="#0033AD"/>
<path d="M9.4453 13.7647C9.67942 13.9187 9.95378 13.9997 10.2337 13.9972C10.5136 13.9947 10.7865 13.9089 11.0178 13.7506C11.2492 13.5924 11.4286 13.3688 11.5335 13.1082C11.6383 12.8475 11.6638 12.5615 11.6068 12.2863C11.5498 12.0111 11.4128 11.759 11.2131 11.562C11.0135 11.3649 10.7601 11.2318 10.4851 11.1793C10.2101 11.1269 9.92582 11.1575 9.66815 11.2674C9.41048 11.3772 9.19103 11.5613 9.03753 11.7963C8.93542 11.9524 8.86496 12.1272 8.83018 12.3106C8.79541 12.4941 8.79701 12.6826 8.83489 12.8654C8.87276 13.0483 8.94617 13.2218 9.05092 13.3761C9.15566 13.5304 9.28968 13.6624 9.4453 13.7647Z" fill="#0033AD"/>
<path d="M24.2725 7.46473C24.4718 7.59531 24.7052 7.66361 24.9432 7.66099C25.1812 7.65837 25.4131 7.58496 25.6095 7.45003C25.806 7.31509 25.9582 7.1247 26.0469 6.90291C26.1356 6.68112 26.1568 6.4379 26.1079 6.20399C26.059 5.97007 25.9422 5.75597 25.7721 5.58874C25.6021 5.42151 25.3865 5.30866 25.1526 5.26446C24.9187 5.22026 24.677 5.24669 24.4581 5.34041C24.2392 5.43413 24.0528 5.59094 23.9226 5.791C23.8359 5.9239 23.7761 6.07267 23.7468 6.22879C23.7175 6.38491 23.7191 6.54531 23.7516 6.7008C23.7841 6.85629 23.8468 7.00381 23.9362 7.1349C24.0256 7.26599 24.1399 7.37807 24.2725 7.46473Z" fill="#0033AD"/>
<path d="M26.7402 3.20059C26.869 3.28541 27.02 3.32994 27.1741 3.32855C27.3281 3.32716 27.4783 3.27991 27.6056 3.19278C27.7329 3.10565 27.8316 2.98255 27.8892 2.83907C27.9469 2.69558 27.9608 2.53816 27.9293 2.38671C27.8978 2.23526 27.8223 2.09659 27.7124 1.98825C27.6024 1.87991 27.4629 1.80676 27.3115 1.77807C27.1601 1.74938 27.0036 1.76642 26.8619 1.82706C26.7202 1.88769 26.5995 1.98918 26.5152 2.11868C26.4023 2.29215 26.3626 2.50352 26.4048 2.70638C26.447 2.90923 26.5676 3.08699 26.7402 3.20059Z" fill="#0033AD"/>
<path d="M24.4619 15.0118C24.1462 14.9936 23.83 15.038 23.5314 15.1425C23.2328 15.2469 22.9577 15.4095 22.7216 15.6208C22.2449 16.0475 21.9565 16.6469 21.9199 17.2872C21.8832 17.9275 22.1014 18.5561 22.5263 19.0349C22.9512 19.5136 23.5481 19.8033 24.1856 19.8401C24.2317 19.8401 24.279 19.8401 24.3251 19.8401C24.7895 19.8398 25.244 19.7047 25.6336 19.4509C26.0233 19.1971 26.3316 18.8356 26.5212 18.4098C26.7109 17.984 26.7738 17.5123 26.7025 17.0514C26.6312 16.5905 26.4286 16.1602 26.1193 15.8123C25.9098 15.575 25.6553 15.3821 25.3707 15.2446C25.0862 15.1072 24.7772 15.028 24.4619 15.0118Z" fill="#0033AD"/>
<path d="M13.6507 13.597C13.8505 13.9979 14.1578 14.3349 14.538 14.5699C14.9182 14.8049 15.3562 14.9287 15.8026 14.9272C16.2142 14.9273 16.619 14.8215 16.9783 14.6198C17.3376 14.4181 17.6394 14.1273 17.855 13.7752C18.0705 13.423 18.1926 13.0213 18.2096 12.6083C18.2266 12.1953 18.1379 11.7848 17.952 11.416C17.7508 11.0169 17.4429 10.6819 17.0628 10.4486C16.6827 10.2153 16.2455 10.0928 15.8 10.095C15.3897 10.0957 14.9863 10.2017 14.6282 10.4029C14.2701 10.604 13.9691 10.8938 13.7538 11.2446C13.5385 11.5954 13.416 11.9956 13.398 12.4073C13.3799 12.819 13.4669 13.2285 13.6507 13.597Z" fill="#0033AD"/>
<path d="M32.5266 10.4992C32.7014 10.4105 32.8462 10.2719 32.9426 10.1007C33.039 9.92947 33.0827 9.73341 33.0681 9.53728C33.0536 9.34115 32.9815 9.15374 32.8609 8.99875C32.7404 8.84376 32.5768 8.72814 32.3908 8.6665C32.2048 8.60486 32.0048 8.59997 31.8161 8.65244C31.6273 8.70492 31.4583 8.8124 31.3304 8.96132C31.2025 9.11023 31.1214 9.29388 31.0973 9.48907C31.0733 9.68426 31.1074 9.88222 31.1954 10.0579C31.3138 10.2936 31.5205 10.4725 31.7701 10.5552C32.0197 10.6379 32.2918 10.6178 32.5266 10.4992Z" fill="#0033AD"/>
<path d="M26.4218 11.2693C26.1718 11.3958 25.9647 11.5938 25.8268 11.8385C25.6889 12.0831 25.6263 12.3633 25.647 12.6437C25.6676 12.924 25.7706 13.192 25.9429 13.4135C26.1151 13.6351 26.349 13.8004 26.6148 13.8886C26.8806 13.9767 27.1665 13.9837 27.4363 13.9086C27.706 13.8336 27.9476 13.6799 28.1304 13.467C28.3132 13.2541 28.429 12.9915 28.4632 12.7125C28.4974 12.4334 28.4485 12.1505 28.3226 11.8994C28.2391 11.7326 28.1237 11.5839 27.9829 11.4619C27.8422 11.3399 27.6789 11.247 27.5023 11.1885C27.3258 11.13 27.1395 11.107 26.954 11.1209C26.7686 11.1347 26.5878 11.1852 26.4218 11.2693Z" fill="#0033AD"/>
<path d="M18.5584 2.83598C18.754 2.84717 18.9485 2.79984 19.1174 2.69998C19.2862 2.60012 19.4217 2.45222 19.5069 2.27499C19.592 2.09776 19.6228 1.89915 19.5955 1.7043C19.5682 1.50945 19.484 1.3271 19.3535 1.18033C19.223 1.03356 19.0521 0.928952 18.8624 0.879747C18.6727 0.830542 18.4727 0.838948 18.2877 0.903901C18.1028 0.968854 17.9412 1.08744 17.8233 1.24465C17.7055 1.40186 17.6368 1.59063 17.6258 1.7871C17.611 2.05036 17.701 2.30872 17.8759 2.5054C18.0508 2.70208 18.2962 2.82099 18.5584 2.83598Z" fill="#0033AD"/>
<path d="M18.5478 9.09621C18.8273 9.11194 19.105 9.04414 19.3461 8.90136C19.5871 8.75859 19.7806 8.54726 19.9021 8.29407C20.0236 8.04089 20.0676 7.75722 20.0286 7.47892C19.9896 7.20061 19.8693 6.94017 19.683 6.7305C19.4966 6.52083 19.2526 6.37135 18.9816 6.30095C18.7107 6.23054 18.4251 6.24238 18.1608 6.33496C17.8966 6.42754 17.6656 6.5967 17.4971 6.82108C17.3286 7.04545 17.2301 7.31496 17.214 7.59554C17.1928 7.97215 17.3214 8.34179 17.5716 8.6232C17.8217 8.90461 18.1728 9.07475 18.5478 9.09621Z" fill="#0033AD"/>
<path d="M10.8791 23.6062C11.1291 23.4796 11.3361 23.2815 11.4739 23.0367C11.6117 22.792 11.6742 22.5117 11.6534 22.2314C11.6326 21.951 11.5294 21.6831 11.357 21.4616C11.1846 21.2401 10.9507 21.0749 10.6848 20.9869C10.4189 20.899 10.1329 20.8922 9.8632 20.9674C9.59345 21.0426 9.35197 21.1965 9.16932 21.4096C8.98666 21.6227 8.87102 21.8853 8.83703 22.1644C8.80304 22.4435 8.85222 22.7264 8.97836 22.9774C9.14744 23.3139 9.44266 23.5691 9.79909 23.687C10.1555 23.805 10.544 23.7759 10.8791 23.6062Z" fill="#0033AD"/>
<path d="M19.4621 11.1702C19.1685 11.6201 19.0327 12.1555 19.0763 12.6916C19.1198 13.2277 19.3401 13.7339 19.7023 14.1301C20.0645 14.5263 20.5479 14.7899 21.0761 14.8792C21.6043 14.9684 22.147 14.8782 22.6184 14.6228C23.0897 14.3674 23.4628 13.9615 23.6786 13.4692C23.8944 12.9769 23.9406 12.4264 23.8098 11.9048C23.679 11.3832 23.3787 10.9203 22.9564 10.5894C22.5342 10.2585 22.0141 10.0784 21.4786 10.0778C21.0786 10.0775 20.6848 10.1772 20.3328 10.3679C19.9807 10.5586 19.6815 10.8344 19.4621 11.1702Z" fill="#0033AD"/>
<path d="M23.6477 21.2799C23.4548 20.8958 23.1634 20.5704 22.8035 20.3372C22.4436 20.1039 22.0283 19.9714 21.6003 19.9531C21.1724 19.9349 20.7474 20.0317 20.3691 20.2334C19.9909 20.4352 19.6731 20.7347 19.4485 21.101C19.2239 21.4673 19.1008 21.8871 19.0917 22.3172C19.0826 22.7472 19.1879 23.1719 19.3968 23.5474C19.6057 23.9229 19.9106 24.2357 20.28 24.4534C20.6494 24.6711 21.07 24.7859 21.4983 24.7859C21.8751 24.7833 22.2461 24.6928 22.5822 24.5217C23.1506 24.2327 23.5819 23.7293 23.7816 23.1218C23.9813 22.5142 23.9331 21.8519 23.6477 21.2799Z" fill="#0033AD"/>
<path d="M27.8543 21.1108C27.6203 20.9566 27.3459 20.8754 27.066 20.8777C26.7861 20.88 26.5131 20.9656 26.2817 21.1237C26.0502 21.2818 25.8706 21.5052 25.7656 21.7658C25.6605 22.0264 25.6348 22.3125 25.6917 22.5877C25.7485 22.863 25.8854 23.1151 26.0849 23.3123C26.2844 23.5095 26.5377 23.6428 26.8127 23.6954C27.0877 23.748 27.3721 23.7175 27.6298 23.6078C27.8875 23.4981 28.1071 23.3142 28.2607 23.0791C28.466 22.7638 28.5385 22.3796 28.4624 22.0107C28.3862 21.6418 28.1675 21.3182 27.8543 21.1108Z" fill="#0033AD"/>
<path d="M32.4634 17.4793C32.4768 17.241 32.4196 17.004 32.2988 16.7983C32.1781 16.5926 31.9994 16.4275 31.7853 16.3238C31.5712 16.2201 31.3312 16.1824 31.0958 16.2157C30.8604 16.2489 30.64 16.3514 30.4627 16.5104C30.2853 16.6693 30.1588 16.8775 30.0992 17.1087C30.0396 17.3398 30.0496 17.5835 30.1278 17.8089C30.2061 18.0343 30.3492 18.2314 30.539 18.3752C30.7288 18.519 30.9567 18.603 31.1941 18.6167C31.5125 18.6348 31.8251 18.5251 32.0631 18.3118C32.3011 18.0986 32.4451 17.7992 32.4634 17.4793Z" fill="#0033AD"/>
<path d="M35.794 16.6194C35.6402 16.6106 35.4873 16.6477 35.3545 16.7261C35.2218 16.8045 35.1151 16.9206 35.0481 17.0599C34.9811 17.1992 34.9567 17.3553 34.978 17.5084C34.9993 17.6616 35.0654 17.805 35.1679 17.9205C35.2704 18.036 35.4046 18.1183 35.5537 18.1572C35.7028 18.196 35.86 18.1896 36.0054 18.1387C36.1509 18.0878 36.278 17.9947 36.3708 17.8713C36.4636 17.7478 36.5178 17.5995 36.5267 17.4451C36.5382 17.2381 36.4675 17.035 36.3302 16.8802C36.1929 16.7255 36 16.6317 35.794 16.6194Z" fill="#0033AD"/>
<path d="M32.6581 24.3737C32.4943 24.266 32.3023 24.2094 32.1064 24.2112C31.9105 24.213 31.7196 24.273 31.5577 24.3838C31.3959 24.4945 31.2703 24.651 31.197 24.8334C31.1236 25.0158 31.1058 25.2159 31.1457 25.4085C31.1856 25.6011 31.2814 25.7774 31.4211 25.9153C31.5608 26.0532 31.7381 26.1464 31.9305 26.1831C32.1229 26.2198 32.3219 26.1984 32.5022 26.1216C32.6825 26.0448 32.8361 25.916 32.9436 25.7516C33.0149 25.6423 33.0642 25.52 33.0885 25.3916C33.1128 25.2632 33.1116 25.1312 33.0851 25.0032C33.0586 24.8753 33.0073 24.7538 32.934 24.6458C32.8607 24.5378 32.767 24.4454 32.6581 24.3737Z" fill="#0033AD"/>
<path d="M10.5595 31.675C10.4307 31.5901 10.2798 31.5455 10.1258 31.5468C9.97182 31.5481 9.82166 31.5952 9.69433 31.6822C9.56699 31.7691 9.46819 31.8921 9.41041 32.0354C9.35264 32.1788 9.33849 32.3361 9.36975 32.4876C9.40102 32.639 9.47628 32.7777 9.58605 32.8862C9.69581 32.9947 9.83513 33.068 9.9864 33.097C10.1377 33.126 10.2941 33.1093 10.4359 33.0489C10.5777 32.9886 10.6985 32.8875 10.7831 32.7582C10.8393 32.6723 10.878 32.5762 10.8972 32.4753C10.9163 32.3744 10.9155 32.2707 10.8948 32.1701C10.874 32.0695 10.8337 31.974 10.7762 31.889C10.7186 31.8041 10.645 31.7313 10.5595 31.675Z" fill="#0033AD"/>
<path d="M26.8809 31.593C26.7433 31.6627 26.6294 31.7717 26.5536 31.9063C26.4778 32.041 26.4434 32.1952 26.4548 32.3494C26.4662 32.5037 26.5229 32.6511 26.6178 32.7729C26.7126 32.8948 26.8413 32.9857 26.9876 33.0341C27.1339 33.0825 27.2912 33.0863 27.4396 33.0449C27.588 33.0036 27.7209 32.9189 27.8214 32.8017C27.9219 32.6845 27.9856 32.54 28.0043 32.3865C28.023 32.2329 27.996 32.0773 27.9266 31.9391C27.8807 31.8474 27.8172 31.7656 27.7397 31.6985C27.6623 31.6314 27.5724 31.5803 27.4753 31.5481C27.3781 31.516 27.2756 31.5034 27.1736 31.5111C27.0716 31.5188 26.9721 31.5467 26.8809 31.593Z" fill="#0033AD"/>
<path d="M17.8362 23.7013C18.1298 23.2514 18.2655 22.716 18.222 22.1798C18.1785 21.6437 17.9581 21.1374 17.5958 20.7412C17.2335 20.345 16.7499 20.0815 16.2217 19.9923C15.6934 19.9032 15.1507 19.9935 14.6793 20.2491C14.208 20.5046 13.8349 20.9107 13.6193 21.4031C13.4037 21.8956 13.3577 22.4461 13.4887 22.9677C13.6198 23.4893 13.9203 23.9521 14.3427 24.2829C14.7652 24.6136 15.2854 24.7934 15.821 24.7938C16.221 24.7952 16.615 24.6959 16.967 24.5051C17.319 24.3143 17.6179 24.0379 17.8362 23.7013Z" fill="#0033AD"/>
<path d="M13.0258 27.4121C12.8269 27.2814 12.5938 27.2128 12.3561 27.2151C12.1184 27.2174 11.8866 27.2904 11.6902 27.425C11.4938 27.5595 11.3415 27.7495 11.2526 27.9709C11.1637 28.1923 11.1421 28.4352 11.1907 28.669C11.2392 28.9027 11.3556 29.1167 11.5253 29.284C11.6949 29.4513 11.9101 29.5643 12.1437 29.6087C12.3773 29.6532 12.6187 29.6271 12.8375 29.5338C13.0564 29.4405 13.2427 29.2841 13.3731 29.0845C13.5477 28.8164 13.6092 28.4897 13.544 28.1761C13.4789 27.8625 13.2925 27.5877 13.0258 27.4121Z" fill="#0033AD"/>
<path d="M18.6386 32.0396C18.443 32.0284 18.2486 32.0757 18.0798 32.1755C17.911 32.2753 17.7755 32.4232 17.6903 32.6003C17.6052 32.7775 17.5743 32.976 17.6014 33.1708C17.6286 33.3656 17.7128 33.5479 17.8431 33.6948C17.9735 33.8416 18.1443 33.9463 18.3339 33.9956C18.5235 34.0449 18.7234 34.0367 18.9084 33.972C19.0934 33.9072 19.255 33.7888 19.373 33.6318C19.491 33.4748 19.56 33.2862 19.5712 33.0898C19.5787 32.9593 19.5605 32.8286 19.5176 32.7052C19.4748 32.5819 19.4082 32.4681 19.3216 32.3706C19.235 32.2731 19.1301 32.1936 19.0129 32.1368C18.8957 32.08 18.7685 32.047 18.6386 32.0396Z" fill="#0033AD"/>
<path d="M18.6491 25.7806C18.3695 25.7635 18.0911 25.8302 17.8492 25.9722C17.6073 26.1141 17.4128 26.325 17.2903 26.5781C17.1678 26.8311 17.1229 27.115 17.1612 27.3937C17.1995 27.6725 17.3193 27.9335 17.5055 28.1438C17.6916 28.3541 17.9357 28.5041 18.2069 28.575C18.478 28.6459 18.764 28.6343 19.0286 28.5418C19.2932 28.4493 19.5245 28.28 19.6932 28.0554C19.8619 27.8307 19.9605 27.5609 19.9764 27.2799C19.9979 26.9045 19.8703 26.5357 19.6215 26.2546C19.3727 25.9735 19.023 25.8031 18.6491 25.7806Z" fill="#0033AD"/>
<path d="M24.4382 27.3156C24.2258 27.4239 24.0502 27.5929 23.9335 27.8015C23.8168 28.01 23.7644 28.2486 23.7828 28.4871C23.8012 28.7255 23.8897 28.9531 24.037 29.1411C24.1843 29.329 24.3838 29.4689 24.6103 29.5429C24.8368 29.6169 25.08 29.6218 25.3093 29.5569C25.5385 29.4921 25.7434 29.3603 25.8981 29.1784C26.0528 28.9965 26.1502 28.7727 26.1781 28.5351C26.206 28.2976 26.1631 28.0571 26.0548 27.844C25.9833 27.7026 25.8848 27.5768 25.7648 27.4736C25.6448 27.3705 25.5058 27.2922 25.3556 27.2431C25.2055 27.194 25.0471 27.1752 24.8897 27.1876C24.7323 27.2001 24.5789 27.2436 24.4382 27.3156Z" fill="#0033AD"/>
<path d="M53.86 12.8502C55.4054 12.8502 56.4876 13.7033 56.4876 15.2868H58.5118C58.5118 12.5087 56.4719 11.1704 53.8295 11.1704C50.5835 11.1704 48.6981 12.9404 48.6981 16.6811C48.6981 20.5145 50.5835 22.1909 53.8295 22.1909C56.5033 22.1909 58.5118 20.8876 58.5118 18.1087H56.5644C56.5644 19.6606 55.4978 20.5145 53.8609 20.5145C51.712 20.5145 50.7213 19.319 50.7213 16.8361V16.5261C50.7231 14.0913 51.7268 12.8502 53.86 12.8502Z" fill="#0033AD"/>
<path d="M63.8638 11.3595L59.737 22.0078H61.7777L62.6271 19.6947H67.4769L68.349 22.0078H70.4821L66.3527 11.3595H63.8638ZM63.2455 18.0158L64.3277 15.0967C64.544 14.523 64.9303 13.2811 65.008 13.0639H65.0847C65.1623 13.2811 65.5487 14.5379 65.7649 15.0967L66.8463 18.0149L63.2455 18.0158Z" fill="#0033AD"/>
<path d="M81.5178 14.5878C81.5178 12.6172 80.3893 11.3595 78.0556 11.3595H72.4602V22.0078H74.439V17.8914H77.7303L79.7361 22.0078H81.8998L79.6323 17.584C80.8838 17.0874 81.5178 16.032 81.5178 14.5878ZM77.9003 16.2177H74.439V13.0516H77.9003C78.9669 13.0516 79.5233 13.6262 79.5233 14.5878C79.5233 15.5976 78.9207 16.2177 77.9003 16.2177Z" fill="#0033AD"/>
<path d="M88.4579 11.3595H84.2212V22.0078H88.4561C91.655 22.0078 93.6015 20.3314 93.6015 16.6836C93.6015 13.0359 91.6567 11.3595 88.4579 11.3595ZM91.58 16.8387C91.5643 19.1675 90.4672 20.3157 88.4579 20.3157H86.2018V13.0516H88.4579C90.4637 13.0516 91.58 14.2007 91.58 16.5286V16.8387Z" fill="#0033AD"/>
<path d="M98.7851 11.3595L94.6565 22.0078H96.6964L97.5467 19.6947H102.4L103.265 22.0078H105.398L101.271 11.3595H98.7851ZM98.1667 18.0158L99.2473 15.0967C99.4635 14.523 99.8499 13.2811 99.9275 13.0639H100.006C100.083 13.2811 100.47 14.5379 100.686 15.0967L101.768 18.0149L98.1667 18.0158Z" fill="#0033AD"/>
<path d="M114.443 17.6926C114.443 17.894 114.473 18.437 114.473 18.5308L114.397 18.5614C114.35 18.5001 114.041 17.9562 113.873 17.7084L109.268 11.3595H107.38V22.0078H109.281V15.6283C109.281 15.3655 109.25 14.8523 109.25 14.7744L109.327 14.7279C109.373 14.7901 109.605 15.2403 109.85 15.5976L114.487 22.0078H116.341V11.3595H114.441V17.6926H114.443Z" fill="#0033AD"/>
<path d="M124.223 11.1739C120.9 11.1739 118.891 12.9431 118.891 16.6837C118.891 20.4244 120.896 22.1935 124.223 22.1935C127.549 22.1935 129.57 20.4244 129.57 16.6837C129.57 12.9431 127.545 11.1739 124.223 11.1739ZM127.545 16.8545C127.545 19.291 126.386 20.5172 124.223 20.5172C122.075 20.5172 120.916 19.291 120.916 16.8545V16.5287C120.916 14.0913 122.09 12.8503 124.223 12.8503C126.371 12.8503 127.545 14.0913 127.545 16.5287V16.8545Z" fill="#0033AD"/>
</svg>
