<svg width="127" height="27" viewBox="0 0 127 27" fill="none" xmlns="http://www.w3.org/2000/svg">
<g clip-path="url(#clip0)">
<path d="M34.3575 8.92358H35.7381L39.6014 17.9868H37.7774L36.9415 15.913H33.0529L32.2423 17.9868H30.4563L34.3575 8.92358ZM36.3841 14.5305L35.0035 10.8438L33.5975 14.5305H36.3841Z" fill="black"/>
<path d="M41.3132 8.92358H43.1498L45.5944 15.7722L48.1149 8.92358H49.8378L46.2151 17.9868H44.8346L41.3132 8.92358Z" fill="black"/>
<path d="M55.5412 8.92358H56.9221L60.785 17.9868H58.9611L58.1253 15.913H54.2366L53.4259 17.9868H51.6401L55.5412 8.92358ZM57.5679 14.5305L56.1873 10.8438L54.7813 14.5305H57.5679Z" fill="black"/>
<path d="M64.3152 8.92358H65.9112V16.5275H69.7237V17.9868H64.3152V8.92358Z" fill="black"/>
<path d="M76.3171 8.92358H77.698L81.5609 17.9868H79.737L78.9012 15.913H75.0125L74.2021 17.9868H72.416L76.3171 8.92358ZM78.3437 14.5305L76.9632 10.8438L75.5572 14.5305H78.3437Z" fill="black"/>
<path d="M85.0908 8.92358H87.2061L91.5505 15.657H91.576V8.92358H93.1716V17.9868H91.1454L86.7119 11.0358H86.6869V17.9868H85.0908V8.92358Z" fill="black"/>
<path d="M103.861 11.0488C103.532 10.6903 103.211 10.4514 102.898 10.3319C102.595 10.2125 102.286 10.1527 101.974 10.1527C101.509 10.1527 101.087 10.238 100.707 10.4087C100.336 10.5709 100.015 10.8013 99.7444 11.1C99.4744 11.3902 99.2633 11.7315 99.111 12.1241C98.9675 12.5166 98.8959 12.9391 98.8959 13.3914C98.8959 13.8779 98.9675 14.3259 99.111 14.7355C99.2633 15.1452 99.4744 15.4993 99.7444 15.798C100.015 16.0967 100.336 16.3314 100.707 16.5021C101.087 16.6728 101.509 16.7581 101.974 16.7581C102.337 16.7581 102.687 16.6728 103.025 16.5021C103.371 16.3229 103.692 16.0412 103.988 15.6572L105.305 16.6045C104.9 17.1678 104.406 17.5774 103.823 17.8334C103.24 18.0895 102.62 18.2174 101.961 18.2174C101.268 18.2174 100.631 18.1065 100.049 17.8846C99.4744 17.6542 98.9762 17.3342 98.5539 16.9245C98.14 16.5063 97.8147 16.0071 97.5786 15.4268C97.342 14.8465 97.2239 14.2021 97.2239 13.4938C97.2239 12.7684 97.342 12.1113 97.5786 11.5224C97.8147 10.9251 98.14 10.4173 98.5539 9.99911C98.9762 9.58094 99.4744 9.2609 100.049 9.03899C100.631 8.80857 101.268 8.69336 101.961 8.69336C102.569 8.69336 103.131 8.80431 103.646 9.02622C104.169 9.23956 104.655 9.60653 105.102 10.1271L103.861 11.0488Z" fill="black"/>
<path d="M108.909 8.92358H110.505V12.5335H114.698V8.92358H116.294V17.9868H114.698V13.9929H110.505V17.9868H108.909V8.92358Z" fill="black"/>
<path d="M120.831 8.92358H126.771V10.3829H122.427V12.6103H126.543V14.0697H122.427V16.5275H126.999V17.9868H120.831V8.92358Z" fill="black"/>
<path fill-rule="evenodd" clip-rule="evenodd" d="M12.8697 26.4475C19.9738 26.4475 25.7327 20.6272 25.7327 13.4475C25.7327 6.26781 19.9738 0.44751 12.8697 0.44751C5.76568 0.44751 0.00671387 6.26781 0.00671387 13.4475C0.00671387 20.6272 5.76568 26.4475 12.8697 26.4475ZM8.9831 19.3371H5.96556C5.25012 19.3371 4.89238 19.3371 4.67815 19.197C4.44661 19.0457 4.30053 18.7918 4.28506 18.5138C4.2707 18.2565 4.44788 17.9427 4.80224 17.3154L11.4091 5.61757C11.7687 4.98087 11.9485 4.66252 12.1773 4.54402C12.4244 4.41599 12.7175 4.41577 12.9648 4.54345C13.1938 4.6616 13.374 4.97971 13.7345 5.61584L15.2583 8.30457C15.5204 8.76711 15.6515 8.9985 15.7092 9.2425C15.7719 9.50817 15.772 9.78493 15.7095 10.0506C15.6521 10.2947 15.5212 10.5261 15.2594 10.989L11.3087 17.974C11.0431 18.4436 10.9103 18.6784 10.7283 18.8539C10.5303 19.0449 10.2901 19.1857 10.0276 19.2646C9.78642 19.3371 9.51866 19.3371 8.9831 19.3371ZM19.7488 19.3371H16.2503C15.5284 19.3371 15.1674 19.3371 14.9525 19.1958C14.7203 19.0432 14.5746 18.7874 14.5609 18.508C14.5482 18.2495 14.7298 17.9344 15.0932 17.3045L16.8395 14.2764C17.1983 13.6544 17.3777 13.3434 17.6048 13.2269C17.8502 13.101 18.1405 13.1008 18.3861 13.2263C18.6134 13.3425 18.7932 13.6532 19.1528 14.2746L20.905 17.3028C21.2697 17.9331 21.4521 18.2483 21.4396 18.5071C21.4262 18.7867 21.2806 19.0428 21.0483 19.1957C20.8333 19.3371 20.4718 19.3371 19.7488 19.3371Z" fill="#E84142"/>
</g>
<defs>
<clipPath id="clip0">
<rect width="127" height="26" fill="white" transform="translate(0 0.44751)"/>
</clipPath>
</defs>
</svg>
