<svg width="68" height="27" viewBox="0 0 68 27" fill="none" xmlns="http://www.w3.org/2000/svg">
<path d="M37.4059 8.72116C38.379 9.69253 38.9197 10.9877 38.8115 12.2829V20.2697H36.7572V12.9304C36.8653 11.9591 36.5409 10.9877 36.0003 10.1243C35.3515 9.58461 34.5946 9.26081 33.7296 9.26081C33.0809 9.26081 32.4321 9.36874 31.8915 9.69253C31.2428 10.0163 30.7021 10.448 30.3778 11.0956C30.0534 11.8511 29.8371 12.7146 29.8371 13.578V20.2697H27.8909V8.18152L29.729 8.93703V9.69253C30.0534 8.93702 30.7021 8.39737 31.459 8.07359C32.2159 7.7498 33.0809 7.53394 33.9459 7.53394C35.2434 7.53394 36.4328 7.96566 37.4059 8.72116Z" fill="#000033"/>
<path d="M52.9758 14.7649H43.5688C43.5688 15.8442 44.1095 16.9235 44.8663 17.679C45.6232 18.4345 46.5964 18.8663 47.6776 18.7583C48.4345 18.7583 49.1914 18.5425 49.9482 18.3266C50.4889 18.0028 50.9214 17.5711 51.1376 16.9235L52.8676 17.787C52.327 18.6504 51.6782 19.298 50.8132 19.8376C49.8401 20.2693 48.7589 20.4852 47.6776 20.4852C46.0557 20.5931 44.4338 19.9456 43.2445 18.7583C42.0551 17.4632 41.5145 15.7363 41.6226 14.0094C41.5145 12.2825 42.0551 10.6636 43.1363 9.2605C44.3257 8.07327 45.9476 7.42569 47.5695 7.53362C48.6507 7.53362 49.6239 7.74948 50.4889 8.28913C51.3539 8.82878 52.0026 9.58429 52.4351 10.4477C52.8676 11.3112 53.0839 12.3905 53.0839 13.3618C53.0839 13.9015 53.0839 14.3332 52.9758 14.7649ZM44.8663 10.2319C44.2176 10.9874 43.677 11.9587 43.5688 13.038H51.1376C51.1376 11.9587 50.7051 10.9874 50.0564 10.2319C49.4076 9.58429 48.5426 9.2605 47.5695 9.2605C46.5964 9.2605 45.6232 9.58429 44.8663 10.2319Z" fill="#000033"/>
<path d="M66.3835 9.2605C67.4648 10.6636 68.0054 12.2825 67.8973 14.0094C68.0054 15.7363 67.4648 17.4632 66.3835 18.7583C65.1941 19.9456 63.5723 20.5931 61.9504 20.4852C60.3285 20.5931 58.5985 19.9456 57.5172 18.7583C56.3279 17.4632 55.7872 15.7363 55.8954 14.0094C55.7872 12.2825 56.3279 10.5557 57.5172 9.2605C58.5985 8.07327 60.3285 7.42569 61.9504 7.53362C63.6804 7.53362 65.3023 8.07327 66.3835 9.2605ZM58.9229 10.5557C58.166 11.527 57.7335 12.7143 57.8416 14.0094C57.7335 15.3046 58.166 16.4918 58.9229 17.4632C59.6797 18.3266 60.761 18.7583 61.9504 18.7583C63.0316 18.7583 64.1129 18.3266 64.8698 17.4632C65.6266 16.4918 66.0591 15.3046 65.951 14.0094C66.0591 12.7143 65.6266 11.527 64.8698 10.5557C64.1129 9.69222 63.0316 9.2605 61.9504 9.2605C60.8691 9.2605 59.6797 9.69222 58.9229 10.5557Z" fill="#000033"/>
<path d="M0.751343 5.15977V22.4285L11.9964 26.5299V9.04524L24.2145 4.51219L13.0776 0.626709L0.751343 5.15977Z" fill="#00E599"/>
<path d="M12.8611 9.69291V18.9749L24.2142 23.0762V5.48364L12.8611 9.69291Z" fill="#00AF92"/>
</svg>
