<svg width="65" height="18" viewBox="0 0 65 18" fill="none" xmlns="http://www.w3.org/2000/svg">
<g clip-path="url(#clip0)">
<path d="M32.538 3.99877V13.9154C32.538 13.991 32.4809 14.0665 32.3859 14.0665H31.3406C30.8654 14.0665 30.4093 13.821 30.1432 13.4243L25.4298 6.18988L25.5818 9.79766V13.9343C25.5818 14.0099 25.5248 14.0854 25.4298 14.0854H24.0613C23.9853 14.0854 23.9093 14.0288 23.9093 13.9343V3.99877C23.9093 3.92321 23.9663 3.84766 24.0613 3.84766H25.0877C25.5628 3.84766 26.019 4.09321 26.285 4.48988L30.9985 11.7054L30.8464 8.09766V3.99877C30.8464 3.92321 30.9035 3.84766 30.9985 3.84766H32.3669C32.4809 3.84766 32.538 3.90432 32.538 3.99877V3.99877Z" fill="black"/>
<path d="M46.5643 14.0477H45.1198C45.0248 14.0477 44.9488 13.9532 44.9868 13.8588L48.826 3.97988C48.864 3.90432 48.94 3.84766 49.016 3.84766H50.8406C50.9356 3.84766 51.0117 3.90432 51.0307 3.97988L54.8889 13.8588C54.9269 13.9532 54.8508 14.0477 54.7558 14.0477H53.3114C53.2544 14.0477 53.1973 14.0099 53.1783 13.9532L50.0804 5.83099C50.0424 5.71766 49.8523 5.71766 49.8143 5.83099L46.7163 13.9532C46.6783 14.0099 46.6213 14.0477 46.5643 14.0477V14.0477Z" fill="black"/>
<path d="M64.962 13.821L62.0731 10.1565C63.7076 9.85433 64.6579 8.75877 64.6579 7.07766C64.6579 5.15099 63.4035 3.84766 61.1608 3.84766H57.1316C57.0175 3.84766 56.9225 3.9421 56.9225 4.05543C56.9225 4.81099 57.5307 5.41543 58.2909 5.41543H61.0087C62.3582 5.41543 63.0044 6.09543 63.0044 7.09655C63.0044 8.09766 62.3772 8.77766 61.0087 8.77766H57.1696C57.0555 8.77766 56.9605 8.8721 56.9605 8.98544V13.8965C56.9605 13.9721 57.0175 14.0477 57.1125 14.0477H58.481C58.557 14.0477 58.633 13.991 58.633 13.8965V10.251H60.2105L62.7193 13.4999C62.9854 13.8588 63.4035 14.0477 63.8596 14.0477H64.9049C64.981 14.0477 65.038 13.9154 64.962 13.821V13.821Z" fill="black"/>
<path d="M42.231 3.84766H35.864C35.75 3.84766 35.674 3.92321 35.674 4.03655C35.674 4.7921 36.3011 5.41543 37.0614 5.41543H42.231C42.307 5.41543 42.383 5.35877 42.383 5.26432V3.97988C42.364 3.90432 42.307 3.84766 42.231 3.84766ZM42.231 12.4799H37.4795C37.4035 12.4799 37.3275 12.4232 37.3275 12.3288V9.77877C37.3275 9.70321 37.3845 9.62766 37.4795 9.62766H41.8699C41.9459 9.62766 42.0219 9.57099 42.0219 9.47655V8.1921C42.0219 8.11655 41.9649 8.04099 41.8699 8.04099H35.883C35.769 8.04099 35.674 8.13543 35.674 8.24877V13.821C35.674 13.9343 35.769 14.0288 35.883 14.0288H42.231C42.307 14.0288 42.383 13.9721 42.383 13.8777V12.5932C42.364 12.5365 42.307 12.4799 42.231 12.4799V12.4799Z" fill="black"/>
<path d="M13.7222 1.3164L10.1491 6.5864C9.90205 6.94529 10.3772 7.37973 10.7193 7.07751L14.2354 4.0364C14.3304 3.96084 14.4635 4.01751 14.4635 4.14973V13.6508C14.4635 13.7831 14.2924 13.8397 14.2164 13.7453L3.5731 1.08973C3.23099 0.674176 2.73684 0.44751 2.18567 0.44751H1.80556C0.817252 0.44751 0 1.25973 0 2.26084V15.6342C0 16.6353 0.817252 17.4475 1.82456 17.4475C2.45175 17.4475 3.04094 17.1264 3.38304 16.5786L6.95614 11.3086C7.20322 10.9497 6.72807 10.5153 6.38596 10.8175L2.86988 13.8397C2.77485 13.9153 2.64181 13.8586 2.64181 13.7264V4.24418C2.64181 4.11195 2.81287 4.05529 2.88889 4.14973L13.5322 16.8053C13.8743 17.2208 14.3874 17.4475 14.9196 17.4475H15.2997C16.307 17.4475 17.1243 16.6353 17.1243 15.6342V2.26084C17.1053 1.25973 16.288 0.44751 15.2807 0.44751C14.6535 0.44751 14.0643 0.768621 13.7222 1.3164V1.3164Z" fill="black"/>
</g>
<defs>
<clipPath id="clip0">
<rect width="65" height="17" fill="white" transform="translate(0 0.44751)"/>
</clipPath>
</defs>
</svg>
