<svg width="122" height="40" viewBox="0 0 122 40" fill="none" xmlns="http://www.w3.org/2000/svg">
<g clip-path="url(#clip0)">
<g opacity="0.6">
<path opacity="0.6" d="M14.7223 14.8403L2.86865 20.2752L14.7223 27.3354L26.5714 20.2752L14.7223 14.8403Z" fill="#010101"/>
</g>
<g opacity="0.45">
<path opacity="0.45" d="M2.86865 20.2752L14.7223 27.3354V0.44751L2.86865 20.2752Z" fill="#010101"/>
</g>
<g opacity="0.8">
<path opacity="0.8" d="M14.7223 0.44751V27.3354L26.5713 20.2752L14.7223 0.44751Z" fill="#010101"/>
</g>
<g opacity="0.45">
<path opacity="0.45" d="M2.86865 22.5393L14.7223 39.3748V29.5995L2.86865 22.5393Z" fill="#010101"/>
</g>
<g opacity="0.8">
<path opacity="0.8" d="M14.7223 29.5995V39.3748L26.5806 22.5393L14.7223 29.5995Z" fill="#010101"/>
</g>
</g>
<path d="M40.1231 21.9159C40.1231 22.1191 39.9569 22.2845 39.7585 22.2845H32.7338C32.9092 24.0612 34.2154 25.682 36.0523 25.682C37.3077 25.682 38.24 25.1906 38.9415 24.1652C39.0431 24.0234 39.1954 23.9336 39.3892 24.0187C39.4954 24.0659 39.5692 24.1652 39.5877 24.2786C39.6062 24.3967 39.5738 24.4629 39.5415 24.529C38.8354 25.7907 37.4277 26.4097 36.0477 26.4097C33.6846 26.4097 32 24.2455 32 21.9301C32 19.6147 33.6846 17.4505 36.0477 17.4505C38.4108 17.4457 40.1185 19.6052 40.1231 21.9159V21.9159ZM39.3708 21.5662C39.2185 19.7895 37.8892 18.1687 36.0523 18.1687C34.2154 18.1687 32.9092 19.7895 32.7338 21.5662H39.3708ZM48.6477 17.6253C48.8508 17.6253 48.9985 17.8049 48.9985 17.9844C48.9985 18.1923 48.8462 18.3436 48.6477 18.3436H46.7646V25.9088C46.7646 26.0884 46.6123 26.2679 46.4138 26.2679C46.2108 26.2679 46.0631 26.0884 46.0631 25.9088V18.3436H44.2538C44.0508 18.3436 43.9031 18.1876 43.9031 17.9844C43.9031 17.8049 44.0554 17.6253 44.2538 17.6253H46.0631V14.8563C46.0631 14.6814 46.1785 14.5208 46.3446 14.4924C46.58 14.4546 46.7646 14.62 46.7646 14.8468V17.6253H48.6477ZM60.1354 21.2827V25.8663C60.1354 26.0742 59.96 26.2254 59.7846 26.2254C59.5815 26.2254 59.4338 26.0695 59.4338 25.8663V21.2827C59.4338 19.7375 58.58 18.1923 56.8954 18.1923C54.7354 18.1923 53.8031 20.125 53.9277 22.1049C53.9277 22.1569 53.9508 22.3884 53.9508 22.4121V25.8521C53.9508 26.027 53.8354 26.1876 53.6692 26.216C53.4338 26.2538 53.2492 26.0884 53.2492 25.8616V10.8066C53.2492 10.6271 53.4015 10.4475 53.6 10.4475C53.8031 10.4475 53.9508 10.6271 53.9508 10.8066V19.3264C54.5554 18.2207 55.6354 17.4741 56.8908 17.4741C58.9538 17.4741 60.1354 19.3264 60.1354 21.2827V21.2827ZM72.7308 21.9159C72.7308 22.1191 72.5646 22.2845 72.3662 22.2845H65.3369C65.5123 24.0612 66.8185 25.682 68.6554 25.682C69.9108 25.682 70.8431 25.1906 71.5446 24.1652C71.6462 24.0234 71.7985 23.9336 71.9923 24.0187C72.0985 24.0659 72.1723 24.1652 72.1908 24.2786C72.2092 24.3967 72.1769 24.4629 72.1446 24.529C71.4385 25.7907 70.0308 26.4097 68.6508 26.4097C66.2877 26.4097 64.6031 24.2455 64.6031 21.9301C64.6031 19.6147 66.2877 17.4505 68.6508 17.4505C71.0185 17.4457 72.7262 19.6052 72.7308 21.9159V21.9159ZM71.9738 21.5662C71.8215 19.7895 70.4923 18.1687 68.6554 18.1687C66.8185 18.1687 65.5123 19.7895 65.3369 21.5662H71.9738ZM81.3523 17.9608C81.3523 18.1923 81.2277 18.3199 81.0246 18.3483C78.9615 18.6554 78.0338 20.3802 78.0338 22.3884V25.8285C78.0338 26.0033 77.9185 26.164 77.7523 26.1923C77.5169 26.2301 77.3323 26.0648 77.3323 25.8379V17.9986C77.3323 17.8238 77.4477 17.6631 77.6138 17.6348C77.8492 17.5969 78.0338 17.7623 78.0338 17.9892V19.5863C78.6108 18.5845 79.7692 17.63 80.9738 17.63C81.1492 17.6253 81.3523 17.7576 81.3523 17.9608V17.9608ZM92.8908 21.9159C92.8908 22.1191 92.7246 22.2845 92.5262 22.2845H85.5015C85.6769 24.0612 86.9831 25.682 88.82 25.682C90.0754 25.682 91.0077 25.1906 91.7092 24.1652C91.8108 24.0234 91.9631 23.9336 92.1569 24.0187C92.2631 24.0659 92.3369 24.1652 92.3554 24.2786C92.3738 24.3967 92.3415 24.4629 92.3092 24.529C91.6031 25.7907 90.1954 26.4097 88.8154 26.4097C86.4523 26.4097 84.7677 24.2455 84.7677 21.9301C84.7677 19.6147 86.4523 17.4505 88.8154 17.4505C91.1785 17.4457 92.8862 19.6052 92.8908 21.9159V21.9159ZM92.1385 21.5662C91.9862 19.7895 90.6569 18.1687 88.82 18.1687C86.9831 18.1687 85.6769 19.7895 85.5015 21.5662H92.1385V21.5662ZM104.231 18.0506V25.9088C104.231 26.1167 104.055 26.2679 103.88 26.2679C103.677 26.2679 103.529 26.112 103.529 25.9088V24.4156C102.952 25.6017 101.918 26.4475 100.612 26.4475C98.5262 26.4475 97.3677 24.5952 97.3677 22.6389V18.0317C97.3677 17.8521 97.52 17.6726 97.7185 17.6726C97.9215 17.6726 98.0692 17.8521 98.0692 18.0317V22.6389C98.0692 24.1841 98.9231 25.7293 100.608 25.7293C102.971 25.7293 103.525 23.4658 103.525 20.9661V18.0317C103.525 17.8238 103.728 17.6111 103.977 17.6867C104.129 17.7387 104.231 17.8899 104.231 18.0506V18.0506ZM122 21.2544V25.8616C122 26.0695 121.825 26.2207 121.649 26.2207C121.446 26.2207 121.298 26.0648 121.298 25.8616V21.2544C121.298 19.7092 120.445 18.1923 118.76 18.1923C116.646 18.1923 115.843 20.5078 115.843 22.3081V25.8616C115.843 26.0695 115.668 26.2207 115.492 26.2207C115.289 26.2207 115.142 26.0648 115.142 25.8616V21.2544C115.142 19.7092 114.288 18.1923 112.603 18.1923C110.466 18.1923 109.585 19.9171 109.663 22.2089C109.663 22.2609 109.686 22.3648 109.663 22.3884V25.8521C109.663 26.027 109.548 26.1876 109.377 26.216C109.142 26.2538 108.957 26.0884 108.957 25.8616V17.9986C108.957 17.8238 109.072 17.6631 109.238 17.6348C109.474 17.5969 109.658 17.7623 109.658 17.9892V19.3028C110.263 18.1971 111.343 17.4741 112.598 17.4741C114.029 17.4741 115.137 18.4003 115.589 19.7659C116.166 18.4286 117.297 17.4741 118.755 17.4741C120.818 17.4741 122 19.2981 122 21.2544" fill="#3C3C3B"/>
<defs>
<clipPath id="clip0">
<rect width="32" height="39" fill="white" transform="translate(0 0.44751)"/>
</clipPath>
</defs>
</svg>
