<svg width="88" height="23" viewBox="0 0 88 23" fill="none" xmlns="http://www.w3.org/2000/svg">
<path d="M22.332 2.9325L19.2011 4.55878L4.08246 12.4098C4.03133 12.0122 4.00561 11.6117 4.00545 11.2108C4.00752 9.6111 4.41947 8.0397 5.20051 6.65226C5.98154 5.26481 7.10456 4.10947 8.45832 3.30068C9.81208 2.49188 11.3496 2.05768 12.9186 2.04111C14.4876 2.02453 16.0336 2.42614 17.4035 3.20616L19.1956 2.27526L19.4629 2.13619C17.8213 0.921404 15.8821 0.193026 13.8599 0.0315571C11.8376 -0.129912 9.81088 0.281814 8.00377 1.22123C6.19665 2.16065 4.67948 3.59117 3.61995 5.3547C2.56041 7.11824 1.99977 9.1461 1.99997 11.2142C1.99997 11.4998 2.01061 11.7843 2.03188 12.0677C2.06167 12.469 1.97437 12.8703 1.78097 13.2212C1.58757 13.572 1.29671 13.8567 0.944983 14.0394L0 14.5306V16.822L2.78214 15.3763L3.68312 14.9075L4.5709 14.4465L20.5091 6.16711L22.3001 5.23732L26.0019 3.31383V1.02359L22.332 2.9325Z" fill="black"/>
<path d="M26.0019 5.60791L5.47628 16.2628L3.68532 17.1948L0 19.1094V21.3985L3.66002 19.4974L6.79089 17.8711L21.9249 10.0089C21.9761 10.4091 22.0018 10.8122 22.0019 11.2158C22.001 12.8173 21.5891 14.3908 20.8073 15.7799C20.0255 17.169 18.9009 18.3255 17.5452 19.1346C16.1895 19.9436 14.6498 20.3771 13.079 20.392C11.5082 20.4068 9.96086 20.0025 8.59065 19.2193L8.48064 19.2787L6.53787 20.2881C8.17913 21.5029 10.1179 22.2315 12.1398 22.3934C14.1618 22.5553 16.1883 22.1441 17.9954 21.2053C19.8025 20.2665 21.3199 18.8367 22.3799 17.0738C23.4399 15.3109 24.0012 13.2835 24.0019 11.2158C24.0019 10.9275 23.9909 10.6393 23.97 10.3544C23.9403 9.95323 24.0275 9.55205 24.2206 9.20124C24.4138 8.85044 24.7044 8.56566 25.0558 8.38267L26.0019 7.89142V5.60791Z" fill="black"/>
<path d="M56.9179 7.19824C53.7783 7.19824 51.3427 9.55354 51.3427 13.2738C51.3427 16.7361 53.3503 19.3931 56.9817 19.3931C59.7804 19.3931 61.6165 17.7163 62.1291 15.7121H60.1214C59.6308 16.8662 58.6913 17.6501 56.9817 17.6501C55.2942 17.6501 53.4999 16.431 53.4361 13.9052H62.2787C62.5141 10.1816 60.4416 7.19824 56.9179 7.19824ZM53.457 12.206C53.6287 9.85075 55.2084 8.8963 56.9179 8.8963C58.9894 8.8963 60.1643 10.5517 60.2281 12.206H53.457Z" fill="black"/>
<path d="M39.5221 10.0504L37.7333 9.63652C36.2757 9.30902 35.2031 8.61365 35.2031 7.21954C35.2031 5.45531 37.2933 4.91135 38.4924 4.91135C40.0325 4.91135 41.8246 5.54279 42.3372 7.34964H44.4527C43.8322 4.3214 41.3724 3.03833 38.5782 3.03833C36.0788 3.03833 32.982 4.32365 32.982 7.34964C32.982 9.9629 35.0964 11.1832 37.2328 11.6621L39.1634 12.0759C41.1073 12.5335 42.4956 13.1863 42.4956 14.863C42.4956 16.4332 41.1931 17.52 38.8862 17.52C36.4726 17.52 35.0205 16.3872 34.6145 14.2103H32.4738C32.8797 17.3507 35.1866 19.393 38.8389 19.393C41.9192 19.393 44.7343 17.7376 44.7343 14.6668C44.7343 11.4882 41.8939 10.573 39.5221 10.0504Z" fill="black"/>
<path d="M48.9081 4.45386H46.9642V7.39349H45.1479V8.98387H46.9642V16.1698C46.9642 18.6092 47.4768 19.1094 49.677 19.1094H51.0863V17.4551H50.1039C48.9928 17.4551 48.9081 17.15 48.9081 15.9309V8.98387H51.0863V7.39349H48.9081V4.45386Z" fill="black"/>
<path d="M87.4236 7.32822C85.9065 7.39328 84.7536 8.11332 84.1772 9.44014V7.39328H82.2751V19.1092H84.219V12.9686C84.219 10.3553 85.1167 9.37957 86.9109 9.37957C87.2756 9.37968 87.6398 9.40893 88 9.46706V7.34953C87.8083 7.33255 87.6159 7.32544 87.4236 7.32822Z" fill="black"/>
<path d="M80.405 14.6927L80.4259 11.9919C80.4479 8.65974 79.0805 7.15796 75.855 7.15796C73.6339 7.15796 71.4117 8.57338 71.2412 11.0992H73.2489C73.3347 9.64111 74.2533 8.76965 75.8759 8.76965C77.3291 8.76965 78.482 9.46615 78.482 11.6218V11.9044C73.7835 12.4282 70.7076 13.2503 70.7076 16.0206C70.7076 18.1762 72.5019 19.3965 74.6592 19.3965C76.7098 19.3965 77.8847 18.7236 78.5887 17.5022C78.6053 18.0417 78.6553 18.5796 78.7384 19.1128H80.7031C80.4688 17.999 80.383 16.6711 80.405 14.6927ZM78.6316 14.2137C78.6316 16.9784 76.9023 17.8286 75.086 17.8286C73.6977 17.8286 72.8649 17.0883 72.8649 15.9769C72.8649 14.3652 75.1069 13.8212 78.6316 13.4724V14.2137Z" fill="black"/>
<path d="M65.5305 3.31323H63.5867V19.1094H65.5305V3.31323Z" fill="black"/>
<path d="M69.4171 3.31323H67.4733V19.1094H69.4171V3.31323Z" fill="black"/>
</svg>
