<svg width="88" height="27" viewBox="0 0 88 27" fill="none" xmlns="http://www.w3.org/2000/svg">
<path d="M22.9178 6.21205C22.8233 6.12013 22.7693 6.01508 22.7693 5.8969C22.7693 5.77872 22.8233 5.67367 22.9178 5.58175C23.1202 5.41104 23.4171 5.41104 23.6061 5.58175C23.7006 5.67367 23.7546 5.77872 23.7546 5.8969C23.7546 6.01508 23.7006 6.12013 23.6061 6.21205C23.5116 6.29084 23.3767 6.33023 23.2552 6.33023C23.1337 6.35649 23.0122 6.30397 22.9178 6.21205ZM21.703 7.45952C21.6221 7.3676 21.5816 7.26255 21.5816 7.14437C21.5816 7.02619 21.6356 6.92114 21.703 6.82922C21.8785 6.65851 22.1754 6.65851 22.3509 6.82922C22.4319 6.92114 22.4724 7.02619 22.4724 7.14437C22.4724 7.26255 22.4184 7.3676 22.3509 7.45952C22.2564 7.53831 22.1484 7.5777 22.027 7.5777C21.9055 7.5777 21.7975 7.53831 21.703 7.45952ZM20.3803 8.69387C20.2994 8.61508 20.2589 8.4969 20.2589 8.37871C20.2589 8.26053 20.3129 8.15548 20.3803 8.06356C20.5558 7.89286 20.8527 7.89286 21.0282 8.06356C21.1092 8.14235 21.1497 8.26053 21.1497 8.37871C21.1497 8.4969 21.0957 8.60195 21.0282 8.69387C20.9337 8.78578 20.8257 8.81205 20.7043 8.81205C20.5828 8.81205 20.4613 8.77265 20.3803 8.69387ZM19.1251 9.92821C19.0306 9.84942 18.9767 9.73124 18.9767 9.61306C18.9767 9.49488 19.0306 9.38983 19.1251 9.29791C19.3276 9.1272 19.6245 9.1272 19.8135 9.29791C19.9079 9.37669 19.9619 9.49488 19.9619 9.61306C19.9619 9.73124 19.9079 9.84942 19.8135 9.92821C19.719 10.0201 19.584 10.0464 19.4625 10.0464C19.3411 10.0464 19.2196 10.0201 19.1251 9.92821ZM17.9104 11.1494C17.8159 11.0706 17.7889 10.9525 17.7889 10.8343C17.7889 10.7161 17.8429 10.611 17.9104 10.5191C18.0859 10.3484 18.3828 10.3484 18.5583 10.5191C18.6527 10.5979 18.6797 10.7161 18.6797 10.8343C18.6797 10.9525 18.6257 11.0706 18.5583 11.1494C18.4773 11.2413 18.3558 11.2676 18.2343 11.2676C18.0994 11.2939 17.9779 11.2545 17.9104 11.1494ZM16.4392 12.0686C16.4392 11.9504 16.4932 11.8454 16.5607 11.7535C16.7362 11.5828 17.0331 11.5828 17.2086 11.7535C17.303 11.8454 17.33 11.9504 17.33 12.0686C17.33 12.1868 17.276 12.2918 17.2086 12.3838C17.1276 12.4626 17.0061 12.5019 16.8846 12.5019C16.7632 12.5019 16.6552 12.4494 16.5607 12.3838C16.4932 12.3181 16.4392 12.1868 16.4392 12.0686ZM14.0908 14.7999C14.0098 14.7211 13.9693 14.603 13.9693 14.4848C13.9693 14.3666 14.0233 14.2615 14.0908 14.1696C14.2662 13.9989 14.5632 13.9989 14.7386 14.1696C14.8331 14.2615 14.8601 14.3666 14.8601 14.4848C14.8601 14.603 14.8061 14.708 14.7386 14.7999C14.6576 14.8918 14.5362 14.9181 14.4147 14.9181C14.2797 14.9444 14.1852 14.8918 14.0908 14.7999ZM12.7681 16.0343C12.6736 15.9555 12.6196 15.8373 12.6196 15.7191C12.6196 15.6009 12.6736 15.4959 12.7681 15.404C12.9705 15.2333 13.2675 15.2333 13.4564 15.404C13.5509 15.4959 13.6049 15.6009 13.6049 15.7191C13.6049 15.8373 13.5509 15.9424 13.4564 16.0343C13.3619 16.1262 13.227 16.1525 13.1055 16.1525C12.9975 16.1787 12.876 16.1262 12.7681 16.0343ZM11.5533 17.2817C11.4724 17.203 11.4319 17.0848 11.4319 16.9666C11.4319 16.8484 11.4859 16.7302 11.5533 16.6514C11.7288 16.4807 12.0257 16.4807 12.2012 16.6514C12.2822 16.7302 12.3227 16.8484 12.3227 16.9666C12.3227 17.0848 12.2687 17.1898 12.2012 17.2817C12.1067 17.3737 11.9987 17.3999 11.8773 17.3999C11.7558 17.3999 11.6613 17.3605 11.5533 17.2817ZM10.2981 18.5161C10.2037 18.4373 10.1767 18.3191 10.1767 18.2009C10.1767 18.0828 10.2306 17.9777 10.2981 17.8858C10.4736 17.7151 10.7705 17.7151 10.946 17.8858C11.027 17.9777 11.0675 18.0828 11.0675 18.2009C11.0675 18.3191 11.0135 18.4373 10.946 18.5161C10.8515 18.608 10.7435 18.6343 10.6221 18.6343C10.4871 18.6343 10.3656 18.608 10.2981 18.5161ZM8.97543 19.7504C8.88095 19.6716 8.82697 19.5535 8.82697 19.4353C8.82697 19.3171 8.88095 19.2121 8.97543 19.1201C9.17789 18.9494 9.47482 18.9494 9.65028 19.1201C9.74476 19.2121 9.79875 19.3171 9.79875 19.4353C9.79875 19.5535 9.74476 19.6716 9.65028 19.7504C9.5558 19.8292 9.42083 19.8686 9.29936 19.8686C9.17789 19.8686 9.05641 19.8424 8.97543 19.7504ZM7.73372 20.9716C7.63924 20.8797 7.61224 20.7747 7.61224 20.6565C7.61224 20.5383 7.66623 20.4333 7.73372 20.3413C7.90918 20.1706 8.20611 20.1706 8.38157 20.3413C8.47605 20.4333 8.50304 20.5383 8.50304 20.6565C8.50304 20.7747 8.44905 20.8797 8.38157 20.9716C8.30059 21.0504 8.17911 21.0898 8.05764 21.0898C7.96316 21.1161 7.84169 21.0767 7.73372 20.9716ZM8.38157 6.21205C8.46255 6.12013 8.50304 6.01508 8.50304 5.8969C8.50304 5.77872 8.44905 5.67367 8.38157 5.58175C8.20611 5.41104 7.90918 5.41104 7.73372 5.58175C7.63924 5.67367 7.61224 5.77872 7.61224 5.8969C7.61224 6.01508 7.66623 6.12013 7.73372 6.21205C7.8147 6.29084 7.93617 6.33023 8.05764 6.33023C8.17911 6.35649 8.30059 6.30397 8.38157 6.21205ZM9.65028 7.45952C9.74476 7.3676 9.79875 7.26255 9.79875 7.14437C9.79875 7.02619 9.74476 6.92114 9.65028 6.82922C9.44783 6.65851 9.15089 6.65851 8.96194 6.82922C8.86746 6.92114 8.81347 7.02619 8.81347 7.14437C8.81347 7.26255 8.86746 7.3676 8.96194 7.45952C9.05641 7.53831 9.19138 7.5777 9.31286 7.5777C9.42083 7.5777 9.5423 7.53831 9.65028 7.45952ZM10.9325 8.69387C11.0135 8.61508 11.054 8.4969 11.054 8.37871C11.054 8.26053 11 8.15548 10.9325 8.06356C10.757 7.89286 10.4601 7.89286 10.2846 8.06356C10.2037 8.14235 10.1632 8.26053 10.1632 8.37871C10.1632 8.4969 10.2172 8.60195 10.2846 8.69387C10.3791 8.78578 10.4871 8.81205 10.6086 8.81205C10.7165 8.81205 10.838 8.77265 10.9325 8.69387ZM12.2012 9.92821C12.2822 9.84942 12.3227 9.73124 12.3227 9.61306C12.3227 9.49488 12.2687 9.38983 12.2012 9.29791C12.0257 9.1272 11.7288 9.1272 11.5533 9.29791C11.4724 9.37669 11.4319 9.49488 11.4319 9.61306C11.4319 9.73124 11.4859 9.84942 11.5533 9.92821C11.6478 10.0201 11.7558 10.0464 11.8773 10.0464C11.9718 10.0464 12.1067 10.0201 12.2012 9.92821ZM13.4429 11.1494C13.5374 11.0706 13.5914 10.9525 13.5914 10.8343C13.5914 10.7161 13.5374 10.611 13.4429 10.5191C13.2675 10.3484 12.9435 10.3484 12.7681 10.5191C12.6736 10.5979 12.6196 10.7161 12.6196 10.8343C12.6196 10.9525 12.6736 11.0706 12.7681 11.1494C12.8625 11.2413 12.9975 11.2676 13.119 11.2676C13.2405 11.2939 13.3619 11.2545 13.4429 11.1494ZM14.8601 12.0686C14.8601 11.9504 14.8061 11.8454 14.7386 11.7535C14.5632 11.5828 14.2662 11.5828 14.0908 11.7535C13.9963 11.8454 13.9693 11.9504 13.9693 12.0686C13.9693 12.1868 14.0233 12.2918 14.0908 12.3838C14.1718 12.4626 14.2932 12.5019 14.4147 12.5019C14.5362 12.5019 14.6441 12.4494 14.7386 12.3838C14.8331 12.3181 14.8601 12.1868 14.8601 12.0686ZM15.9938 13.6444C16.0883 13.5525 16.1153 13.4474 16.1153 13.3292C16.1153 13.211 16.0613 13.106 15.9938 13.0141C15.8184 12.8434 15.5214 12.8434 15.346 13.0141C15.2515 13.106 15.2245 13.211 15.2245 13.3292C15.2245 13.4474 15.2785 13.5525 15.346 13.6444C15.427 13.7232 15.5484 13.7626 15.6699 13.7626C15.7914 13.7626 15.9264 13.71 15.9938 13.6444ZM17.2625 14.7999C17.357 14.7211 17.411 14.603 17.411 14.4848C17.411 14.3666 17.357 14.2615 17.2625 14.1696C17.0601 13.9989 16.7632 13.9989 16.5877 14.1696C16.4932 14.2615 16.4392 14.3666 16.4392 14.4848C16.4392 14.603 16.4932 14.708 16.5877 14.7999C16.6822 14.8918 16.8172 14.9181 16.9386 14.9181C17.0331 14.9444 17.1681 14.8918 17.2625 14.7999ZM18.5448 16.0343C18.6257 15.9555 18.6662 15.8373 18.6662 15.7191C18.6662 15.6009 18.6122 15.4959 18.5448 15.404C18.3693 15.2333 18.0724 15.2333 17.8969 15.404C17.8159 15.4959 17.7754 15.6009 17.7754 15.7191C17.7754 15.8373 17.8294 15.9424 17.8969 16.0343C17.9914 16.1262 18.0994 16.1525 18.2208 16.1525C18.3288 16.1787 18.4503 16.1262 18.5448 16.0343ZM19.8135 17.2817C19.8945 17.203 19.9349 17.0848 19.9349 16.9666C19.9349 16.8484 19.881 16.7302 19.8135 16.6514C19.638 16.4807 19.3411 16.4807 19.1656 16.6514C19.0846 16.7302 19.0441 16.8484 19.0441 16.9666C19.0441 17.0848 19.0981 17.1898 19.1656 17.2817C19.2601 17.3737 19.3681 17.3999 19.4895 17.3999C19.611 17.3999 19.719 17.3605 19.8135 17.2817ZM21.0012 18.5161C21.0957 18.4373 21.1227 18.3191 21.1227 18.2009C21.1227 18.0828 21.0687 17.9777 21.0012 17.8858C20.8257 17.7151 20.5288 17.7151 20.3533 17.8858C20.2724 17.9777 20.2319 18.0828 20.2319 18.2009C20.2319 18.3191 20.2859 18.4373 20.3533 18.5161C20.4478 18.608 20.5558 18.6343 20.6773 18.6343C20.7987 18.6343 20.9337 18.608 21.0012 18.5161ZM22.3509 19.7504C22.4454 19.6716 22.4724 19.5535 22.4724 19.4353C22.4724 19.3171 22.4184 19.2121 22.3509 19.1201C22.1754 18.9494 21.8785 18.9494 21.703 19.1201C21.6086 19.2121 21.5816 19.3171 21.5816 19.4353C21.5816 19.5535 21.6356 19.6716 21.703 19.7504C21.784 19.8292 21.9055 19.8686 22.027 19.8686C22.1484 19.8686 22.2699 19.8424 22.3509 19.7504ZM23.6061 20.9716C23.7006 20.8797 23.7546 20.7747 23.7546 20.6565C23.7546 20.5383 23.7006 20.4333 23.6061 20.3413C23.4037 20.1706 23.1067 20.1706 22.9313 20.3413C22.8368 20.4333 22.7828 20.5383 22.7828 20.6565C22.7828 20.7747 22.8368 20.8797 22.9313 20.9716C23.0257 21.0504 23.1607 21.0898 23.2822 21.0898C23.3902 21.1161 23.5116 21.0767 23.6061 20.9716ZM11.3779 6.54033C12.6736 5.72619 14.0773 5.33225 15.6429 5.30599C17.1816 5.30599 18.5987 5.71306 19.9079 6.54033L22.6343 3.88781C20.5018 2.32518 18.1938 1.52417 15.6429 1.52417C13.092 1.52417 10.757 2.32518 8.6785 3.88781L11.3779 6.54033ZM8.65151 17.4262C7.7877 16.1525 7.3558 14.7737 7.3558 13.303C7.3558 11.806 7.77421 10.4272 8.65151 9.17973L5.95212 6.55346C4.35948 8.57569 3.57666 10.8211 3.57666 13.3292C3.57666 15.7848 4.37298 18.0565 5.97911 20.105L8.65151 17.4262ZM19.9214 20.0656C18.6257 20.906 17.2221 21.3393 15.6834 21.3656C14.1178 21.3656 12.6871 20.9585 11.3914 20.0918L8.665 22.7181C10.7705 24.307 13.1055 25.108 15.6834 25.0817C18.2343 25.0555 20.5423 24.2676 22.6343 22.7181L19.9214 20.0656ZM22.5668 9.15346C23.4306 10.4272 23.876 11.8322 23.8625 13.3555C23.8356 14.8262 23.4172 16.1787 22.5668 17.4131L25.2932 20.0393C26.8994 18.0171 27.7227 15.7716 27.7227 13.303C27.7497 10.7949 26.9264 8.52316 25.2932 6.47467L22.5668 9.15346ZM25.4147 20.8797C26.454 20.8797 27.3313 21.6939 27.3313 22.7444C27.3313 23.7555 26.4945 24.609 25.4147 24.609C24.3754 24.609 23.4981 23.7949 23.4981 22.7444C23.5116 21.707 24.3484 20.8797 25.4147 20.8797ZM5.92513 20.8797C6.96439 20.8797 7.8147 21.6939 7.8147 22.7444C7.8147 23.7555 6.97789 24.609 5.92513 24.609C4.87237 24.609 4.03556 23.7949 4.03556 22.7444C4.03556 21.707 4.88586 20.8797 5.92513 20.8797ZM25.4417 1.93124C26.481 1.93124 27.3313 2.74538 27.3313 3.79589C27.3313 4.83326 26.4945 5.66054 25.4417 5.66054C24.3889 5.66054 23.5521 4.84639 23.5521 3.79589C23.5656 2.75851 24.4024 1.93124 25.4417 1.93124ZM5.89813 1.93124C6.9374 1.93124 7.8147 2.74538 7.8147 3.76963C7.8147 4.78074 6.97789 5.60801 5.89813 5.60801C4.85887 5.60801 3.98157 4.79387 3.98157 3.76963C3.99507 2.75851 4.83187 1.93124 5.89813 1.93124ZM41.8405 16.7959L40.8957 15.9817C40.3288 16.6383 39.1816 17.0191 38.2233 17.0191C36.6172 17.0191 35.3214 16.0737 35.173 14.5636H42.3129C42.6368 11.307 40.6797 9.7575 38.1018 9.7575C35.5779 9.7575 33.7423 11.5171 33.7423 13.9989C33.7423 16.5989 35.5509 18.2666 38.1828 18.2666C39.5055 18.2535 40.9767 17.7676 41.8405 16.7959ZM41.0171 13.3949H35.1865C35.4294 11.8323 36.6981 10.9525 38.1693 10.9525C39.8024 10.9525 40.9227 11.7929 41.0171 13.3424V13.3949V13.3949ZM45.7816 6.50094H44.3914V18.109H45.7816V6.50094ZM49.7227 9.92821H48.427V18.109H49.8172V13.5525C49.8172 12.0555 50.9374 11.11 52.3006 11.0969C52.8675 11.0969 53.3129 11.2413 53.7583 11.5565L54.3791 10.4009C53.8527 10.0201 53.1644 9.77064 52.4221 9.7969C51.4503 9.7969 50.411 10.0858 49.8441 11.1494L49.7227 9.92821ZM55.1889 14.0252C55.1889 16.507 57.0245 18.2535 59.5484 18.2535C62.0724 18.2535 63.9079 16.5201 63.9079 14.0252C63.9079 11.4908 62.0994 9.73124 59.5484 9.73124C57.0515 9.73124 55.1889 11.4908 55.1889 14.0252ZM62.5313 14.0252C62.5043 15.7323 61.2626 16.9666 59.5349 16.9666C57.8208 16.9666 56.5791 15.7323 56.5791 14.0252C56.5791 12.1868 57.8478 10.9787 59.5619 10.9787C61.2356 10.9918 62.5313 12.2131 62.5313 14.0252ZM65.919 9.90195V18.109H67.3092V13.71C67.3092 12.2393 68.3754 11.0575 69.8871 11.0312C71.4932 11.0312 72.438 12.0161 72.438 13.5918V18.109H73.8282V13.5918C73.8282 11.1757 72.2625 9.7969 70.13 9.7969C69.0098 9.7969 67.9705 10.2565 67.2552 11.2151L67.1742 9.91508L65.919 9.90195ZM84.5313 6.50094H83.1411V11.3989C82.5472 10.2828 81.184 9.7575 79.9963 9.7575C77.6208 9.7575 75.7583 11.2545 75.7583 13.9989C75.7583 16.704 77.6208 18.2403 80.0233 18.2403C81.265 18.2403 82.5067 17.7151 83.1681 16.5727L83.2491 18.0696H84.5583L84.5313 6.50094ZM80.1178 11.0312C81.7779 11.0312 83.1006 12.2393 83.1006 13.9727C83.1006 15.7585 81.7914 16.9666 80.1178 16.9666C78.4846 16.9666 77.1619 15.8767 77.1619 13.9989C77.1619 12.0949 78.4576 11.0575 80.0638 11.0312H80.1178V11.0312Z" fill="black"/>
</svg>
