<svg width="84" height="33" viewBox="0 0 84 33" fill="none" xmlns="http://www.w3.org/2000/svg">
<path d="M46.2437 18.7825H40.1118V23.3762H47.2793V25.4475H37.5176V10.5178H47.2075V12.6096H40.1118V16.7317H46.2437V18.7825ZM65.7166 18.3723C65.7166 19.8352 65.4637 21.1204 64.9579 22.2278C64.452 23.3284 63.7274 24.176 62.784 24.7708C61.8475 25.3586 60.7674 25.6526 59.5438 25.6526C58.3338 25.6526 57.2537 25.3586 56.3036 24.7708C55.3602 24.176 54.6287 23.3318 54.1092 22.238C53.5965 21.1443 53.3368 19.8831 53.3299 18.4543V17.6135C53.3299 16.1575 53.5863 14.8723 54.099 13.7581C54.6185 12.6438 55.3465 11.7927 56.283 11.2048C57.2264 10.6101 58.3065 10.3127 59.5233 10.3127C60.7401 10.3127 61.8167 10.6067 62.7533 11.1946C63.6966 11.7756 64.4246 12.6165 64.9373 13.717C65.45 14.8108 65.7098 16.0857 65.7166 17.5417V18.3723ZM63.1224 17.593C63.1224 15.9387 62.8079 14.6707 62.179 13.7888C61.557 12.907 60.6717 12.4661 59.5233 12.4661C58.4022 12.4661 57.5238 12.907 56.888 13.7888C56.2591 14.6638 55.9378 15.9045 55.9242 17.511V18.3723C55.9242 20.0129 56.242 21.281 56.8778 22.1765C57.5204 23.072 58.409 23.5198 59.5438 23.5198C60.6922 23.5198 61.5741 23.0823 62.1893 22.2073C62.8114 21.3323 63.1224 20.054 63.1224 18.3723V17.593ZM80.5138 21.6023C80.5138 20.946 80.2814 20.4402 79.8166 20.0847C79.3586 19.7292 78.528 19.3704 77.3249 19.0081C76.1218 18.6458 75.1647 18.2424 74.4538 17.7981C73.0934 16.9436 72.4133 15.8293 72.4133 14.4553C72.4133 13.2522 72.902 12.261 73.8796 11.4817C74.8639 10.7024 76.1388 10.3127 77.7043 10.3127C78.7433 10.3127 79.6696 10.5042 80.4831 10.887C81.2966 11.2698 81.9357 11.8167 82.4006 12.5276C82.8654 13.2317 83.0978 14.0144 83.0978 14.8757H80.5138C80.5138 14.0964 80.2678 13.488 79.7756 13.0505C79.2902 12.6062 78.5929 12.384 77.6838 12.384C76.8361 12.384 76.1764 12.5652 75.7048 12.9275C75.2399 13.2898 75.0075 13.7957 75.0075 14.4451C75.0075 14.9919 75.2604 15.45 75.7663 15.8191C76.2721 16.1814 77.1061 16.5369 78.2682 16.8855C79.4304 17.2273 80.3635 17.6204 81.0676 18.0647C81.7717 18.5022 82.2878 19.0081 82.6159 19.5823C82.944 20.1497 83.1081 20.8162 83.1081 21.5818C83.1081 22.8259 82.6296 23.8171 81.6725 24.5554C80.7223 25.2869 79.4304 25.6526 77.7966 25.6526C76.7165 25.6526 75.7219 25.4543 74.8127 25.0579C73.9103 24.6545 73.2062 24.1008 72.7004 23.3967C72.2013 22.6926 71.9518 21.8723 71.9518 20.9358H74.5461C74.5461 21.7834 74.8263 22.4397 75.3869 22.9045C75.9474 23.3694 76.7507 23.6018 77.7966 23.6018C78.6989 23.6018 79.3757 23.4207 79.8268 23.0583C80.2848 22.6892 80.5138 22.2039 80.5138 21.6023Z" fill="black"/>
<g clip-path="url(#clip0)">
<path d="M10.5 0.44751L3.0994 10.7515L0 25.9835L10.5 32.4475L21 25.9835L17.8373 10.6875L10.5 0.44751ZM1.70783 25.2795L4.04819 13.6955L9.36145 30.0155L1.70783 25.2795ZM4.80723 11.0715L10.5 3.13551L16.1928 11.0715L10.5 28.4795L4.80723 11.0715ZM11.5753 30.0155L16.8886 13.6955L19.2289 25.2795L11.5753 30.0155Z" fill="black"/>
</g>
<defs>
<clipPath id="clip0">
<rect width="21" height="32" fill="white" transform="translate(0 0.44751)"/>
</clipPath>
</defs>
</svg>
