<svg width="87" height="27" viewBox="0 0 87 27" fill="none" xmlns="http://www.w3.org/2000/svg">
<g clip-path="url(#clip0)">
<path fill-rule="evenodd" clip-rule="evenodd" d="M0 0.44751L10.7404 26.4475L25.7045 8.90623L20.4067 4.06064L0 0.44751ZM3.80763 2.51566L18.5169 5.12046L12.8073 9.69744L3.80763 2.51566ZM2.7876 3.48303L12.1668 10.9679L10.7003 22.6395L2.7876 3.48303ZM20.0783 5.65243L23.1998 8.5077L14.6624 9.99532L20.0783 5.65243ZM13.5244 11.5871L22.9784 9.94031L12.1345 22.6518L13.5244 11.5871Z" fill="#131212"/>
<path fill-rule="evenodd" clip-rule="evenodd" d="M55.0072 12.8737C55.6972 12.2393 56.0476 11.3675 56.0476 10.2818C56.0476 6.34888 52.4098 6.35061 52.3726 6.34945L45.9706 6.34888H44.707V18.7047H45.9706V7.5807H52.336C52.5286 7.58994 54.784 7.75577 54.784 10.2818C54.784 11.0219 54.5752 11.5749 54.145 11.973C53.3254 12.7316 51.9574 12.6715 51.9466 12.6703L46.9186 12.6692V18.7047H48.1822V13.9016H51.895H51.901L54.8734 18.7468H56.3458L53.281 13.7508C53.845 13.6133 54.4822 13.3562 55.0072 12.8737Z" fill="#131212"/>
<mask id="mask0" mask-type="alpha" maskUnits="userSpaceOnUse" x="0" y="-1" width="87" height="27">
<path d="M0 25.1547H86.436V-0.515381H0V25.1547Z" fill="white"/>
</mask>
<g mask="url(#mask0)">
<path fill-rule="evenodd" clip-rule="evenodd" d="M34.4995 18.7049H35.7631V10.2041H34.4995V18.7049Z" fill="#131212"/>
<path fill-rule="evenodd" clip-rule="evenodd" d="M30.5083 7.56543H41.8279V6.34863H30.5083V7.56543Z" fill="#131212"/>
<path fill-rule="evenodd" clip-rule="evenodd" d="M36.7104 18.7049H37.9734V10.2041H36.7104V18.7049Z" fill="#131212"/>
<path fill-rule="evenodd" clip-rule="evenodd" d="M77.2493 18.6507H78.5279V14.1648H77.2493V18.6507Z" fill="#131212"/>
<path fill-rule="evenodd" clip-rule="evenodd" d="M85.1578 6.43237V16.3499L74.9548 5.13525V18.6264H76.2334V8.79779L86.4364 20.0125V6.43237H85.1578Z" fill="#131212"/>
<path fill-rule="evenodd" clip-rule="evenodd" d="M65.81 17.5029C62.936 17.5029 60.5978 15.2513 60.5978 12.4837C60.5978 9.71615 62.936 7.46455 65.81 7.46455C68.684 7.46455 71.0222 9.71615 71.0222 12.4837C71.0222 15.2513 68.684 17.5029 65.81 17.5029ZM65.81 6.23389C62.231 6.23389 59.3198 9.03784 59.3198 12.4837C59.3198 15.9302 62.231 18.7335 65.81 18.7335C69.389 18.7335 72.3002 15.9302 72.3002 12.4837C72.3002 9.03784 69.389 6.23389 65.81 6.23389Z" fill="#131212"/>
<path fill-rule="evenodd" clip-rule="evenodd" d="M65.8082 11.498C65.3234 11.498 64.9304 11.8765 64.9304 12.3428C64.9304 12.8102 65.3234 13.188 65.8082 13.188C66.293 13.188 66.686 12.8102 66.686 12.3428C66.686 11.8765 66.293 11.498 65.8082 11.498Z" fill="#131212"/>
</g>
</g>
<defs>
<clipPath id="clip0">
<rect width="87" height="26" fill="white" transform="translate(0 0.44751)"/>
</clipPath>
</defs>
</svg>
