<svg width="79" height="22" viewBox="0 0 79 22" fill="none" xmlns="http://www.w3.org/2000/svg">
<path d="M20.0645 10.5552C18.7061 10.5431 17.4197 11.1803 16.6143 12.2863C15.6886 13.4164 15.2077 14.847 15.2318 16.3016C15.1837 17.2393 15.4962 18.165 16.0973 18.8863C16.6744 19.5475 17.5279 19.9082 18.4055 19.8601C19.7039 19.8601 20.9301 19.259 21.7236 18.2251C22.7093 17.047 23.2383 15.5563 23.2143 14.0295C23.2503 13.1278 22.9979 12.2382 22.4809 11.5049C21.964 10.8798 21.1465 10.5552 20.0645 10.5552ZM20.1246 17.4557C19.6919 17.9005 19.0908 18.153 18.4656 18.165C18.0449 18.189 17.6361 18.0087 17.3837 17.6721C17.0951 17.2754 16.9629 16.7945 16.999 16.3136C16.9629 15.2798 17.2514 14.2579 17.8405 13.4043C18.3093 12.671 19.1148 12.2262 19.9924 12.2382C20.9662 12.2382 21.4591 12.8393 21.4591 14.0295C21.4591 15.3038 20.9902 16.53 20.1246 17.4557ZM72.6842 14.847C72.2755 14.7027 71.8186 14.9071 71.6503 15.3038C70.893 17.2032 69.9673 18.153 68.8252 18.153C68.2241 18.153 67.9236 17.636 67.9236 16.6623C67.9957 15.5563 68.164 14.4623 68.4044 13.3803L68.6449 12.2382H70.9771C71.3738 12.2382 71.7225 11.9497 71.7946 11.553C71.8908 11.0961 71.5902 10.6513 71.1454 10.5672C71.0973 10.5552 71.0372 10.5552 70.9891 10.5552H69.0536L69.4383 8.65571C69.5345 8.18686 69.2339 7.718 68.7651 7.60981C68.705 7.59778 68.6569 7.58576 68.5968 7.58576C68.188 7.57374 67.8394 7.86226 67.7552 8.27101L67.2503 10.5191H61.8165C60.446 10.5071 59.1596 11.1563 58.3662 12.2743C57.4405 13.4043 56.9596 14.8349 56.9837 16.2896C56.9837 16.6863 57.0318 17.071 57.1159 17.4557C56.7673 17.8765 56.2503 18.1169 55.6973 18.141C55.4208 18.165 55.1443 18.0568 54.964 17.8404C54.7957 17.5399 54.7236 17.2032 54.7476 16.8666C54.7837 15.8929 54.9159 14.9191 55.1323 13.9573L56.5389 7.39341C56.6471 6.92456 56.3585 6.46773 55.8897 6.35953C55.4208 6.25134 54.964 6.53986 54.8558 7.00871L54.0383 11.024C53.4613 10.6754 52.8001 10.5071 52.1389 10.5071C50.7804 10.483 49.482 11.0841 48.6044 12.142C47.6547 13.3082 47.1498 14.7628 47.1979 16.2655C47.1859 16.7464 47.258 17.2153 47.3902 17.6721C47.0536 17.9606 46.6328 18.1289 46.2001 18.1289C45.9115 18.153 45.623 18.0448 45.4186 17.8284C45.2263 17.5399 45.1421 17.1912 45.1782 16.8546C45.2022 16.2054 45.2984 15.5563 45.4547 14.9191C45.5509 14.4382 45.2383 13.9694 44.7454 13.8732C44.7214 13.8732 44.6973 13.8612 44.6733 13.8612C44.2405 13.8011 43.8318 14.0896 43.7236 14.5104C43.4951 15.436 43.0864 16.3136 42.5334 17.0951C42.1367 17.7082 41.4755 18.1049 40.7421 18.153C40.3574 18.141 40.0088 17.9366 39.8165 17.612C39.564 17.1792 39.4438 16.6743 39.4558 16.1694C39.4077 15.1475 39.6962 14.1497 40.2973 13.3202C40.8022 12.5869 41.6438 12.1661 42.5214 12.1781C42.9662 12.1781 43.411 12.2743 43.8318 12.4546C44.0842 12.5748 44.3727 12.5508 44.6132 12.3945C45.0099 12.1541 45.1421 11.6371 44.9017 11.2404C44.8055 11.0841 44.6733 10.9639 44.505 10.8918C44.2886 10.7956 44.0602 10.7235 43.8318 10.6754C43.411 10.5552 42.9902 10.4951 42.5574 10.483C41.211 10.483 39.9247 11.0721 39.0591 12.118C38.5421 12.6951 38.1695 13.3803 37.941 14.1257C37.0995 16.8065 36.0175 18.1049 34.7072 18.1049C34.3225 18.1289 33.9618 17.9726 33.7334 17.6721C33.517 17.3595 33.4088 16.9869 33.4328 16.6142C33.4208 16.494 33.4328 16.3737 33.4569 16.2655C34.2383 15.965 34.9356 15.436 35.4405 14.7748C35.9334 14.1377 36.2099 13.3563 36.2219 12.5508C36.2219 11.1923 35.4886 10.5071 33.9979 10.5071C32.964 10.5071 31.9662 10.9158 31.2328 11.6492L32.1585 7.38139C32.2547 6.91254 31.9542 6.46773 31.4973 6.37156C31.4372 6.35953 31.3771 6.34751 31.317 6.35953C30.9083 6.34751 30.5596 6.63604 30.4755 7.04478L27.9509 18.8262C27.8547 19.283 28.1432 19.7399 28.6121 19.836C28.6722 19.8481 28.7323 19.8601 28.7924 19.8601C29.1891 19.8481 29.5378 19.5595 29.5979 19.1628L30.3793 15.5563C30.5115 15.0754 30.6919 14.6065 30.9203 14.1737C31.2088 13.6688 31.5935 13.224 32.0624 12.8754C32.5312 12.4666 33.1443 12.2382 33.7695 12.2502C34.082 12.2022 34.3706 12.4185 34.4186 12.7311C34.4307 12.7912 34.4307 12.8393 34.4186 12.8994C34.3706 13.4765 34.07 14.0054 33.6012 14.342C33.1083 14.7869 32.4951 15.0754 31.8339 15.1836C31.7738 15.7005 31.7498 16.0852 31.7498 16.3016C31.7137 17.2393 31.9782 18.153 32.5072 18.9224C33.0241 19.5836 33.8416 19.9322 34.6831 19.8721C35.8372 19.8601 36.9312 19.3191 37.6405 18.4054L37.9651 18.0207C38.0853 18.3333 38.2656 18.6339 38.482 18.8863C39.011 19.5355 39.8165 19.8961 40.658 19.8601C41.8241 19.8601 42.8099 19.3191 43.6154 18.177C43.964 19.3191 44.7815 19.8601 46.14 19.8601C46.8973 19.8481 47.6427 19.5716 48.2197 19.0907C48.7487 19.5836 49.446 19.8481 50.1553 19.824C51.3214 19.824 52.2951 19.283 53.1126 18.141C53.4613 19.283 54.2787 19.824 55.6372 19.824C56.5028 19.836 57.3323 19.5114 57.9695 18.9224C58.5465 19.5235 59.34 19.8481 60.1695 19.824C61.4678 19.824 62.694 19.2229 63.4875 18.189C64.4613 17.0109 64.9902 15.5322 64.9782 14.0054C64.9902 13.3803 64.882 12.7672 64.6536 12.1901H66.9137L66.6973 13.1639C66.4208 14.294 66.2405 15.4481 66.1563 16.6142C66.1563 18.73 67.0219 19.812 68.729 19.812C70.6645 19.812 72.1192 18.5016 73.1531 15.9289C73.3334 15.5442 73.1531 15.0754 72.7684 14.8951C72.7323 14.871 72.7083 14.859 72.6842 14.847ZM53.4252 13.8131C53.1247 15.3038 52.6438 16.3978 52.0908 17.1071C51.5378 17.8164 50.9006 18.165 50.2514 18.165C49.8667 18.153 49.5181 17.9486 49.3257 17.624C49.0853 17.1912 48.9531 16.7104 48.9771 16.2175C48.929 15.1956 49.2296 14.1978 49.8186 13.3683C50.576 12.2022 52.1389 11.8776 53.305 12.6349C53.4132 12.7071 53.5214 12.7912 53.6296 12.8874L53.4252 13.8131ZM62.8864 15.8568C62.6219 16.4218 62.2973 16.9508 61.9126 17.4317C61.4798 17.8885 60.8788 18.153 60.2536 18.165C59.8329 18.189 59.4361 18.0087 59.1716 17.6721C58.8831 17.2754 58.7509 16.7945 58.7869 16.3136C58.7509 15.2798 59.0394 14.2579 59.6285 13.4043C60.0973 12.671 60.9028 12.2382 61.7804 12.2382C62.7542 12.2382 63.2471 12.8393 63.2471 14.0295C63.223 14.6546 63.1028 15.2677 62.8864 15.8448V15.8568ZM27.4219 6.34751C27.0132 6.33549 26.6645 6.62401 26.5804 7.03276L24.0558 18.8142C23.9596 19.271 24.2481 19.7278 24.717 19.824C24.7771 19.836 24.8372 19.8481 24.8973 19.8481C25.3061 19.8601 25.6547 19.5716 25.7389 19.1628L28.2634 7.38139C28.3476 6.91254 28.0471 6.45571 27.5782 6.35953C27.5301 6.35953 27.482 6.34751 27.4219 6.34751ZM9.36509 3.73877C5.95088 3.75079 3.18585 6.51582 3.17383 9.93003C3.17383 10.6153 3.28202 11.2885 3.49842 11.9377C3.6547 12.3825 4.13558 12.6109 4.58039 12.4787C5.01317 12.3104 5.25361 11.8415 5.10935 11.3967C4.92902 10.8918 4.84487 10.3508 4.86891 9.82183C4.94104 7.35735 6.99678 5.42183 9.46126 5.49396C11.9257 5.56609 13.8613 7.62183 13.7891 10.0863C13.717 12.3945 11.9017 14.2699 9.5935 14.4142C9.5935 14.4142 8.72793 14.4743 8.29514 14.5224C8.13886 14.5464 7.98257 14.5705 7.82629 14.6186C7.80224 14.6426 7.76618 14.6306 7.74213 14.6065C7.73011 14.5825 7.73011 14.5584 7.74213 14.5344L7.87437 13.8011L8.69186 10.1104C8.78804 9.65352 8.49951 9.19669 8.04268 9.10052C7.58585 9.00434 7.12902 9.29287 7.03284 9.7497C7.03284 9.7497 5.09733 18.7661 5.09733 18.8502C4.98913 19.2951 5.25361 19.7399 5.69842 19.8481C5.71044 19.8481 5.73448 19.8601 5.74651 19.8601C6.19131 19.9683 6.63612 19.6918 6.74432 19.247C6.74432 19.2349 6.75634 19.2229 6.75634 19.2109C6.78039 19.1027 7.03284 17.9005 7.03284 17.9005C7.21317 16.9989 7.94651 16.3136 8.84815 16.1694C9.04049 16.1453 9.82192 16.0852 9.82192 16.0852C13.2241 15.7726 15.7246 12.7552 15.4121 9.35297C15.1236 6.21527 12.5268 3.79888 9.36509 3.73877Z" fill="#1E1E1E"/>
<path d="M74.4875 17.9967C73.9225 17.8885 73.3815 18.2492 73.2613 18.8022C73.141 19.3552 73.4897 19.8962 74.0427 20.0164C74.0547 20.0164 74.0667 20.0164 74.0667 20.0164C74.6077 20.1366 75.1487 19.8 75.2809 19.259C75.2809 19.235 75.2929 19.2229 75.2929 19.1989C75.3891 18.6579 75.0285 18.129 74.4875 17.9967Z" fill="#E6007A"/>
</svg>
